<svg width="240" height="110" viewBox="0 0 240 110" fill="none" xmlns="http://www.w3.org/2000/svg">
<rect width="240" height="110" fill="white"/>
<path d="M136.787 73.1562L120.816 82.6473L114.536 79.9611L99.103 66.0826L92.3737 60.9789L93.7196 57.2182L95.514 56.0542L92.912 53.0099L95.514 49.0702V46.9213L96.4113 43.6979L98.0263 42.892L96.4113 38.9523L97.1291 35.3707H100.628L116.689 37.2511L128.174 34.1172L132.391 37.7883L134.903 46.2049L135.89 56.0542L134.903 63.486V67.4257L136.787 73.1562Z" fill="white"/>
<path d="M125.086 20.6141C125.086 19.758 124.392 19.064 123.536 19.064L104.385 19.064C103.529 19.064 102.835 19.758 102.835 20.6141V44.9887C102.835 44.9887 104.943 47.1227 104.943 48.2121C104.943 49.3015 102.835 51.2564 102.835 51.2564C102.835 51.2564 102.035 52.5071 102.341 53.0919C102.647 53.6768 104.943 55.2856 104.943 55.2856L107.635 58.509L106.249 60.8898L102.835 63.6107L104.122 65.794L121.471 66.1417L125.086 64.1169L125.086 20.6141Z" fill="#50E3C2"/>
<path fill-rule="evenodd" clip-rule="evenodd" d="M118.418 83.0906C118.408 83.3476 118.483 83.605 118.632 83.8296L123.469 92L126.14 91.2761L121.688 83.5428L135.641 75.4724L137.968 74.1285L138.645 73.7379L138.87 73.6087L147.012 82.3308L149 81.3369L139.943 71.2719C139.543 70.8541 138.891 70.764 138.378 71.0555L137.819 71.3733L137.563 71.5188L136.487 70.1341C136.383 69.9475 136.27 69.6802 136.165 69.3583C135.989 68.822 135.861 68.2122 135.789 67.5383C135.576 65.5526 135.858 63.2589 136.671 60.6976C138.398 55.2338 137.097 45.9186 133.702 38.1375C133.551 37.7879 133.334 37.3558 133.084 36.9132C132.665 36.1727 132.204 35.4955 131.711 34.9069C130.297 33.22 128.78 32.4355 127.206 32.6756L126.816 32.7352V21.6052C126.816 19.6171 125.164 18 123.139 18L105.311 18C103.287 18 101.639 19.6158 101.639 21.6052V34.572L101.126 34.2666C100.624 33.9681 100.11 33.7707 99.5876 33.6808C98.5846 33.5133 97.6241 33.7618 96.7888 34.404C95.463 35.4233 95.0042 37.546 95.5006 39.6089C95.6886 40.402 96.0518 41.2374 96.5997 42.1419L96.7729 42.428L96.4836 42.5998C95.9824 42.8975 95.5281 43.2948 95.1432 43.7724C93.9859 45.2187 93.7463 47.0475 94.5546 48.3148L94.7321 48.5931L94.4532 48.7728C93.9878 49.0726 93.5727 49.446 93.2243 49.8797C91.7992 51.6594 91.7982 53.9497 93.2342 55.1004L93.9255 55.7049L94.2669 56.0038L93.8782 56.2396C93.4348 56.5087 93.039 56.8366 92.6995 57.2175C91.8612 58.1554 91.4149 59.326 91.4826 60.4203C91.5365 61.2382 91.8867 61.964 92.472 62.4668L96.8931 66.2727C97.3342 66.6504 97.8825 66.8784 98.5001 66.9435L98.7237 67.0613C105.675 75.2618 112.381 80.7902 118.19 82.762L118.428 82.8426L118.418 83.0906ZM107.848 60.2714C107.675 60.9428 107.36 61.5838 106.917 62.1607C106.138 63.179 105.066 63.8538 103.969 64.0117L103.559 64.0708C103.559 64.0708 104.265 64.3156 104.751 64.3156L122.749 64.3156C123.37 64.3156 123.879 63.7909 123.879 63.1367V59.6821L123.877 38.303C123.849 37.8434 123.849 37.3717 123.879 36.8552L123.879 23.4562C123.879 22.172 122.838 21.131 121.553 21.131L106.235 21.131C104.95 21.131 103.909 22.1721 103.909 23.4563L103.909 45.1156C103.905 45.1694 103.9 45.2098 103.882 45.3706L103.876 45.4263L104.022 45.5384L104.696 46.0575C106.178 47.1981 106.195 49.5023 104.761 51.2972C104.365 51.7909 103.884 52.204 103.35 52.5115L102.949 52.7421L103.297 53.0451L107.141 56.3966C107.264 56.4951 107.43 56.6708 107.637 56.9236C108.079 57.9257 108.171 58.9564 107.912 60.0156L107.848 60.2714ZM96.7472 46.642L96.813 46.7549L101.438 50.2724L101.508 50.2894L101.53 50.294L101.536 50.2951L101.542 50.2959L101.572 50.2999C101.604 50.3026 101.615 50.3031 101.645 50.3031C102.071 50.3031 102.617 49.9886 103.013 49.4905C103.479 48.9091 103.649 48.1841 103.457 47.8758L103.392 47.772L98.6837 44.2228H98.5689C98.1437 44.2228 97.5988 44.5356 97.1955 45.036C96.738 45.6072 96.5651 46.3296 96.7472 46.642ZM103.774 60.8174H103.684L94.6279 53.1058L94.5678 53.0579L94.4899 52.9698C94.3007 52.6565 94.4756 51.9331 94.9474 51.3606C95.2681 50.9689 95.6848 50.6848 96.0703 50.5841L96.2454 50.473L96.3272 50.3751L105.583 58.2609L105.643 58.3086L105.721 58.3968C105.909 58.7074 105.734 59.4292 105.266 60.0033C104.856 60.504 104.301 60.8185 103.864 60.8214L103.81 60.8192L103.774 60.8174ZM101.272 38.0593L101.174 37.9664C101.119 37.9143 101.08 37.872 101.05 37.8255C100.375 36.8302 99.4422 36.0842 98.752 35.9743C98.459 35.9267 98.2087 35.9921 97.9317 36.1955C97.4809 36.5253 97.2877 37.7285 97.5492 38.7753C97.7642 39.6375 98.3466 40.657 99.3017 41.836L99.3535 41.9L99.4321 41.9344C99.6364 42.0237 99.8162 42.1245 99.9672 42.2355L101.272 43.2057L101.272 38.0593ZM127.031 77.5453L120.994 81.0289L120.891 81.0883L120.774 81.0681C115.501 80.1554 108.847 74.9726 101.568 66.5602L101.343 66.2993L101.683 66.0159C101.782 65.934 101.834 65.8888 101.887 65.8382L102.157 65.5808L102.379 65.8818C103.067 66.8135 104.153 67.3673 105.313 67.3673L122.955 67.3673C124.964 67.3673 126.596 65.7467 126.596 63.7529L126.596 50.3364C126.67 50.1789 126.698 50.0971 126.714 50.0203L127.887 44.5698C127.931 44.3515 127.918 44.1264 127.849 43.9228C127.132 41.7755 126.719 39.9766 126.598 38.5494L126.598 36.8953C126.677 36.1659 126.867 35.6366 127.123 35.3302L127.21 35.2271L127.343 35.2135C128.444 35.1008 130.054 36.8312 131.074 39.1777C134.197 46.4319 135.44 55.203 133.921 60.0675C132.915 63.2884 132.632 66.1515 133.026 68.6118C133.158 69.4302 133.36 70.1681 133.624 70.8143C133.78 71.1954 133.937 71.4991 134.112 71.7607L134.781 72.6327L135.016 72.9391L127.031 77.5453ZM93.7199 60.0043L93.779 60.111L98.2333 63.7805L98.2997 63.8015C98.3224 63.8078 98.3225 63.8078 98.3333 63.8105L98.3335 63.8105C98.3366 63.8111 98.3389 63.8116 98.3413 63.812C98.3484 63.8134 98.3555 63.8147 98.384 63.8197C98.4099 63.8234 98.4484 63.8261 98.4903 63.8261C98.9205 63.8261 99.4615 63.5504 99.8764 63.1013C100.406 62.529 100.62 61.9617 100.474 61.6786L100.415 61.5632L95.8515 57.7505L95.8375 57.7718C95.8125 57.7645 95.8125 57.7645 95.8006 57.7616C95.7876 57.759 95.7876 57.759 95.7496 57.7522C95.7239 57.7485 95.6852 57.7458 95.6427 57.7458C95.2116 57.7458 94.6657 58.0231 94.2542 58.4698C93.7589 59.0036 93.5497 59.6971 93.7199 60.0043Z" fill="#132C45"/>
<path d="M118.632 83.8296L119.17 83.4718C119.176 83.4813 119.182 83.4908 119.188 83.5006L118.632 83.8296ZM118.418 83.0906L117.773 83.0659L117.773 83.0659L118.418 83.0906ZM123.469 92L123.638 92.6234C123.357 92.6994 123.061 92.5789 122.913 92.329L123.469 92ZM126.14 91.2761L126.7 90.9538C126.8 91.1274 126.813 91.3376 126.737 91.5228C126.66 91.7079 126.502 91.8471 126.309 91.8995L126.14 91.2761ZM121.688 83.5428L121.128 83.8651C120.95 83.5564 121.056 83.162 121.364 82.9837L121.688 83.5428ZM135.641 75.4724L135.318 74.9133L135.318 74.9131L135.641 75.4724ZM137.968 74.1285L137.645 73.5692L137.645 73.5689L137.968 74.1285ZM138.645 73.7379L138.323 73.1783L138.323 73.1783L138.645 73.7379ZM138.87 73.6087L138.547 73.0491C138.807 72.899 139.137 72.9483 139.342 73.1679L138.87 73.6087ZM147.012 82.3308L147.301 82.9085C147.045 83.0365 146.735 82.9808 146.54 82.7716L147.012 82.3308ZM149 81.3369L149.48 80.9048C149.615 81.0547 149.672 81.259 149.635 81.4571C149.597 81.6552 149.469 81.8244 149.289 81.9146L149 81.3369ZM139.943 71.2719L140.409 70.8248C140.414 70.8298 140.419 70.8347 140.423 70.8398L139.943 71.2719ZM138.378 71.0555L138.059 70.494L138.059 70.494L138.378 71.0555ZM137.819 71.3733L138.138 71.9348L138.138 71.9348L137.819 71.3733ZM137.563 71.5188L137.883 72.0803C137.604 72.2389 137.25 72.1686 137.053 71.9153L137.563 71.5188ZM136.487 70.1341L135.977 70.5306C135.956 70.5044 135.938 70.4767 135.922 70.4478L136.487 70.1341ZM136.165 69.3583L136.778 69.1573L136.778 69.1573L136.165 69.3583ZM135.789 67.5383L135.147 67.6073L135.147 67.6073L135.789 67.5383ZM136.671 60.6976L137.287 60.8922L137.287 60.8929L136.671 60.6976ZM133.702 38.1375L133.11 38.3958L133.109 38.394L133.702 38.1375ZM133.084 36.9132L133.646 36.5954L133.646 36.5954L133.084 36.9132ZM131.711 34.9069L131.216 35.3218L131.216 35.3218L131.711 34.9069ZM127.206 32.6756L127.109 32.0371L127.109 32.0371L127.206 32.6756ZM126.816 32.7352L126.913 33.3737C126.727 33.4021 126.538 33.3478 126.395 33.2251C126.252 33.1024 126.17 32.9235 126.17 32.7352H126.816ZM101.639 34.572H102.285C102.285 34.8043 102.16 35.0187 101.958 35.1335C101.756 35.2484 101.508 35.2459 101.309 35.1271L101.639 34.572ZM101.126 34.2666L101.456 33.7116L101.456 33.7116L101.126 34.2666ZM99.5876 33.6808L99.694 33.0437L99.6972 33.0442L99.5876 33.6808ZM96.7888 34.404L97.1825 34.916L97.1825 34.9161L96.7888 34.404ZM95.5006 39.6089L96.1285 39.4578L96.129 39.4598L95.5006 39.6089ZM96.5997 42.1419L97.1521 41.8073L97.1521 41.8073L96.5997 42.1419ZM96.7729 42.428L97.3254 42.0934C97.4146 42.2407 97.4413 42.4176 97.3995 42.5847C97.3577 42.7518 97.2509 42.8953 97.1028 42.9833L96.7729 42.428ZM96.4836 42.5998L96.1538 42.0445L96.1538 42.0445L96.4836 42.5998ZM95.1432 43.7724L94.6388 43.3688L94.6403 43.3671L95.1432 43.7724ZM94.5546 48.3148L94.0101 48.6622L94.0101 48.6622L94.5546 48.3148ZM94.7321 48.5931L95.2767 48.2457C95.4679 48.5455 95.3808 48.9434 95.0819 49.136L94.7321 48.5931ZM94.4532 48.7728L94.803 49.3157L94.803 49.3157L94.4532 48.7728ZM93.2243 49.8797L92.7201 49.476L92.7208 49.4751L93.2243 49.8797ZM93.2342 55.1004L93.6381 54.5963C93.6453 54.6021 93.6524 54.608 93.6594 54.6141L93.2342 55.1004ZM93.9255 55.7049L94.3507 55.2187L94.3511 55.219L93.9255 55.7049ZM94.2669 56.0038L94.6924 55.5179C94.8473 55.6535 94.9282 55.8548 94.9103 56.0599C94.8925 56.265 94.7779 56.4492 94.6019 56.556L94.2669 56.0038ZM93.8782 56.2396L93.5431 55.6874L93.5431 55.6874L93.8782 56.2396ZM92.6995 57.2175L93.1816 57.6473L93.1811 57.6479L92.6995 57.2175ZM91.4826 60.4203L90.838 60.4628L90.8379 60.4602L91.4826 60.4203ZM92.472 62.4668L92.8928 61.9768L92.8934 61.9773L92.472 62.4668ZM96.8931 66.2727L96.473 66.7632L96.4717 66.7622L96.8931 66.2727ZM98.5001 66.9435L98.5678 66.3012C98.6494 66.3098 98.7286 66.3338 98.8012 66.3721L98.5001 66.9435ZM98.7237 67.0613L99.0248 66.4899C99.0979 66.5284 99.163 66.5806 99.2164 66.6437L98.7237 67.0613ZM118.19 82.762L117.982 83.3736L117.982 83.3736L118.19 82.762ZM118.428 82.8426L118.635 82.231C118.906 82.3228 119.084 82.5816 119.073 82.8673L118.428 82.8426ZM106.917 62.1607L106.404 61.7684L106.404 61.7672L106.917 62.1607ZM107.848 60.2714L108.475 60.4273L108.474 60.4327L107.848 60.2714ZM103.969 64.0117L103.877 63.3724L103.877 63.3724L103.969 64.0117ZM103.559 64.0708L103.347 64.681C103.066 64.5834 102.888 64.3058 102.916 64.0092C102.944 63.7126 103.172 63.4739 103.467 63.4315L103.559 64.0708ZM123.879 59.6821L124.525 59.6821V59.6821H123.879ZM123.877 38.303L124.522 38.2626C124.523 38.2761 124.523 38.2895 124.523 38.303L123.877 38.303ZM123.879 36.8552L124.525 36.8551C124.525 36.8677 124.525 36.8802 124.524 36.8927L123.879 36.8552ZM123.879 23.4562L124.525 23.4562L124.525 23.4562L123.879 23.4562ZM103.909 23.4563H104.555H103.909ZM103.909 45.1156H104.555C104.555 45.1344 104.554 45.1533 104.553 45.1721L103.909 45.1156ZM103.882 45.3706L103.24 45.2997L103.24 45.2996L103.882 45.3706ZM103.876 45.4263L103.482 45.9381C103.303 45.8005 103.209 45.5796 103.234 45.3554L103.876 45.4263ZM104.022 45.5384L103.628 46.0503L103.628 46.0503L104.022 45.5384ZM104.696 46.0575L104.302 46.5693L104.302 46.5693L104.696 46.0575ZM104.761 51.2972L105.265 51.7004L105.265 51.7013L104.761 51.2972ZM103.35 52.5115L103.672 53.0714L103.672 53.0714L103.35 52.5115ZM102.949 52.7421L102.525 53.229C102.367 53.0918 102.286 52.887 102.306 52.6793C102.327 52.4716 102.446 52.2864 102.627 52.1823L102.949 52.7421ZM103.297 53.0451L102.872 53.532L102.872 53.532L103.297 53.0451ZM107.141 56.3966L106.737 56.9005C106.731 56.895 106.724 56.8893 106.717 56.8835L107.141 56.3966ZM107.637 56.9236L108.136 56.5136C108.174 56.559 108.205 56.6093 108.228 56.6631L107.637 56.9236ZM107.912 60.0156L108.54 60.1687L108.539 60.1715L107.912 60.0156ZM96.813 46.7549L96.422 47.269C96.3545 47.2176 96.2977 47.1535 96.255 47.0802L96.813 46.7549ZM96.7472 46.642L97.3052 46.3167L97.3052 46.3167L96.7472 46.642ZM101.438 50.2724L101.285 50.8999C101.199 50.8789 101.118 50.8403 101.047 50.7866L101.438 50.2724ZM101.508 50.2894L101.376 50.9217C101.369 50.9202 101.362 50.9186 101.355 50.9169L101.508 50.2894ZM101.53 50.294L101.414 50.9294C101.408 50.9284 101.403 50.9273 101.398 50.9262L101.53 50.294ZM101.536 50.2951L101.443 50.9343C101.435 50.9331 101.428 50.9319 101.42 50.9304L101.536 50.2951ZM101.542 50.2959L101.457 50.9362L101.449 50.9352L101.542 50.2959ZM101.572 50.2999L101.519 50.9436C101.508 50.9427 101.497 50.9416 101.486 50.9402L101.572 50.2999ZM103.013 49.4905L102.508 49.0884L102.509 49.0867L103.013 49.4905ZM103.457 47.8758L102.909 48.2174L102.909 48.2174L103.457 47.8758ZM103.392 47.772L103.781 47.2562C103.844 47.304 103.898 47.363 103.94 47.4304L103.392 47.772ZM98.6837 44.2228V43.5769C98.824 43.5769 98.9605 43.6225 99.0725 43.707L98.6837 44.2228ZM97.1955 45.036L96.6914 44.6322L96.6926 44.6307L97.1955 45.036ZM103.684 60.8174V61.4633C103.53 61.4633 103.382 61.4087 103.265 61.3092L103.684 60.8174ZM103.774 60.8174V60.1715C103.785 60.1715 103.796 60.1718 103.807 60.1723L103.774 60.8174ZM94.6279 53.1058L95.0304 52.6006C95.0359 52.605 95.0413 52.6095 95.0467 52.6141L94.6279 53.1058ZM94.5678 53.0579L94.1653 53.5631C94.1361 53.5398 94.1088 53.5139 94.084 53.4859L94.5678 53.0579ZM94.4899 52.9698L94.0061 53.3977C93.9802 53.3685 93.9571 53.337 93.9369 53.3036L94.4899 52.9698ZM94.9474 51.3606L95.4471 51.7698L95.4458 51.7714L94.9474 51.3606ZM96.0703 50.5841L96.4163 51.1296C96.3598 51.1654 96.2981 51.1922 96.2335 51.2091L96.0703 50.5841ZM96.2454 50.473L96.7412 50.8871C96.6984 50.9383 96.6478 50.9827 96.5914 51.0185L96.2454 50.473ZM96.3272 50.3751L95.8314 49.9611C95.9419 49.8288 96.1008 49.7461 96.2726 49.7315C96.4443 49.7169 96.6148 49.7716 96.7461 49.8834L96.3272 50.3751ZM105.583 58.2609L105.181 58.7661C105.175 58.7616 105.17 58.7571 105.164 58.7525L105.583 58.2609ZM105.643 58.3086L106.045 57.8034C106.075 57.8268 106.102 57.8526 106.127 57.8807L105.643 58.3086ZM105.721 58.3968L106.205 57.9688C106.231 57.998 106.254 58.0295 106.274 58.0629L105.721 58.3968ZM105.266 60.0033L105.766 60.4115L105.765 60.4124L105.266 60.0033ZM103.864 60.8214L103.868 61.4673C103.858 61.4674 103.848 61.4672 103.837 61.4668L103.864 60.8214ZM103.81 60.8192L103.784 61.4646L103.778 61.4643L103.81 60.8192ZM101.174 37.9664L100.73 38.4359L100.73 38.4359L101.174 37.9664ZM101.272 38.0593L101.716 37.5897C101.845 37.7117 101.918 37.8816 101.918 38.0593L101.272 38.0593ZM101.05 37.8255L101.585 37.4629L101.591 37.4729L101.05 37.8255ZM98.752 35.9743L98.6506 36.6122L98.6485 36.6119L98.752 35.9743ZM97.9317 36.1955L98.314 36.7161L98.3131 36.7168L97.9317 36.1955ZM97.5492 38.7753L98.1758 38.6188L98.1759 38.6191L97.5492 38.7753ZM99.3017 41.836L98.7998 42.2426L98.7998 42.2425L99.3017 41.836ZM99.3535 41.9L99.0947 42.4918C99 42.4504 98.9167 42.3869 98.8517 42.3066L99.3535 41.9ZM99.4321 41.9344L99.1733 42.5261L99.1733 42.5261L99.4321 41.9344ZM99.9672 42.2355L100.35 41.7151L100.353 41.7171L99.9672 42.2355ZM101.272 43.2057L101.918 43.2057C101.918 43.4499 101.781 43.6732 101.562 43.7828C101.344 43.8925 101.083 43.8698 100.887 43.7241L101.272 43.2057ZM120.994 81.0289L120.671 80.4695L120.671 80.4695L120.994 81.0289ZM127.031 77.5453L126.708 76.9859L126.708 76.9859L127.031 77.5453ZM120.891 81.0883L121.214 81.6477C121.083 81.7233 120.929 81.7505 120.781 81.7247L120.891 81.0883ZM120.774 81.0681L120.884 80.4316L120.884 80.4316L120.774 81.0681ZM101.568 66.5602L101.08 66.9828L101.08 66.9828L101.568 66.5602ZM101.343 66.2993L100.854 66.7219C100.741 66.5907 100.685 66.4194 100.699 66.2465C100.713 66.0736 100.796 65.9137 100.93 65.8028L101.343 66.2993ZM101.683 66.0159L101.27 65.5194L101.271 65.5184L101.683 66.0159ZM101.887 65.8382L101.442 65.3707L101.442 65.3707L101.887 65.8382ZM102.157 65.5808L101.712 65.1132C101.846 64.9853 102.029 64.9212 102.213 64.9373C102.398 64.9534 102.567 65.0481 102.677 65.1973L102.157 65.5808ZM102.379 65.8818L101.86 66.2653L101.86 66.2653L102.379 65.8818ZM126.596 50.3364H125.95C125.95 50.2419 125.971 50.1485 126.011 50.0629L126.596 50.3364ZM126.714 50.0203L126.081 49.8911L126.083 49.8844L126.714 50.0203ZM127.887 44.5698L128.521 44.6967L128.519 44.7057L127.887 44.5698ZM127.849 43.9228L127.238 44.1306L127.237 44.1274L127.849 43.9228ZM126.598 38.5494L125.955 38.6038C125.953 38.5858 125.953 38.5676 125.953 38.5495L126.598 38.5494ZM126.598 36.8953L125.952 36.8955C125.952 36.8721 125.953 36.8487 125.956 36.8255L126.598 36.8953ZM127.123 35.3302L127.618 35.7452L127.618 35.7452L127.123 35.3302ZM127.21 35.2271L126.715 34.8121C126.823 34.6833 126.977 34.6017 127.144 34.5846L127.21 35.2271ZM127.343 35.2135L127.277 34.571L127.277 34.571L127.343 35.2135ZM131.074 39.1777L131.667 38.9201L131.668 38.9223L131.074 39.1777ZM133.921 60.0675L133.304 59.875L133.304 59.8749L133.921 60.0675ZM133.026 68.6118L132.389 68.714L132.389 68.714L133.026 68.6118ZM133.624 70.8143L134.222 70.57L134.222 70.57L133.624 70.8143ZM134.112 71.7607L133.6 72.1538C133.591 72.143 133.583 72.1319 133.576 72.1206L134.112 71.7607ZM134.781 72.6327L135.293 72.2396L135.294 72.2398L134.781 72.6327ZM135.016 72.9391L135.528 72.5463C135.642 72.6939 135.686 72.8831 135.649 73.0655C135.613 73.2478 135.5 73.4057 135.338 73.4986L135.016 72.9391ZM93.779 60.111L93.3683 60.6095C93.3057 60.5579 93.2534 60.495 93.214 60.424L93.779 60.111ZM93.7199 60.0043L93.1549 60.3173L93.1549 60.3173L93.7199 60.0043ZM98.2333 63.7805L98.0392 64.3966C97.9601 64.3717 97.8866 64.3318 97.8226 64.2791L98.2333 63.7805ZM98.2997 63.8015L98.1254 64.4234C98.1187 64.4215 98.1121 64.4196 98.1056 64.4175L98.2997 63.8015ZM98.3333 63.8105L98.485 63.1826L98.49 63.1838L98.3333 63.8105ZM98.3335 63.8105L98.208 64.4441C98.1975 64.442 98.1871 64.4397 98.1768 64.4371L98.3335 63.8105ZM98.3413 63.812L98.4634 63.1778L98.4635 63.1778L98.3413 63.812ZM98.384 63.8197L98.2922 64.459C98.2854 64.4581 98.2785 64.457 98.2717 64.4558L98.384 63.8197ZM99.8764 63.1013L99.4019 62.663L99.4025 62.6624L99.8764 63.1013ZM100.474 61.6786L99.8999 61.9738L99.8999 61.9738L100.474 61.6786ZM100.415 61.5632L100.829 61.0676C100.896 61.123 100.95 61.1912 100.99 61.2681L100.415 61.5632ZM95.8515 57.7505L95.312 57.3953C95.4133 57.2416 95.5753 57.1383 95.7574 57.1115C95.9395 57.0847 96.1244 57.1368 96.2656 57.2548L95.8515 57.7505ZM95.8375 57.7718L96.377 58.127C96.2213 58.3634 95.9299 58.4709 95.6579 58.3922L95.8375 57.7718ZM95.8006 57.7616L95.9278 57.1284C95.9371 57.1302 95.9462 57.1323 95.9554 57.1345L95.8006 57.7616ZM95.7496 57.7522L95.8421 57.113C95.8491 57.114 95.8562 57.1151 95.8632 57.1164L95.7496 57.7522ZM94.2542 58.4698L94.7293 58.9074L94.7277 58.9091L94.2542 58.4698ZM118.094 84.1873C117.873 83.8552 117.758 83.465 117.773 83.0659L119.064 83.1152C119.059 83.2303 119.092 83.3549 119.17 83.4718L118.094 84.1873ZM122.913 92.329L118.076 84.1586L119.188 83.5006L124.024 91.671L122.913 92.329ZM126.309 91.8995L123.638 92.6234L123.3 91.3766L125.971 90.6527L126.309 91.8995ZM122.247 83.2206L126.7 90.9538L125.58 91.5984L121.128 83.8651L122.247 83.2206ZM135.965 76.0315L122.011 84.1019L121.364 82.9837L135.318 74.9133L135.965 76.0315ZM138.291 74.6878L135.965 76.0317L135.318 74.9131L137.645 73.5692L138.291 74.6878ZM138.968 74.2975L138.29 74.6881L137.645 73.5689L138.323 73.1783L138.968 74.2975ZM139.192 74.1683L138.968 74.2975L138.323 73.1783L138.547 73.0491L139.192 74.1683ZM146.54 82.7716L138.397 74.0494L139.342 73.1679L147.484 81.89L146.54 82.7716ZM149.289 81.9146L147.301 82.9085L146.723 81.7531L148.711 80.7591L149.289 81.9146ZM140.423 70.8398L149.48 80.9048L148.52 81.7689L139.463 71.7039L140.423 70.8398ZM138.059 70.494C138.822 70.0604 139.798 70.1877 140.409 70.8248L139.477 71.7189C139.287 71.5204 138.96 71.4677 138.697 71.6171L138.059 70.494ZM137.5 70.8118L138.059 70.494L138.697 71.617L138.138 71.9348L137.5 70.8118ZM137.244 70.9573L137.5 70.8118L138.138 71.9348L137.883 72.0803L137.244 70.9573ZM136.996 69.7376L138.073 71.1223L137.053 71.9153L135.977 70.5306L136.996 69.7376ZM136.778 69.1573C136.876 69.4551 136.974 69.6813 137.051 69.8204L135.922 70.4478C135.792 70.2137 135.664 69.9052 135.551 69.5594L136.778 69.1573ZM136.431 67.4694C136.499 68.1051 136.619 68.6699 136.778 69.1573L135.551 69.5594C135.359 68.9741 135.223 68.3194 135.147 67.6073L136.431 67.4694ZM137.287 60.8929C136.493 63.3927 136.23 65.5945 136.431 67.4694L135.147 67.6073C134.922 65.5108 135.223 63.1251 136.055 60.5022L137.287 60.8929ZM134.294 37.8791C136.016 41.825 137.206 46.1572 137.747 50.2008C138.288 54.2328 138.19 58.0338 137.287 60.8922L136.055 60.5029C136.878 57.8976 136.994 54.3091 136.467 50.3723C135.941 46.447 134.783 42.2311 133.11 38.3958L134.294 37.8791ZM133.646 36.5954C133.905 37.0537 134.133 37.5064 134.295 37.8809L133.109 38.394C132.969 38.0693 132.763 37.6579 132.522 37.231L133.646 36.5954ZM132.206 34.492C132.728 35.115 133.211 35.8255 133.646 36.5954L132.522 37.231C132.12 36.5198 131.68 35.8761 131.216 35.3218L132.206 34.492ZM127.109 32.0371C128.998 31.749 130.719 32.7175 132.206 34.492L131.216 35.3218C129.875 33.7224 128.563 33.122 127.303 33.3142L127.109 32.0371ZM126.718 32.0966L127.109 32.0371L127.303 33.3142L126.913 33.3737L126.718 32.0966ZM127.462 21.6052V32.7352H126.17V21.6052H127.462ZM123.139 17.3541C125.509 17.3541 127.462 19.2481 127.462 21.6052H126.17C126.17 19.986 124.82 18.6459 123.139 18.6459V17.3541ZM105.311 17.3541L123.139 17.3541V18.6459L105.311 18.6459V17.3541ZM100.993 21.6052C100.993 19.2478 102.941 17.3541 105.311 17.3541V18.6459C103.632 18.6459 102.285 19.9839 102.285 21.6052H100.993ZM100.993 34.572V21.6052H102.285V34.572H100.993ZM101.456 33.7116L101.969 34.017L101.309 35.1271L100.795 34.8217L101.456 33.7116ZM99.6972 33.0442C100.306 33.1491 100.895 33.3776 101.456 33.7116L100.795 34.8217C100.353 34.5586 99.9132 34.3922 99.478 34.3173L99.6972 33.0442ZM96.3951 33.8919C97.3665 33.1451 98.5069 32.8455 99.694 33.0437L99.4812 34.3179C98.6624 34.1812 97.8816 34.3786 97.1825 34.916L96.3951 33.8919ZM94.8726 39.76C94.3439 37.563 94.7883 35.1272 96.3952 33.8919L97.1825 34.9161C96.1376 35.7194 95.6645 37.5291 96.1285 39.4578L94.8726 39.76ZM96.0472 42.4765C95.4746 41.5311 95.0796 40.633 94.8721 39.7579L96.129 39.4598C96.2977 40.171 96.6291 40.9437 97.1521 41.8073L96.0472 42.4765ZM96.2204 42.7626L96.0472 42.4765L97.1521 41.8073L97.3254 42.0934L96.2204 42.7626ZM96.1538 42.0445L96.443 41.8726L97.1028 42.9833L96.8135 43.1551L96.1538 42.0445ZM94.6403 43.3671C95.071 42.8326 95.5831 42.3834 96.1538 42.0445L96.8135 43.1551C96.3817 43.4116 95.9852 43.757 95.6461 44.1777L94.6403 43.3671ZM94.0101 48.6622C93.0123 47.0977 93.3615 44.9652 94.6388 43.3688L95.6475 44.1759C94.6103 45.4722 94.4804 46.9972 95.0992 47.9675L94.0101 48.6622ZM94.1875 48.9404L94.0101 48.6622L95.0992 47.9675L95.2767 48.2457L94.1875 48.9404ZM94.1034 48.2298L94.3823 48.0501L95.0819 49.136L94.803 49.3157L94.1034 48.2298ZM92.7208 49.4751C93.1127 48.9873 93.5797 48.5672 94.1034 48.2298L94.803 49.3157C94.3959 49.578 94.0327 49.9048 93.7278 50.2842L92.7208 49.4751ZM92.8303 55.6044C91.0183 54.1525 91.1593 51.4252 92.7201 49.476L93.7285 50.2834C92.4391 51.8937 92.578 53.7469 93.6381 54.5963L92.8303 55.6044ZM93.5004 56.1911L92.809 55.5866L93.6594 54.6141L94.3507 55.2187L93.5004 56.1911ZM93.8414 56.4897L93.5 56.1908L94.3511 55.219L94.6924 55.5179L93.8414 56.4897ZM93.5431 55.6874L93.9318 55.4516L94.6019 56.556L94.2132 56.7919L93.5431 55.6874ZM92.2173 56.7877C92.6005 56.3579 93.0461 55.989 93.5431 55.6874L94.2132 56.7919C93.8234 57.0283 93.4775 57.3154 93.1816 57.6473L92.2173 56.7877ZM90.8379 60.4602C90.7579 59.167 91.2836 57.8323 92.2179 56.787L93.1811 57.6479C92.4387 58.4785 92.0718 59.485 92.1272 60.3804L90.8379 60.4602ZM92.0511 62.9567C91.3249 62.3329 90.9026 61.4412 90.8381 60.4628L92.1271 60.3778C92.1704 61.0353 92.4485 61.5951 92.8928 61.9768L92.0511 62.9567ZM96.4717 66.7622L92.0506 62.9563L92.8934 61.9773L97.3145 65.7832L96.4717 66.7622ZM98.4324 67.5859C97.6951 67.5081 97.0212 67.2328 96.473 66.7632L97.3133 65.7821C97.6472 66.0681 98.0698 66.2486 98.5678 66.3012L98.4324 67.5859ZM98.4226 67.6328L98.199 67.515L98.8012 66.3721L99.0248 66.4899L98.4226 67.6328ZM117.982 83.3736C112.002 81.3438 105.202 75.7028 98.231 67.479L99.2164 66.6437C106.148 74.8207 112.759 80.2367 118.398 82.1503L117.982 83.3736ZM118.22 83.4543L117.982 83.3736L118.398 82.1503L118.635 82.231L118.22 83.4543ZM117.773 83.0659L117.782 82.818L119.073 82.8673L119.064 83.1152L117.773 83.0659ZM106.404 61.7672C106.797 61.2563 107.072 60.6938 107.223 60.1101L108.474 60.4327C108.278 61.1919 107.923 61.9113 107.429 62.5542L106.404 61.7672ZM103.877 63.3724C104.78 63.2425 105.71 62.6758 106.404 61.7684L107.43 62.553C106.566 63.6821 105.352 64.4652 104.061 64.651L103.877 63.3724ZM103.467 63.4315L103.877 63.3724L104.061 64.651L103.651 64.7101L103.467 63.4315ZM104.751 64.9615C104.422 64.9615 104.059 64.8826 103.811 64.8186C103.68 64.7848 103.566 64.7511 103.485 64.7258C103.444 64.7131 103.411 64.7023 103.388 64.6946C103.376 64.6907 103.366 64.6875 103.36 64.6852C103.356 64.6841 103.354 64.6831 103.352 64.6824C103.35 64.6821 103.35 64.6818 103.349 64.6816C103.349 64.6814 103.348 64.6813 103.348 64.6812C103.348 64.6812 103.348 64.6812 103.348 64.6811C103.348 64.6811 103.348 64.6811 103.348 64.6811C103.347 64.681 103.347 64.681 103.559 64.0708C103.771 63.4605 103.771 63.4605 103.771 63.4605C103.771 63.4605 103.77 63.4605 103.77 63.4604C103.77 63.4604 103.77 63.4604 103.77 63.4604C103.77 63.4604 103.77 63.4603 103.77 63.4603C103.77 63.4603 103.77 63.4604 103.771 63.4605C103.771 63.4607 103.773 63.4612 103.774 63.4618C103.778 63.4631 103.785 63.4652 103.793 63.468C103.81 63.4737 103.836 63.482 103.869 63.4923C103.935 63.5129 104.028 63.5404 104.134 63.5678C104.361 63.6262 104.593 63.6697 104.751 63.6697L104.751 64.9615ZM122.749 64.9615L104.751 64.9615L104.751 63.6697L122.749 63.6697V64.9615ZM124.525 63.1367C124.525 64.1236 123.751 64.9615 122.749 64.9615V63.6697C122.99 63.6697 123.233 63.4582 123.233 63.1367H124.525ZM124.525 59.6821V63.1367H123.233V59.6821H124.525ZM124.523 38.303L124.525 59.6821L123.233 59.6822L123.231 38.3031L124.523 38.303ZM124.524 36.8927C124.495 37.3864 124.495 37.8319 124.522 38.2626L123.233 38.3435C123.202 37.855 123.203 37.3571 123.234 36.8176L124.524 36.8927ZM124.525 23.4562L124.525 36.8551L123.233 36.8552L123.233 23.4562L124.525 23.4562ZM121.553 20.4851C123.194 20.4851 124.525 21.8153 124.525 23.4562L123.233 23.4562C123.233 22.5288 122.481 21.7769 121.553 21.7769V20.4851ZM106.235 20.4851L121.553 20.4851V21.7769L106.235 21.7769V20.4851ZM103.263 23.4563C103.263 21.8153 104.594 20.4851 106.235 20.4851V21.7769C105.307 21.7769 104.555 22.5288 104.555 23.4563H103.263ZM103.263 45.1156L103.263 23.4563L104.555 23.4563L104.555 45.1156H103.263ZM103.24 45.2996C103.258 45.1356 103.262 45.1039 103.266 45.059L104.553 45.1721C104.547 45.2349 104.542 45.284 104.524 45.4415L103.24 45.2996ZM103.234 45.3554L103.24 45.2997L104.524 45.4415L104.518 45.4972L103.234 45.3554ZM103.628 46.0503L103.482 45.9381L104.27 44.9144L104.416 45.0266L103.628 46.0503ZM104.302 46.5693L103.628 46.0503L104.416 45.0266L105.09 45.5456L104.302 46.5693ZM104.256 50.8939C105.554 49.2707 105.397 47.412 104.302 46.5693L105.09 45.5456C106.959 46.9841 106.837 49.7339 105.265 51.7004L104.256 50.8939ZM103.028 51.9517C103.491 51.6852 103.91 51.3254 104.257 50.8931L105.265 51.7013C104.819 52.2564 104.278 52.7228 103.672 53.0714L103.028 51.9517ZM102.627 52.1823L103.028 51.9517L103.672 53.0714L103.271 53.302L102.627 52.1823ZM102.872 53.532L102.525 53.229L103.374 52.2553L103.721 52.5583L102.872 53.532ZM106.717 56.8835L102.872 53.532L103.721 52.5582L107.566 55.9097L106.717 56.8835ZM107.138 57.3336C106.935 57.0867 106.805 56.9549 106.737 56.9005L107.545 55.8926C107.724 56.0354 107.924 56.2549 108.136 56.5136L107.138 57.3336ZM107.285 59.8624C107.509 58.942 107.431 58.0567 107.046 57.184L108.228 56.6631C108.727 57.7947 108.832 58.9707 108.54 60.1687L107.285 59.8624ZM107.222 60.1155L107.285 59.8596L108.539 60.1715L108.475 60.4273L107.222 60.1155ZM96.255 47.0802L96.1892 46.9673L97.3052 46.3167L97.371 46.4296L96.255 47.0802ZM101.047 50.7866L96.422 47.269L97.204 46.2407L101.829 49.7583L101.047 50.7866ZM101.355 50.9169L101.285 50.8999L101.591 49.6449L101.661 49.6619L101.355 50.9169ZM101.398 50.9262L101.376 50.9217L101.64 49.6572L101.662 49.6617L101.398 50.9262ZM101.42 50.9304L101.414 50.9294L101.646 49.6586L101.652 49.6597L101.42 50.9304ZM101.449 50.9352L101.443 50.9343L101.629 49.6559L101.635 49.6567L101.449 50.9352ZM101.486 50.9402L101.457 50.9362L101.627 49.6557L101.657 49.6596L101.486 50.9402ZM101.645 50.949C101.594 50.949 101.566 50.9475 101.519 50.9436L101.625 49.6562C101.632 49.6568 101.636 49.6571 101.638 49.6572C101.64 49.6574 101.64 49.6573 101.638 49.6573C101.634 49.6571 101.633 49.6572 101.645 49.6572V50.949ZM103.519 49.8926C103.053 50.4776 102.34 50.949 101.645 50.949V49.6572C101.802 49.6572 102.181 49.4997 102.508 49.0884L103.519 49.8926ZM104.005 47.5342C104.246 47.9205 104.196 48.4028 104.106 48.7446C104.006 49.1278 103.805 49.5356 103.517 49.8944L102.509 49.0867C102.687 48.8641 102.804 48.6186 102.857 48.4168C102.883 48.3163 102.89 48.2417 102.889 48.1967C102.887 48.1461 102.877 48.1663 102.909 48.2174L104.005 47.5342ZM103.94 47.4304L104.005 47.5342L102.909 48.2174L102.844 48.1136L103.94 47.4304ZM99.0725 43.707L103.781 47.2562L103.003 48.2878L98.2949 44.7386L99.0725 43.707ZM98.5689 43.5769H98.6837V44.8687H98.5689V43.5769ZM96.6926 44.6307C97.1634 44.0465 97.8748 43.5769 98.5689 43.5769V44.8687C98.4127 44.8687 98.0342 45.0247 97.6985 45.4413L96.6926 44.6307ZM96.1892 46.9673C95.9651 46.5829 96.0168 46.1092 96.1074 45.7695C96.2086 45.3902 96.4078 44.9863 96.6914 44.6322L97.6996 45.4398C97.5257 45.6569 97.4096 45.8998 97.3556 46.1026C97.3286 46.2035 97.321 46.2798 97.3219 46.3275C97.3229 46.3811 97.3335 46.3652 97.3052 46.3167L96.1892 46.9673ZM103.684 60.1715H103.774V61.4633H103.684V60.1715ZM95.0467 52.6141L104.102 60.3256L103.265 61.3092L94.2092 53.5976L95.0467 52.6141ZM94.9703 52.5527L95.0304 52.6006L94.2255 53.611L94.1653 53.5631L94.9703 52.5527ZM94.9736 52.5418L95.0516 52.63L94.084 53.4859L94.0061 53.3977L94.9736 52.5418ZM95.4458 51.7714C95.2666 51.9889 95.1485 52.231 95.0942 52.4314C95.0671 52.5312 95.0599 52.6059 95.0609 52.6516C95.0621 52.7026 95.0724 52.6849 95.0428 52.6359L93.9369 53.3036C93.7028 52.9159 93.7543 52.4365 93.8474 52.0934C93.9511 51.7107 94.1564 51.3048 94.4489 50.9499L95.4458 51.7714ZM96.2335 51.2091C96.0077 51.268 95.7013 51.4594 95.4471 51.7698L94.4476 50.9515C94.8348 50.4785 95.3618 50.1016 95.9071 49.9592L96.2335 51.2091ZM96.5914 51.0185L96.4163 51.1296L95.7243 50.0387L95.8994 49.9276L96.5914 51.0185ZM96.823 50.7891L96.7412 50.8871L95.7496 50.059L95.8314 49.9611L96.823 50.7891ZM105.164 58.7525L95.9083 50.8668L96.7461 49.8834L106.002 57.7692L105.164 58.7525ZM105.241 58.8138L105.181 58.7661L105.986 57.7557L106.045 57.8034L105.241 58.8138ZM105.237 58.8247L105.159 58.7366L106.127 57.8807L106.205 57.9688L105.237 58.8247ZM104.765 59.595C104.944 59.3761 105.061 59.1333 105.116 58.9325C105.143 58.8325 105.15 58.7579 105.149 58.7125C105.148 58.6614 105.138 58.6803 105.168 58.7306L106.274 58.0629C106.508 58.45 106.455 58.929 106.363 59.27C106.26 59.6513 106.056 60.0564 105.766 60.4115L104.765 59.595ZM103.859 60.1755C104.035 60.1743 104.426 60.0091 104.766 59.5941L105.765 60.4124C105.285 60.9989 104.566 61.4627 103.868 61.4673L103.859 60.1755ZM103.836 60.1738L103.89 60.176L103.837 61.4668L103.784 61.4646L103.836 60.1738ZM103.807 60.1723L103.842 60.1741L103.778 61.4643L103.742 61.4625L103.807 60.1723ZM101.617 37.4968L101.716 37.5897L100.829 38.5288L100.73 38.4359L101.617 37.4968ZM101.591 37.4729C101.582 37.4583 101.579 37.4606 101.617 37.4968L100.73 38.4359C100.659 38.368 100.579 38.2856 100.509 38.1781L101.591 37.4729ZM98.8535 35.3365C99.3565 35.4165 99.8664 35.7067 100.312 36.0644C100.769 36.432 101.214 36.9158 101.585 37.463L100.516 38.188C100.212 37.7399 99.8527 37.3531 99.5022 37.0713C99.1395 36.7798 98.8377 36.642 98.6506 36.6122L98.8535 35.3365ZM97.5495 35.6748C97.9465 35.3833 98.3689 35.2577 98.8556 35.3368L98.6485 36.6119C98.5492 36.5958 98.4709 36.6009 98.314 36.7161L97.5495 35.6748ZM96.9225 38.9319C96.7704 38.3229 96.7503 37.6741 96.8348 37.1194C96.8771 36.8412 96.9483 36.5695 97.054 36.3298C97.1563 36.098 97.3118 35.8487 97.5504 35.6742L98.3131 36.7168C98.3262 36.7072 98.2885 36.732 98.2359 36.8512C98.1868 36.9625 98.1415 37.119 98.1119 37.3137C98.0523 37.7048 98.0664 38.181 98.1758 38.6188L96.9225 38.9319ZM98.7998 42.2425C97.8211 41.0345 97.1709 39.928 96.9225 38.9316L98.1759 38.6191C98.3574 39.3471 98.872 40.2796 99.8035 41.4294L98.7998 42.2425ZM98.8517 42.3066L98.7998 42.2426L99.8035 41.4294L99.8554 41.4934L98.8517 42.3066ZM99.1733 42.5261L99.0947 42.4918L99.6124 41.3082L99.691 41.3426L99.1733 42.5261ZM99.5846 42.7559C99.4794 42.6785 99.3429 42.6003 99.1733 42.5261L99.691 41.3426C99.9299 41.4471 100.153 41.5705 100.35 41.7151L99.5846 42.7559ZM100.887 43.7241L99.5818 42.7538L100.353 41.7171L101.658 42.6874L100.887 43.7241ZM101.918 38.0593L101.918 43.2057L100.626 43.2057L100.626 38.0593L101.918 38.0593ZM120.671 80.4695L126.708 76.9859L127.353 78.1048L121.316 81.5884L120.671 80.4695ZM120.568 80.5288L120.671 80.4695L121.316 81.5884L121.214 81.6477L120.568 80.5288ZM120.884 80.4316L121.001 80.4518L120.781 81.7247L120.664 81.7045L120.884 80.4316ZM102.057 66.1376C105.678 70.3226 109.129 73.6868 112.315 76.1127C115.508 78.5446 118.393 80.0005 120.884 80.4316L120.664 81.7045C117.882 81.223 114.803 79.6312 111.532 77.1404C108.253 74.6437 104.738 71.2103 101.08 66.9828L102.057 66.1376ZM101.831 65.8766L102.057 66.1376L101.08 66.9828L100.854 66.7219L101.831 65.8766ZM102.096 66.5124L101.756 66.7957L100.93 65.8028L101.27 65.5194L102.096 66.5124ZM102.333 66.3058C102.263 66.372 102.198 66.4285 102.095 66.5134L101.271 65.5184C101.366 65.4396 101.405 65.4056 101.442 65.3707L102.333 66.3058ZM102.603 66.0483L102.333 66.3058L101.442 65.3707L101.712 65.1132L102.603 66.0483ZM101.86 66.2653L101.638 65.9643L102.677 65.1973L102.899 65.4983L101.86 66.2653ZM105.313 68.0132C103.946 68.0132 102.668 67.3605 101.86 66.2653L102.899 65.4983C103.466 66.2665 104.36 66.7214 105.313 66.7214V68.0132ZM122.955 68.0132L105.313 68.0132V66.7214L122.955 66.7214V68.0132ZM127.242 63.7529C127.242 66.1079 125.316 68.0132 122.955 68.0132V66.7214C124.611 66.7214 125.95 65.3855 125.95 63.7529H127.242ZM127.242 50.3364L127.242 63.7529H125.95L125.95 50.3364H127.242ZM127.347 50.1496C127.316 50.3009 127.262 50.4369 127.181 50.6099L126.011 50.0629C126.077 49.9208 126.081 49.8933 126.081 49.8911L127.347 50.1496ZM128.519 44.7057L127.346 50.1562L126.083 49.8844L127.256 44.4338L128.519 44.7057ZM128.461 43.7149C128.568 44.0317 128.586 44.3727 128.521 44.6967L127.254 44.4428C127.277 44.3303 127.268 44.221 127.238 44.1306L128.461 43.7149ZM127.242 38.4949C127.357 39.852 127.754 41.5973 128.462 43.7182L127.237 44.1274C126.511 41.9538 126.082 40.1012 125.955 38.6038L127.242 38.4949ZM127.244 36.8952L127.244 38.5492L125.953 38.5495L125.952 36.8955L127.244 36.8952ZM127.618 35.7452C127.481 35.9087 127.314 36.2883 127.24 36.9652L125.956 36.8255C126.041 36.0434 126.252 35.3645 126.629 34.9152L127.618 35.7452ZM127.705 35.6421L127.618 35.7452L126.629 34.9152L126.715 34.8121L127.705 35.6421ZM127.408 35.8561L127.276 35.8697L127.144 34.5846L127.277 34.571L127.408 35.8561ZM130.482 39.4353C129.995 38.3167 129.376 37.3635 128.768 36.7153C128.464 36.3908 128.177 36.1587 127.928 36.0168C127.673 35.8722 127.503 35.8464 127.408 35.8561L127.277 34.571C127.733 34.5243 128.177 34.6725 128.566 34.894C128.961 35.1182 129.347 35.4441 129.71 35.8315C130.437 36.607 131.133 37.6922 131.667 38.9201L130.482 39.4353ZM133.304 59.8749C134.023 57.5727 134.104 54.2722 133.599 50.607C133.095 46.9558 132.019 43.0058 130.481 39.4331L131.668 38.9223C133.252 42.6038 134.359 46.6664 134.878 50.4305C135.395 54.1805 135.338 57.6977 134.537 60.2601L133.304 59.8749ZM132.389 68.714C131.974 66.1299 132.278 63.1632 133.304 59.875L134.537 60.2599C133.553 63.4135 133.29 66.1732 133.664 68.5095L132.389 68.714ZM133.026 71.0586C132.741 70.3607 132.527 69.5742 132.389 68.714L133.664 68.5095C133.789 69.2863 133.979 69.9756 134.222 70.57L133.026 71.0586ZM133.576 72.1206C133.37 71.8139 133.194 71.4691 133.026 71.0586L134.222 70.57C134.366 70.9218 134.503 71.1844 134.648 71.4008L133.576 72.1206ZM134.268 73.0257L133.6 72.1538L134.625 71.3676L135.293 72.2396L134.268 73.0257ZM134.503 73.332L134.268 73.0255L135.294 72.2398L135.528 72.5463L134.503 73.332ZM126.708 76.9859L134.693 72.3796L135.338 73.4986L127.353 78.1048L126.708 76.9859ZM93.214 60.424L93.1549 60.3173L94.2848 59.6912L94.344 59.798L93.214 60.424ZM97.8226 64.2791L93.3683 60.6095L94.1897 59.6125L98.644 63.282L97.8226 64.2791ZM98.1056 64.4175L98.0392 64.3966L98.4274 63.1645L98.4938 63.1854L98.1056 64.4175ZM98.1816 64.4383C98.1766 64.4371 98.1668 64.4347 98.154 64.4313C98.1451 64.4289 98.1347 64.426 98.1254 64.4234L98.474 63.1795C98.4799 63.1812 98.4835 63.1822 98.4861 63.1829C98.4888 63.1836 98.4888 63.1837 98.4879 63.1834C98.4862 63.183 98.4843 63.1825 98.4826 63.182C98.4819 63.1819 98.4816 63.1818 98.485 63.1826L98.1816 64.4383ZM98.1768 64.4371L98.1767 64.4371L98.49 63.1838L98.4901 63.1839L98.1768 64.4371ZM98.2192 64.4463C98.2149 64.4455 98.2109 64.4447 98.208 64.4441L98.4589 63.1769C98.4623 63.1776 98.463 63.1777 98.4634 63.1778L98.2192 64.4463ZM98.2717 64.4558C98.2463 64.4513 98.2325 64.4489 98.2191 64.4463L98.4635 63.1778C98.4636 63.1778 98.4636 63.1778 98.4636 63.1778C98.4636 63.1778 98.4637 63.1778 98.464 63.1779C98.4646 63.178 98.4658 63.1782 98.4683 63.1787C98.4736 63.1796 98.4816 63.181 98.4963 63.1836L98.2717 64.4558ZM98.4903 64.472C98.4251 64.472 98.3551 64.4681 98.2922 64.459L98.4757 63.1803C98.4712 63.1797 98.4688 63.1794 98.4688 63.1794C98.4687 63.1794 98.4697 63.1795 98.4719 63.1797C98.4764 63.18 98.4829 63.1802 98.4903 63.1802V64.472ZM100.351 63.5395C99.8592 64.0718 99.1583 64.472 98.4903 64.472V63.1802C98.6827 63.1802 99.0638 63.0291 99.4019 62.663L100.351 63.5395ZM101.049 61.3835C101.253 61.7807 101.151 62.2216 101.027 62.5254C100.889 62.8628 100.654 63.212 100.35 63.5401L99.4025 62.6624C99.6285 62.4184 99.7653 62.1977 99.8306 62.0376C99.8631 61.9578 99.8714 61.909 99.8728 61.8903C99.8744 61.8701 99.8667 61.9093 99.8999 61.9738L101.049 61.3835ZM100.99 61.2681L101.049 61.3835L99.8999 61.9738L99.8406 61.8584L100.99 61.2681ZM96.2656 57.2548L100.829 61.0676L100.001 62.0589L95.4374 58.2462L96.2656 57.2548ZM95.298 57.4166L95.312 57.3953L96.391 58.1057L96.377 58.127L95.298 57.4166ZM95.9554 57.1345C95.9805 57.1407 95.9909 57.1438 96.0171 57.1513L95.6579 58.3922C95.6514 58.3904 95.6475 58.3892 95.6445 58.3884C95.6415 58.3875 95.6414 58.3875 95.6425 58.3878C95.6442 58.3883 95.6464 58.3888 95.6483 58.3893C95.6492 58.3895 95.6496 58.3896 95.6459 58.3887L95.9554 57.1345ZM95.8632 57.1164C95.9002 57.123 95.9069 57.1242 95.9278 57.1284L95.6734 58.3949C95.6697 58.3941 95.669 58.394 95.6686 58.3939C95.6685 58.3939 95.6685 58.3939 95.6685 58.3939C95.6684 58.3939 95.6681 58.3938 95.6673 58.3937C95.6632 58.3929 95.6561 58.3916 95.636 58.3881L95.8632 57.1164ZM95.6427 57.0999C95.7081 57.0999 95.7787 57.1038 95.8421 57.113L95.6571 58.3915C95.662 58.3922 95.6646 58.3924 95.6647 58.3924C95.665 58.3925 95.664 58.3924 95.6618 58.3922C95.6572 58.3919 95.6504 58.3917 95.6427 58.3917V57.0999ZM93.7792 58.0321C94.2689 57.5006 94.9749 57.0999 95.6427 57.0999V58.3917C95.4482 58.3917 95.0626 58.5456 94.7293 58.9074L93.7792 58.0321ZM93.1549 60.3173C92.9346 59.9197 93.0156 59.4448 93.1248 59.1175C93.2479 58.7486 93.4727 58.3624 93.7807 58.0304L94.7277 58.9091C94.5404 59.111 94.4129 59.3384 94.3502 59.5265C94.3189 59.6202 94.3087 59.6891 94.3075 59.7289C94.3062 59.7745 94.3169 59.749 94.2849 59.6912L93.1549 60.3173Z" fill="#132C45"/>
<path fill-rule="evenodd" clip-rule="evenodd" d="M116.532 36.117H114.898C114.898 34.774 115.995 33.6848 117.35 33.6848C118.704 33.6848 119.802 34.774 119.802 36.117H118.167C118.167 35.6693 117.801 35.3068 117.35 35.3068C116.899 35.3068 116.532 35.6693 116.532 36.117ZM116.715 39.3598L118.167 40.497C115.708 43.3046 111.634 43.3046 109.175 40.497L110.627 39.3598C112.333 41.3067 115.01 41.3067 116.715 39.3598ZM107.54 36.1173H109.175C109.175 35.6696 109.541 35.307 109.993 35.307C110.444 35.307 110.81 35.6696 110.81 36.1173H112.445C112.445 34.7743 111.347 33.6851 109.993 33.6851C108.638 33.6851 107.54 34.7743 107.54 36.1173Z" fill="#132C45"/>
</svg>
