<svg width="240" height="110" viewBox="0 0 240 110" fill="none" xmlns="http://www.w3.org/2000/svg">
<rect width="240" height="110" fill="white"/>
<rect x="69" y="7.11353" width="102" height="99.7727" rx="6.06509" fill="white" stroke="#50E3C2" stroke-width="4"/>
<path d="M79.44 13.84H76.84V16.44H79.44V13.84Z" fill="#132C45"/>
<path d="M82.04 13.84H79.44V16.44H82.04V13.84Z" fill="#132C45"/>
<path d="M84.64 13.84H82.04V16.44H84.64V13.84Z" fill="#132C45"/>
<path d="M87.24 13.84H84.64V16.44H87.24V13.84Z" fill="#132C45"/>
<path d="M89.8401 13.84H87.2401V16.44H89.8401V13.84Z" fill="#132C45"/>
<path d="M92.44 13.84H89.84V16.44H92.44V13.84Z" fill="#132C45"/>
<path d="M95.04 13.84H92.44V16.44H95.04V13.84Z" fill="#132C45"/>
<path d="M102.84 13.84H100.24V16.44H102.84V13.84Z" fill="#132C45"/>
<path d="M115.84 13.84H113.24V16.44H115.84V13.84Z" fill="#132C45"/>
<path d="M121.04 13.84H118.44V16.44H121.04V13.84Z" fill="#132C45"/>
<path d="M123.64 13.84H121.04V16.44H123.64V13.84Z" fill="#132C45"/>
<path d="M126.24 13.84H123.64V16.44H126.24V13.84Z" fill="#132C45"/>
<path d="M128.84 13.84H126.24V16.44H128.84V13.84Z" fill="#132C45"/>
<path d="M131.44 13.84H128.84V16.44H131.44V13.84Z" fill="#132C45"/>
<path d="M134.04 13.84H131.44V16.44H134.04V13.84Z" fill="#132C45"/>
<path d="M136.64 13.84H134.04V16.44H136.64V13.84Z" fill="#132C45"/>
<path d="M139.24 13.84H136.64V16.44H139.24V13.84Z" fill="#132C45"/>
<path d="M147.04 13.84H144.44V16.44H147.04V13.84Z" fill="#132C45"/>
<path d="M149.64 13.84H147.04V16.44H149.64V13.84Z" fill="#132C45"/>
<path d="M152.24 13.84H149.64V16.44H152.24V13.84Z" fill="#132C45"/>
<path d="M154.84 13.84H152.24V16.44H154.84V13.84Z" fill="#132C45"/>
<path d="M157.44 13.84H154.84V16.44H157.44V13.84Z" fill="#132C45"/>
<path d="M160.04 13.84H157.44V16.44H160.04V13.84Z" fill="#132C45"/>
<path d="M162.64 13.84H160.04V16.44H162.64V13.84Z" fill="#132C45"/>
<path d="M79.44 16.44H76.84V19.04H79.44V16.44Z" fill="#132C45"/>
<path d="M95.04 16.44H92.44V19.04H95.04V16.44Z" fill="#132C45"/>
<path d="M100.24 16.44H97.64V19.04H100.24V16.44Z" fill="#132C45"/>
<path d="M102.84 16.44H100.24V19.04H102.84V16.44Z" fill="#132C45"/>
<path d="M108.04 16.44H105.44V19.04H108.04V16.44Z" fill="#132C45"/>
<path d="M110.64 16.44H108.04V19.04H110.64V16.44Z" fill="#132C45"/>
<path d="M113.24 16.44H110.64V19.04H113.24V16.44Z" fill="#132C45"/>
<path d="M118.44 16.44H115.84V19.04H118.44V16.44Z" fill="#132C45"/>
<path d="M121.04 16.44H118.44V19.04H121.04V16.44Z" fill="#132C45"/>
<path d="M126.24 16.44H123.64V19.04H126.24V16.44Z" fill="#132C45"/>
<path d="M131.44 16.44H128.84V19.04H131.44V16.44Z" fill="#132C45"/>
<path d="M147.04 16.44H144.44V19.04H147.04V16.44Z" fill="#132C45"/>
<path d="M162.64 16.44H160.04V19.04H162.64V16.44Z" fill="#132C45"/>
<path d="M79.44 19.04H76.84V21.64H79.44V19.04Z" fill="#132C45"/>
<path d="M84.64 19.04H82.04V21.64H84.64V19.04Z" fill="#132C45"/>
<path d="M87.24 19.04H84.64V21.64H87.24V19.04Z" fill="#132C45"/>
<path d="M89.8401 19.04H87.2401V21.64H89.8401V19.04Z" fill="#132C45"/>
<path d="M95.04 19.04H92.44V21.64H95.04V19.04Z" fill="#132C45"/>
<path d="M102.84 19.04H100.24V21.64H102.84V19.04Z" fill="#132C45"/>
<path d="M105.44 19.04H102.84V21.64H105.44V19.04Z" fill="#132C45"/>
<path d="M108.04 19.04H105.44V21.64H108.04V19.04Z" fill="#132C45"/>
<path d="M115.84 19.04H113.24V21.64H115.84V19.04Z" fill="#132C45"/>
<path d="M118.44 19.04H115.84V21.64H118.44V19.04Z" fill="#132C45"/>
<path d="M128.84 19.04H126.24V21.64H128.84V19.04Z" fill="#132C45"/>
<path d="M131.44 19.04H128.84V21.64H131.44V19.04Z" fill="#132C45"/>
<path d="M134.04 19.04H131.44V21.64H134.04V19.04Z" fill="#132C45"/>
<path d="M139.24 19.04H136.64V21.64H139.24V19.04Z" fill="#132C45"/>
<path d="M147.04 19.04H144.44V21.64H147.04V19.04Z" fill="#132C45"/>
<path d="M152.24 19.04H149.64V21.64H152.24V19.04Z" fill="#132C45"/>
<path d="M154.84 19.04H152.24V21.64H154.84V19.04Z" fill="#132C45"/>
<path d="M157.44 19.04H154.84V21.64H157.44V19.04Z" fill="#132C45"/>
<path d="M162.64 19.04H160.04V21.64H162.64V19.04Z" fill="#132C45"/>
<path d="M79.44 21.64H76.84V24.24H79.44V21.64Z" fill="#132C45"/>
<path d="M84.64 21.64H82.04V24.24H84.64V21.64Z" fill="#132C45"/>
<path d="M87.24 21.64H84.64V24.24H87.24V21.64Z" fill="#132C45"/>
<path d="M89.8401 21.64H87.2401V24.24H89.8401V21.64Z" fill="#132C45"/>
<path d="M95.04 21.64H92.44V24.24H95.04V21.64Z" fill="#132C45"/>
<path d="M100.24 21.64H97.64V24.24H100.24V21.64Z" fill="#132C45"/>
<path d="M102.84 21.64H100.24V24.24H102.84V21.64Z" fill="#132C45"/>
<path d="M108.04 21.64H105.44V24.24H108.04V21.64Z" fill="#132C45"/>
<path d="M113.24 21.64H110.64V24.24H113.24V21.64Z" fill="#132C45"/>
<path d="M115.84 21.64H113.24V24.24H115.84V21.64Z" fill="#132C45"/>
<path d="M118.44 21.64H115.84V24.24H118.44V21.64Z" fill="#132C45"/>
<path d="M123.64 21.64H121.04V24.24H123.64V21.64Z" fill="#132C45"/>
<path d="M128.84 21.64H126.24V24.24H128.84V21.64Z" fill="#132C45"/>
<path d="M131.44 21.64H128.84V24.24H131.44V21.64Z" fill="#132C45"/>
<path d="M136.64 21.64H134.04V24.24H136.64V21.64Z" fill="#132C45"/>
<path d="M139.24 21.64H136.64V24.24H139.24V21.64Z" fill="#132C45"/>
<path d="M141.84 21.64H139.24V24.24H141.84V21.64Z" fill="#132C45"/>
<path d="M147.04 21.64H144.44V24.24H147.04V21.64Z" fill="#132C45"/>
<path d="M152.24 21.64H149.64V24.24H152.24V21.64Z" fill="#132C45"/>
<path d="M154.84 21.64H152.24V24.24H154.84V21.64Z" fill="#132C45"/>
<path d="M157.44 21.64H154.84V24.24H157.44V21.64Z" fill="#132C45"/>
<path d="M162.64 21.64H160.04V24.24H162.64V21.64Z" fill="#132C45"/>
<path d="M79.44 24.24H76.84V26.84H79.44V24.24Z" fill="#132C45"/>
<path d="M84.64 24.24H82.04V26.84H84.64V24.24Z" fill="#132C45"/>
<path d="M87.24 24.24H84.64V26.84H87.24V24.24Z" fill="#132C45"/>
<path d="M89.8401 24.24H87.2401V26.84H89.8401V24.24Z" fill="#132C45"/>
<path d="M95.04 24.24H92.44V26.84H95.04V24.24Z" fill="#132C45"/>
<path d="M105.44 24.24H102.84V26.84H105.44V24.24Z" fill="#132C45"/>
<path d="M110.64 24.24H108.04V26.84H110.64V24.24Z" fill="#132C45"/>
<path d="M115.84 24.24H113.24V26.84H115.84V24.24Z" fill="#132C45"/>
<path d="M121.04 24.24H118.44V26.84H121.04V24.24Z" fill="#132C45"/>
<path d="M126.24 24.24H123.64V26.84H126.24V24.24Z" fill="#132C45"/>
<path d="M128.84 24.24H126.24V26.84H128.84V24.24Z" fill="#132C45"/>
<path d="M134.04 24.24H131.44V26.84H134.04V24.24Z" fill="#132C45"/>
<path d="M139.24 24.24H136.64V26.84H139.24V24.24Z" fill="#132C45"/>
<path d="M147.04 24.24H144.44V26.84H147.04V24.24Z" fill="#132C45"/>
<path d="M152.24 24.24H149.64V26.84H152.24V24.24Z" fill="#132C45"/>
<path d="M154.84 24.24H152.24V26.84H154.84V24.24Z" fill="#132C45"/>
<path d="M157.44 24.24H154.84V26.84H157.44V24.24Z" fill="#132C45"/>
<path d="M162.64 24.24H160.04V26.84H162.64V24.24Z" fill="#132C45"/>
<path d="M79.44 26.84H76.84V29.44H79.44V26.84Z" fill="#132C45"/>
<path d="M95.04 26.84H92.44V29.44H95.04V26.84Z" fill="#132C45"/>
<path d="M100.24 26.84H97.64V29.44H100.24V26.84Z" fill="#132C45"/>
<path d="M105.44 26.84H102.84V29.44H105.44V26.84Z" fill="#132C45"/>
<path d="M115.84 26.84H113.24V29.44H115.84V26.84Z" fill="#132C45"/>
<path d="M118.44 26.84H115.84V29.44H118.44V26.84Z" fill="#132C45"/>
<path d="M121.04 26.84H118.44V29.44H121.04V26.84Z" fill="#132C45"/>
<path d="M131.44 26.84H128.84V29.44H131.44V26.84Z" fill="#132C45"/>
<path d="M134.04 26.84H131.44V29.44H134.04V26.84Z" fill="#132C45"/>
<path d="M136.64 26.84H134.04V29.44H136.64V26.84Z" fill="#132C45"/>
<path d="M141.84 26.84H139.24V29.44H141.84V26.84Z" fill="#132C45"/>
<path d="M147.04 26.84H144.44V29.44H147.04V26.84Z" fill="#132C45"/>
<path d="M162.64 26.84H160.04V29.44H162.64V26.84Z" fill="#132C45"/>
<path d="M79.44 29.44H76.84V32.04H79.44V29.44Z" fill="#132C45"/>
<path d="M82.04 29.44H79.44V32.04H82.04V29.44Z" fill="#132C45"/>
<path d="M84.64 29.44H82.04V32.04H84.64V29.44Z" fill="#132C45"/>
<path d="M87.24 29.44H84.64V32.04H87.24V29.44Z" fill="#132C45"/>
<path d="M89.8401 29.44H87.2401V32.04H89.8401V29.44Z" fill="#132C45"/>
<path d="M92.44 29.44H89.84V32.04H92.44V29.44Z" fill="#132C45"/>
<path d="M95.04 29.44H92.44V32.04H95.04V29.44Z" fill="#132C45"/>
<path d="M100.24 29.44H97.64V32.04H100.24V29.44Z" fill="#132C45"/>
<path d="M105.44 29.44H102.84V32.04H105.44V29.44Z" fill="#132C45"/>
<path d="M110.64 29.44H108.04V32.04H110.64V29.44Z" fill="#132C45"/>
<path d="M115.84 29.44H113.24V32.04H115.84V29.44Z" fill="#132C45"/>
<path d="M121.04 29.44H118.44V32.04H121.04V29.44Z" fill="#132C45"/>
<path d="M126.24 29.44H123.64V32.04H126.24V29.44Z" fill="#132C45"/>
<path d="M131.44 29.44H128.84V32.04H131.44V29.44Z" fill="#132C45"/>
<path d="M136.64 29.44H134.04V32.04H136.64V29.44Z" fill="#132C45"/>
<path d="M141.84 29.44H139.24V32.04H141.84V29.44Z" fill="#132C45"/>
<path d="M147.04 29.44H144.44V32.04H147.04V29.44Z" fill="#132C45"/>
<path d="M149.64 29.44H147.04V32.04H149.64V29.44Z" fill="#132C45"/>
<path d="M152.24 29.44H149.64V32.04H152.24V29.44Z" fill="#132C45"/>
<path d="M154.84 29.44H152.24V32.04H154.84V29.44Z" fill="#132C45"/>
<path d="M157.44 29.44H154.84V32.04H157.44V29.44Z" fill="#132C45"/>
<path d="M160.04 29.44H157.44V32.04H160.04V29.44Z" fill="#132C45"/>
<path d="M162.64 29.44H160.04V32.04H162.64V29.44Z" fill="#132C45"/>
<path d="M110.64 32.04H108.04V34.64H110.64V32.04Z" fill="#132C45"/>
<path d="M121.04 32.04H118.44V34.64H121.04V32.04Z" fill="#132C45"/>
<path d="M126.24 32.04H123.64V34.64H126.24V32.04Z" fill="#132C45"/>
<path d="M128.84 32.04H126.24V34.64H128.84V32.04Z" fill="#132C45"/>
<path d="M134.04 32.04H131.44V34.64H134.04V32.04Z" fill="#132C45"/>
<path d="M136.64 32.04H134.04V34.64H136.64V32.04Z" fill="#132C45"/>
<path d="M79.44 34.64H76.84V37.24H79.44V34.64Z" fill="#132C45"/>
<path d="M82.04 34.64H79.44V37.24H82.04V34.64Z" fill="#132C45"/>
<path d="M84.64 34.64H82.04V37.24H84.64V34.64Z" fill="#132C45"/>
<path d="M87.24 34.64H84.64V37.24H87.24V34.64Z" fill="#132C45"/>
<path d="M89.8401 34.64H87.2401V37.24H89.8401V34.64Z" fill="#132C45"/>
<path d="M95.04 34.64H92.44V37.24H95.04V34.64Z" fill="#132C45"/>
<path d="M97.64 34.64H95.04V37.24H97.64V34.64Z" fill="#132C45"/>
<path d="M100.24 34.64H97.64V37.24H100.24V34.64Z" fill="#132C45"/>
<path d="M102.84 34.64H100.24V37.24H102.84V34.64Z" fill="#132C45"/>
<path d="M105.44 34.64H102.84V37.24H105.44V34.64Z" fill="#132C45"/>
<path d="M110.64 34.64H108.04V37.24H110.64V34.64Z" fill="#132C45"/>
<path d="M113.24 34.64H110.64V37.24H113.24V34.64Z" fill="#132C45"/>
<path d="M115.84 34.64H113.24V37.24H115.84V34.64Z" fill="#132C45"/>
<path d="M118.44 34.64H115.84V37.24H118.44V34.64Z" fill="#132C45"/>
<path d="M123.64 34.64H121.04V37.24H123.64V34.64Z" fill="#132C45"/>
<path d="M126.24 34.64H123.64V37.24H126.24V34.64Z" fill="#132C45"/>
<path d="M131.44 34.64H128.84V37.24H131.44V34.64Z" fill="#132C45"/>
<path d="M144.44 34.64H141.84V37.24H144.44V34.64Z" fill="#132C45"/>
<path d="M149.64 34.64H147.04V37.24H149.64V34.64Z" fill="#132C45"/>
<path d="M154.84 34.64H152.24V37.24H154.84V34.64Z" fill="#132C45"/>
<path d="M160.04 34.64H157.44V37.24H160.04V34.64Z" fill="#132C45"/>
<path d="M82.04 37.24H79.44V39.84H82.04V37.24Z" fill="#132C45"/>
<path d="M87.24 37.24H84.64V39.84H87.24V37.24Z" fill="#132C45"/>
<path d="M89.8401 37.24H87.2401V39.84H89.8401V37.24Z" fill="#132C45"/>
<path d="M97.64 37.24H95.04V39.84H97.64V37.24Z" fill="#132C45"/>
<path d="M102.84 37.24H100.24V39.84H102.84V37.24Z" fill="#132C45"/>
<path d="M115.84 37.24H113.24V39.84H115.84V37.24Z" fill="#132C45"/>
<path d="M121.04 37.24H118.44V39.84H121.04V37.24Z" fill="#132C45"/>
<path d="M123.64 37.24H121.04V39.84H123.64V37.24Z" fill="#132C45"/>
<path d="M128.84 37.24H126.24V39.84H128.84V37.24Z" fill="#132C45"/>
<path d="M131.44 37.24H128.84V39.84H131.44V37.24Z" fill="#132C45"/>
<path d="M139.24 37.24H136.64V39.84H139.24V37.24Z" fill="#132C45"/>
<path d="M147.04 37.24H144.44V39.84H147.04V37.24Z" fill="#132C45"/>
<path d="M157.44 37.24H154.84V39.84H157.44V37.24Z" fill="#132C45"/>
<path d="M160.04 37.24H157.44V39.84H160.04V37.24Z" fill="#132C45"/>
<path d="M162.64 37.24H160.04V39.84H162.64V37.24Z" fill="#132C45"/>
<path d="M82.04 39.84H79.44V42.44H82.04V39.84Z" fill="#132C45"/>
<path d="M87.24 39.84H84.64V42.44H87.24V39.84Z" fill="#132C45"/>
<path d="M92.44 39.84H89.84V42.44H92.44V39.84Z" fill="#132C45"/>
<path d="M95.04 39.84H92.44V42.44H95.04V39.84Z" fill="#132C45"/>
<path d="M100.24 39.84H97.64V42.44H100.24V39.84Z" fill="#132C45"/>
<path d="M102.84 39.84H100.24V42.44H102.84V39.84Z" fill="#132C45"/>
<path d="M108.04 39.84H105.44V42.44H108.04V39.84Z" fill="#132C45"/>
<path d="M110.64 39.84H108.04V42.44H110.64V39.84Z" fill="#132C45"/>
<path d="M113.24 39.84H110.64V42.44H113.24V39.84Z" fill="#132C45"/>
<path d="M118.44 39.84H115.84V42.44H118.44V39.84Z" fill="#132C45"/>
<path d="M136.64 39.84H134.04V42.44H136.64V39.84Z" fill="#132C45"/>
<path d="M144.44 39.84H141.84V42.44H144.44V39.84Z" fill="#132C45"/>
<path d="M147.04 39.84H144.44V42.44H147.04V39.84Z" fill="#132C45"/>
<path d="M152.24 39.84H149.64V42.44H152.24V39.84Z" fill="#132C45"/>
<path d="M154.84 39.84H152.24V42.44H154.84V39.84Z" fill="#132C45"/>
<path d="M160.04 39.84H157.44V42.44H160.04V39.84Z" fill="#132C45"/>
<path d="M82.04 42.44H79.44V45.04H82.04V42.44Z" fill="#132C45"/>
<path d="M100.24 42.44H97.64V45.04H100.24V42.44Z" fill="#132C45"/>
<path d="M102.84 42.44H100.24V45.04H102.84V42.44Z" fill="#132C45"/>
<path d="M105.44 42.44H102.84V45.04H105.44V42.44Z" fill="#132C45"/>
<path d="M108.04 42.44H105.44V45.04H108.04V42.44Z" fill="#132C45"/>
<path d="M121.04 42.44H118.44V45.04H121.04V42.44Z" fill="#132C45"/>
<path d="M131.44 42.44H128.84V45.04H131.44V42.44Z" fill="#132C45"/>
<path d="M134.04 42.44H131.44V45.04H134.04V42.44Z" fill="#132C45"/>
<path d="M136.64 42.44H134.04V45.04H136.64V42.44Z" fill="#132C45"/>
<path d="M139.24 42.44H136.64V45.04H139.24V42.44Z" fill="#132C45"/>
<path d="M141.84 42.44H139.24V45.04H141.84V42.44Z" fill="#132C45"/>
<path d="M144.44 42.44H141.84V45.04H144.44V42.44Z" fill="#132C45"/>
<path d="M147.04 42.44H144.44V45.04H147.04V42.44Z" fill="#132C45"/>
<path d="M152.24 42.44H149.64V45.04H152.24V42.44Z" fill="#132C45"/>
<path d="M157.44 42.44H154.84V45.04H157.44V42.44Z" fill="#132C45"/>
<path d="M87.24 45.04H84.64V47.64H87.24V45.04Z" fill="#132C45"/>
<path d="M89.8401 45.04H87.2401V47.64H89.8401V45.04Z" fill="#132C45"/>
<path d="M92.44 45.04H89.84V47.64H92.44V45.04Z" fill="#132C45"/>
<path d="M95.04 45.04H92.44V47.64H95.04V45.04Z" fill="#132C45"/>
<path d="M97.64 45.04H95.04V47.64H97.64V45.04Z" fill="#132C45"/>
<path d="M100.24 45.04H97.64V47.64H100.24V45.04Z" fill="#132C45"/>
<path d="M102.84 45.04H100.24V47.64H102.84V45.04Z" fill="#132C45"/>
<path d="M108.04 45.04H105.44V47.64H108.04V45.04Z" fill="#132C45"/>
<path d="M113.24 45.04H110.64V47.64H113.24V45.04Z" fill="#132C45"/>
<path d="M115.84 45.04H113.24V47.64H115.84V45.04Z" fill="#132C45"/>
<path d="M123.64 45.04H121.04V47.64H123.64V45.04Z" fill="#132C45"/>
<path d="M128.84 45.04H126.24V47.64H128.84V45.04Z" fill="#132C45"/>
<path d="M136.64 45.04H134.04V47.64H136.64V45.04Z" fill="#132C45"/>
<path d="M144.44 45.04H141.84V47.64H144.44V45.04Z" fill="#132C45"/>
<path d="M149.64 45.04H147.04V47.64H149.64V45.04Z" fill="#132C45"/>
<path d="M152.24 45.04H149.64V47.64H152.24V45.04Z" fill="#132C45"/>
<path d="M154.84 45.04H152.24V47.64H154.84V45.04Z" fill="#132C45"/>
<path d="M84.64 47.64H82.04V50.24H84.64V47.64Z" fill="#132C45"/>
<path d="M87.24 47.64H84.64V50.24H87.24V47.64Z" fill="#132C45"/>
<path d="M89.8401 47.64H87.2401V50.24H89.8401V47.64Z" fill="#132C45"/>
<path d="M92.44 47.64H89.84V50.24H92.44V47.64Z" fill="#132C45"/>
<path d="M97.64 47.64H95.04V50.24H97.64V47.64Z" fill="#132C45"/>
<path d="M100.24 47.64H97.64V50.24H100.24V47.64Z" fill="#132C45"/>
<path d="M105.44 47.64H102.84V50.24H105.44V47.64Z" fill="#132C45"/>
<path d="M110.64 47.64H108.04V50.24H110.64V47.64Z" fill="#132C45"/>
<path d="M113.24 47.64H110.64V50.24H113.24V47.64Z" fill="#132C45"/>
<path d="M126.24 47.64H123.64V50.24H126.24V47.64Z" fill="#132C45"/>
<path d="M128.84 47.64H126.24V50.24H128.84V47.64Z" fill="#132C45"/>
<path d="M131.44 47.64H128.84V50.24H131.44V47.64Z" fill="#132C45"/>
<path d="M134.04 47.64H131.44V50.24H134.04V47.64Z" fill="#132C45"/>
<path d="M139.24 47.64H136.64V50.24H139.24V47.64Z" fill="#132C45"/>
<path d="M147.04 47.64H144.44V50.24H147.04V47.64Z" fill="#132C45"/>
<path d="M160.04 47.64H157.44V50.24H160.04V47.64Z" fill="#132C45"/>
<path d="M162.64 47.64H160.04V50.24H162.64V47.64Z" fill="#132C45"/>
<path d="M82.04 50.24H79.44V52.84H82.04V50.24Z" fill="#132C45"/>
<path d="M84.64 50.24H82.04V52.84H84.64V50.24Z" fill="#132C45"/>
<path d="M89.8401 50.24H87.2401V52.84H89.8401V50.24Z" fill="#132C45"/>
<path d="M95.04 50.24H92.44V52.84H95.04V50.24Z" fill="#132C45"/>
<path d="M105.44 50.24H102.84V52.84H105.44V50.24Z" fill="#132C45"/>
<path d="M113.24 50.24H110.64V52.84H113.24V50.24Z" fill="#132C45"/>
<path d="M115.84 50.24H113.24V52.84H115.84V50.24Z" fill="#132C45"/>
<path d="M118.44 50.24H115.84V52.84H118.44V50.24Z" fill="#132C45"/>
<path d="M121.04 50.24H118.44V52.84H121.04V50.24Z" fill="#132C45"/>
<path d="M123.64 50.24H121.04V52.84H123.64V50.24Z" fill="#132C45"/>
<path d="M126.24 50.24H123.64V52.84H126.24V50.24Z" fill="#132C45"/>
<path d="M131.44 50.24H128.84V52.84H131.44V50.24Z" fill="#132C45"/>
<path d="M134.04 50.24H131.44V52.84H134.04V50.24Z" fill="#132C45"/>
<path d="M144.44 50.24H141.84V52.84H144.44V50.24Z" fill="#132C45"/>
<path d="M152.24 50.24H149.64V52.84H152.24V50.24Z" fill="#132C45"/>
<path d="M160.04 50.24H157.44V52.84H160.04V50.24Z" fill="#132C45"/>
<path d="M87.24 52.84H84.64V55.44H87.24V52.84Z" fill="#132C45"/>
<path d="M89.8401 52.84H87.2401V55.44H89.8401V52.84Z" fill="#132C45"/>
<path d="M105.44 52.84H102.84V55.44H105.44V52.84Z" fill="#132C45"/>
<path d="M110.64 52.84H108.04V55.44H110.64V52.84Z" fill="#132C45"/>
<path d="M115.84 52.84H113.24V55.44H115.84V52.84Z" fill="#132C45"/>
<path d="M134.04 52.84H131.44V55.44H134.04V52.84Z" fill="#132C45"/>
<path d="M136.64 52.84H134.04V55.44H136.64V52.84Z" fill="#132C45"/>
<path d="M139.24 52.84H136.64V55.44H139.24V52.84Z" fill="#132C45"/>
<path d="M144.44 52.84H141.84V55.44H144.44V52.84Z" fill="#132C45"/>
<path d="M147.04 52.84H144.44V55.44H147.04V52.84Z" fill="#132C45"/>
<path d="M157.44 52.84H154.84V55.44H157.44V52.84Z" fill="#132C45"/>
<path d="M79.44 55.44H76.84V58.04H79.44V55.44Z" fill="#132C45"/>
<path d="M95.04 55.44H92.44V58.04H95.04V55.44Z" fill="#132C45"/>
<path d="M102.84 55.44H100.24V58.04H102.84V55.44Z" fill="#132C45"/>
<path d="M110.64 55.44H108.04V58.04H110.64V55.44Z" fill="#132C45"/>
<path d="M113.24 55.44H110.64V58.04H113.24V55.44Z" fill="#132C45"/>
<path d="M115.84 55.44H113.24V58.04H115.84V55.44Z" fill="#132C45"/>
<path d="M118.44 55.44H115.84V58.04H118.44V55.44Z" fill="#132C45"/>
<path d="M123.64 55.44H121.04V58.04H123.64V55.44Z" fill="#132C45"/>
<path d="M128.84 55.44H126.24V58.04H128.84V55.44Z" fill="#132C45"/>
<path d="M136.64 55.44H134.04V58.04H136.64V55.44Z" fill="#132C45"/>
<path d="M139.24 55.44H136.64V58.04H139.24V55.44Z" fill="#132C45"/>
<path d="M141.84 55.44H139.24V58.04H141.84V55.44Z" fill="#132C45"/>
<path d="M144.44 55.44H141.84V58.04H144.44V55.44Z" fill="#132C45"/>
<path d="M149.64 55.44H147.04V58.04H149.64V55.44Z" fill="#132C45"/>
<path d="M152.24 55.44H149.64V58.04H152.24V55.44Z" fill="#132C45"/>
<path d="M160.04 55.44H157.44V58.04H160.04V55.44Z" fill="#132C45"/>
<path d="M79.44 58.04H76.84V60.64H79.44V58.04Z" fill="#132C45"/>
<path d="M89.8401 58.04H87.2401V60.64H89.8401V58.04Z" fill="#132C45"/>
<path d="M97.64 58.04H95.04V60.64H97.64V58.04Z" fill="#132C45"/>
<path d="M102.84 58.04H100.24V60.64H102.84V58.04Z" fill="#132C45"/>
<path d="M121.04 58.04H118.44V60.64H121.04V58.04Z" fill="#132C45"/>
<path d="M123.64 58.04H121.04V60.64H123.64V58.04Z" fill="#132C45"/>
<path d="M126.24 58.04H123.64V60.64H126.24V58.04Z" fill="#132C45"/>
<path d="M128.84 58.04H126.24V60.64H128.84V58.04Z" fill="#132C45"/>
<path d="M131.44 58.04H128.84V60.64H131.44V58.04Z" fill="#132C45"/>
<path d="M134.04 58.04H131.44V60.64H134.04V58.04Z" fill="#132C45"/>
<path d="M136.64 58.04H134.04V60.64H136.64V58.04Z" fill="#132C45"/>
<path d="M139.24 58.04H136.64V60.64H139.24V58.04Z" fill="#132C45"/>
<path d="M141.84 58.04H139.24V60.64H141.84V58.04Z" fill="#132C45"/>
<path d="M147.04 58.04H144.44V60.64H147.04V58.04Z" fill="#132C45"/>
<path d="M154.84 58.04H152.24V60.64H154.84V58.04Z" fill="#132C45"/>
<path d="M160.04 58.04H157.44V60.64H160.04V58.04Z" fill="#132C45"/>
<path d="M162.64 58.04H160.04V60.64H162.64V58.04Z" fill="#132C45"/>
<path d="M79.44 60.64H76.84V63.24H79.44V60.64Z" fill="#132C45"/>
<path d="M82.04 60.64H79.44V63.24H82.04V60.64Z" fill="#132C45"/>
<path d="M84.64 60.64H82.04V63.24H84.64V60.64Z" fill="#132C45"/>
<path d="M87.24 60.64H84.64V63.24H87.24V60.64Z" fill="#132C45"/>
<path d="M95.04 60.64H92.44V63.24H95.04V60.64Z" fill="#132C45"/>
<path d="M105.44 60.64H102.84V63.24H105.44V60.64Z" fill="#132C45"/>
<path d="M108.04 60.64H105.44V63.24H108.04V60.64Z" fill="#132C45"/>
<path d="M110.64 60.64H108.04V63.24H110.64V60.64Z" fill="#132C45"/>
<path d="M113.24 60.64H110.64V63.24H113.24V60.64Z" fill="#132C45"/>
<path d="M118.44 60.64H115.84V63.24H118.44V60.64Z" fill="#132C45"/>
<path d="M126.24 60.64H123.64V63.24H126.24V60.64Z" fill="#132C45"/>
<path d="M131.44 60.64H128.84V63.24H131.44V60.64Z" fill="#132C45"/>
<path d="M134.04 60.64H131.44V63.24H134.04V60.64Z" fill="#132C45"/>
<path d="M144.44 60.64H141.84V63.24H144.44V60.64Z" fill="#132C45"/>
<path d="M147.04 60.64H144.44V63.24H147.04V60.64Z" fill="#132C45"/>
<path d="M149.64 60.64H147.04V63.24H149.64V60.64Z" fill="#132C45"/>
<path d="M152.24 60.64H149.64V63.24H152.24V60.64Z" fill="#132C45"/>
<path d="M154.84 60.64H152.24V63.24H154.84V60.64Z" fill="#132C45"/>
<path d="M160.04 60.64H157.44V63.24H160.04V60.64Z" fill="#132C45"/>
<path d="M89.8401 63.24H87.2401V65.84H89.8401V63.24Z" fill="#132C45"/>
<path d="M92.44 63.24H89.84V65.84H92.44V63.24Z" fill="#132C45"/>
<path d="M97.64 63.24H95.04V65.84H97.64V63.24Z" fill="#132C45"/>
<path d="M105.44 63.24H102.84V65.84H105.44V63.24Z" fill="#132C45"/>
<path d="M108.04 63.24H105.44V65.84H108.04V63.24Z" fill="#132C45"/>
<path d="M115.84 63.24H113.24V65.84H115.84V63.24Z" fill="#132C45"/>
<path d="M121.04 63.24H118.44V65.84H121.04V63.24Z" fill="#132C45"/>
<path d="M126.24 63.24H123.64V65.84H126.24V63.24Z" fill="#132C45"/>
<path d="M134.04 63.24H131.44V65.84H134.04V63.24Z" fill="#132C45"/>
<path d="M152.24 63.24H149.64V65.84H152.24V63.24Z" fill="#132C45"/>
<path d="M157.44 63.24H154.84V65.84H157.44V63.24Z" fill="#132C45"/>
<path d="M82.04 65.84H79.44V68.44H82.04V65.84Z" fill="#132C45"/>
<path d="M84.64 65.84H82.04V68.44H84.64V65.84Z" fill="#132C45"/>
<path d="M87.24 65.84H84.64V68.44H87.24V65.84Z" fill="#132C45"/>
<path d="M92.44 65.84H89.84V68.44H92.44V65.84Z" fill="#132C45"/>
<path d="M95.04 65.84H92.44V68.44H95.04V65.84Z" fill="#132C45"/>
<path d="M102.84 65.84H100.24V68.44H102.84V65.84Z" fill="#132C45"/>
<path d="M108.04 65.84H105.44V68.44H108.04V65.84Z" fill="#132C45"/>
<path d="M110.64 65.84H108.04V68.44H110.64V65.84Z" fill="#132C45"/>
<path d="M113.24 65.84H110.64V68.44H113.24V65.84Z" fill="#132C45"/>
<path d="M115.84 65.84H113.24V68.44H115.84V65.84Z" fill="#132C45"/>
<path d="M123.64 65.84H121.04V68.44H123.64V65.84Z" fill="#132C45"/>
<path d="M126.24 65.84H123.64V68.44H126.24V65.84Z" fill="#132C45"/>
<path d="M136.64 65.84H134.04V68.44H136.64V65.84Z" fill="#132C45"/>
<path d="M139.24 65.84H136.64V68.44H139.24V65.84Z" fill="#132C45"/>
<path d="M141.84 65.84H139.24V68.44H141.84V65.84Z" fill="#132C45"/>
<path d="M144.44 65.84H141.84V68.44H144.44V65.84Z" fill="#132C45"/>
<path d="M149.64 65.84H147.04V68.44H149.64V65.84Z" fill="#132C45"/>
<path d="M152.24 65.84H149.64V68.44H152.24V65.84Z" fill="#132C45"/>
<path d="M160.04 65.84H157.44V68.44H160.04V65.84Z" fill="#132C45"/>
<path d="M79.44 68.44H76.84V71.04H79.44V68.44Z" fill="#132C45"/>
<path d="M82.04 68.44H79.44V71.04H82.04V68.44Z" fill="#132C45"/>
<path d="M84.64 68.44H82.04V71.04H84.64V68.44Z" fill="#132C45"/>
<path d="M100.24 68.44H97.64V71.04H100.24V68.44Z" fill="#132C45"/>
<path d="M102.84 68.44H100.24V71.04H102.84V68.44Z" fill="#132C45"/>
<path d="M105.44 68.44H102.84V71.04H105.44V68.44Z" fill="#132C45"/>
<path d="M110.64 68.44H108.04V71.04H110.64V68.44Z" fill="#132C45"/>
<path d="M113.24 68.44H110.64V71.04H113.24V68.44Z" fill="#132C45"/>
<path d="M121.04 68.44H118.44V71.04H121.04V68.44Z" fill="#132C45"/>
<path d="M123.64 68.44H121.04V71.04H123.64V68.44Z" fill="#132C45"/>
<path d="M126.24 68.44H123.64V71.04H126.24V68.44Z" fill="#132C45"/>
<path d="M128.84 68.44H126.24V71.04H128.84V68.44Z" fill="#132C45"/>
<path d="M131.44 68.44H128.84V71.04H131.44V68.44Z" fill="#132C45"/>
<path d="M134.04 68.44H131.44V71.04H134.04V68.44Z" fill="#132C45"/>
<path d="M136.64 68.44H134.04V71.04H136.64V68.44Z" fill="#132C45"/>
<path d="M139.24 68.44H136.64V71.04H139.24V68.44Z" fill="#132C45"/>
<path d="M147.04 68.44H144.44V71.04H147.04V68.44Z" fill="#132C45"/>
<path d="M149.64 68.44H147.04V71.04H149.64V68.44Z" fill="#132C45"/>
<path d="M154.84 68.44H152.24V71.04H154.84V68.44Z" fill="#132C45"/>
<path d="M160.04 68.44H157.44V71.04H160.04V68.44Z" fill="#132C45"/>
<path d="M162.64 68.44H160.04V71.04H162.64V68.44Z" fill="#132C45"/>
<path d="M79.44 71.04H76.84V73.64H79.44V71.04Z" fill="#132C45"/>
<path d="M84.64 71.04H82.04V73.64H84.64V71.04Z" fill="#132C45"/>
<path d="M92.44 71.04H89.84V73.64H92.44V71.04Z" fill="#132C45"/>
<path d="M95.04 71.04H92.44V73.64H95.04V71.04Z" fill="#132C45"/>
<path d="M110.64 71.04H108.04V73.64H110.64V71.04Z" fill="#132C45"/>
<path d="M118.44 71.04H115.84V73.64H118.44V71.04Z" fill="#132C45"/>
<path d="M121.04 71.04H118.44V73.64H121.04V71.04Z" fill="#132C45"/>
<path d="M123.64 71.04H121.04V73.64H123.64V71.04Z" fill="#132C45"/>
<path d="M134.04 71.04H131.44V73.64H134.04V71.04Z" fill="#132C45"/>
<path d="M144.44 71.04H141.84V73.64H144.44V71.04Z" fill="#132C45"/>
<path d="M154.84 71.04H152.24V73.64H154.84V71.04Z" fill="#132C45"/>
<path d="M160.04 71.04H157.44V73.64H160.04V71.04Z" fill="#132C45"/>
<path d="M79.44 73.64H76.84V76.24H79.44V73.64Z" fill="#132C45"/>
<path d="M84.64 73.64H82.04V76.24H84.64V73.64Z" fill="#132C45"/>
<path d="M87.24 73.64H84.64V76.24H87.24V73.64Z" fill="#132C45"/>
<path d="M89.8401 73.64H87.2401V76.24H89.8401V73.64Z" fill="#132C45"/>
<path d="M92.44 73.64H89.84V76.24H92.44V73.64Z" fill="#132C45"/>
<path d="M97.64 73.64H95.04V76.24H97.64V73.64Z" fill="#132C45"/>
<path d="M108.04 73.64H105.44V76.24H108.04V73.64Z" fill="#132C45"/>
<path d="M118.44 73.64H115.84V76.24H118.44V73.64Z" fill="#132C45"/>
<path d="M126.24 73.64H123.64V76.24H126.24V73.64Z" fill="#132C45"/>
<path d="M131.44 73.64H128.84V76.24H131.44V73.64Z" fill="#132C45"/>
<path d="M134.04 73.64H131.44V76.24H134.04V73.64Z" fill="#132C45"/>
<path d="M139.24 73.64H136.64V76.24H139.24V73.64Z" fill="#132C45"/>
<path d="M144.44 73.64H141.84V76.24H144.44V73.64Z" fill="#132C45"/>
<path d="M149.64 73.64H147.04V76.24H149.64V73.64Z" fill="#132C45"/>
<path d="M152.24 73.64H149.64V76.24H152.24V73.64Z" fill="#132C45"/>
<path d="M154.84 73.64H152.24V76.24H154.84V73.64Z" fill="#132C45"/>
<path d="M157.44 73.64H154.84V76.24H157.44V73.64Z" fill="#132C45"/>
<path d="M79.44 76.24H76.84V78.84H79.44V76.24Z" fill="#132C45"/>
<path d="M84.64 76.24H82.04V78.84H84.64V76.24Z" fill="#132C45"/>
<path d="M89.8401 76.24H87.2401V78.84H89.8401V76.24Z" fill="#132C45"/>
<path d="M92.44 76.24H89.84V78.84H92.44V76.24Z" fill="#132C45"/>
<path d="M95.04 76.24H92.44V78.84H95.04V76.24Z" fill="#132C45"/>
<path d="M100.24 76.24H97.64V78.84H100.24V76.24Z" fill="#132C45"/>
<path d="M102.84 76.24H100.24V78.84H102.84V76.24Z" fill="#132C45"/>
<path d="M108.04 76.24H105.44V78.84H108.04V76.24Z" fill="#132C45"/>
<path d="M110.64 76.24H108.04V78.84H110.64V76.24Z" fill="#132C45"/>
<path d="M113.24 76.24H110.64V78.84H113.24V76.24Z" fill="#132C45"/>
<path d="M115.84 76.24H113.24V78.84H115.84V76.24Z" fill="#132C45"/>
<path d="M123.64 76.24H121.04V78.84H123.64V76.24Z" fill="#132C45"/>
<path d="M131.44 76.24H128.84V78.84H131.44V76.24Z" fill="#132C45"/>
<path d="M136.64 76.24H134.04V78.84H136.64V76.24Z" fill="#132C45"/>
<path d="M139.24 76.24H136.64V78.84H139.24V76.24Z" fill="#132C45"/>
<path d="M141.84 76.24H139.24V78.84H141.84V76.24Z" fill="#132C45"/>
<path d="M144.44 76.24H141.84V78.84H144.44V76.24Z" fill="#132C45"/>
<path d="M147.04 76.24H144.44V78.84H147.04V76.24Z" fill="#132C45"/>
<path d="M149.64 76.24H147.04V78.84H149.64V76.24Z" fill="#132C45"/>
<path d="M152.24 76.24H149.64V78.84H152.24V76.24Z" fill="#132C45"/>
<path d="M154.84 76.24H152.24V78.84H154.84V76.24Z" fill="#132C45"/>
<path d="M162.64 76.24H160.04V78.84H162.64V76.24Z" fill="#132C45"/>
<path d="M100.24 78.84H97.64V81.44H100.24V78.84Z" fill="#132C45"/>
<path d="M102.84 78.84H100.24V81.44H102.84V78.84Z" fill="#132C45"/>
<path d="M108.04 78.84H105.44V81.44H108.04V78.84Z" fill="#132C45"/>
<path d="M121.04 78.84H118.44V81.44H121.04V78.84Z" fill="#132C45"/>
<path d="M128.84 78.84H126.24V81.44H128.84V78.84Z" fill="#132C45"/>
<path d="M131.44 78.84H128.84V81.44H131.44V78.84Z" fill="#132C45"/>
<path d="M134.04 78.84H131.44V81.44H134.04V78.84Z" fill="#132C45"/>
<path d="M136.64 78.84H134.04V81.44H136.64V78.84Z" fill="#132C45"/>
<path d="M141.84 78.84H139.24V81.44H141.84V78.84Z" fill="#132C45"/>
<path d="M152.24 78.84H149.64V81.44H152.24V78.84Z" fill="#132C45"/>
<path d="M157.44 78.84H154.84V81.44H157.44V78.84Z" fill="#132C45"/>
<path d="M162.64 78.84H160.04V81.44H162.64V78.84Z" fill="#132C45"/>
<path d="M79.44 81.44H76.84V84.04H79.44V81.44Z" fill="#132C45"/>
<path d="M82.04 81.44H79.44V84.04H82.04V81.44Z" fill="#132C45"/>
<path d="M84.64 81.44H82.04V84.04H84.64V81.44Z" fill="#132C45"/>
<path d="M87.24 81.44H84.64V84.04H87.24V81.44Z" fill="#132C45"/>
<path d="M89.8401 81.44H87.2401V84.04H89.8401V81.44Z" fill="#132C45"/>
<path d="M92.44 81.44H89.84V84.04H92.44V81.44Z" fill="#132C45"/>
<path d="M95.04 81.44H92.44V84.04H95.04V81.44Z" fill="#132C45"/>
<path d="M100.24 81.44H97.64V84.04H100.24V81.44Z" fill="#132C45"/>
<path d="M105.44 81.44H102.84V84.04H105.44V81.44Z" fill="#132C45"/>
<path d="M115.84 81.44H113.24V84.04H115.84V81.44Z" fill="#132C45"/>
<path d="M118.44 81.44H115.84V84.04H118.44V81.44Z" fill="#132C45"/>
<path d="M123.64 81.44H121.04V84.04H123.64V81.44Z" fill="#132C45"/>
<path d="M126.24 81.44H123.64V84.04H126.24V81.44Z" fill="#132C45"/>
<path d="M131.44 81.44H128.84V84.04H131.44V81.44Z" fill="#132C45"/>
<path d="M139.24 81.44H136.64V84.04H139.24V81.44Z" fill="#132C45"/>
<path d="M141.84 81.44H139.24V84.04H141.84V81.44Z" fill="#132C45"/>
<path d="M147.04 81.44H144.44V84.04H147.04V81.44Z" fill="#132C45"/>
<path d="M152.24 81.44H149.64V84.04H152.24V81.44Z" fill="#132C45"/>
<path d="M157.44 81.44H154.84V84.04H157.44V81.44Z" fill="#132C45"/>
<path d="M160.04 81.44H157.44V84.04H160.04V81.44Z" fill="#132C45"/>
<path d="M79.44 84.04H76.84V86.64H79.44V84.04Z" fill="#132C45"/>
<path d="M95.04 84.04H92.44V86.64H95.04V84.04Z" fill="#132C45"/>
<path d="M102.84 84.04H100.24V86.64H102.84V84.04Z" fill="#132C45"/>
<path d="M105.44 84.04H102.84V86.64H105.44V84.04Z" fill="#132C45"/>
<path d="M110.64 84.04H108.04V86.64H110.64V84.04Z" fill="#132C45"/>
<path d="M115.84 84.04H113.24V86.64H115.84V84.04Z" fill="#132C45"/>
<path d="M118.44 84.04H115.84V86.64H118.44V84.04Z" fill="#132C45"/>
<path d="M126.24 84.04H123.64V86.64H126.24V84.04Z" fill="#132C45"/>
<path d="M131.44 84.04H128.84V86.64H131.44V84.04Z" fill="#132C45"/>
<path d="M134.04 84.04H131.44V86.64H134.04V84.04Z" fill="#132C45"/>
<path d="M136.64 84.04H134.04V86.64H136.64V84.04Z" fill="#132C45"/>
<path d="M139.24 84.04H136.64V86.64H139.24V84.04Z" fill="#132C45"/>
<path d="M141.84 84.04H139.24V86.64H141.84V84.04Z" fill="#132C45"/>
<path d="M152.24 84.04H149.64V86.64H152.24V84.04Z" fill="#132C45"/>
<path d="M154.84 84.04H152.24V86.64H154.84V84.04Z" fill="#132C45"/>
<path d="M157.44 84.04H154.84V86.64H157.44V84.04Z" fill="#132C45"/>
<path d="M162.64 84.04H160.04V86.64H162.64V84.04Z" fill="#132C45"/>
<path d="M79.44 86.64H76.84V89.24H79.44V86.64Z" fill="#132C45"/>
<path d="M84.64 86.64H82.04V89.24H84.64V86.64Z" fill="#132C45"/>
<path d="M87.24 86.64H84.64V89.24H87.24V86.64Z" fill="#132C45"/>
<path d="M89.8401 86.64H87.2401V89.24H89.8401V86.64Z" fill="#132C45"/>
<path d="M95.04 86.64H92.44V89.24H95.04V86.64Z" fill="#132C45"/>
<path d="M100.24 86.64H97.64V89.24H100.24V86.64Z" fill="#132C45"/>
<path d="M102.84 86.64H100.24V89.24H102.84V86.64Z" fill="#132C45"/>
<path d="M108.04 86.64H105.44V89.24H108.04V86.64Z" fill="#132C45"/>
<path d="M110.64 86.64H108.04V89.24H110.64V86.64Z" fill="#132C45"/>
<path d="M113.24 86.64H110.64V89.24H113.24V86.64Z" fill="#132C45"/>
<path d="M115.84 86.64H113.24V89.24H115.84V86.64Z" fill="#132C45"/>
<path d="M123.64 86.64H121.04V89.24H123.64V86.64Z" fill="#132C45"/>
<path d="M141.84 86.64H139.24V89.24H141.84V86.64Z" fill="#132C45"/>
<path d="M144.44 86.64H141.84V89.24H144.44V86.64Z" fill="#132C45"/>
<path d="M147.04 86.64H144.44V89.24H147.04V86.64Z" fill="#132C45"/>
<path d="M149.64 86.64H147.04V89.24H149.64V86.64Z" fill="#132C45"/>
<path d="M152.24 86.64H149.64V89.24H152.24V86.64Z" fill="#132C45"/>
<path d="M160.04 86.64H157.44V89.24H160.04V86.64Z" fill="#132C45"/>
<path d="M79.44 89.24H76.84V91.84H79.44V89.24Z" fill="#132C45"/>
<path d="M84.64 89.24H82.04V91.84H84.64V89.24Z" fill="#132C45"/>
<path d="M87.24 89.24H84.64V91.84H87.24V89.24Z" fill="#132C45"/>
<path d="M89.8401 89.24H87.2401V91.84H89.8401V89.24Z" fill="#132C45"/>
<path d="M95.04 89.24H92.44V91.84H95.04V89.24Z" fill="#132C45"/>
<path d="M100.24 89.24H97.64V91.84H100.24V89.24Z" fill="#132C45"/>
<path d="M102.84 89.24H100.24V91.84H102.84V89.24Z" fill="#132C45"/>
<path d="M108.04 89.24H105.44V91.84H108.04V89.24Z" fill="#132C45"/>
<path d="M121.04 89.24H118.44V91.84H121.04V89.24Z" fill="#132C45"/>
<path d="M126.24 89.24H123.64V91.84H126.24V89.24Z" fill="#132C45"/>
<path d="M128.84 89.24H126.24V91.84H128.84V89.24Z" fill="#132C45"/>
<path d="M131.44 89.24H128.84V91.84H131.44V89.24Z" fill="#132C45"/>
<path d="M139.24 89.24H136.64V91.84H139.24V89.24Z" fill="#132C45"/>
<path d="M152.24 89.24H149.64V91.84H152.24V89.24Z" fill="#132C45"/>
<path d="M154.84 89.24H152.24V91.84H154.84V89.24Z" fill="#132C45"/>
<path d="M79.44 91.84H76.84V94.44H79.44V91.84Z" fill="#132C45"/>
<path d="M84.64 91.84H82.04V94.44H84.64V91.84Z" fill="#132C45"/>
<path d="M87.24 91.84H84.64V94.44H87.24V91.84Z" fill="#132C45"/>
<path d="M89.8401 91.84H87.2401V94.44H89.8401V91.84Z" fill="#132C45"/>
<path d="M95.04 91.84H92.44V94.44H95.04V91.84Z" fill="#132C45"/>
<path d="M100.24 91.84H97.64V94.44H100.24V91.84Z" fill="#132C45"/>
<path d="M102.84 91.84H100.24V94.44H102.84V91.84Z" fill="#132C45"/>
<path d="M105.44 91.84H102.84V94.44H105.44V91.84Z" fill="#132C45"/>
<path d="M113.24 91.84H110.64V94.44H113.24V91.84Z" fill="#132C45"/>
<path d="M118.44 91.84H115.84V94.44H118.44V91.84Z" fill="#132C45"/>
<path d="M136.64 91.84H134.04V94.44H136.64V91.84Z" fill="#132C45"/>
<path d="M141.84 91.84H139.24V94.44H141.84V91.84Z" fill="#132C45"/>
<path d="M147.04 91.84H144.44V94.44H147.04V91.84Z" fill="#132C45"/>
<path d="M157.44 91.84H154.84V94.44H157.44V91.84Z" fill="#132C45"/>
<path d="M160.04 91.84H157.44V94.44H160.04V91.84Z" fill="#132C45"/>
<path d="M79.44 94.44H76.84V97.04H79.44V94.44Z" fill="#132C45"/>
<path d="M95.04 94.44H92.44V97.04H95.04V94.44Z" fill="#132C45"/>
<path d="M100.24 94.44H97.64V97.04H100.24V94.44Z" fill="#132C45"/>
<path d="M102.84 94.44H100.24V97.04H102.84V94.44Z" fill="#132C45"/>
<path d="M108.04 94.44H105.44V97.04H108.04V94.44Z" fill="#132C45"/>
<path d="M110.64 94.44H108.04V97.04H110.64V94.44Z" fill="#132C45"/>
<path d="M115.84 94.44H113.24V97.04H115.84V94.44Z" fill="#132C45"/>
<path d="M118.44 94.44H115.84V97.04H118.44V94.44Z" fill="#132C45"/>
<path d="M121.04 94.44H118.44V97.04H121.04V94.44Z" fill="#132C45"/>
<path d="M131.44 94.44H128.84V97.04H131.44V94.44Z" fill="#132C45"/>
<path d="M134.04 94.44H131.44V97.04H134.04V94.44Z" fill="#132C45"/>
<path d="M136.64 94.44H134.04V97.04H136.64V94.44Z" fill="#132C45"/>
<path d="M144.44 94.44H141.84V97.04H144.44V94.44Z" fill="#132C45"/>
<path d="M147.04 94.44H144.44V97.04H147.04V94.44Z" fill="#132C45"/>
<path d="M154.84 94.44H152.24V97.04H154.84V94.44Z" fill="#132C45"/>
<path d="M157.44 94.44H154.84V97.04H157.44V94.44Z" fill="#132C45"/>
<path d="M79.44 97.04H76.84V99.64H79.44V97.04Z" fill="#132C45"/>
<path d="M82.04 97.04H79.44V99.64H82.04V97.04Z" fill="#132C45"/>
<path d="M84.64 97.04H82.04V99.64H84.64V97.04Z" fill="#132C45"/>
<path d="M87.24 97.04H84.64V99.64H87.24V97.04Z" fill="#132C45"/>
<path d="M89.8401 97.04H87.2401V99.64H89.8401V97.04Z" fill="#132C45"/>
<path d="M92.44 97.04H89.84V99.64H92.44V97.04Z" fill="#132C45"/>
<path d="M95.04 97.04H92.44V99.64H95.04V97.04Z" fill="#132C45"/>
<path d="M100.24 97.04H97.64V99.64H100.24V97.04Z" fill="#132C45"/>
<path d="M105.44 97.04H102.84V99.64H105.44V97.04Z" fill="#132C45"/>
<path d="M108.04 97.04H105.44V99.64H108.04V97.04Z" fill="#132C45"/>
<path d="M110.64 97.04H108.04V99.64H110.64V97.04Z" fill="#132C45"/>
<path d="M113.24 97.04H110.64V99.64H113.24V97.04Z" fill="#132C45"/>
<path d="M115.84 97.04H113.24V99.64H115.84V97.04Z" fill="#132C45"/>
<path d="M118.44 97.04H115.84V99.64H118.44V97.04Z" fill="#132C45"/>
<path d="M121.04 97.04H118.44V99.64H121.04V97.04Z" fill="#132C45"/>
<path d="M123.64 97.04H121.04V99.64H123.64V97.04Z" fill="#132C45"/>
<path d="M136.64 97.04H134.04V99.64H136.64V97.04Z" fill="#132C45"/>
<path d="M139.24 97.04H136.64V99.64H139.24V97.04Z" fill="#132C45"/>
<path d="M141.84 97.04H139.24V99.64H141.84V97.04Z" fill="#132C45"/>
<path d="M147.04 97.04H144.44V99.64H147.04V97.04Z" fill="#132C45"/>
<path d="M149.64 97.04H147.04V99.64H149.64V97.04Z" fill="#132C45"/>
<path d="M160.04 97.04H157.44V99.64H160.04V97.04Z" fill="#132C45"/>
<path d="M18.8254 56.4185C18.4344 56.2594 18.0719 56.03 17.7381 55.7303C17.4129 55.4271 17.1559 55.0697 16.9673 54.6582L18.1138 54.0458C18.2531 54.3162 18.4274 54.5616 18.6367 54.7821C18.8522 55.0051 19.0852 55.1676 19.3357 55.2695C19.6168 55.3839 19.8456 55.4165 20.0223 55.3673C20.2051 55.3206 20.3326 55.2087 20.4047 55.0315C20.442 54.9399 20.4529 54.8517 20.4375 54.7671C20.4282 54.685 20.3938 54.6033 20.3342 54.5221C20.2833 54.4373 20.2115 54.3511 20.119 54.2636C20.035 54.1725 19.94 54.0733 19.8341 53.9661L19.1894 53.3191C19.0615 53.1959 18.9441 53.0555 18.8372 52.8981C18.7365 52.7432 18.6542 52.5779 18.5903 52.4024C18.535 52.2232 18.5086 52.0344 18.511 51.836C18.5159 51.6314 18.5631 51.4192 18.6526 51.1992C18.7521 50.9548 18.8973 50.7469 19.0881 50.5753C19.2815 50.3976 19.5052 50.2679 19.7593 50.1861C20.0158 50.0982 20.291 50.0606 20.585 50.0734C20.885 50.0887 21.1908 50.1597 21.5024 50.2865C21.8506 50.4282 22.1654 50.6347 22.4468 50.9059C22.7342 51.1795 22.9541 51.4969 23.1062 51.8579L22.072 52.4305C21.9387 52.1982 21.7904 52.0025 21.6272 51.8436C21.4665 51.6785 21.267 51.5474 21.0287 51.4505C20.7966 51.356 20.5903 51.329 20.41 51.3696C20.2383 51.4065 20.1176 51.5105 20.048 51.6816C20.0107 51.7733 19.9998 51.8614 20.0152 51.946C20.0392 52.027 20.0797 52.1112 20.1368 52.1985C20.2024 52.2822 20.2803 52.3708 20.3704 52.4644C20.463 52.552 20.5622 52.6493 20.6682 52.7565L21.3112 53.3814C21.6181 53.6772 21.8232 53.9957 21.9265 54.3369C22.0359 54.6805 22.0049 55.0631 21.8333 55.4847C21.7314 55.7352 21.5825 55.9523 21.3866 56.1361C21.1993 56.3163 20.9731 56.4522 20.708 56.5437C20.4515 56.6316 20.1615 56.6702 19.8382 56.6597C19.5174 56.6431 19.1798 56.5627 18.8254 56.4185ZM23.9638 58.5095C23.6461 58.3802 23.3709 58.2077 23.1382 57.992C22.9141 57.7726 22.7423 57.5211 22.6227 57.2374C22.5031 56.9537 22.445 56.6416 22.4482 56.3011C22.454 55.9545 22.5339 55.5918 22.6881 55.2129C22.8422 54.8341 23.0431 54.5242 23.2908 54.2831C23.5409 54.036 23.8139 53.8551 24.1098 53.7405C24.4118 53.6284 24.7276 53.5788 25.057 53.5918C25.3889 53.5987 25.7107 53.6655 26.0223 53.7923C26.3033 53.9067 26.5321 54.0532 26.7087 54.2319C26.8913 54.4131 27.0396 54.6087 27.1535 54.8188L26.1668 55.4322C26.0251 55.168 25.8565 54.9961 25.6609 54.9165C25.331 54.7822 25.0241 54.7927 24.7402 54.9478C24.4563 55.1029 24.2336 55.379 24.072 55.7761C23.9103 56.1732 23.877 56.5264 23.9719 56.8357C24.073 57.1474 24.2701 57.363 24.5634 57.4823C24.71 57.542 24.863 57.5686 25.0223 57.5622C25.1901 57.5522 25.3538 57.5262 25.5133 57.4843L25.6868 58.5804C25.3812 58.684 25.0796 58.725 24.7821 58.7037C24.487 58.6762 24.2143 58.6115 23.9638 58.5095ZM27.3184 59.8747C27.1106 59.7901 26.9361 59.6764 26.7949 59.5334C26.6573 59.3991 26.5553 59.2472 26.4889 59.0778C26.4251 58.9022 26.3931 58.7183 26.393 58.526C26.399 58.3362 26.4418 58.1435 26.5214 57.948C26.7153 57.4714 27.0686 57.1807 27.5813 57.076C28.0939 56.9713 28.818 57.0558 29.7534 57.3297C29.8233 57.1231 29.8268 56.9394 29.7641 56.7785C29.7099 56.6141 29.5576 56.4809 29.3071 56.3789C29.1116 56.2994 28.9012 56.2565 28.6758 56.2502C28.4566 56.2464 28.2109 56.264 27.9387 56.3028L27.8147 55.2161C28.1801 55.1583 28.544 55.139 28.9065 55.1583C29.2751 55.1801 29.6396 55.2644 30.0001 55.4111C30.5866 55.6498 30.9643 55.9993 31.133 56.4596C31.3103 56.9164 31.256 57.4961 30.9701 58.1987L29.9109 60.8015L28.8111 60.3539L28.9097 59.8492L28.873 59.8343C28.6079 59.9258 28.3461 59.9831 28.0875 60.006C27.8313 60.0229 27.575 59.9791 27.3184 59.8747ZM28.2018 59.0163C28.3545 59.0785 28.4996 59.0984 28.6369 59.0759C28.7742 59.0535 28.9288 59.006 29.1008 58.9335L29.4252 58.1362C28.9213 58.0095 28.5516 57.973 28.3161 58.0267C28.0806 58.0804 27.9268 58.1958 27.8547 58.373C27.795 58.5197 27.7961 58.6483 27.8579 58.7589C27.9283 58.8659 28.0429 58.9517 28.2018 59.0163ZM31.0505 61.2652L32.9004 56.7195L34.0001 57.1671L33.8568 57.7817L33.8935 57.7966C34.1636 57.6929 34.4421 57.6211 34.7289 57.5811C35.0183 57.5351 35.3188 57.5755 35.6304 57.7023C36.1253 57.9037 36.4168 58.211 36.505 58.6244C36.5993 59.0402 36.5296 59.5353 36.2959 60.1096L35.1472 62.9323L33.7999 62.3841L34.8778 59.7355C35.012 59.4055 35.0582 59.1608 35.0163 59.0013C34.9805 58.8443 34.8648 58.7261 34.6693 58.6465C34.4982 58.5769 34.3354 58.5569 34.1809 58.5866C34.0289 58.6102 33.8509 58.6624 33.6471 58.7433L32.3977 61.8135L31.0505 61.2652ZM36.2952 63.3995L38.145 58.8538L39.2448 59.3013L39.1015 59.916L39.1382 59.9309C39.4083 59.8272 39.6868 59.7554 39.9736 59.7154C40.263 59.6694 40.5635 59.7098 40.8751 59.8366C41.37 60.038 41.6615 60.3453 41.7497 60.7587C41.844 61.1745 41.7743 61.6696 41.5405 62.2439L40.3918 65.0666L39.0446 64.5184L40.1225 61.8698C40.2567 61.5398 40.3029 61.2951 40.261 61.1356C40.2252 60.9786 40.1095 60.8603 39.914 60.7808C39.7429 60.7112 39.5801 60.6912 39.4256 60.7209C39.2736 60.7445 39.0956 60.7967 38.8918 60.8776L37.6424 63.9478L36.2952 63.3995ZM43.5297 66.4717C43.2059 66.34 42.9246 66.165 42.6858 65.9467C42.4495 65.7224 42.2685 65.4671 42.1428 65.181C42.0196 64.8887 41.9596 64.5723 41.9629 64.2318C41.9662 63.8913 42.0449 63.5316 42.199 63.1528C42.3482 62.7862 42.5436 62.4811 42.7851 62.2376C43.0291 61.9879 43.2899 61.8021 43.5675 61.68C43.8537 61.5543 44.1474 61.4887 44.4488 61.4832C44.7502 61.4776 45.0383 61.5308 45.3132 61.6427C45.6371 61.7744 45.8957 61.9438 46.0893 62.1507C46.2889 62.3602 46.4284 62.595 46.5077 62.8551C46.5931 63.1178 46.6208 63.3997 46.5908 63.7008C46.5633 63.9959 46.4862 64.2992 46.3594 64.6108C46.3097 64.733 46.2563 64.8466 46.1993 64.9516C46.1424 65.0566 46.0966 65.1341 46.062 65.1841L43.34 64.0765C43.2669 64.4313 43.3018 64.7304 43.4449 64.9738C43.5966 65.2135 43.8252 65.3956 44.1307 65.5199C44.4545 65.6517 44.8224 65.6839 45.2344 65.6165L45.3515 66.6149C45.0547 66.6793 44.7441 66.6989 44.4196 66.6737C44.1013 66.6509 43.8046 66.5836 43.5297 66.4717ZM43.6926 63.1838L45.3331 63.8513C45.4376 63.5947 45.4641 63.3634 45.4126 63.1573C45.3612 62.9512 45.198 62.7922 44.923 62.6803C44.7092 62.5933 44.4912 62.5865 44.269 62.6599C44.053 62.7357 43.8609 62.9104 43.6926 63.1838ZM46.2833 67.4641L48.1332 62.9184L49.233 63.366L49.0002 64.2006L49.0368 64.2155C49.3286 63.971 49.6204 63.8227 49.9122 63.7706C50.2041 63.7184 50.4661 63.7396 50.6983 63.8341C50.8266 63.8863 50.9267 63.9377 50.9987 63.9884C51.0792 64.0354 51.1469 64.0879 51.2017 64.1458L50.5081 65.2202C50.4325 65.1609 50.3605 65.1103 50.2922 65.0682C50.2238 65.0262 50.1408 64.9852 50.043 64.9455C49.872 64.8758 49.6668 64.8636 49.4277 64.9087C49.1947 64.9563 48.9537 65.1111 48.7047 65.3729L47.6306 68.0124L46.2833 67.4641ZM23.775 67.7349L23.4046 68.2251L24.6785 68.7435L24.7648 68.1377C24.8011 67.8035 24.8479 67.4522 24.9052 67.0838C24.9626 66.7155 25.0149 66.3593 25.0623 66.0154L25.0256 66.0005C24.823 66.2884 24.6136 66.5842 24.3974 66.8879C24.1899 67.188 23.9824 67.4703 23.775 67.7349ZM20.3814 69.8791L24.6827 64.6645L26.3048 65.3246L25.7428 72.0609L24.3131 71.4791L24.5246 69.9093L22.7008 69.1672L21.7561 70.4385L20.3814 69.8791ZM25.5995 73.9681L28.1356 67.7361L29.2353 68.1836L29.1442 68.67L29.1809 68.6849C29.4227 68.5982 29.6748 68.5476 29.937 68.5332C30.2078 68.5153 30.4623 68.5548 30.7006 68.6517C30.9756 68.7636 31.2006 68.9193 31.3758 69.1188C31.551 69.3183 31.674 69.5499 31.7447 69.8137C31.8154 70.0775 31.832 70.3691 31.7946 70.6886C31.7658 71.0045 31.6805 71.3365 31.5388 71.6848C31.3796 72.0758 31.1829 72.4017 30.9486 72.6624C30.7229 72.9195 30.4749 73.1177 30.2046 73.257C29.9429 73.3926 29.6735 73.4682 29.3966 73.4837C29.1258 73.5017 28.8682 73.4609 28.6238 73.3615C28.4283 73.2819 28.255 73.1651 28.1041 73.0111C27.9556 72.851 27.833 72.6622 27.7363 72.4448L27.4875 73.1875L26.9467 74.5164L25.5995 73.9681ZM28.7597 72.1349C28.9919 72.2294 29.2328 72.2063 29.4823 72.0657C29.7342 71.919 29.956 71.6104 30.1474 71.1399C30.4806 70.3212 30.3844 69.805 29.859 69.5911C29.5963 69.4842 29.2807 69.516 28.9122 69.6865L28.1551 71.547C28.2325 71.7067 28.3236 71.8328 28.4284 71.9253C28.5332 72.0178 28.6437 72.0876 28.7597 72.1349ZM30.8531 76.1061L33.3892 69.874L34.489 70.3216L34.3979 70.8079L34.4345 70.8228C34.6764 70.7361 34.9284 70.6855 35.1906 70.6712C35.4614 70.6532 35.716 70.6927 35.9543 70.7897C36.2292 70.9015 36.4543 71.0572 36.6295 71.2567C36.8047 71.4562 36.9276 71.6878 36.9983 71.9516C37.069 72.2154 37.0857 72.507 37.0482 72.8265C37.0194 73.1424 36.9341 73.4744 36.7924 73.8227C36.6333 74.2137 36.4365 74.5396 36.2022 74.8004C35.9766 75.0575 35.7285 75.2557 35.4582 75.3949C35.1965 75.5305 34.9272 75.6061 34.6502 75.6216C34.3794 75.6396 34.1218 75.5988 33.8774 75.4994C33.6819 75.4198 33.5087 75.303 33.3577 75.149C33.2092 74.9889 33.0866 74.8001 32.9899 74.5827L32.7411 75.3254L32.2003 76.6543L30.8531 76.1061ZM34.0134 74.2728C34.2455 74.3673 34.4864 74.3442 34.7359 74.2036C34.9879 74.0569 35.2096 73.7483 35.401 73.2779C35.7342 72.4592 35.6381 71.9429 35.1126 71.7291C34.8499 71.6221 34.5343 71.6539 34.1658 71.8245L33.4087 73.6849C33.4861 73.8446 33.5773 73.9707 33.6821 74.0632C33.7868 74.1557 33.8973 74.2256 34.0134 74.2728Z" fill="#132C45"/>
<path d="M57.8327 43.5348C57.4823 42.8469 57.7544 42.0083 58.4449 41.6653C59.1302 41.325 59.9644 41.605 60.3134 42.2875L62.6017 46.7673C62.9447 47.4672 62.6765 48.2883 62.0001 48.6314L57.4486 50.938C57.298 51.0136 57.1368 51.061 56.9714 51.0786C56.403 51.1392 55.8471 50.8463 55.5773 50.33C55.2202 49.6451 55.4858 48.8032 56.1739 48.4545L57.8219 47.6198C54.9845 46.5092 52.4275 46.1369 50.1124 46.3827C47.7594 46.6339 45.779 47.5072 44.1298 48.8032C43.1195 49.5976 42.4247 50.3928 42.0522 50.9562L42.0886 50.9048C41.8604 51.2621 41.4848 51.4891 41.071 51.5332C40.7553 51.5668 40.435 51.4927 40.1634 51.3171C39.5175 50.9009 39.3235 50.0415 39.7397 49.3914C39.7657 49.3513 39.7992 49.3013 39.8495 49.23C40.3772 48.4819 41.1671 47.6063 42.2375 46.7389C44.2907 45.0751 46.8164 43.9339 49.7942 43.6175C52.4757 43.3301 55.4013 43.7378 58.5429 44.9255L57.8327 43.5348Z" fill="#132C45"/>
</svg>
