<svg width="240" height="110" viewBox="0 0 240 110" fill="none" xmlns="http://www.w3.org/2000/svg">
<rect width="240" height="110" fill="white"/>
<rect x="69" y="7.11353" width="102" height="99.7727" rx="6.06509" fill="white" stroke="#50E3C2" stroke-width="4"/>
<path d="M82.4214 16.1736H79.1739V19.4212H82.4214V16.1736Z" fill="#132C45"/>
<path d="M85.6689 16.1736H82.4213V19.4212H85.6689V16.1736Z" fill="#132C45"/>
<path d="M88.9164 16.1736H85.6689V19.4212H88.9164V16.1736Z" fill="#132C45"/>
<path d="M92.1639 16.1736H88.9163V19.4212H92.1639V16.1736Z" fill="#132C45"/>
<path d="M95.4115 16.1736H92.1639V19.4212H95.4115V16.1736Z" fill="#132C45"/>
<path d="M98.659 16.1736H95.4115V19.4212H98.659V16.1736Z" fill="#132C45"/>
<path d="M101.907 16.1736H98.659V19.4212H101.907V16.1736Z" fill="#132C45"/>
<path d="M108.402 16.1736H105.154V19.4212H108.402V16.1736Z" fill="#132C45"/>
<path d="M114.897 16.1736H111.649V19.4212H114.897V16.1736Z" fill="#132C45"/>
<path d="M127.887 16.1736H124.639V19.4212H127.887V16.1736Z" fill="#132C45"/>
<path d="M140.877 16.1736H137.629V19.4212H140.877V16.1736Z" fill="#132C45"/>
<path d="M144.124 16.1736H140.877V19.4212H144.124V16.1736Z" fill="#132C45"/>
<path d="M147.372 16.1736H144.124V19.4212H147.372V16.1736Z" fill="#132C45"/>
<path d="M150.619 16.1736H147.372V19.4212H150.619V16.1736Z" fill="#132C45"/>
<path d="M153.867 16.1736H150.62V19.4212H153.867V16.1736Z" fill="#132C45"/>
<path d="M157.115 16.1736H153.867V19.4212H157.115V16.1736Z" fill="#132C45"/>
<path d="M160.362 16.1736H157.115V19.4212H160.362V16.1736Z" fill="#132C45"/>
<path d="M82.4214 19.4214H79.1739V22.6689H82.4214V19.4214Z" fill="#132C45"/>
<path d="M101.907 19.4214H98.659V22.6689H101.907V19.4214Z" fill="#132C45"/>
<path d="M111.649 19.4214H108.402V22.6689H111.649V19.4214Z" fill="#132C45"/>
<path d="M121.392 19.4214H118.144V22.6689H121.392V19.4214Z" fill="#132C45"/>
<path d="M124.639 19.4214H121.392V22.6689H124.639V19.4214Z" fill="#132C45"/>
<path d="M127.887 19.4214H124.639V22.6689H127.887V19.4214Z" fill="#132C45"/>
<path d="M134.382 19.4214H131.134V22.6689H134.382V19.4214Z" fill="#132C45"/>
<path d="M140.877 19.4214H137.629V22.6689H140.877V19.4214Z" fill="#132C45"/>
<path d="M160.362 19.4214H157.115V22.6689H160.362V19.4214Z" fill="#132C45"/>
<path d="M82.4214 22.6687H79.1739V25.9163H82.4214V22.6687Z" fill="#132C45"/>
<path d="M88.9164 22.6687H85.6689V25.9163H88.9164V22.6687Z" fill="#132C45"/>
<path d="M92.1639 22.6687H88.9163V25.9163H92.1639V22.6687Z" fill="#132C45"/>
<path d="M95.4115 22.6687H92.1639V25.9163H95.4115V22.6687Z" fill="#132C45"/>
<path d="M101.907 22.6687H98.659V25.9163H101.907V22.6687Z" fill="#132C45"/>
<path d="M111.649 22.6687H108.402V25.9163H111.649V22.6687Z" fill="#132C45"/>
<path d="M121.392 22.6687H118.144V25.9163H121.392V22.6687Z" fill="#132C45"/>
<path d="M124.639 22.6687H121.392V25.9163H124.639V22.6687Z" fill="#132C45"/>
<path d="M134.382 22.6687H131.134V25.9163H134.382V22.6687Z" fill="#132C45"/>
<path d="M140.877 22.6687H137.629V25.9163H140.877V22.6687Z" fill="#132C45"/>
<path d="M147.372 22.6687H144.124V25.9163H147.372V22.6687Z" fill="#132C45"/>
<path d="M150.619 22.6687H147.372V25.9163H150.619V22.6687Z" fill="#132C45"/>
<path d="M153.867 22.6687H150.62V25.9163H153.867V22.6687Z" fill="#132C45"/>
<path d="M160.362 22.6687H157.115V25.9163H160.362V22.6687Z" fill="#132C45"/>
<path d="M82.4214 25.9164H79.1739V29.1639H82.4214V25.9164Z" fill="#132C45"/>
<path d="M88.9164 25.9164H85.6689V29.1639H88.9164V25.9164Z" fill="#132C45"/>
<path d="M92.1639 25.9164H88.9163V29.1639H92.1639V25.9164Z" fill="#132C45"/>
<path d="M95.4115 25.9164H92.1639V29.1639H95.4115V25.9164Z" fill="#132C45"/>
<path d="M101.907 25.9164H98.659V29.1639H101.907V25.9164Z" fill="#132C45"/>
<path d="M114.897 25.9164H111.649V29.1639H114.897V25.9164Z" fill="#132C45"/>
<path d="M124.639 25.9164H121.392V29.1639H124.639V25.9164Z" fill="#132C45"/>
<path d="M127.887 25.9164H124.639V29.1639H127.887V25.9164Z" fill="#132C45"/>
<path d="M134.382 25.9164H131.134V29.1639H134.382V25.9164Z" fill="#132C45"/>
<path d="M140.877 25.9164H137.629V29.1639H140.877V25.9164Z" fill="#132C45"/>
<path d="M147.372 25.9164H144.124V29.1639H147.372V25.9164Z" fill="#132C45"/>
<path d="M150.619 25.9164H147.372V29.1639H150.619V25.9164Z" fill="#132C45"/>
<path d="M153.867 25.9164H150.62V29.1639H153.867V25.9164Z" fill="#132C45"/>
<path d="M160.362 25.9164H157.115V29.1639H160.362V25.9164Z" fill="#132C45"/>
<path d="M82.4214 29.1638H79.1739V32.4113H82.4214V29.1638Z" fill="#132C45"/>
<path d="M88.9164 29.1638H85.6689V32.4113H88.9164V29.1638Z" fill="#132C45"/>
<path d="M92.1639 29.1638H88.9163V32.4113H92.1639V29.1638Z" fill="#132C45"/>
<path d="M95.4115 29.1638H92.1639V32.4113H95.4115V29.1638Z" fill="#132C45"/>
<path d="M101.907 29.1638H98.659V32.4113H101.907V29.1638Z" fill="#132C45"/>
<path d="M124.639 29.1638H121.392V32.4113H124.639V29.1638Z" fill="#132C45"/>
<path d="M127.887 29.1638H124.639V32.4113H127.887V29.1638Z" fill="#132C45"/>
<path d="M134.382 29.1638H131.134V32.4113H134.382V29.1638Z" fill="#132C45"/>
<path d="M140.877 29.1638H137.629V32.4113H140.877V29.1638Z" fill="#132C45"/>
<path d="M147.372 29.1638H144.124V32.4113H147.372V29.1638Z" fill="#132C45"/>
<path d="M150.619 29.1638H147.372V32.4113H150.619V29.1638Z" fill="#132C45"/>
<path d="M153.867 29.1638H150.62V32.4113H153.867V29.1638Z" fill="#132C45"/>
<path d="M160.362 29.1638H157.115V32.4113H160.362V29.1638Z" fill="#132C45"/>
<path d="M82.4214 32.4115H79.1739V35.659H82.4214V32.4115Z" fill="#132C45"/>
<path d="M101.907 32.4115H98.659V35.659H101.907V32.4115Z" fill="#132C45"/>
<path d="M111.649 32.4115H108.402V35.659H111.649V32.4115Z" fill="#132C45"/>
<path d="M118.144 32.4115H114.897V35.659H118.144V32.4115Z" fill="#132C45"/>
<path d="M124.639 32.4115H121.392V35.659H124.639V32.4115Z" fill="#132C45"/>
<path d="M127.887 32.4115H124.639V35.659H127.887V32.4115Z" fill="#132C45"/>
<path d="M134.382 32.4115H131.134V35.659H134.382V32.4115Z" fill="#132C45"/>
<path d="M140.877 32.4115H137.629V35.659H140.877V32.4115Z" fill="#132C45"/>
<path d="M160.362 32.4115H157.115V35.659H160.362V32.4115Z" fill="#132C45"/>
<path d="M82.4214 35.6591H79.1739V38.9066H82.4214V35.6591Z" fill="#132C45"/>
<path d="M85.6689 35.6591H82.4213V38.9066H85.6689V35.6591Z" fill="#132C45"/>
<path d="M88.9164 35.6591H85.6689V38.9066H88.9164V35.6591Z" fill="#132C45"/>
<path d="M92.1639 35.6591H88.9163V38.9066H92.1639V35.6591Z" fill="#132C45"/>
<path d="M95.4115 35.6591H92.1639V38.9066H95.4115V35.6591Z" fill="#132C45"/>
<path d="M98.659 35.6591H95.4115V38.9066H98.659V35.6591Z" fill="#132C45"/>
<path d="M101.907 35.6591H98.659V38.9066H101.907V35.6591Z" fill="#132C45"/>
<path d="M108.402 35.6591H105.154V38.9066H108.402V35.6591Z" fill="#132C45"/>
<path d="M114.897 35.6591H111.649V38.9066H114.897V35.6591Z" fill="#132C45"/>
<path d="M121.392 35.6591H118.144V38.9066H121.392V35.6591Z" fill="#132C45"/>
<path d="M127.887 35.6591H124.639V38.9066H127.887V35.6591Z" fill="#132C45"/>
<path d="M134.382 35.6591H131.134V38.9066H134.382V35.6591Z" fill="#132C45"/>
<path d="M140.877 35.6591H137.629V38.9066H140.877V35.6591Z" fill="#132C45"/>
<path d="M144.124 35.6591H140.877V38.9066H144.124V35.6591Z" fill="#132C45"/>
<path d="M147.372 35.6591H144.124V38.9066H147.372V35.6591Z" fill="#132C45"/>
<path d="M150.619 35.6591H147.372V38.9066H150.619V35.6591Z" fill="#132C45"/>
<path d="M153.867 35.6591H150.62V38.9066H153.867V35.6591Z" fill="#132C45"/>
<path d="M157.115 35.6591H153.867V38.9066H157.115V35.6591Z" fill="#132C45"/>
<path d="M160.362 35.6591H157.115V38.9066H160.362V35.6591Z" fill="#132C45"/>
<path d="M108.402 38.9065H105.154V42.154H108.402V38.9065Z" fill="#132C45"/>
<path d="M111.649 38.9065H108.402V42.154H111.649V38.9065Z" fill="#132C45"/>
<path d="M121.392 38.9065H118.144V42.154H121.392V38.9065Z" fill="#132C45"/>
<path d="M124.639 38.9065H121.392V42.154H124.639V38.9065Z" fill="#132C45"/>
<path d="M131.134 38.9065H127.887V42.154H131.134V38.9065Z" fill="#132C45"/>
<path d="M134.382 38.9065H131.134V42.154H134.382V38.9065Z" fill="#132C45"/>
<path d="M82.4214 42.1542H79.1739V45.4017H82.4214V42.1542Z" fill="#132C45"/>
<path d="M85.6689 42.1542H82.4213V45.4017H85.6689V42.1542Z" fill="#132C45"/>
<path d="M92.1639 42.1542H88.9163V45.4017H92.1639V42.1542Z" fill="#132C45"/>
<path d="M95.4115 42.1542H92.1639V45.4017H95.4115V42.1542Z" fill="#132C45"/>
<path d="M101.907 42.1542H98.659V45.4017H101.907V42.1542Z" fill="#132C45"/>
<path d="M111.649 42.1542H108.402V45.4017H111.649V42.1542Z" fill="#132C45"/>
<path d="M121.392 42.1542H118.144V45.4017H121.392V42.1542Z" fill="#132C45"/>
<path d="M127.887 42.1542H124.639V45.4017H127.887V42.1542Z" fill="#132C45"/>
<path d="M134.382 42.1542H131.134V45.4017H134.382V42.1542Z" fill="#132C45"/>
<path d="M140.877 42.1542H137.629V45.4017H140.877V42.1542Z" fill="#132C45"/>
<path d="M160.362 42.1542H157.115V45.4017H160.362V42.1542Z" fill="#132C45"/>
<path d="M85.6689 45.4016H82.4213V48.6491H85.6689V45.4016Z" fill="#132C45"/>
<path d="M88.9164 45.4016H85.6689V48.6491H88.9164V45.4016Z" fill="#132C45"/>
<path d="M92.1639 45.4016H88.9163V48.6491H92.1639V45.4016Z" fill="#132C45"/>
<path d="M105.154 45.4016H101.907V48.6491H105.154V45.4016Z" fill="#132C45"/>
<path d="M114.897 45.4016H111.649V48.6491H114.897V45.4016Z" fill="#132C45"/>
<path d="M118.144 45.4016H114.897V48.6491H118.144V45.4016Z" fill="#132C45"/>
<path d="M131.134 45.4016H127.887V48.6491H131.134V45.4016Z" fill="#132C45"/>
<path d="M134.382 45.4016H131.134V48.6491H134.382V45.4016Z" fill="#132C45"/>
<path d="M144.124 45.4016H140.877V48.6491H144.124V45.4016Z" fill="#132C45"/>
<path d="M147.372 45.4016H144.124V48.6491H147.372V45.4016Z" fill="#132C45"/>
<path d="M150.619 45.4016H147.372V48.6491H150.619V45.4016Z" fill="#132C45"/>
<path d="M153.867 45.4016H150.62V48.6491H153.867V45.4016Z" fill="#132C45"/>
<path d="M157.115 45.4016H153.867V48.6491H157.115V45.4016Z" fill="#132C45"/>
<path d="M85.6689 48.649H82.4213V51.8965H85.6689V48.649Z" fill="#132C45"/>
<path d="M92.1639 48.649H88.9163V51.8965H92.1639V48.649Z" fill="#132C45"/>
<path d="M95.4115 48.649H92.1639V51.8965H95.4115V48.649Z" fill="#132C45"/>
<path d="M101.907 48.649H98.659V51.8965H101.907V48.649Z" fill="#132C45"/>
<path d="M108.402 48.649H105.154V51.8965H108.402V48.649Z" fill="#132C45"/>
<path d="M111.649 48.649H108.402V51.8965H111.649V48.649Z" fill="#132C45"/>
<path d="M118.144 48.649H114.897V51.8965H118.144V48.649Z" fill="#132C45"/>
<path d="M121.392 48.649H118.144V51.8965H121.392V48.649Z" fill="#132C45"/>
<path d="M124.639 48.649H121.392V51.8965H124.639V48.649Z" fill="#132C45"/>
<path d="M127.887 48.649H124.639V51.8965H127.887V48.649Z" fill="#132C45"/>
<path d="M131.134 48.649H127.887V51.8965H131.134V48.649Z" fill="#132C45"/>
<path d="M140.877 48.649H137.629V51.8965H140.877V48.649Z" fill="#132C45"/>
<path d="M150.619 48.649H147.372V51.8965H150.619V48.649Z" fill="#132C45"/>
<path d="M160.362 48.649H157.115V51.8965H160.362V48.649Z" fill="#132C45"/>
<path d="M82.4214 51.8966H79.1739V55.1442H82.4214V51.8966Z" fill="#132C45"/>
<path d="M85.6689 51.8966H82.4213V55.1442H85.6689V51.8966Z" fill="#132C45"/>
<path d="M88.9164 51.8966H85.6689V55.1442H88.9164V51.8966Z" fill="#132C45"/>
<path d="M105.154 51.8966H101.907V55.1442H105.154V51.8966Z" fill="#132C45"/>
<path d="M108.402 51.8966H105.154V55.1442H108.402V51.8966Z" fill="#132C45"/>
<path d="M140.877 51.8966H137.629V55.1442H140.877V51.8966Z" fill="#132C45"/>
<path d="M150.619 51.8966H147.372V55.1442H150.619V51.8966Z" fill="#132C45"/>
<path d="M153.867 51.8966H150.62V55.1442H153.867V51.8966Z" fill="#132C45"/>
<path d="M157.115 51.8966H153.867V55.1442H157.115V51.8966Z" fill="#132C45"/>
<path d="M160.362 51.8966H157.115V55.1442H160.362V51.8966Z" fill="#132C45"/>
<path d="M82.4214 55.144H79.1739V58.3915H82.4214V55.144Z" fill="#132C45"/>
<path d="M85.6689 55.144H82.4213V58.3915H85.6689V55.144Z" fill="#132C45"/>
<path d="M88.9164 55.144H85.6689V58.3915H88.9164V55.144Z" fill="#132C45"/>
<path d="M92.1639 55.144H88.9163V58.3915H92.1639V55.144Z" fill="#132C45"/>
<path d="M95.4115 55.144H92.1639V58.3915H95.4115V55.144Z" fill="#132C45"/>
<path d="M98.659 55.144H95.4115V58.3915H98.659V55.144Z" fill="#132C45"/>
<path d="M101.907 55.144H98.659V58.3915H101.907V55.144Z" fill="#132C45"/>
<path d="M108.402 55.144H105.154V58.3915H108.402V55.144Z" fill="#132C45"/>
<path d="M111.649 55.144H108.402V58.3915H111.649V55.144Z" fill="#132C45"/>
<path d="M114.897 55.144H111.649V58.3915H114.897V55.144Z" fill="#132C45"/>
<path d="M121.392 55.144H118.144V58.3915H121.392V55.144Z" fill="#132C45"/>
<path d="M131.134 55.144H127.887V58.3915H131.134V55.144Z" fill="#132C45"/>
<path d="M140.877 55.144H137.629V58.3915H140.877V55.144Z" fill="#132C45"/>
<path d="M160.362 55.144H157.115V58.3915H160.362V55.144Z" fill="#132C45"/>
<path d="M82.4214 58.3917H79.1739V61.6392H82.4214V58.3917Z" fill="#132C45"/>
<path d="M85.6689 58.3917H82.4213V61.6392H85.6689V58.3917Z" fill="#132C45"/>
<path d="M88.9164 58.3917H85.6689V61.6392H88.9164V58.3917Z" fill="#132C45"/>
<path d="M92.1639 58.3917H88.9163V61.6392H92.1639V58.3917Z" fill="#132C45"/>
<path d="M105.154 58.3917H101.907V61.6392H105.154V58.3917Z" fill="#132C45"/>
<path d="M108.402 58.3917H105.154V61.6392H108.402V58.3917Z" fill="#132C45"/>
<path d="M111.649 58.3917H108.402V61.6392H111.649V58.3917Z" fill="#132C45"/>
<path d="M114.897 58.3917H111.649V61.6392H114.897V58.3917Z" fill="#132C45"/>
<path d="M118.144 58.3917H114.897V61.6392H118.144V58.3917Z" fill="#132C45"/>
<path d="M121.392 58.3917H118.144V61.6392H121.392V58.3917Z" fill="#132C45"/>
<path d="M124.639 58.3917H121.392V61.6392H124.639V58.3917Z" fill="#132C45"/>
<path d="M127.887 58.3917H124.639V61.6392H127.887V58.3917Z" fill="#132C45"/>
<path d="M131.134 58.3917H127.887V61.6392H131.134V58.3917Z" fill="#132C45"/>
<path d="M134.382 58.3917H131.134V61.6392H134.382V58.3917Z" fill="#132C45"/>
<path d="M137.629 58.3917H134.382V61.6392H137.629V58.3917Z" fill="#132C45"/>
<path d="M147.372 58.3917H144.124V61.6392H147.372V58.3917Z" fill="#132C45"/>
<path d="M157.115 58.3917H153.867V61.6392H157.115V58.3917Z" fill="#132C45"/>
<path d="M82.4214 61.6393H79.1739V64.8868H82.4214V61.6393Z" fill="#132C45"/>
<path d="M85.6689 61.6393H82.4213V64.8868H85.6689V61.6393Z" fill="#132C45"/>
<path d="M92.1639 61.6393H88.9163V64.8868H92.1639V61.6393Z" fill="#132C45"/>
<path d="M101.907 61.6393H98.659V64.8868H101.907V61.6393Z" fill="#132C45"/>
<path d="M105.154 61.6393H101.907V64.8868H105.154V61.6393Z" fill="#132C45"/>
<path d="M121.392 61.6393H118.144V64.8868H121.392V61.6393Z" fill="#132C45"/>
<path d="M124.639 61.6393H121.392V64.8868H124.639V61.6393Z" fill="#132C45"/>
<path d="M127.887 61.6393H124.639V64.8868H127.887V61.6393Z" fill="#132C45"/>
<path d="M131.134 61.6393H127.887V64.8868H131.134V61.6393Z" fill="#132C45"/>
<path d="M137.629 61.6393H134.382V64.8868H137.629V61.6393Z" fill="#132C45"/>
<path d="M140.877 61.6393H137.629V64.8868H140.877V61.6393Z" fill="#132C45"/>
<path d="M147.372 61.6393H144.124V64.8868H147.372V61.6393Z" fill="#132C45"/>
<path d="M150.619 61.6393H147.372V64.8868H150.619V61.6393Z" fill="#132C45"/>
<path d="M153.867 61.6393H150.62V64.8868H153.867V61.6393Z" fill="#132C45"/>
<path d="M157.115 61.6393H153.867V64.8868H157.115V61.6393Z" fill="#132C45"/>
<path d="M160.362 61.6393H157.115V64.8868H160.362V61.6393Z" fill="#132C45"/>
<path d="M82.4214 64.8867H79.1739V68.1343H82.4214V64.8867Z" fill="#132C45"/>
<path d="M92.1639 64.8867H88.9163V68.1343H92.1639V64.8867Z" fill="#132C45"/>
<path d="M95.4115 64.8867H92.1639V68.1343H95.4115V64.8867Z" fill="#132C45"/>
<path d="M105.154 64.8867H101.907V68.1343H105.154V64.8867Z" fill="#132C45"/>
<path d="M108.402 64.8867H105.154V68.1343H108.402V64.8867Z" fill="#132C45"/>
<path d="M114.897 64.8867H111.649V68.1343H114.897V64.8867Z" fill="#132C45"/>
<path d="M134.382 64.8867H131.134V68.1343H134.382V64.8867Z" fill="#132C45"/>
<path d="M144.124 64.8867H140.877V68.1343H144.124V64.8867Z" fill="#132C45"/>
<path d="M150.619 64.8867H147.372V68.1343H150.619V64.8867Z" fill="#132C45"/>
<path d="M153.867 64.8867H150.62V68.1343H153.867V64.8867Z" fill="#132C45"/>
<path d="M160.362 64.8867H157.115V68.1343H160.362V64.8867Z" fill="#132C45"/>
<path d="M82.4214 68.1344H79.1739V71.3819H82.4214V68.1344Z" fill="#132C45"/>
<path d="M88.9164 68.1344H85.6689V71.3819H88.9164V68.1344Z" fill="#132C45"/>
<path d="M92.1639 68.1344H88.9163V71.3819H92.1639V68.1344Z" fill="#132C45"/>
<path d="M98.659 68.1344H95.4115V71.3819H98.659V68.1344Z" fill="#132C45"/>
<path d="M101.907 68.1344H98.659V71.3819H101.907V68.1344Z" fill="#132C45"/>
<path d="M108.402 68.1344H105.154V71.3819H108.402V68.1344Z" fill="#132C45"/>
<path d="M111.649 68.1344H108.402V71.3819H111.649V68.1344Z" fill="#132C45"/>
<path d="M118.144 68.1344H114.897V71.3819H118.144V68.1344Z" fill="#132C45"/>
<path d="M124.639 68.1344H121.392V71.3819H124.639V68.1344Z" fill="#132C45"/>
<path d="M134.382 68.1344H131.134V71.3819H134.382V68.1344Z" fill="#132C45"/>
<path d="M137.629 68.1344H134.382V71.3819H137.629V68.1344Z" fill="#132C45"/>
<path d="M140.877 68.1344H137.629V71.3819H140.877V68.1344Z" fill="#132C45"/>
<path d="M144.124 68.1344H140.877V71.3819H144.124V68.1344Z" fill="#132C45"/>
<path d="M147.372 68.1344H144.124V71.3819H147.372V68.1344Z" fill="#132C45"/>
<path d="M153.867 68.1344H150.62V71.3819H153.867V68.1344Z" fill="#132C45"/>
<path d="M157.115 68.1344H153.867V71.3819H157.115V68.1344Z" fill="#132C45"/>
<path d="M108.402 71.3818H105.154V74.6293H108.402V71.3818Z" fill="#132C45"/>
<path d="M111.649 71.3818H108.402V74.6293H111.649V71.3818Z" fill="#132C45"/>
<path d="M114.897 71.3818H111.649V74.6293H114.897V71.3818Z" fill="#132C45"/>
<path d="M127.887 71.3818H124.639V74.6293H127.887V71.3818Z" fill="#132C45"/>
<path d="M134.382 71.3818H131.134V74.6293H134.382V71.3818Z" fill="#132C45"/>
<path d="M147.372 71.3818H144.124V74.6293H147.372V71.3818Z" fill="#132C45"/>
<path d="M153.867 71.3818H150.62V74.6293H153.867V71.3818Z" fill="#132C45"/>
<path d="M157.115 71.3818H153.867V74.6293H157.115V71.3818Z" fill="#132C45"/>
<path d="M82.4214 74.6295H79.1739V77.877H82.4214V74.6295Z" fill="#132C45"/>
<path d="M85.6689 74.6295H82.4213V77.877H85.6689V74.6295Z" fill="#132C45"/>
<path d="M88.9164 74.6295H85.6689V77.877H88.9164V74.6295Z" fill="#132C45"/>
<path d="M92.1639 74.6295H88.9163V77.877H92.1639V74.6295Z" fill="#132C45"/>
<path d="M95.4115 74.6295H92.1639V77.877H95.4115V74.6295Z" fill="#132C45"/>
<path d="M98.659 74.6295H95.4115V77.877H98.659V74.6295Z" fill="#132C45"/>
<path d="M101.907 74.6295H98.659V77.877H101.907V74.6295Z" fill="#132C45"/>
<path d="M111.649 74.6295H108.402V77.877H111.649V74.6295Z" fill="#132C45"/>
<path d="M114.897 74.6295H111.649V77.877H114.897V74.6295Z" fill="#132C45"/>
<path d="M118.144 74.6295H114.897V77.877H118.144V74.6295Z" fill="#132C45"/>
<path d="M134.382 74.6295H131.134V77.877H134.382V74.6295Z" fill="#132C45"/>
<path d="M140.877 74.6295H137.629V77.877H140.877V74.6295Z" fill="#132C45"/>
<path d="M147.372 74.6295H144.124V77.877H147.372V74.6295Z" fill="#132C45"/>
<path d="M160.362 74.6295H157.115V77.877H160.362V74.6295Z" fill="#132C45"/>
<path d="M82.4214 77.8768H79.1739V81.1244H82.4214V77.8768Z" fill="#132C45"/>
<path d="M101.907 77.8768H98.659V81.1244H101.907V77.8768Z" fill="#132C45"/>
<path d="M111.649 77.8768H108.402V81.1244H111.649V77.8768Z" fill="#132C45"/>
<path d="M114.897 77.8768H111.649V81.1244H114.897V77.8768Z" fill="#132C45"/>
<path d="M121.392 77.8768H118.144V81.1244H121.392V77.8768Z" fill="#132C45"/>
<path d="M124.639 77.8768H121.392V81.1244H124.639V77.8768Z" fill="#132C45"/>
<path d="M127.887 77.8768H124.639V81.1244H127.887V77.8768Z" fill="#132C45"/>
<path d="M131.134 77.8768H127.887V81.1244H131.134V77.8768Z" fill="#132C45"/>
<path d="M134.382 77.8768H131.134V81.1244H134.382V77.8768Z" fill="#132C45"/>
<path d="M147.372 77.8768H144.124V81.1244H147.372V77.8768Z" fill="#132C45"/>
<path d="M82.4214 81.1242H79.1739V84.3717H82.4214V81.1242Z" fill="#132C45"/>
<path d="M88.9164 81.1242H85.6689V84.3717H88.9164V81.1242Z" fill="#132C45"/>
<path d="M92.1639 81.1242H88.9163V84.3717H92.1639V81.1242Z" fill="#132C45"/>
<path d="M95.4115 81.1242H92.1639V84.3717H95.4115V81.1242Z" fill="#132C45"/>
<path d="M101.907 81.1242H98.659V84.3717H101.907V81.1242Z" fill="#132C45"/>
<path d="M108.402 81.1242H105.154V84.3717H108.402V81.1242Z" fill="#132C45"/>
<path d="M111.649 81.1242H108.402V84.3717H111.649V81.1242Z" fill="#132C45"/>
<path d="M114.897 81.1242H111.649V84.3717H114.897V81.1242Z" fill="#132C45"/>
<path d="M118.144 81.1242H114.897V84.3717H118.144V81.1242Z" fill="#132C45"/>
<path d="M121.392 81.1242H118.144V84.3717H121.392V81.1242Z" fill="#132C45"/>
<path d="M127.887 81.1242H124.639V84.3717H127.887V81.1242Z" fill="#132C45"/>
<path d="M131.134 81.1242H127.887V84.3717H131.134V81.1242Z" fill="#132C45"/>
<path d="M134.382 81.1242H131.134V84.3717H134.382V81.1242Z" fill="#132C45"/>
<path d="M137.629 81.1242H134.382V84.3717H137.629V81.1242Z" fill="#132C45"/>
<path d="M140.877 81.1242H137.629V84.3717H140.877V81.1242Z" fill="#132C45"/>
<path d="M144.124 81.1242H140.877V84.3717H144.124V81.1242Z" fill="#132C45"/>
<path d="M147.372 81.1242H144.124V84.3717H147.372V81.1242Z" fill="#132C45"/>
<path d="M157.115 81.1242H153.867V84.3717H157.115V81.1242Z" fill="#132C45"/>
<path d="M82.4214 84.3719H79.1739V87.6194H82.4214V84.3719Z" fill="#132C45"/>
<path d="M88.9164 84.3719H85.6689V87.6194H88.9164V84.3719Z" fill="#132C45"/>
<path d="M92.1639 84.3719H88.9163V87.6194H92.1639V84.3719Z" fill="#132C45"/>
<path d="M95.4115 84.3719H92.1639V87.6194H95.4115V84.3719Z" fill="#132C45"/>
<path d="M101.907 84.3719H98.659V87.6194H101.907V84.3719Z" fill="#132C45"/>
<path d="M108.402 84.3719H105.154V87.6194H108.402V84.3719Z" fill="#132C45"/>
<path d="M118.144 84.3719H114.897V87.6194H118.144V84.3719Z" fill="#132C45"/>
<path d="M124.639 84.3719H121.392V87.6194H124.639V84.3719Z" fill="#132C45"/>
<path d="M127.887 84.3719H124.639V87.6194H127.887V84.3719Z" fill="#132C45"/>
<path d="M131.134 84.3719H127.887V87.6194H131.134V84.3719Z" fill="#132C45"/>
<path d="M137.629 84.3719H134.382V87.6194H137.629V84.3719Z" fill="#132C45"/>
<path d="M140.877 84.3719H137.629V87.6194H140.877V84.3719Z" fill="#132C45"/>
<path d="M157.115 84.3719H153.867V87.6194H157.115V84.3719Z" fill="#132C45"/>
<path d="M160.362 84.3719H157.115V87.6194H160.362V84.3719Z" fill="#132C45"/>
<path d="M82.4214 87.6196H79.1739V90.8671H82.4214V87.6196Z" fill="#132C45"/>
<path d="M88.9164 87.6196H85.6689V90.8671H88.9164V87.6196Z" fill="#132C45"/>
<path d="M92.1639 87.6196H88.9163V90.8671H92.1639V87.6196Z" fill="#132C45"/>
<path d="M95.4115 87.6196H92.1639V90.8671H95.4115V87.6196Z" fill="#132C45"/>
<path d="M101.907 87.6196H98.659V90.8671H101.907V87.6196Z" fill="#132C45"/>
<path d="M114.897 87.6196H111.649V90.8671H114.897V87.6196Z" fill="#132C45"/>
<path d="M118.144 87.6196H114.897V90.8671H118.144V87.6196Z" fill="#132C45"/>
<path d="M127.887 87.6196H124.639V90.8671H127.887V87.6196Z" fill="#132C45"/>
<path d="M131.134 87.6196H127.887V90.8671H131.134V87.6196Z" fill="#132C45"/>
<path d="M137.629 87.6196H134.382V90.8671H137.629V87.6196Z" fill="#132C45"/>
<path d="M147.372 87.6196H144.124V90.8671H147.372V87.6196Z" fill="#132C45"/>
<path d="M150.619 87.6196H147.372V90.8671H150.619V87.6196Z" fill="#132C45"/>
<path d="M153.867 87.6196H150.62V90.8671H153.867V87.6196Z" fill="#132C45"/>
<path d="M157.115 87.6196H153.867V90.8671H157.115V87.6196Z" fill="#132C45"/>
<path d="M160.362 87.6196H157.115V90.8671H160.362V87.6196Z" fill="#132C45"/>
<path d="M82.4214 90.8672H79.1739V94.1148H82.4214V90.8672Z" fill="#132C45"/>
<path d="M101.907 90.8672H98.659V94.1148H101.907V90.8672Z" fill="#132C45"/>
<path d="M108.402 90.8672H105.154V94.1148H108.402V90.8672Z" fill="#132C45"/>
<path d="M121.392 90.8672H118.144V94.1148H121.392V90.8672Z" fill="#132C45"/>
<path d="M127.887 90.8672H124.639V94.1148H127.887V90.8672Z" fill="#132C45"/>
<path d="M131.134 90.8672H127.887V94.1148H131.134V90.8672Z" fill="#132C45"/>
<path d="M137.629 90.8672H134.382V94.1148H137.629V90.8672Z" fill="#132C45"/>
<path d="M144.124 90.8672H140.877V94.1148H144.124V90.8672Z" fill="#132C45"/>
<path d="M147.372 90.8672H144.124V94.1148H147.372V90.8672Z" fill="#132C45"/>
<path d="M153.867 90.8672H150.62V94.1148H153.867V90.8672Z" fill="#132C45"/>
<path d="M157.115 90.8672H153.867V94.1148H157.115V90.8672Z" fill="#132C45"/>
<path d="M160.362 90.8672H157.115V94.1148H160.362V90.8672Z" fill="#132C45"/>
<path d="M82.4214 94.1146H79.1739V97.3621H82.4214V94.1146Z" fill="#132C45"/>
<path d="M85.6689 94.1146H82.4213V97.3621H85.6689V94.1146Z" fill="#132C45"/>
<path d="M88.9164 94.1146H85.6689V97.3621H88.9164V94.1146Z" fill="#132C45"/>
<path d="M92.1639 94.1146H88.9163V97.3621H92.1639V94.1146Z" fill="#132C45"/>
<path d="M95.4115 94.1146H92.1639V97.3621H95.4115V94.1146Z" fill="#132C45"/>
<path d="M98.659 94.1146H95.4115V97.3621H98.659V94.1146Z" fill="#132C45"/>
<path d="M101.907 94.1146H98.659V97.3621H101.907V94.1146Z" fill="#132C45"/>
<path d="M108.402 94.1146H105.154V97.3621H108.402V94.1146Z" fill="#132C45"/>
<path d="M114.897 94.1146H111.649V97.3621H114.897V94.1146Z" fill="#132C45"/>
<path d="M118.144 94.1146H114.897V97.3621H118.144V94.1146Z" fill="#132C45"/>
<path d="M134.382 94.1146H131.134V97.3621H134.382V94.1146Z" fill="#132C45"/>
<path d="M140.877 94.1146H137.629V97.3621H140.877V94.1146Z" fill="#132C45"/>
<path d="M150.619 94.1146H147.372V97.3621H150.619V94.1146Z" fill="#132C45"/>
<path d="M160.362 94.1146H157.115V97.3621H160.362V94.1146Z" fill="#132C45"/>
<path d="M7.37865 54.4698L9.81032 48.4944L11.1575 49.0426L8.72588 55.0181L7.37865 54.4698ZM10.0253 55.5468L11.8751 51.0011L12.9749 51.4487L12.8316 52.0633L12.8682 52.0783C13.1383 51.9745 13.4168 51.9027 13.7037 51.8628C13.9931 51.8167 14.2935 51.8571 14.6052 51.9839C15.1 52.1853 15.3916 52.4926 15.4798 52.906C15.5741 53.3218 15.5043 53.8169 15.2706 54.3912L14.1219 57.2139L12.7747 56.6657L13.8525 54.0171C13.9868 53.6872 14.033 53.4424 13.991 53.2829C13.9552 53.1259 13.8396 53.0077 13.6441 52.9281C13.473 52.8585 13.3102 52.8385 13.1557 52.8682C13.0036 52.8918 12.8257 52.944 12.6219 53.0249L11.3725 56.0951L10.0253 55.5468ZM16.5633 58.3356C16.2639 58.2138 15.9789 58.0302 15.7085 57.7848C15.4441 57.5419 15.2344 57.2785 15.0793 56.9946L16.0273 56.3976C16.1704 56.641 16.3205 56.841 16.4775 56.9975C16.6346 57.154 16.8109 57.272 17.0064 57.3516C17.2081 57.4336 17.3684 57.4597 17.4874 57.4298C17.6064 57.3999 17.6907 57.3238 17.7405 57.2016C17.7703 57.1283 17.7689 57.053 17.7363 56.9756C17.7123 56.8946 17.6644 56.811 17.5926 56.7248C17.527 56.6412 17.4466 56.5586 17.3516 56.4772C17.259 56.3897 17.1646 56.2978 17.0684 56.2017C16.9503 56.0896 16.8358 55.9682 16.7252 55.8377C16.6145 55.7072 16.5222 55.5664 16.4484 55.4153C16.3771 55.2581 16.3333 55.0943 16.3172 54.9239C16.3036 54.7474 16.3353 54.5645 16.4123 54.3751C16.4969 54.1674 16.6149 53.9911 16.7664 53.8462C16.9241 53.7038 17.1041 53.6026 17.3066 53.5426C17.5091 53.4825 17.7309 53.4624 17.9721 53.4822C18.2158 53.496 18.469 53.5563 18.7317 53.6632C19.08 53.8049 19.3606 53.9903 19.5736 54.2194C19.7891 54.4424 19.9648 54.667 20.1006 54.8932L19.1675 55.4536C19.0523 55.2642 18.9289 55.1037 18.7974 54.9718C18.6659 54.8399 18.5207 54.7417 18.3619 54.6771C18.0197 54.5378 17.8002 54.5873 17.7032 54.8256C17.6734 54.8989 17.6717 54.973 17.6982 55.0479C17.7272 55.1167 17.7727 55.1886 17.8347 55.2637C17.9028 55.3413 17.9801 55.4226 18.0666 55.5076C18.1617 55.589 18.2585 55.6748 18.3572 55.7648C18.4815 55.8794 18.5989 56.002 18.7096 56.1325C18.8289 56.2594 18.9255 56.3984 18.9993 56.5495C19.0792 56.7031 19.1248 56.8712 19.1359 57.0538C19.1496 57.2302 19.1141 57.4223 19.0296 57.6301C18.9451 57.8378 18.827 58.0141 18.6755 58.159C18.524 58.3038 18.3414 58.4112 18.1279 58.4809C17.9168 58.5446 17.679 58.5689 17.4145 58.5538C17.1525 58.5327 16.8687 58.4599 16.5633 58.3356ZM20.86 60.0841C20.5789 59.9698 20.355 59.8288 20.1881 59.6612C20.0274 59.4961 19.914 59.3111 19.8479 59.1061C19.7878 58.9036 19.7708 58.683 19.7967 58.4443C19.8312 58.202 19.9019 57.9495 20.0088 57.6867L20.7585 55.8446L20.1353 55.591L20.5418 54.5921L21.2607 54.8205L21.9088 53.6742L23.0269 54.1292L22.5346 55.3389L23.6252 55.7827L23.1963 56.8367L22.1057 56.3929L21.3635 58.2167C21.2591 58.4733 21.2352 58.6808 21.2918 58.8391C21.357 58.9938 21.4783 59.1073 21.6554 59.1794C21.7288 59.2092 21.8058 59.2299 21.8866 59.2414C21.9735 59.2554 22.0524 59.2626 22.1235 59.263L21.9352 60.3294C21.7981 60.3163 21.6396 60.2946 21.4597 60.2641C21.2798 60.2336 21.0799 60.1736 20.86 60.0841ZM23.5845 61.1929C23.3767 61.1083 23.2022 60.9946 23.061 60.8516C22.9234 60.7173 22.8214 60.5654 22.755 60.396C22.6912 60.2204 22.6592 60.0365 22.6591 59.8442C22.6651 59.6544 22.7079 59.4617 22.7875 59.2662C22.9814 58.7896 23.3347 58.4989 23.8474 58.3942C24.36 58.2895 25.0841 58.374 26.0195 58.6479C26.0894 58.4413 26.0929 58.2576 26.0302 58.0967C25.976 57.9323 25.8237 57.7991 25.5732 57.6971C25.3777 57.6176 25.1673 57.5746 24.9419 57.5684C24.7227 57.5646 24.477 57.5822 24.2048 57.621L24.0808 56.5343C24.4462 56.4765 24.8101 56.4572 25.1726 56.4765C25.5412 56.4983 25.9057 56.5826 26.2662 56.7293C26.8527 56.968 27.2304 57.3175 27.3991 57.7778C27.5764 58.2346 27.5221 58.8143 27.2362 59.5169L26.177 62.1197L25.0773 61.6721L25.1758 61.1674L25.1392 61.1525C24.874 61.244 24.6122 61.3013 24.3536 61.3242C24.0974 61.3411 23.8411 61.2973 23.5845 61.1929ZM24.4679 60.3345C24.6206 60.3967 24.7657 60.4166 24.903 60.3941C25.0403 60.3716 25.1949 60.3242 25.3669 60.2517L25.6913 59.4544C25.1874 59.3277 24.8177 59.2911 24.5822 59.3449C24.3467 59.3986 24.1929 59.514 24.1208 59.6912C24.0611 59.8379 24.0622 59.9665 24.124 60.0771C24.1944 60.1841 24.309 60.2699 24.4679 60.3345ZM28.5091 63.1969C28.2769 63.1024 28.0963 62.9862 27.9673 62.8482C27.8383 62.7103 27.751 62.5572 27.7055 62.3892C27.6685 62.2174 27.6659 62.0312 27.6978 61.8305C27.7321 61.6237 27.7965 61.4042 27.891 61.1721L29.931 56.1589L31.2782 56.7072L29.2158 61.7753C29.1586 61.9158 29.1433 62.0235 29.1698 62.0984C29.2024 62.1758 29.2462 62.2256 29.3012 62.248C29.3317 62.2604 29.3562 62.2704 29.3745 62.2778C29.3989 62.2878 29.432 62.2941 29.4736 62.2968L29.232 63.3629C29.1463 63.3636 29.0416 63.3495 28.9181 63.3206C28.7982 63.3003 28.6618 63.2591 28.5091 63.1969ZM31.1314 64.264C30.8993 64.1696 30.7187 64.0533 30.5896 63.9154C30.4606 63.7774 30.3733 63.6244 30.3278 63.4563C30.2909 63.2846 30.2883 63.0984 30.3201 62.8977C30.3544 62.6909 30.4188 62.4714 30.5133 62.2392L32.5534 57.2261L33.9006 57.7743L31.8381 62.8424C31.781 62.983 31.7656 63.0907 31.7921 63.1655C31.8247 63.2429 31.8685 63.2928 31.9235 63.3152C31.9541 63.3276 31.9785 63.3375 31.9968 63.345C32.0213 63.3549 32.0543 63.3613 32.0959 63.364L31.8544 64.43C31.7686 64.4308 31.664 64.4167 31.5404 64.3878C31.4205 64.3674 31.2842 64.3262 31.1314 64.264ZM33.6621 65.2939C33.4544 65.2094 33.2799 65.0956 33.1387 64.9527C33.0011 64.8183 32.8991 64.6665 32.8327 64.497C32.7688 64.3215 32.7369 64.1375 32.7368 63.9452C32.7428 63.7554 32.7856 63.5627 32.8652 63.3672C33.0591 62.8906 33.4124 62.6 33.9251 62.4953C34.4377 62.3905 35.1617 62.4751 36.0972 62.7489C36.167 62.5423 36.1706 62.3586 36.1078 62.1978C36.0537 62.0333 35.9014 61.9001 35.6509 61.7982C35.4554 61.7186 35.2449 61.6757 35.0196 61.6694C34.8003 61.6657 34.5546 61.6832 34.2825 61.722L34.1585 60.6354C34.5239 60.5775 34.8878 60.5582 35.2503 60.5776C35.6188 60.5994 35.9834 60.6836 36.3438 60.8303C36.9304 61.069 37.308 61.4185 37.4768 61.8789C37.6541 62.3356 37.5998 62.9153 37.3139 63.6179L36.2547 66.2207L35.1549 65.7732L35.2535 65.2685L35.2168 65.2536C34.9517 65.3451 34.6898 65.4023 34.4312 65.4253C34.1751 65.4421 33.9187 65.3983 33.6621 65.2939ZM34.5455 64.4356C34.6983 64.4977 34.8433 64.5176 34.9806 64.4951C35.118 64.4727 35.2726 64.4252 35.4445 64.3528L35.769 63.5554C35.2651 63.4287 34.8954 63.3922 34.6599 63.4459C34.4243 63.4996 34.2705 63.6151 34.1984 63.7923C34.1388 63.9389 34.1398 64.0675 34.2016 64.1781C34.272 64.2851 34.3867 64.3709 34.5455 64.4356ZM38.9389 67.4412C38.6578 67.3269 38.4339 67.1859 38.2671 67.0183C38.1064 66.8532 37.993 66.6682 37.9268 66.4632C37.8668 66.2607 37.8497 66.0401 37.8756 65.8014C37.9102 65.5591 37.9809 65.3066 38.0878 65.0438L38.8374 63.2017L38.2142 62.9481L38.6207 61.9492L39.3396 62.1776L39.9877 61.0313L41.1058 61.4863L40.6135 62.696L41.7041 63.1398L41.2752 64.1938L40.1846 63.75L39.4425 65.5738C39.338 65.8304 39.3141 66.0379 39.3708 66.1962C39.436 66.3509 39.5572 66.4644 39.7344 66.5365C39.8077 66.5663 39.8847 66.587 39.9655 66.5985C40.0524 66.6125 40.1314 66.6197 40.2024 66.6201L40.0141 67.6865C39.877 67.6734 39.7185 67.6517 39.5386 67.6212C39.3588 67.5907 39.1588 67.5307 38.9389 67.4412ZM40.7416 68.0466L42.5914 63.5009L43.9386 64.0491L42.0888 68.5949L40.7416 68.0466ZM43.5327 63.1041C43.3066 63.0121 43.1464 62.8721 43.052 62.6842C42.96 62.4901 42.9563 62.2892 43.0409 62.0814C43.1254 61.8737 43.2671 61.7355 43.4659 61.6669C43.6648 61.5982 43.8773 61.6099 44.1033 61.7019C44.3355 61.7964 44.4957 61.9364 44.584 62.1219C44.6785 62.3099 44.6834 62.5077 44.5989 62.7155C44.5143 62.9232 44.3714 63.0644 44.1701 63.1392C43.9773 63.2103 43.7649 63.1986 43.5327 63.1041ZM45.1817 69.9817C44.8946 69.8649 44.6377 69.6998 44.4111 69.4865C44.1871 69.2672 44.0122 69.0144 43.8865 68.7282C43.7669 68.4445 43.7057 68.1312 43.7029 67.7882C43.7025 67.4391 43.7794 67.0751 43.9335 66.6963C44.0877 66.3175 44.2855 66.0063 44.5271 65.7628C44.7711 65.5131 45.035 65.3285 45.3186 65.2089C45.6084 65.0919 45.9089 65.0361 46.22 65.0416C46.5336 65.041 46.8339 65.0992 47.1211 65.216C47.4083 65.3329 47.6608 65.4998 47.8788 65.7167C48.1054 65.9299 48.2784 66.1784 48.398 66.4621C48.5237 66.7482 48.5867 67.0659 48.5871 67.415C48.5899 67.758 48.5143 68.1189 48.3601 68.4977C48.206 68.8765 48.0069 69.1907 47.7629 69.4404C47.5213 69.6839 47.2556 69.8643 46.9659 69.9813C46.6822 70.1009 46.3836 70.161 46.07 70.1616C45.765 70.1585 45.4689 70.0986 45.1817 69.9817ZM45.6256 68.8911C45.9005 69.003 46.1555 68.9714 46.3905 68.7965C46.6255 68.6215 46.8238 68.3354 46.9854 67.9383C47.147 67.5411 47.2048 67.1979 47.1588 66.9085C47.1127 66.6192 46.9522 66.4185 46.6773 66.3066C46.3962 66.1923 46.1382 66.2226 45.9032 66.3976C45.6743 66.575 45.479 66.8623 45.3174 67.2595C45.1558 67.6566 45.095 67.9986 45.1349 68.2855C45.181 68.5749 45.3445 68.7767 45.6256 68.8911ZM48.358 71.1461L50.2078 66.6004L51.3076 67.0479L51.1643 67.6626L51.201 67.6775C51.4711 67.5738 51.7495 67.5019 52.0364 67.462C52.3258 67.4159 52.6263 67.4563 52.9379 67.5831C53.4328 67.7845 53.7243 68.0919 53.8125 68.5052C53.9068 68.921 53.837 69.4161 53.6033 69.9904L52.4546 72.8132L51.1074 72.2649L52.1852 69.6163C52.3195 69.2864 52.3657 69.0417 52.3238 68.8822C52.288 68.7252 52.1723 68.6069 51.9768 68.5273C51.8057 68.4577 51.6429 68.4378 51.4884 68.4675C51.3363 68.491 51.1584 68.5433 50.9546 68.6241L49.7052 71.6943L48.358 71.1461ZM6.63519 67.1228L8.05615 63.6311L7.45128 63.3849L7.8578 62.386L8.48132 62.5863L8.58202 62.3388C8.67898 62.1005 8.79847 61.8857 8.94048 61.6942C9.08861 61.5052 9.2622 61.3587 9.46126 61.2545C9.66032 61.1503 9.88542 61.096 10.1366 61.0913C10.3877 61.0867 10.666 61.1465 10.9715 61.2709C11.1609 61.3479 11.3245 61.4359 11.4624 61.5347C11.6063 61.636 11.7227 61.7261 11.8117 61.8051L11.1615 62.6942C11.0152 62.5634 10.8719 62.4695 10.7313 62.4123C10.5664 62.3452 10.4169 62.3449 10.283 62.4115C10.1516 62.4719 10.0386 62.6182 9.94415 62.8504L9.83227 63.1254L10.6479 63.4573L10.219 64.5112L9.40337 64.1793L7.98242 67.6711L6.63519 67.1228ZM9.52961 68.3007L11.3795 63.755L12.7267 64.3032L10.8768 68.8489L9.52961 68.3007ZM12.3208 63.3582C12.0947 63.2662 11.9344 63.1262 11.84 62.9382C11.7481 62.7442 11.7444 62.5432 11.8289 62.3355C11.9135 62.1278 12.0551 61.9896 12.254 61.921C12.4528 61.8523 12.6653 61.864 12.8914 61.956C13.1235 62.0505 13.2838 62.1905 13.3721 62.376C13.4665 62.5639 13.4715 62.7618 13.3869 62.9695C13.3024 63.1773 13.1595 63.3185 12.9581 63.3933C12.7654 63.4644 12.5529 63.4527 12.3208 63.3582ZM13.2549 69.9449C13.0228 69.8504 12.8422 69.7342 12.7132 69.5962C12.5841 69.4583 12.4969 69.3052 12.4513 69.1371C12.4144 68.9654 12.4118 68.7792 12.4436 68.5785C12.4779 68.3717 12.5423 68.1522 12.6368 67.9201L14.6769 62.9069L16.0241 63.4552L13.9616 68.5233C13.9045 68.6638 13.8891 68.7715 13.9156 68.8464C13.9482 68.9238 13.992 68.9736 14.047 68.996C14.0776 69.0084 14.102 69.0184 14.1203 69.0258C14.1448 69.0358 14.1778 69.0421 14.2194 69.0448L13.9779 70.1109C13.8921 70.1116 13.7875 70.0975 13.6639 70.0686C13.544 70.0483 13.4077 70.0071 13.2549 69.9449ZM16.6746 71.3365C16.3508 71.2047 16.0695 71.0297 15.8307 70.8115C15.5944 70.5871 15.4134 70.3319 15.2877 70.0457C15.1645 69.7534 15.1046 69.4371 15.1078 69.0965C15.1111 68.756 15.1898 68.3964 15.3439 68.0176C15.4931 67.651 15.6885 67.3459 15.93 67.1023C16.1741 66.8527 16.4349 66.6668 16.7124 66.5448C16.9986 66.4191 17.2923 66.3535 17.5937 66.3479C17.8951 66.3424 18.1832 66.3955 18.4582 66.5074C18.782 66.6392 19.0407 66.8086 19.2342 67.0155C19.4338 67.2249 19.5733 67.4597 19.6526 67.7199C19.738 67.9825 19.7657 68.2644 19.7358 68.5656C19.7083 68.8606 19.6311 69.164 19.5043 69.4756C19.4546 69.5978 19.4012 69.7114 19.3443 69.8164C19.2873 69.9214 19.2415 69.9989 19.2069 70.0489L16.485 68.9412C16.4118 69.296 16.4468 69.5951 16.5899 69.8385C16.7415 70.0783 16.9701 70.2603 17.2756 70.3846C17.5994 70.5164 17.9673 70.5486 18.3793 70.4813L18.4965 71.4797C18.1997 71.5441 17.889 71.5636 17.5646 71.5384C17.2462 71.5157 16.9496 71.4484 16.6746 71.3365ZM16.8376 68.0485L18.4781 68.7161C18.5825 68.4595 18.609 68.2281 18.5575 68.022C18.5061 67.8159 18.3429 67.657 18.068 67.5451C17.8541 67.458 17.6361 67.4512 17.414 67.5246C17.1979 67.6005 17.0058 67.7751 16.8376 68.0485ZM21.8693 75.2344C21.7405 74.4485 21.7072 73.6729 21.7693 72.9077C21.8376 72.145 22.0358 71.3603 22.364 70.5538C22.6922 69.7473 23.0981 69.0473 23.5819 68.4536C24.0717 67.8624 24.6371 67.3305 25.2781 66.8578L25.9796 67.5492C25.3999 68.0112 24.9006 68.538 24.4818 69.1296C24.0631 69.7212 23.7206 70.3439 23.4546 70.9977C23.1886 71.6514 22.9989 72.3362 22.8856 73.0522C22.7723 73.7681 22.7618 74.4938 22.8542 75.2293L21.8693 75.2344ZM25.1477 74.7846C24.9155 74.6901 24.7523 74.5311 24.6581 74.3076C24.5725 74.0805 24.5781 73.8478 24.6751 73.6095C24.7746 73.3651 24.933 73.1945 25.1504 73.0978C25.3764 72.9975 25.6055 72.9946 25.8376 73.0891C26.0698 73.1836 26.2287 73.3444 26.3143 73.5715C26.4085 73.795 26.4059 74.0289 26.3064 74.2733C26.2095 74.5116 26.048 74.6809 25.822 74.7812C25.6046 74.8779 25.3798 74.879 25.1477 74.7846ZM28.2619 76.0519C28.0542 75.9673 27.8797 75.8536 27.7384 75.7107C27.6008 75.5763 27.4988 75.4244 27.4325 75.255C27.3686 75.0794 27.3366 74.8955 27.3365 74.7032C27.3426 74.5134 27.3854 74.3207 27.4649 74.1252C27.6589 73.6486 28.0122 73.358 28.5248 73.2532C29.0375 73.1485 29.7615 73.2331 30.697 73.5069C30.7668 73.3003 30.7703 73.1166 30.7076 72.9557C30.6535 72.7913 30.5011 72.6581 30.2506 72.5561C30.0551 72.4766 29.8447 72.4337 29.6193 72.4274C29.4001 72.4237 29.1544 72.4412 28.8822 72.48L28.7583 71.3933C29.1236 71.3355 29.4875 71.3162 29.85 71.3355C30.2186 71.3573 30.5831 71.4416 30.9436 71.5883C31.5301 71.827 31.9078 72.1765 32.0765 72.6369C32.2539 73.0936 32.1996 73.6733 31.9136 74.3759L30.8545 76.9787L29.7547 76.5312L29.8532 76.0265L29.8166 76.0115C29.5514 76.1031 29.2896 76.1603 29.031 76.1832C28.7749 76.2001 28.5185 76.1563 28.2619 76.0519ZM29.1453 75.1936C29.298 75.2557 29.4431 75.2756 29.5804 75.2531C29.7177 75.2307 29.8724 75.1832 30.0443 75.1107L30.3688 74.3134C29.8648 74.1867 29.4951 74.1502 29.2596 74.2039C29.0241 74.2576 28.8703 74.3731 28.7982 74.5502C28.7385 74.6969 28.7396 74.8255 28.8014 74.9361C28.8718 75.0431 28.9864 75.1289 29.1453 75.1936ZM31.3078 79.1288L33.8439 72.8967L34.9437 73.3443L34.8526 73.8306L34.8892 73.8456C35.131 73.7588 35.3831 73.7083 35.6453 73.6939C35.9161 73.6759 36.1707 73.7154 36.409 73.8124C36.6839 73.9243 36.909 74.0799 37.0842 74.2794C37.2594 74.4789 37.3823 74.7106 37.453 74.9743C37.5237 75.2381 37.5403 75.5298 37.5029 75.8492C37.4741 76.1651 37.3888 76.4972 37.2471 76.8454C37.0879 77.2365 36.8912 77.5623 36.6569 77.8231C36.4312 78.0802 36.1832 78.2784 35.9129 78.4176C35.6512 78.5533 35.3819 78.6288 35.1049 78.6443C34.8341 78.6623 34.5765 78.6216 34.3321 78.5221C34.1366 78.4425 33.9634 78.3258 33.8124 78.1717C33.6639 78.0116 33.5413 77.8228 33.4446 77.6055L33.1958 78.3481L32.655 79.677L31.3078 79.1288ZM34.4681 77.2955C34.7002 77.39 34.9411 77.367 35.1906 77.2264C35.4426 77.0796 35.6643 76.7711 35.8557 76.3006C36.1889 75.4819 36.0928 74.9656 35.5673 74.7518C35.3046 74.6449 34.989 74.6767 34.6205 74.8472L33.8634 76.7076C33.9408 76.8673 34.032 76.9934 34.1367 77.0859C34.2415 77.1784 34.352 77.2483 34.4681 77.2955ZM37.2477 79.5804L39.8621 73.1559L41.1726 73.6892L39.6734 77.3734L39.71 77.3884L41.8836 76.1684L43.35 76.7652L40.9945 77.9858L41.6193 81.3594L40.1621 80.7664L39.8554 78.5799L39.0132 78.9956L38.5582 80.1137L37.2477 79.5804ZM42.2884 83.5438L41.5869 82.8524C42.1727 82.3929 42.675 81.8674 43.0938 81.2758C43.5126 80.6842 43.855 80.0615 44.1211 79.4077C44.3871 78.754 44.5768 78.0692 44.6901 77.3532C44.8034 76.6373 44.8108 75.9104 44.7123 75.1724L45.6972 75.1672C45.826 75.9532 45.8563 76.7275 45.788 77.4903C45.7259 78.2555 45.5307 79.0413 45.2025 79.8478C44.8743 80.6543 44.4653 81.3532 43.9755 81.9443C43.4918 82.538 42.9294 83.0712 42.2884 83.5438Z" fill="#132C45"/>
<path d="M57.8327 43.5348C57.4823 42.8469 57.7544 42.0083 58.4449 41.6653C59.1302 41.325 59.9644 41.605 60.3134 42.2875L62.6017 46.7673C62.9447 47.4672 62.6765 48.2883 62.0001 48.6314L57.4486 50.938C57.298 51.0136 57.1368 51.061 56.9714 51.0786C56.403 51.1392 55.8471 50.8463 55.5773 50.33C55.2202 49.6451 55.4858 48.8032 56.1739 48.4545L57.8219 47.6198C54.9845 46.5092 52.4275 46.1369 50.1124 46.3827C47.7594 46.6339 45.779 47.5072 44.1298 48.8032C43.1195 49.5976 42.4247 50.3928 42.0522 50.9562L42.0886 50.9048C41.8604 51.2621 41.4848 51.4891 41.071 51.5332C40.7553 51.5668 40.435 51.4927 40.1634 51.3171C39.5175 50.9009 39.3235 50.0415 39.7397 49.3914C39.7657 49.3513 39.7992 49.3013 39.8495 49.23C40.3772 48.4819 41.1671 47.6063 42.2375 46.7389C44.2907 45.0751 46.8164 43.9339 49.7942 43.6175C52.4757 43.3301 55.4013 43.7378 58.5429 44.9255L57.8327 43.5348Z" fill="#132C45"/>
<circle cx="172.013" cy="10" r="9" fill="#50E3C2"/>
<path d="M174.875 8.43683L172.698 10.6137V5.5H171.685V10.6137L169.508 8.43683L168.799 9.14552L172.192 12.538L175.584 9.14552L174.875 8.43683Z" fill="white"/>
<path d="M169.407 13.6013H174.976V14.6138H169.407V13.6013Z" fill="white"/>
</svg>
