<svg width="240" height="110" viewBox="0 0 240 110" fill="none" xmlns="http://www.w3.org/2000/svg">
<rect width="240" height="110" fill="white"/>
<rect x="69" y="7.11353" width="102" height="99.7727" rx="6.06509" fill="#50E3C2" stroke="#132C45" stroke-width="4"/>
<path d="M83.9182 17.7998H80.8V20.918H83.9182V17.7998Z" fill="#132C45"/>
<path d="M87.0363 17.7998H83.9182V20.918H87.0363V17.7998Z" fill="#132C45"/>
<path d="M90.1546 17.7998H87.0364V20.918H90.1546V17.7998Z" fill="#132C45"/>
<path d="M93.2727 17.7998H90.1545V20.918H93.2727V17.7998Z" fill="#132C45"/>
<path d="M96.3909 17.7998H93.2727V20.918H96.3909V17.7998Z" fill="#132C45"/>
<path d="M99.5091 17.7998H96.3909V20.918H99.5091V17.7998Z" fill="#132C45"/>
<path d="M102.627 17.7998H99.5091V20.918H102.627V17.7998Z" fill="#132C45"/>
<path d="M108.864 17.7998H105.745V20.918H108.864V17.7998Z" fill="#132C45"/>
<path d="M115.1 17.7998H111.982V20.918H115.1V17.7998Z" fill="#132C45"/>
<path d="M127.573 17.7998H124.455V20.918H127.573V17.7998Z" fill="#132C45"/>
<path d="M140.045 17.7998H136.927V20.918H140.045V17.7998Z" fill="#132C45"/>
<path d="M143.164 17.7998H140.045V20.918H143.164V17.7998Z" fill="#132C45"/>
<path d="M146.282 17.7998H143.164V20.918H146.282V17.7998Z" fill="#132C45"/>
<path d="M149.4 17.7998H146.282V20.918H149.4V17.7998Z" fill="#132C45"/>
<path d="M152.518 17.7998H149.4V20.918H152.518V17.7998Z" fill="#132C45"/>
<path d="M155.636 17.7998H152.518V20.918H155.636V17.7998Z" fill="#132C45"/>
<path d="M158.755 17.7998H155.636V20.918H158.755V17.7998Z" fill="#132C45"/>
<path d="M83.9182 20.918H80.8V24.0362H83.9182V20.918Z" fill="#132C45"/>
<path d="M102.627 20.918H99.5091V24.0362H102.627V20.918Z" fill="#132C45"/>
<path d="M111.982 20.918H108.864V24.0362H111.982V20.918Z" fill="#132C45"/>
<path d="M121.336 20.918H118.218V24.0362H121.336V20.918Z" fill="#132C45"/>
<path d="M124.454 20.918H121.336V24.0362H124.454V20.918Z" fill="#132C45"/>
<path d="M127.573 20.918H124.455V24.0362H127.573V20.918Z" fill="#132C45"/>
<path d="M133.809 20.918H130.691V24.0362H133.809V20.918Z" fill="#132C45"/>
<path d="M140.045 20.918H136.927V24.0362H140.045V20.918Z" fill="#132C45"/>
<path d="M158.755 20.918H155.636V24.0362H158.755V20.918Z" fill="#132C45"/>
<path d="M83.9182 24.0361H80.8V27.1543H83.9182V24.0361Z" fill="#132C45"/>
<path d="M90.1546 24.0361H87.0364V27.1543H90.1546V24.0361Z" fill="#132C45"/>
<path d="M93.2727 24.0361H90.1545V27.1543H93.2727V24.0361Z" fill="#132C45"/>
<path d="M96.3909 24.0361H93.2727V27.1543H96.3909V24.0361Z" fill="#132C45"/>
<path d="M102.627 24.0361H99.5091V27.1543H102.627V24.0361Z" fill="#132C45"/>
<path d="M111.982 24.0361H108.864V27.1543H111.982V24.0361Z" fill="#132C45"/>
<path d="M121.336 24.0361H118.218V27.1543H121.336V24.0361Z" fill="#132C45"/>
<path d="M124.454 24.0361H121.336V27.1543H124.454V24.0361Z" fill="#132C45"/>
<path d="M133.809 24.0361H130.691V27.1543H133.809V24.0361Z" fill="#132C45"/>
<path d="M140.045 24.0361H136.927V27.1543H140.045V24.0361Z" fill="#132C45"/>
<path d="M146.282 24.0361H143.164V27.1543H146.282V24.0361Z" fill="#132C45"/>
<path d="M149.4 24.0361H146.282V27.1543H149.4V24.0361Z" fill="#132C45"/>
<path d="M152.518 24.0361H149.4V27.1543H152.518V24.0361Z" fill="#132C45"/>
<path d="M158.755 24.0361H155.636V27.1543H158.755V24.0361Z" fill="#132C45"/>
<path d="M83.9182 27.1543H80.8V30.2725H83.9182V27.1543Z" fill="#132C45"/>
<path d="M90.1546 27.1543H87.0364V30.2725H90.1546V27.1543Z" fill="#132C45"/>
<path d="M93.2727 27.1543H90.1545V30.2725H93.2727V27.1543Z" fill="#132C45"/>
<path d="M96.3909 27.1543H93.2727V30.2725H96.3909V27.1543Z" fill="#132C45"/>
<path d="M102.627 27.1543H99.5091V30.2725H102.627V27.1543Z" fill="#132C45"/>
<path d="M115.1 27.1543H111.982V30.2725H115.1V27.1543Z" fill="#132C45"/>
<path d="M124.454 27.1543H121.336V30.2725H124.454V27.1543Z" fill="#132C45"/>
<path d="M127.573 27.1543H124.455V30.2725H127.573V27.1543Z" fill="#132C45"/>
<path d="M133.809 27.1543H130.691V30.2725H133.809V27.1543Z" fill="#132C45"/>
<path d="M140.045 27.1543H136.927V30.2725H140.045V27.1543Z" fill="#132C45"/>
<path d="M146.282 27.1543H143.164V30.2725H146.282V27.1543Z" fill="#132C45"/>
<path d="M149.4 27.1543H146.282V30.2725H149.4V27.1543Z" fill="#132C45"/>
<path d="M152.518 27.1543H149.4V30.2725H152.518V27.1543Z" fill="#132C45"/>
<path d="M158.755 27.1543H155.636V30.2725H158.755V27.1543Z" fill="#132C45"/>
<path d="M83.9182 30.2725H80.8V33.3906H83.9182V30.2725Z" fill="#132C45"/>
<path d="M90.1546 30.2725H87.0364V33.3906H90.1546V30.2725Z" fill="#132C45"/>
<path d="M93.2727 30.2725H90.1545V33.3906H93.2727V30.2725Z" fill="#132C45"/>
<path d="M96.3909 30.2725H93.2727V33.3906H96.3909V30.2725Z" fill="#132C45"/>
<path d="M102.627 30.2725H99.5091V33.3906H102.627V30.2725Z" fill="#132C45"/>
<path d="M124.454 30.2725H121.336V33.3906H124.454V30.2725Z" fill="#132C45"/>
<path d="M127.573 30.2725H124.455V33.3906H127.573V30.2725Z" fill="#132C45"/>
<path d="M133.809 30.2725H130.691V33.3906H133.809V30.2725Z" fill="#132C45"/>
<path d="M140.045 30.2725H136.927V33.3906H140.045V30.2725Z" fill="#132C45"/>
<path d="M146.282 30.2725H143.164V33.3906H146.282V30.2725Z" fill="#132C45"/>
<path d="M149.4 30.2725H146.282V33.3906H149.4V30.2725Z" fill="#132C45"/>
<path d="M152.518 30.2725H149.4V33.3906H152.518V30.2725Z" fill="#132C45"/>
<path d="M158.755 30.2725H155.636V33.3906H158.755V30.2725Z" fill="#132C45"/>
<path d="M83.9182 33.3906H80.8V36.5088H83.9182V33.3906Z" fill="#132C45"/>
<path d="M102.627 33.3906H99.5091V36.5088H102.627V33.3906Z" fill="#132C45"/>
<path d="M111.982 33.3906H108.864V36.5088H111.982V33.3906Z" fill="#132C45"/>
<path d="M118.218 33.3906H115.1V36.5088H118.218V33.3906Z" fill="#132C45"/>
<path d="M124.454 33.3906H121.336V36.5088H124.454V33.3906Z" fill="#132C45"/>
<path d="M127.573 33.3906H124.455V36.5088H127.573V33.3906Z" fill="#132C45"/>
<path d="M133.809 33.3906H130.691V36.5088H133.809V33.3906Z" fill="#132C45"/>
<path d="M140.045 33.3906H136.927V36.5088H140.045V33.3906Z" fill="#132C45"/>
<path d="M158.755 33.3906H155.636V36.5088H158.755V33.3906Z" fill="#132C45"/>
<path d="M83.9182 36.509H80.8V39.6272H83.9182V36.509Z" fill="#132C45"/>
<path d="M87.0363 36.509H83.9182V39.6272H87.0363V36.509Z" fill="#132C45"/>
<path d="M90.1546 36.509H87.0364V39.6272H90.1546V36.509Z" fill="#132C45"/>
<path d="M93.2727 36.509H90.1545V39.6272H93.2727V36.509Z" fill="#132C45"/>
<path d="M96.3909 36.509H93.2727V39.6272H96.3909V36.509Z" fill="#132C45"/>
<path d="M99.5091 36.509H96.3909V39.6272H99.5091V36.509Z" fill="#132C45"/>
<path d="M102.627 36.509H99.5091V39.6272H102.627V36.509Z" fill="#132C45"/>
<path d="M108.864 36.509H105.745V39.6272H108.864V36.509Z" fill="#132C45"/>
<path d="M115.1 36.509H111.982V39.6272H115.1V36.509Z" fill="#132C45"/>
<path d="M121.336 36.509H118.218V39.6272H121.336V36.509Z" fill="#132C45"/>
<path d="M127.573 36.509H124.455V39.6272H127.573V36.509Z" fill="#132C45"/>
<path d="M133.809 36.509H130.691V39.6272H133.809V36.509Z" fill="#132C45"/>
<path d="M140.045 36.509H136.927V39.6272H140.045V36.509Z" fill="#132C45"/>
<path d="M143.164 36.509H140.045V39.6272H143.164V36.509Z" fill="#132C45"/>
<path d="M146.282 36.509H143.164V39.6272H146.282V36.509Z" fill="#132C45"/>
<path d="M149.4 36.509H146.282V39.6272H149.4V36.509Z" fill="#132C45"/>
<path d="M152.518 36.509H149.4V39.6272H152.518V36.509Z" fill="#132C45"/>
<path d="M155.636 36.509H152.518V39.6272H155.636V36.509Z" fill="#132C45"/>
<path d="M158.755 36.509H155.636V39.6272H158.755V36.509Z" fill="#132C45"/>
<path d="M108.864 39.627H105.745V42.7451H108.864V39.627Z" fill="#132C45"/>
<path d="M111.982 39.627H108.864V42.7451H111.982V39.627Z" fill="#132C45"/>
<path d="M121.336 39.627H118.218V42.7451H121.336V39.627Z" fill="#132C45"/>
<path d="M124.454 39.627H121.336V42.7451H124.454V39.627Z" fill="#132C45"/>
<path d="M130.691 39.627H127.573V42.7451H130.691V39.627Z" fill="#132C45"/>
<path d="M133.809 39.627H130.691V42.7451H133.809V39.627Z" fill="#132C45"/>
<path d="M83.9182 42.7454H80.8V45.8635H83.9182V42.7454Z" fill="#132C45"/>
<path d="M87.0363 42.7454H83.9182V45.8635H87.0363V42.7454Z" fill="#132C45"/>
<path d="M93.2727 42.7454H90.1545V45.8635H93.2727V42.7454Z" fill="#132C45"/>
<path d="M96.3909 42.7454H93.2727V45.8635H96.3909V42.7454Z" fill="#132C45"/>
<path d="M102.627 42.7454H99.5091V45.8635H102.627V42.7454Z" fill="#132C45"/>
<path d="M111.982 42.7454H108.864V45.8635H111.982V42.7454Z" fill="#132C45"/>
<path d="M121.336 42.7454H118.218V45.8635H121.336V42.7454Z" fill="#132C45"/>
<path d="M127.573 42.7454H124.455V45.8635H127.573V42.7454Z" fill="#132C45"/>
<path d="M133.809 42.7454H130.691V45.8635H133.809V42.7454Z" fill="#132C45"/>
<path d="M140.045 42.7454H136.927V45.8635H140.045V42.7454Z" fill="#132C45"/>
<path d="M158.755 42.7454H155.636V45.8635H158.755V42.7454Z" fill="#132C45"/>
<path d="M87.0363 45.8635H83.9182V48.9817H87.0363V45.8635Z" fill="#132C45"/>
<path d="M90.1546 45.8635H87.0364V48.9817H90.1546V45.8635Z" fill="#132C45"/>
<path d="M93.2727 45.8635H90.1545V48.9817H93.2727V45.8635Z" fill="#132C45"/>
<path d="M105.745 45.8635H102.627V48.9817H105.745V45.8635Z" fill="#132C45"/>
<path d="M115.1 45.8635H111.982V48.9817H115.1V45.8635Z" fill="#132C45"/>
<path d="M118.218 45.8635H115.1V48.9817H118.218V45.8635Z" fill="#132C45"/>
<path d="M130.691 45.8635H127.573V48.9817H130.691V45.8635Z" fill="#132C45"/>
<path d="M133.809 45.8635H130.691V48.9817H133.809V45.8635Z" fill="#132C45"/>
<path d="M143.164 45.8635H140.045V48.9817H143.164V45.8635Z" fill="#132C45"/>
<path d="M146.282 45.8635H143.164V48.9817H146.282V45.8635Z" fill="#132C45"/>
<path d="M149.4 45.8635H146.282V48.9817H149.4V45.8635Z" fill="#132C45"/>
<path d="M152.518 45.8635H149.4V48.9817H152.518V45.8635Z" fill="#132C45"/>
<path d="M155.636 45.8635H152.518V48.9817H155.636V45.8635Z" fill="#132C45"/>
<path d="M87.0363 48.9814H83.9182V52.0996H87.0363V48.9814Z" fill="#132C45"/>
<path d="M93.2727 48.9814H90.1545V52.0996H93.2727V48.9814Z" fill="#132C45"/>
<path d="M96.3909 48.9814H93.2727V52.0996H96.3909V48.9814Z" fill="#132C45"/>
<path d="M102.627 48.9814H99.5091V52.0996H102.627V48.9814Z" fill="#132C45"/>
<path d="M108.864 48.9814H105.745V52.0996H108.864V48.9814Z" fill="#132C45"/>
<path d="M111.982 48.9814H108.864V52.0996H111.982V48.9814Z" fill="#132C45"/>
<path d="M118.218 48.9814H115.1V52.0996H118.218V48.9814Z" fill="#132C45"/>
<path d="M121.336 48.9814H118.218V52.0996H121.336V48.9814Z" fill="#132C45"/>
<path d="M124.454 48.9814H121.336V52.0996H124.454V48.9814Z" fill="#132C45"/>
<path d="M127.573 48.9814H124.455V52.0996H127.573V48.9814Z" fill="#132C45"/>
<path d="M130.691 48.9814H127.573V52.0996H130.691V48.9814Z" fill="#132C45"/>
<path d="M140.045 48.9814H136.927V52.0996H140.045V48.9814Z" fill="#132C45"/>
<path d="M149.4 48.9814H146.282V52.0996H149.4V48.9814Z" fill="#132C45"/>
<path d="M158.755 48.9814H155.636V52.0996H158.755V48.9814Z" fill="#132C45"/>
<path d="M83.9182 52.0999H80.8V55.218H83.9182V52.0999Z" fill="#132C45"/>
<path d="M87.0363 52.0999H83.9182V55.218H87.0363V52.0999Z" fill="#132C45"/>
<path d="M90.1546 52.0999H87.0364V55.218H90.1546V52.0999Z" fill="#132C45"/>
<path d="M105.745 52.0999H102.627V55.218H105.745V52.0999Z" fill="#132C45"/>
<path d="M108.864 52.0999H105.745V55.218H108.864V52.0999Z" fill="#132C45"/>
<path d="M140.045 52.0999H136.927V55.218H140.045V52.0999Z" fill="#132C45"/>
<path d="M149.4 52.0999H146.282V55.218H149.4V52.0999Z" fill="#132C45"/>
<path d="M152.518 52.0999H149.4V55.218H152.518V52.0999Z" fill="#132C45"/>
<path d="M155.636 52.0999H152.518V55.218H155.636V52.0999Z" fill="#132C45"/>
<path d="M158.755 52.0999H155.636V55.218H158.755V52.0999Z" fill="#132C45"/>
<path d="M83.9182 55.2178H80.8V58.336H83.9182V55.2178Z" fill="#132C45"/>
<path d="M87.0363 55.2178H83.9182V58.336H87.0363V55.2178Z" fill="#132C45"/>
<path d="M90.1546 55.2178H87.0364V58.336H90.1546V55.2178Z" fill="#132C45"/>
<path d="M93.2727 55.2178H90.1545V58.336H93.2727V55.2178Z" fill="#132C45"/>
<path d="M96.3909 55.2178H93.2727V58.336H96.3909V55.2178Z" fill="#132C45"/>
<path d="M99.5091 55.2178H96.3909V58.336H99.5091V55.2178Z" fill="#132C45"/>
<path d="M102.627 55.2178H99.5091V58.336H102.627V55.2178Z" fill="#132C45"/>
<path d="M108.864 55.2178H105.745V58.336H108.864V55.2178Z" fill="#132C45"/>
<path d="M111.982 55.2178H108.864V58.336H111.982V55.2178Z" fill="#132C45"/>
<path d="M115.1 55.2178H111.982V58.336H115.1V55.2178Z" fill="#132C45"/>
<path d="M121.336 55.2178H118.218V58.336H121.336V55.2178Z" fill="#132C45"/>
<path d="M130.691 55.2178H127.573V58.336H130.691V55.2178Z" fill="#132C45"/>
<path d="M140.045 55.2178H136.927V58.336H140.045V55.2178Z" fill="#132C45"/>
<path d="M158.755 55.2178H155.636V58.336H158.755V55.2178Z" fill="#132C45"/>
<path d="M83.9182 58.3362H80.8V61.4544H83.9182V58.3362Z" fill="#132C45"/>
<path d="M87.0363 58.3362H83.9182V61.4544H87.0363V58.3362Z" fill="#132C45"/>
<path d="M90.1546 58.3362H87.0364V61.4544H90.1546V58.3362Z" fill="#132C45"/>
<path d="M93.2727 58.3362H90.1545V61.4544H93.2727V58.3362Z" fill="#132C45"/>
<path d="M105.745 58.3362H102.627V61.4544H105.745V58.3362Z" fill="#132C45"/>
<path d="M108.864 58.3362H105.745V61.4544H108.864V58.3362Z" fill="#132C45"/>
<path d="M111.982 58.3362H108.864V61.4544H111.982V58.3362Z" fill="#132C45"/>
<path d="M115.1 58.3362H111.982V61.4544H115.1V58.3362Z" fill="#132C45"/>
<path d="M118.218 58.3362H115.1V61.4544H118.218V58.3362Z" fill="#132C45"/>
<path d="M121.336 58.3362H118.218V61.4544H121.336V58.3362Z" fill="#132C45"/>
<path d="M124.454 58.3362H121.336V61.4544H124.454V58.3362Z" fill="#132C45"/>
<path d="M127.573 58.3362H124.455V61.4544H127.573V58.3362Z" fill="#132C45"/>
<path d="M130.691 58.3362H127.573V61.4544H130.691V58.3362Z" fill="#132C45"/>
<path d="M133.809 58.3362H130.691V61.4544H133.809V58.3362Z" fill="#132C45"/>
<path d="M136.927 58.3362H133.809V61.4544H136.927V58.3362Z" fill="#132C45"/>
<path d="M146.282 58.3362H143.164V61.4544H146.282V58.3362Z" fill="#132C45"/>
<path d="M155.636 58.3362H152.518V61.4544H155.636V58.3362Z" fill="#132C45"/>
<path d="M83.9182 61.4543H80.8V64.5725H83.9182V61.4543Z" fill="#132C45"/>
<path d="M87.0363 61.4543H83.9182V64.5725H87.0363V61.4543Z" fill="#132C45"/>
<path d="M93.2727 61.4543H90.1545V64.5725H93.2727V61.4543Z" fill="#132C45"/>
<path d="M102.627 61.4543H99.5091V64.5725H102.627V61.4543Z" fill="#132C45"/>
<path d="M105.745 61.4543H102.627V64.5725H105.745V61.4543Z" fill="#132C45"/>
<path d="M121.336 61.4543H118.218V64.5725H121.336V61.4543Z" fill="#132C45"/>
<path d="M124.454 61.4543H121.336V64.5725H124.454V61.4543Z" fill="#132C45"/>
<path d="M127.573 61.4543H124.455V64.5725H127.573V61.4543Z" fill="#132C45"/>
<path d="M130.691 61.4543H127.573V64.5725H130.691V61.4543Z" fill="#132C45"/>
<path d="M136.927 61.4543H133.809V64.5725H136.927V61.4543Z" fill="#132C45"/>
<path d="M140.045 61.4543H136.927V64.5725H140.045V61.4543Z" fill="#132C45"/>
<path d="M146.282 61.4543H143.164V64.5725H146.282V61.4543Z" fill="#132C45"/>
<path d="M149.4 61.4543H146.282V64.5725H149.4V61.4543Z" fill="#132C45"/>
<path d="M152.518 61.4543H149.4V64.5725H152.518V61.4543Z" fill="#132C45"/>
<path d="M155.636 61.4543H152.518V64.5725H155.636V61.4543Z" fill="#132C45"/>
<path d="M158.755 61.4543H155.636V64.5725H158.755V61.4543Z" fill="#132C45"/>
<path d="M83.9182 64.5725H80.8V67.6907H83.9182V64.5725Z" fill="#132C45"/>
<path d="M93.2727 64.5725H90.1545V67.6907H93.2727V64.5725Z" fill="#132C45"/>
<path d="M96.3909 64.5725H93.2727V67.6907H96.3909V64.5725Z" fill="#132C45"/>
<path d="M105.745 64.5725H102.627V67.6907H105.745V64.5725Z" fill="#132C45"/>
<path d="M108.864 64.5725H105.745V67.6907H108.864V64.5725Z" fill="#132C45"/>
<path d="M115.1 64.5725H111.982V67.6907H115.1V64.5725Z" fill="#132C45"/>
<path d="M133.809 64.5725H130.691V67.6907H133.809V64.5725Z" fill="#132C45"/>
<path d="M143.164 64.5725H140.045V67.6907H143.164V64.5725Z" fill="#132C45"/>
<path d="M149.4 64.5725H146.282V67.6907H149.4V64.5725Z" fill="#132C45"/>
<path d="M152.518 64.5725H149.4V67.6907H152.518V64.5725Z" fill="#132C45"/>
<path d="M158.755 64.5725H155.636V67.6907H158.755V64.5725Z" fill="#132C45"/>
<path d="M83.9182 67.6909H80.8V70.8091H83.9182V67.6909Z" fill="#132C45"/>
<path d="M90.1546 67.6909H87.0364V70.8091H90.1546V67.6909Z" fill="#132C45"/>
<path d="M93.2727 67.6909H90.1545V70.8091H93.2727V67.6909Z" fill="#132C45"/>
<path d="M99.5091 67.6909H96.3909V70.8091H99.5091V67.6909Z" fill="#132C45"/>
<path d="M102.627 67.6909H99.5091V70.8091H102.627V67.6909Z" fill="#132C45"/>
<path d="M108.864 67.6909H105.745V70.8091H108.864V67.6909Z" fill="#132C45"/>
<path d="M111.982 67.6909H108.864V70.8091H111.982V67.6909Z" fill="#132C45"/>
<path d="M118.218 67.6909H115.1V70.8091H118.218V67.6909Z" fill="#132C45"/>
<path d="M124.454 67.6909H121.336V70.8091H124.454V67.6909Z" fill="#132C45"/>
<path d="M133.809 67.6909H130.691V70.8091H133.809V67.6909Z" fill="#132C45"/>
<path d="M136.927 67.6909H133.809V70.8091H136.927V67.6909Z" fill="#132C45"/>
<path d="M140.045 67.6909H136.927V70.8091H140.045V67.6909Z" fill="#132C45"/>
<path d="M143.164 67.6909H140.045V70.8091H143.164V67.6909Z" fill="#132C45"/>
<path d="M146.282 67.6909H143.164V70.8091H146.282V67.6909Z" fill="#132C45"/>
<path d="M152.518 67.6909H149.4V70.8091H152.518V67.6909Z" fill="#132C45"/>
<path d="M155.636 67.6909H152.518V70.8091H155.636V67.6909Z" fill="#132C45"/>
<path d="M108.864 70.8088H105.745V73.927H108.864V70.8088Z" fill="#132C45"/>
<path d="M111.982 70.8088H108.864V73.927H111.982V70.8088Z" fill="#132C45"/>
<path d="M115.1 70.8088H111.982V73.927H115.1V70.8088Z" fill="#132C45"/>
<path d="M127.573 70.8088H124.455V73.927H127.573V70.8088Z" fill="#132C45"/>
<path d="M133.809 70.8088H130.691V73.927H133.809V70.8088Z" fill="#132C45"/>
<path d="M146.282 70.8088H143.164V73.927H146.282V70.8088Z" fill="#132C45"/>
<path d="M152.518 70.8088H149.4V73.927H152.518V70.8088Z" fill="#132C45"/>
<path d="M155.636 70.8088H152.518V73.927H155.636V70.8088Z" fill="#132C45"/>
<path d="M83.9182 73.9272H80.8V77.0454H83.9182V73.9272Z" fill="#132C45"/>
<path d="M87.0363 73.9272H83.9182V77.0454H87.0363V73.9272Z" fill="#132C45"/>
<path d="M90.1546 73.9272H87.0364V77.0454H90.1546V73.9272Z" fill="#132C45"/>
<path d="M93.2727 73.9272H90.1545V77.0454H93.2727V73.9272Z" fill="#132C45"/>
<path d="M96.3909 73.9272H93.2727V77.0454H96.3909V73.9272Z" fill="#132C45"/>
<path d="M99.5091 73.9272H96.3909V77.0454H99.5091V73.9272Z" fill="#132C45"/>
<path d="M102.627 73.9272H99.5091V77.0454H102.627V73.9272Z" fill="#132C45"/>
<path d="M111.982 73.9272H108.864V77.0454H111.982V73.9272Z" fill="#132C45"/>
<path d="M115.1 73.9272H111.982V77.0454H115.1V73.9272Z" fill="#132C45"/>
<path d="M118.218 73.9272H115.1V77.0454H118.218V73.9272Z" fill="#132C45"/>
<path d="M133.809 73.9272H130.691V77.0454H133.809V73.9272Z" fill="#132C45"/>
<path d="M140.045 73.9272H136.927V77.0454H140.045V73.9272Z" fill="#132C45"/>
<path d="M146.282 73.9272H143.164V77.0454H146.282V73.9272Z" fill="#132C45"/>
<path d="M158.755 73.9272H155.636V77.0454H158.755V73.9272Z" fill="#132C45"/>
<path d="M83.9182 77.0452H80.8V80.1634H83.9182V77.0452Z" fill="#132C45"/>
<path d="M102.627 77.0452H99.5091V80.1634H102.627V77.0452Z" fill="#132C45"/>
<path d="M111.982 77.0452H108.864V80.1634H111.982V77.0452Z" fill="#132C45"/>
<path d="M115.1 77.0452H111.982V80.1634H115.1V77.0452Z" fill="#132C45"/>
<path d="M121.336 77.0452H118.218V80.1634H121.336V77.0452Z" fill="#132C45"/>
<path d="M124.454 77.0452H121.336V80.1634H124.454V77.0452Z" fill="#132C45"/>
<path d="M127.573 77.0452H124.455V80.1634H127.573V77.0452Z" fill="#132C45"/>
<path d="M130.691 77.0452H127.573V80.1634H130.691V77.0452Z" fill="#132C45"/>
<path d="M133.809 77.0452H130.691V80.1634H133.809V77.0452Z" fill="#132C45"/>
<path d="M146.282 77.0452H143.164V80.1634H146.282V77.0452Z" fill="#132C45"/>
<path d="M83.9182 80.1633H80.8V83.2815H83.9182V80.1633Z" fill="#132C45"/>
<path d="M90.1546 80.1633H87.0364V83.2815H90.1546V80.1633Z" fill="#132C45"/>
<path d="M93.2727 80.1633H90.1545V83.2815H93.2727V80.1633Z" fill="#132C45"/>
<path d="M96.3909 80.1633H93.2727V83.2815H96.3909V80.1633Z" fill="#132C45"/>
<path d="M102.627 80.1633H99.5091V83.2815H102.627V80.1633Z" fill="#132C45"/>
<path d="M108.864 80.1633H105.745V83.2815H108.864V80.1633Z" fill="#132C45"/>
<path d="M111.982 80.1633H108.864V83.2815H111.982V80.1633Z" fill="#132C45"/>
<path d="M115.1 80.1633H111.982V83.2815H115.1V80.1633Z" fill="#132C45"/>
<path d="M118.218 80.1633H115.1V83.2815H118.218V80.1633Z" fill="#132C45"/>
<path d="M121.336 80.1633H118.218V83.2815H121.336V80.1633Z" fill="#132C45"/>
<path d="M127.573 80.1633H124.455V83.2815H127.573V80.1633Z" fill="#132C45"/>
<path d="M130.691 80.1633H127.573V83.2815H130.691V80.1633Z" fill="#132C45"/>
<path d="M133.809 80.1633H130.691V83.2815H133.809V80.1633Z" fill="#132C45"/>
<path d="M136.927 80.1633H133.809V83.2815H136.927V80.1633Z" fill="#132C45"/>
<path d="M140.045 80.1633H136.927V83.2815H140.045V80.1633Z" fill="#132C45"/>
<path d="M143.164 80.1633H140.045V83.2815H143.164V80.1633Z" fill="#132C45"/>
<path d="M146.282 80.1633H143.164V83.2815H146.282V80.1633Z" fill="#132C45"/>
<path d="M155.636 80.1633H152.518V83.2815H155.636V80.1633Z" fill="#132C45"/>
<path d="M83.9182 83.2815H80.8V86.3997H83.9182V83.2815Z" fill="#132C45"/>
<path d="M90.1546 83.2815H87.0364V86.3997H90.1546V83.2815Z" fill="#132C45"/>
<path d="M93.2727 83.2815H90.1545V86.3997H93.2727V83.2815Z" fill="#132C45"/>
<path d="M96.3909 83.2815H93.2727V86.3997H96.3909V83.2815Z" fill="#132C45"/>
<path d="M102.627 83.2815H99.5091V86.3997H102.627V83.2815Z" fill="#132C45"/>
<path d="M108.864 83.2815H105.745V86.3997H108.864V83.2815Z" fill="#132C45"/>
<path d="M118.218 83.2815H115.1V86.3997H118.218V83.2815Z" fill="#132C45"/>
<path d="M124.454 83.2815H121.336V86.3997H124.454V83.2815Z" fill="#132C45"/>
<path d="M127.573 83.2815H124.455V86.3997H127.573V83.2815Z" fill="#132C45"/>
<path d="M130.691 83.2815H127.573V86.3997H130.691V83.2815Z" fill="#132C45"/>
<path d="M136.927 83.2815H133.809V86.3997H136.927V83.2815Z" fill="#132C45"/>
<path d="M140.045 83.2815H136.927V86.3997H140.045V83.2815Z" fill="#132C45"/>
<path d="M155.636 83.2815H152.518V86.3997H155.636V83.2815Z" fill="#132C45"/>
<path d="M158.755 83.2815H155.636V86.3997H158.755V83.2815Z" fill="#132C45"/>
<path d="M83.9182 86.3999H80.8V89.5181H83.9182V86.3999Z" fill="#132C45"/>
<path d="M90.1546 86.3999H87.0364V89.5181H90.1546V86.3999Z" fill="#132C45"/>
<path d="M93.2727 86.3999H90.1545V89.5181H93.2727V86.3999Z" fill="#132C45"/>
<path d="M96.3909 86.3999H93.2727V89.5181H96.3909V86.3999Z" fill="#132C45"/>
<path d="M102.627 86.3999H99.5091V89.5181H102.627V86.3999Z" fill="#132C45"/>
<path d="M115.1 86.3999H111.982V89.5181H115.1V86.3999Z" fill="#132C45"/>
<path d="M118.218 86.3999H115.1V89.5181H118.218V86.3999Z" fill="#132C45"/>
<path d="M127.573 86.3999H124.455V89.5181H127.573V86.3999Z" fill="#132C45"/>
<path d="M130.691 86.3999H127.573V89.5181H130.691V86.3999Z" fill="#132C45"/>
<path d="M136.927 86.3999H133.809V89.5181H136.927V86.3999Z" fill="#132C45"/>
<path d="M146.282 86.3999H143.164V89.5181H146.282V86.3999Z" fill="#132C45"/>
<path d="M149.4 86.3999H146.282V89.5181H149.4V86.3999Z" fill="#132C45"/>
<path d="M152.518 86.3999H149.4V89.5181H152.518V86.3999Z" fill="#132C45"/>
<path d="M155.636 86.3999H152.518V89.5181H155.636V86.3999Z" fill="#132C45"/>
<path d="M158.755 86.3999H155.636V89.5181H158.755V86.3999Z" fill="#132C45"/>
<path d="M83.9182 89.5181H80.8V92.6363H83.9182V89.5181Z" fill="#132C45"/>
<path d="M102.627 89.5181H99.5091V92.6363H102.627V89.5181Z" fill="#132C45"/>
<path d="M108.864 89.5181H105.745V92.6363H108.864V89.5181Z" fill="#132C45"/>
<path d="M121.336 89.5181H118.218V92.6363H121.336V89.5181Z" fill="#132C45"/>
<path d="M127.573 89.5181H124.455V92.6363H127.573V89.5181Z" fill="#132C45"/>
<path d="M130.691 89.5181H127.573V92.6363H130.691V89.5181Z" fill="#132C45"/>
<path d="M136.927 89.5181H133.809V92.6363H136.927V89.5181Z" fill="#132C45"/>
<path d="M143.164 89.5181H140.045V92.6363H143.164V89.5181Z" fill="#132C45"/>
<path d="M146.282 89.5181H143.164V92.6363H146.282V89.5181Z" fill="#132C45"/>
<path d="M152.518 89.5181H149.4V92.6363H152.518V89.5181Z" fill="#132C45"/>
<path d="M155.636 89.5181H152.518V92.6363H155.636V89.5181Z" fill="#132C45"/>
<path d="M158.755 89.5181H155.636V92.6363H158.755V89.5181Z" fill="#132C45"/>
<path d="M83.9182 92.6362H80.8V95.7544H83.9182V92.6362Z" fill="#132C45"/>
<path d="M87.0363 92.6362H83.9182V95.7544H87.0363V92.6362Z" fill="#132C45"/>
<path d="M90.1546 92.6362H87.0364V95.7544H90.1546V92.6362Z" fill="#132C45"/>
<path d="M93.2727 92.6362H90.1545V95.7544H93.2727V92.6362Z" fill="#132C45"/>
<path d="M96.3909 92.6362H93.2727V95.7544H96.3909V92.6362Z" fill="#132C45"/>
<path d="M99.5091 92.6362H96.3909V95.7544H99.5091V92.6362Z" fill="#132C45"/>
<path d="M102.627 92.6362H99.5091V95.7544H102.627V92.6362Z" fill="#132C45"/>
<path d="M108.864 92.6362H105.745V95.7544H108.864V92.6362Z" fill="#132C45"/>
<path d="M115.1 92.6362H111.982V95.7544H115.1V92.6362Z" fill="#132C45"/>
<path d="M118.218 92.6362H115.1V95.7544H118.218V92.6362Z" fill="#132C45"/>
<path d="M133.809 92.6362H130.691V95.7544H133.809V92.6362Z" fill="#132C45"/>
<path d="M140.045 92.6362H136.927V95.7544H140.045V92.6362Z" fill="#132C45"/>
<path d="M149.4 92.6362H146.282V95.7544H149.4V92.6362Z" fill="#132C45"/>
<path d="M158.755 92.6362H155.636V95.7544H158.755V92.6362Z" fill="#132C45"/>
<path d="M7.37865 54.4699L9.81032 48.4945L11.1575 49.0427L8.72588 55.0182L7.37865 54.4699ZM10.0253 55.5469L11.8751 51.0012L12.9749 51.4487L12.8316 52.0634L12.8682 52.0783C13.1383 51.9746 13.4168 51.9028 13.7037 51.8628C13.9931 51.8168 14.2935 51.8572 14.6052 51.984C15.1 52.1854 15.3916 52.4927 15.4798 52.9061C15.5741 53.3219 15.5043 53.817 15.2706 54.3913L14.1219 57.214L12.7747 56.6658L13.8525 54.0172C13.9868 53.6872 14.033 53.4425 13.991 53.283C13.9552 53.126 13.8396 53.0077 13.6441 52.9282C13.473 52.8586 13.3102 52.8386 13.1557 52.8683C13.0036 52.8919 12.8257 52.9441 12.6219 53.025L11.3725 56.0952L10.0253 55.5469ZM16.5633 58.3357C16.2639 58.2139 15.9789 58.0303 15.7085 57.7849C15.4441 57.542 15.2344 57.2786 15.0793 56.9947L16.0273 56.3977C16.1704 56.6411 16.3205 56.8411 16.4775 56.9976C16.6346 57.1541 16.8109 57.2721 17.0064 57.3517C17.2081 57.4337 17.3684 57.4598 17.4874 57.4299C17.6064 57.4 17.6907 57.3239 17.7405 57.2017C17.7703 57.1284 17.7689 57.053 17.7363 56.9757C17.7123 56.8947 17.6644 56.8111 17.5926 56.7249C17.527 56.6412 17.4466 56.5587 17.3516 56.4773C17.259 56.3898 17.1646 56.2979 17.0684 56.2018C16.9503 56.0896 16.8358 55.9683 16.7252 55.8378C16.6145 55.7073 16.5222 55.5665 16.4484 55.4154C16.3771 55.2582 16.3333 55.0944 16.3172 54.924C16.3036 54.7475 16.3353 54.5646 16.4123 54.3752C16.4969 54.1675 16.6149 53.9912 16.7664 53.8463C16.9241 53.7039 17.1041 53.6027 17.3066 53.5427C17.5091 53.4826 17.7309 53.4625 17.9721 53.4823C18.2158 53.496 18.469 53.5564 18.7317 53.6633C19.08 53.805 19.3606 53.9904 19.5736 54.2195C19.7891 54.4425 19.9648 54.6671 20.1006 54.8933L19.1675 55.4537C19.0523 55.2643 18.9289 55.1037 18.7974 54.9719C18.6659 54.84 18.5207 54.7418 18.3619 54.6771C18.0197 54.5379 17.8002 54.5874 17.7032 54.8257C17.6734 54.899 17.6717 54.9731 17.6982 55.048C17.7272 55.1168 17.7727 55.1887 17.8347 55.2638C17.9028 55.3414 17.9801 55.4227 18.0666 55.5077C18.1617 55.5891 18.2585 55.6749 18.3572 55.7649C18.4815 55.8795 18.5989 56.0021 18.7096 56.1326C18.8289 56.2595 18.9255 56.3985 18.9993 56.5496C19.0792 56.7032 19.1248 56.8713 19.1359 57.0539C19.1496 57.2303 19.1141 57.4224 19.0296 57.6302C18.9451 57.8379 18.827 58.0142 18.6755 58.1591C18.524 58.3039 18.3414 58.4112 18.1279 58.481C17.9168 58.5447 17.679 58.569 17.4145 58.5539C17.1525 58.5328 16.8687 58.46 16.5633 58.3357ZM20.86 60.0842C20.5789 59.9698 20.355 59.8289 20.1881 59.6613C20.0274 59.4962 19.914 59.3111 19.8479 59.1062C19.7878 58.9037 19.7708 58.6831 19.7967 58.4444C19.8312 58.2021 19.9019 57.9496 20.0088 57.6868L20.7585 55.8447L20.1353 55.5911L20.5418 54.5921L21.2607 54.8206L21.9088 53.6743L23.0269 54.1293L22.5346 55.339L23.6252 55.7828L23.1963 56.8368L22.1057 56.393L21.3635 58.2167C21.2591 58.4734 21.2352 58.6808 21.2918 58.8392C21.357 58.9939 21.4783 59.1073 21.6554 59.1795C21.7288 59.2093 21.8058 59.23 21.8866 59.2415C21.9735 59.2555 22.0524 59.2627 22.1235 59.2631L21.9352 60.3295C21.7981 60.3164 21.6396 60.2947 21.4597 60.2642C21.2798 60.2337 21.0799 60.1737 20.86 60.0842ZM23.5845 61.1929C23.3767 61.1084 23.2022 60.9947 23.061 60.8517C22.9234 60.7174 22.8214 60.5655 22.755 60.3961C22.6912 60.2205 22.6592 60.0366 22.6591 59.8443C22.6651 59.6544 22.7079 59.4618 22.7875 59.2663C22.9814 58.7897 23.3347 58.499 23.8474 58.3943C24.36 58.2896 25.0841 58.3741 26.0195 58.648C26.0894 58.4414 26.0929 58.2577 26.0302 58.0968C25.976 57.9324 25.8237 57.7991 25.5732 57.6972C25.3777 57.6176 25.1673 57.5747 24.9419 57.5685C24.7227 57.5647 24.477 57.5823 24.2048 57.6211L24.0808 56.5344C24.4462 56.4766 24.8101 56.4573 25.1726 56.4766C25.5412 56.4984 25.9057 56.5827 26.2662 56.7294C26.8527 56.968 27.2304 57.3176 27.3991 57.7779C27.5764 58.2347 27.5221 58.8144 27.2362 59.517L26.177 62.1198L25.0773 61.6722L25.1758 61.1675L25.1392 61.1526C24.874 61.2441 24.6122 61.3014 24.3536 61.3243C24.0974 61.3412 23.8411 61.2974 23.5845 61.1929ZM24.4679 60.3346C24.6206 60.3968 24.7657 60.4166 24.903 60.3942C25.0403 60.3717 25.1949 60.3243 25.3669 60.2518L25.6913 59.4545C25.1874 59.3277 24.8177 59.2912 24.5822 59.345C24.3467 59.3987 24.1929 59.5141 24.1208 59.6913C24.0611 59.8379 24.0622 59.9666 24.124 60.0772C24.1944 60.1842 24.309 60.27 24.4679 60.3346ZM28.5091 63.197C28.2769 63.1025 28.0963 62.9863 27.9673 62.8483C27.8383 62.7104 27.751 62.5573 27.7055 62.3892C27.6685 62.2175 27.6659 62.0313 27.6978 61.8306C27.7321 61.6238 27.7965 61.4043 27.891 61.1721L29.931 56.159L31.2782 56.7073L29.2158 61.7754C29.1586 61.9159 29.1433 62.0236 29.1698 62.0985C29.2024 62.1759 29.2462 62.2257 29.3012 62.2481C29.3317 62.2605 29.3562 62.2705 29.3745 62.2779C29.3989 62.2879 29.432 62.2942 29.4736 62.2969L29.232 63.363C29.1463 63.3637 29.0416 63.3496 28.9181 63.3207C28.7982 63.3004 28.6618 63.2591 28.5091 63.197ZM31.1314 64.2641C30.8993 64.1697 30.7187 64.0534 30.5896 63.9155C30.4606 63.7775 30.3733 63.6245 30.3278 63.4564C30.2909 63.2847 30.2883 63.0985 30.3201 62.8978C30.3544 62.691 30.4188 62.4715 30.5133 62.2393L32.5534 57.2262L33.9006 57.7744L31.8381 62.8425C31.781 62.9831 31.7656 63.0908 31.7921 63.1656C31.8247 63.243 31.8685 63.2929 31.9235 63.3152C31.9541 63.3277 31.9785 63.3376 31.9968 63.3451C32.0213 63.355 32.0543 63.3614 32.0959 63.364L31.8544 64.4301C31.7686 64.4309 31.664 64.4168 31.5404 64.3878C31.4205 64.3675 31.2842 64.3263 31.1314 64.2641ZM33.6621 65.294C33.4544 65.2094 33.2799 65.0957 33.1387 64.9528C33.0011 64.8184 32.8991 64.6665 32.8327 64.4971C32.7688 64.3216 32.7369 64.1376 32.7368 63.9453C32.7428 63.7555 32.7856 63.5628 32.8652 63.3673C33.0591 62.8907 33.4124 62.6001 33.9251 62.4953C34.4377 62.3906 35.1617 62.4752 36.0972 62.749C36.167 62.5424 36.1706 62.3587 36.1078 62.1979C36.0537 62.0334 35.9014 61.9002 35.6509 61.7982C35.4554 61.7187 35.2449 61.6758 35.0196 61.6695C34.8003 61.6658 34.5546 61.6833 34.2825 61.7221L34.1585 60.6354C34.5239 60.5776 34.8878 60.5583 35.2503 60.5777C35.6188 60.5995 35.9834 60.6837 36.3438 60.8304C36.9304 61.0691 37.308 61.4186 37.4768 61.879C37.6541 62.3357 37.5998 62.9154 37.3139 63.618L36.2547 66.2208L35.1549 65.7733L35.2535 65.2686L35.2168 65.2537C34.9517 65.3452 34.6898 65.4024 34.4312 65.4254C34.1751 65.4422 33.9187 65.3984 33.6621 65.294ZM34.5455 64.4357C34.6983 64.4978 34.8433 64.5177 34.9806 64.4952C35.118 64.4728 35.2726 64.4253 35.4445 64.3528L35.769 63.5555C35.2651 63.4288 34.8954 63.3923 34.6599 63.446C34.4243 63.4997 34.2705 63.6152 34.1984 63.7923C34.1388 63.939 34.1398 64.0676 34.2016 64.1782C34.272 64.2852 34.3867 64.371 34.5455 64.4357ZM38.9389 67.4413C38.6578 67.327 38.4339 67.186 38.2671 67.0184C38.1064 66.8533 37.993 66.6683 37.9268 66.4633C37.8668 66.2608 37.8497 66.0402 37.8756 65.8015C37.9102 65.5592 37.9809 65.3067 38.0878 65.0439L38.8374 63.2018L38.2142 62.9482L38.6207 61.9492L39.3396 62.1777L39.9877 61.0314L41.1058 61.4864L40.6135 62.6961L41.7041 63.1399L41.2752 64.1939L40.1846 63.7501L39.4425 65.5738C39.338 65.8305 39.3141 66.0379 39.3708 66.1963C39.436 66.351 39.5572 66.4645 39.7344 66.5366C39.8077 66.5664 39.8847 66.5871 39.9655 66.5986C40.0524 66.6126 40.1314 66.6198 40.2024 66.6202L40.0141 67.6866C39.877 67.6735 39.7185 67.6518 39.5386 67.6213C39.3588 67.5908 39.1588 67.5308 38.9389 67.4413ZM40.7416 68.0467L42.5914 63.501L43.9386 64.0492L42.0888 68.595L40.7416 68.0467ZM43.5327 63.1042C43.3066 63.0122 43.1464 62.8722 43.052 62.6843C42.96 62.4902 42.9563 62.2893 43.0409 62.0815C43.1254 61.8738 43.2671 61.7356 43.4659 61.667C43.6648 61.5983 43.8773 61.61 44.1033 61.702C44.3355 61.7965 44.4957 61.9365 44.584 62.122C44.6785 62.31 44.6834 62.5078 44.5989 62.7155C44.5143 62.9233 44.3714 63.0645 44.1701 63.1393C43.9773 63.2104 43.7649 63.1987 43.5327 63.1042ZM45.1817 69.9818C44.8946 69.8649 44.6377 69.6999 44.4111 69.4866C44.1871 69.2672 44.0122 69.0145 43.8865 68.7283C43.7669 68.4446 43.7057 68.1313 43.7029 67.7883C43.7025 67.4392 43.7794 67.0752 43.9335 66.6964C44.0877 66.3176 44.2855 66.0064 44.5271 65.7629C44.7711 65.5132 45.035 65.3286 45.3186 65.209C45.6084 65.092 45.9089 65.0362 46.22 65.0417C46.5336 65.0411 46.8339 65.0993 47.1211 65.2161C47.4083 65.333 47.6608 65.4999 47.8788 65.7168C48.1054 65.93 48.2784 66.1785 48.398 66.4622C48.5237 66.7483 48.5867 67.066 48.5871 67.4151C48.5899 67.7581 48.5143 68.119 48.3601 68.4978C48.206 68.8766 48.0069 69.1908 47.7629 69.4405C47.5213 69.684 47.2556 69.8643 46.9659 69.9814C46.6822 70.101 46.3836 70.1611 46.07 70.1617C45.765 70.1586 45.4689 70.0987 45.1817 69.9818ZM45.6256 68.8912C45.9005 69.0031 46.1555 68.9715 46.3905 68.7965C46.6255 68.6216 46.8238 68.3355 46.9854 67.9384C47.147 67.5412 47.2048 67.198 47.1588 66.9086C47.1127 66.6192 46.9522 66.4186 46.6773 66.3067C46.3962 66.1924 46.1382 66.2227 45.9032 66.3977C45.6743 66.5751 45.479 66.8624 45.3174 67.2596C45.1558 67.6567 45.095 67.9987 45.1349 68.2856C45.181 68.575 45.3445 68.7768 45.6256 68.8912ZM48.358 71.1462L50.2078 66.6004L51.3076 67.048L51.1643 67.6627L51.201 67.6776C51.4711 67.5739 51.7495 67.502 52.0364 67.4621C52.3258 67.416 52.6263 67.4564 52.9379 67.5832C53.4328 67.7846 53.7243 68.092 53.8125 68.5053C53.9068 68.9211 53.837 69.4162 53.6033 69.9905L52.4546 72.8133L51.1074 72.265L52.1852 69.6164C52.3195 69.2865 52.3657 69.0418 52.3238 68.8823C52.288 68.7253 52.1723 68.607 51.9768 68.5274C51.8057 68.4578 51.6429 68.4378 51.4884 68.4675C51.3363 68.4911 51.1584 68.5434 50.9546 68.6242L49.7052 71.6944L48.358 71.1462ZM6.63519 67.1229L8.05615 63.6312L7.45128 63.385L7.8578 62.386L8.48132 62.5864L8.58202 62.3389C8.67898 62.1006 8.79847 61.8858 8.94048 61.6943C9.08861 61.5053 9.2622 61.3587 9.46126 61.2546C9.66032 61.1504 9.88542 61.096 10.1366 61.0914C10.3877 61.0868 10.666 61.1466 10.9715 61.271C11.1609 61.348 11.3245 61.436 11.4624 61.5348C11.6063 61.6361 11.7227 61.7262 11.8117 61.8051L11.1615 62.6942C11.0152 62.5635 10.8719 62.4696 10.7313 62.4124C10.5664 62.3453 10.4169 62.345 10.283 62.4116C10.1516 62.472 10.0386 62.6183 9.94415 62.8505L9.83227 63.1255L10.6479 63.4574L10.219 64.5113L9.40337 64.1794L7.98242 67.6712L6.63519 67.1229ZM9.52961 68.3008L11.3795 63.7551L12.7267 64.3033L10.8768 68.849L9.52961 68.3008ZM12.3208 63.3583C12.0947 63.2663 11.9344 63.1263 11.84 62.9383C11.7481 62.7442 11.7444 62.5433 11.8289 62.3356C11.9135 62.1279 12.0551 61.9897 12.254 61.9211C12.4528 61.8524 12.6653 61.8641 12.8914 61.9561C13.1235 62.0506 13.2838 62.1906 13.3721 62.3761C13.4665 62.564 13.4715 62.7619 13.3869 62.9696C13.3024 63.1774 13.1595 63.3186 12.9581 63.3933C12.7654 63.4645 12.5529 63.4528 12.3208 63.3583ZM13.2549 69.945C13.0228 69.8505 12.8422 69.7343 12.7132 69.5963C12.5841 69.4584 12.4969 69.3053 12.4513 69.1372C12.4144 68.9655 12.4118 68.7793 12.4436 68.5786C12.4779 68.3718 12.5423 68.1523 12.6368 67.9201L14.6769 62.907L16.0241 63.4553L13.9616 68.5234C13.9045 68.6639 13.8891 68.7716 13.9156 68.8465C13.9482 68.9239 13.992 68.9737 14.047 68.9961C14.0776 69.0085 14.102 69.0185 14.1203 69.0259C14.1448 69.0359 14.1778 69.0422 14.2194 69.0449L13.9779 70.111C13.8921 70.1117 13.7875 70.0976 13.6639 70.0687C13.544 70.0484 13.4077 70.0071 13.2549 69.945ZM16.6746 71.3366C16.3508 71.2048 16.0695 71.0298 15.8307 70.8116C15.5944 70.5872 15.4134 70.332 15.2877 70.0458C15.1645 69.7535 15.1046 69.4371 15.1078 69.0966C15.1111 68.7561 15.1898 68.3965 15.3439 68.0176C15.4931 67.6511 15.6885 67.346 15.93 67.1024C16.1741 66.8528 16.4349 66.6669 16.7124 66.5449C16.9986 66.4192 17.2923 66.3536 17.5937 66.348C17.8951 66.3425 18.1832 66.3956 18.4582 66.5075C18.782 66.6393 19.0407 66.8087 19.2342 67.0156C19.4338 67.225 19.5733 67.4598 19.6526 67.72C19.738 67.9826 19.7657 68.2645 19.7358 68.5657C19.7083 68.8607 19.6311 69.1641 19.5043 69.4757C19.4546 69.5979 19.4012 69.7115 19.3443 69.8165C19.2873 69.9215 19.2415 69.999 19.2069 70.049L16.485 68.9413C16.4118 69.2961 16.4468 69.5952 16.5899 69.8386C16.7415 70.0784 16.9701 70.2604 17.2756 70.3847C17.5994 70.5165 17.9673 70.5487 18.3793 70.4814L18.4965 71.4798C18.1997 71.5441 17.889 71.5637 17.5646 71.5385C17.2462 71.5158 16.9496 71.4485 16.6746 71.3366ZM16.8376 68.0486L18.4781 68.7162C18.5825 68.4596 18.609 68.2282 18.5575 68.0221C18.5061 67.816 18.3429 67.657 18.068 67.5452C17.8541 67.4581 17.6361 67.4513 17.414 67.5247C17.1979 67.6006 17.0058 67.7752 16.8376 68.0486ZM21.8693 75.2345C21.7405 74.4486 21.7072 73.673 21.7693 72.9078C21.8376 72.145 22.0358 71.3604 22.364 70.5539C22.6922 69.7474 23.0981 69.0474 23.5819 68.4537C24.0717 67.8625 24.6371 67.3306 25.2781 66.8579L25.9796 67.5493C25.3999 68.0113 24.9006 68.5381 24.4818 69.1297C24.0631 69.7213 23.7206 70.344 23.4546 70.9977C23.1886 71.6515 22.9989 72.3363 22.8856 73.0522C22.7723 73.7682 22.7618 74.4939 22.8542 75.2294L21.8693 75.2345ZM25.1477 74.7846C24.9155 74.6902 24.7523 74.5312 24.6581 74.3077C24.5725 74.0805 24.5781 73.8478 24.6751 73.6096C24.7746 73.3652 24.933 73.1946 25.1504 73.0979C25.3764 72.9976 25.6055 72.9947 25.8376 73.0892C26.0698 73.1836 26.2287 73.3445 26.3143 73.5716C26.4085 73.7951 26.4059 74.029 26.3064 74.2734C26.2095 74.5117 26.048 74.681 25.822 74.7813C25.6046 74.878 25.3798 74.8791 25.1477 74.7846ZM28.2619 76.052C28.0542 75.9674 27.8797 75.8537 27.7384 75.7108C27.6008 75.5764 27.4988 75.4245 27.4325 75.2551C27.3686 75.0795 27.3366 74.8956 27.3365 74.7033C27.3426 74.5135 27.3854 74.3208 27.4649 74.1253C27.6589 73.6487 28.0122 73.3581 28.5248 73.2533C29.0375 73.1486 29.7615 73.2331 30.697 73.507C30.7668 73.3004 30.7703 73.1167 30.7076 72.9558C30.6535 72.7914 30.5011 72.6582 30.2506 72.5562C30.0551 72.4767 29.8447 72.4338 29.6193 72.4275C29.4001 72.4238 29.1544 72.4413 28.8822 72.4801L28.7583 71.3934C29.1236 71.3356 29.4875 71.3163 29.85 71.3356C30.2186 71.3574 30.5831 71.4417 30.9436 71.5884C31.5301 71.8271 31.9078 72.1766 32.0765 72.637C32.2539 73.0937 32.1996 73.6734 31.9136 74.376L30.8545 76.9788L29.7547 76.5313L29.8532 76.0266L29.8166 76.0116C29.5514 76.1031 29.2896 76.1604 29.031 76.1833C28.7749 76.2002 28.5185 76.1564 28.2619 76.052ZM29.1453 75.1937C29.298 75.2558 29.4431 75.2757 29.5804 75.2532C29.7177 75.2308 29.8724 75.1833 30.0443 75.1108L30.3688 74.3135C29.8648 74.1868 29.4951 74.1503 29.2596 74.204C29.0241 74.2577 28.8703 74.3731 28.7982 74.5503C28.7385 74.697 28.7396 74.8256 28.8014 74.9362C28.8718 75.0432 28.9864 75.129 29.1453 75.1937ZM31.3078 79.1289L33.8439 72.8968L34.9437 73.3444L34.8526 73.8307L34.8892 73.8456C35.131 73.7589 35.3831 73.7083 35.6453 73.694C35.9161 73.676 36.1707 73.7155 36.409 73.8125C36.6839 73.9244 36.909 74.08 37.0842 74.2795C37.2594 74.479 37.3823 74.7106 37.453 74.9744C37.5237 75.2382 37.5403 75.5298 37.5029 75.8493C37.4741 76.1652 37.3888 76.4973 37.2471 76.8455C37.0879 77.2365 36.8912 77.5624 36.6569 77.8232C36.4312 78.0803 36.1832 78.2785 35.9129 78.4177C35.6512 78.5534 35.3819 78.6289 35.1049 78.6444C34.8341 78.6624 34.5765 78.6217 34.3321 78.5222C34.1366 78.4426 33.9634 78.3258 33.8124 78.1718C33.6639 78.0117 33.5413 77.8229 33.4446 77.6055L33.1958 78.3482L32.655 79.6771L31.3078 79.1289ZM34.4681 77.2956C34.7002 77.3901 34.9411 77.367 35.1906 77.2264C35.4426 77.0797 35.6643 76.7711 35.8557 76.3007C36.1889 75.482 36.0928 74.9657 35.5673 74.7519C35.3046 74.645 34.989 74.6768 34.6205 74.8473L33.8634 76.7077C33.9408 76.8674 34.032 76.9935 34.1367 77.086C34.2415 77.1785 34.352 77.2484 34.4681 77.2956ZM37.2477 79.5805L39.8621 73.156L41.1726 73.6893L39.6734 77.3735L39.71 77.3884L41.8836 76.1685L43.35 76.7653L40.9945 77.9859L41.6193 81.3595L40.1621 80.7665L39.8554 78.58L39.0132 78.9957L38.5582 80.1138L37.2477 79.5805ZM42.2884 83.5439L41.5869 82.8525C42.1727 82.393 42.675 81.8674 43.0938 81.2759C43.5126 80.6843 43.855 80.0616 44.1211 79.4078C44.3871 78.7541 44.5768 78.0692 44.6901 77.3533C44.8034 76.6374 44.8108 75.9105 44.7123 75.1725L45.6972 75.1673C45.826 75.9533 45.8563 76.7276 45.788 77.4903C45.7259 78.2556 45.5307 79.0414 45.2025 79.8479C44.8743 80.6544 44.4653 81.3533 43.9755 81.9444C43.4918 82.5381 42.9294 83.0712 42.2884 83.5439Z" fill="#50E3C2"/>
<path d="M57.8327 43.5348C57.4823 42.8468 57.7544 42.0082 58.4449 41.6653C59.1302 41.3249 59.9644 41.605 60.3134 42.2875L62.6017 46.7673C62.9447 47.4671 62.6765 48.2883 62.0001 48.6314L57.4486 50.938C57.298 51.0136 57.1368 51.0609 56.9714 51.0786C56.403 51.1391 55.8471 50.8463 55.5773 50.33C55.2202 49.6451 55.4858 48.8032 56.1739 48.4545L57.8219 47.6197C54.9845 46.5091 52.4275 46.1369 50.1124 46.3827C47.7594 46.6339 45.779 47.5072 44.1298 48.8032C43.1195 49.5975 42.4247 50.3928 42.0522 50.9561L42.0886 50.9048C41.8604 51.2621 41.4848 51.4891 41.071 51.5332C40.7553 51.5668 40.435 51.4927 40.1634 51.3171C39.5175 50.9008 39.3235 50.0414 39.7397 49.3914C39.7657 49.3512 39.7992 49.3012 39.8495 49.23C40.3772 48.4818 41.1671 47.6062 42.2375 46.7388C44.2907 45.075 46.8164 43.9338 49.7942 43.6174C52.4757 43.3301 55.4013 43.7377 58.5429 44.9255L57.8327 43.5348Z" fill="#50E3C2"/>
<circle cx="169" cy="10" r="9" fill="#132C45"/>
<path d="M171.862 8.43683L169.685 10.6137V5.5H168.672V10.6137L166.495 8.43683L165.786 9.14552L169.178 12.538L172.571 9.14552L171.862 8.43683Z" fill="white"/>
<path d="M166.393 13.6013H171.963V14.6138H166.393V13.6013Z" fill="white"/>
</svg>
