<svg width="240" height="110" viewBox="0 0 240 110" fill="none" xmlns="http://www.w3.org/2000/svg">
<g clip-path="url(#clip0)">
<rect width="240" height="110" fill="white"/>
<path fill-rule="evenodd" clip-rule="evenodd" d="M88.771 78.1514C87.6788 78.2896 86.6092 78.4622 85.5622 78.669C84.7761 85.4453 88.1371 88.8335 95.645 88.8335C103.153 88.8335 106.609 85.4453 106.012 78.669C104.889 78.4597 103.754 78.2856 102.606 78.1466C104.095 78.2317 105.505 78.3533 106.844 78.5207C112.273 79.1989 108.6 78.5794 111.968 83.4258C115.336 88.2722 115.811 98.5454 116.245 109.265L64.5797 109.753C65.0699 98.4777 67.5104 86.4615 71.9013 83.4258C76.0082 80.5865 79.8938 79.1698 84.9577 78.5056C86.1566 78.3483 87.4214 78.2332 88.771 78.1514Z" fill="white"/>
<path d="M115.895 109.492C115.444 98.3289 114.752 85.7594 113.821 82.048C112.949 78.5756 113.993 78.1121 108.34 77.4058C106.946 77.2315 105.478 77.1049 103.927 77.0162C105.122 77.161 106.305 77.3423 107.474 77.5602C108.095 84.6166 104.497 88.1449 96.6783 88.1449C88.86 88.1449 85.3601 84.6166 86.1786 77.5602C87.269 77.3448 88.3828 77.1652 89.5201 77.0213C88.1148 77.1065 86.7976 77.2263 85.5492 77.3901C80.276 78.0818 76.2298 79.557 71.9531 82.5137C67.3807 85.6748 64.8393 98.2585 64.3288 110M102.94 71.9276L103.575 79.8041M90.7048 72.0987L90.0699 79.8041" stroke="#132C45" stroke-width="2.03219" stroke-linejoin="round"/>
<path d="M74.7324 19.8421C74.7789 19.7416 74.8169 19.6601 74.8457 19.5986L115.288 17.3766C115.319 17.4396 115.361 17.522 115.411 17.6231C115.541 17.8834 115.731 18.2671 115.968 18.7599C116.442 19.7455 117.107 21.1674 117.87 22.9108C119.395 26.3981 121.307 31.1689 122.86 36.3064C124.414 41.4462 125.604 46.9402 125.692 51.8775C125.78 56.8201 124.763 61.1585 121.956 64.0421C116.274 69.8803 106.023 72.5724 95.7529 72.4429C85.4835 72.3135 75.2987 69.3639 69.761 64.0361C67.032 61.4105 65.9547 57.3427 65.9072 52.6584C65.8597 47.9797 66.8406 42.7333 68.1754 37.8085C69.5096 32.8862 71.1939 28.2981 72.5451 24.9395C73.2206 23.2606 73.8126 21.8898 74.2355 20.939C74.447 20.4636 74.6162 20.0933 74.7324 19.8421Z" fill="#132C45" stroke="#132C45" stroke-width="0.520147"/>
<path d="M78.2366 103.156L77.7074 108.552" stroke="#132C45" stroke-width="2.03219" stroke-linecap="round"/>
<path d="M95.8955 72.4035C97.2503 72.4035 99.689 71.8954 103.211 70.8793V76.8066L108.258 77.3485C108.506 84.5063 104.679 88.0852 96.7762 88.0852C88.8732 88.0852 85.1362 84.5063 85.5652 77.3485L90.1038 76.8066V71.3874C92.6102 72.0648 94.5407 72.4035 95.8955 72.4035Z" fill="#F0F4F5"/>
<path d="M115.895 109.492C115.444 98.3289 114.752 85.7594 113.821 82.048C112.949 78.5756 113.993 78.1121 108.34 77.4058C106.946 77.2315 105.478 77.1049 103.927 77.0162C105.122 77.161 106.305 77.3423 107.474 77.5602C108.095 84.6166 104.497 88.1449 96.6783 88.1449C88.86 88.1449 85.3601 84.6166 86.1786 77.5602C87.269 77.3448 88.3828 77.1652 89.5201 77.0213C88.1148 77.1065 86.7976 77.2263 85.5492 77.3901C80.276 78.0818 76.2298 79.557 71.9531 82.5137C67.3807 85.6748 64.8393 98.2585 64.3288 110M102.94 71.9276L103.575 79.8041M90.7048 72.0987L90.0699 79.8041" stroke="#132C45" stroke-width="2.03219" stroke-linecap="round" stroke-linejoin="round"/>
<path d="M121.328 32.1126C120.645 31.6593 119.533 31.4817 117.992 31.5797V41.0055C121.381 40.4727 122.616 37.3124 122.616 35.475C122.616 33.6376 122.353 32.7924 121.328 32.1126Z" fill="#F5FAFA" stroke="#132C45" stroke-width="1.94049"/>
<path d="M118.899 34.0224C118.531 33.7769 117.932 33.6807 117.102 33.7338V38.8394C118.927 38.5508 119.592 36.839 119.592 35.8437C119.592 34.8485 119.451 34.3907 118.899 34.0224Z" fill="#F5FAFA" stroke="#132C45" stroke-width="1.94049"/>
<path d="M70.598 32.1125C71.2079 31.6593 72.201 31.4817 73.5773 31.5797V41.0055C70.551 40.4727 69.4484 37.3124 69.4484 35.475C69.4484 33.6376 69.683 32.7924 70.598 32.1125Z" fill="#F5FAFA" stroke="#132C45" stroke-width="1.94049"/>
<path d="M72.7673 34.0224C73.0957 33.7769 73.6305 33.6807 74.3716 33.7338V38.8395C72.742 38.5508 72.1483 36.839 72.1483 35.8438C72.1483 34.8485 72.2747 34.3907 72.7673 34.0224Z" fill="#F5FAFA" stroke="#132C45" stroke-width="1.94049"/>
<path d="M95.8277 72.0986C105.518 72.0986 113.829 63.6939 117.355 51.7289C118.517 47.7839 118.52 43.4517 118.52 38.9062C118.52 31.2178 117.322 24.14 114.238 18.513C109.968 10.7232 103.309 5.71378 95.8277 5.71378C88.3311 5.71378 81.6603 10.7434 77.3916 18.5601C74.3229 24.1795 73.1349 31.2393 73.1349 38.9062C73.1349 43.4453 73.1361 47.7716 74.2955 51.7122C77.8184 63.6861 86.1324 72.0986 95.8277 72.0986Z" fill="white"/>
<path fill-rule="evenodd" clip-rule="evenodd" d="M86.0054 54.4864C89.5139 60.0273 92.9608 62.7978 96.3462 62.7978C99.7316 62.7978 103.076 60.0273 106.379 54.4864H86.0054Z" fill="white" stroke="#132C45" stroke-width="2.03219" stroke-linecap="round"/>
<path fill-rule="evenodd" clip-rule="evenodd" d="M96.0857 72.4374C105.63 72.4374 114.218 64.1437 117.923 51.5498C118.917 48.1736 119.117 45.2282 119.117 38.2288C119.117 29.6577 117.702 22.552 114.704 17.0749C110.212 8.86772 103.398 4.02032 96.0857 4.02032C88.7587 4.02032 81.9322 8.88773 77.4411 17.1235C74.4598 22.5906 73.0543 29.6756 73.0543 38.2288C73.0543 45.2324 73.2526 48.1616 74.243 51.5325C77.9456 64.1356 86.537 72.4374 96.0857 72.4374Z" stroke="#132C45" stroke-width="2.03219"/>
<path d="M106.327 36.874C107.824 36.874 109.037 35.6609 109.037 34.1645C109.037 32.668 107.824 31.4549 106.327 31.4549C104.831 31.4549 103.618 32.668 103.618 34.1645C103.618 35.6609 104.831 36.874 106.327 36.874Z" fill="#132C45"/>
<path d="M86.6828 36.874C88.1793 36.874 89.3924 35.6609 89.3924 34.1645C89.3924 32.668 88.1793 31.4549 86.6828 31.4549C85.1863 31.4549 83.9732 32.668 83.9732 34.1645C83.9732 35.6609 85.1863 36.874 86.6828 36.874Z" fill="#132C45"/>
<path d="M80.5864 29.8756C81.6643 27.3156 83.5977 26.0357 86.3867 26.0357C89.1757 26.0357 91.1091 27.3156 92.187 29.8756M100.231 29.8756C101.309 27.3156 103.242 26.0357 106.031 26.0357C108.82 26.0357 110.754 27.3156 111.832 29.8756M96.8546 37.8878C95.2543 41.7451 94.2694 44.1046 93.9001 44.9663C93.3462 46.2589 94.885 47.3668 95.8698 47.3668C96.5264 47.3668 97.7779 47.3668 99.6245 47.3668" stroke="#132C45" stroke-width="2.03219" stroke-linecap="round"/>
<path fill-rule="evenodd" clip-rule="evenodd" d="M82.7638 16.6202C83.3936 17.7121 84.1807 23.0153 88.3526 23.0153C92.5245 23.0153 100.553 19.2718 104.568 20.5196C108.582 21.7674 116.375 28.8643 117.241 32.9977C118.107 37.1311 122.83 23.7171 117.241 11.863C111.652 0.00883108 93.2329 -2.25282 83.7871 1.95853C74.3414 6.16987 74.9711 13.5007 74.9711 13.5007C74.9711 13.5007 69.4611 16.5423 69.4611 20.5196C69.4611 24.497 74.0265 34.5575 74.0265 34.5575C74.0265 34.5575 81.898 28.3964 82.7638 16.6202Z" fill="#132C45"/>
<path d="M134.037 65.5171L144.451 68.4689L147.575 66.0066L154.151 55.8483L157.162 51.9539L155.836 50.0339L154.652 49.6471L155.654 47.5368L153.595 45.7049L153.27 44.492L152.278 42.8076L151.249 42.596L151.561 40.1289L150.615 38.2154L148.648 38.7425L139.905 42.2229L132.975 42.1838L131.16 44.8912L131.02 50.0204L131.955 55.7286L133.634 59.7748L134.23 61.9987L134.037 65.5171Z" fill="white"/>
<path fill-rule="evenodd" clip-rule="evenodd" d="M148.21 40.8706L149.004 44.9002L148.335 46.6673L149.023 47.6378L150.846 48.9305L148.612 52.5023L149.83 54.2027L151.141 54.652L151.734 55.9782L140.056 58.9546L138.789 57.9616L132.657 35.0743L133.852 32.96L143.981 30.4188L145.802 31.8825L148.21 40.8706Z" fill="#50E3C2"/>
<path fill-rule="evenodd" clip-rule="evenodd" d="M144.204 70.3074C144.218 70.3509 144.218 70.3369 144.21 70.3003L144.204 70.3074ZM143.373 69.4286L142.262 71.965L137.359 72.3929L133.157 69.5106L134.427 66.4884L135.032 66.652L143.373 69.4286ZM131.968 66.6768L132.425 66.2438L133.354 64.7098L133.75 63.766C133.78 63.6451 133.803 63.4771 133.813 63.2796C133.831 62.9504 133.81 62.587 133.749 62.1957C133.569 61.0428 133.063 59.7906 132.219 58.4672C130.422 55.6433 129.744 50.1894 130.476 45.2858C130.508 45.0657 130.564 44.7892 130.638 44.5016C130.761 44.0206 130.918 43.5689 131.106 43.1624C131.646 41.9972 132.38 41.326 133.301 41.2244L133.529 41.1992L131.846 34.9168C131.545 33.7946 132.229 32.6331 133.368 32.328L143.389 29.6427C144.527 29.3378 145.698 30.0017 145.998 31.1246L147.96 38.4439L148.202 38.1942C148.439 37.9502 148.698 37.7612 148.978 37.6318C149.516 37.3863 150.094 37.3818 150.661 37.6185C151.56 37.9942 152.139 39.1233 152.172 40.3624C152.186 40.8385 152.108 41.3647 151.937 41.9578L151.883 42.1453L152.072 42.1987C152.399 42.2913 152.714 42.4471 153.003 42.6587C153.872 43.3008 154.283 44.297 154.02 45.1341L153.963 45.3179L154.147 45.3773C154.454 45.4765 154.744 45.6247 155.005 45.817C156.075 46.607 156.422 47.8996 155.789 48.7654L155.492 49.2107L155.345 49.4309L155.599 49.5054C155.889 49.5905 156.161 49.716 156.41 49.8799C157.023 50.283 157.451 50.8765 157.578 51.5044C157.672 51.9742 157.585 52.4367 157.332 52.8086L155.422 55.6228C155.231 55.9024 154.958 56.1137 154.62 56.2435L154.512 56.3437C151.845 62.0195 148.912 66.1501 145.944 68.1381L145.823 68.2194L144.21 70.3003C144.191 70.2163 144.131 70.0134 144.096 70.1174L143.729 69.5474L143.373 69.4286L144.173 67.6001L144.236 67.5711C147.062 66.2616 150.018 62.334 152.837 56.4892L152.925 56.3079L152.69 56.1993C152.622 56.1679 152.586 56.1503 152.549 56.1297L152.358 56.0251L152.279 56.2284C152.033 56.8579 151.506 57.3341 150.855 57.5088L140.937 60.1661C139.808 60.4686 138.646 59.7997 138.344 58.6743L136.315 51.1012C136.25 51.0234 136.221 50.9816 136.201 50.9406L134.717 48.0407C134.659 47.9241 134.632 47.7951 134.64 47.6698C134.719 46.3497 134.679 45.2721 134.531 44.4483L134.281 43.5146C134.126 43.1148 133.939 42.8446 133.749 42.7103L133.685 42.6651L133.608 42.6775C132.971 42.7798 132.329 43.9989 132.11 45.4771C131.451 50.0422 132.079 55.1804 133.669 57.6973C134.722 59.3639 135.314 60.9374 135.464 62.3855C135.514 62.8673 135.512 63.3142 135.461 63.7187C135.432 63.9573 135.389 64.1524 135.33 64.3264L135.086 64.9194L134.427 66.4884L133.521 66.2438L133.081 66.1254L132.936 66.0862L131.968 66.6768ZM131.968 66.6768L131 67.2675C131.162 66.9713 131.635 66.5895 131.968 66.6768ZM148.356 53.8854C148.555 54.2383 148.829 54.5526 149.166 54.8115C149.757 55.269 150.462 55.4885 151.102 55.4124L151.342 55.3839C151.342 55.3839 150.982 55.6285 150.709 55.7016L140.592 58.4125C140.243 58.5061 139.877 58.2865 139.778 57.9173L139.256 55.9673L136.023 43.8995C135.97 43.6357 135.898 43.3695 135.803 43.0825L133.686 35.1818C133.542 34.6433 133.862 34.0898 134.4 33.9455L143.675 31.4602C144.214 31.3159 144.767 31.6355 144.912 32.174L148.278 44.7373C148.289 44.7669 148.297 44.789 148.332 44.8766L148.332 44.8774L148.344 44.9077L148.279 44.9929L147.978 45.3875C147.318 46.2545 147.657 47.5577 148.734 48.3547C149.032 48.5738 149.364 48.7346 149.711 48.8277L149.971 48.8975L149.822 49.1209L148.167 51.5918C148.113 51.6659 148.047 51.79 147.968 51.9639C147.872 52.5961 147.976 53.1917 148.282 53.7506L148.356 53.8854ZM152.535 44.5202L152.515 44.5938L150.447 47.276L150.41 47.2961L150.399 47.302L150.396 47.3035L150.376 47.3116C150.358 47.318 150.353 47.3199 150.335 47.3245C150.096 47.3886 149.742 47.2933 149.444 47.0718C149.094 46.8138 148.889 46.4302 148.95 46.2272L148.971 46.1589L151.081 43.4463L151.145 43.429C151.384 43.365 151.738 43.4595 152.04 43.6812C152.384 43.9347 152.59 44.3164 152.535 44.5202ZM150.729 53.5796L150.78 53.566L154.704 47.8491L154.73 47.813L154.761 47.7516C154.82 47.5462 154.612 47.1642 154.26 46.9122C154.021 46.7394 153.743 46.6417 153.511 46.643L153.396 46.6067L153.335 46.5637L149.325 52.409L149.299 52.445L149.268 52.5065C149.21 52.7101 149.417 53.0912 149.767 53.3447C150.073 53.5656 150.433 53.6595 150.679 53.5954C150.706 53.587 150.707 53.5867 150.729 53.5796ZM148.693 40.3571L148.734 40.2898C148.757 40.2521 148.772 40.2224 148.782 40.1916C149.011 39.5282 149.423 38.9665 149.794 38.8006C149.952 38.7296 150.102 38.7288 150.289 38.8019C150.592 38.9201 150.883 39.5702 150.894 40.2005C150.904 40.7195 150.73 41.3827 150.372 42.192L150.352 42.236L150.313 42.2672C150.212 42.3484 150.126 42.4324 150.058 42.5178L149.471 43.262L148.693 40.3571ZM156.258 51.6063L156.241 51.6754L154.292 54.4176L154.258 54.4394C154.25 54.4442 154.247 54.4457 154.244 54.4472C154.243 54.4479 154.242 54.4486 154.24 54.4496C154.233 54.4529 154.233 54.4529 154.214 54.4621L154.213 54.4624C154.199 54.4684 154.178 54.4758 154.154 54.4821C153.912 54.5469 153.566 54.4727 153.265 54.2817C152.881 54.0385 152.675 53.7504 152.714 53.5688L152.73 53.4947L154.719 50.6552L154.73 50.6651C154.738 50.6597 154.741 50.658 154.744 50.6564C154.745 50.6556 154.747 50.6549 154.749 50.6538C154.751 50.6529 154.752 50.6523 154.753 50.6516C154.757 50.6497 154.761 50.6479 154.776 50.6408C154.79 50.6348 154.811 50.6275 154.835 50.6211C155.078 50.5561 155.426 50.6304 155.725 50.8206C156.084 51.0473 156.307 51.4073 156.258 51.6063Z" fill="#132C45"/>
<path d="M144.204 70.3074L143.983 70.1356C143.927 70.2078 143.909 70.3028 143.936 70.3902L144.204 70.3074ZM142.262 71.965L142.287 72.2443C142.389 72.2354 142.478 72.1714 142.519 72.0774L142.262 71.965ZM137.359 72.3929L137.2 72.6241C137.254 72.6609 137.318 72.6779 137.383 72.6722L137.359 72.3929ZM133.157 69.5106L132.898 69.402C132.847 69.5246 132.888 69.6666 132.998 69.7419L133.157 69.5106ZM135.032 66.652L135.121 66.3859C135.115 66.3842 135.11 66.3827 135.105 66.3813L135.032 66.652ZM132.425 66.2438L132.617 66.4473C132.636 66.4301 132.651 66.4105 132.664 66.3891L132.425 66.2438ZM131.968 66.6768L132.114 66.9162L132.114 66.9162L131.968 66.6768ZM133.354 64.7098L133.594 64.8551C133.601 64.8433 133.607 64.831 133.612 64.8183L133.354 64.7098ZM133.75 63.766L134.008 63.8744C134.014 63.8612 134.018 63.8476 134.022 63.8336L133.75 63.766ZM133.813 63.2796L134.093 63.2946L134.093 63.2946L133.813 63.2796ZM133.749 62.1957L133.472 62.2391L133.472 62.2391L133.749 62.1957ZM132.219 58.4672L131.982 58.6178L131.982 58.6181L132.219 58.4672ZM130.476 45.2858L130.753 45.3272L130.753 45.3263L130.476 45.2858ZM130.638 44.5016L130.366 44.432L130.366 44.432L130.638 44.5016ZM131.106 43.1624L131.361 43.2802L131.361 43.2802L131.106 43.1624ZM133.301 41.2244L133.27 40.9457L133.27 40.9457L133.301 41.2244ZM133.529 41.1992L133.56 41.4779C133.641 41.469 133.715 41.425 133.761 41.3574C133.807 41.2899 133.821 41.2056 133.8 41.1266L133.529 41.1992ZM131.846 34.9168L131.575 34.9894L131.846 34.9168ZM133.368 32.328L133.44 32.5988L133.368 32.328ZM143.389 29.6427L143.317 29.3719L143.389 29.6427ZM147.96 38.4439L147.689 38.5165C147.715 38.614 147.791 38.6899 147.889 38.7153C147.987 38.7407 148.091 38.7116 148.161 38.6392L147.96 38.4439ZM148.202 38.1942L148.001 37.9989L148.001 37.9989L148.202 38.1942ZM148.978 37.6318L148.862 37.3767L148.86 37.3773L148.978 37.6318ZM150.661 37.6185L150.553 37.8772L150.553 37.8773L150.661 37.6185ZM152.172 40.3624L151.892 40.3699L151.892 40.3708L152.172 40.3624ZM151.937 41.9578L151.668 41.88L151.668 41.88L151.937 41.9578ZM151.883 42.1453L151.614 42.0676C151.593 42.1393 151.602 42.2162 151.638 42.2814C151.674 42.3467 151.735 42.3948 151.807 42.4151L151.883 42.1453ZM152.072 42.1987L152.148 41.9289L152.148 41.9289L152.072 42.1987ZM153.003 42.6587L153.169 42.4332L153.168 42.4326L153.003 42.6587ZM154.02 45.1341L154.288 45.218L154.288 45.218L154.02 45.1341ZM153.963 45.3179L153.695 45.2339C153.649 45.3808 153.73 45.5374 153.877 45.5847L153.963 45.3179ZM154.147 45.3773L154.061 45.6441L154.061 45.6441L154.147 45.3773ZM155.005 45.817L155.172 45.5914L155.171 45.5911L155.005 45.817ZM155.789 48.7654L155.562 48.5997L155.556 48.6097L155.789 48.7654ZM155.492 49.2107L155.259 49.0551L155.258 49.0553L155.492 49.2107ZM155.345 49.4309L155.112 49.2754C155.062 49.3496 155.051 49.4429 155.082 49.5267C155.112 49.6105 155.181 49.6748 155.266 49.6999L155.345 49.4309ZM155.599 49.5054L155.678 49.2364L155.678 49.2364L155.599 49.5054ZM156.41 49.8799L156.255 50.1139L156.256 50.1141L156.41 49.8799ZM157.578 51.5044L157.853 51.4498L157.853 51.4486L157.578 51.5044ZM157.332 52.8086L157.1 52.6509L157.1 52.6511L157.332 52.8086ZM155.422 55.6228L155.654 55.7808L155.654 55.7802L155.422 55.6228ZM154.62 56.2435L154.519 55.9818C154.486 55.9946 154.456 56.0137 154.429 56.038L154.62 56.2435ZM154.512 56.3437L154.321 56.1382C154.295 56.1626 154.274 56.1919 154.259 56.2244L154.512 56.3437ZM145.944 68.1381L146.1 68.371L146.1 68.371L145.944 68.1381ZM145.823 68.2194L145.667 67.9865C145.642 68.0032 145.62 68.0238 145.601 68.0476L145.823 68.2194ZM144.096 70.1174L143.861 70.2692C143.919 70.3598 144.024 70.409 144.131 70.3956C144.238 70.3822 144.328 70.3087 144.362 70.2064L144.096 70.1174ZM143.729 69.5474L143.965 69.3955C143.93 69.3418 143.878 69.3015 143.818 69.2813L143.729 69.5474ZM144.173 67.6001L144.055 67.3457C143.993 67.3744 143.944 67.4249 143.916 67.4876L144.173 67.6001ZM144.236 67.5711L144.353 67.8255L144.353 67.8255L144.236 67.5711ZM152.837 56.4892L152.585 56.3674L152.585 56.3674L152.837 56.4892ZM152.925 56.3079L153.177 56.4297C153.21 56.3621 153.214 56.2842 153.189 56.2135C153.163 56.1428 153.111 56.0852 153.043 56.0536L152.925 56.3079ZM152.69 56.1993L152.808 55.9449L152.808 55.9446L152.69 56.1993ZM152.549 56.1297L152.414 56.3756L152.414 56.3756L152.549 56.1297ZM152.358 56.0251L152.493 55.7792C152.422 55.7404 152.338 55.734 152.262 55.7615C152.186 55.7891 152.126 55.848 152.097 55.9232L152.358 56.0251ZM152.279 56.2284L152.54 56.3303L152.54 56.3303L152.279 56.2284ZM136.315 51.1012L136.586 51.0287C136.575 50.9892 136.556 50.9525 136.53 50.9211L136.315 51.1012ZM136.201 50.9406L136.452 50.8155L136.45 50.8129L136.201 50.9406ZM134.717 48.0407L134.465 48.1649L134.467 48.1685L134.717 48.0407ZM134.64 47.6698L134.92 47.6879L134.92 47.6864L134.64 47.6698ZM134.531 44.4483L134.807 44.3987C134.805 44.391 134.804 44.3834 134.802 44.3758L134.531 44.4483ZM134.281 43.5146L134.552 43.4421C134.549 43.4323 134.546 43.4227 134.542 43.4133L134.281 43.5146ZM133.749 42.7103L133.91 42.481L133.91 42.481L133.749 42.7103ZM133.685 42.6651L133.846 42.4358C133.786 42.3937 133.712 42.3767 133.64 42.3883L133.685 42.6651ZM133.608 42.6775L133.563 42.4006L133.563 42.4006L133.608 42.6775ZM132.11 45.4771L131.832 45.4361L131.832 45.4371L132.11 45.4771ZM133.669 57.6973L133.906 57.5476L133.906 57.5475L133.669 57.6973ZM135.464 62.3855L135.185 62.4145L135.185 62.4145L135.464 62.3855ZM135.461 63.7187L135.183 63.6839L135.183 63.6839L135.461 63.7187ZM135.33 64.3264L135.589 64.4332C135.592 64.4277 135.594 64.4222 135.596 64.4166L135.33 64.3264ZM135.086 64.9194L135.345 65.028L135.345 65.0261L135.086 64.9194ZM133.521 66.2438L133.594 65.9731L133.594 65.973L133.521 66.2438ZM133.081 66.1254L133.154 65.8546L133.154 65.8546L133.081 66.1254ZM132.936 66.0862L133.008 65.8154C132.934 65.7955 132.855 65.8068 132.789 65.8468L132.936 66.0862ZM131 67.2675L130.754 67.1329C130.693 67.2443 130.714 67.3828 130.806 67.4704C130.898 67.558 131.037 67.573 131.146 67.5068L131 67.2675ZM149.166 54.8115L149.337 54.5897L149.337 54.5893L149.166 54.8115ZM148.356 53.8854L148.111 54.021L148.112 54.0231L148.356 53.8854ZM151.102 55.4124L151.069 55.134L151.069 55.134L151.102 55.4124ZM151.342 55.3839L151.5 55.6158C151.606 55.5432 151.65 55.4069 151.605 55.2858C151.559 55.1647 151.437 55.0903 151.309 55.1055L151.342 55.3839ZM139.778 57.9173L140.049 57.8447L139.778 57.9173ZM139.256 55.9673L138.985 56.0398L138.985 56.0399L139.256 55.9673ZM136.023 43.8995L135.748 43.955C135.749 43.9608 135.751 43.9664 135.752 43.972L136.023 43.8995ZM135.803 43.0825L135.532 43.1551C135.534 43.1603 135.535 43.1655 135.537 43.1706L135.803 43.0825ZM133.686 35.1818L133.957 35.1092L133.957 35.1092L133.686 35.1818ZM134.4 33.9455L134.473 34.2164L134.4 33.9455ZM143.675 31.4602L143.603 31.1894L143.675 31.4602ZM144.912 32.174L144.641 32.2466L144.912 32.174ZM148.278 44.7373L148.007 44.8098C148.009 44.8177 148.012 44.8255 148.015 44.8332L148.278 44.7373ZM148.332 44.8766L148.593 44.775L148.593 44.7748L148.332 44.8766ZM148.332 44.8774L148.071 44.9789L148.071 44.9791L148.332 44.8774ZM148.344 44.9077L148.567 45.0776C148.626 44.9999 148.64 44.8969 148.605 44.8059L148.344 44.9077ZM148.279 44.9929L148.056 44.823L148.056 44.823L148.279 44.9929ZM147.978 45.3875L148.201 45.5574L148.201 45.5574L147.978 45.3875ZM148.734 48.3547L148.568 48.5802L148.568 48.5805L148.734 48.3547ZM149.711 48.8277L149.639 49.0985L149.639 49.0985L149.711 48.8277ZM149.971 48.8975L150.204 49.0535C150.255 48.9783 150.266 48.8836 150.234 48.7989C150.202 48.7143 150.131 48.6501 150.044 48.6267L149.971 48.8975ZM149.822 49.1209L150.055 49.2769L150.055 49.2769L149.822 49.1209ZM148.167 51.5918L148.394 51.7574L148.4 51.7478L148.167 51.5918ZM147.968 51.9639L147.713 51.8486C147.702 51.8718 147.695 51.8963 147.691 51.9215L147.968 51.9639ZM148.282 53.7506L148.036 53.8851L148.036 53.8862L148.282 53.7506ZM152.515 44.5938L152.737 44.765C152.76 44.7359 152.776 44.7026 152.786 44.667L152.515 44.5938ZM152.535 44.5202L152.264 44.4469L152.264 44.4469L152.535 44.5202ZM150.447 47.276L150.582 47.5218C150.616 47.5032 150.646 47.4778 150.669 47.4472L150.447 47.276ZM150.41 47.2961L150.537 47.5464L150.545 47.5419L150.41 47.2961ZM150.399 47.302L150.519 47.5553L150.526 47.5521L150.399 47.302ZM150.396 47.3035L150.504 47.5624L150.516 47.5567L150.396 47.3035ZM150.376 47.3116L150.471 47.5755C150.476 47.5739 150.48 47.5721 150.485 47.5702L150.376 47.3116ZM149.444 47.0718L149.611 46.8468L149.61 46.8462L149.444 47.0718ZM148.95 46.2272L149.218 46.3084L149.218 46.3084L148.95 46.2272ZM148.971 46.1589L148.749 45.9868C148.728 46.0139 148.712 46.0448 148.702 46.0778L148.971 46.1589ZM151.081 43.4463L151.008 43.1755C150.949 43.1913 150.897 43.2259 150.859 43.2742L151.081 43.4463ZM152.04 43.6812L152.207 43.4556L152.206 43.4551L152.04 43.6812ZM150.78 53.566L150.852 53.8368C150.917 53.8195 150.973 53.7798 151.011 53.7247L150.78 53.566ZM150.729 53.5796L150.656 53.3088C150.651 53.31 150.647 53.3114 150.642 53.3129L150.729 53.5796ZM154.704 47.8491L154.478 47.6829L154.472 47.6905L154.704 47.8491ZM154.73 47.813L154.956 47.9792C154.966 47.9661 154.974 47.9522 154.981 47.9376L154.73 47.813ZM154.761 47.7516L155.012 47.8761C155.019 47.861 155.026 47.8452 155.03 47.8289L154.761 47.7516ZM154.26 46.9122L154.096 47.1396L154.097 47.1401L154.26 46.9122ZM153.511 46.643L153.427 46.9104C153.455 46.9192 153.484 46.9236 153.513 46.9234L153.511 46.643ZM153.396 46.6067L153.234 46.8356C153.258 46.8524 153.284 46.8654 153.312 46.8741L153.396 46.6067ZM153.335 46.5637L153.497 46.3347C153.436 46.2914 153.36 46.2745 153.286 46.2877C153.212 46.3009 153.147 46.3432 153.104 46.4051L153.335 46.5637ZM149.325 52.409L149.551 52.5753L149.556 52.5676L149.325 52.409ZM149.299 52.445L149.073 52.2788C149.063 52.2919 149.055 52.3059 149.048 52.3204L149.299 52.445ZM149.268 52.5065L149.017 52.3819C149.009 52.3971 149.003 52.4129 148.999 52.4291L149.268 52.5065ZM149.767 53.3447L149.603 53.5718L149.603 53.5721L149.767 53.3447ZM150.679 53.5954L150.75 53.867L150.762 53.8632L150.679 53.5954ZM148.734 40.2898L148.495 40.1432L148.495 40.1432L148.734 40.2898ZM148.693 40.3571L148.454 40.2105C148.414 40.2761 148.402 40.3553 148.422 40.4296L148.693 40.3571ZM148.782 40.1916L148.517 40.1002L148.516 40.1051L148.782 40.1916ZM149.794 38.8006L149.909 39.0566L149.91 39.0562L149.794 38.8006ZM150.289 38.8019L150.187 39.0629L150.187 39.0631L150.289 38.8019ZM150.894 40.2005L150.614 40.2055L150.614 40.2056L150.894 40.2005ZM150.372 42.192L150.116 42.0784L150.116 42.0784L150.372 42.192ZM150.352 42.236L150.528 42.4548C150.563 42.4267 150.591 42.3906 150.609 42.3496L150.352 42.236ZM150.313 42.2672L150.138 42.0484L150.138 42.0484L150.313 42.2672ZM150.058 42.5178L149.839 42.343L149.838 42.3441L150.058 42.5178ZM149.471 43.262L149.2 43.3346C149.228 43.4371 149.311 43.5153 149.415 43.5367C149.519 43.558 149.626 43.5189 149.692 43.4356L149.471 43.262ZM156.241 51.6754L156.469 51.8379C156.49 51.8092 156.504 51.7769 156.513 51.7427L156.241 51.6754ZM156.258 51.6063L155.985 51.539L155.985 51.539L156.258 51.6063ZM154.292 54.4176L154.443 54.654C154.473 54.6346 154.499 54.6095 154.52 54.5801L154.292 54.4176ZM154.258 54.4394L154.401 54.6807L154.408 54.6758L154.258 54.4394ZM154.244 54.4472L154.107 54.2027L154.107 54.2027L154.244 54.4472ZM154.24 54.4496L154.364 54.7013L154.374 54.6957L154.24 54.4496ZM154.214 54.4621L154.332 54.7162L154.332 54.7161L154.214 54.4621ZM154.213 54.4624L154.323 54.7203L154.331 54.7166L154.213 54.4624ZM153.265 54.2817L153.416 54.0449L153.415 54.0447L153.265 54.2817ZM152.714 53.5688L152.988 53.6275L152.988 53.6275L152.714 53.5688ZM152.73 53.4947L152.5 53.3338C152.479 53.3646 152.464 53.3993 152.456 53.4359L152.73 53.4947ZM154.719 50.6552L154.905 50.446C154.845 50.3926 154.766 50.3674 154.686 50.3767C154.607 50.3859 154.535 50.4287 154.489 50.4943L154.719 50.6552ZM154.73 50.6651L154.543 50.8743C154.635 50.9563 154.77 50.9687 154.875 50.9049L154.73 50.6651ZM154.744 50.6564L154.883 50.9001L154.883 50.9001L154.744 50.6564ZM154.749 50.6538L154.624 50.4023L154.613 50.4083L154.749 50.6538ZM154.753 50.6516L154.876 50.9035L154.877 50.9034L154.753 50.6516ZM154.776 50.6408L154.665 50.3831L154.657 50.387L154.776 50.6408ZM155.725 50.8206L155.575 51.0572L155.576 51.0577L155.725 50.8206ZM143.936 70.3902C143.94 70.4023 143.946 70.4204 143.953 70.4377C143.953 70.4379 143.966 70.4724 143.993 70.5066C144.001 70.517 144.019 70.5386 144.047 70.5595C144.073 70.5784 144.137 70.6191 144.229 70.6144C144.334 70.6091 144.404 70.5492 144.44 70.5015C144.471 70.46 144.482 70.4204 144.487 70.404C144.495 70.3693 144.496 70.3408 144.496 70.3337C144.496 70.3221 144.495 70.3125 144.494 70.3069C144.494 70.2954 144.492 70.2855 144.491 70.2793C144.489 70.2662 144.486 70.2526 144.484 70.2406L143.936 70.3599C143.937 70.3662 143.937 70.3682 143.937 70.3666C143.937 70.3662 143.936 70.3611 143.936 70.3533C143.935 70.3495 143.935 70.3415 143.935 70.3311C143.935 70.3253 143.935 70.2978 143.944 70.2637C143.948 70.2477 143.959 70.2083 143.99 70.167C144.025 70.1194 144.095 70.0597 144.201 70.0543C144.292 70.0497 144.356 70.0903 144.381 70.109C144.409 70.1298 144.427 70.1511 144.435 70.1612C144.451 70.182 144.461 70.2003 144.463 70.2053C144.467 70.213 144.47 70.219 144.471 70.2218C144.474 70.2307 144.475 70.2342 144.472 70.2245L143.936 70.3902ZM143.988 70.1285L143.983 70.1356L144.426 70.4791L144.431 70.4721L143.988 70.1285ZM143.116 69.3162L142.005 71.8525L142.519 72.0774L143.629 69.5411L143.116 69.3162ZM142.238 71.6856L137.334 72.1135L137.383 72.6722L142.287 72.2443L142.238 71.6856ZM137.517 72.1616L133.315 69.2794L132.998 69.7419L137.2 72.6241L137.517 72.1616ZM133.415 69.6193L134.685 66.5971L134.168 66.3798L132.898 69.402L133.415 69.6193ZM134.354 66.7591L134.959 66.9227L135.105 66.3813L134.5 66.2177L134.354 66.7591ZM134.943 66.918L143.284 69.6947L143.461 69.1626L135.121 66.3859L134.943 66.918ZM132.232 66.0403L131.775 66.4733L132.16 66.8804L132.617 66.4473L132.232 66.0403ZM133.114 64.5645L132.185 66.0985L132.664 66.3891L133.594 64.8551L133.114 64.5645ZM133.491 63.6575L133.095 64.6014L133.612 64.8183L134.008 63.8744L133.491 63.6575ZM133.533 63.2646C133.523 63.4512 133.502 63.6003 133.477 63.6984L134.022 63.8336C134.057 63.6899 134.082 63.5031 134.093 63.2946L133.533 63.2646ZM133.472 62.2391C133.531 62.614 133.55 62.9577 133.533 63.2646L134.093 63.2946C134.112 62.9432 134.09 62.5601 134.026 62.1524L133.472 62.2391ZM131.982 58.6181C132.812 59.9178 133.299 61.1337 133.472 62.2391L134.026 62.1524C133.838 60.9518 133.314 59.6633 132.455 58.3164L131.982 58.6181ZM130.198 45.2444C129.828 47.722 129.815 50.3375 130.121 52.6925C130.426 55.0425 131.053 57.1574 131.982 58.6178L132.455 58.3167C131.588 56.9532 130.977 54.9291 130.677 52.6202C130.378 50.3164 130.391 47.7531 130.753 45.3272L130.198 45.2444ZM130.366 44.432C130.291 44.7271 130.232 45.0135 130.198 45.2452L130.753 45.3263C130.783 45.1179 130.838 44.8512 130.909 44.5713L130.366 44.432ZM130.852 43.0446C130.655 43.4687 130.493 43.9368 130.366 44.432L130.909 44.5713C131.029 44.1043 131.18 43.6691 131.361 43.2802L130.852 43.0446ZM133.27 40.9457C132.211 41.0625 131.412 41.8346 130.852 43.0446L131.361 43.2802C131.879 42.1599 132.548 41.5895 133.332 41.5031L133.27 40.9457ZM133.499 40.9205L133.27 40.9457L133.332 41.5031L133.56 41.4779L133.499 40.9205ZM131.575 34.9894L133.258 41.2718L133.8 41.1266L132.117 34.8442L131.575 34.9894ZM133.295 32.0572C132.011 32.4012 131.233 33.7135 131.575 34.9894L132.117 34.8442C131.857 33.8757 132.447 32.8649 133.44 32.5988L133.295 32.0572ZM143.317 29.3719L133.295 32.0572L133.44 32.5988L143.462 29.9136L143.317 29.3719ZM146.269 31.0521C145.927 29.7759 144.6 29.0279 143.317 29.3719L143.462 29.9136C144.454 29.6478 145.468 30.2276 145.728 31.1972L146.269 31.0521ZM148.23 38.3713L146.269 31.0521L145.728 31.1972L147.689 38.5165L148.23 38.3713ZM148.001 37.9989L147.758 38.2486L148.161 38.6392L148.403 38.3895L148.001 37.9989ZM148.86 37.3773C148.545 37.5229 148.258 37.7333 148.001 37.9989L148.403 38.3895C148.619 38.1671 148.851 37.9996 149.096 37.8864L148.86 37.3773ZM150.769 37.3598C150.133 37.0943 149.474 37.0974 148.862 37.3767L149.094 37.887C149.559 37.6752 150.055 37.6694 150.553 37.8772L150.769 37.3598ZM152.452 40.3549C152.418 39.0564 151.81 37.7946 150.769 37.3598L150.553 37.8773C151.31 38.1937 151.86 39.1901 151.892 40.3699L152.452 40.3549ZM152.207 42.0355C152.384 41.4225 152.468 40.8665 152.452 40.354L151.892 40.3708C151.905 40.8104 151.833 41.3069 151.668 41.88L152.207 42.0355ZM152.153 42.223L152.207 42.0355L151.668 41.88L151.614 42.0676L152.153 42.223ZM152.148 41.9289L151.96 41.8755L151.807 42.4151L151.995 42.4685L152.148 41.9289ZM153.168 42.4326C152.854 42.2022 152.509 42.0311 152.148 41.9289L151.995 42.4685C152.288 42.5515 152.574 42.692 152.837 42.8848L153.168 42.4326ZM154.288 45.218C154.596 44.2356 154.106 43.1247 153.169 42.4332L152.836 42.8843C153.638 43.4769 153.97 44.3584 153.753 45.0501L154.288 45.218ZM154.23 45.4018L154.288 45.218L153.753 45.0501L153.695 45.2339L154.23 45.4018ZM154.233 45.1105L154.049 45.0511L153.877 45.5847L154.061 45.6441L154.233 45.1105ZM155.171 45.5911C154.885 45.381 154.569 45.2189 154.233 45.1105L154.061 45.6441C154.339 45.734 154.602 45.8684 154.839 46.0429L155.171 45.5911ZM156.015 48.9309C156.772 47.8967 156.317 46.4371 155.172 45.5914L154.838 46.0426C155.833 46.7768 156.073 47.9024 155.563 48.5998L156.015 48.9309ZM155.725 49.3664L156.022 48.921L155.556 48.6097L155.259 49.0551L155.725 49.3664ZM155.579 49.5863L155.725 49.3662L155.258 49.0553L155.112 49.2754L155.579 49.5863ZM155.678 49.2364L155.424 49.1618L155.266 49.6999L155.52 49.7745L155.678 49.2364ZM156.564 49.6458C156.292 49.4663 155.994 49.3291 155.678 49.2364L155.52 49.7745C155.784 49.8519 156.031 49.9657 156.255 50.1139L156.564 49.6458ZM157.853 51.4486C157.709 50.7364 157.229 50.083 156.564 49.6456L156.256 50.1141C156.817 50.4829 157.193 51.0167 157.304 51.5602L157.853 51.4486ZM157.563 52.9663C157.862 52.5277 157.96 51.9877 157.853 51.4498L157.303 51.5591C157.383 51.9608 157.307 52.3457 157.1 52.6509L157.563 52.9663ZM155.654 55.7802L157.564 52.966L157.1 52.6511L155.19 55.4653L155.654 55.7802ZM154.721 56.5052C155.107 56.3566 155.428 56.1111 155.654 55.7808L155.19 55.4648C155.034 55.6938 154.808 55.8708 154.519 55.9818L154.721 56.5052ZM154.703 56.5491L154.811 56.449L154.429 56.038L154.321 56.1382L154.703 56.5491ZM146.1 68.371C149.133 66.3393 152.093 62.1507 154.766 56.4629L154.259 56.2244C151.597 61.8883 148.69 65.9609 145.788 67.9051L146.1 68.371ZM145.979 68.4524L146.1 68.371L145.788 67.9051L145.667 67.9865L145.979 68.4524ZM144.431 70.4721L146.045 68.3912L145.601 68.0476L143.988 70.1285L144.431 70.4721ZM144.362 70.2064C144.361 70.2113 144.356 70.2232 144.348 70.2385C144.34 70.253 144.323 70.2799 144.292 70.3061C144.258 70.3343 144.208 70.3617 144.144 70.3676C144.081 70.3734 144.03 70.3562 143.995 70.3383C143.938 70.3078 143.911 70.2659 143.91 70.2634C143.903 70.2538 143.902 70.2489 143.904 70.2533C143.914 70.2757 143.928 70.3257 143.936 70.3599L144.484 70.2407C144.473 70.1909 144.448 70.0974 144.415 70.0233C144.406 70.0036 144.393 69.9776 144.376 69.9514C144.363 69.9323 144.326 69.8784 144.257 69.8422C144.218 69.8214 144.161 69.8029 144.092 69.8092C144.023 69.8156 143.968 69.8453 143.93 69.8778C143.864 69.9332 143.839 70.0026 143.831 70.0283L144.362 70.2064ZM143.494 69.6992L143.861 70.2692L144.332 69.9655L143.965 69.3955L143.494 69.6992ZM143.284 69.6947L143.641 69.8134L143.818 69.2813L143.461 69.1626L143.284 69.6947ZM143.916 67.4876L143.116 69.3162L143.629 69.5411L144.43 67.7125L143.916 67.4876ZM144.118 67.3167L144.055 67.3457L144.291 67.8545L144.353 67.8255L144.118 67.3167ZM152.585 56.3674C151.18 59.2789 149.746 61.7038 148.317 63.5598C146.885 65.4193 145.472 66.689 144.118 67.3167L144.353 67.8255C145.825 67.1438 147.304 65.7949 148.761 63.902C150.221 62.0057 151.675 59.5444 153.09 56.6111L152.585 56.3674ZM152.672 56.1861L152.585 56.3674L153.09 56.6111L153.177 56.4297L152.672 56.1861ZM152.572 56.4536L152.807 56.5623L153.043 56.0536L152.808 55.9449L152.572 56.4536ZM152.414 56.3756C152.46 56.4008 152.503 56.4217 152.573 56.4539L152.808 55.9446C152.742 55.9142 152.713 55.8997 152.684 55.8839L152.414 56.3756ZM152.223 56.2709L152.414 56.3756L152.684 55.8839L152.493 55.7792L152.223 56.2709ZM152.54 56.3303L152.619 56.127L152.097 55.9232L152.018 56.1265L152.54 56.3303ZM150.927 57.7796C151.666 57.5816 152.262 57.0419 152.54 56.3303L152.018 56.1265C151.804 56.6739 151.346 57.0867 150.782 57.2379L150.927 57.7796ZM141.01 60.4369L150.927 57.7796L150.782 57.2379L140.865 59.8952L141.01 60.4369ZM138.073 58.7469C138.415 60.0227 139.732 60.7793 141.01 60.4369L140.865 59.8952C139.884 60.1579 138.876 59.5768 138.615 58.6017L138.073 58.7469ZM136.044 51.1738L138.073 58.7469L138.615 58.6017L136.586 51.0287L136.044 51.1738ZM135.95 51.0657C135.985 51.1361 136.03 51.1978 136.1 51.2813L136.53 50.9211C136.469 50.849 136.457 50.827 136.452 50.8155L135.95 51.0657ZM134.467 48.1685L135.951 51.0683L136.45 50.8129L134.966 47.913L134.467 48.1685ZM134.36 47.6517C134.349 47.8286 134.387 48.0065 134.465 48.1649L134.968 47.9165C134.931 47.8417 134.915 47.7616 134.92 47.6879L134.36 47.6517ZM134.255 44.4979C134.397 45.2918 134.438 46.3451 134.36 47.6532L134.92 47.6864C134.999 46.3543 134.96 45.2525 134.807 44.3987L134.255 44.4979ZM134.01 43.5871L134.26 44.5208L134.802 44.3758L134.552 43.4421L134.01 43.5871ZM133.587 42.9396C133.712 43.0274 133.873 43.2374 134.019 43.6159L134.542 43.4133C134.379 42.9922 134.167 42.6617 133.91 42.481L133.587 42.9396ZM133.523 42.8944L133.587 42.9396L133.91 42.481L133.846 42.4358L133.523 42.8944ZM133.652 42.9543L133.729 42.942L133.64 42.3883L133.563 42.4006L133.652 42.9543ZM132.387 45.5182C132.493 44.8046 132.7 44.1621 132.95 43.6932C133.075 43.4585 133.206 43.2757 133.333 43.1494C133.463 43.0214 133.571 42.9673 133.652 42.9543L133.563 42.4006C133.326 42.4388 133.116 42.5754 132.939 42.751C132.76 42.9283 132.597 43.1618 132.455 43.4295C132.169 43.9652 131.946 44.6715 131.832 45.4361L132.387 45.5182ZM133.906 57.5475C133.143 56.3389 132.596 54.4717 132.325 52.3202C132.054 50.1749 132.062 47.7744 132.387 45.5172L131.832 45.4371C131.499 47.745 131.492 50.1961 131.768 52.3903C132.044 54.5784 132.606 56.5387 133.432 57.847L133.906 57.5475ZM135.743 62.3565C135.587 60.8545 134.975 59.24 133.906 57.5476L133.432 57.847C134.468 59.4878 135.041 61.0203 135.185 62.4145L135.743 62.3565ZM135.74 63.7536C135.793 63.3251 135.795 62.8565 135.743 62.3565L135.185 62.4145C135.233 62.878 135.231 63.3034 135.183 63.6839L135.74 63.7536ZM135.596 64.4166C135.662 64.2202 135.708 64.0058 135.74 63.7536L135.183 63.6839C135.155 63.9088 135.116 64.0846 135.065 64.2363L135.596 64.4166ZM135.345 65.0261L135.589 64.4332L135.071 64.2197L134.827 64.8126L135.345 65.0261ZM134.685 66.5971L135.345 65.028L134.828 64.8107L134.168 66.3798L134.685 66.5971ZM133.448 66.5145L134.354 66.7591L134.5 66.2177L133.594 65.9731L133.448 66.5145ZM133.008 66.3961L133.448 66.5145L133.594 65.973L133.154 65.8546L133.008 66.3961ZM132.863 66.3569L133.008 66.3961L133.154 65.8546L133.008 65.8154L132.863 66.3569ZM132.114 66.9162L133.082 66.3255L132.789 65.8468L131.822 66.4375L132.114 66.9162ZM131.822 66.4375L130.854 67.0281L131.146 67.5068L132.114 66.9162L131.822 66.4375ZM131.246 67.402C131.301 67.3002 131.426 67.1622 131.576 67.0608C131.737 66.9522 131.85 66.936 131.896 66.948L132.039 66.4056C131.752 66.3304 131.462 66.4614 131.263 66.5959C131.053 66.7377 130.86 66.9386 130.754 67.1329L131.246 67.402ZM149.337 54.5893C149.029 54.3524 148.78 54.0665 148.6 53.7477L148.112 54.0231C148.33 54.4101 148.63 54.7528 148.995 55.0337L149.337 54.5893ZM151.069 55.134C150.514 55.1999 149.881 55.0102 149.337 54.5897L148.994 55.0333C149.634 55.5278 150.41 55.777 151.135 55.6908L151.069 55.134ZM151.309 55.1055L151.069 55.134L151.135 55.6908L151.375 55.6624L151.309 55.1055ZM150.782 55.9724C150.954 55.9262 151.138 55.832 151.266 55.7593C151.333 55.7214 151.391 55.6861 151.431 55.6602C151.452 55.6472 151.469 55.6364 151.48 55.6288C151.486 55.6249 151.491 55.6219 151.494 55.6197C151.495 55.6186 151.497 55.6177 151.498 55.6171C151.498 55.6168 151.499 55.6165 151.499 55.6163C151.499 55.6162 151.499 55.6161 151.499 55.616C151.499 55.616 151.499 55.616 151.499 55.6159C151.499 55.6159 151.499 55.6159 151.499 55.6159C151.499 55.6159 151.5 55.6158 151.342 55.3839C151.184 55.152 151.184 55.152 151.184 55.152C151.184 55.152 151.184 55.152 151.184 55.152C151.184 55.152 151.184 55.1519 151.184 55.1519C151.184 55.1519 151.184 55.1519 151.184 55.1519C151.184 55.152 151.184 55.1521 151.184 55.1522C151.184 55.1525 151.183 55.153 151.182 55.1537C151.18 55.1551 151.176 55.1574 151.172 55.1604C151.163 55.1664 151.149 55.1753 151.131 55.1864C151.096 55.2086 151.047 55.239 150.99 55.2714C150.87 55.3393 150.737 55.4038 150.637 55.4308L150.782 55.9724ZM140.664 58.6834L150.782 55.9724L150.637 55.4308L140.519 58.1417L140.664 58.6834ZM139.508 57.9899C139.644 58.4975 140.155 58.82 140.664 58.6834L140.519 58.1417C140.33 58.1923 140.111 58.0755 140.049 57.8447L139.508 57.9899ZM138.985 56.0399L139.508 57.9899L140.049 57.8447L139.527 55.8947L138.985 56.0399ZM135.752 43.972L138.985 56.0398L139.527 55.8947L136.294 43.8269L135.752 43.972ZM135.537 43.1706C135.629 43.4483 135.697 43.7035 135.748 43.955L136.298 43.8439C136.242 43.5679 136.168 43.2908 136.069 42.9944L135.537 43.1706ZM133.416 35.2543L135.532 43.1551L136.074 43.0099L133.957 35.1092L133.416 35.2543ZM134.328 33.6747C133.64 33.859 133.231 34.5663 133.416 35.2543L133.957 35.1092C133.853 34.7203 134.084 34.3206 134.473 34.2164L134.328 33.6747ZM143.603 31.1894L134.328 33.6747L134.473 34.2164L143.748 31.7311L143.603 31.1894ZM145.183 32.1014C144.998 31.4134 144.291 31.005 143.603 31.1894L143.748 31.7311C144.137 31.6269 144.537 31.8577 144.641 32.2466L145.183 32.1014ZM148.549 44.6647L145.183 32.1014L144.641 32.2466L148.007 44.8098L148.549 44.6647ZM148.593 44.7748C148.558 44.6859 148.551 44.6673 148.542 44.6414L148.015 44.8332C148.027 44.8664 148.037 44.8921 148.07 44.9783L148.593 44.7748ZM148.593 44.7758L148.593 44.775L148.07 44.9781L148.071 44.9789L148.593 44.7758ZM148.605 44.8059L148.593 44.7756L148.071 44.9791L148.082 45.0094L148.605 44.8059ZM148.502 45.1628L148.567 45.0776L148.121 44.7377L148.056 44.823L148.502 45.1628ZM148.201 45.5574L148.502 45.1628L148.056 44.823L147.755 45.2175L148.201 45.5574ZM148.901 48.1293C147.9 47.3888 147.669 46.2562 148.201 45.5574L147.755 45.2175C146.966 46.2529 147.413 47.7266 148.568 48.5802L148.901 48.1293ZM149.784 48.5569C149.472 48.4731 149.171 48.3278 148.901 48.129L148.568 48.5805C148.893 48.8198 149.257 48.9961 149.639 49.0985L149.784 48.5569ZM150.044 48.6267L149.784 48.5569L149.639 49.0985L149.899 49.1683L150.044 48.6267ZM150.055 49.2769L150.204 49.0535L149.738 48.7415L149.589 48.9649L150.055 49.2769ZM148.4 51.7478L150.055 49.2769L149.589 48.9649L147.934 51.4358L148.4 51.7478ZM148.224 52.0792C148.301 51.9083 148.358 51.8066 148.394 51.7572L147.941 51.4263C147.869 51.5252 147.793 51.6716 147.713 51.8486L148.224 52.0792ZM148.528 53.6161C148.252 53.1114 148.158 52.578 148.246 52.0063L147.691 51.9215C147.585 52.6142 147.7 53.2719 148.036 53.8851L148.528 53.6161ZM148.602 53.7498L148.527 53.615L148.036 53.8862L148.111 54.021L148.602 53.7498ZM152.786 44.667L152.806 44.5934L152.264 44.4469L152.244 44.5206L152.786 44.667ZM150.669 47.4472L152.737 44.765L152.293 44.4226L150.225 47.1048L150.669 47.4472ZM150.545 47.5419L150.582 47.5218L150.312 47.0302L150.276 47.0503L150.545 47.5419ZM150.526 47.5521L150.537 47.5463L150.284 47.0459L150.272 47.0518L150.526 47.5521ZM150.516 47.5567L150.519 47.5552L150.279 47.0487L150.275 47.0502L150.516 47.5567ZM150.485 47.5702L150.504 47.5621L150.287 47.0448L150.268 47.0529L150.485 47.5702ZM150.408 47.5953C150.434 47.5884 150.447 47.5841 150.471 47.5755L150.282 47.0476C150.273 47.0508 150.271 47.0513 150.271 47.0514C150.271 47.0514 150.271 47.0515 150.27 47.0518C150.269 47.0521 150.267 47.0527 150.263 47.0536L150.408 47.5953ZM149.276 47.2969C149.613 47.547 150.055 47.6898 150.408 47.5953L150.263 47.0536C150.137 47.0874 149.87 47.0397 149.611 46.8468L149.276 47.2969ZM148.682 46.1461C148.617 46.3608 148.701 46.5949 148.799 46.7676C148.906 46.9563 149.072 47.146 149.277 47.2975L149.61 46.8462C149.466 46.7397 149.354 46.6085 149.286 46.4902C149.21 46.3558 149.222 46.2966 149.218 46.3084L148.682 46.1461ZM148.702 46.0778L148.682 46.1461L149.218 46.3084L149.239 46.2401L148.702 46.0778ZM150.859 43.2742L148.749 45.9868L149.192 46.3311L151.302 43.6185L150.859 43.2742ZM151.073 43.1582L151.008 43.1755L151.153 43.7171L151.218 43.6998L151.073 43.1582ZM152.206 43.4551C151.866 43.2058 151.425 43.0638 151.073 43.1582L151.218 43.6998C151.343 43.6662 151.61 43.7131 151.874 43.9073L152.206 43.4551ZM152.806 44.5934C152.863 44.3812 152.779 44.1511 152.68 43.9796C152.573 43.7928 152.409 43.6049 152.207 43.4556L151.874 43.9068C152.015 44.011 152.126 44.1407 152.194 44.259C152.271 44.3928 152.262 44.4553 152.264 44.4469L152.806 44.5934ZM150.707 53.2951L150.656 53.3088L150.801 53.8505L150.852 53.8368L150.707 53.2951ZM154.472 47.6905L150.548 53.4073L151.011 53.7247L154.935 48.0078L154.472 47.6905ZM154.504 47.6469L154.478 47.683L154.93 48.0153L154.956 47.9792L154.504 47.6469ZM154.51 47.627L154.479 47.6885L154.981 47.9376L155.012 47.8761L154.51 47.627ZM154.097 47.1401C154.241 47.2436 154.354 47.3727 154.422 47.4901C154.499 47.6227 154.488 47.6837 154.491 47.6742L155.03 47.8289C155.092 47.614 155.007 47.3814 154.907 47.2087C154.798 47.0207 154.631 46.8328 154.423 46.6843L154.097 47.1401ZM153.513 46.9234C153.673 46.9225 153.894 46.9934 154.096 47.1396L154.424 46.6848C154.148 46.4853 153.814 46.361 153.51 46.3626L153.513 46.9234ZM153.312 46.8741L153.427 46.9104L153.596 46.3756L153.481 46.3392L153.312 46.8741ZM153.174 46.7927L153.234 46.8356L153.558 46.3777L153.497 46.3347L153.174 46.7927ZM149.556 52.5676L153.567 46.7223L153.104 46.4051L149.094 52.2504L149.556 52.5676ZM149.525 52.6112L149.551 52.5752L149.099 52.2429L149.073 52.2788L149.525 52.6112ZM149.519 52.6311L149.55 52.5696L149.048 52.3204L149.017 52.3819L149.519 52.6311ZM149.932 53.1176C149.788 53.0132 149.675 52.8838 149.607 52.7664C149.53 52.6333 149.541 52.5731 149.538 52.5839L148.999 52.4291C148.937 52.6435 149.022 52.8757 149.122 53.0474C149.23 53.2349 149.397 53.4227 149.603 53.5718L149.932 53.1176ZM150.608 53.324C150.472 53.3595 150.199 53.3102 149.931 53.1173L149.603 53.5721C149.948 53.821 150.394 53.9596 150.75 53.8667L150.608 53.324ZM150.642 53.3129C150.622 53.3195 150.622 53.3195 150.596 53.3276L150.762 53.8632C150.79 53.8545 150.792 53.8539 150.815 53.8464L150.642 53.3129ZM148.495 40.1432L148.454 40.2105L148.932 40.5036L148.973 40.4364L148.495 40.1432ZM148.516 40.1051C148.516 40.1058 148.513 40.1141 148.495 40.1432L148.973 40.4364C149.002 40.3901 149.029 40.339 149.049 40.2782L148.516 40.1051ZM149.68 38.5446C149.431 38.656 149.2 38.8818 149.008 39.1444C148.813 39.4125 148.64 39.744 148.517 40.1002L149.048 40.2831C149.153 39.9759 149.301 39.6948 149.462 39.4747C149.626 39.2492 149.787 39.1111 149.909 39.0566L149.68 38.5446ZM150.391 38.5408C150.144 38.4441 149.915 38.4388 149.679 38.545L149.91 39.0562C149.989 39.0204 150.06 39.0135 150.187 39.0629L150.391 38.5408ZM151.174 40.1954C151.168 39.8422 151.084 39.4857 150.958 39.1968C150.895 39.0521 150.818 38.9174 150.729 38.8063C150.642 38.6981 150.53 38.5948 150.391 38.5406L150.187 39.0631C150.2 39.0681 150.238 39.0903 150.291 39.157C150.342 39.2207 150.395 39.3102 150.444 39.4215C150.542 39.6448 150.609 39.9285 150.614 40.2055L151.174 40.1954ZM150.628 42.3056C150.993 41.4814 151.185 40.7742 151.174 40.1953L150.614 40.2056C150.622 40.6649 150.468 41.284 150.116 42.0784L150.628 42.3056ZM150.609 42.3496L150.628 42.3056L150.116 42.0784L150.096 42.1224L150.609 42.3496ZM150.489 42.486L150.528 42.4548L150.177 42.0172L150.138 42.0484L150.489 42.486ZM150.277 42.6926C150.33 42.6265 150.4 42.5569 150.489 42.486L150.138 42.0484C150.024 42.1399 149.922 42.2383 149.839 42.343L150.277 42.6926ZM149.692 43.4356L150.278 42.6914L149.838 42.3441L149.251 43.0884L149.692 43.4356ZM148.422 40.4296L149.2 43.3346L149.742 43.1894L148.964 40.2845L148.422 40.4296ZM156.513 51.7427L156.53 51.6736L155.985 51.539L155.968 51.6081L156.513 51.7427ZM154.52 54.5801L156.469 51.8379L156.012 51.513L154.063 54.2552L154.52 54.5801ZM154.408 54.6758L154.443 54.654L154.141 54.1813L154.107 54.2031L154.408 54.6758ZM154.382 54.6917C154.388 54.6881 154.394 54.6843 154.401 54.6805L154.114 54.1983C154.11 54.2009 154.108 54.2021 154.107 54.2029C154.106 54.2035 154.106 54.2032 154.107 54.2027L154.382 54.6917ZM154.374 54.6957C154.376 54.695 154.379 54.6934 154.382 54.6917L154.107 54.2027C154.108 54.2024 154.108 54.2022 154.105 54.2036L154.374 54.6957ZM154.332 54.7161C154.352 54.7071 154.354 54.7059 154.364 54.7011L154.116 54.1982C154.113 54.1997 154.113 54.1997 154.112 54.2003C154.109 54.2014 154.105 54.2033 154.095 54.2081L154.332 54.7161ZM154.331 54.7166L154.332 54.7162L154.095 54.208L154.094 54.2083L154.331 54.7166ZM154.227 54.7529C154.26 54.744 154.294 54.7326 154.323 54.7201L154.102 54.2047C154.104 54.2041 154.102 54.2048 154.098 54.2064C154.093 54.2079 154.088 54.2096 154.082 54.2112L154.227 54.7529ZM153.115 54.5185C153.458 54.7358 153.885 54.8446 154.227 54.7529L154.082 54.2112C153.94 54.2492 153.675 54.2097 153.416 54.0449L153.115 54.5185ZM152.44 53.51C152.394 53.7224 152.497 53.9256 152.607 54.0713C152.727 54.2295 152.902 54.3838 153.115 54.5187L153.415 54.0447C153.244 53.9365 153.124 53.8251 153.055 53.733C152.975 53.6284 152.995 53.5968 152.988 53.6275L152.44 53.51ZM152.456 53.4359L152.44 53.51L152.988 53.6275L153.004 53.5534L152.456 53.4359ZM154.489 50.4943L152.5 53.3338L152.96 53.6555L154.948 50.816L154.489 50.4943ZM154.916 50.4559L154.905 50.446L154.532 50.8644L154.543 50.8743L154.916 50.4559ZM154.606 50.4127C154.598 50.4167 154.591 50.421 154.584 50.4253L154.875 50.9049C154.88 50.9021 154.882 50.9007 154.883 50.8998C154.885 50.8991 154.884 50.8995 154.883 50.9001L154.606 50.4127ZM154.613 50.4083C154.612 50.4092 154.609 50.4109 154.605 50.4127L154.883 50.9001C154.882 50.9004 154.882 50.9005 154.884 50.8993L154.613 50.4083ZM154.63 50.3997C154.628 50.4008 154.626 50.4018 154.624 50.4026L154.873 50.905C154.875 50.904 154.876 50.9037 154.876 50.9035L154.63 50.3997ZM154.657 50.387C154.643 50.3936 154.636 50.3966 154.63 50.3998L154.877 50.9034C154.877 50.9033 154.878 50.9029 154.88 50.9016C154.883 50.9002 154.888 50.8982 154.895 50.8946L154.657 50.387ZM154.763 50.3502C154.729 50.3592 154.694 50.3707 154.665 50.3832L154.887 50.8984C154.885 50.8991 154.887 50.8984 154.891 50.8968C154.896 50.8953 154.902 50.8936 154.908 50.8919L154.763 50.3502ZM155.876 50.584C155.535 50.367 155.105 50.2586 154.763 50.3502L154.908 50.8919C155.05 50.8537 155.318 50.8938 155.575 51.0572L155.876 50.584ZM156.53 51.6736C156.583 51.457 156.485 51.2313 156.379 51.0695C156.262 50.8919 156.087 50.7174 155.875 50.5835L155.576 51.0577C155.723 51.1505 155.839 51.2693 155.91 51.3781C155.993 51.5028 155.981 51.5566 155.985 51.539L156.53 51.6736Z" fill="#132C45"/>
<path fill-rule="evenodd" clip-rule="evenodd" d="M109.143 77.9577L124.397 79.6847L132.331 66.1646L144.286 69.8519L136.414 94.4366L114.512 102.255" fill="white"/>
<path d="M109.143 77.9577L124.397 79.6847L132.331 66.1646L144.286 69.8519L136.414 94.4366L114.512 102.255" stroke="#132C45" stroke-width="2.6546" stroke-linecap="round" stroke-linejoin="round"/>
<path d="M141.904 27.01L141.904 27.0103L141.911 27.006C142.22 26.8249 142.32 26.4401 142.147 26.1132L142.147 26.1132L142.145 26.1096L140.631 23.5314L140.631 23.5313L140.63 23.5292C140.441 23.226 140.052 23.1188 139.722 23.2817L139.722 23.2814L139.716 23.2849C139.408 23.4661 139.308 23.8509 139.481 24.1777L139.481 24.1778L139.483 24.1814L140.996 26.7596L141 26.766L141.005 26.7717C141.093 26.88 141.196 26.9634 141.314 27.0184C141.497 27.1039 141.717 27.0987 141.904 27.01ZM148.531 30.1076L148.531 30.1076L148.533 30.1155C148.584 30.3159 148.723 30.4882 148.906 30.5736C149.025 30.629 149.161 30.6561 149.321 30.6256L152.266 30.1279C152.626 30.0762 152.862 29.7214 152.804 29.3729L152.805 29.3727L152.801 29.3605C152.703 29.04 152.388 28.7759 152.014 28.855L149.069 29.3525C148.709 29.4042 148.473 29.759 148.531 30.1076ZM146.97 23.7059L145.736 26.3528C145.583 26.6803 145.734 27.0707 146.065 27.225C146.396 27.3793 146.792 27.2442 146.945 26.9167L148.179 24.2698C148.332 23.9423 148.181 23.5519 147.85 23.3976C147.519 23.2433 147.123 23.3783 146.97 23.7059Z" fill="#50E3C2" stroke="#50E3C2" stroke-width="0.189993"/>
<path fill-rule="evenodd" clip-rule="evenodd" d="M144.288 36.6567L141.609 37.4351L140.818 34.7523L143.497 33.9739L144.288 36.6567ZM142.169 36.4085L143.259 36.0918L142.937 35.0003L141.847 35.317L142.169 36.4085ZM136.327 38.9661L139.006 38.1877L138.215 35.5049L135.536 36.2833L136.327 38.9661ZM137.977 37.6219L136.887 37.9386L136.565 36.8471L137.655 36.5304L137.977 37.6219ZM141.448 43.205L145.828 41.9361L145.594 41.1399L142.011 42.1782L140.96 38.5953L136.581 39.8643L136.814 40.6605L140.397 39.6222L141.448 43.205ZM144.481 40.278L145.277 40.0474L144.546 37.5572L141.863 38.335L142.594 40.8252L143.389 40.5945L142.892 38.9004L143.984 38.5839L144.481 40.278ZM137.866 44.243L140.545 43.4646L139.754 40.7819L137.075 41.5602L137.866 44.243ZM139.516 42.9001L138.426 43.2168L138.104 42.1253L139.194 41.8086L139.516 42.9001ZM139.916 35.0124L139.122 35.2427L139.908 37.9274L140.702 37.697L139.916 35.0124Z" fill="#132C45"/>
</g>
<defs>
<clipPath id="clip0">
<rect width="240" height="110" fill="white"/>
</clipPath>
</defs>
</svg>
