<svg width="240" height="110" viewBox="0 0 240 110" fill="none" xmlns="http://www.w3.org/2000/svg">
<rect width="240" height="110" fill="white"/>
<rect x="23" y="29" width="193" height="52" rx="4.97" fill="#50E3C2" stroke="#132C45" stroke-width="4"/>
<path d="M57.5752 61V47.96H60.5152V61H57.5752ZM63.3508 61V51.08H65.7508L65.9508 52.34H66.0308C66.4574 51.94 66.9241 51.5933 67.4308 51.3C67.9374 50.9933 68.5308 50.84 69.2108 50.84C70.2908 50.84 71.0708 51.1933 71.5508 51.9C72.0441 52.6067 72.2908 53.5867 72.2908 54.84V61H69.3508V55.22C69.3508 54.5 69.2508 54.0067 69.0508 53.74C68.8641 53.4733 68.5574 53.34 68.1308 53.34C67.7574 53.34 67.4374 53.4267 67.1708 53.6C66.9041 53.76 66.6108 53.9933 66.2908 54.3V61H63.3508ZM77.7161 61.24C77.0628 61.24 76.3894 61.1133 75.6961 60.86C75.0161 60.6067 74.4228 60.2733 73.9161 59.86L75.2361 58.02C75.6894 58.3667 76.1228 58.6267 76.5361 58.8C76.9494 58.9733 77.3694 59.06 77.7961 59.06C78.2361 59.06 78.5561 58.9867 78.7561 58.84C78.9561 58.6933 79.0561 58.4867 79.0561 58.22C79.0561 58.06 78.9961 57.92 78.8761 57.8C78.7694 57.6667 78.6161 57.5467 78.4161 57.44C78.2294 57.3333 78.0161 57.24 77.7761 57.16C77.5361 57.0667 77.2894 56.9667 77.0361 56.86C76.7294 56.74 76.4228 56.6 76.1161 56.44C75.8094 56.28 75.5294 56.0867 75.2761 55.86C75.0228 55.62 74.8161 55.3467 74.6561 55.04C74.4961 54.72 74.4161 54.3533 74.4161 53.94C74.4161 53.4867 74.5028 53.0667 74.6761 52.68C74.8628 52.2933 75.1228 51.9667 75.4561 51.7C75.7894 51.4333 76.1894 51.2267 76.6561 51.08C77.1228 50.92 77.6428 50.84 78.2161 50.84C78.9761 50.84 79.6428 50.9733 80.2161 51.24C80.7894 51.4933 81.2894 51.78 81.7161 52.1L80.3961 53.86C80.0361 53.5933 79.6828 53.3867 79.3361 53.24C78.9894 53.0933 78.6428 53.02 78.2961 53.02C77.5494 53.02 77.1761 53.28 77.1761 53.8C77.1761 53.96 77.2294 54.1 77.3361 54.22C77.4428 54.3267 77.5828 54.4267 77.7561 54.52C77.9428 54.6133 78.1494 54.7067 78.3761 54.8C78.6161 54.88 78.8628 54.9667 79.1161 55.06C79.4361 55.18 79.7494 55.32 80.0561 55.48C80.3761 55.6267 80.6628 55.8133 80.9161 56.04C81.1828 56.2667 81.3961 56.5467 81.5561 56.88C81.7161 57.2 81.7961 57.5867 81.7961 58.04C81.7961 58.4933 81.7094 58.9133 81.5361 59.3C81.3628 59.6867 81.1028 60.0267 80.7561 60.32C80.4094 60.6 79.9828 60.8267 79.4761 61C78.9694 61.16 78.3828 61.24 77.7161 61.24ZM87.0927 61.24C86.4793 61.24 85.9527 61.1467 85.5127 60.96C85.086 60.7733 84.7327 60.5133 84.4527 60.18C84.186 59.8467 83.986 59.4467 83.8527 58.98C83.7327 58.5 83.6727 57.9733 83.6727 57.4V53.38H82.3127V51.2L83.8327 51.08L84.1727 48.44H86.6127V51.08H88.9927V53.38H86.6127V57.36C86.6127 57.92 86.726 58.3267 86.9527 58.58C87.1927 58.82 87.506 58.94 87.8927 58.94C88.0527 58.94 88.2127 58.92 88.3727 58.88C88.546 58.84 88.6993 58.7933 88.8327 58.74L89.2927 60.88C89.026 60.96 88.7127 61.04 88.3527 61.12C87.9927 61.2 87.5727 61.24 87.0927 61.24ZM93.0383 61.24C92.5849 61.24 92.1716 61.16 91.7983 61C91.4383 60.8533 91.1316 60.6467 90.8783 60.38C90.6249 60.1 90.4249 59.78 90.2783 59.42C90.1449 59.06 90.0783 58.6667 90.0783 58.24C90.0783 57.2 90.5183 56.3867 91.3983 55.8C92.2783 55.2133 93.6983 54.82 95.6583 54.62C95.6316 54.18 95.4983 53.8333 95.2583 53.58C95.0316 53.3133 94.6449 53.18 94.0983 53.18C93.6716 53.18 93.2449 53.26 92.8183 53.42C92.4049 53.58 91.9583 53.8 91.4783 54.08L90.4183 52.14C91.0583 51.7533 91.7249 51.44 92.4183 51.2C93.1249 50.96 93.8716 50.84 94.6583 50.84C95.9383 50.84 96.9116 51.2067 97.5783 51.94C98.2583 52.66 98.5983 53.7867 98.5983 55.32V61H96.1983L95.9983 59.98H95.9183C95.4916 60.3533 95.0449 60.66 94.5783 60.9C94.1116 61.1267 93.5983 61.24 93.0383 61.24ZM94.0383 58.96C94.3716 58.96 94.6583 58.8867 94.8983 58.74C95.1383 58.5933 95.3916 58.3867 95.6583 58.12V56.38C94.6183 56.5267 93.8983 56.74 93.4983 57.02C93.0983 57.3 92.8983 57.6333 92.8983 58.02C92.8983 58.34 92.9983 58.58 93.1983 58.74C93.4116 58.8867 93.6916 58.96 94.0383 58.96ZM103.785 61.24C103.278 61.24 102.852 61.16 102.505 61C102.158 60.84 101.878 60.62 101.665 60.34C101.465 60.0467 101.318 59.7 101.225 59.3C101.132 58.8867 101.085 58.4267 101.085 57.92V46.98H104.025V58.04C104.025 58.3467 104.078 58.56 104.185 58.68C104.305 58.8 104.425 58.86 104.545 58.86C104.612 58.86 104.665 58.86 104.705 58.86C104.758 58.86 104.825 58.8467 104.905 58.82L105.265 61C105.105 61.0667 104.898 61.12 104.645 61.16C104.405 61.2133 104.118 61.24 103.785 61.24ZM109.508 61.24C109.001 61.24 108.574 61.16 108.228 61C107.881 60.84 107.601 60.62 107.388 60.34C107.188 60.0467 107.041 59.7 106.948 59.3C106.854 58.8867 106.808 58.4267 106.808 57.92V46.98H109.748V58.04C109.748 58.3467 109.801 58.56 109.908 58.68C110.028 58.8 110.148 58.86 110.268 58.86C110.334 58.86 110.388 58.86 110.428 58.86C110.481 58.86 110.548 58.8467 110.628 58.82L110.988 61C110.828 61.0667 110.621 61.12 110.368 61.16C110.128 61.2133 109.841 61.24 109.508 61.24ZM119.034 61.24C118.581 61.24 118.168 61.16 117.794 61C117.434 60.8533 117.128 60.6467 116.874 60.38C116.621 60.1 116.421 59.78 116.274 59.42C116.141 59.06 116.074 58.6667 116.074 58.24C116.074 57.2 116.514 56.3867 117.394 55.8C118.274 55.2133 119.694 54.82 121.654 54.62C121.628 54.18 121.494 53.8333 121.254 53.58C121.028 53.3133 120.641 53.18 120.094 53.18C119.668 53.18 119.241 53.26 118.814 53.42C118.401 53.58 117.954 53.8 117.474 54.08L116.414 52.14C117.054 51.7533 117.721 51.44 118.414 51.2C119.121 50.96 119.868 50.84 120.654 50.84C121.934 50.84 122.908 51.2067 123.574 51.94C124.254 52.66 124.594 53.7867 124.594 55.32V61H122.194L121.994 59.98H121.914C121.488 60.3533 121.041 60.66 120.574 60.9C120.108 61.1267 119.594 61.24 119.034 61.24ZM120.034 58.96C120.368 58.96 120.654 58.8867 120.894 58.74C121.134 58.5933 121.388 58.3867 121.654 58.12V56.38C120.614 56.5267 119.894 56.74 119.494 57.02C119.094 57.3 118.894 57.6333 118.894 58.02C118.894 58.34 118.994 58.58 119.194 58.74C119.408 58.8867 119.688 58.96 120.034 58.96ZM127.081 61V51.08H129.481L129.681 52.34H129.761C130.188 51.94 130.655 51.5933 131.161 51.3C131.668 50.9933 132.261 50.84 132.941 50.84C134.021 50.84 134.801 51.1933 135.281 51.9C135.775 52.6067 136.021 53.5867 136.021 54.84V61H133.081V55.22C133.081 54.5 132.981 54.0067 132.781 53.74C132.595 53.4733 132.288 53.34 131.861 53.34C131.488 53.34 131.168 53.4267 130.901 53.6C130.635 53.76 130.341 53.9933 130.021 54.3V61H127.081ZM139.627 64.88C139.32 64.88 139.06 64.86 138.847 64.82C138.633 64.7933 138.427 64.7467 138.227 64.68L138.747 62.44C138.84 62.4667 138.947 62.4933 139.067 62.52C139.187 62.5467 139.3 62.56 139.407 62.56C139.9 62.56 140.28 62.44 140.547 62.2C140.813 61.96 141.013 61.6467 141.147 61.26L141.287 60.74L137.467 51.08H140.427L141.847 55.34C141.993 55.7933 142.127 56.2533 142.247 56.72C142.367 57.1867 142.493 57.6667 142.627 58.16H142.707C142.813 57.6933 142.92 57.2267 143.027 56.76C143.147 56.28 143.267 55.8067 143.387 55.34L144.587 51.08H147.407L143.967 61.1C143.727 61.7267 143.473 62.2733 143.207 62.74C142.953 63.22 142.653 63.6133 142.307 63.92C141.973 64.24 141.587 64.48 141.147 64.64C140.72 64.8 140.213 64.88 139.627 64.88ZM150.616 61L148.136 51.08H151.056L152.016 55.68C152.096 56.1733 152.17 56.66 152.236 57.14C152.303 57.62 152.376 58.1133 152.456 58.62H152.536C152.63 58.1133 152.716 57.6133 152.796 57.12C152.89 56.6267 152.996 56.1467 153.116 55.68L154.216 51.08H156.756L157.876 55.68C157.996 56.1733 158.103 56.66 158.196 57.14C158.29 57.62 158.39 58.1133 158.496 58.62H158.576C158.67 58.1133 158.743 57.62 158.796 57.14C158.863 56.66 158.943 56.1733 159.036 55.68L159.976 51.08H162.696L160.316 61H156.876L155.976 57.04C155.87 56.5733 155.776 56.1067 155.696 55.64C155.616 55.1733 155.53 54.6733 155.436 54.14H155.356C155.263 54.6733 155.176 55.1733 155.096 55.64C155.03 56.1067 154.95 56.5733 154.856 57.04L153.976 61H150.616ZM166.788 61.24C166.335 61.24 165.922 61.16 165.548 61C165.188 60.8533 164.882 60.6467 164.628 60.38C164.375 60.1 164.175 59.78 164.028 59.42C163.895 59.06 163.828 58.6667 163.828 58.24C163.828 57.2 164.268 56.3867 165.148 55.8C166.028 55.2133 167.448 54.82 169.408 54.62C169.382 54.18 169.248 53.8333 169.008 53.58C168.782 53.3133 168.395 53.18 167.848 53.18C167.422 53.18 166.995 53.26 166.568 53.42C166.155 53.58 165.708 53.8 165.228 54.08L164.168 52.14C164.808 51.7533 165.475 51.44 166.168 51.2C166.875 50.96 167.622 50.84 168.408 50.84C169.688 50.84 170.662 51.2067 171.328 51.94C172.008 52.66 172.348 53.7867 172.348 55.32V61H169.948L169.748 59.98H169.668C169.242 60.3533 168.795 60.66 168.328 60.9C167.862 61.1267 167.348 61.24 166.788 61.24ZM167.788 58.96C168.122 58.96 168.408 58.8867 168.648 58.74C168.888 58.5933 169.142 58.3867 169.408 58.12V56.38C168.368 56.5267 167.648 56.74 167.248 57.02C166.848 57.3 166.648 57.6333 166.648 58.02C166.648 58.34 166.748 58.58 166.948 58.74C167.162 58.8867 167.442 58.96 167.788 58.96ZM175.935 64.88C175.628 64.88 175.368 64.86 175.155 64.82C174.942 64.7933 174.735 64.7467 174.535 64.68L175.055 62.44C175.148 62.4667 175.255 62.4933 175.375 62.52C175.495 62.5467 175.608 62.56 175.715 62.56C176.208 62.56 176.588 62.44 176.855 62.2C177.122 61.96 177.322 61.6467 177.455 61.26L177.595 60.74L173.775 51.08H176.735L178.155 55.34C178.302 55.7933 178.435 56.2533 178.555 56.72C178.675 57.1867 178.802 57.6667 178.935 58.16H179.015C179.122 57.6933 179.228 57.2267 179.335 56.76C179.455 56.28 179.575 55.8067 179.695 55.34L180.895 51.08H183.715L180.275 61.1C180.035 61.7267 179.782 62.2733 179.515 62.74C179.262 63.22 178.962 63.6133 178.615 63.92C178.282 64.24 177.895 64.48 177.455 64.64C177.028 64.8 176.522 64.88 175.935 64.88Z" fill="#132C45"/>
<path d="M226.067 85.5792L205 46.6458L183.667 85.5792H226.067Z" fill="white"/>
<path d="M226.936 88.1586H183.064C182.339 88.1586 181.666 87.7774 181.294 87.1545C180.921 86.5315 180.902 85.7586 181.244 85.119L203.179 44.0917C203.54 43.4188 204.237 43 205 43C205.763 43 206.463 43.4188 206.821 44.0917L228.756 85.119C229.098 85.7586 229.079 86.5315 228.706 87.1545C228.333 87.7774 227.661 88.1586 226.936 88.1586H226.936ZM186.51 84.0274H223.49L205 49.4459L186.51 84.0274Z" fill="#132C45"/>
<path d="M205 72.8543C203.858 72.8543 202.935 71.9293 202.935 70.7897V62.7982C202.935 61.6587 203.86 60.7336 205 60.7336C206.142 60.7336 207.065 61.6587 207.065 62.7982V70.7897C207.065 71.9293 206.142 72.8543 205 72.8543Z" fill="#132C45"/>
<path d="M204.998 79.8626C204.456 79.8626 203.925 79.6418 203.537 79.2543C203.156 78.8709 202.933 78.3397 202.933 77.798C202.933 77.2501 203.154 76.7188 203.537 76.3376C203.925 75.9501 204.456 75.7334 204.998 75.7334C205.546 75.7334 206.077 75.9501 206.458 76.3376C206.846 76.7209 207.062 77.2521 207.062 77.798C207.062 78.3396 206.846 78.8709 206.458 79.2543C206.077 79.6418 205.546 79.8626 204.998 79.8626Z" fill="#132C45"/>
</svg>
