<svg width="240" height="110" viewBox="0 0 240 110" fill="none" xmlns="http://www.w3.org/2000/svg">
<rect width="240" height="110" fill="white"/>
<rect x="103.834" y="30.8359" width="32.2332" height="32.978" rx="4.28668" fill="#50E3C2" stroke="#132C45" stroke-width="4.5438"/>
<path fill-rule="evenodd" clip-rule="evenodd" d="M119.951 39.8866C117.606 39.8866 115.703 41.7892 115.703 44.1344C115.706 45.6528 116.517 47.0546 117.831 47.8098V52.6141C117.823 53.1812 118.043 53.727 118.441 54.1325C118.841 54.5353 119.384 54.7632 119.951 54.7632C120.518 54.7632 121.064 54.5353 121.462 54.1325C121.859 53.7271 122.079 53.1812 122.071 52.6141V47.8072C123.385 47.0493 124.196 45.6502 124.199 44.1344C124.199 41.7892 122.299 39.8866 119.951 39.8866H119.951Z" fill="#132C45"/>
<path d="M128.954 24.0033C128.954 19.0309 124.923 15 119.951 15C114.979 15 110.948 19.0309 110.948 24.0033V32.0616" stroke="#132C45" stroke-width="4.5438"/>
<path d="M74.6691 95.2101L77.6044 91.85L80.5011 95.2101L82.4708 93.7811L80.2307 89.9961L84.2088 88.2581L83.475 85.9408L79.2265 86.9063L78.8017 82.542H76.3685L75.9437 86.9063L71.7338 85.9408L71 88.2581L74.9395 89.9961L72.6994 93.7811L74.6691 95.2101Z" fill="#132C45"/>
<path d="M91.6041 95.2101L94.5394 91.85L97.4361 95.2101L99.4058 93.7811L97.1657 89.9961L101.144 88.2581L100.41 85.9408L96.1615 86.9063L95.7367 82.542H93.3035L92.8786 86.9063L88.6688 85.9408L87.935 88.2581L91.8744 89.9961L89.6344 93.7811L91.6041 95.2101Z" fill="#132C45"/>
<path d="M108.539 95.2101L111.474 91.85L114.371 95.2101L116.341 93.7811L114.101 89.9961L118.079 88.2581L117.345 85.9408L113.096 86.9063L112.672 82.542H110.238L109.814 86.9063L105.604 85.9408L104.87 88.2581L108.809 89.9961L106.569 93.7811L108.539 95.2101Z" fill="#132C45"/>
<path d="M125.474 95.2101L128.409 91.85L131.306 95.2101L133.276 93.7811L131.036 89.9961L135.014 88.2581L134.28 85.9408L130.031 86.9063L129.607 82.542H127.173L126.749 86.9063L122.539 85.9408L121.805 88.2581L125.744 89.9961L123.504 93.7811L125.474 95.2101Z" fill="#132C45"/>
<path d="M142.409 95.2101L145.344 91.85L148.241 95.2101L150.211 93.7811L147.971 89.9961L151.949 88.2581L151.215 85.9408L146.966 86.9063L146.542 82.542H144.108L143.684 86.9063L139.474 85.9408L138.74 88.2581L142.679 89.9961L140.439 93.7811L142.409 95.2101Z" fill="#132C45"/>
<path d="M159.344 95.2101L162.279 91.85L165.176 95.2101L167.146 93.7811L164.906 89.9961L168.884 88.2581L168.15 85.9408L163.901 86.9063L163.477 82.542H161.043L160.619 86.9063L156.409 85.9408L155.675 88.2581L159.614 89.9961L157.374 93.7811L159.344 95.2101Z" fill="#132C45"/>
</svg>
