<svg width="240" height="110" viewBox="0 0 240 110" fill="none" xmlns="http://www.w3.org/2000/svg">
<rect width="240" height="110" fill="white"/>
<rect x="68.2546" y="19.2546" width="83.4909" height="63.4909" rx="4.71543" fill="white" stroke="#132C45" stroke-width="3.49086"/>
<path d="M150 31.7454H151.745V30V23.97C151.745 21.3657 149.634 19.2546 147.03 19.2546H72.97C70.3657 19.2546 68.2546 21.3657 68.2546 23.97V30V31.7454H70H150Z" fill="white" stroke="#132C45" stroke-width="3.49086"/>
<rect x="73.6179" y="24.2327" width="3" height="3" fill="#132C45"/>
<rect x="78.6179" y="24.2327" width="3" height="3" fill="#132C45"/>
<rect x="83.6179" y="24.2327" width="3" height="3" fill="#132C45"/>
<path d="M132 45.5C146.5 37 155.16 39 170 39V90H132V45.5Z" fill="white"/>
<rect x="139.695" y="58.6212" width="28.2999" height="27.1979" rx="3.76359" fill="#50E3C2" stroke="#132C45" stroke-width="3.98934"/>
<path fill-rule="evenodd" clip-rule="evenodd" d="M153.845 65.6895C151.786 65.6895 150.115 67.2476 150.115 69.1682C150.118 70.4117 150.83 71.5597 151.984 72.1782V76.1127C151.977 76.5771 152.17 77.0242 152.519 77.3562C152.87 77.6861 153.347 77.8727 153.845 77.8727C154.343 77.8727 154.822 77.6861 155.171 77.3562C155.52 77.0242 155.713 76.5772 155.706 76.1127V72.1761C156.86 71.5554 157.572 70.4096 157.574 69.1682C157.574 67.2476 155.906 65.6895 153.845 65.6895H153.845Z" fill="#132C45"/>
<path d="M161.749 52.6223C161.749 48.2567 158.21 44.7177 153.845 44.7177C149.479 44.7177 145.94 48.2567 145.94 52.6223V59.6973" stroke="#132C45" stroke-width="3.98934"/>
<path fill-rule="evenodd" clip-rule="evenodd" d="M108.784 46V53.784H101V56.216H108.784V64H111.216V56.216H119V53.784H111.216V46H108.784Z" fill="#50E3C2"/>
</svg>
