<svg width="240" height="110" viewBox="0 0 240 110" fill="none" xmlns="http://www.w3.org/2000/svg">
<rect width="240" height="110" fill="white"/>
<path d="M141.693 78.4458L121.005 90.74L112.87 87.2605L92.8795 69.2831L84.1628 62.6721L85.9062 57.8008L88.2306 56.293L84.8602 52.3496L88.2306 47.2464V44.4628L89.3929 40.2874L91.4849 39.2435L89.3929 34.1403L90.3226 29.501L94.8553 29.501L115.659 31.9366L130.536 27.8772L135.998 32.6325L139.252 43.5349L140.531 56.293L139.252 65.9196V71.0229L141.693 78.4458Z" fill="white"/>
<path d="M126.537 9.97407C126.537 9.09261 125.822 8.37805 124.941 8.37805L99.3094 8.37805C98.4279 8.37805 97.7134 9.09261 97.7134 9.97407V41.9592C97.7134 41.9592 100.445 44.7235 100.445 46.1346C100.445 47.5458 97.7134 50.0781 97.7134 50.0781C97.7134 50.0781 96.6779 51.6981 97.0744 52.4557C97.4709 53.2133 100.445 55.2973 100.445 55.2973L103.932 59.4727L102.136 62.5565L97.7134 66.081L99.3807 68.9091L121.854 69.3596L126.537 66.7367L126.537 9.97407Z" fill="#50E3C2"/>
<path fill-rule="evenodd" clip-rule="evenodd" d="M117.9 91.3142C117.887 91.6471 117.983 91.9806 118.177 92.2714L124.441 102.855L127.902 101.917L122.135 91.9L140.209 81.4461L143.223 79.7052L144.1 79.1993L144.391 79.0319L154.938 90.33L157.513 89.0425L145.781 76.0049C145.263 75.4638 144.419 75.3471 143.754 75.7247L143.03 76.1364L142.699 76.3248L141.304 74.5311C141.17 74.2895 141.023 73.9432 140.887 73.5263C140.659 72.8316 140.494 72.0417 140.4 71.1688C140.124 68.5966 140.49 65.6255 141.543 62.3077C143.78 55.2303 142.095 43.164 137.697 33.0848C137.501 32.6319 137.22 32.0722 136.896 31.4989C136.354 30.5397 135.757 29.6626 135.118 28.9001C133.287 26.715 131.322 25.6988 129.283 26.0099L128.777 26.087V11.6699C128.777 9.09463 126.638 7 124.014 7L100.921 7C98.2991 7 96.1647 9.09304 96.1647 11.6699V28.4664L95.5 28.0707C94.8503 27.6841 94.184 27.4283 93.5075 27.3119C92.2084 27.095 90.9641 27.4169 89.8822 28.2487C88.1647 29.569 87.5705 32.3187 88.2134 34.9907C88.4571 36.0182 88.9275 37.1002 89.6371 38.2719L89.8615 38.6424L89.4868 38.865C88.8376 39.2506 88.2491 39.7652 87.7505 40.3839C86.2514 42.2574 85.9411 44.6262 86.9882 46.2679L87.218 46.6283L86.8568 46.8611C86.2539 47.2495 85.7162 47.7332 85.2649 48.2949C83.419 50.6003 83.4176 53.5669 85.2778 55.0574L86.1733 55.8405L86.6154 56.2277L86.1119 56.5332C85.5376 56.8816 85.0249 57.3065 84.5851 57.7998C83.4992 59.0147 82.9211 60.531 83.0088 61.9485C83.0787 63.008 83.5323 63.9482 84.2904 64.5994L90.0173 69.5293C90.5886 70.0186 91.2988 70.3139 92.0988 70.3983L92.3885 70.5509C101.393 81.1732 110.079 88.3344 117.604 90.8885L117.912 90.993L117.9 91.3142ZM104.208 61.7558C103.984 62.6255 103.575 63.4558 103.001 64.2031C101.992 65.522 100.604 66.3962 99.183 66.6008L98.6517 66.6772C98.6517 66.6772 99.5661 66.9944 100.195 66.9944L123.509 66.9944C124.314 66.9944 124.972 66.3148 124.972 65.4674V60.9925L124.971 33.2994C124.933 32.704 124.934 32.093 124.973 31.4239L124.972 13.4498C124.972 12.1276 123.901 11.0558 122.578 11.0558L101.499 11.0558C100.177 11.0558 99.1054 12.1277 99.1054 13.4499V42.1239C99.0993 42.1936 99.0935 42.2459 99.0705 42.4537L99.0625 42.5264L99.2512 42.6716L100.125 43.3439C102.045 44.8214 102.067 47.8061 100.208 50.1311C99.6953 50.7706 99.0729 51.3058 98.3806 51.7042L97.8616 52.0028L98.3118 52.3954L103.292 56.7366C103.451 56.8643 103.665 57.0918 103.934 57.4192C104.506 58.7173 104.625 60.0524 104.29 61.4244L104.208 61.7558ZM89.828 44.101L89.9133 44.2472L95.9048 48.8037L95.9951 48.8257C96.0203 48.8311 96.0203 48.8311 96.031 48.833C96.043 48.8348 96.043 48.8348 96.0773 48.8392C96.1196 48.8427 96.1329 48.8434 96.1727 48.8434C96.7241 48.8434 97.4313 48.4361 97.9445 47.7909C98.5478 47.0377 98.7682 46.0985 98.5193 45.6992L98.4355 45.5648L92.3364 40.9673H92.1877C91.637 40.9673 90.9311 41.3726 90.4087 42.0208C89.8161 42.7607 89.5921 43.6964 89.828 44.101ZM98.9304 62.463H98.8131L87.0829 52.4739L87.0051 52.4118L86.9041 52.2977C86.6591 51.8918 86.8857 50.9548 87.4967 50.2133C87.9121 49.7059 88.4519 49.3378 88.9513 49.2075L89.1781 49.0635L89.2841 48.9367L101.274 59.1514L101.351 59.2132L101.452 59.3274C101.695 59.7298 101.469 60.6648 100.862 61.4084C100.331 62.057 99.6124 62.4644 99.0464 62.4681L98.9947 62.4661C98.9747 62.4652 98.9618 62.4646 98.9304 62.463ZM95.6896 32.9834L95.5622 32.8631C95.4908 32.7956 95.4411 32.7408 95.4019 32.6806C94.5277 31.3914 93.319 30.425 92.425 30.2827C92.0455 30.221 91.7213 30.3057 91.3624 30.5691C90.7784 30.9963 90.5282 32.555 90.8669 33.9109C91.1454 35.0278 91.8998 36.3484 93.137 37.8755L93.2042 37.9584L93.306 38.0029C93.5706 38.1187 93.8035 38.2492 93.999 38.393L95.6896 39.6498V32.9834ZM129.055 84.1311L121.235 88.6435L121.102 88.7204L120.951 88.6943C114.12 87.512 105.501 80.7986 96.0733 69.9017L95.7808 69.5637L96.2219 69.1966C96.3499 69.0906 96.4174 69.032 96.4861 68.9665L96.836 68.633L97.1237 69.0229C98.0143 70.2298 99.4216 70.9471 100.923 70.9471L123.776 70.9471C126.378 70.9471 128.492 68.8479 128.492 66.2653V48.8864C128.588 48.6824 128.625 48.5764 128.645 48.477L130.165 41.4167C130.222 41.134 130.205 40.8423 130.116 40.5786C129.187 37.7972 128.652 35.467 128.496 33.6182L128.495 31.4757C128.598 30.5308 128.843 29.8453 129.176 29.4483L129.288 29.3148L129.459 29.2972C130.887 29.1512 132.971 31.3926 134.293 34.4322C138.339 43.8288 139.949 55.1903 137.98 61.4914C136.678 65.6635 136.311 69.3723 136.822 72.5592C136.992 73.6194 137.254 74.5752 137.596 75.4122C137.798 75.9059 138.001 76.2993 138.228 76.6381L139.094 77.7676L139.399 78.1646L129.055 84.1311ZM85.9067 61.4098L85.9833 61.5481L91.7531 66.3014L91.8391 66.3285C91.8686 66.3367 91.8686 66.3367 91.8828 66.3402C91.8991 66.3434 91.8991 66.3434 91.9483 66.3521C91.9818 66.3569 92.0317 66.3604 92.086 66.3604C92.6433 66.3604 93.344 66.0033 93.8814 65.4215C94.5678 64.6803 94.8445 63.9454 94.6561 63.5787L94.5793 63.4292L88.6679 58.4905L88.6497 58.518C88.6173 58.5087 88.6173 58.5087 88.602 58.5049C88.5927 58.503 88.5885 58.5022 88.5786 58.5004C88.5703 58.4988 88.5582 58.4967 88.5359 58.4927C88.5026 58.4879 88.4525 58.4843 88.3974 58.4843C87.8389 58.4843 87.1319 58.8436 86.5989 59.4222C85.9573 60.1136 85.6863 61.012 85.9067 61.4098Z" fill="#132C45"/>
<path d="M118.177 92.2714L118.73 91.9031C118.737 91.9128 118.743 91.9227 118.749 91.9327L118.177 92.2714ZM117.9 91.3142L117.235 91.2888L117.235 91.2888L117.9 91.3142ZM124.441 102.855L124.615 103.497C124.327 103.575 124.021 103.451 123.869 103.194L124.441 102.855ZM127.902 101.917L128.478 101.585C128.581 101.764 128.595 101.981 128.516 102.171C128.437 102.362 128.275 102.505 128.076 102.559L127.902 101.917ZM122.135 91.9L121.558 92.2318C121.375 91.9139 121.484 91.5079 121.802 91.3243L122.135 91.9ZM140.209 81.4461L139.876 80.8704L139.877 80.8702L140.209 81.4461ZM143.223 79.7052L142.89 79.1294L142.891 79.1291L143.223 79.7052ZM144.1 79.1993L143.768 78.6231L143.768 78.6231L144.1 79.1993ZM144.391 79.0319L144.059 78.4558C144.327 78.3013 144.666 78.352 144.877 78.5781L144.391 79.0319ZM154.938 90.33L155.236 90.9248C154.972 91.0566 154.653 90.9992 154.452 90.7838L154.938 90.33ZM157.513 89.0425L158.008 88.5977C158.146 88.752 158.205 88.9623 158.167 89.1663C158.128 89.3702 157.996 89.5445 157.811 89.6373L157.513 89.0425ZM145.781 76.0049L146.261 75.5447C146.266 75.5498 146.271 75.5549 146.276 75.5601L145.781 76.0049ZM143.754 75.7247L143.426 75.1466L143.426 75.1466L143.754 75.7247ZM143.03 76.1364L142.702 75.5583L142.702 75.5583L143.03 76.1364ZM142.699 76.3248L143.028 76.9029C142.74 77.0662 142.377 76.9939 142.174 76.733L142.699 76.3248ZM141.304 74.5311L140.779 74.9393C140.758 74.9124 140.739 74.8839 140.723 74.8541L141.304 74.5311ZM140.887 73.5263L140.255 73.7333L140.255 73.7333L140.887 73.5263ZM140.4 71.1688L139.739 71.2398L139.739 71.2398L140.4 71.1688ZM141.543 62.3077L142.177 62.5081L142.177 62.5088L141.543 62.3077ZM137.697 33.0848L137.087 33.3508L137.087 33.3489L137.697 33.0848ZM136.896 31.4989L136.317 31.8261L136.317 31.8261L136.896 31.4989ZM135.118 28.9001L135.628 28.473L135.628 28.473L135.118 28.9001ZM129.283 26.0099L129.383 26.6673L129.383 26.6673L129.283 26.0099ZM128.777 26.087L128.877 26.7444C128.686 26.7736 128.491 26.7178 128.344 26.5914C128.197 26.4651 128.112 26.2809 128.112 26.087H128.777ZM96.1647 28.4664H96.8297C96.8297 28.7055 96.7013 28.9263 96.4934 29.0445C96.2855 29.1627 96.0301 29.1601 95.8246 29.0378L96.1647 28.4664ZM95.5 28.0707L95.8401 27.4993L95.8401 27.4993L95.5 28.0707ZM93.5075 27.3119L93.617 26.656L93.6204 26.6565L93.5075 27.3119ZM89.8822 28.2487L90.2875 28.7759L90.2875 28.7759L89.8822 28.2487ZM88.2134 34.9907L88.86 34.8352L88.8605 34.8373L88.2134 34.9907ZM89.6371 38.2719L90.206 37.9274L90.206 37.9274L89.6371 38.2719ZM89.8615 38.6424L90.4303 38.2979C90.5222 38.4496 90.5497 38.6317 90.5067 38.8038C90.4636 38.9759 90.3536 39.1236 90.2011 39.2142L89.8615 38.6424ZM89.4868 38.865L89.8265 39.4367L89.8265 39.4367L89.4868 38.865ZM87.7505 40.3839L87.2312 39.9684L87.2327 39.9666L87.7505 40.3839ZM86.9882 46.2679L86.4275 46.6255L86.4275 46.6255L86.9882 46.2679ZM87.218 46.6283L87.7787 46.2707C87.9756 46.5793 87.8859 46.989 87.5782 47.1873L87.218 46.6283ZM86.8568 46.8611L86.4966 46.302L86.4966 46.302L86.8568 46.8611ZM85.2649 48.2949L84.7458 47.8792L84.7465 47.8784L85.2649 48.2949ZM85.2778 55.0574L85.6936 54.5385C85.701 54.5444 85.7083 54.5505 85.7155 54.5568L85.2778 55.0574ZM86.1733 55.8405L86.611 55.3399L86.6114 55.3402L86.1733 55.8405ZM86.6154 56.2277L87.0535 55.7274C87.213 55.867 87.2963 56.0743 87.2779 56.2854C87.2595 56.4966 87.1415 56.6863 86.9603 56.7962L86.6154 56.2277ZM86.1119 56.5332L85.7669 55.9646L85.7669 55.9646L86.1119 56.5332ZM84.5851 57.7998L85.0815 58.2423L85.0809 58.243L84.5851 57.7998ZM83.0088 61.9485L82.3452 61.9923L82.345 61.9896L83.0088 61.9485ZM84.2904 64.5994L84.7237 64.0949L84.7243 64.0954L84.2904 64.5994ZM90.0173 69.5293L89.5847 70.0344L89.5834 70.0333L90.0173 69.5293ZM92.0988 70.3983L92.1686 69.7369C92.2526 69.7458 92.3341 69.7706 92.4088 69.8099L92.0988 70.3983ZM92.3885 70.5509L92.6985 69.9626C92.7738 70.0022 92.8408 70.056 92.8958 70.1209L92.3885 70.5509ZM117.604 90.8885L117.39 91.5182L117.39 91.5182L117.604 90.8885ZM117.912 90.993L118.126 90.3632C118.404 90.4578 118.588 90.7243 118.576 91.0183L117.912 90.993ZM103.001 64.2031L102.473 63.7991L102.474 63.7979L103.001 64.2031ZM104.208 61.7558L104.853 61.9163L104.852 61.9219L104.208 61.7558ZM99.183 66.6008L99.0882 65.9425L99.0882 65.9425L99.183 66.6008ZM98.6517 66.6772L98.4338 67.3055C98.1439 67.205 97.9605 66.9193 97.9897 66.6139C98.0189 66.3085 98.2533 66.0627 98.5569 66.019L98.6517 66.6772ZM124.972 60.9925L125.637 60.9924V60.9925H124.972ZM124.971 33.2994L125.634 33.2578C125.635 33.2716 125.636 33.2855 125.636 33.2994L124.971 33.2994ZM124.973 31.4239L125.638 31.4239C125.638 31.4368 125.638 31.4497 125.637 31.4626L124.973 31.4239ZM124.972 13.4498L125.638 13.4498L125.638 13.4498L124.972 13.4498ZM99.1054 42.1239H99.7704C99.7704 42.1433 99.7696 42.1627 99.7679 42.1821L99.1054 42.1239ZM99.0705 42.4537L98.4095 42.3807L98.4096 42.3807L99.0705 42.4537ZM99.0625 42.5264L98.6569 43.0534C98.4728 42.9117 98.376 42.6842 98.4015 42.4533L99.0625 42.5264ZM99.2512 42.6716L99.6568 42.1446L99.6568 42.1446L99.2512 42.6716ZM100.125 43.3439L99.7192 43.871L99.7192 43.8709L100.125 43.3439ZM100.208 50.1311L100.728 50.5463L100.727 50.5472L100.208 50.1311ZM98.3806 51.7042L98.7123 52.2805L98.7123 52.2805L98.3806 51.7042ZM97.8616 52.0028L97.4246 52.5041C97.2626 52.3629 97.1788 52.1521 97.1997 51.9382C97.2206 51.7243 97.3436 51.5337 97.5299 51.4265L97.8616 52.0028ZM98.3118 52.3954L97.8748 52.8966L97.8747 52.8966L98.3118 52.3954ZM103.292 56.7366L102.876 57.2555C102.869 57.2498 102.862 57.2439 102.855 57.2379L103.292 56.7366ZM103.934 57.4192L104.448 56.9971C104.487 57.0438 104.519 57.0956 104.543 57.151L103.934 57.4192ZM104.29 61.4244L104.936 61.582L104.936 61.5849L104.29 61.4244ZM89.9133 44.2472L89.5107 44.7766C89.4412 44.7237 89.3828 44.6576 89.3388 44.5822L89.9133 44.2472ZM89.828 44.101L90.4025 43.7661L90.4025 43.7661L89.828 44.101ZM95.9048 48.8037L95.7472 49.4497C95.6584 49.4281 95.575 49.3883 95.5022 49.333L95.9048 48.8037ZM95.9951 48.8257L95.8562 49.476C95.85 49.4747 95.8437 49.4733 95.8375 49.4718L95.9951 48.8257ZM96.031 48.833L95.9346 49.491C95.9275 49.4899 95.9204 49.4888 95.9133 49.4875L96.031 48.833ZM96.0773 48.8392L96.0228 49.502C96.0121 49.5011 96.0015 49.5 95.9909 49.4986L96.0773 48.8392ZM97.9445 47.7909L97.4241 47.3769L97.4255 47.3751L97.9445 47.7909ZM98.5193 45.6992L99.0837 45.3475L99.0837 45.3475L98.5193 45.6992ZM98.4355 45.5648L98.8358 45.0337C98.9011 45.0829 98.9567 45.1437 98.9999 45.2131L98.4355 45.5648ZM92.3364 40.9673V40.3023C92.4809 40.3023 92.6214 40.3493 92.7367 40.4363L92.3364 40.9673ZM90.4087 42.0208L89.8897 41.605L89.8909 41.6035L90.4087 42.0208ZM98.8131 62.463V63.128C98.6551 63.128 98.5022 63.0717 98.3819 62.9693L98.8131 62.463ZM98.9304 62.463V61.798C98.9418 61.798 98.9531 61.7982 98.9645 61.7988L98.9304 62.463ZM87.0829 52.4739L87.4973 51.9537C87.503 51.9583 87.5086 51.9629 87.5141 51.9676L87.0829 52.4739ZM87.0051 52.4118L86.5907 52.932C86.5605 52.9079 86.5325 52.8813 86.507 52.8524L87.0051 52.4118ZM86.9041 52.2977L86.406 52.7383C86.3794 52.7082 86.3556 52.6758 86.3348 52.6414L86.9041 52.2977ZM87.4967 50.2133L88.0113 50.6346L88.0099 50.6362L87.4967 50.2133ZM88.9513 49.2075L89.3075 49.769C89.2494 49.8059 89.1859 49.8335 89.1193 49.8509L88.9513 49.2075ZM89.1781 49.0635L89.6886 49.4898C89.6445 49.5426 89.5924 49.5882 89.5343 49.6251L89.1781 49.0635ZM89.2841 48.9367L88.7736 48.5104C88.8874 48.3742 89.0509 48.2891 89.2278 48.2741C89.4047 48.259 89.5802 48.3154 89.7153 48.4305L89.2841 48.9367ZM101.274 59.1514L100.859 59.6715C100.853 59.667 100.848 59.6623 100.842 59.6576L101.274 59.1514ZM101.351 59.2132L101.766 58.6931C101.796 58.7171 101.824 58.7437 101.849 58.7726L101.351 59.2132ZM101.452 59.3274L101.95 58.8868C101.977 58.9169 102.001 58.9493 102.021 58.9837L101.452 59.3274ZM100.862 61.4084L101.378 61.8287L101.377 61.8297L100.862 61.4084ZM99.0464 62.4681L99.0508 63.1331C99.0405 63.1332 99.0303 63.133 99.02 63.1326L99.0464 62.4681ZM98.9947 62.4661L98.9683 63.1306L98.9666 63.1305L98.9947 62.4661ZM95.5622 32.8631L95.1056 33.3465L95.1056 33.3465L95.5622 32.8631ZM95.6896 32.9834L96.1463 32.5C96.2793 32.6256 96.3546 32.8005 96.3546 32.9834H95.6896ZM95.4019 32.6806L95.9524 32.3073L95.9591 32.3176L95.4019 32.6806ZM92.425 30.2827L92.3205 30.9395L92.3184 30.9391L92.425 30.2827ZM91.3624 30.5691L91.756 31.1052L91.755 31.1059L91.3624 30.5691ZM90.8669 33.9109L91.5121 33.7498L91.5122 33.7501L90.8669 33.9109ZM93.137 37.8755L92.6203 38.2941L92.6203 38.2941L93.137 37.8755ZM93.2042 37.9584L92.9377 38.5677C92.8402 38.5251 92.7544 38.4597 92.6875 38.377L93.2042 37.9584ZM93.306 38.0029L93.5725 37.3937L93.5725 37.3937L93.306 38.0029ZM93.999 38.393L94.3929 37.8572L94.3958 37.8593L93.999 38.393ZM95.6896 39.6498H96.3546C96.3546 39.9012 96.2129 40.1311 95.9883 40.2439C95.7637 40.3568 95.4946 40.3334 95.2929 40.1835L95.6896 39.6498ZM121.235 88.6435L120.903 88.0675L120.903 88.0675L121.235 88.6435ZM129.055 84.1311L128.723 83.5551L128.723 83.5551L129.055 84.1311ZM121.102 88.7204L121.435 89.2964C121.3 89.3742 121.142 89.4022 120.989 89.3757L121.102 88.7204ZM120.951 88.6943L121.064 88.039L121.064 88.039L120.951 88.6943ZM96.0733 69.9017L95.5704 70.3368L95.5704 70.3368L96.0733 69.9017ZM95.7808 69.5637L95.2779 69.9988C95.1611 69.8637 95.1034 69.6874 95.118 69.5094C95.1326 69.3314 95.2182 69.1668 95.3554 69.0525L95.7808 69.5637ZM96.2219 69.1966L95.7965 68.6855L95.7977 68.6844L96.2219 69.1966ZM96.4861 68.9665L96.9449 69.4479L96.9449 69.4479L96.4861 68.9665ZM96.836 68.633L96.3772 68.1516C96.5154 68.0199 96.7035 67.9539 96.8937 67.9705C97.0839 67.9871 97.2578 68.0845 97.3711 68.2382L96.836 68.633ZM97.1237 69.0229L97.6588 68.628L97.6588 68.628L97.1237 69.0229ZM128.492 48.8864H127.827C127.827 48.7891 127.849 48.6929 127.89 48.6048L128.492 48.8864ZM128.645 48.477L127.994 48.3439L127.995 48.337L128.645 48.477ZM130.165 41.4167L130.817 41.5474L130.815 41.5566L130.165 41.4167ZM130.116 40.5786L129.486 40.7926L129.485 40.7893L130.116 40.5786ZM128.496 33.6182L127.833 33.6743C127.831 33.6557 127.831 33.6371 127.831 33.6184L128.496 33.6182ZM128.495 31.4757L127.83 31.4759C127.83 31.4518 127.831 31.4277 127.834 31.4038L128.495 31.4757ZM129.176 29.4483L129.685 29.8756L129.685 29.8756L129.176 29.4483ZM129.288 29.3148L128.778 28.8875C128.889 28.7549 129.048 28.6709 129.22 28.6533L129.288 29.3148ZM129.459 29.2972L129.527 29.9588L129.527 29.9588L129.459 29.2972ZM134.293 34.4322L134.903 34.167L134.904 34.1692L134.293 34.4322ZM137.98 61.4914L137.346 61.2932L137.346 61.2931L137.98 61.4914ZM136.822 72.5592L137.479 72.4539L137.479 72.4539L136.822 72.5592ZM137.596 75.4122L138.212 75.1607L138.212 75.1607L137.596 75.4122ZM138.228 76.6381L137.701 77.0428C137.692 77.0316 137.684 77.0203 137.676 77.0086L138.228 76.6381ZM139.094 77.7676L139.622 77.3629L139.622 77.3631L139.094 77.7676ZM139.399 78.1646L139.927 77.7601C140.043 77.912 140.088 78.1068 140.051 78.2946C140.013 78.4824 139.897 78.6449 139.731 78.7406L139.399 78.1646ZM85.9833 61.5481L85.5605 62.0614C85.496 62.0082 85.4421 61.9435 85.4016 61.8704L85.9833 61.5481ZM85.9067 61.4098L85.325 61.7321L85.325 61.7321L85.9067 61.4098ZM91.7531 66.3014L91.5533 66.9357C91.4719 66.91 91.3962 66.8689 91.3303 66.8147L91.7531 66.3014ZM91.8391 66.3285L91.6597 66.9689C91.6529 66.9669 91.646 66.9649 91.6392 66.9627L91.8391 66.3285ZM91.8828 66.3402L91.7535 66.9925C91.7446 66.9907 91.7357 66.9888 91.7268 66.9866L91.8828 66.3402ZM91.9483 66.3521L91.8538 67.0104C91.8468 67.0093 91.8397 67.0082 91.8327 67.007L91.9483 66.3521ZM93.8814 65.4215L93.3929 64.9703L93.3935 64.9697L93.8814 65.4215ZM94.6561 63.5787L94.0646 63.8826L94.0646 63.8826L94.6561 63.5787ZM94.5793 63.4292L95.0057 62.9189C95.074 62.976 95.1301 63.0462 95.1708 63.1253L94.5793 63.4292ZM88.6679 58.4905L88.1124 58.1248C88.2166 57.9665 88.3834 57.8602 88.5709 57.8326C88.7584 57.8049 88.9488 57.8586 89.0943 57.9801L88.6679 58.4905ZM88.6497 58.518L89.2052 58.8837C89.0449 59.1272 88.7448 59.2379 88.4648 59.1568L88.6497 58.518ZM88.602 58.5049L88.7328 57.8528C88.7423 57.8548 88.7519 57.8569 88.7614 57.8592L88.602 58.5049ZM88.5786 58.5004L88.459 59.1545L88.4589 59.1545L88.5786 58.5004ZM88.5359 58.4927L88.6311 57.8345C88.6384 57.8356 88.6456 57.8368 88.6529 57.8381L88.5359 58.4927ZM86.5989 59.4222L87.088 59.8727L87.0863 59.8745L86.5989 59.4222ZM117.623 92.6398C117.356 92.2382 117.217 91.768 117.235 91.2888L118.564 91.3395C118.557 91.5263 118.61 91.723 118.73 91.9031L117.623 92.6398ZM123.869 103.194L117.604 92.6102L118.749 91.9327L125.014 102.516L123.869 103.194ZM128.076 102.559L124.615 103.497L124.267 102.213L127.728 101.275L128.076 102.559ZM122.711 91.5682L128.478 101.585L127.325 102.249L121.558 92.2318L122.711 91.5682ZM140.542 82.0217L122.467 92.4756L121.802 91.3243L139.876 80.8704L140.542 82.0217ZM143.555 80.2811L140.542 82.0219L139.877 80.8702L142.89 79.1294L143.555 80.2811ZM144.433 79.7754L143.555 80.2814L142.891 79.1291L143.768 78.6231L144.433 79.7754ZM144.723 79.608L144.433 79.7754L143.768 78.6231L144.059 78.4558L144.723 79.608ZM154.452 90.7838L143.905 79.4857L144.877 78.5781L155.424 89.8762L154.452 90.7838ZM157.811 89.6373L155.236 90.9248L154.641 89.7352L157.216 88.4477L157.811 89.6373ZM146.276 75.5601L158.008 88.5977L157.019 89.4873L145.287 76.4498L146.276 75.5601ZM143.426 75.1466C144.347 74.6227 145.526 74.7777 146.261 75.5447L145.301 76.4652C144.999 76.1498 144.49 76.0716 144.083 76.3029L143.426 75.1466ZM142.702 75.5583L143.426 75.1466L144.083 76.3028L143.359 76.7145L142.702 75.5583ZM142.37 75.7467L142.702 75.5583L143.359 76.7145L143.028 76.9029L142.37 75.7467ZM141.829 74.1229L143.224 75.9166L142.174 76.733L140.779 74.9393L141.829 74.1229ZM141.519 73.3193C141.647 73.7114 141.778 74.0154 141.885 74.2081L140.723 74.8541C140.561 74.5636 140.4 74.1749 140.255 73.7333L141.519 73.3193ZM141.062 71.0978C141.151 71.9314 141.308 72.6749 141.519 73.3193L140.255 73.7333C140.011 72.9882 139.837 72.152 139.739 71.2398L141.062 71.0978ZM142.177 62.5088C141.144 65.7632 140.798 68.6397 141.062 71.0978L139.739 71.2398C139.451 68.5535 139.836 65.4877 140.909 62.1065L142.177 62.5088ZM138.306 32.8188C140.53 37.9153 142.068 43.5116 142.767 48.7336C143.465 53.9438 143.337 58.8391 142.177 62.5081L140.909 62.1073C141.986 58.6989 142.134 54.0223 141.449 48.9102C140.766 43.81 139.262 38.3334 137.087 33.3508L138.306 32.8188ZM137.475 31.1717C137.809 31.7612 138.1 32.3421 138.307 32.8206L137.087 33.3489C136.902 32.9217 136.632 32.3833 136.317 31.8261L137.475 31.1717ZM135.628 28.473C136.296 29.2708 136.916 30.1823 137.475 31.1717L136.317 31.8261C135.792 30.8971 135.218 30.0544 134.608 29.3273L135.628 28.473ZM129.182 25.3525C131.546 24.992 133.721 26.1977 135.628 28.473L134.608 29.3273C132.853 27.2323 131.099 26.4056 129.383 26.6673L129.182 25.3525ZM128.677 25.4296L129.182 25.3525L129.383 26.6673L128.877 26.7444L128.677 25.4296ZM129.442 11.6699V26.087H128.112V11.6699H129.442ZM124.014 6.33499C126.992 6.33499 129.442 8.71477 129.442 11.6699H128.112C128.112 9.47449 126.283 7.66501 124.014 7.66501V6.33499ZM100.921 6.33499L124.014 6.33499V7.66501L100.921 7.66501V6.33499ZM95.4997 11.6699C95.4997 8.7141 97.9436 6.33499 100.921 6.33499V7.66501C98.6546 7.66501 96.8297 9.47198 96.8297 11.6699H95.4997ZM95.4997 28.4664V11.6699H96.8297V28.4664H95.4997ZM95.8401 27.4993L96.5048 27.8949L95.8246 29.0378L95.1599 28.6422L95.8401 27.4993ZM93.6204 26.6565C94.3864 26.7884 95.1291 27.0761 95.8401 27.4993L95.1599 28.6422C94.5715 28.292 93.9815 28.0683 93.3947 27.9673L93.6204 26.6565ZM89.4768 27.7215C90.6989 26.7819 92.1283 26.4074 93.617 26.656L93.398 27.9678C92.2884 27.7826 91.2292 28.0518 90.2875 28.7759L89.4768 27.7215ZM87.5669 35.1463C86.8907 32.3361 87.4702 29.2642 89.4769 27.7215L90.2875 28.7759C88.8593 29.8739 88.2503 32.3012 88.86 34.8352L87.5669 35.1463ZM89.0683 38.6164C88.3332 37.4026 87.83 36.256 87.5664 35.1442L88.8605 34.8373C89.0841 35.7803 89.5219 36.7979 90.206 37.9274L89.0683 38.6164ZM89.2927 38.9869L89.0683 38.6164L90.206 37.9274L90.4303 38.2979L89.2927 38.9869ZM89.1472 38.2932L89.5219 38.0707L90.2011 39.2142L89.8265 39.4367L89.1472 38.2932ZM87.2327 39.9666C87.7785 39.2894 88.4265 38.7213 89.1472 38.2932L89.8265 39.4367C89.2487 39.7799 88.7197 40.2411 88.2683 40.8012L87.2327 39.9666ZM86.4275 46.6255C85.1854 44.678 85.6086 41.9964 87.2312 39.9684L88.2697 40.7994C86.8943 42.5184 86.6969 44.5745 87.5488 45.9103L86.4275 46.6255ZM86.6573 46.9859L86.4275 46.6255L87.5488 45.9103L87.7787 46.2707L86.6573 46.9859ZM86.4966 46.302L86.8578 46.0693L87.5782 47.1873L87.2169 47.4201L86.4966 46.302ZM84.7465 47.8784C85.2426 47.2609 85.8338 46.7291 86.4966 46.302L87.2169 47.4201C86.6741 47.7699 86.1898 48.2055 85.7833 48.7114L84.7465 47.8784ZM84.8619 55.5764C82.6147 53.7758 82.7601 50.3591 84.7458 47.8792L85.784 48.7105C84.0778 50.8414 84.2205 53.3581 85.6936 54.5385L84.8619 55.5764ZM85.7355 56.3411L84.84 55.558L85.7155 54.5568L86.611 55.3399L85.7355 56.3411ZM86.1773 56.728L85.7352 56.3408L86.6114 55.3402L87.0535 55.7274L86.1773 56.728ZM85.7669 55.9646L86.2705 55.6591L86.9603 56.7962L86.4568 57.1017L85.7669 55.9646ZM84.0887 57.3573C84.5734 56.8136 85.1374 56.3466 85.7669 55.9646L86.4568 57.1017C85.9377 57.4167 85.4764 57.7994 85.0815 58.2423L84.0887 57.3573ZM82.345 61.9896C82.2447 60.3673 82.9046 58.6821 84.0893 57.3566L85.0809 58.243C84.0938 59.3473 83.5975 60.6947 83.6725 61.9075L82.345 61.9896ZM83.8571 65.1039C82.9538 64.328 82.426 63.217 82.3452 61.9923L83.6723 61.9047C83.7313 62.7991 84.1107 63.5684 84.7237 64.0949L83.8571 65.1039ZM89.5834 70.0333L83.8566 65.1034L84.7243 64.0954L90.4511 69.0253L89.5834 70.0333ZM92.0291 71.0596C91.1059 70.9623 90.2663 70.6182 89.5847 70.0344L90.4499 69.0242C90.9108 69.4191 91.4917 69.6656 92.1686 69.7369L92.0291 71.0596ZM92.0785 71.1392L91.7889 70.9866L92.4088 69.8099L92.6985 69.9626L92.0785 71.1392ZM117.39 91.5182C109.689 88.9043 100.906 81.6273 91.8812 70.9809L92.8958 70.1209C101.88 80.7191 110.469 87.7645 117.818 90.2588L117.39 91.5182ZM117.698 91.6227L117.39 91.5182L117.818 90.2588L118.126 90.3632L117.698 91.6227ZM117.235 91.2888L117.247 90.9676L118.576 91.0183L118.564 91.3395L117.235 91.2888ZM102.474 63.7979C102.995 63.1186 103.363 62.3691 103.564 61.5897L104.852 61.9219C104.604 62.8819 104.155 63.7929 103.528 64.6082L102.474 63.7979ZM99.0882 65.9425C100.309 65.7668 101.551 65.004 102.473 63.7991L103.529 64.607C102.433 66.0401 100.899 67.0257 99.2777 67.259L99.0882 65.9425ZM98.5569 66.019L99.0882 65.9425L99.2777 67.259L98.7464 67.3355L98.5569 66.019ZM100.195 67.6594C99.7927 67.6594 99.3396 67.5619 99.0213 67.4797C98.8549 67.4368 98.7102 67.394 98.6068 67.3618C98.555 67.3456 98.513 67.332 98.4835 67.3223C98.4687 67.3174 98.457 67.3134 98.4486 67.3106C98.4444 67.3092 98.441 67.308 98.4386 67.3072C98.4373 67.3068 98.4363 67.3064 98.4355 67.3061C98.4351 67.306 98.4348 67.3059 98.4345 67.3058C98.4343 67.3057 98.4342 67.3057 98.4341 67.3056C98.434 67.3056 98.434 67.3056 98.4339 67.3056C98.4339 67.3056 98.4338 67.3055 98.6517 66.6772C98.8696 66.049 98.8695 66.0489 98.8695 66.0489C98.8695 66.0489 98.8694 66.0489 98.8694 66.0489C98.8693 66.0489 98.8693 66.0488 98.8692 66.0488C98.8692 66.0488 98.8692 66.0488 98.8692 66.0488C98.8693 66.0488 98.8696 66.0489 98.8701 66.0491C98.8711 66.0495 98.873 66.0501 98.8756 66.051C98.881 66.0528 98.8895 66.0557 98.9009 66.0595C98.9238 66.067 98.9583 66.0782 99.002 66.0918C99.0897 66.1191 99.2129 66.1556 99.3537 66.1919C99.6499 66.2683 99.9684 66.3294 100.195 66.3294V67.6594ZM123.509 67.6594L100.195 67.6594V66.3294L123.509 66.3294V67.6594ZM125.637 65.4674C125.637 66.6573 124.705 67.6594 123.509 67.6594V66.3294C123.922 66.3294 124.307 65.9722 124.307 65.4674H125.637ZM125.637 60.9925V65.4674H124.307V60.9925H125.637ZM125.636 33.2994L125.637 60.9924L124.307 60.9925L124.306 33.2994L125.636 33.2994ZM125.637 31.4626C125.599 32.1081 125.599 32.6921 125.634 33.2578L124.307 33.341C124.268 32.716 124.269 32.0779 124.309 31.3852L125.637 31.4626ZM125.638 13.4498L125.638 31.4239L124.308 31.4239L124.307 13.4498L125.638 13.4498ZM122.578 10.3908C124.268 10.3908 125.637 11.7603 125.638 13.4498L124.307 13.4498C124.307 12.4949 123.533 11.7208 122.578 11.7208V10.3908ZM101.499 10.3908L122.578 10.3908V11.7208L101.499 11.7208V10.3908ZM98.4404 13.4499C98.4404 11.7604 99.81 10.3908 101.499 10.3908V11.7208C100.545 11.7208 99.7704 12.4949 99.7704 13.4499H98.4404ZM98.4404 42.1239V13.4499H99.7704V42.1239H98.4404ZM98.4096 42.3807C98.4329 42.1695 98.4376 42.1261 98.443 42.0657L99.7679 42.1821C99.7609 42.261 99.7541 42.3223 99.7315 42.5268L98.4096 42.3807ZM98.4015 42.4533L98.4095 42.3807L99.7315 42.5268L99.7235 42.5994L98.4015 42.4533ZM98.8456 43.1986L98.6569 43.0534L99.4681 41.9994L99.6568 42.1446L98.8456 43.1986ZM99.7192 43.8709L98.8456 43.1986L99.6568 42.1446L100.53 42.817L99.7192 43.8709ZM99.6887 49.7159C101.406 47.5677 101.241 45.0417 99.7192 43.871L100.53 42.8169C102.849 44.6012 102.727 48.0446 100.728 50.5463L99.6887 49.7159ZM98.0489 51.1278C98.6678 50.7716 99.2272 50.2914 99.6894 49.7151L100.727 50.5472C100.163 51.2499 99.4779 51.8399 98.7123 52.2805L98.0489 51.1278ZM97.5299 51.4265L98.0489 51.1278L98.7123 52.2805L98.1933 52.5792L97.5299 51.4265ZM97.8747 52.8966L97.4246 52.5041L98.2986 51.5016L98.7488 51.8941L97.8747 52.8966ZM102.855 57.2379L97.8748 52.8966L98.7487 51.8941L103.729 56.2353L102.855 57.2379ZM103.421 57.8413C103.157 57.52 102.979 57.3376 102.876 57.2555L103.708 56.2177C103.924 56.3909 104.174 56.6636 104.448 56.9971L103.421 57.8413ZM103.644 61.2667C103.944 60.0376 103.839 58.8522 103.326 57.6874L104.543 57.151C105.174 58.5824 105.306 60.0671 104.936 61.582L103.644 61.2667ZM103.563 61.5952L103.645 61.2638L104.936 61.5849L104.853 61.9163L103.563 61.5952ZM89.3388 44.5822L89.2535 44.4359L90.4025 43.7661L90.4878 43.9123L89.3388 44.5822ZM95.5022 49.333L89.5107 44.7766L90.3158 43.7179L96.3073 48.2743L95.5022 49.333ZM95.8375 49.4718L95.7472 49.4497L96.0623 48.1576L96.1526 48.1796L95.8375 49.4718ZM95.9133 49.4875C95.8909 49.4835 95.8816 49.4815 95.8562 49.476L96.1339 48.1753C96.1404 48.1767 96.1446 48.1776 96.1477 48.1783C96.1509 48.1789 96.1515 48.1791 96.151 48.179C96.1499 48.1787 96.1482 48.1784 96.1465 48.1781C96.1457 48.1779 96.1454 48.1779 96.1487 48.1785L95.9133 49.4875ZM95.9909 49.4986C95.9572 49.4942 95.9524 49.4936 95.9346 49.491L96.1274 48.175C96.1329 48.1758 96.1329 48.1758 96.1348 48.1761C96.1389 48.1766 96.1458 48.1775 96.1637 48.1799L95.9909 49.4986ZM96.1727 49.5084C96.1117 49.5084 96.0799 49.5067 96.0228 49.502L96.1318 48.1765C96.1417 48.1773 96.1475 48.1777 96.1514 48.178C96.155 48.1783 96.1559 48.1783 96.1557 48.1783C96.1545 48.1782 96.1562 48.1784 96.1727 48.1784V49.5084ZM98.465 48.2048C97.8806 48.9395 97.0012 49.5084 96.1727 49.5084V48.1784C96.447 48.1784 96.982 47.9327 97.4241 47.3769L98.465 48.2048ZM99.0837 45.3475C99.3571 45.7862 99.3075 46.3514 99.1947 46.7811C99.0708 47.2533 98.8213 47.7599 98.4635 48.2066L97.4255 47.3751C97.671 47.0686 97.8333 46.7291 97.9082 46.4436C97.9943 46.1156 97.9304 46.0116 97.9549 46.0509L99.0837 45.3475ZM98.9999 45.2131L99.0837 45.3475L97.955 46.051L97.8712 45.9165L98.9999 45.2131ZM92.7367 40.4363L98.8358 45.0337L98.0353 46.0958L91.9362 41.4984L92.7367 40.4363ZM92.1877 40.3023H92.3364V41.6323H92.1877V40.3023ZM89.8909 41.6035C90.4828 40.869 91.3601 40.3023 92.1877 40.3023V41.6323C91.9139 41.6323 91.3794 41.8761 90.9266 42.438L89.8909 41.6035ZM89.2535 44.4359C88.9986 43.9987 89.0512 43.4422 89.1651 43.0152C89.29 42.5472 89.5369 42.0455 89.8897 41.605L90.9278 42.4365C90.6879 42.7359 90.5265 43.072 90.4502 43.358C90.363 43.6849 90.4215 43.7987 90.4025 43.7661L89.2535 44.4359ZM98.8131 61.798H98.9304V63.128H98.8131V61.798ZM87.5141 51.9676L99.2443 61.9567L98.3819 62.9693L86.6518 52.9802L87.5141 51.9676ZM87.4194 51.8917L87.4973 51.9537L86.6686 52.994L86.5907 52.932L87.4194 51.8917ZM87.4022 51.8571L87.5032 51.9712L86.507 52.8524L86.406 52.7383L87.4022 51.8571ZM88.0099 50.6362C87.7627 50.9362 87.5982 51.2715 87.5212 51.5554C87.4332 51.8799 87.4945 51.9889 87.4734 51.9539L86.3348 52.6414C86.0687 52.2006 86.1207 51.6381 86.2375 51.2073C86.3654 50.7358 86.6197 50.2318 86.9835 49.7904L88.0099 50.6362ZM89.1193 49.8509C88.7844 49.9383 88.3581 50.2109 88.0112 50.6346L86.9821 49.792C87.4661 49.2009 88.1194 48.7373 88.7833 48.564L89.1193 49.8509ZM89.5343 49.6251L89.3075 49.769L88.5951 48.6459L88.8219 48.502L89.5343 49.6251ZM89.7945 49.3629L89.6886 49.4898L88.6677 48.6373L88.7736 48.5104L89.7945 49.3629ZM100.842 59.6576L88.8528 49.4429L89.7153 48.4305L101.705 58.6452L100.842 59.6576ZM100.937 59.7334L100.859 59.6715L101.688 58.6312L101.766 58.6931L100.937 59.7334ZM100.954 59.768L100.853 59.6539L101.849 58.7726L101.95 58.8868L100.954 59.768ZM100.347 60.9881C100.593 60.6864 100.757 60.3503 100.834 60.0662C100.922 59.7406 100.86 59.6337 100.883 59.6711L102.021 58.9837C102.287 59.4235 102.234 59.9853 102.118 60.4137C101.991 60.8836 101.738 61.3868 101.378 61.8287L100.347 60.9881ZM99.042 61.8031C99.3394 61.8012 99.889 61.5475 100.348 60.9871L101.377 61.8297C100.774 62.5665 99.8854 63.1276 99.0508 63.1331L99.042 61.8031ZM99.021 61.8016L99.0728 61.8037L99.02 63.1326L98.9683 63.1306L99.021 61.8016ZM98.9645 61.7988C98.9964 61.8005 99.0063 61.801 99.0227 61.8017L98.9666 63.1305C98.9431 63.1295 98.9273 63.1287 98.8963 63.1271L98.9645 61.7988ZM96.0189 32.3796L96.1463 32.5L95.233 33.4669L95.1056 33.3465L96.0189 32.3796ZM95.9591 32.3176C95.9573 32.3149 95.9647 32.3284 96.0189 32.3796L95.1056 33.3465C95.0169 33.2628 94.9249 33.1666 94.8447 33.0436L95.9591 32.3176ZM92.5295 29.626C93.1391 29.7229 93.7719 30.0786 94.3375 30.5332C94.9157 30.9979 95.4806 31.6118 95.9523 32.3074L94.8515 33.0538C94.449 32.4602 93.9725 31.9462 93.5043 31.5699C93.0235 31.1834 92.605 30.9847 92.3205 30.9395L92.5295 29.626ZM90.9689 30.0331C91.4513 29.6789 91.9526 29.5322 92.5317 29.6263L92.3184 30.9391C92.1383 30.9098 91.9912 30.9325 91.756 31.1052L90.9689 30.0331ZM90.2217 34.0721C90.0303 33.306 90.0052 32.4885 90.1112 31.7917C90.1643 31.4425 90.2531 31.1059 90.3825 30.8125C90.5084 30.5271 90.6942 30.234 90.9698 30.0324L91.755 31.1059C91.7387 31.1179 91.6742 31.1798 91.5994 31.3492C91.5283 31.5105 91.4661 31.7285 91.4261 31.9918C91.3457 32.5201 91.3647 33.1599 91.5121 33.7498L90.2217 34.0721ZM92.6203 38.2941C91.3588 36.737 90.5346 35.3268 90.2217 34.0718L91.5122 33.7501C91.7562 34.7288 92.4408 35.9597 93.6537 37.4568L92.6203 38.2941ZM92.6875 38.377L92.6203 38.2941L93.6537 37.4568L93.7209 37.5398L92.6875 38.377ZM93.0395 38.6122L92.9377 38.5677L93.4706 37.3491L93.5725 37.3937L93.0395 38.6122ZM93.6051 38.9288C93.4567 38.8197 93.2684 38.7123 93.0395 38.6122L93.5725 37.3937C93.8728 37.525 94.1503 37.6788 94.3929 37.8572L93.6051 38.9288ZM95.2929 40.1835L93.6023 38.9267L94.3958 37.8593L96.0864 39.1161L95.2929 40.1835ZM96.3546 32.9834V39.6498H95.0246V32.9834H96.3546ZM120.903 88.0675L128.723 83.5551L129.388 84.7071L121.568 89.2195L120.903 88.0675ZM120.77 88.1444L120.903 88.0675L121.568 89.2195L121.435 89.2964L120.77 88.1444ZM121.064 88.039L121.216 88.0652L120.989 89.3757L120.838 89.3495L121.064 88.039ZM96.5762 69.4666C101.271 74.8932 105.75 79.2601 109.889 82.4119C114.036 85.5699 117.799 87.4738 121.064 88.039L120.838 89.3495C117.273 88.7325 113.31 86.6886 109.083 83.4701C104.848 80.2454 100.303 75.8071 95.5704 70.3368L96.5762 69.4666ZM96.2837 69.1286L96.5762 69.4666L95.5704 70.3368L95.2779 69.9988L96.2837 69.1286ZM96.6472 69.7078L96.2062 70.0748L95.3554 69.0525L95.7965 68.6855L96.6472 69.7078ZM96.9449 69.4479C96.8593 69.5295 96.7778 69.5997 96.646 69.7088L95.7977 68.6844C95.922 68.5815 95.9755 68.5345 96.0273 68.4851L96.9449 69.4479ZM97.2948 69.1144L96.9449 69.4479L96.0273 68.4851L96.3772 68.1516L97.2948 69.1144ZM96.5886 69.4177L96.3009 69.0279L97.3711 68.2382L97.6588 68.628L96.5886 69.4177ZM100.923 71.6121C99.2085 71.6121 97.6034 70.793 96.5886 69.4177L97.6588 68.628C98.4251 69.6666 99.6346 70.2821 100.923 70.2821V71.6121ZM123.776 71.6121H100.923V70.2821L123.776 70.2821V71.6121ZM129.157 66.2653C129.157 69.2198 126.74 71.6121 123.776 71.6121V70.2821C126.015 70.2821 127.827 68.4761 127.827 66.2653H129.157ZM129.157 48.8864V66.2653H127.827V48.8864H129.157ZM129.297 48.61C129.261 48.7863 129.198 48.9481 129.095 49.168L127.89 48.6048C127.978 48.4167 127.989 48.3666 127.994 48.3439L129.297 48.61ZM130.815 41.5566L129.295 48.6169L127.995 48.337L129.515 41.2767L130.815 41.5566ZM130.745 40.3646C130.875 40.7449 130.896 41.1558 130.817 41.5474L129.513 41.286C129.548 41.1121 129.536 40.9397 129.486 40.7926L130.745 40.3646ZM129.158 33.5622C129.309 35.3387 129.827 37.6137 130.746 40.368L129.485 40.7893C128.547 37.9807 127.995 35.5953 127.833 33.6743L129.158 33.5622ZM129.16 31.4756L129.161 33.6181L127.831 33.6184L127.83 31.4759L129.16 31.4756ZM129.685 29.8756C129.476 30.1254 129.253 30.6568 129.156 31.5476L127.834 31.4038C127.943 30.4048 128.21 29.5651 128.666 29.0211L129.685 29.8756ZM129.797 29.7421L129.685 29.8756L128.666 29.0211L128.778 28.8875L129.797 29.7421ZM129.527 29.9588L129.355 29.9764L129.22 28.6533L129.392 28.6357L129.527 29.9588ZM133.683 34.6974C133.047 33.2339 132.234 31.9816 131.431 31.125C131.029 30.6964 130.644 30.3832 130.302 30.1885C129.955 29.9911 129.698 29.9413 129.527 29.9588L129.392 28.6357C129.935 28.5801 130.473 28.7558 130.96 29.0325C131.451 29.312 131.938 29.7217 132.401 30.2152C133.327 31.2027 134.218 32.5909 134.903 34.167L133.683 34.6974ZM137.346 61.2931C138.288 58.2765 138.389 53.9724 137.733 49.2134C137.079 44.469 135.681 39.3375 133.682 34.6952L134.904 34.1692C136.951 38.9235 138.381 44.171 139.051 49.0318C139.719 53.878 139.641 58.4052 138.615 61.6897L137.346 61.2931ZM136.165 72.6644C135.634 69.3501 136.021 65.5347 137.346 61.2932L138.615 61.6896C137.334 65.7924 136.988 69.3946 137.479 72.4539L136.165 72.6644ZM136.98 75.6637C136.617 74.7734 136.342 73.7676 136.165 72.6644L137.479 72.4539C137.642 73.4711 137.891 74.3769 138.212 75.1607L136.98 75.6637ZM137.676 77.0086C137.417 76.6233 137.194 76.1876 136.98 75.6637L138.212 75.1607C138.401 75.6241 138.584 75.9752 138.78 76.2675L137.676 77.0086ZM138.567 78.1723L137.701 77.0428L138.756 76.2334L139.622 77.3629L138.567 78.1723ZM138.871 78.569L138.567 78.1721L139.622 77.3631L139.927 77.7601L138.871 78.569ZM128.723 83.5551L139.066 77.5885L139.731 78.7406L129.388 84.7072L128.723 83.5551ZM85.4016 61.8704L85.325 61.7321L86.4884 61.0875L86.565 61.2258L85.4016 61.8704ZM91.3303 66.8147L85.5605 62.0614L86.4061 61.0348L92.176 65.7881L91.3303 66.8147ZM91.6392 66.9627L91.5533 66.9357L91.953 65.6671L92.039 65.6942L91.6392 66.9627ZM91.7268 66.9866C91.7002 66.9802 91.6906 66.9775 91.6597 66.9689L92.0184 65.6881C92.026 65.6902 92.0309 65.6916 92.0345 65.6926C92.0382 65.6936 92.039 65.6938 92.0385 65.6937C92.0374 65.6934 92.0359 65.693 92.0346 65.6927C92.0344 65.6927 92.0347 65.6927 92.0389 65.6938L91.7268 66.9866ZM91.8327 67.007C91.7847 66.9985 91.7778 66.9973 91.7535 66.9925L92.0121 65.6879C92.0195 65.6893 92.0194 65.6893 92.0222 65.6898C92.0282 65.6909 92.0382 65.6927 92.0639 65.6972L91.8327 67.007ZM92.086 67.0254C92.0078 67.0254 91.9254 67.0206 91.8538 67.0104L92.0428 65.6938C92.0381 65.6932 92.0409 65.6937 92.0513 65.6944C92.0608 65.695 92.0728 65.6954 92.086 65.6954V67.0254ZM94.3699 65.8728C93.7535 66.5401 92.8882 67.0254 92.086 67.0254V65.6954C92.3985 65.6954 92.9346 65.4665 93.3929 64.9703L94.3699 65.8728ZM95.2476 63.2748C95.4771 63.7215 95.3671 64.2318 95.2126 64.6108C95.0439 65.0242 94.7527 65.4594 94.3694 65.8734L93.3935 64.9697C93.6966 64.6424 93.8868 64.3395 93.981 64.1085C94.0893 63.8431 94.0235 63.8027 94.0646 63.8826L95.2476 63.2748ZM95.1708 63.1253L95.2476 63.2748L94.0646 63.8826L93.9878 63.7331L95.1708 63.1253ZM89.0943 57.9801L95.0057 62.9189L94.1529 63.9396L88.2415 59.0008L89.0943 57.9801ZM88.0943 58.1524L88.1124 58.1248L89.2234 58.8561L89.2052 58.8837L88.0943 58.1524ZM88.7614 57.8592C88.7904 57.8664 88.801 57.8695 88.8347 57.8793L88.4648 59.1568C88.4565 59.1544 88.4511 59.1529 88.4471 59.1517C88.443 59.1505 88.4422 59.1503 88.4427 59.1504C88.4439 59.1508 88.4456 59.1512 88.4471 59.1516C88.4474 59.1517 88.4472 59.1516 88.4426 59.1505L88.7614 57.8592ZM88.6981 57.8462C88.7138 57.849 88.7224 57.8508 88.7328 57.8528L88.4712 59.1569C88.466 59.1558 88.4648 59.1556 88.4637 59.1554C88.4632 59.1553 88.4622 59.1551 88.459 59.1545L88.6981 57.8462ZM88.6529 57.8381C88.6744 57.8419 88.6883 57.8444 88.6982 57.8462L88.4589 59.1545C88.4524 59.1533 88.4419 59.1514 88.4189 59.1473L88.6529 57.8381ZM88.3974 57.8193C88.476 57.8193 88.559 57.8241 88.6311 57.8345L88.4407 59.1509C88.444 59.1513 88.4448 59.1514 88.4428 59.1512C88.441 59.151 88.4377 59.1507 88.433 59.1504C88.4234 59.1498 88.411 59.1493 88.3974 59.1493V57.8193ZM86.1098 58.9716C86.7233 58.3056 87.5953 57.8193 88.3974 57.8193V59.1493C88.0826 59.1493 87.5405 59.3815 87.0879 59.8727L86.1098 58.9716ZM85.325 61.7321C85.0756 61.282 85.1616 60.7265 85.2987 60.3156C85.4502 59.8618 85.7284 59.3825 86.1114 58.9698L87.0863 59.8745C86.8277 60.1532 86.6497 60.4689 86.5603 60.7366C86.4567 61.0472 86.5174 61.1398 86.4884 61.0875L85.325 61.7321Z" fill="#132C45"/>
<path d="M117.068 33.6969L112.754 38.0107V27.8772H110.747V38.0107L106.433 33.6969L105.028 35.1013L111.751 41.824L118.473 35.1013L117.068 33.6969Z" fill="#132C45"/>
<path d="M106.232 43.931H117.268V45.9374H106.232V43.931Z" fill="#132C45"/>
</svg>
