<svg width="240" height="110" viewBox="0 0 240 110" fill="none" xmlns="http://www.w3.org/2000/svg">
<rect width="240" height="110" fill="white"/>
<rect x="78.2546" y="23.2546" width="83.4909" height="63.4909" rx="4.71543" fill="#50E3C2" stroke="#132C45" stroke-width="3.49086"/>
<path fill-rule="evenodd" clip-rule="evenodd" d="M105.575 64.5481C106.903 63.2197 108.705 62.4734 110.583 62.4734H120.5C122.379 62.4734 124.18 63.2197 125.509 64.5481C126.837 65.8764 127.583 67.6781 127.583 69.5567V72.3901C127.583 73.1725 126.949 73.8067 126.167 73.8067C125.384 73.8067 124.75 73.1725 124.75 72.3901V69.5567C124.75 68.4296 124.302 67.3485 123.505 66.5515C122.708 65.7545 121.627 65.3067 120.5 65.3067H110.583C109.456 65.3067 108.375 65.7545 107.578 66.5515C106.781 67.3485 106.333 68.4296 106.333 69.5567V72.3901C106.333 73.1725 105.699 73.8067 104.917 73.8067C104.134 73.8067 103.5 73.1725 103.5 72.3901V69.5567C103.5 67.6781 104.246 65.8764 105.575 64.5481Z" fill="white"/>
<path fill-rule="evenodd" clip-rule="evenodd" d="M115.542 48.3067C113.194 48.3067 111.292 50.2095 111.292 52.5567C111.292 54.9039 113.194 56.8067 115.542 56.8067C117.889 56.8067 119.792 54.9039 119.792 52.5567C119.792 50.2095 117.889 48.3067 115.542 48.3067ZM108.458 52.5567C108.458 48.6447 111.63 45.4734 115.542 45.4734C119.454 45.4734 122.625 48.6447 122.625 52.5567C122.625 56.4687 119.454 59.6401 115.542 59.6401C111.63 59.6401 108.458 56.4687 108.458 52.5567Z" fill="white"/>
<path fill-rule="evenodd" clip-rule="evenodd" d="M131.833 52.5567C132.616 52.5567 133.25 53.191 133.25 53.9734V62.4734C133.25 63.2558 132.616 63.8901 131.833 63.8901C131.051 63.8901 130.417 63.2558 130.417 62.4734V53.9734C130.417 53.191 131.051 52.5567 131.833 52.5567Z" fill="white"/>
<path fill-rule="evenodd" clip-rule="evenodd" d="M126.167 58.2234C126.167 57.441 126.801 56.8067 127.583 56.8067H136.083C136.866 56.8067 137.5 57.441 137.5 58.2234C137.5 59.0058 136.866 59.6401 136.083 59.6401H127.583C126.801 59.6401 126.167 59.0058 126.167 58.2234Z" fill="white"/>
<path d="M160 35.7454H161.745V34V27.97C161.745 25.3657 159.634 23.2546 157.03 23.2546H82.97C80.3657 23.2546 78.2546 25.3657 78.2546 27.97V34V35.7454H80H160Z" fill="white" stroke="#132C45" stroke-width="3.49086"/>
<rect x="83.6179" y="28.2327" width="3" height="3" fill="#132C45"/>
<rect x="88.6179" y="28.2327" width="3" height="3" fill="#132C45"/>
<rect x="93.6179" y="28.2327" width="3" height="3" fill="#132C45"/>
</svg>
