<svg width="240" height="110" viewBox="0 0 240 110" fill="none" xmlns="http://www.w3.org/2000/svg">
<rect width="240" height="110" fill="white"/>
<rect x="69.2546" y="15.2546" width="83.4909" height="63.4909" rx="4.71543" fill="white" stroke="#132C45" stroke-width="3.49086"/>
<path d="M151 27.7454H152.745V26V19.97C152.745 17.3657 150.634 15.2546 148.03 15.2546H73.97C71.3657 15.2546 69.2546 17.3657 69.2546 19.97V26V27.7454H71H151Z" fill="#50E3C2" stroke="#132C45" stroke-width="3.49086"/>
<rect x="74.6179" y="20.2327" width="3" height="3" fill="#132C45"/>
<rect x="79.6179" y="20.2327" width="3" height="3" fill="#132C45"/>
<rect x="84.6179" y="20.2327" width="3" height="3" fill="#132C45"/>
<rect x="120.5" y="42.6401" width="44" height="43" fill="white"/>
<path d="M169.5 87.4365L157.25 75.1872C159.178 72.2763 160.299 68.7923 160.299 65.0401C160.299 54.8769 152.062 46.6401 141.9 46.6401C131.737 46.6401 123.5 54.8787 123.5 65.0419C123.5 75.2015 131.737 83.4419 141.9 83.4419C145.65 83.4419 149.138 82.3171 152.048 80.3908L164.296 92.6401L169.5 87.4365ZM128.713 65.0438C128.713 57.7611 134.618 51.8602 141.9 51.8602C149.183 51.8602 155.088 57.7611 155.088 65.0438C155.088 72.3265 149.183 78.231 141.9 78.231C134.618 78.231 128.713 72.3265 128.713 65.0438V65.0438Z" fill="#50E3C2"/>
<rect x="80.5" y="40.6401" width="28" height="3" rx="1.5" fill="#132C45"/>
<rect x="80.5" y="50.6401" width="28" height="3" rx="1.5" fill="#132C45"/>
<rect x="80.5" y="60.6401" width="28" height="3" rx="1.5" fill="#132C45"/>
</svg>
