<svg width="240" height="110" viewBox="0 0 240 110" fill="none" xmlns="http://www.w3.org/2000/svg">
<rect width="240" height="110" fill="white"/>
<rect x="77.2546" y="5.25457" width="49.4829" height="69.7193" rx="4.71543" fill="white" stroke="#132C45" stroke-width="3.49086"/>
<mask id="path-3-inside-1" fill="white">
<rect x="99.2976" y="19.748" width="18.0642" height="2.88523" rx="1.38703"/>
</mask>
<rect x="99.2976" y="19.748" width="18.0642" height="2.88523" rx="1.38703" fill="#50E3C2" stroke="#50E3C2" stroke-width="2.88523" stroke-linecap="round" stroke-linejoin="round" mask="url(#path-3-inside-1)"/>
<rect x="99.2976" y="24.229" width="10.5646" height="2.88523" rx="1.38703" fill="#50E3C2"/>
<path d="M87.4691 27.1143V25.1823H89.3731V20.5903H87.6931V19.1063C88.1971 19.0036 88.6264 18.8869 88.9811 18.7563C89.3358 18.6256 89.6811 18.4529 90.0171 18.2383H91.7811V25.1823H93.3771V27.1143H87.4691Z" fill="#50E3C2"/>
<mask id="path-6-inside-2" fill="white">
<rect x="99.2976" y="35.748" width="18.0642" height="2.88523" rx="1.38703"/>
</mask>
<rect x="99.2976" y="35.748" width="18.0642" height="2.88523" rx="1.38703" fill="#132C45" stroke="#132C45" stroke-width="2.88523" stroke-linecap="round" stroke-linejoin="round" mask="url(#path-6-inside-2)"/>
<rect x="99.2976" y="40.229" width="10.5646" height="2.88523" rx="1.38703" fill="#132C45"/>
<path d="M87.0491 43.1143V41.7423C87.5718 41.2569 88.0571 40.7996 88.5051 40.3703C88.9624 39.9409 89.3591 39.5396 89.6951 39.1663C90.0311 38.7836 90.2924 38.4243 90.4791 38.0883C90.6751 37.7429 90.7731 37.4209 90.7731 37.1223C90.7731 36.7209 90.6704 36.4269 90.4651 36.2403C90.2691 36.0443 90.0078 35.9463 89.6811 35.9463C89.3824 35.9463 89.1164 36.0349 88.8831 36.2123C88.6591 36.3803 88.4398 36.5716 88.2251 36.7863L86.9371 35.4983C87.1704 35.2556 87.3991 35.0456 87.6231 34.8683C87.8471 34.6816 88.0804 34.5323 88.3231 34.4203C88.5751 34.2989 88.8364 34.2103 89.1071 34.1543C89.3871 34.0983 89.6904 34.0703 90.0171 34.0703C90.4651 34.0703 90.8758 34.1403 91.2491 34.2803C91.6224 34.4203 91.9444 34.6163 92.2151 34.8683C92.4858 35.1203 92.6958 35.4283 92.8451 35.7923C92.9944 36.1469 93.0691 36.5436 93.0691 36.9823C93.0691 37.3369 92.9898 37.7009 92.8311 38.0743C92.6818 38.4383 92.4858 38.8023 92.2431 39.1663C92.0004 39.5303 91.7251 39.8849 91.4171 40.2303C91.1184 40.5756 90.8198 40.9023 90.5211 41.2103C90.7451 41.1823 90.9971 41.1589 91.2771 41.1403C91.5664 41.1123 91.8091 41.0983 92.0051 41.0983H93.4891V43.1143H87.0491Z" fill="#132C45"/>
<mask id="path-9-inside-3" fill="white">
<rect x="99.2976" y="51.918" width="18.0642" height="2.88523" rx="1.38703"/>
</mask>
<rect x="99.2976" y="51.918" width="18.0642" height="2.88523" rx="1.38703" fill="#132C45" stroke="#132C45" stroke-width="2.88523" stroke-linecap="round" stroke-linejoin="round" mask="url(#path-9-inside-3)"/>
<rect x="99.2976" y="56.3989" width="10.5646" height="2.88523" rx="1.38703" fill="#132C45"/>
<path d="M89.9891 59.2823C89.2611 59.2823 88.6358 59.1703 88.1131 58.9463C87.5904 58.7223 87.1611 58.4143 86.8251 58.0223L87.9171 56.5103C88.1878 56.7623 88.4771 56.9676 88.7851 57.1263C89.1024 57.2756 89.4198 57.3503 89.7371 57.3503C90.1291 57.3503 90.4418 57.2803 90.6751 57.1403C90.9084 57.0003 91.0251 56.7903 91.0251 56.5103C91.0251 56.3423 90.9971 56.1929 90.9411 56.0623C90.8851 55.9316 90.7778 55.8196 90.6191 55.7263C90.4604 55.6329 90.2364 55.5629 89.9471 55.5163C89.6578 55.4696 89.2798 55.4463 88.8131 55.4463V53.7663C89.1864 53.7663 89.4944 53.7429 89.7371 53.6963C89.9891 53.6496 90.1898 53.5843 90.3391 53.5003C90.4884 53.4069 90.5911 53.2996 90.6471 53.1783C90.7124 53.0569 90.7451 52.9169 90.7451 52.7583C90.7451 52.2169 90.4371 51.9463 89.8211 51.9463C89.5224 51.9463 89.2564 52.0069 89.0231 52.1283C88.7898 52.2496 88.5331 52.4316 88.2531 52.6743L87.0491 51.2183C87.4878 50.8543 87.9404 50.5743 88.4071 50.3783C88.8738 50.1729 89.3824 50.0703 89.9331 50.0703C90.9131 50.0703 91.6924 50.2896 92.2711 50.7283C92.8591 51.1576 93.1531 51.7736 93.1531 52.5763C93.1531 53.4349 92.6771 54.0743 91.7251 54.4943V54.5503C92.2291 54.7089 92.6398 54.9656 92.9571 55.3203C93.2744 55.6656 93.4331 56.1183 93.4331 56.6783C93.4331 57.0983 93.3398 57.4716 93.1531 57.7983C92.9664 58.1156 92.7144 58.3863 92.3971 58.6103C92.0891 58.8343 91.7251 59.0023 91.3051 59.1143C90.8851 59.2263 90.4464 59.2823 89.9891 59.2823Z" fill="#132C45"/>
<path d="M149.894 84.2347L134.068 93.6402L127.843 90.9783L112.55 77.2249L105.882 72.1672L107.215 68.4405L108.994 67.287L106.415 64.2702L108.994 60.366V58.2364L109.883 55.0421L111.483 54.2435L109.883 50.3393L110.594 46.7901H114.062L129.977 48.6534L141.359 45.5479L145.538 49.1858L148.027 57.5266L149.005 67.287L148.027 74.6517V78.5559L149.894 84.2347Z" fill="white"/>
<path d="M138.299 31.6662C138.299 31.0941 137.835 30.6302 137.263 30.6302L117.284 30.6302C116.712 30.6302 116.248 31.0941 116.248 31.6662V56.3211C116.248 56.3211 118.338 58.4359 118.338 59.5154C118.338 60.595 116.248 62.5323 116.248 62.5323C116.248 62.5323 115.456 63.7717 115.759 64.3513C116.063 64.9309 118.338 66.5252 118.338 66.5252L121.005 69.7195L119.632 72.0788L116.248 74.7752L117.524 76.9388L134.717 77.2834L138.299 75.2768V31.6662Z" fill="#50E3C2"/>
<path fill-rule="evenodd" clip-rule="evenodd" d="M131.691 94.0794C131.682 94.3342 131.755 94.5892 131.903 94.8118L136.696 102.908L139.343 102.191L134.931 94.5276L148.759 86.5299L151.065 85.1981L151.736 84.8111L151.958 84.683L160.027 93.3265L161.997 92.3415L153.022 82.3673C152.625 81.9533 151.979 81.864 151.471 82.1529L150.917 82.4678L150.664 82.612L149.597 81.2398C149.494 81.0549 149.382 80.7899 149.278 80.471C149.104 79.9395 148.977 79.3353 148.905 78.6674C148.694 76.6996 148.974 74.4266 149.779 71.8884C151.491 66.4739 150.202 57.2427 146.837 49.5318C146.687 49.1853 146.473 48.7571 146.225 48.3185C145.81 47.5847 145.353 46.9137 144.864 46.3303C143.463 44.6586 141.96 43.8812 140.4 44.1192L140.013 44.1782V33.1486C140.013 31.1784 138.376 29.5759 136.369 29.5759L118.702 29.5759C116.696 29.5759 115.063 31.1772 115.063 33.1486V45.9985L114.555 45.6958C114.058 45.4 113.548 45.2044 113.031 45.1153C112.037 44.9493 111.085 45.1956 110.257 45.832C108.943 46.8421 108.489 48.9457 108.98 50.9899C109.167 51.7759 109.527 52.6037 110.07 53.5001L110.241 53.7836L109.955 53.9538C109.458 54.2489 109.008 54.6426 108.626 55.1159C107.479 56.5491 107.242 58.3614 108.043 59.6173L108.219 59.893L107.943 60.0711C107.481 60.3683 107.07 60.7383 106.725 61.168C105.312 62.9318 105.311 65.2014 106.735 66.3417L107.42 66.9407L107.758 67.237L107.373 67.4707C106.933 67.7372 106.541 68.0623 106.205 68.4397C105.374 69.3691 104.932 70.5292 104.999 71.6136C105.052 72.4242 105.399 73.1434 105.979 73.6416L110.36 77.4132C110.798 77.7875 111.341 78.0134 111.953 78.078L112.175 78.1947C119.063 86.3212 125.708 91.7998 131.465 93.7537L131.701 93.8337L131.691 94.0794ZM121.217 71.4662C121.045 72.1315 120.733 72.7667 120.293 73.3384C119.522 74.3475 118.459 75.0163 117.372 75.1728L116.966 75.2313C116.966 75.2313 117.666 75.4739 118.147 75.4739L135.983 75.4739C136.598 75.4739 137.102 74.954 137.102 74.3057V70.8822L137.101 49.696C137.072 49.2405 137.073 48.773 137.103 48.2611L137.102 34.2327C137.102 33.3745 136.407 32.6788 135.548 32.6788L118.867 32.6788C118.009 32.6788 117.313 33.3745 117.313 34.2328V56.447C117.308 56.5005 117.304 56.5406 117.286 56.7007L117.28 56.755L117.425 56.8661L118.093 57.3804C119.562 58.5108 119.578 60.7942 118.157 62.5729C117.764 63.0621 117.288 63.4715 116.759 63.7763L116.362 64.0048L116.706 64.3051L120.516 67.6263C120.638 67.724 120.802 67.8981 121.007 68.1485C121.445 69.1416 121.536 70.163 121.28 71.2127L121.217 71.4662ZM110.216 57.9596L110.281 58.0715L114.865 61.5573L114.934 61.5742L114.955 61.5787L114.961 61.5797L114.979 61.5823L114.997 61.5845L115.008 61.5854L115.026 61.5867L115.032 61.587C115.043 61.5876 115.053 61.5877 115.069 61.5877C115.491 61.5877 116.032 61.2761 116.425 60.7825C116.887 60.2063 117.055 59.4878 116.865 59.1823L116.801 59.0794L112.135 55.5622H112.021C111.6 55.5622 111.059 55.8722 110.66 56.3681C110.206 56.9342 110.035 57.65 110.216 57.9596ZM117.179 72.0072H117.09L108.116 64.3652L108.056 64.3177L107.979 64.2304C107.791 63.9199 107.965 63.203 108.432 62.6357C108.75 62.2476 109.163 61.966 109.545 61.8662L109.718 61.7561L109.8 61.6591L118.972 69.4737L119.031 69.521L119.109 69.6084C119.294 69.9162 119.121 70.6315 118.657 71.2004C118.251 71.6966 117.701 72.0083 117.268 72.0111C117.22 72.0093 117.218 72.0092 117.179 72.0072ZM114.7 49.4542L114.602 49.3622C114.548 49.3105 114.51 49.2686 114.48 49.2226C113.811 48.2363 112.886 47.4969 112.202 47.3881C111.912 47.3409 111.664 47.4057 111.389 47.6072C110.943 47.934 110.751 49.1265 111.01 50.1638C111.223 51.0182 111.801 52.0285 112.747 53.1968L112.798 53.2603L112.876 53.2943C113.079 53.3829 113.257 53.4828 113.407 53.5927L114.7 54.5542V49.4542ZM140.226 88.5841L134.244 92.0363L134.142 92.0951L134.026 92.0751C128.8 91.1706 122.206 86.0347 114.994 77.6981L114.77 77.4395L115.107 77.1587C115.205 77.0776 115.257 77.0327 115.309 76.9826L115.577 76.7275L115.797 77.0258C116.479 77.9491 117.555 78.4979 118.704 78.4979L136.187 78.4979C138.178 78.4979 139.795 76.8919 139.795 74.9161V61.6206C139.868 61.4645 139.897 61.3835 139.912 61.3074L141.075 55.906C141.119 55.6897 141.106 55.4666 141.037 55.2648C140.327 53.137 139.918 51.3543 139.798 49.9399L139.797 48.3008C139.876 47.5779 140.063 47.0534 140.318 46.7498L140.404 46.6476L140.535 46.6342C141.627 46.5224 143.222 48.2372 144.233 50.5626C147.328 57.7514 148.56 66.4433 147.054 71.2639C146.058 74.4558 145.777 77.2931 146.168 79.7312C146.298 80.5423 146.498 81.2735 146.76 81.9138C146.914 82.2915 147.07 82.5925 147.244 82.8517L147.906 83.7158L148.139 84.0195L140.226 88.5841ZM107.216 71.2015L107.274 71.3073L111.688 74.9437L111.754 74.9645C111.769 74.9687 111.774 74.9701 111.779 74.9714C111.782 74.972 111.784 74.9726 111.788 74.9734C111.793 74.9745 111.796 74.9751 111.801 74.9759C111.807 74.9771 111.816 74.9787 111.838 74.9825C111.863 74.9862 111.901 74.9889 111.943 74.9889C112.369 74.9889 112.905 74.7157 113.317 74.2706C113.842 73.7035 114.053 73.1413 113.909 72.8608L113.85 72.7464L109.328 68.9681L109.314 68.9892C109.304 68.9862 109.298 68.9845 109.294 68.9833C109.287 68.9815 109.285 68.9808 109.278 68.9791C109.274 68.9784 109.272 68.9779 109.269 68.9775C109.262 68.9761 109.255 68.9748 109.227 68.9698C109.202 68.9661 109.163 68.9634 109.121 68.9634C108.694 68.9634 108.153 69.2382 107.745 69.6809C107.254 70.2099 107.047 70.8971 107.216 71.2015Z" fill="#132C45"/>
<path d="M131.903 94.8118L132.263 94.5727C132.267 94.579 132.271 94.5854 132.275 94.5919L131.903 94.8118ZM131.691 94.0794L131.26 94.0629L131.26 94.0629L131.691 94.0794ZM136.696 102.908L136.809 103.325C136.622 103.376 136.424 103.295 136.325 103.128L136.696 102.908ZM139.343 102.191L139.717 101.976C139.784 102.092 139.793 102.232 139.742 102.356C139.691 102.48 139.585 102.573 139.456 102.608L139.343 102.191ZM134.931 94.5276L134.557 94.7429C134.438 94.5366 134.509 94.2731 134.715 94.1539L134.931 94.5276ZM148.759 86.5299L148.543 86.1563L148.543 86.1562L148.759 86.5299ZM151.065 85.1981L150.849 84.8244L150.849 84.8242L151.065 85.1981ZM151.736 84.8111L151.521 84.4371L151.521 84.4371L151.736 84.8111ZM151.958 84.683L151.743 84.3091C151.917 84.2088 152.137 84.2417 152.274 84.3885L151.958 84.683ZM160.027 93.3265L160.22 93.7125C160.049 93.7981 159.842 93.7608 159.712 93.621L160.027 93.3265ZM161.997 92.3415L162.318 92.0528C162.408 92.1529 162.447 92.2894 162.421 92.4218C162.396 92.5542 162.311 92.6673 162.19 92.7276L161.997 92.3415ZM153.022 82.3673L153.334 82.0684L153.343 82.0786L153.022 82.3673ZM151.471 82.1529L151.258 81.7777L151.258 81.7777L151.471 82.1529ZM150.917 82.4678L151.131 82.8431L151.131 82.8431L150.917 82.4678ZM150.664 82.612L150.877 82.9872C150.691 83.0933 150.455 83.0463 150.323 82.877L150.664 82.612ZM149.597 81.2398L149.256 81.5047C149.242 81.4873 149.23 81.4688 149.219 81.4494L149.597 81.2398ZM149.278 80.471L149.688 80.3367L149.688 80.3367L149.278 80.471ZM148.905 78.6674L149.335 78.6214L149.335 78.6214L148.905 78.6674ZM149.779 71.8884L150.191 72.0185L150.191 72.0189L149.779 71.8884ZM146.837 49.5318L146.442 49.7044L146.441 49.7032L146.837 49.5318ZM146.225 48.3185L145.849 48.5309L145.849 48.5309L146.225 48.3185ZM144.864 46.3303L145.195 46.0531L145.195 46.0531L144.864 46.3303ZM140.4 44.1192L140.335 43.6925L140.335 43.6925L140.4 44.1192ZM140.013 44.1782L140.078 44.6049C139.954 44.6239 139.827 44.5876 139.732 44.5056C139.636 44.4236 139.582 44.304 139.582 44.1782H140.013ZM115.063 45.9985H115.495C115.495 46.1537 115.412 46.297 115.277 46.3737C115.142 46.4505 114.976 46.4488 114.843 46.3694L115.063 45.9985ZM114.555 45.6958L114.776 45.3249L114.776 45.3249L114.555 45.6958ZM113.031 45.1153L113.102 44.6895L113.104 44.6899L113.031 45.1153ZM110.257 45.832L110.52 46.1742L110.52 46.1742L110.257 45.832ZM108.98 50.9899L109.4 50.8889L109.4 50.8903L108.98 50.9899ZM110.07 53.5001L110.439 53.2765L110.439 53.2765L110.07 53.5001ZM110.241 53.7836L110.61 53.5599C110.67 53.6584 110.688 53.7766 110.66 53.8883C110.632 54 110.561 54.0959 110.462 54.1547L110.241 53.7836ZM109.955 53.9538L110.175 54.3249L110.175 54.3249L109.955 53.9538ZM108.626 55.1159L108.289 54.8462L108.29 54.845L108.626 55.1159ZM108.043 59.6173L107.679 59.8494L107.679 59.8494L108.043 59.6173ZM108.219 59.893L108.583 59.6609C108.711 59.8613 108.652 60.1272 108.453 60.2559L108.219 59.893ZM107.943 60.0711L108.176 60.434L108.176 60.434L107.943 60.0711ZM106.725 61.168L106.388 60.8983L106.388 60.8977L106.725 61.168ZM106.735 66.3417L107.004 66.0048C107.009 66.0087 107.014 66.0126 107.019 66.0167L106.735 66.3417ZM107.42 66.9407L107.704 66.6158L107.704 66.616L107.42 66.9407ZM107.758 67.237L108.042 66.9122C108.146 67.0028 108.2 67.1374 108.188 67.2744C108.176 67.4115 108.099 67.5346 107.982 67.606L107.758 67.237ZM107.373 67.4707L107.149 67.1016L107.149 67.1016L107.373 67.4707ZM106.205 68.4397L106.527 68.7269L106.526 68.7274L106.205 68.4397ZM104.999 71.6136L104.568 71.642L104.568 71.6403L104.999 71.6136ZM105.979 73.6416L106.26 73.3142L106.261 73.3145L105.979 73.6416ZM110.36 77.4132L110.08 77.741L110.079 77.7403L110.36 77.4132ZM111.953 78.078L111.998 77.6487C112.053 77.6545 112.106 77.6705 112.154 77.6961L111.953 78.078ZM112.175 78.1947L112.376 77.8128C112.425 77.8386 112.468 77.8735 112.504 77.9156L112.175 78.1947ZM131.465 93.7537L131.327 94.1625L131.327 94.1625L131.465 93.7537ZM131.701 93.8337L131.84 93.4249C132.02 93.4863 132.139 93.6593 132.132 93.8501L131.701 93.8337ZM120.293 73.3384L119.95 73.0762L119.951 73.0755L120.293 73.3384ZM121.217 71.4662L121.636 71.5704L121.635 71.574L121.217 71.4662ZM117.372 75.1728L117.311 74.7455L117.311 74.7455L117.372 75.1728ZM116.966 75.2313L116.825 75.6391C116.636 75.5738 116.517 75.3884 116.536 75.1901C116.555 74.9919 116.707 74.8324 116.904 74.804L116.966 75.2313ZM137.102 70.8822L137.534 70.8822V70.8822H137.102ZM137.101 49.696L137.532 49.669C137.532 49.6779 137.533 49.6869 137.533 49.6959L137.101 49.696ZM137.103 48.2611L137.535 48.2611C137.535 48.2695 137.534 48.2779 137.534 48.2863L137.103 48.2611ZM137.102 34.2327L137.534 34.2327L137.534 34.2327L137.102 34.2327ZM117.313 56.447H117.745C117.745 56.4596 117.744 56.4722 117.743 56.4848L117.313 56.447ZM117.286 56.7007L116.857 56.6533L116.857 56.6533L117.286 56.7007ZM117.28 56.755L117.017 57.097C116.898 57.0051 116.835 56.8574 116.851 56.7076L117.28 56.755ZM117.425 56.8661L117.688 56.524L117.688 56.524L117.425 56.8661ZM118.093 57.3804L117.83 57.7225L117.83 57.7225L118.093 57.3804ZM118.157 62.5729L118.494 62.8424L118.493 62.8429L118.157 62.5729ZM116.759 63.7763L116.543 63.4022L116.543 63.4022L116.759 63.7763ZM116.362 64.0048L116.078 64.3302C115.973 64.2385 115.918 64.1017 115.932 63.9628C115.945 63.824 116.025 63.7003 116.146 63.6307L116.362 64.0048ZM116.706 64.3051L116.422 64.6305L116.422 64.6305L116.706 64.3051ZM120.516 67.6263L120.246 67.9631C120.241 67.9594 120.237 67.9556 120.232 67.9517L120.516 67.6263ZM121.007 68.1485L121.341 67.8745C121.366 67.9049 121.387 67.9385 121.402 67.9745L121.007 68.1485ZM121.28 71.2127L121.699 71.315L121.699 71.3169L121.28 71.2127ZM110.281 58.0715L110.02 58.4151C109.974 58.3807 109.936 58.3379 109.908 58.2889L110.281 58.0715ZM110.216 57.9596L109.843 58.177L109.843 58.177L110.216 57.9596ZM114.865 61.5573L114.762 61.9767C114.705 61.9626 114.65 61.9368 114.603 61.9009L114.865 61.5573ZM114.934 61.5742L114.845 61.9967C114.841 61.9957 114.836 61.9946 114.831 61.9935L114.934 61.5742ZM114.955 61.5787L114.878 62.0034L114.867 62.0012L114.955 61.5787ZM114.961 61.5797L114.902 62.0073C114.896 62.0065 114.89 62.0055 114.884 62.0044L114.961 61.5797ZM114.979 61.5823L114.923 62.0103L114.92 62.0098L114.979 61.5823ZM114.997 61.5845L114.962 62.0148C114.955 62.0142 114.948 62.0135 114.94 62.0125L114.997 61.5845ZM115.008 61.5854L114.977 62.016L114.973 62.0157L115.008 61.5854ZM115.026 61.5867L115.003 62.0178L114.995 62.0173L115.026 61.5867ZM115.032 61.587L115.011 62.0182L115.009 62.0181L115.032 61.587ZM116.425 60.7825L116.087 60.5138L116.088 60.5126L116.425 60.7825ZM116.865 59.1823L117.231 58.954L117.231 58.954L116.865 59.1823ZM116.801 59.0794L117.061 58.7347C117.103 58.7667 117.139 58.8061 117.167 58.8511L116.801 59.0794ZM112.135 55.5622V55.1306C112.228 55.1306 112.32 55.1611 112.394 55.2175L112.135 55.5622ZM110.66 56.3681L110.323 56.0983L110.324 56.0973L110.66 56.3681ZM117.09 72.0072V72.4388C116.987 72.4388 116.888 72.4023 116.81 72.3358L117.09 72.0072ZM117.179 72.0072V71.5755C117.187 71.5755 117.194 71.5757 117.201 71.5761L117.179 72.0072ZM108.116 64.3652L108.385 64.0274L108.395 64.0365L108.116 64.3652ZM108.056 64.3177L107.787 64.6553C107.767 64.6397 107.749 64.6224 107.733 64.6037L108.056 64.3177ZM107.979 64.2304L107.655 64.5163C107.638 64.4968 107.623 64.4758 107.609 64.4535L107.979 64.2304ZM108.432 62.6357L108.766 62.9092L108.765 62.9102L108.432 62.6357ZM109.545 61.8662L109.776 62.2307C109.738 62.2547 109.697 62.2726 109.654 62.2839L109.545 61.8662ZM109.718 61.7561L110.05 62.0328C110.021 62.0671 109.987 62.0967 109.95 62.1206L109.718 61.7561ZM109.8 61.6591L109.468 61.3824C109.542 61.294 109.648 61.2387 109.763 61.229C109.878 61.2192 109.992 61.2558 110.079 61.3305L109.8 61.6591ZM118.972 69.4737L118.703 69.8113C118.699 69.8084 118.696 69.8053 118.692 69.8023L118.972 69.4737ZM119.031 69.521L119.3 69.1834C119.32 69.199 119.338 69.2163 119.355 69.235L119.031 69.521ZM119.109 69.6084L119.432 69.3224C119.449 69.3419 119.465 69.3629 119.478 69.3853L119.109 69.6084ZM118.657 71.2004L118.992 71.4732L118.991 71.4738L118.657 71.2004ZM117.268 72.0111L117.271 72.4428C117.264 72.4428 117.258 72.4427 117.251 72.4425L117.268 72.0111ZM114.602 49.3622L114.306 49.676L114.306 49.676L114.602 49.3622ZM114.7 49.4542L114.996 49.1404C115.083 49.222 115.132 49.3355 115.132 49.4542H114.7ZM114.48 49.2226L114.837 48.9803L114.841 48.987L114.48 49.2226ZM112.202 47.3881L112.135 47.8144L112.133 47.8142L112.202 47.3881ZM111.389 47.6072L111.645 47.9552L111.644 47.9556L111.389 47.6072ZM111.01 50.1638L111.429 50.0592L111.429 50.0594L111.01 50.1638ZM112.747 53.1968L112.412 53.4686L112.412 53.4685L112.747 53.1968ZM112.798 53.2603L112.625 53.6558C112.562 53.6281 112.506 53.5856 112.463 53.532L112.798 53.2603ZM112.876 53.2943L112.703 53.6898L112.703 53.6898L112.876 53.2943ZM113.407 53.5927L113.662 53.245L113.664 53.2463L113.407 53.5927ZM114.7 54.5542H115.132C115.132 54.7174 115.04 54.8666 114.894 54.9399C114.748 55.0132 114.573 54.998 114.442 54.9007L114.7 54.5542ZM134.244 92.0363L134.028 91.6624L134.028 91.6624L134.244 92.0363ZM140.226 88.5841L140.01 88.2103L140.01 88.2102L140.226 88.5841ZM134.142 92.0951L134.357 92.469C134.27 92.5195 134.167 92.5377 134.068 92.5205L134.142 92.0951ZM134.026 92.0751L134.1 91.6498L134.1 91.6498L134.026 92.0751ZM114.994 77.6981L114.667 77.9805L114.667 77.9805L114.994 77.6981ZM114.77 77.4395L114.443 77.7219C114.368 77.6343 114.33 77.5198 114.34 77.4043C114.349 77.2887 114.405 77.1819 114.494 77.1077L114.77 77.4395ZM115.107 77.1587L114.831 76.8269L114.832 76.8262L115.107 77.1587ZM115.309 76.9826L115.607 77.2951L115.607 77.2951L115.309 76.9826ZM115.577 76.7275L115.279 76.415C115.369 76.3296 115.491 76.2867 115.615 76.2975C115.738 76.3082 115.851 76.3715 115.924 76.4712L115.577 76.7275ZM115.797 77.0258L115.45 77.2821L115.45 77.2821L115.797 77.0258ZM139.795 61.6206H139.364C139.364 61.5574 139.378 61.495 139.404 61.4378L139.795 61.6206ZM139.912 61.3074L139.489 61.221L139.49 61.2165L139.912 61.3074ZM141.075 55.906L141.498 55.9909L141.497 55.9968L141.075 55.906ZM141.037 55.2648L140.629 55.4038L140.628 55.4016L141.037 55.2648ZM139.798 49.9399L139.368 49.9763C139.367 49.9642 139.366 49.9521 139.366 49.94L139.798 49.9399ZM139.797 48.3008L139.366 48.3009C139.366 48.2853 139.367 48.2696 139.368 48.2541L139.797 48.3008ZM140.318 46.7498L140.649 47.0271L140.649 47.0271L140.318 46.7498ZM140.404 46.6476L140.073 46.3703C140.145 46.2842 140.248 46.2296 140.36 46.2182L140.404 46.6476ZM140.535 46.6342L140.491 46.2047L140.491 46.2047L140.535 46.6342ZM144.233 50.5626L144.629 50.3904L144.63 50.3919L144.233 50.5626ZM147.054 71.2639L146.642 71.1353L146.642 71.1352L147.054 71.2639ZM146.168 79.7312L146.594 79.6628L146.594 79.6628L146.168 79.7312ZM146.76 81.9138L147.16 81.7506L147.16 81.7506L146.76 81.9138ZM147.244 82.8517L146.901 83.1144C146.896 83.1071 146.89 83.0997 146.885 83.0922L147.244 82.8517ZM147.906 83.7158L148.249 83.4531L148.249 83.4532L147.906 83.7158ZM148.139 84.0195L148.482 83.7569C148.557 83.8556 148.587 83.982 148.562 84.1039C148.538 84.2258 148.462 84.3313 148.355 84.3934L148.139 84.0195ZM107.274 71.3073L107 71.6404C106.958 71.606 106.923 71.5639 106.897 71.5165L107.274 71.3073ZM107.216 71.2015L107.593 70.9923L107.593 70.9923L107.216 71.2015ZM111.688 74.9437L111.559 75.3554C111.506 75.3388 111.457 75.3121 111.414 75.2769L111.688 74.9437ZM111.754 74.9645L111.638 75.3803L111.624 75.3761L111.754 74.9645ZM111.779 74.9714L111.886 74.553L111.886 74.5531L111.779 74.9714ZM111.788 74.9734L111.703 75.3968C111.698 75.3956 111.692 75.3944 111.686 75.393L111.788 74.9734ZM111.801 74.9759L111.722 75.4004L111.722 75.4004L111.801 74.9759ZM111.838 74.9825L111.776 75.41L111.763 75.4076L111.838 74.9825ZM113.317 74.2706L113 73.9777L113 73.9773L113.317 74.2706ZM113.909 72.8608L114.293 72.6635L114.293 72.6635L113.909 72.8608ZM113.85 72.7464L114.127 72.4152C114.172 72.4522 114.208 72.4978 114.234 72.5492L113.85 72.7464ZM109.328 68.9681L108.968 68.7307C109.035 68.628 109.143 68.559 109.265 68.541C109.387 68.5231 109.51 68.558 109.605 68.6368L109.328 68.9681ZM109.314 68.9892L109.675 69.2266C109.571 69.3846 109.376 69.4564 109.194 69.4038L109.314 68.9892ZM109.294 68.9833L109.411 68.5678L109.411 68.5678L109.294 68.9833ZM109.278 68.9791L109.363 68.5559C109.369 68.5571 109.375 68.5585 109.381 68.56L109.278 68.9791ZM109.269 68.9775L109.187 69.4012L109.187 69.4011L109.269 68.9775ZM109.227 68.9698L109.289 68.5426C109.294 68.5433 109.298 68.544 109.303 68.5449L109.227 68.9698ZM107.745 69.6809L108.063 69.9733L108.062 69.9745L107.745 69.6809ZM131.544 95.0508C131.348 94.7564 131.247 94.4126 131.26 94.0629L132.123 94.0959C132.117 94.2557 132.163 94.422 132.263 94.5727L131.544 95.0508ZM136.325 103.128L131.532 95.0316L132.275 94.5919L137.068 102.689L136.325 103.128ZM139.456 102.608L136.809 103.325L136.583 102.492L139.23 101.774L139.456 102.608ZM135.305 94.3122L139.717 101.976L138.969 102.406L134.557 94.7429L135.305 94.3122ZM148.975 86.9036L135.147 94.9012L134.715 94.1539L148.543 86.1563L148.975 86.9036ZM151.281 85.5719L148.975 86.9037L148.543 86.1562L150.849 84.8244L151.281 85.5719ZM151.952 85.185L151.28 85.5721L150.849 84.8242L151.521 84.4371L151.952 85.185ZM152.174 85.057L151.952 85.185L151.521 84.4371L151.743 84.3091L152.174 85.057ZM159.712 93.621L151.643 84.9776L152.274 84.3885L160.343 93.0319L159.712 93.621ZM162.19 92.7276L160.22 93.7125L159.834 92.9404L161.804 91.9554L162.19 92.7276ZM153.343 82.0786L162.318 92.0528L161.676 92.6302L152.701 82.656L153.343 82.0786ZM151.258 81.7777C151.933 81.3938 152.796 81.5079 153.334 82.0686L152.711 82.666C152.454 82.3986 152.026 82.3343 151.685 82.5282L151.258 81.7777ZM150.704 82.0926L151.258 81.7777L151.685 82.5281L151.131 82.8431L150.704 82.0926ZM150.45 82.2368L150.704 82.0926L151.131 82.8431L150.877 82.9872L150.45 82.2368ZM149.937 80.9748L151.005 82.347L150.323 82.877L149.256 81.5047L149.937 80.9748ZM149.688 80.3367C149.787 80.6395 149.889 80.877 149.974 81.0301L149.219 81.4494C149.099 81.2328 148.977 80.9404 148.867 80.6054L149.688 80.3367ZM149.335 78.6214C149.404 79.2637 149.524 79.8379 149.688 80.3367L148.867 80.6054C148.683 80.0412 148.551 79.4068 148.476 78.7135L149.335 78.6214ZM150.191 72.0189C149.398 74.516 149.131 76.7276 149.335 78.6214L148.476 78.7135C148.257 76.6717 148.55 74.3372 149.368 71.7578L150.191 72.0189ZM147.233 49.3591C148.931 53.2516 150.106 57.5259 150.64 61.5139C151.173 65.4943 151.073 69.2266 150.191 72.0185L149.368 71.7583C150.197 69.1357 150.309 65.5452 149.784 61.6286C149.26 57.7196 148.108 53.5229 146.442 49.7044L147.233 49.3591ZM146.6 48.1061C146.854 48.5552 147.076 48.9972 147.233 49.3603L146.441 49.7032C146.298 49.3734 146.091 48.959 145.849 48.5309L146.6 48.1061ZM145.195 46.0531C145.703 46.6594 146.175 47.3527 146.6 48.1061L145.849 48.5309C145.445 47.8167 145.003 47.168 144.533 46.6076L145.195 46.0531ZM140.335 43.6925C142.105 43.4224 143.745 44.3229 145.195 46.0531L144.533 46.6076C143.181 44.9944 141.815 44.34 140.465 44.5459L140.335 43.6925ZM139.948 43.7515L140.335 43.6925L140.465 44.5459L140.078 44.6049L139.948 43.7515ZM140.445 33.1486V44.1782H139.582V33.1486H140.445ZM136.369 29.1443C138.607 29.1443 140.445 30.9318 140.445 33.1486H139.582C139.582 31.425 138.146 30.0076 136.369 30.0076V29.1443ZM118.702 29.1443L136.369 29.1443V30.0076L118.702 30.0076V29.1443ZM114.632 33.1486C114.632 30.9312 116.466 29.1443 118.702 29.1443V30.0076C116.927 30.0076 115.495 31.4231 115.495 33.1486H114.632ZM114.632 45.9985V33.1486H115.495V45.9985H114.632ZM114.776 45.3249L115.284 45.6276L114.843 46.3694L114.334 46.0667L114.776 45.3249ZM113.104 44.6899C113.68 44.789 114.239 45.0054 114.776 45.3249L114.334 46.0667C113.877 45.7946 113.417 45.6197 112.957 45.5407L113.104 44.6899ZM109.994 45.4898C110.913 44.7834 111.985 44.503 113.102 44.6895L112.96 45.541C112.089 45.3956 111.257 45.6077 110.52 46.1742L109.994 45.4898ZM108.561 51.0909C108.047 48.957 108.492 46.6442 109.994 45.4898L110.52 46.1742C109.394 47.0399 108.93 48.9343 109.4 50.8889L108.561 51.0909ZM109.7 53.7237C109.141 52.8 108.76 51.9303 108.56 51.0895L109.4 50.8903C109.574 51.6215 109.913 52.4075 110.439 53.2765L109.7 53.7237ZM109.872 54.0072L109.7 53.7237L110.439 53.2765L110.61 53.5599L109.872 54.0072ZM109.734 53.5827L110.021 53.4124L110.462 54.1547L110.175 54.3249L109.734 53.5827ZM108.29 54.845C108.702 54.3337 109.191 53.9053 109.734 53.5827L110.175 54.3249C109.725 54.5924 109.313 54.9514 108.962 55.3867L108.29 54.845ZM107.679 59.8494C106.751 58.395 107.062 56.3797 108.289 54.8462L108.963 55.3855C107.897 56.7186 107.733 58.3278 108.407 59.3852L107.679 59.8494ZM107.855 60.1252L107.679 59.8494L108.407 59.3852L108.583 59.6609L107.855 60.1252ZM107.709 59.7083L107.985 59.5302L108.453 60.2559L108.176 60.434L107.709 59.7083ZM106.388 60.8977C106.763 60.4318 107.209 60.0305 107.709 59.7083L108.176 60.434C107.754 60.7061 107.377 61.0449 107.061 61.4384L106.388 60.8977ZM106.465 66.6785C104.79 65.3369 104.885 62.7752 106.388 60.8983L107.062 61.4378C105.74 63.0883 105.833 65.0658 107.004 66.0048L106.465 66.6785ZM107.135 67.2657L106.45 66.6666L107.019 66.0167L107.704 66.6158L107.135 67.2657ZM107.473 67.5617L107.135 67.2655L107.704 66.616L108.042 66.9122L107.473 67.5617ZM107.149 67.1016L107.534 66.8679L107.982 67.606L107.597 67.8397L107.149 67.1016ZM105.882 68.1525C106.248 67.7423 106.674 67.3899 107.149 67.1016L107.597 67.8397C107.193 68.0845 106.834 68.3822 106.527 68.7269L105.882 68.1525ZM104.568 71.6403C104.493 70.4229 104.988 69.1532 105.883 68.152L106.526 68.7274C105.76 69.585 105.371 70.6354 105.429 71.5869L104.568 71.6403ZM105.698 73.9691C105.024 73.39 104.629 72.5598 104.568 71.642L105.429 71.5852C105.476 72.2885 105.775 72.8969 106.26 73.3142L105.698 73.9691ZM110.079 77.7403L105.698 73.9687L106.261 73.3145L110.642 77.0861L110.079 77.7403ZM111.908 78.5073C111.216 78.4343 110.588 78.1767 110.08 77.741L110.641 77.0854C111.007 77.3984 111.466 77.5926 111.998 77.6487L111.908 78.5073ZM111.973 78.5766L111.752 78.4599L112.154 77.6961L112.376 77.8128L111.973 78.5766ZM131.327 94.1625C125.455 92.1697 118.747 86.6159 111.845 78.4738L112.504 77.9156C119.379 86.0265 125.961 91.4299 131.604 93.345L131.327 94.1625ZM131.562 94.2424L131.327 94.1625L131.604 93.345L131.84 93.4249L131.562 94.2424ZM131.26 94.0629L131.269 93.8172L132.132 93.8501L132.123 94.0959L131.26 94.0629ZM119.951 73.0755C120.356 72.5479 120.642 71.9651 120.799 71.3584L121.635 71.574C121.448 72.298 121.109 72.9856 120.636 73.6014L119.951 73.0755ZM117.311 74.7455C118.268 74.6078 119.235 74.0113 119.95 73.0762L120.636 73.6006C119.808 74.6837 118.651 75.4249 117.434 75.6L117.311 74.7455ZM116.904 74.804L117.311 74.7455L117.434 75.6L117.027 75.6585L116.904 74.804ZM118.147 75.9056C117.849 75.9056 117.51 75.833 117.268 75.7705C117.142 75.7381 117.033 75.7057 116.955 75.6813C116.915 75.6691 116.884 75.6589 116.861 75.6515C116.85 75.6479 116.842 75.6449 116.835 75.6428C116.832 75.6417 116.83 75.6409 116.828 75.6403C116.827 75.64 116.826 75.6397 116.826 75.6395C116.825 75.6394 116.825 75.6393 116.825 75.6393C116.825 75.6392 116.825 75.6392 116.825 75.6392C116.825 75.6392 116.825 75.6391 116.825 75.6391C116.825 75.6391 116.825 75.6391 116.966 75.2313C117.107 74.8235 117.107 74.8234 117.107 74.8234C117.107 74.8234 117.107 74.8234 117.107 74.8234C117.107 74.8234 117.107 74.8234 117.107 74.8234C117.107 74.8234 117.107 74.8234 117.107 74.8234C117.107 74.8234 117.108 74.8235 117.108 74.8237C117.109 74.824 117.11 74.8245 117.113 74.8252C117.117 74.8266 117.124 74.8289 117.132 74.8319C117.15 74.8378 117.177 74.8465 117.211 74.857C117.279 74.8782 117.375 74.9065 117.484 74.9346C117.712 74.9934 117.963 75.0423 118.147 75.0423V75.9056ZM135.983 75.9056L118.147 75.9056V75.0423L135.983 75.0423V75.9056ZM137.534 74.3057C137.534 75.1763 136.853 75.9056 135.983 75.9056V75.0423C136.344 75.0423 136.671 74.7316 136.671 74.3057H137.534ZM137.534 70.8822V74.3057H136.671V70.8822H137.534ZM137.533 49.6959L137.534 70.8822L136.671 70.8822L136.669 49.696L137.533 49.6959ZM137.534 48.2863C137.505 48.7828 137.505 49.2328 137.532 49.669L136.67 49.723C136.64 49.2482 136.641 48.7633 136.672 48.236L137.534 48.2863ZM137.534 34.2327L137.535 48.2611L136.671 48.2612L136.671 34.2327L137.534 34.2327ZM135.548 32.2472C136.645 32.2472 137.534 33.1361 137.534 34.2327L136.671 34.2327C136.671 33.6129 136.168 33.1105 135.548 33.1105V32.2472ZM118.867 32.2472L135.548 32.2472V33.1105L118.867 33.1105V32.2472ZM116.881 34.2328C116.881 33.1361 117.77 32.2472 118.867 32.2472V33.1105C118.247 33.1105 117.745 33.6129 117.745 34.2328H116.881ZM116.881 56.447V34.2328H117.745V56.447H116.881ZM116.857 56.6533C116.875 56.491 116.879 56.4567 116.883 56.4093L117.743 56.4848C117.738 56.5443 117.733 56.5902 117.715 56.7482L116.857 56.6533ZM116.851 56.7076L116.857 56.6533L117.715 56.7481L117.709 56.8023L116.851 56.7076ZM117.161 57.2081L117.017 57.097L117.544 56.4129L117.688 56.524L117.161 57.2081ZM117.83 57.7225L117.161 57.2081L117.688 56.524L118.356 57.0384L117.83 57.7225ZM117.82 62.3034C119.15 60.6394 119.04 58.6538 117.83 57.7225L118.356 57.0384C120.084 58.3678 120.007 60.949 118.494 62.8424L117.82 62.3034ZM116.543 63.4022C117.025 63.1248 117.461 62.751 117.82 62.3028L118.493 62.8429C118.068 63.3732 117.551 63.8182 116.974 64.1504L116.543 63.4022ZM116.146 63.6307L116.543 63.4022L116.974 64.1504L116.577 64.3789L116.146 63.6307ZM116.422 64.6305L116.078 64.3302L116.645 63.6795L116.99 63.9797L116.422 64.6305ZM120.232 67.9517L116.422 64.6305L116.99 63.9797L120.8 67.3009L120.232 67.9517ZM120.674 68.4225C120.471 68.176 120.331 68.0312 120.246 67.9631L120.786 67.2895C120.945 67.4167 121.132 67.6201 121.341 67.8745L120.674 68.4225ZM120.86 71.1103C121.094 70.1534 121.012 69.2292 120.612 68.3226L121.402 67.9745C121.878 69.0541 121.978 70.1726 121.699 71.315L120.86 71.1103ZM120.798 71.362L120.861 71.1084L121.699 71.3169L121.636 71.5704L120.798 71.362ZM109.908 58.2889L109.843 58.177L110.589 57.7422L110.654 57.8541L109.908 58.2889ZM114.603 61.9009L110.02 58.4151L110.542 57.7279L115.126 61.2137L114.603 61.9009ZM114.831 61.9935L114.762 61.9767L114.967 61.1379L115.036 61.1548L114.831 61.9935ZM114.867 62.0012L114.845 61.9967L115.022 61.1516L115.044 61.1562L114.867 62.0012ZM114.884 62.0044L114.878 62.0033L115.033 61.154L115.039 61.1551L114.884 62.0044ZM114.92 62.0098L114.902 62.0073L115.02 61.1522L115.039 61.1547L114.92 62.0098ZM114.94 62.0125L114.923 62.0103L115.035 61.1543L115.053 61.1565L114.94 62.0125ZM114.973 62.0157L114.962 62.0148L115.031 61.1543L115.042 61.1552L114.973 62.0157ZM114.995 62.0173L114.977 62.016L115.038 61.1549L115.056 61.1561L114.995 62.0173ZM115.009 62.0181L115.003 62.0177L115.049 61.1557L115.055 61.156L115.009 62.0181ZM115.069 62.0194C115.051 62.0194 115.033 62.0192 115.011 62.0182L115.053 61.1559C115.053 61.1559 115.056 61.1561 115.069 61.1561V62.0194ZM116.763 61.0512C116.324 61.6028 115.671 62.0194 115.069 62.0194V61.1561C115.312 61.1561 115.741 60.9493 116.087 60.5138L116.763 61.0512ZM117.231 58.954C117.423 59.2619 117.392 59.6675 117.307 59.9904C117.215 60.3408 117.029 60.7187 116.762 61.0523L116.088 60.5126C116.282 60.27 116.412 60.0006 116.472 59.7713C116.539 59.5145 116.497 59.4082 116.498 59.4106L117.231 58.954ZM117.167 58.8511L117.231 58.954L116.498 59.4106L116.434 59.3077L117.167 58.8511ZM112.394 55.2175L117.061 58.7347L116.541 59.4241L111.875 55.9069L112.394 55.2175ZM112.021 55.1306H112.135V55.9939H112.021V55.1306ZM110.324 56.0973C110.769 55.5454 111.42 55.1306 112.021 55.1306V55.9939C111.779 55.9939 111.35 56.1991 110.996 56.639L110.324 56.0973ZM109.843 58.177C109.664 57.8697 109.697 57.4697 109.783 57.1488C109.876 56.8013 110.06 56.4271 110.323 56.0983L110.997 56.638C110.807 56.8752 110.678 57.1419 110.617 57.3713C110.587 57.4857 110.575 57.5811 110.577 57.6519C110.578 57.7266 110.593 57.7494 110.589 57.7422L109.843 58.177ZM117.09 71.5755H117.179V72.4388H117.09V71.5755ZM108.395 64.0365L117.369 71.6785L116.81 72.3358L107.836 64.6938L108.395 64.0365ZM108.325 63.9801L108.385 64.0275L107.847 64.7028L107.787 64.6553L108.325 63.9801ZM108.302 63.9444L108.379 64.0317L107.733 64.6037L107.655 64.5163L108.302 63.9444ZM108.765 62.9102C108.569 63.148 108.438 63.4143 108.376 63.6423C108.346 63.756 108.335 63.8504 108.336 63.9199C108.338 63.993 108.353 64.0147 108.348 64.0072L107.609 64.4535C107.422 64.1438 107.456 63.7398 107.543 63.4164C107.638 63.0665 107.827 62.6908 108.099 62.3612L108.765 62.9102ZM109.654 62.2839C109.379 62.3557 109.039 62.5753 108.766 62.9092L108.098 62.3623C108.46 61.9198 108.947 61.5762 109.436 61.4486L109.654 62.2839ZM109.95 62.1206L109.776 62.2307L109.314 61.5017L109.487 61.3916L109.95 62.1206ZM110.131 61.9358L110.05 62.0328L109.387 61.4795L109.468 61.3824L110.131 61.9358ZM118.692 69.8023L109.52 61.9877L110.079 61.3305L119.252 69.1451L118.692 69.8023ZM118.762 69.8587L118.703 69.8113L119.241 69.1361L119.3 69.1834L118.762 69.8587ZM118.785 69.8944L118.708 69.807L119.355 69.235L119.432 69.3224L118.785 69.8944ZM118.323 70.9276C118.518 70.6887 118.648 70.4218 118.71 70.1937C118.779 69.9387 118.738 69.8305 118.739 69.8315L119.478 69.3853C119.665 69.694 119.63 70.0975 119.543 70.4192C119.449 70.768 119.261 71.1433 118.992 71.4732L118.323 70.9276ZM117.265 71.5795C117.524 71.5778 117.964 71.3659 118.323 70.927L118.991 71.4738C118.538 72.0273 117.878 72.4388 117.271 72.4428L117.265 71.5795ZM117.201 71.5761C117.238 71.578 117.238 71.578 117.285 71.5798L117.251 72.4425C117.202 72.4405 117.198 72.4404 117.157 72.4383L117.201 71.5761ZM114.899 49.0484L114.996 49.1404L114.403 49.768L114.306 49.676L114.899 49.0484ZM114.841 48.987C114.845 48.9922 114.855 49.0073 114.899 49.0484L114.306 49.676C114.24 49.6138 114.175 49.545 114.118 49.4582L114.841 48.987ZM112.27 46.9618C112.718 47.033 113.189 47.296 113.617 47.6398C114.053 47.9902 114.48 48.4541 114.837 48.9803L114.122 49.4648C113.811 49.0048 113.441 48.6058 113.076 48.3127C112.704 48.0131 112.371 47.852 112.135 47.8144L112.27 46.9618ZM111.134 47.2593C111.489 46.9988 111.852 46.8938 112.272 46.962L112.133 47.8142C111.972 47.788 111.839 47.8125 111.645 47.9552L111.134 47.2593ZM110.592 50.2684C110.448 49.6926 110.429 49.0774 110.508 48.5541C110.548 48.2919 110.615 48.0413 110.71 47.8245C110.804 47.6129 110.939 47.4021 111.135 47.2588L111.644 47.9556C111.617 47.9758 111.56 48.0366 111.5 48.1729C111.442 48.304 111.393 48.4776 111.362 48.684C111.299 49.098 111.314 49.5977 111.429 50.0592L110.592 50.2684ZM112.412 53.4685C111.449 52.2808 110.827 51.2123 110.592 50.2683L111.429 50.0594C111.62 50.8242 112.152 51.7763 113.082 52.9251L112.412 53.4685ZM112.463 53.532L112.412 53.4686L113.082 52.9251L113.134 52.9886L112.463 53.532ZM112.703 53.6898L112.625 53.6558L112.971 52.8648L113.049 52.8989L112.703 53.6898ZM113.151 53.9405C113.032 53.853 112.883 53.7682 112.703 53.6898L113.049 52.8989C113.275 52.9975 113.482 53.1125 113.662 53.245L113.151 53.9405ZM114.442 54.9007L113.149 53.9392L113.664 53.2463L114.957 54.2078L114.442 54.9007ZM115.132 49.4542V54.5542H114.268V49.4542H115.132ZM134.028 91.6624L140.01 88.2103L140.442 88.958L134.459 92.4102L134.028 91.6624ZM133.926 91.7213L134.028 91.6624L134.459 92.4102L134.357 92.469L133.926 91.7213ZM134.1 91.6498L134.215 91.6698L134.068 92.5205L133.952 92.5004L134.1 91.6498ZM115.32 77.4157C118.914 81.5698 122.344 84.9148 125.516 87.3302C128.694 89.7497 131.584 91.2144 134.1 91.6498L133.952 92.5004C131.242 92.0314 128.223 90.4758 124.993 88.0171C121.759 85.5543 118.286 82.163 114.667 77.9805L115.32 77.4157ZM115.096 77.1571L115.32 77.4157L114.667 77.9805L114.443 77.7219L115.096 77.1571ZM115.383 77.4905L115.046 77.7713L114.494 77.1077L114.831 76.8269L115.383 77.4905ZM115.607 77.2951C115.544 77.3556 115.483 77.408 115.383 77.4911L114.832 76.8262C114.927 76.7471 114.97 76.7098 115.012 76.6702L115.607 77.2951ZM115.875 77.04L115.607 77.2951L115.012 76.6702L115.279 76.415L115.875 77.04ZM115.45 77.2821L115.23 76.9838L115.924 76.4712L116.145 76.7695L115.45 77.2821ZM118.704 78.9295C117.417 78.9295 116.212 78.3146 115.45 77.2821L116.145 76.7695C116.745 77.5835 117.693 78.0662 118.704 78.0662V78.9295ZM136.187 78.9295L118.704 78.9295V78.0662L136.187 78.0662V78.9295ZM140.227 74.9161C140.227 77.1333 138.413 78.9295 136.187 78.9295V78.0662C137.942 78.0662 139.364 76.6505 139.364 74.9161H140.227ZM140.227 61.6206V74.9161H139.364V61.6206H140.227ZM140.335 61.3938C140.31 61.5197 140.264 61.637 140.186 61.8034L139.404 61.4378C139.473 61.2921 139.484 61.2473 139.49 61.221L140.335 61.3938ZM141.497 55.9968L140.334 61.3982L139.49 61.2165L140.653 55.8152L141.497 55.9968ZM141.446 55.1259C141.54 55.4034 141.556 55.7039 141.498 55.9908L140.652 55.8211C140.681 55.6755 140.671 55.5298 140.629 55.4038L141.446 55.1259ZM140.228 49.9035C140.344 51.271 140.742 53.0179 141.447 55.1281L140.628 55.4016C139.911 53.2561 139.491 51.4376 139.368 49.9763L140.228 49.9035ZM140.229 48.3007L140.229 49.9398L139.366 49.94L139.366 48.3009L140.229 48.3007ZM140.649 47.0271C140.474 47.2353 140.301 47.6597 140.227 48.3475L139.368 48.2541C139.451 47.4961 139.653 46.8716 139.987 46.4724L140.649 47.0271ZM140.735 46.925L140.649 47.0271L139.987 46.4724L140.073 46.3703L140.735 46.925ZM140.579 47.0636L140.448 47.077L140.36 46.2182L140.491 46.2047L140.579 47.0636ZM143.837 50.7347C143.348 49.6086 142.721 48.6426 142.1 47.9797C141.789 47.6481 141.489 47.4029 141.218 47.249C140.944 47.0933 140.731 47.048 140.579 47.0636L140.491 46.2047C140.885 46.1645 141.281 46.2915 141.645 46.4986C142.012 46.7075 142.379 47.0154 142.729 47.3892C143.431 48.1371 144.108 49.1912 144.629 50.3905L143.837 50.7347ZM146.642 71.1352C147.368 68.8118 147.444 65.5061 146.941 61.8603C146.44 58.2239 145.369 54.2913 143.837 50.7333L144.63 50.3919C146.193 54.0226 147.285 58.0305 147.797 61.7424C148.307 65.4448 148.246 68.8954 147.466 71.3926L146.642 71.1352ZM145.742 79.7995C145.337 77.2787 145.632 74.3721 146.642 71.1353L147.466 71.3925C146.484 74.5394 146.216 77.3076 146.594 79.6628L145.742 79.7995ZM146.36 82.0771C146.085 81.4021 145.876 80.6385 145.742 79.7995L146.594 79.6628C146.72 80.446 146.912 81.1448 147.16 81.7506L146.36 82.0771ZM146.885 83.0922C146.691 82.8028 146.523 82.4744 146.36 82.0771L147.16 81.7506C147.306 82.1086 147.448 82.3821 147.602 82.6111L146.885 83.0922ZM147.564 83.9785L146.901 83.1144L147.586 82.589L148.249 83.4531L147.564 83.9785ZM147.797 84.282L147.564 83.9783L148.249 83.4532L148.482 83.7569L147.797 84.282ZM140.01 88.2102L147.923 83.6456L148.355 84.3934L140.442 88.958L140.01 88.2102ZM106.897 71.5165L106.838 71.4107L107.593 70.9923L107.652 71.0981L106.897 71.5165ZM111.414 75.2769L107 71.6404L107.549 70.9741L111.963 74.6106L111.414 75.2769ZM111.624 75.3761L111.559 75.3554L111.818 74.532L111.884 74.5528L111.624 75.3761ZM111.673 75.3897C111.662 75.3868 111.65 75.3837 111.638 75.3801L111.871 74.5488C111.879 74.5511 111.883 74.5522 111.885 74.5529C111.887 74.5535 111.887 74.5533 111.886 74.553L111.673 75.3897ZM111.686 75.393C111.684 75.3924 111.678 75.3911 111.673 75.3897L111.886 74.5531C111.885 74.5529 111.885 74.5528 111.889 74.5538L111.686 75.393ZM111.722 75.4004C111.714 75.399 111.709 75.3978 111.703 75.3968L111.872 74.55C111.877 74.5511 111.878 74.5512 111.879 74.5515L111.722 75.4004ZM111.763 75.4076C111.742 75.404 111.731 75.402 111.722 75.4004L111.879 74.5514C111.883 74.5522 111.89 74.5534 111.913 74.5574L111.763 75.4076ZM111.943 75.4205C111.886 75.4205 111.827 75.417 111.776 75.4098L111.899 74.5552C111.898 74.5551 111.902 74.5557 111.912 74.5563C111.92 74.5569 111.931 74.5572 111.943 74.5572V75.4205ZM113.634 74.5635C113.171 75.0641 112.528 75.4205 111.943 75.4205V74.5572C112.21 74.5572 112.64 74.3673 113 73.9777L113.634 74.5635ZM114.293 72.6635C114.453 72.9747 114.379 73.3379 114.264 73.6212C114.139 73.927 113.922 74.2522 113.633 74.5639L113 73.9773C113.236 73.7219 113.388 73.4825 113.464 73.2952C113.55 73.0856 113.51 73.0274 113.525 73.058L114.293 72.6635ZM114.234 72.5492L114.293 72.6635L113.525 73.058L113.467 72.9437L114.234 72.5492ZM109.605 68.6368L114.127 72.4152L113.574 73.0777L109.051 69.2993L109.605 68.6368ZM108.954 68.7518L108.968 68.7307L109.689 69.2055L109.675 69.2266L108.954 68.7518ZM109.411 68.5678C109.417 68.5695 109.425 68.5718 109.434 68.5745L109.194 69.4038C109.183 69.4006 109.179 69.3995 109.177 69.3988L109.411 68.5678ZM109.381 68.56C109.389 68.562 109.397 68.564 109.411 68.5678L109.177 69.3988C109.176 69.3985 109.177 69.3988 109.178 69.3991C109.178 69.3992 109.178 69.3992 109.174 69.3982L109.381 68.56ZM109.352 68.5537C109.356 68.5545 109.36 68.5553 109.363 68.5559L109.193 69.4023C109.189 69.4016 109.188 69.4014 109.187 69.4012L109.352 68.5537ZM109.303 68.5449C109.329 68.5495 109.341 68.5516 109.352 68.5538L109.187 69.4011C109.186 69.4009 109.184 69.4006 109.179 69.3997C109.174 69.3987 109.165 69.3972 109.151 69.3947L109.303 68.5449ZM109.121 68.5317C109.178 68.5317 109.238 68.5352 109.289 68.5426L109.165 69.397C109.167 69.3972 109.163 69.3966 109.153 69.396C109.144 69.3954 109.133 69.395 109.121 69.395V68.5317ZM107.428 69.3884C107.888 68.889 108.536 68.5317 109.121 68.5317V69.395C108.852 69.395 108.418 69.5874 108.063 69.9733L107.428 69.3884ZM106.838 71.4107C106.663 71.0954 106.721 70.6973 106.824 70.3888C106.936 70.0524 107.143 69.6952 107.429 69.3873L108.062 69.9745C107.856 70.1955 107.714 70.4465 107.643 70.6621C107.561 70.9055 107.599 71.0032 107.593 70.9923L106.838 71.4107Z" fill="#132C45"/>
</svg>
