<svg width="240" height="110" viewBox="0 0 240 110" fill="none" xmlns="http://www.w3.org/2000/svg">
<rect width="240" height="110" fill="white"/>
<rect x="100.658" y="47.3901" width="39.4434" height="37.8677" rx="4.87087" fill="#50E3C2" stroke="#132C45" stroke-width="4.68318"/>
<path fill-rule="evenodd" clip-rule="evenodd" d="M120.38 56.9863C117.436 56.9863 115.048 59.2143 115.048 61.9604C115.051 63.7384 116.069 65.3799 117.719 66.2643V71.8899C117.709 72.554 117.985 73.1932 118.484 73.668C118.986 74.1396 119.668 74.4065 120.38 74.4065C121.092 74.4065 121.777 74.1396 122.276 73.668C122.775 73.1932 123.051 72.554 123.041 71.8899V66.2612C124.691 65.3737 125.709 63.7353 125.713 61.9604C125.713 59.2143 123.327 56.9863 120.38 56.9863H120.38Z" fill="#132C45"/>
<path d="M109.077 48.4185V38.3024C109.077 32.0603 114.138 27 120.38 27C126.622 27 131.682 32.0603 131.682 38.3024V45.5879" stroke="#132C45" stroke-width="4.68318"/>
</svg>
