<svg width="240" height="110" viewBox="0 0 240 110" fill="none" xmlns="http://www.w3.org/2000/svg">
<g clip-path="url(#clip0)">
<rect width="240" height="110" fill="white"/>
<path d="M50.7345 57.6643L55.1937 74.3326L61.1109 76.6211L80.3711 77.4065L88.1546 78.3791L89.6994 75.0065L89.2616 73.0688L92.9659 72.733L93.7919 68.4265L95.1858 66.9981L96.6803 64.2736L96.1295 62.6903L99.7585 61.1192L101.605 58.273L99.2787 56.0032L87.3836 46.8352L81.7826 37.3026L76.5983 37.0073L69.4689 40.9722L62.4241 46.8788L58.2595 52.4588L55.704 55.0775L50.7345 57.6643Z" fill="white"/>
<path d="M92.7998 30.1187C93.2412 29.6664 93.9657 29.6576 94.418 30.099L107.57 42.9341C108.023 43.3755 108.032 44.1 107.59 44.5523L91.5733 60.9653C91.5733 60.9653 88.7874 61.0159 88.0808 61.74C87.3741 62.4642 87.5077 65.1314 87.5077 65.1314C87.5077 65.1314 87.2278 66.4813 86.6449 66.6715C86.0621 66.8617 83.4925 66.4418 83.4925 66.4418L79.6124 66.8384L78.9894 69.3199L79.494 73.3432L77.2222 73.9595L65.4647 62.9369L64.3752 59.2461L92.7998 30.1187Z" fill="#50E3C2"/>
<path fill-rule="evenodd" clip-rule="evenodd" d="M56.5 76.1828C56.3398 76.36 56.1234 76.4829 55.8785 76.5353L23.8311 87.9186L22.5251 85.7047L54.0335 74.3627L49.9934 59.9471L49.3189 57.5448L49.1219 56.8457L49.0567 56.6144L13.6176 59.1354L12.9411 57.1854L49.8589 54.3648C50.3961 54.3469 50.8877 54.7097 51.0394 55.2361L51.2048 55.8099L51.2805 56.0726L52.8944 55.8506C53.0844 55.7938 53.3329 55.6894 53.6117 55.5438C54.0763 55.3013 54.5566 54.9787 55.0419 54.5777C56.4716 53.3962 57.7718 51.6883 58.8929 49.4586C61.2892 44.7068 68.1959 39.3585 75.5002 36.389C75.8275 36.2548 76.2517 36.108 76.7051 35.9761C77.4637 35.7554 78.2094 35.6044 78.9191 35.5331C80.953 35.3289 82.47 35.7912 83.3608 36.9722L83.5815 37.2648L90.801 29.8668C92.0906 28.5453 94.2374 28.5418 95.5836 29.8556L107.434 41.4198C108.779 42.7327 108.826 44.8755 107.536 46.1978L99.1249 54.8168L99.6641 54.9467C100.191 55.0736 100.661 55.2761 101.067 55.555C101.842 56.0943 102.319 56.8826 102.458 57.8512C102.678 59.3887 101.606 61.0973 99.9379 62.1465C99.2983 62.5517 98.5151 62.8714 97.5642 63.1172L97.2635 63.195L97.3443 63.4968C97.4844 64.0198 97.5287 64.5786 97.4747 65.1458C97.3058 66.8578 96.2788 68.2287 94.9194 68.5468L94.621 68.6167L94.6898 68.917C94.8047 69.4182 94.8384 69.9357 94.7887 70.4499C94.5815 72.5573 93.0966 74.0803 91.3957 73.9136L90.544 73.867L90.1232 73.8443L90.2286 74.2532C90.3488 74.7196 90.3992 75.1943 90.3778 75.6677C90.3266 76.8349 89.864 77.9025 89.1092 78.586C88.5427 79.0946 87.8392 79.3499 87.124 79.3045L81.7166 78.9664C81.1784 78.9314 80.6661 78.7273 80.2133 78.37L79.9883 78.3032C70.0485 79.245 62.0052 78.57 56.8649 76.1124L56.6546 76.0118L56.5 76.1828ZM78.3273 67.8713C78.0069 68.4299 77.8007 69.0605 77.7211 69.7315C77.5781 70.9133 77.8529 72.0573 78.4796 72.8737L78.7139 73.179C78.7139 73.179 78.0858 72.8838 77.7631 72.5689L65.7998 60.8942C65.3867 60.4911 65.3891 59.8126 65.8135 59.3778L68.0543 57.0815L81.9228 42.8718C82.2401 42.585 82.5457 42.2711 82.8607 41.9082L91.8618 32.6852C92.5239 32.0068 93.6106 31.9936 94.2891 32.6556L105.106 43.2112C105.784 43.8733 105.797 44.9601 105.135 45.6385L90.7765 60.3524C90.7449 60.391 90.7218 60.4206 90.6311 60.5366L90.6301 60.538L90.6295 60.5388L90.5969 60.5804L90.4273 60.5605L89.6424 60.468C87.9173 60.2648 86.4115 61.7854 86.2008 63.9091C86.1438 64.494 86.1952 65.0803 86.3509 65.6314L86.4677 66.0446L86.0402 66.0206L81.3106 65.7543C81.1649 65.7401 80.9411 65.7496 80.6392 65.7829C79.6956 66.1626 78.9662 66.7882 78.4509 67.6599L78.3273 67.8713ZM94.547 66.0127L94.4301 66.045L89.0739 65.3828L89.0165 65.3489L89.0031 65.3404L88.9944 65.3346L88.9675 65.3147C88.9441 65.2953 88.9369 65.2889 88.9165 65.269C88.6335 64.9929 88.4746 64.4297 88.5344 63.8416C88.6019 63.1531 88.9592 62.5608 89.2868 62.4805L89.3971 62.4535L94.8291 63.1485L94.9054 63.223C95.188 63.4988 95.3473 64.0602 95.2907 64.6544C95.2244 65.3309 94.8707 65.9231 94.547 66.0127ZM80.6815 70.8772L80.7416 70.9359L91.7631 71.6841L91.8341 71.6912L91.9431 71.6832C92.272 71.5977 92.625 71.0033 92.6828 70.3169C92.7237 69.8485 92.631 69.3893 92.44 69.0723L92.3957 68.8849L92.4049 68.7668L81.1374 68.0045L81.0666 67.9973L80.9576 68.0053C80.6314 68.0902 80.2793 68.6833 80.2182 69.3686C80.1659 69.9673 80.3308 70.5364 80.6193 70.8217C80.6528 70.8519 80.654 70.853 80.6815 70.8772ZM97.1066 57.373L97.2323 57.375C97.3027 57.3762 97.3557 57.3729 97.4059 57.3617C98.5001 57.1379 99.6043 57.2472 100.134 57.6219C100.36 57.7804 100.484 57.9861 100.536 58.301C100.622 58.8127 99.9697 59.7378 99.1169 60.264C98.4147 60.6976 97.3663 60.9975 95.9667 61.1616L95.8907 61.1705L95.8162 61.1424C95.6224 61.0692 95.4375 61.0196 95.2652 60.9955L93.7684 60.7938L97.1066 57.373ZM54.3722 66.911L56.1254 73.1424L56.1552 73.2486L56.2459 73.3109C60.3431 76.1248 68.1276 76.9959 78.4223 76.1254L78.7417 76.0984L78.6992 75.6892C78.6866 75.5707 78.6813 75.5068 78.6788 75.4388L78.6663 75.0925L78.3234 75.1485C77.262 75.3218 76.1807 74.9852 75.41 74.2331L63.6833 62.7894C62.3482 61.4865 62.3143 59.3504 63.6076 58.0252L72.3103 49.1073C72.3636 48.9548 72.3975 48.8818 72.4369 48.8206L75.1925 44.4366C75.305 44.2632 75.4595 44.1218 75.6376 44.0313C77.507 43.0692 78.9483 42.1413 79.9544 41.271L81.0276 40.1718C81.448 39.6355 81.6656 39.161 81.6936 38.7907L81.703 38.6661L81.6236 38.571C80.9644 37.7814 78.7722 37.8877 76.5718 38.7854C69.7904 41.5814 63.2748 46.6052 61.1296 50.8243C59.7087 53.6174 58.0397 55.7043 56.1817 57.0837C55.5635 57.5426 54.9505 57.9019 54.3558 58.1602C54.0051 58.3125 53.7038 58.4126 53.4175 58.4726L52.4074 58.6184L52.0525 58.6697L54.3722 66.911ZM87.892 76.8585L87.7834 76.891L82.4424 76.4409L82.3847 76.4117C82.3717 76.4046 82.3675 76.4023 82.3633 76.3999C82.3613 76.3987 82.3594 76.3976 82.3564 76.3958L82.3502 76.3917C82.3446 76.3881 82.3391 76.3843 82.3169 76.3691C82.2973 76.3548 82.2699 76.3317 82.2421 76.3045C81.9561 76.0254 81.7753 75.4912 81.7909 74.9236C81.8099 74.1995 82.0359 73.6839 82.3162 73.59L82.4305 73.5518L87.937 73.9777L87.9325 74.0009C87.9459 74.0081 87.9509 74.0108 87.9552 74.0132C87.9577 74.0146 87.96 74.016 87.9636 74.0181C87.9663 74.0198 87.9683 74.0211 87.9702 74.0224C87.976 74.0262 87.9816 74.03 88.0036 74.0449C88.0231 74.0591 88.0506 74.0824 88.0789 74.11C88.3655 74.3897 88.5484 74.9281 88.5322 75.4919C88.5151 76.168 88.2043 76.7647 87.892 76.8585Z" fill="#132C45"/>
<path d="M55.8785 76.5353L55.7788 76.069C55.7585 76.0733 55.7385 76.079 55.7189 76.086L55.8785 76.5353ZM56.5 76.1828L56.1463 75.863L56.1463 75.863L56.5 76.1828ZM23.8311 87.9186L23.4204 88.1609C23.5365 88.3575 23.7756 88.4444 23.9907 88.3679L23.8311 87.9186ZM22.5251 85.7047L22.3636 85.2561C22.23 85.3042 22.1248 85.4094 22.0766 85.543C22.0284 85.6765 22.0423 85.8247 22.1144 85.947L22.5251 85.7047ZM54.0335 74.3627L54.195 74.8113C54.4302 74.7266 54.5601 74.4747 54.4926 74.234L54.0335 74.3627ZM49.9934 59.9471L50.4526 59.8184L50.4525 59.8182L49.9934 59.9471ZM49.3189 57.5448L49.7779 57.4159L49.7778 57.4155L49.3189 57.5448ZM49.1219 56.8457L49.5808 56.7164L49.5808 56.7163L49.1219 56.8457ZM49.0567 56.6144L49.5156 56.4851C49.4543 56.2674 49.2484 56.1228 49.0228 56.1388L49.0567 56.6144ZM13.6176 59.1354L13.1672 59.2917C13.2378 59.4954 13.4364 59.6263 13.6515 59.6111L13.6176 59.1354ZM12.9411 57.1854L12.9048 56.71C12.7573 56.7212 12.6234 56.8003 12.5423 56.924C12.4613 57.0477 12.4422 57.202 12.4906 57.3417L12.9411 57.1854ZM49.8589 54.3648L49.843 53.8882C49.8362 53.8885 49.8294 53.8888 49.8226 53.8894L49.8589 54.3648ZM51.0394 55.2361L51.4976 55.1041L51.4976 55.104L51.0394 55.2361ZM51.2048 55.8099L50.7466 55.9419L50.7466 55.9419L51.2048 55.8099ZM51.2805 56.0726L50.8223 56.2046C50.8879 56.4322 51.1107 56.5772 51.3455 56.5449L51.2805 56.0726ZM52.8944 55.8506L52.9594 56.323C52.9836 56.3196 53.0076 56.3144 53.031 56.3074L52.8944 55.8506ZM53.6117 55.5438L53.391 55.1212L53.391 55.1212L53.6117 55.5438ZM55.0419 54.5777L55.3456 54.9453L55.3456 54.9453L55.0419 54.5777ZM58.8929 49.4586L58.4672 49.2439L58.4669 49.2444L58.8929 49.4586ZM75.5002 36.389L75.6797 36.8307L75.6811 36.8301L75.5002 36.389ZM76.7051 35.9761L76.8383 36.4339L76.8383 36.4339L76.7051 35.9761ZM78.9191 35.5331L78.9667 36.0076L78.9667 36.0076L78.9191 35.5331ZM83.3608 36.9722L83.7415 36.685L83.7415 36.685L83.3608 36.9722ZM83.5815 37.2648L83.2009 37.5519C83.2846 37.6629 83.4125 37.7318 83.5513 37.7406C83.69 37.7495 83.8257 37.6973 83.9228 37.5978L83.5815 37.2648ZM90.801 29.8668L91.1423 30.1998L90.801 29.8668ZM95.5836 29.8556L95.2506 30.1968L95.5836 29.8556ZM107.434 41.4198L107.767 41.0785L107.434 41.4198ZM99.1249 54.8168L98.7836 54.4838C98.6639 54.6065 98.6192 54.7841 98.6667 54.9489C98.7142 55.1137 98.8465 55.2402 99.0132 55.2804L99.1249 54.8168ZM99.6641 54.9467L99.7757 54.4831L99.7757 54.4831L99.6641 54.9467ZM101.067 55.555L101.339 55.1636L101.337 55.1622L101.067 55.555ZM102.458 57.8512L101.986 57.9187L101.986 57.9188L102.458 57.8512ZM99.9379 62.1465L99.684 61.7429L99.6827 61.7437L99.9379 62.1465ZM97.5642 63.1172L97.4448 62.6556L97.4448 62.6556L97.5642 63.1172ZM97.2635 63.195L97.1442 62.7334C97.021 62.7652 96.9157 62.8449 96.8517 62.9548C96.7876 63.0646 96.7701 63.1955 96.8029 63.3183L97.2635 63.195ZM97.3443 63.4968L96.8838 63.6202L96.8838 63.6202L97.3443 63.4968ZM97.4747 65.1458L97.9492 65.1926L97.9494 65.1909L97.4747 65.1458ZM94.9194 68.5468L94.8108 68.0826L94.8108 68.0826L94.9194 68.5468ZM94.621 68.6167L94.5124 68.1524C94.2568 68.2122 94.0976 68.4673 94.1562 68.7232L94.621 68.6167ZM94.6898 68.917L94.2251 69.0235L94.2251 69.0235L94.6898 68.917ZM94.7887 70.4499L95.2632 70.4966L95.2633 70.4958L94.7887 70.4499ZM91.3957 73.9136L91.4421 73.4391C91.4353 73.4384 91.4285 73.4379 91.4217 73.4375L91.3957 73.9136ZM90.544 73.867L90.57 73.3909L90.5697 73.3909L90.544 73.867ZM90.1232 73.8443L90.1489 73.3682C89.9972 73.36 89.8506 73.4246 89.7543 73.5422C89.6581 73.6597 89.6236 73.8162 89.6615 73.9633L90.1232 73.8443ZM90.2286 74.2532L90.6903 74.1342L90.6903 74.1342L90.2286 74.2532ZM90.3778 75.6677L89.9015 75.6462L89.9014 75.6469L90.3778 75.6677ZM89.1092 78.586L89.4277 78.9407L89.4292 78.9394L89.1092 78.586ZM87.124 79.3045L87.1543 78.8286L87.1538 78.8286L87.124 79.3045ZM81.7166 78.9664L81.6857 79.4422L81.6869 79.4423L81.7166 78.9664ZM80.2133 78.37L80.5087 77.9957C80.4612 77.9581 80.4069 77.93 80.3489 77.9128L80.2133 78.37ZM79.9883 78.3032L80.1238 77.8461C80.0653 77.8287 80.004 77.8228 79.9433 77.8285L79.9883 78.3032ZM56.8649 76.1124L56.6592 76.5425L56.6592 76.5425L56.8649 76.1124ZM56.6546 76.0118L56.8602 75.5817C56.6699 75.4906 56.4423 75.5355 56.3009 75.6921L56.6546 76.0118ZM77.7211 69.7315L78.1944 69.7887L78.1945 69.7877L77.7211 69.7315ZM78.3273 67.8713L77.9157 67.6305L77.9137 67.6341L78.3273 67.8713ZM78.4796 72.8737L78.8578 72.5834L78.8578 72.5834L78.4796 72.8737ZM78.7139 73.179L78.5111 73.6105C78.7102 73.7041 78.9474 73.6493 79.0853 73.478C79.2232 73.3066 79.2261 73.0632 79.0921 72.8887L78.7139 73.179ZM77.7631 72.5689L78.0961 72.2277L77.7631 72.5689ZM65.7998 60.8942L65.4668 61.2355L65.7998 60.8942ZM68.0543 57.0815L67.7131 56.7485L67.7131 56.7485L68.0543 57.0815ZM81.9228 42.8718L81.6031 42.5181C81.5957 42.5248 81.5885 42.5317 81.5816 42.5388L81.9228 42.8718ZM82.8607 41.9082L82.5195 41.5752C82.513 41.5818 82.5068 41.5886 82.5007 41.5956L82.8607 41.9082ZM91.8618 32.6852L91.5206 32.3522L91.5206 32.3522L91.8618 32.6852ZM94.2891 32.6556L93.9561 32.9969L94.2891 32.6556ZM105.106 43.2112L105.439 42.87L105.106 43.2112ZM105.135 45.6385L104.794 45.3055L105.135 45.6385ZM90.7765 60.3524L90.4352 60.0194C90.4255 60.0294 90.4162 60.0397 90.4074 60.0505L90.7765 60.3524ZM90.6311 60.5366L91.0062 60.8311L91.0069 60.8301L90.6311 60.5366ZM90.6301 60.538L91.0045 60.8332L91.0051 60.8324L90.6301 60.538ZM90.6295 60.5388L90.2551 60.2435L90.2537 60.2452L90.6295 60.5388ZM90.5969 60.5804L90.5412 61.054C90.7066 61.0734 90.8701 61.0052 90.9727 60.874L90.5969 60.5804ZM90.4273 60.5605L90.3716 61.034L90.3716 61.034L90.4273 60.5605ZM89.6424 60.468L89.5866 60.9416L89.5866 60.9416L89.6424 60.468ZM86.2008 63.9091L85.7264 63.862L85.7263 63.8627L86.2008 63.9091ZM86.3509 65.6314L86.8098 65.5018L86.8098 65.5018L86.3509 65.6314ZM86.4677 66.0446L86.441 66.5207C86.5948 66.5293 86.7433 66.4631 86.8397 66.3428C86.9361 66.2226 86.9685 66.0632 86.9265 65.9149L86.4677 66.0446ZM86.0402 66.0206L86.0133 66.4966L86.0134 66.4966L86.0402 66.0206ZM81.3106 65.7543L81.2642 66.2288C81.2707 66.2295 81.2772 66.23 81.2838 66.2303L81.3106 65.7543ZM80.6392 65.7829L80.5869 65.309C80.5437 65.3137 80.5015 65.3244 80.4612 65.3406L80.6392 65.7829ZM78.4509 67.6599L78.0404 67.4173L78.0394 67.4192L78.4509 67.6599ZM94.4301 66.045L94.3716 66.5182C94.4337 66.5259 94.4968 66.5213 94.5572 66.5046L94.4301 66.045ZM94.547 66.0127L94.42 65.5531L94.4199 65.5531L94.547 66.0127ZM89.0739 65.3828L88.8312 65.7932C88.8876 65.8266 88.9503 65.848 89.0154 65.856L89.0739 65.3828ZM89.0165 65.3489L88.7616 65.7518C88.7656 65.7544 88.7697 65.7569 88.7738 65.7593L89.0165 65.3489ZM89.0031 65.3404L88.7397 65.738L88.7482 65.7433L89.0031 65.3404ZM88.9944 65.3346L88.7101 65.7174C88.717 65.7225 88.724 65.7274 88.7311 65.7321L88.9944 65.3346ZM88.9675 65.3147L88.6636 65.682C88.67 65.6873 88.6765 65.6924 88.6832 65.6974L88.9675 65.3147ZM88.5344 63.8416L89.0087 63.8898L89.0089 63.8882L88.5344 63.8416ZM89.2868 62.4805L89.1733 62.0174L89.1733 62.0174L89.2868 62.4805ZM89.3971 62.4535L89.4577 61.9805C89.3995 61.9731 89.3406 61.9764 89.2837 61.9904L89.3971 62.4535ZM94.8291 63.1485L95.1621 62.8073C95.088 62.7349 94.9923 62.6887 94.8896 62.6756L94.8291 63.1485ZM94.9054 63.223L95.2384 62.8818L94.9054 63.223ZM95.2907 64.6544L95.7653 64.7009L95.7654 64.6996L95.2907 64.6544ZM80.7416 70.9359L80.4086 71.2771C80.4897 71.3563 80.5963 71.4039 80.7094 71.4116L80.7416 70.9359ZM80.6815 70.8772L81.0145 70.5359C81.0086 70.5302 81.0026 70.5247 80.9965 70.5193L80.6815 70.8772ZM91.7631 71.6841L91.8109 71.2097C91.8057 71.2091 91.8005 71.2087 91.7953 71.2084L91.7631 71.6841ZM91.8341 71.6912L91.7863 72.1656C91.8138 72.1684 91.8415 72.1688 91.869 72.1667L91.8341 71.6912ZM91.9431 71.6832L91.978 72.1587C92.0067 72.1566 92.0352 72.1519 92.0631 72.1447L91.9431 71.6832ZM92.6828 70.3169L92.2078 70.2754L92.2076 70.2769L92.6828 70.3169ZM92.44 69.0723L91.976 69.1821C91.9874 69.2302 92.0062 69.2761 92.0316 69.3184L92.44 69.0723ZM92.3957 68.8849L91.9203 68.848C91.9165 68.8972 91.9203 68.9467 91.9317 68.9947L92.3957 68.8849ZM92.4049 68.7668L92.8802 68.8036C92.8901 68.6768 92.8488 68.5512 92.7655 68.4549C92.6823 68.3586 92.564 68.2996 92.437 68.291L92.4049 68.7668ZM81.1374 68.0045L81.0896 68.4789C81.0948 68.4794 81.1 68.4798 81.1052 68.4802L81.1374 68.0045ZM81.0666 67.9973L81.1144 67.5229C81.0869 67.5202 81.0592 67.5198 81.0316 67.5218L81.0666 67.9973ZM80.9576 68.0053L80.9226 67.5298C80.8939 67.5319 80.8655 67.5366 80.8376 67.5439L80.9576 68.0053ZM80.2182 69.3686L79.7433 69.3262L79.7432 69.3271L80.2182 69.3686ZM80.6193 70.8217L80.2841 71.1607C80.2892 71.1658 80.2945 71.1708 80.2998 71.1756L80.6193 70.8217ZM97.2323 57.375L97.2245 57.8518L97.2245 57.8518L97.2323 57.375ZM97.1066 57.373L97.1144 56.8962C96.9832 56.8941 96.857 56.9461 96.7654 57.04L97.1066 57.373ZM97.4059 57.3617L97.3104 56.8945L97.3018 56.8964L97.4059 57.3617ZM100.134 57.6219L99.859 58.0113L99.8602 58.0121L100.134 57.6219ZM100.536 58.301L100.066 58.379L100.066 58.3798L100.536 58.301ZM99.1169 60.264L98.8665 59.8582L98.8663 59.8583L99.1169 60.264ZM95.9667 61.1616L95.9112 60.688L95.9112 60.688L95.9667 61.1616ZM95.8907 61.1705L95.7224 61.6166C95.7937 61.6435 95.8705 61.6529 95.9463 61.644L95.8907 61.1705ZM95.8162 61.1424L95.6478 61.5884L95.6478 61.5884L95.8162 61.1424ZM95.2652 60.9955L95.3314 60.5233L95.3289 60.5229L95.2652 60.9955ZM93.7684 60.7938L93.4271 60.4608C93.3012 60.5898 93.2589 60.7787 93.3176 60.9491C93.3763 61.1195 93.5261 61.2423 93.7047 61.2663L93.7684 60.7938ZM56.1254 73.1424L56.5843 73.0133L56.5843 73.0133L56.1254 73.1424ZM54.3722 66.911L54.8312 66.7819L54.8312 66.7818L54.3722 66.911ZM56.1552 73.2486L55.6962 73.3778C55.7265 73.4851 55.7934 73.5785 55.8853 73.6417L56.1552 73.2486ZM56.2459 73.3109L55.976 73.7039L55.976 73.7039L56.2459 73.3109ZM78.4223 76.1254L78.4625 76.6005L78.4625 76.6005L78.4223 76.1254ZM78.7417 76.0984L78.7819 76.5735C78.9094 76.5627 79.0273 76.5011 79.109 76.4025C79.1906 76.3038 79.2292 76.1765 79.2159 76.0491L78.7417 76.0984ZM78.6992 75.6892L79.1734 75.6399L79.1733 75.6388L78.6992 75.6892ZM78.6788 75.4388L79.1553 75.4216L79.1553 75.4215L78.6788 75.4388ZM78.6663 75.0925L79.1427 75.0752C79.1378 74.9384 79.0743 74.8104 78.9684 74.7236C78.8625 74.6369 78.7245 74.5998 78.5894 74.6219L78.6663 75.0925ZM78.3234 75.1485L78.2465 74.6779L78.2465 74.6779L78.3234 75.1485ZM72.3103 49.1073L72.6516 49.4403C72.7003 49.3904 72.7375 49.3303 72.7605 49.2645L72.3103 49.1073ZM72.4369 48.8206L72.8379 49.0786L72.8406 49.0744L72.4369 48.8206ZM75.1925 44.4366L74.7924 44.1771L74.7888 44.1829L75.1925 44.4366ZM75.6376 44.0313L75.8535 44.4564L75.8557 44.4553L75.6376 44.0313ZM79.9544 41.271L80.2664 41.6316C80.2765 41.6228 80.2863 41.6137 80.2956 41.6041L79.9544 41.271ZM81.0276 40.1718L81.3688 40.5049C81.3808 40.4926 81.3922 40.4796 81.4028 40.466L81.0276 40.1718ZM81.6936 38.7907L82.1691 38.8266L82.1691 38.8266L81.6936 38.7907ZM81.703 38.6661L82.1785 38.702C82.1878 38.5783 82.1486 38.4558 82.069 38.3605L81.703 38.6661ZM81.6236 38.571L81.2576 38.8766L81.2576 38.8766L81.6236 38.571ZM76.5718 38.7854L76.3917 38.344L76.3901 38.3446L76.5718 38.7854ZM61.1296 50.8243L61.5545 51.0405L61.5546 51.0404L61.1296 50.8243ZM56.1817 57.0837L55.8974 56.7009L55.8974 56.7009L56.1817 57.0837ZM54.3558 58.1602L54.5457 58.5975L54.5457 58.5975L54.3558 58.1602ZM53.4175 58.4726L53.4856 58.9445C53.4956 58.943 53.5055 58.9413 53.5153 58.9392L53.4175 58.4726ZM52.4074 58.6184L52.3393 58.1465L52.3391 58.1465L52.4074 58.6184ZM52.0525 58.6697L51.9842 58.1979C51.8483 58.2175 51.7275 58.2948 51.6527 58.4099C51.5779 58.525 51.5563 58.6668 51.5935 58.7989L52.0525 58.6697ZM87.7834 76.891L87.7434 77.3662C87.8031 77.3712 87.8632 77.3649 87.9205 77.3477L87.7834 76.891ZM87.892 76.8585L88.0291 77.3151L88.0291 77.3151L87.892 76.8585ZM82.4424 76.4409L82.2273 76.8664C82.282 76.894 82.3414 76.9108 82.4024 76.916L82.4424 76.4409ZM82.3847 76.4117L82.1561 76.8301C82.1606 76.8326 82.1651 76.835 82.1697 76.8373L82.3847 76.4117ZM82.3633 76.3999L82.6021 75.9872L82.6018 75.987L82.3633 76.3999ZM82.3564 76.3958L82.0956 76.7949C82.1012 76.7986 82.1069 76.8022 82.1127 76.8056L82.3564 76.3958ZM82.3502 76.3917L82.0879 76.7899L82.0894 76.7909L82.3502 76.3917ZM82.3169 76.3691L82.0357 76.7542C82.0399 76.7573 82.044 76.7602 82.0483 76.7631L82.3169 76.3691ZM81.7909 74.9236L82.2675 74.9367L82.2675 74.9361L81.7909 74.9236ZM82.3162 73.59L82.4675 74.0422L82.4675 74.0422L82.3162 73.59ZM82.4305 73.5518L82.4672 73.0764C82.4036 73.0715 82.3396 73.0794 82.2791 73.0997L82.4305 73.5518ZM87.937 73.9777L88.4051 74.0683C88.4309 73.9348 88.3986 73.7967 88.3162 73.6887C88.2338 73.5806 88.1093 73.5128 87.9738 73.5023L87.937 73.9777ZM87.9325 74.0009L87.4644 73.9104C87.4247 74.1156 87.5233 74.3227 87.7075 74.4213L87.9325 74.0009ZM87.9552 74.0132L88.1899 73.5982L88.1897 73.5981L87.9552 74.0132ZM87.9636 74.0181L88.2229 73.6179C88.217 73.6142 88.2112 73.6105 88.2052 73.607L87.9636 74.0181ZM87.9702 74.0224L88.2317 73.6237L88.2315 73.6236L87.9702 74.0224ZM88.0036 74.0449L88.2843 73.6595C88.2801 73.6564 88.2758 73.6534 88.2714 73.6505L88.0036 74.0449ZM88.5322 75.4919L88.0555 75.4782L88.0555 75.4799L88.5322 75.4919ZM55.9782 77.0015C56.3163 76.9292 56.6231 76.7576 56.8537 76.5025L56.1463 75.863C56.0564 75.9625 55.9305 76.0366 55.7788 76.069L55.9782 77.0015ZM23.9907 88.3679L56.0381 76.9846L55.7189 76.086L23.6715 87.4693L23.9907 88.3679ZM22.1144 85.947L23.4204 88.1609L24.2418 87.6764L22.9358 85.4625L22.1144 85.947ZM53.872 73.914L22.3636 85.2561L22.6866 86.1534L54.195 74.8113L53.872 73.914ZM49.5343 60.0758L53.5744 74.4913L54.4926 74.234L50.4526 59.8184L49.5343 60.0758ZM48.8598 57.6737L49.5344 60.076L50.4525 59.8182L49.7779 57.4159L48.8598 57.6737ZM48.6629 56.975L48.8599 57.6741L49.7778 57.4155L49.5808 56.7164L48.6629 56.975ZM48.5978 56.7437L48.6629 56.975L49.5808 56.7163L49.5156 56.4851L48.5978 56.7437ZM13.6515 59.6111L49.0905 57.09L49.0228 56.1388L13.5838 58.6598L13.6515 59.6111ZM12.4906 57.3417L13.1672 59.2917L14.0681 58.9792L13.3916 57.0291L12.4906 57.3417ZM49.8226 53.8894L12.9048 56.71L12.9774 57.6608L49.8952 54.8402L49.8226 53.8894ZM51.4976 55.104C51.287 54.3736 50.6045 53.8629 49.843 53.8882L49.8747 54.8413C50.1878 54.8309 50.4883 55.0458 50.5813 55.3682L51.4976 55.104ZM51.663 55.6779L51.4976 55.1041L50.5813 55.3682L50.7466 55.9419L51.663 55.6779ZM51.7387 55.9405L51.663 55.6779L50.7466 55.9419L50.8223 56.2046L51.7387 55.9405ZM52.8295 55.3782L51.2155 55.6002L51.3455 56.5449L52.9594 56.323L52.8295 55.3782ZM53.391 55.1212C53.1288 55.2581 52.9094 55.3485 52.7579 55.3938L53.031 56.3074C53.2593 56.2392 53.5369 56.1207 53.8323 55.9665L53.391 55.1212ZM54.7381 54.2102C54.2747 54.5931 53.822 54.8962 53.391 55.1212L53.8323 55.9665C54.3306 55.7064 54.8385 55.3643 55.3456 54.9453L54.7381 54.2102ZM58.4669 49.2444C57.3672 51.4315 56.1045 53.081 54.7381 54.2102L55.3456 54.9453C56.8388 53.7113 58.1763 51.9451 59.3189 49.6728L58.4669 49.2444ZM75.3206 35.9473C71.6272 37.4488 68.0359 39.5507 65.062 41.8801C62.0948 44.2042 59.7094 46.7805 58.4672 49.2439L59.3186 49.6733C60.4726 47.3849 62.7387 44.9112 65.65 42.6308C68.5546 40.3557 72.0689 38.2987 75.6797 36.8307L75.3206 35.9473ZM76.5719 35.5183C76.1057 35.6539 75.6651 35.806 75.3192 35.9478L75.6811 36.8301C75.9898 36.7035 76.3977 36.5621 76.8383 36.4339L76.5719 35.5183ZM78.8714 35.0587C78.1288 35.1333 77.3543 35.2906 76.5719 35.5183L76.8383 36.4339C77.573 36.2201 78.2899 36.0755 78.9667 36.0076L78.8714 35.0587ZM83.7415 36.685C82.7092 35.3166 80.9893 34.846 78.8714 35.0587L78.9667 36.0076C80.9167 35.8117 82.2308 36.2658 82.9801 37.2593L83.7415 36.685ZM83.9622 36.9777L83.7415 36.685L82.9801 37.2593L83.2009 37.5519L83.9622 36.9777ZM90.4598 29.5338L83.2403 36.9318L83.9228 37.5978L91.1423 30.1998L90.4598 29.5338ZM95.9166 29.5143C94.3884 28.023 91.9396 28.0174 90.4598 29.5338L91.1423 30.1998C92.2417 29.0732 94.0863 29.0606 95.2506 30.1968L95.9166 29.5143ZM107.767 41.0785L95.9166 29.5143L95.2506 30.1968L107.101 41.761L107.767 41.0785ZM107.877 46.5308C109.357 45.0141 109.295 42.5695 107.767 41.0785L107.101 41.761C108.264 42.8959 108.295 44.737 107.195 45.8648L107.877 46.5308ZM99.4661 55.1498L107.877 46.5308L107.195 45.8648L98.7836 54.4838L99.4661 55.1498ZM99.7757 54.4831L99.2365 54.3533L99.0132 55.2804L99.5525 55.4102L99.7757 54.4831ZM101.337 55.1622C100.878 54.8463 100.352 54.622 99.7757 54.4831L99.5525 55.4102C100.03 55.5252 100.445 55.7058 100.796 55.9478L101.337 55.1622ZM102.93 57.7836C102.773 56.6895 102.227 55.7816 101.339 55.1636L100.794 55.9465C101.456 56.4071 101.865 57.0756 101.986 57.9187L102.93 57.7836ZM100.192 62.5501C101.946 61.4466 103.187 59.5801 102.93 57.7836L101.986 57.9188C102.169 59.1973 101.266 60.7479 99.684 61.7429L100.192 62.5501ZM97.6836 63.5789C98.6686 63.3241 99.501 62.9877 100.193 62.5492L99.6827 61.7437C99.0957 62.1156 98.3615 62.4186 97.4448 62.6556L97.6836 63.5789ZM97.3829 63.6566L97.6836 63.5789L97.4448 62.6556L97.1442 62.7334L97.3829 63.6566ZM97.8049 63.3735L97.7241 63.0717L96.8029 63.3183L96.8838 63.6202L97.8049 63.3735ZM97.9494 65.1909C98.0085 64.5701 97.9604 63.9541 97.8049 63.3735L96.8838 63.6202C97.0084 64.0856 97.0489 64.5871 97.0001 65.1006L97.9494 65.1909ZM95.0281 69.0111C96.6407 68.6337 97.7664 67.0458 97.9492 65.1926L97.0002 65.0989C96.8452 66.6698 95.9169 67.8237 94.8108 68.0826L95.0281 69.0111ZM94.7296 69.0809L95.0281 69.0111L94.8108 68.0826L94.5124 68.1524L94.7296 69.0809ZM95.1546 68.8105L95.0858 68.5102L94.1562 68.7232L94.2251 69.0235L95.1546 68.8105ZM95.2633 70.4958C95.3179 69.9305 95.2808 69.3616 95.1546 68.8105L94.2251 69.0235C94.3285 69.4748 94.3588 69.9409 94.3141 70.404L95.2633 70.4958ZM91.3492 74.3882C93.404 74.5895 95.0403 72.7634 95.2632 70.4966L94.3142 70.4033C94.1226 72.3511 92.7891 73.5711 91.4421 73.4391L91.3492 74.3882ZM90.5179 74.3431L91.3696 74.3897L91.4217 73.4375L90.57 73.3909L90.5179 74.3431ZM90.0975 74.3204L90.5183 74.3431L90.5697 73.3909L90.1489 73.3682L90.0975 74.3204ZM90.6903 74.1342L90.5849 73.7253L89.6615 73.9633L89.7669 74.3722L90.6903 74.1342ZM90.8541 75.6893C90.8777 75.1675 90.8221 74.6454 90.6903 74.1342L89.7669 74.3722C89.8756 74.7938 89.9207 75.2212 89.9015 75.6462L90.8541 75.6893ZM89.4292 78.9394C90.2931 78.1572 90.7983 76.962 90.8541 75.6886L89.9014 75.6469C89.855 76.7078 89.4349 77.6478 88.7891 78.2325L89.4292 78.9394ZM87.0938 79.7803C87.9458 79.8345 88.773 79.5287 89.4277 78.9407L88.7906 78.2312C88.3125 78.6606 87.7326 78.8654 87.1543 78.8286L87.0938 79.7803ZM81.6869 79.4423L87.0943 79.7803L87.1538 78.8286L81.7464 78.4905L81.6869 79.4423ZM79.918 78.7442C80.4404 79.1566 81.0436 79.4005 81.6857 79.4422L81.7476 78.4906C81.3133 78.4624 80.8918 78.298 80.5087 77.9957L79.918 78.7442ZM79.8527 78.7603L80.0778 78.8271L80.3489 77.9128L80.1238 77.8461L79.8527 78.7603ZM56.6592 76.5425C61.9199 79.0577 70.071 79.7218 80.0333 78.7779L79.9433 77.8285C70.0261 78.7682 62.0906 78.0823 57.0705 75.6822L56.6592 76.5425ZM56.4489 76.442L56.6592 76.5425L57.0705 75.6822L56.8602 75.5817L56.4489 76.442ZM56.8537 76.5025L57.0083 76.3316L56.3009 75.6921L56.1463 75.863L56.8537 76.5025ZM78.1945 69.7877C78.2669 69.1777 78.4537 68.6091 78.7409 68.1085L77.9137 67.6341C77.56 68.2507 77.3345 68.9433 77.2476 69.6753L78.1945 69.7877ZM78.8578 72.5834C78.3194 71.882 78.0638 70.8684 78.1944 69.7887L77.2477 69.6742C77.0924 70.9583 77.3864 72.2326 78.1013 73.164L78.8578 72.5834ZM79.0921 72.8887L78.8578 72.5834L78.1013 73.164L78.3357 73.4693L79.0921 72.8887ZM77.4301 72.9101C77.6365 73.1116 77.9179 73.2885 78.1224 73.4057C78.2293 73.467 78.325 73.5175 78.3941 73.5527C78.4288 73.5704 78.4571 73.5844 78.4772 73.5942C78.4872 73.5991 78.4952 73.603 78.501 73.6057C78.5038 73.6071 78.5061 73.6082 78.5078 73.609C78.5087 73.6094 78.5094 73.6097 78.5099 73.61C78.5102 73.6101 78.5104 73.6102 78.5106 73.6103C78.5107 73.6104 78.5108 73.6104 78.5109 73.6104C78.5109 73.6105 78.511 73.6105 78.511 73.6105C78.511 73.6105 78.5111 73.6105 78.7139 73.179C78.9167 72.7475 78.9167 72.7475 78.9168 72.7475C78.9168 72.7475 78.9168 72.7475 78.9169 72.7476C78.9169 72.7476 78.9169 72.7476 78.9169 72.7476C78.917 72.7476 78.917 72.7476 78.917 72.7476C78.9169 72.7476 78.9167 72.7475 78.9164 72.7473C78.9157 72.747 78.9144 72.7464 78.9126 72.7455C78.9089 72.7438 78.9031 72.741 78.8953 72.7372C78.8798 72.7296 78.8565 72.7181 78.8273 72.7032C78.7686 72.6733 78.6871 72.6303 78.5967 72.5784C78.4064 72.4693 78.2124 72.3411 78.0961 72.2277L77.4301 72.9101ZM65.4668 61.2355L77.4301 72.9101L78.0961 72.2277L66.1328 60.553L65.4668 61.2355ZM65.4722 59.0448C64.8764 59.6554 64.8528 60.6363 65.4668 61.2355L66.1328 60.553C65.9206 60.3459 65.9019 59.9698 66.1547 59.7108L65.4722 59.0448ZM67.7131 56.7485L65.4722 59.0448L66.1547 59.7108L68.3956 57.4145L67.7131 56.7485ZM81.5816 42.5388L67.7131 56.7485L68.3955 57.4145L82.264 43.2048L81.5816 42.5388ZM82.5007 41.5956C82.1968 41.9457 81.9045 42.2456 81.6031 42.5181L82.2425 43.2255C82.5756 42.9244 82.8946 42.5965 83.2208 42.2208L82.5007 41.5956ZM91.5206 32.3522L82.5195 41.5752L83.202 42.2412L92.2031 33.0183L91.5206 32.3522ZM94.6221 32.3144C93.7552 31.4684 92.3666 31.4853 91.5206 32.3522L92.2031 33.0183C92.6812 32.5283 93.4661 32.5187 93.9561 32.9969L94.6221 32.3144ZM105.439 42.87L94.6221 32.3144L93.9561 32.9969L104.773 43.5525L105.439 42.87ZM105.477 45.9715C106.323 45.1046 106.306 43.716 105.439 42.87L104.773 43.5525C105.263 44.0306 105.272 44.8155 104.794 45.3055L105.477 45.9715ZM91.1177 60.6854L105.477 45.9715L104.794 45.3055L90.4352 60.0194L91.1177 60.6854ZM91.0069 60.8301C91.099 60.7122 91.1182 60.6877 91.1455 60.6543L90.4074 60.0505C90.3716 60.0942 90.3445 60.129 90.2554 60.2431L91.0069 60.8301ZM91.0051 60.8324L91.0062 60.8311L90.2561 60.2422L90.2551 60.2435L91.0051 60.8324ZM91.0039 60.834L91.0045 60.8332L90.2557 60.2428L90.2551 60.2435L91.0039 60.834ZM90.9727 60.874L91.0052 60.8323L90.2537 60.2452L90.2212 60.2869L90.9727 60.874ZM90.3716 61.034L90.5412 61.054L90.6527 60.1069L90.4831 60.0869L90.3716 61.034ZM89.5866 60.9416L90.3716 61.034L90.4831 60.0869L89.6982 59.9945L89.5866 60.9416ZM86.6753 63.9561C86.87 61.9939 88.2197 60.7805 89.5866 60.9416L89.6982 59.9945C87.615 59.7491 85.953 61.5769 85.7264 63.862L86.6753 63.9561ZM86.8098 65.5018C86.6706 65.0091 86.624 64.4825 86.6754 63.9554L85.7263 63.8627C85.6636 64.5056 85.7199 65.1516 85.8921 65.7611L86.8098 65.5018ZM86.9265 65.9149L86.8098 65.5018L85.8921 65.7611L86.0089 66.1743L86.9265 65.9149ZM86.0134 66.4966L86.441 66.5207L86.4945 65.5686L86.0669 65.5445L86.0134 66.4966ZM81.2838 66.2303L86.0133 66.4966L86.067 65.5445L81.3374 65.2782L81.2838 66.2303ZM80.6915 66.2568C80.9878 66.2241 81.1705 66.2197 81.2642 66.2288L81.357 65.2798C81.1594 65.2604 80.8945 65.275 80.5869 65.309L80.6915 66.2568ZM78.8614 67.9026C79.323 67.1216 79.9704 66.5659 80.8171 66.2253L80.4612 65.3406C79.4207 65.7592 78.6093 66.4548 78.0404 67.4173L78.8614 67.9026ZM78.7388 68.1121L78.8624 67.9007L78.0394 67.4192L77.9157 67.6305L78.7388 68.1121ZM94.5572 66.5046L94.6741 66.4722L94.4199 65.5531L94.303 65.5855L94.5572 66.5046ZM89.0154 65.856L94.3716 66.5182L94.4886 65.5718L89.1324 64.9096L89.0154 65.856ZM88.7738 65.7593L88.8312 65.7932L89.3166 64.9724L89.2592 64.9385L88.7738 65.7593ZM88.7482 65.7433L88.7616 65.7518L89.2715 64.946L89.2581 64.9375L88.7482 65.7433ZM88.7311 65.7321L88.7398 65.7379L89.2664 64.9429L89.2577 64.9371L88.7311 65.7321ZM88.6832 65.6974L88.7101 65.7174L89.2788 64.9519L89.2519 64.9319L88.6832 65.6974ZM88.5835 65.6103C88.6148 65.6408 88.632 65.6559 88.6636 65.682L89.2715 64.9473C89.266 64.9427 89.2628 64.9401 89.2606 64.9382C89.2587 64.9366 89.2582 64.9361 89.2583 64.9363C89.259 64.9368 89.258 64.9361 89.2495 64.9278L88.5835 65.6103ZM88.06 63.7935C87.992 64.463 88.1583 65.1954 88.5835 65.6103L89.2495 64.9278C89.1087 64.7904 88.9573 64.3964 89.0087 63.8898L88.06 63.7935ZM89.1733 62.0174C88.8134 62.1056 88.5558 62.4205 88.3985 62.6974C88.2256 63.0018 88.0999 63.3867 88.0598 63.7951L89.0089 63.8882C89.0364 63.608 89.1231 63.3525 89.2277 63.1685C89.3477 62.9571 89.4326 62.9357 89.4003 62.9436L89.1733 62.0174ZM89.2837 61.9904L89.1733 62.0174L89.4003 62.9436L89.5106 62.9166L89.2837 61.9904ZM94.8896 62.6756L89.4577 61.9805L89.3366 62.9264L94.7686 63.6215L94.8896 62.6756ZM95.2384 62.8818L95.1621 62.8073L94.4961 63.4898L94.5724 63.5642L95.2384 62.8818ZM95.7654 64.6996C95.8295 64.0263 95.6631 63.2962 95.2384 62.8818L94.5724 63.5642C94.7129 63.7014 94.8651 64.0941 94.8161 64.6092L95.7654 64.6996ZM94.6741 66.4722C95.0239 66.3755 95.2756 66.0636 95.4309 65.7874C95.6012 65.4848 95.7258 65.1037 95.7653 64.7009L94.8162 64.6078C94.7894 64.8816 94.7039 65.1348 94.5998 65.3198C94.4809 65.5313 94.3939 65.5603 94.42 65.5531L94.6741 66.4722ZM81.0747 70.5946L81.0145 70.5359L80.3485 71.2184L80.4086 71.2771L81.0747 70.5946ZM91.7953 71.2084L80.7739 70.4602L80.7094 71.4116L91.7308 72.1598L91.7953 71.2084ZM91.8819 71.2168L91.8109 71.2097L91.7152 72.1585L91.7863 72.1656L91.8819 71.2168ZM91.9081 71.2077L91.7991 71.2157L91.869 72.1667L91.978 72.1587L91.9081 71.2077ZM92.2076 70.2769C92.1843 70.5546 92.1008 70.8091 91.9981 70.9933C91.8807 71.2039 91.7947 71.2291 91.8231 71.2218L92.0631 72.1447C92.4204 72.0518 92.6753 71.7371 92.8311 71.4575C93.0016 71.1515 93.1235 70.7656 93.1579 70.3569L92.2076 70.2769ZM92.0316 69.3184C92.1597 69.531 92.2419 69.8843 92.2078 70.2754L93.1577 70.3584C93.2054 69.8127 93.1023 69.2477 92.8485 68.8263L92.0316 69.3184ZM91.9317 68.9947L91.976 69.1821L92.904 68.9626L92.8597 68.7751L91.9317 68.9947ZM91.9295 68.7299L91.9203 68.848L92.8711 68.9218L92.8802 68.8036L91.9295 68.7299ZM81.1052 68.4802L92.3727 69.2425L92.437 68.291L81.1696 67.5288L81.1052 68.4802ZM81.0187 68.4717L81.0896 68.4789L81.1853 67.5301L81.1144 67.5229L81.0187 68.4717ZM80.9925 68.4809L81.1015 68.4729L81.0316 67.5218L80.9226 67.5298L80.9925 68.4809ZM80.6931 69.4109C80.7179 69.1329 80.8021 68.8783 80.9049 68.6941C81.0227 68.4829 81.1079 68.4589 81.0776 68.4668L80.8376 67.5439C80.4811 67.6366 80.2272 67.9516 80.0721 68.2295C79.902 68.5343 79.7796 68.9189 79.7433 69.3262L80.6931 69.4109ZM80.9546 70.4827C80.803 70.3328 80.648 69.9273 80.6932 69.41L79.7432 69.3271C79.6838 70.0073 79.8586 70.74 80.2841 71.1607L80.9546 70.4827ZM80.9965 70.5193C80.9707 70.4965 80.971 70.4968 80.9388 70.4678L80.2998 71.1756C80.3346 71.207 80.3372 71.2094 80.3664 71.235L80.9965 70.5193ZM97.24 56.8983L97.1144 56.8962L97.0989 57.8497L97.2245 57.8518L97.24 56.8983ZM97.3018 56.8964C97.304 56.8959 97.2935 56.8992 97.24 56.8983L97.2245 57.8518C97.3119 57.8532 97.4073 57.85 97.5101 57.827L97.3018 56.8964ZM100.409 57.2326C100.048 56.9771 99.5453 56.8427 99.0274 56.7928C98.498 56.7417 97.9007 56.7738 97.3104 56.8945L97.5015 57.8288C98.0052 57.7258 98.5072 57.7006 98.9359 57.742C99.3761 57.7844 99.6904 57.892 99.859 58.0113L100.409 57.2326ZM101.006 58.223C100.936 57.7997 100.752 57.4734 100.408 57.2317L99.8602 58.0121C99.9673 58.0873 100.031 58.1726 100.066 58.379L101.006 58.223ZM99.3672 60.6698C99.8491 60.3725 100.271 59.9656 100.566 59.5549C100.714 59.3491 100.837 59.132 100.917 58.9166C100.995 58.7071 101.047 58.4637 101.006 58.2222L100.066 58.3798C100.068 58.3942 100.07 58.4583 100.024 58.5826C99.9795 58.701 99.9023 58.844 99.791 58.9992C99.5677 59.3105 99.2375 59.6293 98.8665 59.8582L99.3672 60.6698ZM96.0223 61.6351C97.4493 61.4678 98.5784 61.1569 99.3674 60.6696L98.8663 59.8583C98.251 60.2383 97.2833 60.5271 95.9112 60.688L96.0223 61.6351ZM95.9463 61.644L96.0223 61.6351L95.9112 60.688L95.8352 60.6969L95.9463 61.644ZM95.6478 61.5884L95.7224 61.6166L96.0591 60.7244L95.9845 60.6963L95.6478 61.5884ZM95.1991 61.4676C95.3299 61.486 95.4802 61.5252 95.6478 61.5884L95.9845 60.6963C95.7647 60.6133 95.5452 60.5532 95.3314 60.5233L95.1991 61.4676ZM93.7047 61.2663L95.2016 61.468L95.3289 60.5229L93.832 60.3213L93.7047 61.2663ZM96.7654 57.04L93.4271 60.4608L94.1096 61.1268L97.4479 57.706L96.7654 57.04ZM56.5843 73.0133L54.8312 66.7819L53.9132 67.0401L55.6664 73.2716L56.5843 73.0133ZM56.6142 73.1195L56.5843 73.0133L55.6664 73.2716L55.6962 73.3778L56.6142 73.1195ZM56.5158 72.9179L56.4252 72.8556L55.8853 73.6417L55.976 73.7039L56.5158 72.9179ZM78.3821 75.6503C73.2554 76.0838 68.7705 76.082 65.0682 75.6266C61.3587 75.1702 58.4746 74.2631 56.5158 72.9179L55.976 73.7039C58.1143 75.1726 61.1711 76.108 64.9518 76.573C68.7398 77.039 73.2945 77.0375 78.4625 76.6005L78.3821 75.6503ZM78.7015 75.6233L78.3821 75.6503L78.4625 76.6005L78.7819 76.5735L78.7015 75.6233ZM78.2249 75.7385L78.2674 76.1477L79.2159 76.0491L79.1734 75.6399L78.2249 75.7385ZM78.2023 75.456C78.2054 75.5408 78.2121 75.6177 78.225 75.7396L79.1733 75.6388C79.1611 75.5237 79.1571 75.4729 79.1553 75.4216L78.2023 75.456ZM78.1898 75.1097L78.2023 75.456L79.1553 75.4215L79.1427 75.0752L78.1898 75.1097ZM78.4002 75.619L78.7431 75.563L78.5894 74.6219L78.2465 74.6779L78.4002 75.619ZM75.077 74.5744C75.957 75.4331 77.1909 75.8165 78.4002 75.619L78.2465 74.6779C77.3332 74.8271 76.4043 74.5372 75.743 73.8919L75.077 74.5744ZM63.3503 63.1306L75.077 74.5744L75.743 73.8919L64.0163 62.4481L63.3503 63.1306ZM63.2664 57.6921C61.7869 59.2082 61.8291 61.6462 63.3503 63.1306L64.0163 62.4481C62.8674 61.3269 62.8418 59.4926 63.9489 58.3582L63.2664 57.6921ZM71.9691 48.7743L63.2664 57.6921L63.9489 58.3582L72.6516 49.4403L71.9691 48.7743ZM72.0359 48.5626C71.9661 48.6711 71.9175 48.7858 71.8602 48.9501L72.7605 49.2645C72.8096 49.1239 72.8289 49.0926 72.8379 49.0786L72.0359 48.5626ZM74.7888 44.1829L72.0332 48.5669L72.8406 49.0744L75.5962 44.6903L74.7888 44.1829ZM75.4216 43.6062C75.1649 43.7366 74.9483 43.9369 74.7925 44.1772L75.5926 44.696C75.6617 44.5894 75.7541 44.5069 75.8535 44.4564L75.4216 43.6062ZM79.6425 40.9104C78.6757 41.7467 77.2706 42.6547 75.4194 43.6074L75.8557 44.4553C77.7435 43.4838 79.221 42.5359 80.2664 41.6316L79.6425 40.9104ZM80.6864 39.8387L79.6133 40.9379L80.2956 41.6041L81.3688 40.5049L80.6864 39.8387ZM81.2181 38.7548C81.2005 38.9878 81.0487 39.372 80.6523 39.8777L81.4028 40.466C81.8474 39.8989 82.1307 39.3342 82.1691 38.8266L81.2181 38.7548ZM81.2276 38.6302L81.2181 38.7548L82.1691 38.8266L82.1785 38.702L81.2276 38.6302ZM81.2576 38.8766L81.337 38.9717L82.069 38.3605L81.9896 38.2654L81.2576 38.8766ZM76.7519 39.2269C77.8114 38.7946 78.8556 38.559 79.6968 38.5218C80.1177 38.5031 80.4718 38.5349 80.7449 38.6064C81.0219 38.6789 81.1787 38.7821 81.2576 38.8766L81.9896 38.2654C81.7389 37.9651 81.3745 37.7854 80.9863 37.6839C80.5942 37.5812 80.1392 37.5476 79.6546 37.5691C78.6848 37.612 77.5327 37.8784 76.3917 38.344L76.7519 39.2269ZM61.5546 51.0404C62.5816 49.0205 64.6849 46.7611 67.4047 44.6477C70.1162 42.5407 73.4033 40.6076 76.7536 39.2262L76.3901 38.3446C72.959 39.7593 69.5975 41.736 66.8196 43.8947C64.0499 46.0469 61.8228 48.4089 60.7045 50.6082L61.5546 51.0404ZM56.4659 57.4665C58.3983 56.0319 60.11 53.88 61.5545 51.0405L60.7046 50.6081C59.3073 53.3548 57.6811 55.3767 55.8974 56.7009L56.4659 57.4665ZM54.5457 58.5975C55.1783 58.3228 55.8227 57.9441 56.4659 57.4665L55.8974 56.7009C55.3044 57.1412 54.7227 57.481 54.1659 57.7228L54.5457 58.5975ZM53.5153 58.9392C53.8409 58.871 54.1736 58.7591 54.5457 58.5975L54.1659 57.7228C53.8366 57.8658 53.5667 57.9541 53.3197 58.0059L53.5153 58.9392ZM52.4755 59.0903L53.4856 58.9445L53.3494 58.0006L52.3393 58.1465L52.4755 59.0903ZM52.1208 59.1416L52.4757 59.0903L52.3391 58.1465L51.9842 58.1979L52.1208 59.1416ZM54.8312 66.7818L52.5114 58.5405L51.5935 58.7989L53.9133 67.0402L54.8312 66.7818ZM87.9205 77.3477L88.0291 77.3151L87.7549 76.4018L87.6463 76.4344L87.9205 77.3477ZM82.4024 76.916L87.7434 77.3662L87.8235 76.4159L82.4825 75.9657L82.4024 76.916ZM82.1697 76.8373L82.2273 76.8664L82.6575 76.0153L82.5998 75.9862L82.1697 76.8373ZM82.1245 76.8126C82.1351 76.8187 82.1458 76.8245 82.1561 76.8301L82.6134 75.9933C82.6065 75.9895 82.6032 75.9877 82.601 75.9865C82.5994 75.9856 82.6004 75.9862 82.6021 75.9872L82.1245 76.8126ZM82.1127 76.8056C82.1153 76.8072 82.1198 76.8099 82.1249 76.8128L82.6018 75.987C82.6029 75.9876 82.6034 75.9879 82.6002 75.986L82.1127 76.8056ZM82.0894 76.7909L82.0956 76.7949L82.6173 75.9967L82.6111 75.9926L82.0894 76.7909ZM82.0483 76.7631C82.0684 76.7768 82.0782 76.7835 82.0879 76.7899L82.6126 75.9936C82.6123 75.9934 82.6115 75.9929 82.6075 75.9902C82.6032 75.9873 82.5969 75.983 82.5855 75.9752L82.0483 76.7631ZM81.9091 76.6457C81.9492 76.6849 81.9938 76.7237 82.0357 76.7542L82.598 75.9841C82.6008 75.986 82.5991 75.9849 82.5934 75.9801C82.5882 75.9756 82.5818 75.9698 82.5751 75.9632L81.9091 76.6457ZM81.3143 74.9105C81.2964 75.5616 81.4974 76.244 81.9091 76.6457L82.5751 75.9632C82.4147 75.8067 82.2542 75.4208 82.2675 74.9367L81.3143 74.9105ZM82.1648 73.1379C81.8234 73.2522 81.6243 73.5691 81.5138 73.841C81.3933 74.1376 81.3248 74.5068 81.3143 74.9111L82.2675 74.9361C82.2759 74.6163 82.33 74.3656 82.3973 74.2C82.4747 74.0095 82.5287 74.0217 82.4675 74.0422L82.1648 73.1379ZM82.2791 73.0997L82.1648 73.1379L82.4675 74.0422L82.5818 74.0039L82.2791 73.0997ZM87.9738 73.5023L82.4672 73.0764L82.3937 74.0272L87.9002 74.4531L87.9738 73.5023ZM88.4006 74.0915L88.4051 74.0683L87.4689 73.8871L87.4644 73.9104L88.4006 74.0915ZM88.1897 73.5981C88.1794 73.5923 88.1682 73.5863 88.1575 73.5806L87.7075 74.4213C87.7146 74.4251 87.7183 74.4271 87.7208 74.4284C87.723 74.4297 87.7223 74.4293 87.7206 74.4283L88.1897 73.5981ZM88.2052 73.607C88.2025 73.6054 88.1966 73.6019 88.1899 73.5982L87.7204 74.4282C87.7188 74.4273 87.7175 74.4265 87.722 74.4292L88.2052 73.607ZM88.2315 73.6236C88.2284 73.6215 88.2254 73.6196 88.2229 73.6179L87.7044 74.4183C87.7072 74.4201 87.7082 74.4207 87.709 74.4213L88.2315 73.6236ZM88.2714 73.6505C88.2514 73.6368 88.2415 73.6301 88.2317 73.6237L87.7087 74.4211C87.7091 74.4213 87.7099 74.4219 87.7139 74.4246C87.7182 74.4275 87.7246 74.4318 87.7358 74.4394L88.2714 73.6505ZM88.4119 73.7688C88.3715 73.7294 88.3265 73.6903 88.2843 73.6595L87.7229 74.4304C87.721 74.429 87.7206 74.4286 87.7217 74.4295C87.7227 74.4303 87.7245 74.4318 87.7271 74.434C87.7323 74.4385 87.7389 74.4444 87.7459 74.4513L88.4119 73.7688ZM89.0088 75.5056C89.0274 74.8566 88.8235 74.1704 88.4119 73.7688L87.7459 74.4513C87.9074 74.6089 88.0693 74.9995 88.0556 75.4782L89.0088 75.5056ZM88.0291 77.3151C88.3825 77.209 88.6165 76.8809 88.7519 76.6014C88.9015 76.2927 88.9986 75.9074 89.0088 75.5039L88.0555 75.4799C88.0486 75.7525 87.9819 76.0036 87.8937 76.1857C87.7914 76.397 87.7138 76.4141 87.7549 76.4018L88.0291 77.3151Z" fill="#132C45"/>
<path fill-rule="evenodd" clip-rule="evenodd" d="M97.3058 49.6105L94.2997 46.6824L97.2239 43.6573L100.23 46.5854L97.3058 49.6105ZM96.0588 46.6542L97.2818 47.8455L98.4715 46.6147L97.2485 45.4233L96.0588 46.6542ZM88.3782 40.9046L91.3842 43.8328L94.3083 40.8075L91.3022 37.8793L88.3782 40.9046ZM91.3607 42.0671L90.1376 40.8757L91.3273 39.6449L92.5504 40.8363L91.3607 42.0671ZM86.6301 50.7524L91.5398 55.5422L92.4084 54.6458L88.3914 50.7269L92.3001 46.6934L87.3905 41.9036L86.5219 42.8L90.5389 46.7189L86.6301 50.7524ZM92.7102 52.5492L93.6024 53.4193L96.3193 50.6162L93.3109 47.6822L90.594 50.4853L91.4862 51.3554L93.3345 49.4484L94.5585 50.6422L92.7102 52.5492ZM82.6138 46.8344L85.6198 49.7626L88.5437 46.7372L85.5377 43.809L82.6138 46.8344ZM85.5949 47.9968L84.3719 46.8054L85.5616 45.5745L86.7846 46.7659L85.5949 47.9968ZM96.2143 42.6684L95.3238 41.8003L92.3935 44.8201L93.2841 45.6883L96.2143 42.6684Z" fill="#132C45"/>
<path d="M191.236 50.8143L186.203 69.9908L179.416 72.6525L157.29 73.6594L148.352 74.8192L146.558 70.9523L147.051 68.7234L142.793 68.3577L141.82 63.4139L140.211 61.7802L138.479 58.6577L139.103 56.8355L134.925 55.05L132.788 51.7896L135.448 49.1689L149.067 38.5701L155.451 27.5864L161.406 27.2191L169.619 31.7362L177.746 38.4848L182.561 44.8738L185.512 47.8689L191.236 50.8143Z" fill="white"/>
<path d="M142.753 19.391C142.243 18.8736 141.41 18.8674 140.893 19.377L125.85 34.1963C125.333 34.706 125.327 35.5385 125.836 36.0558L144.329 54.8279C144.329 54.8279 147.53 54.871 148.346 55.6992C149.162 56.5274 149.023 59.5929 149.023 59.5929C149.023 59.5929 149.352 61.1424 150.023 61.3578C150.694 61.5732 153.644 61.0768 153.644 61.0768L158.104 61.5114L158.834 64.3594L158.276 68.985L160.889 69.6808L174.339 56.9518L175.571 52.705L142.753 19.391Z" fill="#50E3C2"/>
<path fill-rule="evenodd" clip-rule="evenodd" d="M184.712 72.1238C184.897 72.3266 185.146 72.4666 185.428 72.5254L213.412 80.7395L214.901 78.1886L187.536 70.0191L192.1 53.4332L192.862 50.6693L193.085 49.8649L193.158 49.5988L222.27 53.5067L223.036 51.2623L192.224 47.0182C191.607 47.0006 191.044 47.4202 190.873 48.0258L190.686 48.686L190.6 48.9882L188.744 48.7419C188.526 48.6777 188.24 48.5591 187.919 48.3934C187.384 48.1172 186.83 47.7491 186.27 47.291C184.621 45.9411 183.118 43.9858 181.817 41.4299C179.038 35.9829 171.073 29.875 162.664 26.5026C162.287 26.3501 161.799 26.1838 161.278 26.0347C160.405 25.7852 159.547 25.6158 158.731 25.5377C156.393 25.314 154.652 25.8535 153.635 27.2153L153.383 27.5527L145.048 19.0913C143.559 17.5799 141.092 17.5875 139.552 19.1044L125.999 32.4563C124.46 33.9722 124.418 36.4346 125.907 37.947L135.619 47.8049L135 47.957C134.395 48.1057 133.856 48.3409 133.392 48.6636C132.504 49.2875 131.96 50.1958 131.806 51.3095C131.561 53.0774 132.802 55.0348 134.724 56.2313C135.461 56.6934 136.363 57.0565 137.457 57.3338L137.803 57.4216L137.712 57.7688C137.554 58.3705 137.506 59.0128 137.571 59.6642C137.774 61.6304 138.962 63.2001 140.525 63.5582L140.869 63.6369L140.791 63.9824C140.662 64.5589 140.626 65.1537 140.686 65.7442C140.935 68.1645 142.65 69.9065 144.603 69.7057L145.582 69.6476L146.065 69.6192L145.946 70.0896C145.811 70.6262 145.755 71.1719 145.782 71.7157C145.848 73.0566 146.385 74.2808 147.256 75.062C147.91 75.6434 148.719 75.9329 149.541 75.8768L155.752 75.4591C156.371 75.4159 156.958 75.1786 157.476 74.7655L157.735 74.6876C169.161 75.7159 178.399 74.8967 184.292 72.0449L184.533 71.9282L184.712 72.1238ZM159.587 62.6919C159.958 63.332 160.198 64.0555 160.293 64.826C160.464 66.1832 160.154 67.4991 159.439 68.4406L159.171 68.7927C159.171 68.7927 159.891 68.4501 160.26 68.0865L173.943 54.6071C174.416 54.1416 174.409 53.362 173.919 52.8647L171.332 50.2384L155.32 33.9862C154.953 33.6584 154.601 33.2994 154.237 32.8841L143.844 22.3355C143.08 21.5595 141.831 21.5502 141.055 22.3146L128.684 34.502C127.908 35.2664 127.898 36.5152 128.663 37.2912L145.241 54.12C145.278 54.1642 145.305 54.1982 145.41 54.332L145.412 54.334L145.412 54.3348L145.449 54.381L145.643 54.3571L146.545 54.2467C148.526 54.0038 150.264 55.7429 150.518 58.1819C150.587 58.8537 150.531 59.5276 150.355 60.1617L150.223 60.6371L150.714 60.6072L156.147 60.2756C156.314 60.2584 156.572 60.2682 156.919 60.3048C158.005 60.7359 158.847 61.4509 159.443 62.4497L159.587 62.6919ZM140.94 60.6441L141.074 60.6806L147.225 59.8907L147.291 59.8514L147.311 59.8385L147.316 59.8349C147.324 59.829 147.324 59.829 147.347 59.8118C147.362 59.7989 147.371 59.791 147.381 59.7823C147.388 59.7758 147.395 59.7689 147.405 59.7591C147.729 59.4403 147.908 58.7923 147.837 58.1169C147.755 57.3261 147.341 56.6475 146.965 56.557L146.838 56.5265L140.6 57.3546L140.513 57.4406C140.189 57.759 140.009 58.405 140.078 59.0874C140.158 59.8644 140.567 60.543 140.94 60.6441ZM156.898 66.1585L156.829 66.2263L144.169 67.1458L144.088 67.1544L143.962 67.1458C143.584 67.0493 143.175 66.3683 143.105 65.5798C143.056 65.0419 143.16 64.5138 143.377 64.1485L143.427 63.9329L143.416 63.7972L156.359 62.8602L156.44 62.8516L156.565 62.8602C156.94 62.9559 157.348 63.6355 157.422 64.4226C157.486 65.1103 157.299 65.7651 156.969 66.0945C156.945 66.1169 156.935 66.1254 156.923 66.136L156.898 66.1585ZM137.951 50.7305L137.807 50.7336C137.726 50.7353 137.665 50.7318 137.608 50.7191C136.349 50.468 135.081 50.5996 134.474 51.033C134.216 51.2162 134.074 51.4534 134.016 51.8155C133.92 52.4038 134.675 53.4633 135.657 54.0632C136.466 54.5577 137.673 54.8966 139.282 55.0775L139.369 55.0874L139.455 55.0546C139.677 54.9696 139.889 54.9115 140.087 54.8829L141.806 54.643L137.951 50.7305ZM187.107 61.458L185.126 68.6276L185.092 68.7498L184.988 68.8219C180.296 72.0773 171.356 73.1205 159.522 72.1761L159.155 72.1468L159.202 71.6764C159.216 71.5402 159.221 71.4667 159.224 71.3886L159.236 70.9905L159.631 71.053C160.851 71.2465 162.092 70.8538 162.973 69.9855L176.385 56.7727C177.912 55.2684 177.94 52.8138 176.447 51.298L166.399 41.0983C166.337 40.9234 166.297 40.8398 166.252 40.7696L163.061 35.7472C162.931 35.5485 162.753 35.3869 162.548 35.2839C160.395 34.1886 158.733 33.1302 157.573 32.1356L156.334 30.8785C155.848 30.2645 155.595 29.7205 155.561 29.2951L155.549 29.152L155.64 29.0423C156.393 28.1314 158.913 28.2417 161.446 29.2613C169.253 32.4372 176.767 38.1743 179.255 43.0106C180.903 46.2123 182.832 48.6011 184.974 50.176C185.687 50.6999 186.393 51.1094 187.078 51.403C187.482 51.5761 187.828 51.6894 188.158 51.7568L189.319 51.9189L189.727 51.976L187.107 61.458ZM148.646 73.0699L148.77 73.1068L154.905 72.5605L154.971 72.5267C154.987 72.5182 154.991 72.5156 154.996 72.5127C154.998 72.5115 155 72.5102 155.004 72.5083C155.015 72.5008 155.015 72.5008 155.049 72.4775C155.071 72.4609 155.103 72.4341 155.134 72.4027C155.462 72.0805 155.666 71.4658 155.645 70.8136C155.62 69.9817 155.357 69.3905 155.035 69.2842L154.903 69.2408L148.578 69.7601L148.583 69.7868C148.567 69.7958 148.562 69.7987 148.556 69.8017C148.554 69.8031 148.551 69.8045 148.548 69.8067C148.545 69.8087 148.542 69.8101 148.54 69.8116C148.534 69.816 148.527 69.8204 148.502 69.8377C148.48 69.8541 148.448 69.881 148.416 69.9129C148.088 70.2358 147.881 70.8554 147.903 71.5032C147.926 72.2799 148.286 72.9639 148.646 73.0699Z" fill="#132C45"/>
<path d="M185.428 72.5254L185.54 71.9891C185.554 71.9921 185.568 71.9957 185.582 71.9997L185.428 72.5254ZM184.712 72.1238L184.307 72.4931L184.307 72.4931L184.712 72.1238ZM213.412 80.7395L213.886 81.0157C213.759 81.2332 213.5 81.3362 213.258 81.2652L213.412 80.7395ZM214.901 78.1886L215.058 77.6636C215.219 77.7117 215.349 77.831 215.411 77.9873C215.472 78.1436 215.459 78.3196 215.374 78.4647L214.901 78.1886ZM187.536 70.0191L187.379 70.544C187.094 70.4588 186.929 70.161 187.008 69.8737L187.536 70.0191ZM192.1 53.4332L191.572 53.2879L191.572 53.2876L192.1 53.4332ZM192.862 50.6693L192.334 50.5237L192.334 50.5232L192.862 50.6693ZM193.085 49.8649L193.613 50.011L193.613 50.011L193.085 49.8649ZM193.158 49.5988L192.63 49.4527C192.703 49.1888 192.96 49.0194 193.231 49.0558L193.158 49.5988ZM222.27 53.5067L222.788 53.6838C222.703 53.9313 222.456 54.0845 222.197 54.0497L222.27 53.5067ZM223.036 51.2623L223.111 50.7196C223.273 50.7419 223.417 50.8356 223.503 50.9749C223.589 51.1142 223.608 51.2846 223.555 51.4395L223.036 51.2623ZM192.224 47.0182L192.24 46.4706C192.26 46.4711 192.28 46.4728 192.299 46.4755L192.224 47.0182ZM190.873 48.0258L190.345 47.8766L190.345 47.8766L190.873 48.0258ZM190.686 48.686L190.159 48.5368L190.159 48.5368L190.686 48.686ZM190.6 48.9882L191.127 49.1375C191.053 49.3994 190.798 49.5672 190.528 49.5313L190.6 48.9882ZM188.744 48.7419L188.672 49.2851C188.645 49.2814 188.617 49.2755 188.59 49.2676L188.744 48.7419ZM187.919 48.3934L187.667 48.8802L187.667 48.8802L187.919 48.3934ZM186.27 47.291L186.617 46.8671L186.617 46.8671L186.27 47.291ZM181.817 41.4299L182.305 41.1809L182.306 41.1815L181.817 41.4299ZM162.664 26.5026L162.46 27.0111L162.459 27.0105L162.664 26.5026ZM161.278 26.0347L161.428 25.5079L161.428 25.5079L161.278 26.0347ZM158.731 25.5377L158.783 24.9924L158.783 24.9924L158.731 25.5377ZM153.635 27.2153L153.196 26.8875L153.196 26.8875L153.635 27.2153ZM153.383 27.5527L153.822 27.8806C153.727 28.0086 153.58 28.0885 153.421 28.0993C153.261 28.1102 153.105 28.051 152.993 27.9372L153.383 27.5527ZM145.048 19.0913L145.438 18.7069L145.048 19.0913ZM135.619 47.8049L136.009 47.4204C136.147 47.5607 136.2 47.7645 136.146 47.9541C136.092 48.1437 135.941 48.2899 135.75 48.3369L135.619 47.8049ZM135 47.957L134.869 47.425L134.869 47.425L135 47.957ZM133.392 48.6636L133.077 48.2153L133.079 48.2138L133.392 48.6636ZM131.806 51.3095L132.348 51.3846L132.348 51.3846L131.806 51.3095ZM134.724 56.2313L135.014 55.7661L135.015 55.7671L134.724 56.2313ZM137.457 57.3338L137.592 56.8028L137.592 56.8028L137.457 57.3338ZM137.803 57.4216L137.938 56.8905C138.079 56.9264 138.201 57.0174 138.275 57.1433C138.349 57.2691 138.37 57.4194 138.333 57.5608L137.803 57.4216ZM137.712 57.7688L138.242 57.908L138.242 57.908L137.712 57.7688ZM137.571 59.6642L137.026 59.7205L137.026 59.7186L137.571 59.6642ZM140.525 63.5582L140.403 64.0923L140.403 64.0923L140.525 63.5582ZM140.869 63.6369L140.991 63.1028C141.285 63.1702 141.469 63.4624 141.403 63.7567L140.869 63.6369ZM140.791 63.9824L141.326 64.1022L141.326 64.1022L140.791 63.9824ZM140.686 65.7442L140.141 65.8004L140.141 65.7995L140.686 65.7442ZM144.603 69.7057L144.547 69.1607C144.555 69.1599 144.563 69.1593 144.571 69.1588L144.603 69.7057ZM145.582 69.6476L145.549 69.1007L145.55 69.1007L145.582 69.6476ZM146.065 69.6192L146.033 69.0723C146.207 69.062 146.376 69.1355 146.487 69.27C146.599 69.4046 146.639 69.5841 146.596 69.7534L146.065 69.6192ZM145.946 70.0896L145.415 69.9554L145.415 69.9554L145.946 70.0896ZM145.782 71.7157L146.33 71.6884L146.33 71.6892L145.782 71.7157ZM147.256 75.062L146.892 75.4714L146.89 75.4699L147.256 75.062ZM149.541 75.8768L149.503 75.3302L149.504 75.3302L149.541 75.8768ZM155.752 75.4591L155.79 76.0056L155.789 76.0057L155.752 75.4591ZM157.476 74.7655L157.135 74.3371C157.189 74.2937 157.252 74.2611 157.318 74.241L157.476 74.7655ZM157.735 74.6876L157.576 74.1631C157.644 74.1429 157.714 74.1357 157.784 74.142L157.735 74.6876ZM184.292 72.0449L184.531 72.538L184.531 72.538L184.292 72.0449ZM184.533 71.9282L184.295 71.435C184.513 71.3294 184.775 71.3798 184.938 71.5589L184.533 71.9282ZM160.293 64.826L159.75 64.8943L159.749 64.8931L160.293 64.826ZM159.587 62.6919L160.058 62.413L160.06 62.4171L159.587 62.6919ZM159.439 68.4406L159.002 68.1091L159.002 68.1091L159.439 68.4406ZM159.171 68.7927L159.406 69.2874C159.178 69.396 158.905 69.3344 158.746 69.1383C158.586 68.9421 158.582 68.6624 158.735 68.4612L159.171 68.7927ZM173.919 52.8647L173.529 53.2492L173.919 52.8647ZM171.332 50.2384L171.722 49.8539L171.722 49.8539L171.332 50.2384ZM155.32 33.9862L155.685 33.5781C155.694 33.5857 155.702 33.5936 155.71 33.6017L155.32 33.9862ZM154.237 32.8841L154.627 32.4996C154.634 32.5072 154.642 32.515 154.649 32.523L154.237 32.8841ZM143.844 22.3355L143.454 22.72L143.454 22.72L143.844 22.3355ZM128.663 37.2912L129.053 36.9067L128.663 37.2912ZM145.241 54.12L145.632 53.7355C145.643 53.7469 145.653 53.7588 145.664 53.7711L145.241 54.12ZM145.41 54.332L144.98 54.6714L144.98 54.6713L145.41 54.332ZM145.412 54.334L145.842 53.9946L145.843 53.9958L145.412 54.334ZM145.412 54.3348L144.982 54.6741L144.981 54.6729L145.412 54.3348ZM145.449 54.381L145.515 54.9248C145.325 54.9481 145.137 54.8706 145.019 54.7203L145.449 54.381ZM145.643 54.3571L145.71 54.9009L145.71 54.9009L145.643 54.3571ZM146.545 54.2467L146.612 54.7905L146.612 54.7905L146.545 54.2467ZM150.518 58.1819L151.063 58.1252L151.063 58.1261L150.518 58.1819ZM150.355 60.1617L149.827 60.0152L149.827 60.0152L150.355 60.1617ZM150.223 60.6371L150.256 61.184C150.08 61.1947 149.909 61.1194 149.797 60.9818C149.686 60.8442 149.648 60.6612 149.695 60.4906L150.223 60.6371ZM150.714 60.6072L150.748 61.154L150.747 61.154L150.714 60.6072ZM156.147 60.2756L156.203 60.8206C156.195 60.8214 156.188 60.822 156.18 60.8224L156.147 60.2756ZM156.919 60.3048L156.976 59.76C157.026 59.7652 157.074 59.7772 157.121 59.7956L156.919 60.3048ZM159.443 62.4497L159.914 62.1687L159.915 62.1708L159.443 62.4497ZM141.074 60.6806L141.144 61.224C141.073 61.2332 141 61.2282 140.931 61.2094L141.074 60.6806ZM140.94 60.6441L140.796 61.1728L140.796 61.1728L140.94 60.6441ZM147.225 59.8907L147.506 60.3609C147.441 60.3996 147.369 60.4245 147.295 60.4341L147.225 59.8907ZM147.291 59.8514L147.587 60.3121C147.582 60.3154 147.577 60.3186 147.572 60.3217L147.291 59.8514ZM147.311 59.8385L147.619 60.2917L147.607 60.2993L147.311 59.8385ZM147.316 59.8349L147.64 60.2768C147.635 60.2806 147.629 60.2844 147.624 60.288L147.316 59.8349ZM147.347 59.8118L147.698 60.2323C147.691 60.2379 147.684 60.2434 147.677 60.2487L147.347 59.8118ZM147.381 59.7823L147.752 60.1858L147.751 60.1859L147.381 59.7823ZM147.837 58.1169L147.292 58.1749L147.292 58.173L147.837 58.1169ZM146.965 56.557L147.092 56.0243L147.092 56.0243L146.965 56.557ZM146.838 56.5265L146.766 55.9834C146.832 55.9746 146.9 55.9781 146.966 55.9938L146.838 56.5265ZM140.6 57.3546L140.215 56.9643C140.3 56.8808 140.41 56.8272 140.528 56.8115L140.6 57.3546ZM140.078 59.0874L139.533 59.1435L139.532 59.1419L140.078 59.0874ZM156.829 66.2263L157.214 66.6166C157.121 66.708 156.999 66.7633 156.869 66.7728L156.829 66.2263ZM156.898 66.1585L156.514 65.7682C156.52 65.7618 156.527 65.7555 156.534 65.7494L156.898 66.1585ZM144.169 67.1458L144.112 66.601C144.118 66.6003 144.124 66.5998 144.13 66.5994L144.169 67.1458ZM144.088 67.1544L144.145 67.6993C144.114 67.7026 144.082 67.7032 144.05 67.701L144.088 67.1544ZM143.962 67.1458L143.925 67.6924C143.892 67.6901 143.859 67.6849 143.827 67.6767L143.962 67.1458ZM143.105 65.5798L143.651 65.5296L143.651 65.5313L143.105 65.5798ZM143.377 64.1485L143.911 64.2721C143.898 64.3274 143.877 64.3803 143.848 64.429L143.377 64.1485ZM143.427 63.9329L143.973 63.8879C143.978 63.9444 143.974 64.0013 143.961 64.0565L143.427 63.9329ZM143.416 63.7972L142.87 63.8422C142.858 63.6964 142.905 63.5519 143 63.4408C143.095 63.3298 143.231 63.2613 143.376 63.2508L143.416 63.7972ZM156.359 62.8602L156.416 63.4051C156.41 63.4057 156.404 63.4062 156.398 63.4067L156.359 62.8602ZM156.44 62.8516L156.382 62.3068C156.414 62.3035 156.446 62.3029 156.477 62.305L156.44 62.8516ZM156.565 62.8602L156.603 62.3137C156.636 62.3159 156.668 62.3212 156.701 62.3294L156.565 62.8602ZM157.422 64.4226L157.968 64.3713L157.968 64.3723L157.422 64.4226ZM156.969 66.0945L157.356 66.4822C157.35 66.4881 157.344 66.4938 157.338 66.4994L156.969 66.0945ZM156.923 66.136L157.289 66.5444L157.288 66.5452L156.923 66.136ZM137.807 50.7336L137.819 51.2813L137.819 51.2813L137.807 50.7336ZM137.951 50.7305L137.94 50.1828C138.091 50.1796 138.236 50.2387 138.342 50.346L137.951 50.7305ZM137.608 50.7191L137.715 50.1818L137.725 50.1839L137.608 50.7191ZM134.474 51.033L134.792 51.4788L134.791 51.4799L134.474 51.033ZM134.016 51.8155L134.557 51.9025L134.557 51.9035L134.016 51.8155ZM135.657 54.0632L135.943 53.5956L135.943 53.5958L135.657 54.0632ZM139.282 55.0775L139.221 55.622L139.221 55.622L139.282 55.0775ZM139.369 55.0874L139.565 55.599C139.483 55.6304 139.395 55.6416 139.308 55.6318L139.369 55.0874ZM139.455 55.0546L139.259 54.543L139.259 54.543L139.455 55.0546ZM140.087 54.8829L140.008 54.3406L140.011 54.3402L140.087 54.8829ZM141.806 54.643L142.196 54.2585C142.341 54.4061 142.391 54.6229 142.325 54.8191C142.258 55.0152 142.087 55.157 141.882 55.1856L141.806 54.643ZM185.126 68.6276L184.598 68.4818L184.598 68.4818L185.126 68.6276ZM187.107 61.458L186.578 61.3121L186.578 61.3121L187.107 61.458ZM185.092 68.7498L185.62 68.8957C185.586 69.0192 185.51 69.1269 185.404 69.2L185.092 68.7498ZM184.988 68.8219L185.301 69.272L185.301 69.272L184.988 68.8219ZM159.522 72.1761L159.479 72.7223L159.479 72.7223L159.522 72.1761ZM159.155 72.1468L159.112 72.693C158.965 72.6813 158.829 72.6111 158.735 72.4982C158.64 72.3853 158.595 72.2392 158.61 72.0928L159.155 72.1468ZM159.202 71.6764L158.657 71.6224L158.657 71.621L159.202 71.6764ZM159.224 71.3886L159.771 71.4058L159.771 71.4058L159.224 71.3886ZM159.236 70.9905L158.689 70.9733C158.694 70.8161 158.766 70.6686 158.887 70.5684C159.008 70.4681 159.167 70.4248 159.322 70.4494L159.236 70.9905ZM159.631 71.053L159.545 71.5941L159.545 71.5941L159.631 71.053ZM176.447 51.298L176.837 50.9135L176.447 51.298ZM166.399 41.0983L166.008 41.4828C165.952 41.4257 165.909 41.3569 165.882 41.2814L166.399 41.0983ZM166.252 40.7696L165.792 41.0683L165.789 41.0634L166.252 40.7696ZM163.061 35.7472L163.52 35.4469L163.524 35.4535L163.061 35.7472ZM162.548 35.2839L162.302 35.7736L162.3 35.7723L162.548 35.2839ZM157.573 32.1356L157.216 32.5517C157.205 32.5417 157.193 32.5312 157.183 32.5202L157.573 32.1356ZM156.334 30.8785L155.943 31.2631C155.93 31.2489 155.916 31.2341 155.904 31.2185L156.334 30.8785ZM155.561 29.2951L156.107 29.2513L156.107 29.2513L155.561 29.2951ZM155.549 29.152L155.003 29.1959C154.992 29.0538 155.036 28.9128 155.127 28.8029L155.549 29.152ZM155.64 29.0423L156.062 29.3914L156.062 29.3914L155.64 29.0423ZM161.446 29.2613L161.651 28.7531L161.652 28.7538L161.446 29.2613ZM179.255 43.0106L178.768 43.2613L178.768 43.2612L179.255 43.0106ZM184.974 50.176L185.299 49.7346L185.299 49.7346L184.974 50.176ZM187.078 51.403L187.294 50.8994L187.294 50.8994L187.078 51.403ZM188.158 51.7568L188.082 52.2995C188.071 52.2979 188.059 52.2959 188.048 52.2936L188.158 51.7568ZM189.319 51.9189L189.395 51.3763L189.395 51.3763L189.319 51.9189ZM189.727 51.976L189.803 51.4334C189.959 51.4553 190.099 51.5434 190.185 51.6753C190.272 51.8071 190.297 51.9699 190.255 52.122L189.727 51.976ZM148.77 73.1068L148.819 73.6525C148.75 73.6586 148.681 73.6517 148.615 73.6323L148.77 73.1068ZM148.646 73.0699L148.49 73.5954L148.49 73.5954L148.646 73.0699ZM154.905 72.5605L155.154 73.0483C155.092 73.0803 155.024 73.1 154.954 73.1062L154.905 72.5605ZM154.971 72.5267L155.236 73.0063C155.231 73.0091 155.226 73.0119 155.22 73.0146L154.971 72.5267ZM154.996 72.5127L155.274 72.9852L155.273 72.9853L154.996 72.5127ZM155.004 72.5083L155.305 72.966C155.298 72.9701 155.292 72.9741 155.286 72.978L155.004 72.5083ZM155.049 72.4775L155.374 72.9184C155.369 72.9219 155.364 72.9253 155.36 72.9286L155.049 72.4775ZM155.645 70.8136L155.098 70.8312L155.098 70.8305L155.645 70.8136ZM155.035 69.2842L154.863 69.8045L154.863 69.8045L155.035 69.2842ZM154.903 69.2408L154.858 68.6948C154.931 68.6888 155.005 68.6975 155.075 68.7205L154.903 69.2408ZM148.578 69.7601L148.041 69.8666C148.01 69.7134 148.047 69.5546 148.141 69.43C148.235 69.3054 148.378 69.2268 148.533 69.2141L148.578 69.7601ZM148.583 69.7868L149.121 69.6803C149.168 69.9158 149.055 70.1543 148.844 70.2686L148.583 69.7868ZM148.556 69.8017L148.83 70.2763L148.83 70.2763L148.556 69.8017ZM148.548 69.8067L148.248 69.3481C148.255 69.3439 148.261 69.3397 148.268 69.3358L148.548 69.8067ZM148.54 69.8116L148.843 70.2683L148.843 70.2683L148.54 69.8116ZM148.502 69.8377L148.177 69.3964C148.182 69.3928 148.187 69.3893 148.192 69.3859L148.502 69.8377ZM147.903 71.5032L148.45 71.4848L148.45 71.4868L147.903 71.5032ZM185.316 73.0617C184.927 72.9805 184.573 72.7849 184.307 72.4931L185.117 71.7545C185.22 71.8682 185.365 71.9527 185.54 71.9891L185.316 73.0617ZM213.258 81.2652L185.274 73.0511L185.582 71.9997L213.567 80.2139L213.258 81.2652ZM215.374 78.4647L213.886 81.0157L212.939 80.4634L214.428 77.9125L215.374 78.4647ZM187.693 69.4941L215.058 77.6636L214.744 78.7136L187.379 70.544L187.693 69.4941ZM192.628 53.5786L188.064 70.1644L187.008 69.8737L191.572 53.2879L192.628 53.5786ZM193.39 50.8149L192.628 53.5789L191.572 53.2876L192.334 50.5237L193.39 50.8149ZM193.613 50.011L193.39 50.8154L192.334 50.5232L192.557 49.7188L193.613 50.011ZM193.686 49.7449L193.613 50.011L192.557 49.7188L192.63 49.4527L193.686 49.7449ZM222.197 54.0497L193.085 50.1418L193.231 49.0558L222.342 52.9637L222.197 54.0497ZM223.555 51.4395L222.788 53.6838L221.751 53.3295L222.518 51.0852L223.555 51.4395ZM192.299 46.4755L223.111 50.7196L222.962 51.8051L192.15 47.561L192.299 46.4755ZM190.345 47.8766C190.583 47.0361 191.365 46.4456 192.24 46.4706L192.209 47.5659C191.849 47.5556 191.505 47.8042 191.4 48.1751L190.345 47.8766ZM190.159 48.5368L190.345 47.8766L191.4 48.1751L191.213 48.8353L190.159 48.5368ZM190.073 48.839L190.159 48.5368L191.213 48.8353L191.127 49.1375L190.073 48.839ZM188.817 48.1988L190.672 48.4451L190.528 49.5313L188.672 49.2851L188.817 48.1988ZM188.17 47.9065C188.472 48.0624 188.725 48.1651 188.899 48.2163L188.59 49.2676C188.327 49.1904 188.008 49.0558 187.667 48.8802L188.17 47.9065ZM186.617 46.8671C187.152 47.3046 187.674 47.6503 188.17 47.9065L187.667 48.8802C187.093 48.584 186.508 48.1937 185.923 47.715L186.617 46.8671ZM182.306 41.1815C183.581 43.6886 185.041 45.5771 186.617 46.8671L185.923 47.715C184.201 46.3052 182.654 44.2831 181.329 41.6783L182.306 41.1815ZM162.868 25.9941C167.12 27.6994 171.258 30.095 174.688 32.7554C178.11 35.4098 180.865 38.3571 182.305 41.1809L181.329 41.6789C179.991 39.0557 177.374 36.2256 174.016 33.6212C170.666 31.0228 166.617 28.6783 162.46 27.0111L162.868 25.9941ZM161.428 25.5079C161.964 25.6613 162.472 25.8336 162.87 25.9947L162.459 27.0105C162.103 26.8666 161.634 26.7064 161.127 26.5615L161.428 25.5079ZM158.783 24.9924C159.637 25.074 160.528 25.2506 161.428 25.5079L161.127 26.5615C160.282 26.3198 159.457 26.1575 158.679 26.0831L158.783 24.9924ZM153.196 26.8875C154.375 25.3095 156.349 24.7594 158.783 24.9924L158.679 26.0831C156.437 25.8686 154.93 26.3976 154.074 27.5432L153.196 26.8875ZM152.944 27.2249L153.196 26.8875L154.074 27.5432L153.822 27.8806L152.944 27.2249ZM145.438 18.7069L153.774 27.1683L152.993 27.9372L144.657 19.4758L145.438 18.7069ZM139.168 18.7141C140.916 16.9923 143.729 16.9725 145.438 18.7069L144.657 19.4758C143.388 18.1874 141.268 18.1828 139.937 19.4947L139.168 18.7141ZM125.614 32.066L139.168 18.7141L139.937 19.4947L126.383 32.8466L125.614 32.066ZM125.517 38.3315C123.808 36.5967 123.867 33.7875 125.614 32.066L126.383 32.8466C125.053 34.157 125.027 36.2726 126.298 37.5625L125.517 38.3315ZM135.228 48.1894L125.517 38.3315L126.298 37.5625L136.009 47.4204L135.228 48.1894ZM134.869 47.425L135.488 47.2728L135.75 48.3369L135.131 48.489L134.869 47.425ZM133.079 48.2138C133.605 47.8482 134.207 47.5877 134.869 47.425L135.131 48.489C134.583 48.6237 134.107 48.8335 133.704 49.1135L133.079 48.2138ZM131.263 51.2345C131.437 49.9764 132.059 48.9302 133.077 48.2153L133.707 49.1119C132.948 49.6447 132.482 50.4152 132.348 51.3846L131.263 51.2345ZM134.435 56.6964C132.413 55.438 130.977 53.3001 131.263 51.2344L132.348 51.3846C132.145 52.8547 133.191 54.6315 135.014 55.7661L134.435 56.6964ZM137.322 57.8649C136.189 57.5775 135.231 57.1955 134.433 56.6954L135.015 55.7671C135.692 56.1913 136.537 56.5354 137.592 56.8028L137.322 57.8649ZM137.668 57.9526L137.322 57.8649L137.592 56.8028L137.938 56.8905L137.668 57.9526ZM137.182 57.6296L137.273 57.2824L138.333 57.5608L138.242 57.908L137.182 57.6296ZM137.026 59.7186C136.954 59.0056 137.006 58.2976 137.182 57.6296L138.242 57.908C138.101 58.4435 138.057 59.02 138.116 59.6097L137.026 59.7186ZM140.403 64.0923C138.548 63.6674 137.246 61.8489 137.026 59.7205L138.116 59.6078C138.302 61.412 139.375 62.7328 140.648 63.0242L140.403 64.0923ZM140.746 64.1709L140.403 64.0923L140.648 63.0242L140.991 63.1028L140.746 64.1709ZM140.257 63.8625L140.334 63.517L141.403 63.7567L141.326 64.1022L140.257 63.8625ZM140.141 65.7995C140.075 65.1503 140.115 64.4964 140.257 63.8625L141.326 64.1022C141.209 64.6214 141.177 65.157 141.231 65.689L140.141 65.7995ZM144.659 70.2507C142.299 70.4932 140.409 68.4039 140.141 65.8004L141.231 65.6881C141.462 67.9252 143 69.3197 144.547 69.1607L144.659 70.2507ZM145.614 70.1945L144.636 70.2527L144.571 69.1588L145.549 69.1007L145.614 70.1945ZM146.097 70.1661L145.614 70.1945L145.55 69.1007L146.033 69.0723L146.097 70.1661ZM145.415 69.9554L145.534 69.4849L146.596 69.7534L146.477 70.2238L145.415 69.9554ZM145.235 71.7431C145.205 71.1437 145.266 70.5435 145.415 69.9554L146.477 70.2238C146.355 70.7088 146.305 71.2002 146.33 71.6884L145.235 71.7431ZM146.89 75.4699C145.893 74.5758 145.306 73.2052 145.235 71.7423L146.33 71.6892C146.389 72.908 146.877 73.9858 147.622 74.6542L146.89 75.4699ZM149.578 76.4234C148.6 76.4903 147.647 76.1434 146.892 75.4714L147.62 74.6527C148.172 75.1434 148.839 75.3756 149.503 75.3302L149.578 76.4234ZM155.789 76.0057L149.578 76.4234L149.504 75.3302L155.716 74.9124L155.789 76.0057ZM157.818 75.194C157.22 75.6706 156.528 75.9541 155.79 76.0056L155.714 74.9125C156.213 74.8777 156.696 74.6866 157.135 74.3371L157.818 75.194ZM157.893 75.2122L157.635 75.2901L157.318 74.241L157.576 74.1631L157.893 75.2122ZM184.531 72.538C178.5 75.4566 169.138 76.2639 157.686 75.2333L157.784 74.142C169.184 75.1679 178.298 74.3367 184.054 71.5517L184.531 72.538ZM184.772 72.4213L184.531 72.538L184.054 71.5517L184.295 71.435L184.772 72.4213ZM184.307 72.4931L184.129 72.2975L184.938 71.5589L185.117 71.7545L184.307 72.4931ZM159.749 64.8931C159.663 64.1927 159.445 63.5404 159.113 62.9667L160.06 62.4171C160.47 63.1237 160.733 63.9182 160.837 64.7588L159.749 64.8931ZM159.002 68.1091C159.617 67.3002 159.905 66.1342 159.75 64.8943L160.837 64.7576C161.022 66.2323 160.691 67.6981 159.875 68.7722L159.002 68.1091ZM158.735 68.4612L159.002 68.1091L159.875 68.7722L159.607 69.1242L158.735 68.4612ZM160.645 68.4768C160.409 68.7094 160.086 68.9142 159.852 69.05C159.729 69.121 159.62 69.1795 159.54 69.2204C159.501 69.2409 159.468 69.2572 159.445 69.2685C159.434 69.2742 159.425 69.2787 159.418 69.2819C159.415 69.2834 159.412 69.2847 159.41 69.2856C159.409 69.2861 159.408 69.2865 159.408 69.2868C159.407 69.2869 159.407 69.2871 159.407 69.2872C159.407 69.2872 159.407 69.2873 159.407 69.2873C159.407 69.2874 159.407 69.2874 159.407 69.2874C159.406 69.2874 159.406 69.2874 159.171 68.7927C158.936 68.298 158.936 68.298 158.936 68.298C158.936 68.298 158.936 68.2981 158.935 68.2981C158.935 68.2981 158.935 68.2981 158.935 68.2981C158.935 68.2981 158.935 68.2981 158.935 68.2981C158.935 68.2981 158.936 68.298 158.936 68.2978C158.937 68.2974 158.938 68.2967 158.94 68.2957C158.945 68.2937 158.951 68.2904 158.96 68.286C158.978 68.2772 159.005 68.2639 159.038 68.2466C159.105 68.2119 159.199 68.1621 159.302 68.102C159.52 67.9756 159.743 67.8272 159.876 67.6962L160.645 68.4768ZM174.328 54.9974L160.645 68.4768L159.876 67.6962L173.559 54.2168L174.328 54.9974ZM174.309 52.4802C174.997 53.1786 175.03 54.3056 174.328 54.9974L173.559 54.2168C173.801 53.9777 173.821 53.5455 173.529 53.2492L174.309 52.4802ZM171.722 49.8539L174.309 52.4802L173.529 53.2492L170.942 50.6229L171.722 49.8539ZM155.71 33.6017L171.722 49.8539L170.942 50.6229L154.929 34.3707L155.71 33.6017ZM154.649 32.523C155 32.9236 155.337 33.2666 155.685 33.5781L154.954 34.3944C154.57 34.0502 154.201 33.6751 153.825 33.2453L154.649 32.523ZM144.234 21.951L154.627 32.4996L153.846 33.2686L143.454 22.72L144.234 21.951ZM140.67 21.9243C141.662 20.9475 143.257 20.9595 144.234 21.951L143.454 22.72C142.902 22.1596 142 22.1528 141.439 22.7049L140.67 21.9243ZM128.299 34.1117L140.67 21.9243L141.439 22.7049L129.068 34.8922L128.299 34.1117ZM128.272 37.6757C127.296 36.6841 127.308 35.0885 128.299 34.1117L129.068 34.8922C128.508 35.4444 128.501 36.3463 129.053 36.9067L128.272 37.6757ZM144.851 54.5045L128.272 37.6757L129.053 36.9067L145.632 53.7355L144.851 54.5045ZM144.98 54.6713C144.873 54.5353 144.85 54.5072 144.819 54.4689L145.664 53.7711C145.705 53.8213 145.736 53.8611 145.84 53.9927L144.98 54.6713ZM144.982 54.6734L144.98 54.6714L145.84 53.9926L145.842 53.9946L144.982 54.6734ZM144.981 54.6729L144.981 54.6721L145.843 53.9958L145.843 53.9966L144.981 54.6729ZM145.019 54.7203L144.982 54.6741L145.842 53.9955L145.879 54.0417L145.019 54.7203ZM145.71 54.9009L145.515 54.9248L145.382 53.8372L145.577 53.8133L145.71 54.9009ZM146.612 54.7905L145.71 54.9009L145.577 53.8133L146.478 53.7029L146.612 54.7905ZM149.973 58.2385C149.739 55.985 148.181 54.598 146.612 54.7905L146.478 53.7029C148.871 53.4096 150.79 55.5008 151.063 58.1252L149.973 58.2385ZM149.827 60.0152C149.984 59.4483 150.035 58.8431 149.973 58.2376L151.063 58.1261C151.139 58.8643 151.077 59.6069 150.883 60.3082L149.827 60.0152ZM149.695 60.4906L149.827 60.0152L150.883 60.3082L150.751 60.7836L149.695 60.4906ZM150.747 61.154L150.256 61.184L150.19 60.0903L150.681 60.0603L150.747 61.154ZM156.18 60.8224L150.748 61.154L150.681 60.0603L156.114 59.7287L156.18 60.8224ZM156.861 60.8497C156.521 60.8137 156.311 60.8095 156.203 60.8206L156.091 59.7306C156.318 59.7073 156.623 59.7226 156.976 59.76L156.861 60.8497ZM158.973 62.7307C158.438 61.8359 157.691 61.2009 156.717 60.814L157.121 59.7956C158.319 60.271 159.255 61.0659 159.914 62.1687L158.973 62.7307ZM159.115 62.9708L158.972 62.7286L159.915 62.1708L160.058 62.413L159.115 62.9708ZM140.931 61.2094L140.796 61.1728L141.083 60.1154L141.218 60.1519L140.931 61.2094ZM147.295 60.4341L141.144 61.224L141.004 60.1372L147.155 59.3473L147.295 60.4341ZM147.572 60.3217L147.506 60.3609L146.944 59.4204L147.01 59.3811L147.572 60.3217ZM147.607 60.2993L147.587 60.3121L146.994 59.3907L147.014 59.3778L147.607 60.2993ZM147.624 60.288L147.619 60.2916L147.003 59.3855L147.008 59.3819L147.624 60.288ZM147.677 60.2487C147.655 60.2656 147.652 60.2681 147.64 60.2768L146.992 59.393C146.996 59.3902 146.996 59.3903 146.997 59.3894C147 59.3873 147.004 59.3839 147.016 59.3749L147.677 60.2487ZM147.751 60.1859C147.732 60.204 147.714 60.219 147.698 60.2323L146.996 59.3913C147.01 59.3789 147.011 59.378 147.011 59.3786L147.751 60.1859ZM147.79 60.1494C147.778 60.1607 147.766 60.1729 147.752 60.1858L147.01 59.3787C147.01 59.3787 147.011 59.3786 147.011 59.3784C147.011 59.3781 147.012 59.3776 147.012 59.3769C147.014 59.3753 147.017 59.3729 147.021 59.3688L147.79 60.1494ZM148.381 58.059C148.463 58.828 148.276 59.6704 147.79 60.1494L147.021 59.3688C147.182 59.2102 147.354 58.7567 147.292 58.1749L148.381 58.059ZM147.092 56.0243C147.507 56.1237 147.804 56.4841 147.986 56.8015C148.187 57.1502 148.333 57.5918 148.382 58.0608L147.292 58.173C147.258 57.8512 147.157 57.5581 147.036 57.3472C146.897 57.105 146.799 57.0808 146.837 57.0897L147.092 56.0243ZM146.966 55.9938L147.092 56.0243L146.837 57.0897L146.71 57.0593L146.966 55.9938ZM140.528 56.8115L146.766 55.9834L146.91 57.0696L140.672 57.8977L140.528 56.8115ZM140.128 57.0504L140.215 56.9643L140.984 57.7449L140.897 57.8309L140.128 57.0504ZM139.532 59.1419C139.455 58.3687 139.642 57.5288 140.128 57.0504L140.897 57.8309C140.736 57.9892 140.564 58.4414 140.623 59.033L139.532 59.1419ZM140.796 61.1728C140.394 61.0636 140.103 60.7066 139.923 60.3901C139.725 60.0433 139.58 59.606 139.533 59.1435L140.623 59.0314C140.655 59.3458 140.755 59.6363 140.875 59.8483C141.013 60.0906 141.113 60.1235 141.083 60.1154L140.796 61.1728ZM156.445 65.8361L156.514 65.7682L157.283 66.5488L157.214 66.6166L156.445 65.8361ZM144.13 66.5994L156.789 65.6799L156.869 66.7728L144.209 67.6922L144.13 66.5994ZM144.03 66.6096L144.112 66.601L144.227 67.6907L144.145 67.6993L144.03 66.6096ZM144 66.5992L144.125 66.6078L144.05 67.701L143.925 67.6924L144 66.5992ZM143.651 65.5313C143.679 65.8504 143.777 66.1423 143.895 66.3533C144.031 66.5947 144.13 66.6232 144.098 66.6149L143.827 67.6767C143.416 67.5719 143.121 67.2116 142.941 66.8913C142.743 66.5406 142.601 66.0978 142.559 65.6284L143.651 65.5313ZM143.848 64.429C143.702 64.674 143.609 65.0804 143.651 65.5296L142.56 65.6301C142.502 65.0034 142.617 64.3536 142.907 63.868L143.848 64.429ZM143.961 64.0565L143.911 64.2721L142.844 64.0249L142.893 63.8093L143.961 64.0565ZM143.962 63.7522L143.973 63.8879L142.881 63.9779L142.87 63.8422L143.962 63.7522ZM156.398 63.4067L143.456 64.3436L143.376 63.2508L156.319 62.3138L156.398 63.4067ZM156.497 63.3965L156.416 63.4051L156.301 62.3154L156.382 62.3068L156.497 63.3965ZM156.528 63.4068L156.402 63.3982L156.477 62.305L156.603 62.3137L156.528 63.4068ZM156.877 64.4739C156.847 64.1546 156.749 63.8625 156.629 63.6514C156.493 63.4093 156.395 63.3822 156.43 63.3911L156.701 62.3294C157.111 62.4339 157.404 62.7945 157.584 63.113C157.781 63.4623 157.924 63.9036 157.968 64.3713L156.877 64.4739ZM156.582 65.7068C156.755 65.5337 156.931 65.067 156.877 64.4728L157.968 64.3723C158.04 65.1536 157.843 65.9964 157.356 66.4822L156.582 65.7068ZM156.558 65.7277C156.568 65.7191 156.575 65.7123 156.6 65.6896L157.338 66.4994C157.314 66.5215 157.303 66.5317 157.289 66.5444L156.558 65.7277ZM156.534 65.7494L156.559 65.7269L157.288 66.5452L157.262 66.5677L156.534 65.7494ZM137.796 50.1858L137.94 50.1828L137.963 51.2783L137.819 51.2813L137.796 50.1858ZM137.725 50.1839C137.722 50.1834 137.734 50.1871 137.796 50.1858L137.819 51.2813C137.718 51.2834 137.609 51.2802 137.49 51.2543L137.725 50.1839ZM134.156 50.5871C134.569 50.2916 135.146 50.1344 135.741 50.0742C136.349 50.0127 137.036 50.0463 137.715 50.1819L137.5 51.2564C136.921 51.1408 136.344 51.1146 135.852 51.1644C135.346 51.2156 134.986 51.3409 134.792 51.4788L134.156 50.5871ZM133.475 51.7284C133.553 51.2416 133.763 50.8657 134.157 50.5861L134.791 51.4799C134.668 51.5668 134.595 51.6652 134.557 51.9025L133.475 51.7284ZM135.372 54.5309C134.817 54.1919 134.329 53.7267 133.988 53.2564C133.818 53.0207 133.675 52.7719 133.582 52.5248C133.49 52.2845 133.43 52.0051 133.475 51.7274L134.557 51.9035C134.554 51.92 134.552 51.9936 134.606 52.1363C134.658 52.2721 134.747 52.4359 134.876 52.6136C135.134 52.9702 135.515 53.3346 135.943 53.5956L135.372 54.5309ZM139.221 55.622C137.58 55.4375 136.281 55.0864 135.372 54.5307L135.943 53.5958C136.652 54.0291 137.766 54.3557 139.343 54.5331L139.221 55.622ZM139.308 55.6318L139.221 55.622L139.343 54.5331L139.43 54.5429L139.308 55.6318ZM139.651 55.5663L139.565 55.599L139.173 54.5757L139.259 54.543L139.651 55.5663ZM140.166 55.4251C140.015 55.4468 139.843 55.4927 139.651 55.5663L139.259 54.543C139.511 54.4464 139.763 54.3762 140.008 54.3407L140.166 55.4251ZM141.882 55.1856L140.163 55.4255L140.011 54.3402L141.73 54.1004L141.882 55.1856ZM138.342 50.346L142.196 54.2585L141.416 55.0275L137.561 51.115L138.342 50.346ZM184.598 68.4818L186.578 61.3121L187.635 61.6039L185.654 68.7735L184.598 68.4818ZM184.564 68.604L184.598 68.4818L185.654 68.7735L185.62 68.8957L184.564 68.604ZM184.676 68.3717L184.78 68.2997L185.404 69.2L185.301 69.272L184.676 68.3717ZM159.566 71.63C165.459 72.1003 170.612 72.0739 174.864 71.5305C179.124 70.986 182.433 69.9281 184.676 68.3717L185.301 69.272C182.852 70.9711 179.344 72.0625 175.003 72.6174C170.653 73.1733 165.419 73.1963 159.479 72.7223L159.566 71.63ZM159.199 71.6007L159.566 71.63L159.479 72.7223L159.112 72.693L159.199 71.6007ZM159.747 71.7305L159.7 72.2009L158.61 72.0928L158.657 71.6224L159.747 71.7305ZM159.771 71.4058C159.768 71.5032 159.761 71.5916 159.747 71.7318L158.657 71.621C158.67 71.4888 158.674 71.4303 158.676 71.3713L159.771 71.4058ZM159.784 71.0078L159.771 71.4058L158.676 71.3713L158.689 70.9733L159.784 71.0078ZM159.545 71.5941L159.151 71.5317L159.322 70.4494L159.716 70.5119L159.545 71.5941ZM163.358 70.3758C162.351 71.3673 160.936 71.8145 159.545 71.5941L159.716 70.5119C160.767 70.6784 161.832 70.3403 162.589 69.5952L163.358 70.3758ZM176.77 57.163L163.358 70.3758L162.589 69.5952L176.001 56.3824L176.77 57.163ZM176.837 50.9135C178.545 52.6475 178.51 55.449 176.77 57.163L176.001 56.3824C177.315 55.0878 177.334 52.98 176.056 51.6825L176.837 50.9135ZM166.789 40.7138L176.837 50.9135L176.056 51.6825L166.008 41.4828L166.789 40.7138ZM166.711 40.471C166.792 40.5953 166.848 40.7267 166.915 40.9153L165.882 41.2814C165.825 41.1201 165.803 41.0843 165.792 41.0683L166.711 40.471ZM163.524 35.4535L166.714 40.4759L165.789 41.0634L162.599 36.041L163.524 35.4535ZM162.794 34.7943C163.089 34.9428 163.339 35.1717 163.52 35.4469L162.603 36.0475C162.523 35.9253 162.417 35.831 162.302 35.7736L162.794 34.7943ZM157.929 31.7196C159.045 32.6754 160.664 33.711 162.796 34.7956L162.3 35.7723C160.125 34.6662 158.422 33.5851 157.216 32.5517L157.929 31.7196ZM156.724 30.4939L157.963 31.7511L157.183 32.5202L155.943 31.2631L156.724 30.4939ZM156.107 29.2513C156.129 29.519 156.305 29.9596 156.763 30.5384L155.904 31.2185C155.39 30.5694 155.062 29.922 155.015 29.339L156.107 29.2513ZM156.096 29.1082L156.107 29.2513L155.015 29.339L155.003 29.1959L156.096 29.1082ZM156.062 29.3914L155.972 29.5012L155.127 28.8029L155.218 28.6932L156.062 29.3914ZM161.241 29.7696C160.022 29.2786 158.821 29.0135 157.854 28.9753C157.37 28.9562 156.963 28.9946 156.65 29.0782C156.332 29.163 156.152 29.2825 156.062 29.3914L155.218 28.6932C155.504 28.3467 155.922 28.1383 156.368 28.0195C156.818 27.8995 157.34 27.8584 157.897 27.8804C159.012 27.9245 160.337 28.2244 161.651 28.7531L161.241 29.7696ZM178.768 43.2612C177.577 40.9459 175.148 38.3612 172.011 35.9475C168.884 33.5412 165.097 31.3378 161.24 29.7688L161.652 28.7538C165.603 30.3607 169.476 32.6138 172.679 35.0791C175.873 37.537 178.445 40.239 179.742 42.7599L178.768 43.2612ZM184.65 50.6174C182.421 48.9795 180.443 46.5162 178.768 43.2613L179.742 42.7598C181.362 45.9083 183.242 48.2227 185.299 49.7346L184.65 50.6174ZM186.862 51.9065C186.134 51.5943 185.391 51.1626 184.65 50.6174L185.299 49.7346C185.982 50.2373 186.653 50.6246 187.294 50.8994L186.862 51.9065ZM188.048 52.2936C187.673 52.2169 187.291 52.0902 186.862 51.9065L187.294 50.8994C187.673 51.0619 187.984 51.162 188.268 51.2201L188.048 52.2936ZM189.244 52.4615L188.082 52.2995L188.233 51.2142L189.395 51.3763L189.244 52.4615ZM189.651 52.5186L189.243 52.4615L189.395 51.3763L189.803 51.4334L189.651 52.5186ZM186.578 61.3121L189.199 51.83L190.255 52.122L187.635 61.604L186.578 61.3121ZM148.615 73.6323L148.49 73.5954L148.801 72.5445L148.925 72.5813L148.615 73.6323ZM154.954 73.1062L148.819 73.6525L148.722 72.5611L154.856 72.0148L154.954 73.1062ZM155.22 73.0146L155.154 73.0483L154.656 72.0727L154.722 72.0389L155.22 73.0146ZM155.273 72.9853C155.261 72.9927 155.248 72.9994 155.236 73.0063L154.706 72.0472C154.714 72.0427 154.718 72.0406 154.72 72.0393C154.722 72.0384 154.721 72.039 154.719 72.0402L155.273 72.9853ZM155.286 72.978C155.284 72.9792 155.279 72.9822 155.274 72.9852L154.719 72.0403C154.718 72.0407 154.718 72.0409 154.718 72.0406C154.719 72.0402 154.72 72.0397 154.721 72.0386L155.286 72.978ZM155.36 72.9286C155.343 72.9397 155.333 72.9467 155.326 72.9516C155.317 72.958 155.311 72.9619 155.305 72.966L154.702 72.0506C154.708 72.0472 154.707 72.0473 154.709 72.046C154.713 72.0432 154.72 72.0385 154.738 72.0263L155.36 72.9286ZM155.519 72.793C155.473 72.8383 155.422 72.883 155.374 72.9184L154.724 72.0365C154.721 72.0388 154.723 72.0375 154.729 72.0319C154.735 72.0267 154.742 72.02 154.75 72.0124L155.519 72.793ZM156.193 70.796C156.217 71.5441 155.99 72.3292 155.519 72.793L154.75 72.0124C154.933 71.8318 155.116 71.3875 155.098 70.8312L156.193 70.796ZM155.206 68.7638C155.599 68.8933 155.829 69.2564 155.958 69.5682C156.098 69.9083 156.179 70.3321 156.193 70.7967L155.098 70.8305C155.086 70.4632 155.023 70.1754 154.945 69.9854C154.855 69.767 154.793 69.7814 154.863 69.8045L155.206 68.7638ZM155.075 68.7205L155.206 68.7638L154.863 69.8045L154.732 69.7612L155.075 68.7205ZM148.533 69.2141L154.858 68.6948L154.948 69.7869L148.623 70.3061L148.533 69.2141ZM148.046 69.8933L148.041 69.8666L149.116 69.6536L149.121 69.6803L148.046 69.8933ZM148.283 69.3271C148.296 69.3194 148.31 69.3121 148.323 69.305L148.844 70.2686C148.835 70.2734 148.831 70.2756 148.829 70.2771C148.826 70.2783 148.828 70.2776 148.83 70.2763L148.283 69.3271ZM148.268 69.3358C148.271 69.3341 148.276 69.3307 148.283 69.3271L148.83 70.2763C148.831 70.2755 148.832 70.275 148.828 70.2776L148.268 69.3358ZM148.237 69.355C148.241 69.3525 148.245 69.3501 148.248 69.3481L148.848 70.2652C148.845 70.2672 148.844 70.2678 148.843 70.2683L148.237 69.355ZM148.192 69.3859C148.215 69.3701 148.226 69.3624 148.238 69.355L148.843 70.2683C148.843 70.2686 148.842 70.2693 148.837 70.2724C148.832 70.2757 148.825 70.2807 148.812 70.2896L148.192 69.3859ZM148.031 69.5226C148.078 69.4772 148.129 69.4319 148.177 69.3964L148.827 70.2791C148.829 70.2774 148.829 70.277 148.828 70.278C148.827 70.279 148.825 70.2807 148.822 70.2832C148.816 70.2884 148.808 70.2953 148.8 70.3032L148.031 69.5226ZM147.355 71.5215C147.33 70.7759 147.561 69.9864 148.031 69.5226L148.8 70.3032C148.616 70.4852 148.432 70.9349 148.45 71.4848L147.355 71.5215ZM148.49 73.5954C148.084 73.4754 147.813 73.0997 147.656 72.7792C147.483 72.4253 147.369 71.9832 147.355 71.5196L148.45 71.4868C148.46 71.7999 148.538 72.0882 148.64 72.2969C148.759 72.5391 148.848 72.5584 148.801 72.5445L148.49 73.5954Z" fill="#132C45"/>
<path fill-rule="evenodd" clip-rule="evenodd" d="M144.499 30.5444L143.242 31.7831C142.993 32.029 142.591 32.026 142.345 31.7764L142.117 31.545C141.871 31.2954 141.874 30.8938 142.124 30.6479L144.069 28.732C144.296 28.5081 144.649 28.4906 144.896 28.6777C144.921 28.6962 144.944 28.7167 144.966 28.7392L146.872 30.6734C147.118 30.923 147.115 31.3246 146.865 31.5705L146.629 31.8027C146.38 32.0485 145.978 32.0455 145.732 31.7959L144.499 30.5444ZM134.954 39.0877C134.949 39.0829 134.944 39.078 134.939 39.0729L134.711 38.8415C134.465 38.5919 134.468 38.1903 134.717 37.9444L136.662 36.0285C136.912 35.7826 137.313 35.7856 137.559 36.0352L137.787 36.2666C138.033 36.5162 138.03 36.9178 137.781 37.1637L136.523 38.4021L137.756 39.6532C138.002 39.9028 137.999 40.3044 137.749 40.5503L137.514 40.7824C137.264 41.0283 136.862 41.0253 136.617 40.7757L134.954 39.0877ZM152.235 36.1178C151.989 35.8683 151.588 35.8653 151.338 36.1111L151.102 36.3433C150.853 36.5892 150.85 36.9908 151.096 37.2404L152.328 38.4916L151.071 39.7303C150.821 39.9761 150.818 40.3778 151.064 40.6273L151.292 40.8588C151.538 41.1083 151.94 41.1113 152.189 40.8655L154.134 38.9495C154.373 38.714 154.386 38.3355 154.171 38.0847C154.161 38.0736 154.151 38.0627 154.141 38.0521L152.235 36.1178ZM141.987 45.3233C141.737 45.5692 141.734 45.9708 141.98 46.2204L143.647 47.9127L143.658 47.9235L143.886 48.1549C144.131 48.4044 144.533 48.4075 144.783 48.1616L146.728 46.2456C146.977 45.9998 146.98 45.5981 146.734 45.3486L146.506 45.1171C146.26 44.8676 145.859 44.8646 145.609 45.1104L144.352 46.3489L143.12 45.0979C142.874 44.8483 142.472 44.8453 142.223 45.0912L141.987 45.3233Z" fill="#132C45"/>
<path fill-rule="evenodd" clip-rule="evenodd" d="M108.821 32.2528C109.295 32.2278 109.695 32.5955 109.715 33.0707L109.755 34.0321C111.082 32.4435 112.528 31.339 114.054 30.6814C115.748 29.9496 117.449 29.7974 119.055 30.0686C119.892 30.21 120.581 30.4408 121.09 30.6825C121.139 30.7055 121.172 30.7222 121.198 30.7359C121.618 30.9587 121.774 31.4787 121.554 31.8976C121.461 32.074 121.312 32.2108 121.132 32.2883C120.897 32.3899 120.626 32.3818 120.396 32.2592L120.431 32.2757C120.06 32.0862 119.447 31.8697 118.664 31.7494C117.387 31.5532 116.06 31.6841 114.721 32.2617C113.404 32.8307 112.144 33.8046 110.958 35.2596L112.095 35.2087C112.57 35.1875 112.967 35.5589 112.983 36.0345C112.995 36.3932 112.785 36.7187 112.462 36.8583C112.368 36.8989 112.267 36.9223 112.163 36.9273L109.022 37.0675C108.555 37.0882 108.163 36.7287 108.135 36.2493L108.007 33.1524C107.987 32.6805 108.35 32.2776 108.821 32.2528ZM125.127 46.7951C124.653 46.8201 124.253 46.4524 124.232 45.9772L124.193 45.0158C122.866 46.6044 121.42 47.7089 119.894 48.3665C118.2 49.0983 116.499 49.2505 114.893 48.9793C114.056 48.8379 113.367 48.6071 112.858 48.3654C112.809 48.3424 112.776 48.3257 112.75 48.312C112.33 48.0892 112.174 47.5692 112.394 47.1503C112.487 46.9739 112.636 46.8371 112.816 46.7596C113.051 46.658 113.321 46.6661 113.552 46.7887L113.517 46.7722C113.887 46.9617 114.501 47.1781 115.284 47.2985C116.561 47.4947 117.888 47.3638 119.227 46.7862C120.544 46.2172 121.803 45.2433 122.99 43.7883L121.853 43.8392C121.378 43.8604 120.981 43.489 120.965 43.0134C120.953 42.6546 121.163 42.3292 121.486 42.1896C121.58 42.149 121.681 42.1256 121.785 42.1206L124.926 41.9804C125.393 41.9597 125.785 42.3192 125.813 42.7986L125.941 45.8955C125.961 46.3674 125.598 46.7703 125.127 46.7951Z" fill="#50E3C2"/>
</g>
<defs>
<clipPath id="clip0">
<rect width="240" height="110" fill="white"/>
</clipPath>
</defs>
</svg>
