<svg width="240" height="110" viewBox="0 0 240 110" fill="none" xmlns="http://www.w3.org/2000/svg">
<rect width="240" height="110" fill="white"/>
<path fill-rule="evenodd" clip-rule="evenodd" d="M96.6175 43.2258H142.914V73.5065L140.992 74.2275H100.497L96.8065 73.9871L96.6175 62.3315V59.8482V43.2258Z" fill="#50E3C2"/>
<path fill-rule="evenodd" clip-rule="evenodd" d="M141.28 75.4288H98.2008L98.2003 75.4291C96.643 75.4291 95.3771 74.154 95.3744 72.5856V50.1751L94.0649 46.5529V46.5501L92.603 42.5029C92.1129 41.1402 92.8126 39.6293 94.1629 39.1358L135.056 24.1505C136.377 23.6651 137.923 24.3973 138.4 25.7217L148.042 52.426C148.282 53.0868 148.249 53.7997 147.955 54.4359C147.661 55.0721 147.138 55.5519 146.485 55.7932L144.108 56.6652L144.106 72.5826C144.106 74.1511 142.84 75.4288 141.28 75.4288ZM141.283 73.0899C141.561 73.0899 141.787 72.8623 141.787 72.5826L141.786 44.6058C141.786 44.3261 141.561 44.0985 141.283 44.0985H98.2038C97.9261 44.0985 97.7001 44.3261 97.7001 44.6058V49.9664L97.6974 72.5826C97.6974 72.8623 97.9234 73.0899 98.2011 73.0899H141.283ZM138.996 34.214L118.393 41.76H110.537L138.08 31.6723L138.996 34.214ZM145.69 53.5969C145.783 53.564 145.829 53.4982 145.851 53.4488L145.851 53.4489C145.876 53.3995 145.895 53.32 145.859 53.2323L144.106 48.3762V54.1782L145.69 53.5969ZM141.501 41.7626H125.191L139.791 36.4157L141.727 41.7736C141.65 41.7653 141.574 41.7626 141.501 41.7626L141.501 41.7626ZM135.95 26.3362L94.9585 41.3348L94.9582 41.3351C94.8111 41.3872 94.7349 41.5545 94.7894 41.7025L95.4863 43.6356C95.8075 42.5525 96.8066 41.7628 97.9827 41.7628H103.738L137.281 29.473L136.216 26.5254C136.17 26.3938 136.05 26.3362 135.95 26.3362Z" fill="#132C45"/>
<path fill-rule="evenodd" clip-rule="evenodd" d="M138.108 46.1096H127.534V48.5128H138.108V46.1096ZM109.089 57.1645C109.72 57.1645 110.23 56.6307 110.23 55.971V47.3033C110.23 46.6436 109.72 46.1097 109.089 46.1097H100.798C100.167 46.1097 99.6563 46.6436 99.6563 47.3033V55.971C99.6563 56.6306 100.167 57.1645 100.798 57.1645H109.089ZM101.939 48.4966H107.948V54.7801H101.939V48.4966ZM101.098 61.4905H116.479V63.8937H101.098V61.4905ZM100.618 67.7386H119.843V70.1418H100.618V67.7386ZM131.619 61.8765C132.41 61.3171 133.348 61.0098 134.32 61.0098C136.938 61.0098 139.069 63.1638 139.069 65.8163C139.069 68.4659 136.938 70.6227 134.32 70.6227C133.348 70.6227 132.407 70.3154 131.619 69.7561C130.828 70.3154 129.89 70.6227 128.919 70.6227C126.3 70.6227 124.169 68.4659 124.169 65.8163C124.169 63.1667 126.3 61.0098 128.919 61.0098C129.89 61.0098 130.831 61.3172 131.619 61.8765Z" fill="white"/>
<path fill-rule="evenodd" clip-rule="evenodd" d="M120.288 60.5029L145.344 85.5583L148.201 82.7007L123.146 57.6453L148.201 32.5899L145.344 29.7323L120.288 54.7878L94.8576 29.3569L92 32.2145L117.431 57.6453L92 83.0762L94.8576 85.9337L120.288 60.5029Z" fill="#132C45"/>
</svg>
