<svg width="240" height="110" viewBox="0 0 240 110" fill="none" xmlns="http://www.w3.org/2000/svg">
<rect width="240" height="110" fill="white"/>
<rect x="98.2546" y="20.2546" width="49.4829" height="69.7193" rx="4.71543" fill="white" stroke="#132C45" stroke-width="3.49086"/>
<mask id="path-3-inside-1" fill="white">
<rect x="124.298" y="34.748" width="15.0642" height="2.88523" rx="1.38703"/>
</mask>
<rect x="124.298" y="34.748" width="15.0642" height="2.88523" rx="1.38703" fill="#50E3C2" stroke="#50E3C2" stroke-width="2.88523" stroke-linecap="round" stroke-linejoin="round" mask="url(#path-3-inside-1)"/>
<rect x="124.298" y="39.229" width="7.56459" height="2.88523" rx="1.38703" fill="#50E3C2"/>
<path d="M112.469 42.1143V40.1823H114.373V35.5903H112.693V34.1063C113.197 34.0036 113.626 33.8869 113.981 33.7563C114.336 33.6256 114.681 33.4529 115.017 33.2383H116.781V40.1823H118.377V42.1143H112.469Z" fill="#50E3C2"/>
<mask id="path-6-inside-2" fill="white">
<rect x="124.298" y="50.748" width="15.0642" height="2.88523" rx="1.38703"/>
</mask>
<rect x="124.298" y="50.748" width="15.0642" height="2.88523" rx="1.38703" fill="#132C45" stroke="#132C45" stroke-width="2.88523" stroke-linecap="round" stroke-linejoin="round" mask="url(#path-6-inside-2)"/>
<rect x="124.298" y="55.229" width="7.56459" height="2.88523" rx="1.38703" fill="#132C45"/>
<path d="M112.049 58.1143V56.7423C112.572 56.2569 113.057 55.7996 113.505 55.3703C113.962 54.9409 114.359 54.5396 114.695 54.1663C115.031 53.7836 115.292 53.4243 115.479 53.0883C115.675 52.7429 115.773 52.4209 115.773 52.1223C115.773 51.7209 115.67 51.4269 115.465 51.2403C115.269 51.0443 115.008 50.9463 114.681 50.9463C114.382 50.9463 114.116 51.0349 113.883 51.2123C113.659 51.3803 113.44 51.5716 113.225 51.7863L111.937 50.4983C112.17 50.2556 112.399 50.0456 112.623 49.8683C112.847 49.6816 113.08 49.5323 113.323 49.4203C113.575 49.2989 113.836 49.2103 114.107 49.1543C114.387 49.0983 114.69 49.0703 115.017 49.0703C115.465 49.0703 115.876 49.1403 116.249 49.2803C116.622 49.4203 116.944 49.6163 117.215 49.8683C117.486 50.1203 117.696 50.4283 117.845 50.7923C117.994 51.1469 118.069 51.5436 118.069 51.9823C118.069 52.3369 117.99 52.7009 117.831 53.0743C117.682 53.4383 117.486 53.8023 117.243 54.1663C117 54.5303 116.725 54.8849 116.417 55.2303C116.118 55.5756 115.82 55.9023 115.521 56.2103C115.745 56.1823 115.997 56.1589 116.277 56.1403C116.566 56.1123 116.809 56.0983 117.005 56.0983H118.489V58.1143H112.049Z" fill="#132C45"/>
<mask id="path-9-inside-3" fill="white">
<rect x="124.298" y="66.918" width="15.0642" height="2.88523" rx="1.38703"/>
</mask>
<rect x="124.298" y="66.918" width="15.0642" height="2.88523" rx="1.38703" fill="#132C45" stroke="#132C45" stroke-width="2.88523" stroke-linecap="round" stroke-linejoin="round" mask="url(#path-9-inside-3)"/>
<rect x="124.298" y="71.3989" width="7.56459" height="2.88523" rx="1.38703" fill="#132C45"/>
<path d="M114.989 74.2823C114.261 74.2823 113.636 74.1703 113.113 73.9463C112.59 73.7223 112.161 73.4143 111.825 73.0223L112.917 71.5103C113.188 71.7623 113.477 71.9676 113.785 72.1263C114.102 72.2756 114.42 72.3503 114.737 72.3503C115.129 72.3503 115.442 72.2803 115.675 72.1403C115.908 72.0003 116.025 71.7903 116.025 71.5103C116.025 71.3423 115.997 71.1929 115.941 71.0623C115.885 70.9316 115.778 70.8196 115.619 70.7263C115.46 70.6329 115.236 70.5629 114.947 70.5163C114.658 70.4696 114.28 70.4463 113.813 70.4463V68.7663C114.186 68.7663 114.494 68.7429 114.737 68.6963C114.989 68.6496 115.19 68.5843 115.339 68.5003C115.488 68.4069 115.591 68.2996 115.647 68.1783C115.712 68.0569 115.745 67.9169 115.745 67.7583C115.745 67.2169 115.437 66.9463 114.821 66.9463C114.522 66.9463 114.256 67.0069 114.023 67.1283C113.79 67.2496 113.533 67.4316 113.253 67.6743L112.049 66.2183C112.488 65.8543 112.94 65.5743 113.407 65.3783C113.874 65.1729 114.382 65.0703 114.933 65.0703C115.913 65.0703 116.692 65.2896 117.271 65.7283C117.859 66.1576 118.153 66.7736 118.153 67.5763C118.153 68.4349 117.677 69.0743 116.725 69.4943V69.5503C117.229 69.7089 117.64 69.9656 117.957 70.3203C118.274 70.6656 118.433 71.1183 118.433 71.6783C118.433 72.0983 118.34 72.4716 118.153 72.7983C117.966 73.1156 117.714 73.3863 117.397 73.6103C117.089 73.8343 116.725 74.0023 116.305 74.1143C115.885 74.2263 115.446 74.2823 114.989 74.2823Z" fill="#132C45"/>
<path d="M82.2904 72.3009L67.9661 86.9832L68.6824 72.3009H58.6554L55.0743 69.7942V38.639L59.3716 35.416H101.986L105.567 39.3552V69.7942L101.986 72.3009H82.2904Z" fill="#50E3C2"/>
<path d="M64.725 58.3347L67.0024 55.6751L69.2499 58.3347L70.7781 57.2036L69.0401 54.2077L72.1266 52.8321L71.5572 50.9979L68.261 51.7621L67.9314 48.3077H66.0435L65.7139 51.7621L62.4476 50.9979L61.8783 52.8321L64.9348 54.2077L63.1968 57.2036L64.725 58.3347Z" fill="white"/>
<path d="M77.8643 58.3347L80.1417 55.6751L82.3891 58.3347L83.9174 57.2036L82.1794 54.2077L85.2658 52.8321L84.6965 50.9979L81.4002 51.7621L81.0706 48.3077H79.1828L78.8532 51.7621L75.5869 50.9979L75.0176 52.8321L78.0741 54.2077L76.336 57.2036L77.8643 58.3347Z" fill="white"/>
<path d="M91.0035 58.3347L93.2809 55.6751L95.5284 58.3347L97.0566 57.2036L95.3186 54.2077L98.4051 52.8321L97.8357 50.9979L94.5395 51.7621L94.2099 48.3077H92.322L91.9924 51.7621L88.7262 50.9979L88.1568 52.8321L91.2133 54.2077L89.4753 57.2036L91.0035 58.3347Z" fill="white"/>
<path d="M59.7297 34C56.5795 34 54 36.5795 54 39.7297V68.3781C54 71.5283 56.5795 74.1078 59.7297 74.1078H67.4848L66.1867 86.8428C66.1335 87.4191 66.4693 88.0122 66.9924 88.2612C67.5128 88.513 68.1871 88.4067 68.6039 88.0067L82.5478 74.1079H101.27C104.42 74.1079 107 71.5283 107 68.3782V39.7297C107 36.5795 104.42 34 101.27 34L59.7297 34ZM59.7297 36.8648H101.27C102.881 36.8648 104.135 38.1182 104.135 39.7297V68.3781C104.135 69.9896 102.881 71.243 101.27 71.243H81.9659C81.5938 71.243 81.2245 71.3885 80.9588 71.6459L69.4321 83.1274L70.5064 72.8097C70.5819 72.0151 69.8713 71.2402 69.074 71.243H59.7295C58.1181 71.243 56.8647 69.9896 56.8647 68.3781V39.7297C56.8647 38.1182 58.1181 36.8648 59.7295 36.8648H59.7297Z" fill="#132C45"/>
</svg>
