<svg width="240" height="110" viewBox="0 0 240 110" fill="none" xmlns="http://www.w3.org/2000/svg">
<g clip-path="url(#clip0)">
<rect width="240" height="110" fill="white"/>
<path d="M52.8433 58.4592L57.3026 75.1274L63.2197 77.416L82.48 78.2014L90.2635 79.174L91.8082 75.8013L91.3705 73.8636L95.0747 73.5279L95.9007 69.2214L97.2946 67.793L98.7891 65.0684L98.2383 63.4852L101.867 61.9141L103.713 59.0678L101.388 56.798L89.4925 47.6301L83.8915 38.0974L78.7072 37.8022L71.5778 41.7671L64.533 47.6736L60.3684 53.2537L57.8129 55.8724L52.8433 58.4592Z" fill="white"/>
<path d="M94.9086 30.9135C95.35 30.4612 96.0745 30.4523 96.5268 30.8937L109.679 43.7288C110.132 44.1702 110.14 44.8947 109.699 45.3471L93.6821 61.76C93.6821 61.76 90.8963 61.8107 90.1896 62.5348C89.483 63.2589 89.6165 65.9261 89.6165 65.9261C89.6165 65.9261 89.3366 67.276 88.7538 67.4662C88.171 67.6564 85.6013 67.2365 85.6013 67.2365L81.7213 67.6331L81.0983 70.1146L81.6029 74.1379L79.3311 74.7542L67.5735 63.7316L66.4841 60.0408L94.9086 30.9135Z" fill="#50E3C2"/>
<path fill-rule="evenodd" clip-rule="evenodd" d="M58.6089 76.9775C58.4486 77.1548 58.2323 77.2777 57.9873 77.33L25.94 88.7134L24.634 86.4995L56.1424 75.1574L52.1023 60.7419L51.4277 58.3396L51.2307 57.6404L51.1655 57.4092L15.7265 59.9302L15.05 57.9802L51.9677 55.1595C52.505 55.1417 52.9965 55.5045 53.1483 56.0309L53.3137 56.6047L53.3894 56.8673L55.0033 56.6454C55.1932 56.5886 55.4417 56.4842 55.7205 56.3386C56.1852 56.0961 56.6655 55.7735 57.1507 55.3725C58.5805 54.1909 59.8806 52.4831 61.0018 50.2534C63.398 45.5015 70.3048 40.1533 77.609 37.1838C77.9364 37.0495 78.3606 36.9028 78.814 36.7709C79.5725 36.5501 80.3182 36.3992 81.0279 36.3279C83.0619 36.1236 84.5789 36.586 85.4697 37.7669L85.6904 38.0596L92.9099 30.6615C94.1995 29.3401 96.3462 29.3366 97.6925 30.6503L109.543 42.2145C110.888 43.5275 110.935 45.6703 109.645 46.9926L101.234 55.6116L101.773 55.7415C102.3 55.8684 102.77 56.0708 103.175 56.3498C103.951 56.8891 104.428 57.6773 104.567 58.646C104.787 60.1835 103.715 61.8921 102.047 62.9412C101.407 63.3465 100.624 63.6661 99.6731 63.912L99.3724 63.9898L99.4532 64.2916C99.5932 64.8146 99.6375 65.3734 99.5836 65.9405C99.4147 67.6526 98.3876 69.0235 97.0283 69.3416L96.7299 69.4114L96.7987 69.7118C96.9135 70.213 96.9472 70.7305 96.8975 71.2447C96.6903 73.3521 95.2054 74.8751 93.5045 74.7084L92.6528 74.6618L92.2321 74.6391L92.3375 75.048C92.4577 75.5144 92.508 75.9891 92.4867 76.4625C92.4355 77.6297 91.9729 78.6973 91.218 79.3807C90.6516 79.8894 89.948 80.1447 89.2329 80.0992L83.8255 79.7612C83.2873 79.7262 82.775 79.5221 82.3222 79.1647L82.0971 79.098C72.1574 80.0398 64.1141 79.3648 58.9737 76.9071L58.7634 76.8066L58.6089 76.9775ZM80.4361 68.666C80.1157 69.2247 79.9096 69.8553 79.8299 70.5262C79.687 71.7081 79.9618 72.8521 80.5884 73.6685L80.8228 73.9738C80.8228 73.9738 80.1947 73.6786 79.872 73.3637L67.9086 61.689C67.4956 61.2859 67.498 60.6074 67.9223 60.1725L70.1632 57.8763L84.0316 43.6666C84.3489 43.3798 84.6546 43.0659 84.9696 42.703L93.9707 33.48C94.6328 32.8016 95.7195 32.7883 96.398 33.4504L107.215 44.006C107.893 44.6681 107.906 45.7548 107.244 46.4333L92.8853 61.1472C92.8538 61.1857 92.8306 61.2153 92.74 61.3314L92.7389 61.3328L92.7383 61.3335L92.7058 61.3752L92.5362 61.3552L91.7513 61.2628C90.0262 61.0595 88.5204 62.5802 88.3097 64.7038C88.2526 65.2888 88.3041 65.8751 88.4598 66.4262L88.5766 66.8394L88.149 66.8153L83.4194 66.5491C83.2738 66.5348 83.05 66.5444 82.748 66.5777C81.8044 66.9573 81.075 67.583 80.5598 68.4547L80.4361 68.666ZM96.6559 66.8074L96.5389 66.8398L91.1828 66.1776L91.1254 66.1436L91.112 66.1352L91.1033 66.1294L91.0764 66.1094C91.0529 66.09 91.0458 66.0837 91.0254 66.0638C90.7424 65.7877 90.5835 65.2245 90.6432 64.6364C90.7108 63.9478 91.0681 63.3556 91.3957 63.2753L91.506 63.2482L96.9379 63.9433L97.0143 64.0178C97.2969 64.2935 97.4562 64.855 97.3996 65.4492C97.3332 66.1256 96.9796 66.7179 96.6559 66.8074ZM82.7903 71.6719L82.8505 71.7307L93.8719 72.4788L93.9429 72.486L94.0519 72.478C94.3809 72.3924 94.7339 71.7981 94.7916 71.1116C94.8325 70.6433 94.7399 70.1841 94.5489 69.8671L94.5045 69.6797L94.5137 69.5615L83.2463 68.7993L83.1754 68.7921L83.0665 68.8001C82.7403 68.8849 82.3882 69.4781 82.327 70.1633C82.2747 70.7621 82.4396 71.3311 82.7282 71.6165C82.7617 71.6467 82.7628 71.6477 82.7903 71.6719ZM99.2155 58.1678L99.3411 58.1698C99.4116 58.171 99.4645 58.1677 99.5148 58.1564C100.609 57.9327 101.713 58.042 102.243 58.4167C102.469 58.5751 102.593 58.7809 102.645 59.0958C102.731 59.6075 102.079 60.5326 101.226 61.0587C100.524 61.4924 99.4752 61.7923 98.0756 61.9563L97.9996 61.9653L97.925 61.9371C97.7313 61.864 97.5464 61.8144 97.3741 61.7902L95.8772 61.5886L99.2155 58.1678ZM56.4811 67.7058L58.2342 73.9372L58.2641 74.0434L58.3548 74.1057C62.4519 76.9196 70.2365 77.7906 80.5312 76.9202L80.8505 76.8932L80.808 76.484C80.7954 76.3655 80.7901 76.3016 80.7877 76.2336L80.7751 75.8872L80.4322 75.9432C79.3709 76.1166 78.2895 75.78 77.5189 75.0279L65.7922 63.5841C64.4571 62.2813 64.4232 60.1452 65.7165 58.8199L74.4192 49.902C74.4724 49.7496 74.5064 49.6766 74.5457 49.6154L77.3014 45.2314C77.4139 45.0579 77.5684 44.9165 77.7464 44.8261C79.6159 43.864 81.0572 42.9361 82.0633 42.0658L83.1365 40.9666C83.5569 40.4303 83.7745 39.9558 83.8025 39.5855L83.8119 39.4609L83.7325 39.3658C83.0733 38.5761 80.8811 38.6824 78.6807 39.5802C71.8993 42.3762 65.3837 47.3999 63.2384 51.6191C61.8175 54.4122 60.1486 56.4991 58.2905 57.8785C57.6724 58.3374 57.0593 58.6967 56.4647 58.9549C56.114 59.1072 55.8127 59.2073 55.5264 59.2673L54.5162 59.4131L54.1613 59.4645L56.4811 67.7058ZM90.0008 77.6532L89.8923 77.6858L84.5513 77.2356L84.4936 77.2065C84.4806 77.1994 84.4764 77.1971 84.4722 77.1946C84.4702 77.1935 84.4682 77.1923 84.4653 77.1906L84.4591 77.1865C84.4535 77.1828 84.4479 77.1791 84.4258 77.1639C84.4061 77.1496 84.3788 77.1264 84.3509 77.0992C84.0649 76.8201 83.8842 76.286 83.8998 75.7184C83.9187 74.9943 84.1448 74.4786 84.4251 74.3848L84.5393 74.3466L90.0459 74.7725L90.0414 74.7957C90.0548 74.8029 90.0598 74.8056 90.064 74.808C90.0666 74.8094 90.0689 74.8107 90.0725 74.8129C90.0751 74.8146 90.0771 74.8159 90.0791 74.8172C90.0848 74.8209 90.0905 74.8248 90.1125 74.8397C90.132 74.8539 90.1595 74.8772 90.1878 74.9048C90.4743 75.1844 90.6572 75.7228 90.641 76.2867C90.624 76.9628 90.3132 77.5595 90.0008 77.6532Z" fill="#132C45"/>
<path d="M57.9873 77.33L57.8877 76.8638C57.8673 76.8681 57.8473 76.8738 57.8277 76.8807L57.9873 77.33ZM58.6089 76.9775L58.2552 76.6578L58.2552 76.6578L58.6089 76.9775ZM25.94 88.7134L25.5293 88.9557C25.6453 89.1523 25.8844 89.2391 26.0996 89.1627L25.94 88.7134ZM24.634 86.4995L24.4725 86.0509C24.3389 86.099 24.2336 86.2041 24.1855 86.3377C24.1373 86.4713 24.1512 86.6194 24.2233 86.7418L24.634 86.4995ZM56.1424 75.1574L56.3039 75.6061C56.5391 75.5214 56.6689 75.2695 56.6015 75.0288L56.1424 75.1574ZM52.1023 60.7419L52.5614 60.6132L52.5614 60.613L52.1023 60.7419ZM51.4277 58.3396L51.8868 58.2107L51.8867 58.2103L51.4277 58.3396ZM51.2307 57.6404L51.6897 57.5111L51.6897 57.5111L51.2307 57.6404ZM51.1655 57.4092L51.6245 57.2798C51.5631 57.0622 51.3573 56.9175 51.1317 56.9336L51.1655 57.4092ZM15.7265 59.9302L15.276 60.0865C15.3467 60.2902 15.5453 60.4211 15.7603 60.4058L15.7265 59.9302ZM15.05 57.9802L15.0136 57.5047C14.8662 57.516 14.7323 57.5951 14.6512 57.7187C14.5701 57.8424 14.551 57.9967 14.5995 58.1365L15.05 57.9802ZM51.9677 55.1595L51.9519 54.683C51.9451 54.6832 51.9382 54.6836 51.9314 54.6841L51.9677 55.1595ZM53.1483 56.0309L53.6065 55.8989L53.6064 55.8988L53.1483 56.0309ZM53.3137 56.6047L52.8555 56.7367L52.8555 56.7367L53.3137 56.6047ZM53.3894 56.8673L52.9312 56.9994C52.9968 57.227 53.2196 57.372 53.4543 57.3397L53.3894 56.8673ZM55.0033 56.6454L55.0683 57.1177C55.0925 57.1144 55.1164 57.1092 55.1399 57.1022L55.0033 56.6454ZM55.7205 56.3386L55.4999 55.9159L55.4999 55.9159L55.7205 56.3386ZM57.1507 55.3725L57.4545 55.74L57.4545 55.74L57.1507 55.3725ZM61.0018 50.2534L60.576 50.0387L60.5758 50.0392L61.0018 50.2534ZM77.609 37.1838L77.7886 37.6255L77.7899 37.6249L77.609 37.1838ZM78.814 36.7709L78.9472 37.2287L78.9472 37.2287L78.814 36.7709ZM81.0279 36.3279L81.0756 36.8023L81.0756 36.8023L81.0279 36.3279ZM85.4697 37.7669L85.8503 37.4798L85.8503 37.4798L85.4697 37.7669ZM85.6904 38.0596L85.3097 38.3467C85.3934 38.4577 85.5214 38.5266 85.6601 38.5354C85.7989 38.5442 85.9345 38.4921 86.0316 38.3926L85.6904 38.0596ZM92.9099 30.6615L92.5687 30.3285L92.9099 30.6615ZM101.234 55.6116L100.892 55.2786C100.773 55.4013 100.728 55.5789 100.776 55.7437C100.823 55.9084 100.955 56.035 101.122 56.0751L101.234 55.6116ZM101.773 55.7415L101.885 55.2779L101.885 55.2779L101.773 55.7415ZM103.175 56.3498L103.448 55.9584L103.446 55.957L103.175 56.3498ZM104.567 58.646L104.095 58.7135L104.095 58.7135L104.567 58.646ZM102.047 62.9412L101.793 62.5376L101.792 62.5385L102.047 62.9412ZM99.6731 63.912L99.5537 63.4504L99.5537 63.4504L99.6731 63.912ZM99.3724 63.9898L99.253 63.5282C99.1299 63.56 99.0246 63.6397 98.9605 63.7495C98.8965 63.8594 98.8789 63.9903 98.9118 64.1131L99.3724 63.9898ZM99.4532 64.2916L98.9926 64.4149L98.9926 64.4149L99.4532 64.2916ZM99.5836 65.9405L100.058 65.9874L100.058 65.9857L99.5836 65.9405ZM97.0283 69.3416L96.9197 68.8773L96.9197 68.8773L97.0283 69.3416ZM96.7299 69.4114L96.6212 68.9472C96.3657 69.007 96.2065 69.2621 96.2651 69.5179L96.7299 69.4114ZM96.7987 69.7118L96.3339 69.8183L96.3339 69.8183L96.7987 69.7118ZM96.8975 71.2447L97.3721 71.2913L97.3721 71.2906L96.8975 71.2447ZM93.5045 74.7084L93.551 74.2339C93.5442 74.2332 93.5374 74.2327 93.5306 74.2323L93.5045 74.7084ZM92.6528 74.6618L92.6789 74.1857L92.6786 74.1857L92.6528 74.6618ZM92.2321 74.6391L92.2578 74.163C92.1061 74.1548 91.9595 74.2194 91.8632 74.337C91.7669 74.4545 91.7324 74.6109 91.7704 74.7581L92.2321 74.6391ZM92.3375 75.048L92.7992 74.929L92.7992 74.929L92.3375 75.048ZM92.4867 76.4625L92.0103 76.441L92.0103 76.4416L92.4867 76.4625ZM91.218 79.3807L91.5366 79.7355L91.5381 79.7342L91.218 79.3807ZM89.2329 80.0992L89.2632 79.6234L89.2627 79.6233L89.2329 80.0992ZM83.8255 79.7612L83.7945 80.237L83.7957 80.2371L83.8255 79.7612ZM82.3222 79.1647L82.6176 78.7904C82.5701 78.7529 82.5158 78.7248 82.4578 78.7076L82.3222 79.1647ZM82.0971 79.098L82.2327 78.6409C82.1742 78.6235 82.1129 78.6175 82.0522 78.6233L82.0971 79.098ZM58.9737 76.9071L58.768 77.3373L58.7681 77.3373L58.9737 76.9071ZM58.7634 76.8066L58.9691 76.3764C58.7787 76.2854 58.5512 76.3303 58.4097 76.4868L58.7634 76.8066ZM79.8299 70.5262L80.3033 70.5835L80.3034 70.5824L79.8299 70.5262ZM80.4361 68.666L80.0246 68.4253L80.0225 68.4288L80.4361 68.666ZM80.5884 73.6685L80.9667 73.3782L80.9667 73.3782L80.5884 73.6685ZM80.8228 73.9738L80.6199 74.4053C80.819 74.4989 81.0563 74.4441 81.1942 74.2728C81.3321 74.1014 81.3349 73.858 81.201 73.6835L80.8228 73.9738ZM67.9223 60.1725L67.5811 59.8395L67.9223 60.1725ZM70.1632 57.8763L69.822 57.5432L69.8219 57.5433L70.1632 57.8763ZM84.0316 43.6666L83.7119 43.3129C83.7045 43.3195 83.6974 43.3264 83.6904 43.3335L84.0316 43.6666ZM84.9696 42.703L84.6284 42.37C84.6219 42.3766 84.6156 42.3834 84.6096 42.3904L84.9696 42.703ZM93.9707 33.48L93.6295 33.147L93.6295 33.147L93.9707 33.48ZM92.8853 61.1472L92.5441 60.8142C92.5343 60.8241 92.5251 60.8345 92.5163 60.8453L92.8853 61.1472ZM92.74 61.3314L93.115 61.6259L93.1158 61.6249L92.74 61.3314ZM92.7389 61.3328L93.1134 61.628L93.114 61.6272L92.7389 61.3328ZM92.7383 61.3335L92.3639 61.0383L92.3626 61.04L92.7383 61.3335ZM92.7058 61.3752L92.65 61.8487C92.8154 61.8682 92.979 61.8 93.0815 61.6687L92.7058 61.3752ZM92.5362 61.3552L92.4804 61.8288L92.4804 61.8288L92.5362 61.3552ZM91.7513 61.2628L91.6955 61.7363L91.6955 61.7363L91.7513 61.2628ZM88.3097 64.7038L87.8352 64.6568L87.8352 64.6575L88.3097 64.7038ZM88.4598 66.4262L88.9187 66.2965L88.9187 66.2965L88.4598 66.4262ZM88.5766 66.8394L88.5498 67.3154C88.7037 67.3241 88.8522 67.2578 88.9486 67.1376C89.045 67.0174 89.0773 66.858 89.0354 66.7097L88.5766 66.8394ZM88.149 66.8153L88.1222 67.2914L88.1223 67.2914L88.149 66.8153ZM83.4194 66.5491L83.3731 67.0236C83.3796 67.0242 83.3861 67.0247 83.3926 67.0251L83.4194 66.5491ZM82.748 66.5777L82.6957 66.1038C82.6526 66.1085 82.6103 66.1191 82.5701 66.1353L82.748 66.5777ZM80.5598 68.4547L80.1493 68.2121L80.1482 68.2139L80.5598 68.4547ZM96.5389 66.8398L96.4804 67.313C96.5426 67.3207 96.6057 67.316 96.666 67.2993L96.5389 66.8398ZM96.6559 66.8074L96.5288 66.3479L96.5288 66.3479L96.6559 66.8074ZM91.1828 66.1776L90.9401 66.588C90.9965 66.6214 91.0592 66.6427 91.1242 66.6508L91.1828 66.1776ZM91.1254 66.1436L90.8704 66.5466C90.8745 66.5491 90.8786 66.5516 90.8827 66.5541L91.1254 66.1436ZM91.112 66.1352L90.8486 66.5328L90.857 66.5381L91.112 66.1352ZM91.1033 66.1294L90.8189 66.5121C90.8258 66.5173 90.8328 66.5222 90.84 66.5269L91.1033 66.1294ZM91.0764 66.1094L90.7725 66.4768C90.7789 66.4821 90.7854 66.4872 90.7921 66.4922L91.0764 66.1094ZM90.6432 64.6364L91.1176 64.6846L91.1178 64.683L90.6432 64.6364ZM91.3957 63.2753L91.2822 62.8122L91.2822 62.8122L91.3957 63.2753ZM91.506 63.2482L91.5665 62.7753C91.5084 62.7678 91.4494 62.7712 91.3925 62.7851L91.506 63.2482ZM96.9379 63.9433L97.271 63.602C97.1968 63.5297 97.1012 63.4835 96.9985 63.4703L96.9379 63.9433ZM97.3996 65.4492L97.8741 65.4957L97.8743 65.4943L97.3996 65.4492ZM82.8505 71.7307L82.5175 72.0719C82.5986 72.151 82.7052 72.1987 82.8182 72.2064L82.8505 71.7307ZM82.7903 71.6719L83.1233 71.3307C83.1175 71.325 83.1115 71.3194 83.1054 71.314L82.7903 71.6719ZM93.8719 72.4788L93.9197 72.0044C93.9146 72.0039 93.9094 72.0035 93.9042 72.0031L93.8719 72.4788ZM93.9429 72.486L93.8951 72.9604C93.9226 72.9632 93.9503 72.9635 93.9779 72.9615L93.9429 72.486ZM94.0519 72.478L94.0869 72.9535C94.1156 72.9514 94.1441 72.9467 94.1719 72.9394L94.0519 72.478ZM94.7916 71.1116L94.3166 71.0702L94.3165 71.0717L94.7916 71.1116ZM94.5489 69.8671L94.0849 69.9769C94.0963 70.0249 94.115 70.0709 94.1405 70.1132L94.5489 69.8671ZM94.5045 69.6797L94.0292 69.6428C94.0254 69.692 94.0292 69.7414 94.0406 69.7894L94.5045 69.6797ZM94.5137 69.5615L94.9891 69.5984C94.9989 69.4715 94.9576 69.346 94.8744 69.2497C94.7912 69.1534 94.6729 69.0944 94.5459 69.0858L94.5137 69.5615ZM83.2463 68.7993L83.1984 69.2737C83.2036 69.2742 83.2089 69.2746 83.2141 69.275L83.2463 68.7993ZM83.1754 68.7921L83.2233 68.3177C83.1958 68.3149 83.1681 68.3146 83.1405 68.3166L83.1754 68.7921ZM83.0665 68.8001L83.0315 68.3246C83.0028 68.3267 82.9743 68.3314 82.9465 68.3387L83.0665 68.8001ZM82.327 70.1633L81.8521 70.1209L81.852 70.1218L82.327 70.1633ZM82.7282 71.6165L82.3929 71.9555C82.3981 71.9606 82.4033 71.9656 82.4087 71.9704L82.7282 71.6165ZM99.3411 58.1698L99.3334 58.6465L99.3334 58.6465L99.3411 58.1698ZM99.2155 58.1678L99.2233 57.691C99.0921 57.6889 98.9659 57.7409 98.8742 57.8347L99.2155 58.1678ZM99.5148 58.1564L99.4192 57.6892L99.4106 57.6912L99.5148 58.1564ZM102.243 58.4167L101.968 58.806L101.969 58.8069L102.243 58.4167ZM102.645 59.0958L102.175 59.1738L102.175 59.1746L102.645 59.0958ZM101.226 61.0587L100.975 60.6529L100.975 60.6531L101.226 61.0587ZM98.0756 61.9563L98.0201 61.4828L98.0201 61.4828L98.0756 61.9563ZM97.9996 61.9653L97.8312 62.4114C97.9026 62.4383 97.9794 62.4477 98.0551 62.4388L97.9996 61.9653ZM97.925 61.9371L97.7567 62.3832L97.7567 62.3832L97.925 61.9371ZM97.3741 61.7902L97.4403 61.318L97.4378 61.3177L97.3741 61.7902ZM95.8772 61.5886L95.536 61.2555C95.4101 61.3845 95.3677 61.5735 95.4264 61.7439C95.4852 61.9143 95.6349 62.037 95.8136 62.0611L95.8772 61.5886ZM58.2342 73.9372L58.6932 73.8081L58.6932 73.8081L58.2342 73.9372ZM56.4811 67.7058L56.9401 67.5766L56.9401 67.5766L56.4811 67.7058ZM58.2641 74.0434L57.8051 74.1725C57.8353 74.2799 57.9022 74.3733 57.9942 74.4364L58.2641 74.0434ZM58.3548 74.1057L58.0848 74.4987L58.0848 74.4987L58.3548 74.1057ZM80.5312 76.9202L80.5714 77.3953L80.5714 77.3953L80.5312 76.9202ZM80.8505 76.8932L80.8907 77.3683C81.0183 77.3575 81.1362 77.2959 81.2178 77.1972C81.2995 77.0986 81.338 76.9713 81.3248 76.8439L80.8505 76.8932ZM80.808 76.484L81.2823 76.4347L81.2822 76.4336L80.808 76.484ZM80.7877 76.2336L81.2642 76.2163L81.2642 76.2163L80.7877 76.2336ZM80.7751 75.8872L81.2516 75.87C81.2467 75.7332 81.1832 75.6051 81.0773 75.5184C80.9714 75.4316 80.8333 75.3946 80.6983 75.4167L80.7751 75.8872ZM80.4322 75.9432L80.3554 75.4727L80.3554 75.4727L80.4322 75.9432ZM77.5189 75.0279L77.1859 75.3692L77.5189 75.0279ZM65.7922 63.5841L66.1252 63.2429L65.7922 63.5841ZM65.7165 58.8199L66.0577 59.1529L65.7165 58.8199ZM74.4192 49.902L74.7604 50.2351C74.8092 50.1851 74.8463 50.1251 74.8693 50.0592L74.4192 49.902ZM74.5457 49.6154L74.9467 49.8734L74.9494 49.8691L74.5457 49.6154ZM77.3014 45.2314L76.9013 44.9719L76.8977 44.9776L77.3014 45.2314ZM77.7464 44.8261L77.9624 45.2512L77.9646 45.2501L77.7464 44.8261ZM82.0633 42.0658L82.3753 42.4264C82.3854 42.4176 82.3951 42.4084 82.4045 42.3988L82.0633 42.0658ZM83.1365 40.9666L83.4776 41.2997C83.4897 41.2873 83.5011 41.2743 83.5117 41.2608L83.1365 40.9666ZM83.8025 39.5855L84.2779 39.6214L84.2779 39.6214L83.8025 39.5855ZM83.8119 39.4609L84.2873 39.4968C84.2967 39.3731 84.2574 39.2506 84.1779 39.1553L83.8119 39.4609ZM83.7325 39.3658L83.3664 39.6713L83.3664 39.6713L83.7325 39.3658ZM78.6807 39.5802L78.5006 39.1387L78.4989 39.1394L78.6807 39.5802ZM63.2384 51.6191L63.6634 51.8352L63.6634 51.8352L63.2384 51.6191ZM58.2905 57.8785L58.0063 57.4956L58.0063 57.4956L58.2905 57.8785ZM56.4647 58.9549L56.6546 59.3923L56.6546 59.3923L56.4647 58.9549ZM55.5264 59.2673L55.5945 59.7392C55.6044 59.7378 55.6143 59.7361 55.6242 59.734L55.5264 59.2673ZM54.5162 59.4131L54.4481 58.9412L54.4479 58.9413L54.5162 59.4131ZM54.1613 59.4645L54.093 58.9926C53.9572 59.0123 53.8364 59.0896 53.7615 59.2047C53.6867 59.3198 53.6652 59.4616 53.7024 59.5937L54.1613 59.4645ZM89.8923 77.6858L89.8523 78.1609C89.9119 78.166 89.972 78.1597 90.0294 78.1425L89.8923 77.6858ZM90.0008 77.6532L90.1379 78.1099L90.1379 78.1099L90.0008 77.6532ZM84.5513 77.2356L84.3362 77.6612C84.3908 77.6888 84.4502 77.7056 84.5112 77.7107L84.5513 77.2356ZM84.4936 77.2065L84.265 77.6249C84.2695 77.6273 84.274 77.6297 84.2785 77.632L84.4936 77.2065ZM84.4722 77.1946L84.711 76.7819L84.7107 76.7818L84.4722 77.1946ZM84.4653 77.1906L84.2044 77.5897C84.2101 77.5934 84.2158 77.5969 84.2215 77.6004L84.4653 77.1906ZM84.4591 77.1865L84.1967 77.5847L84.1982 77.5856L84.4591 77.1865ZM84.4258 77.1639L84.1446 77.549C84.1487 77.552 84.1529 77.555 84.1571 77.5578L84.4258 77.1639ZM83.8998 75.7184L84.3764 75.7314L84.3764 75.7308L83.8998 75.7184ZM84.4251 74.3848L84.5764 74.837L84.5764 74.837L84.4251 74.3848ZM84.5393 74.3466L84.5761 73.8712C84.5125 73.8663 84.4485 73.8742 84.388 73.8944L84.5393 74.3466ZM90.0459 74.7725L90.514 74.863C90.5398 74.7296 90.5075 74.5915 90.4251 74.4834C90.3427 74.3754 90.2181 74.3076 90.0826 74.2971L90.0459 74.7725ZM90.0414 74.7957L89.5732 74.7052C89.5335 74.9104 89.6321 75.1175 89.8164 75.2161L90.0414 74.7957ZM90.064 74.808L90.2988 74.393L90.2986 74.3928L90.064 74.808ZM90.0725 74.8129L90.3317 74.4127C90.3259 74.4089 90.32 74.4053 90.314 74.4018L90.0725 74.8129ZM90.0791 74.8172L90.3406 74.4185L90.3404 74.4183L90.0791 74.8172ZM90.1125 74.8397L90.3932 74.4543C90.389 74.4512 90.3847 74.4482 90.3803 74.4452L90.1125 74.8397ZM90.641 76.2867L90.1644 76.273L90.1644 76.2747L90.641 76.2867ZM58.087 77.7963C58.4252 77.724 58.732 77.5523 58.9626 77.2973L58.2552 76.6578C58.1653 76.7572 58.0394 76.8313 57.8877 76.8638L58.087 77.7963ZM26.0996 89.1627L58.1469 77.7793L57.8277 76.8807L25.7804 88.2641L26.0996 89.1627ZM24.2233 86.7418L25.5293 88.9557L26.3507 88.4711L25.0447 86.2572L24.2233 86.7418ZM55.9809 74.7088L24.4725 86.0509L24.7955 86.9481L56.3039 75.6061L55.9809 74.7088ZM51.6432 60.8706L55.6833 75.2861L56.6015 75.0288L52.5614 60.6132L51.6432 60.8706ZM50.9687 58.4685L51.6432 60.8708L52.5614 60.613L51.8868 58.2107L50.9687 58.4685ZM50.7718 57.7698L50.9688 58.4689L51.8867 58.2103L51.6897 57.5111L50.7718 57.7698ZM50.7066 57.5385L50.7718 57.7698L51.6897 57.5111L51.6245 57.2798L50.7066 57.5385ZM15.7603 60.4058L51.1994 57.8848L51.1317 56.9336L15.6927 59.4546L15.7603 60.4058ZM14.5995 58.1365L15.276 60.0865L16.177 59.7739L15.5004 57.8239L14.5995 58.1365ZM51.9314 54.6841L15.0136 57.5047L15.0863 58.4556L52.0041 55.635L51.9314 54.6841ZM53.6064 55.8988C53.3958 55.1684 52.7133 54.6577 51.9519 54.683L51.9836 55.6361C52.2967 55.6257 52.5972 55.8406 52.6902 56.163L53.6064 55.8988ZM53.7718 56.4726L53.6065 55.8989L52.6901 56.1629L52.8555 56.7367L53.7718 56.4726ZM53.8475 56.7353L53.7718 56.4726L52.8555 56.7367L52.9312 56.9994L53.8475 56.7353ZM54.9384 56.173L53.3244 56.395L53.4543 57.3397L55.0683 57.1177L54.9384 56.173ZM55.4999 55.9159C55.2376 56.0528 55.0183 56.1432 54.8668 56.1885L55.1399 57.1022C55.3682 57.0339 55.6458 56.9155 55.9412 56.7613L55.4999 55.9159ZM56.847 55.005C56.3836 55.3879 55.9308 55.6909 55.4999 55.9159L55.9412 56.7613C56.4395 56.5012 56.9474 56.1591 57.4545 55.74L56.847 55.005ZM60.5758 50.0392C59.4761 52.2263 58.2133 53.8758 56.847 55.005L57.4545 55.74C58.9477 54.5061 60.2852 52.7399 61.4278 50.4676L60.5758 50.0392ZM77.4295 36.7421C73.736 38.2436 70.1448 40.3454 67.1709 42.6748C64.2037 44.9989 61.8183 47.5753 60.576 50.0387L61.4275 50.4681C62.5815 48.1796 64.8476 45.7059 67.7589 43.4256C70.6635 41.1505 74.1777 39.0934 77.7886 37.6255L77.4295 36.7421ZM78.6807 36.3131C78.2146 36.4487 77.774 36.6008 77.4281 36.7426L77.7899 37.6249C78.0987 37.4983 78.5066 37.3569 78.9472 37.2287L78.6807 36.3131ZM80.9803 35.8535C80.2377 35.9281 79.4632 36.0854 78.6807 36.3131L78.9472 37.2287C79.6818 37.0149 80.3988 36.8703 81.0756 36.8023L80.9803 35.8535ZM85.8503 37.4798C84.8181 36.1114 83.0981 35.6408 80.9803 35.8535L81.0756 36.8023C83.0256 36.6065 84.3396 37.0606 85.089 38.0541L85.8503 37.4798ZM86.071 37.7724L85.8503 37.4798L85.089 38.0541L85.3097 38.3467L86.071 37.7724ZM92.5687 30.3285L85.3491 37.7266L86.0316 38.3926L93.2512 30.9945L92.5687 30.3285ZM98.0255 30.3091C96.4973 28.8178 94.0485 28.8121 92.5687 30.3285L93.2512 30.9945C94.3505 29.868 96.1952 29.8554 97.3595 30.9916L98.0255 30.3091ZM109.876 41.8733L98.0255 30.3091L97.3595 30.9916L109.21 42.5558L109.876 41.8733ZM109.986 47.3256C111.466 45.8089 111.403 43.3643 109.876 41.8733L109.21 42.5558C110.373 43.6907 110.404 45.5317 109.304 46.6596L109.986 47.3256ZM101.575 55.9446L109.986 47.3256L109.304 46.6596L100.892 55.2786L101.575 55.9446ZM101.885 55.2779L101.345 55.148L101.122 56.0751L101.661 56.205L101.885 55.2779ZM103.446 55.957C102.987 55.6411 102.461 55.4168 101.885 55.2779L101.661 56.205C102.139 56.32 102.553 56.5006 102.905 56.7426L103.446 55.957ZM105.039 58.5784C104.882 57.4843 104.336 56.5763 103.448 55.9584L102.903 56.7412C103.565 57.2018 103.974 57.8704 104.095 58.7135L105.039 58.5784ZM102.301 63.3448C104.055 62.2414 105.296 60.3749 105.039 58.5784L104.095 58.7135C104.278 59.9921 103.375 61.5427 101.793 62.5376L102.301 63.3448ZM99.7925 64.3736C100.777 64.1189 101.61 63.7825 102.302 63.344L101.792 62.5385C101.205 62.9104 100.47 63.2133 99.5537 63.4504L99.7925 64.3736ZM99.4918 64.4514L99.7925 64.3736L99.5537 63.4504L99.253 63.5282L99.4918 64.4514ZM99.9138 64.1683L99.833 63.8664L98.9118 64.1131L98.9926 64.4149L99.9138 64.1683ZM100.058 65.9857C100.117 65.3649 100.069 64.7489 99.9138 64.1683L98.9926 64.4149C99.1172 64.8803 99.1578 65.3819 99.1089 65.8954L100.058 65.9857ZM97.1369 69.8059C98.7495 69.4285 99.8752 67.8405 100.058 65.9874L99.1091 65.8937C98.9541 67.4646 98.0257 68.6185 96.9197 68.8773L97.1369 69.8059ZM96.8385 69.8757L97.1369 69.8059L96.9197 68.8773L96.6212 68.9472L96.8385 69.8757ZM97.2634 69.6053L97.1946 69.3049L96.2651 69.5179L96.3339 69.8183L97.2634 69.6053ZM97.3721 71.2906C97.4268 70.7253 97.3897 70.1563 97.2634 69.6053L96.3339 69.8183C96.4373 70.2696 96.4677 70.7357 96.4229 71.1988L97.3721 71.2906ZM93.458 75.1829C95.5129 75.3843 97.1492 73.5582 97.3721 71.2913L96.423 71.198C96.2315 73.1459 94.898 74.3659 93.551 74.2339L93.458 75.1829ZM92.6268 75.1379L93.4785 75.1845L93.5306 74.2323L92.6789 74.1857L92.6268 75.1379ZM92.2064 75.1152L92.6271 75.1379L92.6786 74.1857L92.2578 74.163L92.2064 75.1152ZM92.7992 74.929L92.6938 74.5201L91.7704 74.7581L91.8758 75.167L92.7992 74.929ZM92.963 76.484C92.9865 75.9623 92.931 75.4402 92.7992 74.929L91.8758 75.167C91.9844 75.5886 92.0295 76.016 92.0103 76.441L92.963 76.484ZM91.5381 79.7342C92.4019 78.952 92.9072 77.7567 92.963 76.4834L92.0103 76.4416C91.9638 77.5026 91.5438 78.4426 90.898 79.0273L91.5381 79.7342ZM89.2026 80.5751C90.0547 80.6293 90.8818 80.3235 91.5366 79.7355L90.8995 79.026C90.4213 79.4553 89.8414 79.6602 89.2632 79.6234L89.2026 80.5751ZM83.7957 80.2371L89.2032 80.5751L89.2627 79.6233L83.8552 79.2853L83.7957 80.2371ZM82.0268 79.539C82.5493 79.9513 83.1524 80.1952 83.7945 80.237L83.8564 79.2854C83.4222 79.2571 83.0007 79.0928 82.6176 78.7904L82.0268 79.539ZM81.9616 79.5551L82.1866 79.6219L82.4578 78.7076L82.2327 78.6409L81.9616 79.5551ZM58.7681 77.3373C64.0288 79.8525 72.1799 80.5166 82.1421 79.5727L82.0522 78.6233C72.135 79.5629 64.1994 78.8771 59.1794 76.477L58.7681 77.3373ZM58.5577 77.2367L58.768 77.3373L59.1794 76.477L58.9691 76.3764L58.5577 77.2367ZM58.9626 77.2973L59.1171 77.1263L58.4097 76.4868L58.2552 76.6578L58.9626 77.2973ZM80.3034 70.5824C80.3758 69.9725 80.5626 69.4039 80.8497 68.9033L80.0225 68.4288C79.6688 69.0455 79.4433 69.738 79.3564 70.47L80.3034 70.5824ZM80.9667 73.3782C80.4283 72.6767 80.1727 71.6631 80.3033 70.5835L79.3566 70.469C79.2013 71.7531 79.4953 73.0274 80.2102 73.9588L80.9667 73.3782ZM81.201 73.6835L80.9667 73.3782L80.2102 73.9588L80.4445 74.2641L81.201 73.6835ZM79.539 73.7049C79.7454 73.9064 80.0268 74.0832 80.2312 74.2005C80.3381 74.2618 80.4338 74.3122 80.503 74.3475C80.5377 74.3652 80.566 74.3792 80.5861 74.389C80.5961 74.3939 80.6041 74.3978 80.6098 74.4005C80.6127 74.4019 80.615 74.4029 80.6167 74.4038C80.6175 74.4042 80.6182 74.4045 80.6188 74.4047C80.619 74.4049 80.6193 74.405 80.6195 74.4051C80.6196 74.4051 80.6197 74.4052 80.6197 74.4052C80.6198 74.4052 80.6198 74.4052 80.6198 74.4053C80.6199 74.4053 80.6199 74.4053 80.8228 73.9738C81.0256 73.5423 81.0256 73.5423 81.0256 73.5423C81.0257 73.5423 81.0257 73.5423 81.0257 73.5423C81.0258 73.5423 81.0258 73.5424 81.0258 73.5424C81.0259 73.5424 81.0259 73.5424 81.0258 73.5424C81.0258 73.5424 81.0256 73.5423 81.0252 73.5421C81.0245 73.5418 81.0232 73.5412 81.0214 73.5403C81.0178 73.5385 81.012 73.5357 81.0042 73.532C80.9887 73.5244 80.9654 73.5129 80.9362 73.498C80.8775 73.468 80.796 73.425 80.7056 73.3732C80.5153 73.2641 80.3213 73.1359 80.205 73.0224L79.539 73.7049ZM67.5756 62.0302L79.539 73.7049L80.205 73.0224L68.2417 61.3477L67.5756 62.0302ZM67.5811 59.8395C66.9852 60.4501 66.9616 61.4311 67.5756 62.0302L68.2417 61.3477C68.0295 61.1407 68.0108 60.7646 68.2636 60.5056L67.5811 59.8395ZM69.8219 57.5433L67.5811 59.8395L68.2636 60.5056L70.5044 58.2093L69.8219 57.5433ZM83.6904 43.3335L69.822 57.5432L70.5044 58.2093L84.3729 43.9996L83.6904 43.3335ZM84.6096 42.3904C84.3056 42.7405 84.0134 43.0404 83.7119 43.3129L84.3514 44.0203C84.6845 43.7192 85.0035 43.3913 85.3296 43.0156L84.6096 42.3904ZM93.6295 33.147L84.6284 42.37L85.3108 43.036L94.3119 33.813L93.6295 33.147ZM96.731 33.1092C95.8641 32.2632 94.4755 32.2801 93.6295 33.147L94.3119 33.813C94.7901 33.3231 95.575 33.3135 96.065 33.7917L96.731 33.1092ZM107.548 43.6647L96.731 33.1092L96.065 33.7917L106.882 44.3472L107.548 43.6647ZM107.585 46.7663C108.431 45.8994 108.414 44.5108 107.548 43.6647L106.882 44.3472C107.372 44.8254 107.381 45.6103 106.903 46.1003L107.585 46.7663ZM93.2266 61.4802L107.585 46.7663L106.903 46.1003L92.5441 60.8142L93.2266 61.4802ZM93.1158 61.6249C93.2079 61.507 93.2271 61.4825 93.2544 61.4491L92.5163 60.8453C92.4805 60.889 92.4534 60.9237 92.3642 61.0379L93.1158 61.6249ZM93.114 61.6272L93.115 61.6259L92.365 61.037L92.3639 61.0383L93.114 61.6272ZM93.1127 61.6287L93.1134 61.628L92.3645 61.0375L92.3639 61.0383L93.1127 61.6287ZM93.0815 61.6687L93.1141 61.6271L92.3626 61.04L92.33 61.0817L93.0815 61.6687ZM92.4804 61.8288L92.65 61.8487L92.7615 60.9017L92.592 60.8817L92.4804 61.8288ZM91.6955 61.7363L92.4804 61.8288L92.592 60.8817L91.807 60.7893L91.6955 61.7363ZM88.7842 64.7509C88.9788 62.7887 90.3286 61.5753 91.6955 61.7363L91.8071 60.7893C89.7239 60.5438 88.0619 62.3717 87.8352 64.6568L88.7842 64.7509ZM88.9187 66.2965C88.7794 65.8038 88.7328 65.2773 88.7843 64.7501L87.8352 64.6575C87.7724 65.3003 87.8287 65.9463 88.001 66.5559L88.9187 66.2965ZM89.0354 66.7097L88.9187 66.2965L88.001 66.5559L88.1177 66.969L89.0354 66.7097ZM88.1223 67.2914L88.5498 67.3154L88.6033 66.3633L88.1758 66.3393L88.1223 67.2914ZM83.3926 67.0251L88.1222 67.2914L88.1758 66.3393L83.4463 66.073L83.3926 67.0251ZM82.8003 67.0516C83.0966 67.0189 83.2793 67.0144 83.3731 67.0236L83.4658 66.0745C83.2683 66.0552 83.0033 66.0698 82.6957 66.1038L82.8003 67.0516ZM80.9702 68.6973C81.4318 67.9164 82.0793 67.3607 82.926 67.02L82.5701 66.1353C81.5296 66.554 80.7182 67.2496 80.1493 68.2121L80.9702 68.6973ZM80.8477 68.9068L80.9713 68.6955L80.1482 68.2139L80.0246 68.4253L80.8477 68.9068ZM96.666 67.2993L96.783 67.267L96.5288 66.3479L96.4118 66.3802L96.666 67.2993ZM91.1242 66.6508L96.4804 67.313L96.5974 66.3666L91.2413 65.7044L91.1242 66.6508ZM90.8827 66.5541L90.9401 66.588L91.4254 65.7671L91.3681 65.7332L90.8827 66.5541ZM90.857 66.5381L90.8704 66.5466L91.3804 65.7407L91.3669 65.7322L90.857 66.5381ZM90.84 66.5269L90.8487 66.5327L91.3753 65.7377L91.3666 65.7319L90.84 66.5269ZM90.7921 66.4922L90.8189 66.5121L91.3876 65.7467L91.3608 65.7267L90.7921 66.4922ZM90.6924 66.4051C90.7237 66.4356 90.7408 66.4506 90.7725 66.4768L91.3803 65.742C91.3748 65.7375 91.3717 65.7348 91.3695 65.733C91.3675 65.7314 91.367 65.7309 91.3672 65.731C91.3678 65.7316 91.3669 65.7308 91.3584 65.7226L90.6924 66.4051ZM90.1689 64.5882C90.1009 65.2578 90.2672 65.9901 90.6924 66.4051L91.3584 65.7226C91.2176 65.5852 91.0661 65.1912 91.1176 64.6846L90.1689 64.5882ZM91.2822 62.8122C90.9222 62.9004 90.6647 63.2153 90.5074 63.4922C90.3345 63.7965 90.2088 64.1815 90.1687 64.5899L91.1178 64.683C91.1453 64.4028 91.232 64.1473 91.3365 63.9632C91.4566 63.7519 91.5415 63.7305 91.5092 63.7384L91.2822 62.8122ZM91.3925 62.7851L91.2822 62.8122L91.5092 63.7384L91.6195 63.7113L91.3925 62.7851ZM96.9985 63.4703L91.5665 62.7753L91.4455 63.7212L96.8774 64.4162L96.9985 63.4703ZM97.3473 63.6765L97.271 63.602L96.6049 64.2845L96.6813 64.359L97.3473 63.6765ZM97.8743 65.4943C97.9384 64.8211 97.772 64.0909 97.3473 63.6765L96.6813 64.359C96.8218 64.4961 96.974 64.8889 96.925 65.404L97.8743 65.4943ZM96.783 67.267C97.1328 67.1703 97.3844 66.8584 97.5398 66.5822C97.7101 66.2796 97.8346 65.8984 97.8741 65.4957L96.9251 65.4026C96.8982 65.6764 96.8128 65.9296 96.7087 66.1146C96.5897 66.326 96.5027 66.3551 96.5288 66.3479L96.783 67.267ZM83.1835 71.3894L83.1233 71.3307L82.4573 72.0132L82.5175 72.0719L83.1835 71.3894ZM93.9042 72.0031L82.8828 71.2549L82.8182 72.2064L93.8396 72.9545L93.9042 72.0031ZM93.9908 72.0116L93.9197 72.0044L93.8241 72.9532L93.8951 72.9604L93.9908 72.0116ZM94.017 72.0025L93.908 72.0105L93.9779 72.9615L94.0869 72.9535L94.017 72.0025ZM94.3165 71.0717C94.2931 71.3494 94.2096 71.6039 94.107 71.788C93.9896 71.9987 93.9036 72.0239 93.9319 72.0165L94.1719 72.9394C94.5292 72.8465 94.7842 72.5318 94.94 72.2523C95.1105 71.9463 95.2324 71.5603 95.2667 71.1516L94.3165 71.0717ZM94.1405 70.1132C94.2685 70.3257 94.3508 70.679 94.3166 71.0702L95.2666 71.1531C95.3143 70.6075 95.2112 70.0425 94.9573 69.6211L94.1405 70.1132ZM94.0406 69.7894L94.0849 69.9769L95.0129 69.7573L94.9685 69.5699L94.0406 69.7894ZM94.0383 69.5246L94.0292 69.6428L94.9799 69.7166L94.9891 69.5984L94.0383 69.5246ZM83.2141 69.275L94.4815 70.0372L94.5459 69.0858L83.2785 68.3235L83.2141 69.275ZM83.1276 69.2665L83.1984 69.2737L83.2941 68.3249L83.2233 68.3177L83.1276 69.2665ZM83.1014 69.2756L83.2104 69.2676L83.1405 68.3166L83.0315 68.3246L83.1014 69.2756ZM82.802 70.2057C82.8268 69.9277 82.911 69.6731 83.0138 69.4889C83.1316 69.2777 83.2168 69.2537 83.1865 69.2616L82.9465 68.3387C82.59 68.4314 82.336 68.7464 82.181 69.0242C82.0109 69.3291 81.8885 69.7137 81.8521 70.1209L82.802 70.2057ZM83.0635 71.2775C82.9119 71.1275 82.7569 70.7221 82.802 70.2048L81.852 70.1218C81.7926 70.802 81.9674 71.5347 82.3929 71.9555L83.0635 71.2775ZM83.1054 71.314C83.0796 71.2913 83.0799 71.2916 83.0477 71.2626L82.4087 71.9704C82.4434 72.0018 82.4461 72.0041 82.4753 72.0298L83.1054 71.314ZM99.3489 57.6931L99.2233 57.691L99.2077 58.6445L99.3334 58.6465L99.3489 57.6931ZM99.4106 57.6912C99.4129 57.6906 99.4023 57.6939 99.3489 57.6931L99.3334 58.6465C99.4208 58.648 99.5162 58.6447 99.6189 58.6217L99.4106 57.6912ZM102.518 58.0274C102.157 57.7719 101.654 57.6375 101.136 57.5875C100.607 57.5365 100.01 57.5686 99.4192 57.6893L99.6103 58.6236C100.114 58.5205 100.616 58.4954 101.045 58.5367C101.485 58.5792 101.799 58.6868 101.968 58.806L102.518 58.0274ZM103.115 59.0178C103.045 58.5945 102.861 58.2682 102.517 58.0265L101.969 58.8069C102.076 58.8821 102.14 58.9674 102.175 59.1738L103.115 59.0178ZM101.476 61.4645C101.958 61.1673 102.38 60.7604 102.675 60.3497C102.822 60.1439 102.945 59.9267 103.026 59.7113C103.104 59.5019 103.156 59.2584 103.115 59.017L102.175 59.1746C102.177 59.189 102.179 59.2531 102.133 59.3774C102.088 59.4958 102.011 59.6387 101.9 59.7939C101.677 60.1053 101.346 60.424 100.975 60.6529L101.476 61.4645ZM98.1311 62.4299C99.5582 62.2626 100.687 61.9517 101.476 61.4644L100.975 60.6531C100.36 61.0331 99.3922 61.3219 98.0201 61.4828L98.1311 62.4299ZM98.0551 62.4388L98.1311 62.4299L98.0201 61.4828L97.9441 61.4917L98.0551 62.4388ZM97.7567 62.3832L97.8312 62.4114L98.168 61.5192L98.0934 61.491L97.7567 62.3832ZM97.3079 62.2624C97.4387 62.2808 97.5891 62.32 97.7567 62.3832L98.0934 61.491C97.8735 61.408 97.6541 61.348 97.4403 61.318L97.3079 62.2624ZM95.8136 62.0611L97.3104 62.2628L97.4378 61.3177L95.9409 61.116L95.8136 62.0611ZM98.8742 57.8347L95.536 61.2555L96.2185 61.9216L99.5567 58.5008L98.8742 57.8347ZM58.6932 73.8081L56.9401 67.5766L56.0221 67.8349L57.7752 74.0663L58.6932 73.8081ZM58.7231 73.9143L58.6932 73.8081L57.7752 74.0663L57.8051 74.1725L58.7231 73.9143ZM58.6247 73.7126L58.534 73.6504L57.9942 74.4364L58.0848 74.4987L58.6247 73.7126ZM80.491 76.4451C75.3643 76.8786 70.8794 76.8768 67.1771 76.4213C63.4675 75.965 60.5835 75.0579 58.6247 73.7126L58.0848 74.4987C60.2232 75.9673 63.28 76.9027 67.0607 77.3678C70.8486 77.8338 75.4034 77.8323 80.5714 77.3953L80.491 76.4451ZM80.8104 76.4181L80.491 76.4451L80.5714 77.3953L80.8907 77.3683L80.8104 76.4181ZM80.3338 76.5333L80.3763 76.9425L81.3248 76.8439L81.2823 76.4347L80.3338 76.5333ZM80.3112 76.2508C80.3142 76.3355 80.3209 76.4124 80.3339 76.5344L81.2822 76.4336C81.2699 76.3185 81.266 76.2676 81.2642 76.2163L80.3112 76.2508ZM80.2986 75.9045L80.3112 76.2508L81.2642 76.2163L81.2516 75.87L80.2986 75.9045ZM80.5091 76.4138L80.852 76.3578L80.6983 75.4167L80.3554 75.4727L80.5091 76.4138ZM77.1859 75.3692C78.0658 76.2279 79.2997 76.6113 80.5091 76.4138L80.3554 75.4727C79.4421 75.6218 78.5132 75.332 77.8519 74.6867L77.1859 75.3692ZM65.4592 63.9254L77.1859 75.3692L77.8519 74.6867L66.1252 63.2429L65.4592 63.9254ZM65.3752 58.4869C63.8957 60.003 63.938 62.4409 65.4592 63.9254L66.1252 63.2429C64.9762 62.1217 64.9507 60.2874 66.0577 59.1529L65.3752 58.4869ZM74.0779 49.569L65.3752 58.4869L66.0577 59.1529L74.7604 50.2351L74.0779 49.569ZM74.1448 49.3574C74.075 49.4659 74.0264 49.5805 73.969 49.7449L74.8693 50.0592C74.9184 49.9187 74.9377 49.8874 74.9467 49.8734L74.1448 49.3574ZM76.8977 44.9776L74.1421 49.3617L74.9494 49.8691L77.7051 45.4851L76.8977 44.9776ZM77.5305 44.401C77.2737 44.5314 77.0571 44.7317 76.9013 44.9719L77.7014 45.4908C77.7706 45.3842 77.863 45.3017 77.9623 45.2512L77.5305 44.401ZM81.7514 41.7052C80.7846 42.5415 79.3795 43.4494 77.5282 44.4021L77.9646 45.2501C79.8523 44.2786 81.3299 43.3307 82.3753 42.4264L81.7514 41.7052ZM82.7953 40.6335L81.7221 41.7327L82.4045 42.3988L83.4776 41.2997L82.7953 40.6335ZM83.327 39.5495C83.3094 39.7826 83.1576 40.1668 82.7612 40.6724L83.5117 41.2608C83.9562 40.6937 84.2396 40.1289 84.2779 39.6214L83.327 39.5495ZM83.3364 39.425L83.327 39.5495L84.2779 39.6214L84.2873 39.4968L83.3364 39.425ZM83.3664 39.6713L83.4459 39.7664L84.1779 39.1553L84.0985 39.0602L83.3664 39.6713ZM78.8608 40.0217C79.9203 39.5894 80.9645 39.3538 81.8056 39.3165C82.2265 39.2979 82.5806 39.3297 82.8537 39.4012C83.1308 39.4737 83.2876 39.5768 83.3664 39.6713L84.0985 39.0602C83.8478 38.7598 83.4833 38.5802 83.0952 38.4786C82.7031 38.376 82.248 38.3424 81.7634 38.3639C80.7936 38.4068 79.6415 38.6732 78.5006 39.1387L78.8608 40.0217ZM63.6634 51.8352C64.6905 49.8153 66.7937 47.5559 69.5136 45.4424C72.2251 43.3354 75.5122 41.4023 78.8624 40.021L78.4989 39.1394C75.0678 40.554 71.7064 42.5308 68.9284 44.6894C66.1588 46.8416 63.9316 49.2037 62.8134 51.4029L63.6634 51.8352ZM58.5748 58.2613C60.5072 56.8267 62.2189 54.6748 63.6634 51.8352L62.8134 51.4029C61.4162 54.1496 59.79 56.1714 58.0063 57.4956L58.5748 58.2613ZM56.6546 59.3923C57.2872 59.1176 57.9316 58.7388 58.5748 58.2613L58.0063 57.4956C57.4132 57.936 56.8315 58.2758 56.2747 58.5176L56.6546 59.3923ZM55.6242 59.734C55.9498 59.6658 56.2824 59.5539 56.6546 59.3923L56.2747 58.5176C55.9455 58.6606 55.6756 58.7489 55.4286 58.8007L55.6242 59.734ZM54.5844 59.8851L55.5945 59.7392L55.4582 58.7954L54.4481 58.9412L54.5844 59.8851ZM54.2296 59.9364L54.5845 59.885L54.4479 58.9413L54.093 58.9926L54.2296 59.9364ZM56.9401 67.5766L54.6203 59.3353L53.7024 59.5937L56.0221 67.8349L56.9401 67.5766ZM90.0294 78.1425L90.1379 78.1099L89.8638 77.1966L89.7552 77.2291L90.0294 78.1425ZM84.5112 77.7107L89.8523 78.1609L89.9324 77.2107L84.5913 76.7605L84.5112 77.7107ZM84.2785 77.632L84.3362 77.6612L84.7663 76.8101L84.7087 76.7809L84.2785 77.632ZM84.2334 77.6073C84.2439 77.6134 84.2546 77.6193 84.265 77.6249L84.7222 76.7881C84.7153 76.7843 84.712 76.7825 84.7099 76.7813C84.7083 76.7804 84.7092 76.7809 84.711 76.7819L84.2334 77.6073ZM84.2215 77.6004C84.2242 77.6019 84.2287 77.6046 84.2337 77.6075L84.7107 76.7818C84.7117 76.7824 84.7123 76.7827 84.7091 76.7808L84.2215 77.6004ZM84.1982 77.5856L84.2044 77.5897L84.7262 76.7915L84.72 76.7874L84.1982 77.5856ZM84.1571 77.5578C84.1773 77.5716 84.1871 77.5783 84.1967 77.5847L84.7214 76.7884C84.7212 76.7882 84.7204 76.7877 84.7164 76.785C84.7121 76.7821 84.7057 76.7777 84.6944 76.77L84.1571 77.5578ZM84.0179 77.4405C84.058 77.4797 84.1027 77.5184 84.1446 77.549L84.7069 76.7788C84.7096 76.7808 84.7079 76.7797 84.7023 76.7748C84.6971 76.7704 84.6907 76.7646 84.6839 76.758L84.0179 77.4405ZM83.4231 75.7053C83.4053 76.3564 83.6063 77.0388 84.0179 77.4405L84.6839 76.758C84.5236 76.6015 84.3631 76.2156 84.3764 75.7314L83.4231 75.7053ZM84.2737 73.9327C83.9323 74.0469 83.7331 74.3639 83.6227 74.6358C83.5022 74.9324 83.4337 75.3015 83.4231 75.7059L84.3764 75.7308C84.3848 75.4111 84.4388 75.1604 84.5062 74.9947C84.5835 74.8043 84.6375 74.8165 84.5764 74.837L84.2737 73.9327ZM84.388 73.8944L84.2737 73.9327L84.5764 74.837L84.6907 74.7987L84.388 73.8944ZM90.0826 74.2971L84.5761 73.8712L84.5026 74.822L90.0091 75.2479L90.0826 74.2971ZM90.5095 74.8863L90.514 74.863L89.5777 74.6819L89.5732 74.7052L90.5095 74.8863ZM90.2986 74.3928C90.2883 74.387 90.2771 74.3811 90.2663 74.3753L89.8164 75.2161C89.8235 75.2199 89.8271 75.2219 89.8296 75.2232C89.8319 75.2244 89.8312 75.2241 89.8295 75.2231L90.2986 74.3928ZM90.314 74.4018C90.3114 74.4002 90.3054 74.3967 90.2988 74.393L89.8293 75.223C89.8277 75.2221 89.8263 75.2213 89.8309 75.224L90.314 74.4018ZM90.3404 74.4183C90.3372 74.4163 90.3343 74.4143 90.3317 74.4127L89.8132 75.213C89.816 75.2149 89.817 75.2155 89.8178 75.216L90.3404 74.4183ZM90.3803 74.4452C90.3602 74.4316 90.3504 74.4249 90.3406 74.4185L89.8176 75.2159C89.8179 75.2161 89.8188 75.2167 89.8228 75.2194C89.8271 75.2223 89.8334 75.2266 89.8447 75.2342L90.3803 74.4452ZM90.5208 74.5636C90.4804 74.5242 90.4354 74.485 90.3932 74.4543L89.8318 75.2251C89.8298 75.2237 89.8294 75.2233 89.8305 75.2242C89.8316 75.2251 89.8334 75.2266 89.836 75.2288C89.8412 75.2332 89.8477 75.2392 89.8547 75.246L90.5208 74.5636ZM91.1176 76.3004C91.1363 75.6514 90.9323 74.9652 90.5208 74.5636L89.8547 75.246C90.0163 75.4037 90.1782 75.7943 90.1644 76.273L91.1176 76.3004ZM90.1379 78.1099C90.4914 78.0038 90.7254 77.6757 90.8608 77.3962C91.0103 77.0875 91.1075 76.7022 91.1177 76.2987L90.1644 76.2747C90.1575 76.5472 90.0908 76.7984 90.0026 76.9805C89.9002 77.1917 89.8227 77.2089 89.8637 77.1966L90.1379 78.1099Z" fill="#132C45"/>
<path fill-rule="evenodd" clip-rule="evenodd" d="M99.4147 50.4053L96.4086 47.4772L99.3328 44.4521L102.339 47.3802L99.4147 50.4053ZM98.1676 47.449L99.3907 48.6403L100.58 47.4095L99.3574 46.2181L98.1676 47.449ZM90.487 41.6994L93.4931 44.6276L96.4172 41.6023L93.4111 38.6741L90.487 41.6994ZM93.4695 42.8619L92.2465 41.6705L93.4362 40.4397L94.6592 41.6311L93.4695 42.8619ZM88.739 51.5472L93.6486 56.337L94.5172 55.4406L90.5002 51.5217L94.409 47.4882L89.4994 42.6984L88.6307 43.5948L92.6477 47.5137L88.739 51.5472ZM94.819 53.344L95.7112 54.2141L98.4281 51.411L95.4198 48.477L92.7029 51.2801L93.595 52.1502L95.4434 50.2432L96.6674 51.437L94.819 53.344ZM84.7226 47.6292L87.7286 50.5574L90.6526 47.532L87.6465 44.6038L84.7226 47.6292ZM87.7038 48.7916L86.4808 47.6002L87.6705 46.3693L88.8935 47.5607L87.7038 48.7916ZM98.3232 43.4632L97.4326 42.5951L94.5024 45.6149L95.393 46.4831L98.3232 43.4632Z" fill="#132C45"/>
<path d="M193.345 51.6092L188.312 70.7857L181.525 73.4474L159.399 74.4543L150.461 75.6141L148.667 71.7472L149.16 69.5183L144.902 69.1526L143.929 64.2088L142.32 62.5751L140.588 59.4526L141.212 57.6304L137.034 55.8449L134.897 52.5845L137.557 49.9638L151.175 39.365L157.559 28.3813L163.515 28.014L171.728 32.5311L179.855 39.2797L184.67 45.6687L187.621 48.6638L193.345 51.6092Z" fill="white"/>
<path d="M144.861 20.1857C144.352 19.6684 143.519 19.6622 143.002 20.1718L127.959 34.9911C127.442 35.5007 127.435 36.3332 127.945 36.8506L146.438 55.6227C146.438 55.6227 149.639 55.6658 150.455 56.494C151.271 57.3222 151.132 60.3876 151.132 60.3876C151.132 60.3876 151.461 61.9371 152.132 62.1525C152.802 62.3679 155.753 61.8716 155.753 61.8716L160.213 62.3062L160.943 65.1541L160.385 69.7798L162.998 70.4756L176.448 57.7465L177.68 53.4998L144.861 20.1857Z" fill="#50E3C2"/>
<path fill-rule="evenodd" clip-rule="evenodd" d="M186.821 72.9186C187.006 73.1214 187.255 73.2614 187.537 73.3203L215.521 81.5344L217.01 78.9834L189.645 70.8139L194.209 54.2281L194.971 51.4641L195.194 50.6597L195.267 50.3936L224.378 54.3015L225.145 52.0572L194.333 47.8131C193.716 47.7954 193.153 48.215 192.981 48.8207L192.795 49.4809L192.709 49.7831L190.853 49.5368C190.635 49.4726 190.349 49.3539 190.028 49.1882C189.492 48.912 188.939 48.544 188.379 48.0859C186.73 46.736 185.227 44.7807 183.926 42.2247C181.147 36.7777 173.182 30.6699 164.773 27.2974C164.396 27.145 163.908 26.9787 163.386 26.8295C162.514 26.58 161.656 26.4106 160.84 26.3326C158.502 26.1089 156.761 26.6483 155.744 28.0101L155.492 28.3476L147.157 19.8862C145.668 18.3748 143.201 18.3824 141.661 19.8992L128.108 33.2511C126.569 34.7671 126.526 37.2295 128.016 38.7418L137.728 48.5997L137.109 48.7518C136.504 48.9005 135.965 49.1357 135.501 49.4585C134.613 50.0823 134.069 50.9906 133.914 52.1044C133.67 53.8722 134.911 55.8296 136.833 57.0261C137.57 57.4882 138.472 57.8513 139.566 58.1287L139.912 58.2164L139.821 58.5636C139.662 59.1653 139.615 59.8076 139.68 60.459C139.883 62.4253 141.071 63.995 142.634 64.3531L142.977 64.4317L142.9 64.7772C142.771 65.3537 142.735 65.9485 142.795 66.5391C143.044 68.9594 144.759 70.7013 146.712 70.5006L147.691 70.4424L148.174 70.414L148.055 70.8844C147.919 71.421 147.864 71.9668 147.891 72.5106C147.956 73.8514 148.494 75.0756 149.365 75.8568C150.018 76.4382 150.828 76.7278 151.65 76.6716L157.861 76.2539C158.479 76.2107 159.067 75.9734 159.585 75.5604L159.843 75.4825C171.27 76.5107 180.508 75.6915 186.401 72.8397L186.642 72.723L186.821 72.9186ZM161.695 63.4867C162.067 64.1268 162.307 64.8503 162.402 65.6208C162.573 66.9781 162.263 68.294 161.547 69.2355L161.28 69.5875C161.28 69.5875 162 69.245 162.369 68.8813L176.052 55.4019C176.524 54.9365 176.518 54.1569 176.028 53.6595L173.441 51.0332L157.428 34.781C157.062 34.4532 156.709 34.0942 156.345 33.679L145.953 23.1303C145.188 22.3543 143.94 22.345 143.164 23.1095L130.792 35.2968C130.016 36.0612 130.007 37.31 130.772 38.086L147.35 54.9148C147.387 54.9591 147.413 54.993 147.519 55.1268L147.52 55.1288L147.521 55.1296L147.558 55.1758L147.752 55.152L148.654 55.0415C150.635 54.7986 152.373 56.5377 152.627 58.9767C152.696 59.6485 152.64 60.3225 152.464 60.9566L152.332 61.4319L152.823 61.402L158.256 61.0704C158.423 61.0533 158.68 61.063 159.028 61.0996C160.114 61.5307 160.955 62.2457 161.552 63.2445L161.695 63.4867ZM143.048 61.4389L143.183 61.4755L149.334 60.6855L149.4 60.6462L149.42 60.6334L149.425 60.6297C149.433 60.6238 149.433 60.6238 149.456 60.6066C149.471 60.5938 149.48 60.5859 149.49 60.5771C149.497 60.5706 149.504 60.5637 149.514 60.5539C149.838 60.2351 150.017 59.5872 149.945 58.9118C149.864 58.1209 149.45 57.4423 149.073 57.3518L148.946 57.3214L142.709 58.1495L142.621 58.2355C142.298 58.5539 142.118 59.1998 142.186 59.8823C142.266 60.6592 142.676 61.3378 143.048 61.4389ZM159.007 66.9534L158.938 67.0212L146.278 67.9406L146.197 67.9492L146.071 67.9406C145.693 67.8441 145.284 67.1631 145.214 66.3747C145.164 65.8367 145.268 65.3086 145.486 64.9434L145.536 64.7277L145.525 64.592L158.467 63.6551L158.549 63.6465L158.674 63.6551C159.049 63.7508 159.457 64.4304 159.531 65.2174C159.594 65.9051 159.408 66.5599 159.078 66.8893C159.053 66.9117 159.044 66.9202 159.032 66.9309L159.007 66.9534ZM140.06 51.5253L139.916 51.5284C139.835 51.5301 139.774 51.5266 139.716 51.514C138.458 51.2628 137.19 51.3944 136.583 51.8278C136.324 52.0111 136.183 52.2482 136.125 52.6103C136.029 53.1987 136.783 54.2581 137.766 54.8581C138.575 55.3525 139.782 55.6914 141.391 55.8724L141.478 55.8822L141.564 55.8495C141.786 55.7644 141.998 55.7064 142.196 55.6777L143.915 55.4378L140.06 51.5253ZM189.215 62.2529L187.235 69.4225L187.201 69.5447L187.097 69.6167C182.405 72.8722 173.465 73.9153 161.631 72.971L161.264 72.9417L161.311 72.4712C161.324 72.335 161.33 72.2616 161.333 72.1834L161.345 71.7854L161.739 71.8479C162.96 72.0413 164.201 71.6486 165.082 70.7803L178.494 57.5675C180.021 56.0633 180.049 53.6086 178.555 52.0928L168.507 41.8931C168.445 41.7183 168.406 41.6346 168.36 41.5645L165.17 36.542C165.04 36.3433 164.862 36.1817 164.657 36.0788C162.503 34.9834 160.842 33.9251 159.682 32.9305L158.443 31.6733C157.956 31.0593 157.704 30.5153 157.67 30.09L157.658 29.9469L157.749 29.8371C158.502 28.9263 161.022 29.0365 163.555 30.0561C171.362 33.232 178.876 38.9691 181.364 43.8054C183.012 47.0071 184.941 49.3959 187.083 50.9708C187.796 51.4948 188.502 51.9043 189.187 52.1978C189.591 52.3709 189.937 52.4843 190.267 52.5517L191.428 52.7137L191.836 52.7708L189.215 62.2529ZM150.754 73.8648L150.879 73.9016L157.014 73.3554L157.08 73.3216C157.095 73.313 157.1 73.3105 157.105 73.3076C157.107 73.3063 157.109 73.305 157.112 73.3031C157.124 73.2956 157.124 73.2956 157.158 73.2723C157.18 73.2557 157.211 73.229 157.243 73.1976C157.57 72.8753 157.775 72.2606 157.754 71.6084C157.728 70.7765 157.466 70.1853 157.143 70.079L157.012 70.0357L150.687 70.5549L150.692 70.5816C150.676 70.5906 150.67 70.5935 150.665 70.5965C150.663 70.5979 150.66 70.5994 150.657 70.6015C150.654 70.6035 150.651 70.605 150.649 70.6065C150.643 70.6108 150.636 70.6153 150.611 70.6326C150.589 70.6489 150.557 70.6759 150.525 70.7077C150.197 71.0306 149.99 71.6502 150.011 72.298C150.035 73.0748 150.395 73.7587 150.754 73.8648Z" fill="#132C45"/>
<path d="M187.537 73.3203L187.649 72.784C187.663 72.7869 187.677 72.7905 187.691 72.7946L187.537 73.3203ZM186.821 72.9186L186.416 73.2879L186.416 73.2879L186.821 72.9186ZM215.521 81.5344L215.994 81.8105C215.867 82.028 215.609 82.131 215.367 82.0601L215.521 81.5344ZM217.01 78.9834L217.167 78.4585C217.328 78.5065 217.458 78.6259 217.519 78.7822C217.581 78.9384 217.568 79.1144 217.483 79.2596L217.01 78.9834ZM189.645 70.8139L189.488 71.3389C189.203 71.2536 189.038 70.9558 189.117 70.6685L189.645 70.8139ZM194.209 54.2281L193.681 54.0827L193.681 54.0824L194.209 54.2281ZM194.971 51.4641L194.443 51.3185L194.443 51.318L194.971 51.4641ZM195.194 50.6597L195.722 50.8058L195.722 50.8058L195.194 50.6597ZM195.267 50.3936L194.739 50.2475C194.812 49.9836 195.069 49.8142 195.34 49.8506L195.267 50.3936ZM224.378 54.3015L224.897 54.4786C224.812 54.7261 224.565 54.8793 224.305 54.8445L224.378 54.3015ZM225.145 52.0572L225.22 51.5144C225.382 51.5368 225.526 51.6304 225.612 51.7697C225.697 51.909 225.717 52.0794 225.664 52.2343L225.145 52.0572ZM194.333 47.8131L194.349 47.2654C194.369 47.266 194.388 47.2676 194.408 47.2703L194.333 47.8131ZM192.981 48.8207L192.454 48.6714L192.454 48.6714L192.981 48.8207ZM192.795 49.4809L192.267 49.3316L192.267 49.3316L192.795 49.4809ZM192.709 49.7831L193.236 49.9323C193.162 50.1942 192.907 50.362 192.637 50.3262L192.709 49.7831ZM190.853 49.5368L190.781 50.0799C190.753 50.0762 190.726 50.0704 190.699 50.0624L190.853 49.5368ZM190.028 49.1882L189.776 49.6751L189.776 49.6751L190.028 49.1882ZM188.379 48.0859L188.726 47.6619L188.726 47.6619L188.379 48.0859ZM183.926 42.2247L184.414 41.9757L184.415 41.9763L183.926 42.2247ZM164.773 27.2974L164.569 27.8059L164.568 27.8053L164.773 27.2974ZM163.386 26.8295L163.537 26.3028L163.537 26.3028L163.386 26.8295ZM160.84 26.3326L160.892 25.7872L160.892 25.7872L160.84 26.3326ZM155.744 28.0101L155.305 27.6823L155.305 27.6823L155.744 28.0101ZM155.492 28.3476L155.931 28.6754C155.836 28.8034 155.689 28.8833 155.529 28.8942C155.37 28.9051 155.214 28.8459 155.102 28.7321L155.492 28.3476ZM141.661 19.8992L142.046 20.2895L141.661 19.8992ZM128.108 33.2511L127.723 32.8608L128.108 33.2511ZM128.016 38.7418L127.626 39.1263L128.016 38.7418ZM137.728 48.5997L138.118 48.2152C138.256 48.3556 138.308 48.5594 138.255 48.7489C138.201 48.9385 138.05 49.0847 137.858 49.1317L137.728 48.5997ZM137.109 48.7518L136.978 48.2198L136.978 48.2198L137.109 48.7518ZM135.501 49.4585L135.186 49.0102L135.188 49.0086L135.501 49.4585ZM133.914 52.1044L134.457 52.1794L134.457 52.1794L133.914 52.1044ZM136.833 57.0261L137.123 56.561L137.124 56.5619L136.833 57.0261ZM139.566 58.1287L139.7 57.5976L139.7 57.5976L139.566 58.1287ZM139.912 58.2164L140.046 57.6853C140.188 57.7212 140.309 57.8122 140.384 57.9381C140.458 58.064 140.479 58.2143 140.442 58.3556L139.912 58.2164ZM139.821 58.5636L140.35 58.7028L140.35 58.7028L139.821 58.5636ZM139.68 60.459L139.135 60.5154L139.134 60.5135L139.68 60.459ZM142.634 64.3531L142.512 64.8871L142.512 64.8871L142.634 64.3531ZM142.977 64.4317L143.1 63.8977C143.394 63.965 143.578 64.2572 143.512 64.5515L142.977 64.4317ZM142.9 64.7772L143.435 64.897L143.435 64.897L142.9 64.7772ZM142.795 66.5391L142.25 66.5953L142.25 66.5943L142.795 66.5391ZM146.712 70.5006L146.656 69.9556C146.664 69.9548 146.672 69.9541 146.68 69.9537L146.712 70.5006ZM147.691 70.4424L147.658 69.8955L147.658 69.8955L147.691 70.4424ZM148.174 70.414L148.142 69.8671C148.316 69.8569 148.485 69.9303 148.596 70.0649C148.707 70.1994 148.748 70.379 148.705 70.5483L148.174 70.414ZM148.055 70.8844L147.524 70.7502L147.524 70.7502L148.055 70.8844ZM147.891 72.5106L148.439 72.4833L148.439 72.484L147.891 72.5106ZM149.365 75.8568L149.001 76.2662L148.999 76.2647L149.365 75.8568ZM151.65 76.6716L151.612 76.125L151.613 76.125L151.65 76.6716ZM157.861 76.2539L157.899 76.8004L157.898 76.8005L157.861 76.2539ZM159.585 75.5604L159.244 75.1319C159.298 75.0885 159.36 75.056 159.427 75.0359L159.585 75.5604ZM159.843 75.4825L159.685 74.9579C159.752 74.9377 159.823 74.9305 159.893 74.9368L159.843 75.4825ZM186.401 72.8397L186.64 73.3329L186.64 73.3329L186.401 72.8397ZM186.642 72.723L186.404 72.2299C186.622 72.1243 186.883 72.1746 187.047 72.3537L186.642 72.723ZM162.402 65.6208L161.858 65.6892L161.858 65.688L162.402 65.6208ZM161.695 63.4867L162.167 63.2078L162.169 63.2119L161.695 63.4867ZM161.547 69.2355L161.111 68.9039L161.111 68.9039L161.547 69.2355ZM161.28 69.5875L161.515 70.0823C161.287 70.1909 161.014 70.1292 160.855 69.9331C160.695 69.737 160.691 69.4572 160.844 69.256L161.28 69.5875ZM176.028 53.6595L176.418 53.275L176.028 53.6595ZM173.441 51.0332L173.831 50.6487L173.831 50.6487L173.441 51.0332ZM157.428 34.781L157.794 34.3729C157.802 34.3805 157.811 34.3884 157.819 34.3965L157.428 34.781ZM156.345 33.679L156.736 33.2944C156.743 33.302 156.75 33.3098 156.757 33.3178L156.345 33.679ZM145.953 23.1303L145.563 23.5148L145.563 23.5148L145.953 23.1303ZM143.164 23.1095L143.548 23.4997L143.164 23.1095ZM130.792 35.2968L130.408 34.9065L130.792 35.2968ZM147.35 54.9148L147.74 54.5303C147.752 54.5417 147.762 54.5536 147.772 54.5659L147.35 54.9148ZM147.519 55.1268L147.089 55.4662L147.089 55.4661L147.519 55.1268ZM147.52 55.1288L147.951 54.7894L147.952 54.7906L147.52 55.1288ZM147.521 55.1296L147.091 55.4689L147.09 55.4677L147.521 55.1296ZM147.558 55.1758L147.624 55.7196C147.434 55.7429 147.246 55.6654 147.127 55.5151L147.558 55.1758ZM147.752 55.152L147.819 55.6958L147.819 55.6958L147.752 55.152ZM148.654 55.0415L148.72 55.5853L148.72 55.5853L148.654 55.0415ZM152.627 58.9767L153.172 58.92L153.172 58.9209L152.627 58.9767ZM152.464 60.9566L151.936 60.8101L151.936 60.8101L152.464 60.9566ZM152.332 61.4319L152.365 61.9788C152.188 61.9896 152.017 61.9143 151.906 61.7767C151.795 61.639 151.757 61.4561 151.804 61.2855L152.332 61.4319ZM152.823 61.402L152.856 61.9489L152.856 61.9489L152.823 61.402ZM158.256 61.0704L158.312 61.6154C158.304 61.6162 158.297 61.6168 158.289 61.6173L158.256 61.0704ZM159.028 61.0996L159.085 60.5548C159.135 60.56 159.183 60.572 159.23 60.5904L159.028 61.0996ZM161.552 63.2445L162.022 62.9635L162.024 62.9656L161.552 63.2445ZM143.183 61.4755L143.253 62.0189C143.181 62.028 143.109 62.0231 143.039 62.0042L143.183 61.4755ZM143.048 61.4389L142.905 61.9677L142.905 61.9677L143.048 61.4389ZM149.334 60.6855L149.615 61.1558C149.55 61.1944 149.478 61.2193 149.404 61.2289L149.334 60.6855ZM149.4 60.6462L149.696 61.107C149.691 61.1102 149.686 61.1134 149.681 61.1165L149.4 60.6462ZM149.42 60.6334L149.728 61.0866L149.716 61.0941L149.42 60.6334ZM149.425 60.6297L149.749 61.0717C149.743 61.0755 149.738 61.0792 149.733 61.0828L149.425 60.6297ZM149.456 60.6066L149.807 61.0271C149.8 61.0328 149.793 61.0382 149.786 61.0436L149.456 60.6066ZM149.49 60.5771L149.86 60.9807L149.86 60.9808L149.49 60.5771ZM149.945 58.9118L149.401 58.9697L149.4 58.9678L149.945 58.9118ZM149.073 57.3518L149.201 56.8191L149.201 56.8191L149.073 57.3518ZM148.946 57.3214L148.874 56.7783C148.941 56.7694 149.009 56.7729 149.074 56.7886L148.946 57.3214ZM142.709 58.1495L142.324 57.7592C142.409 57.6757 142.519 57.622 142.637 57.6064L142.709 58.1495ZM142.186 59.8823L141.641 59.9383L141.641 59.9368L142.186 59.8823ZM158.938 67.0212L159.323 67.4115C159.23 67.5028 159.108 67.5582 158.978 67.5676L158.938 67.0212ZM159.007 66.9534L158.622 66.5631C158.629 66.5566 158.636 66.5503 158.643 66.5442L159.007 66.9534ZM146.278 67.9406L146.221 67.3958C146.227 67.3952 146.233 67.3946 146.238 67.3942L146.278 67.9406ZM146.197 67.9492L146.254 68.4941C146.222 68.4974 146.191 68.498 146.159 68.4958L146.197 67.9492ZM146.071 67.9406L146.034 68.4872C146.001 68.4849 145.968 68.4797 145.936 68.4715L146.071 67.9406ZM145.214 66.3747L145.76 66.3244L145.76 66.3262L145.214 66.3747ZM145.486 64.9434L146.02 65.067C146.007 65.1222 145.986 65.1751 145.957 65.2239L145.486 64.9434ZM145.536 64.7277L146.082 64.6828C146.087 64.7393 146.083 64.7961 146.07 64.8514L145.536 64.7277ZM145.525 64.592L144.979 64.637C144.967 64.4912 145.014 64.3467 145.109 64.2357C145.204 64.1246 145.339 64.0562 145.485 64.0456L145.525 64.592ZM158.467 63.6551L158.525 64.1999C158.519 64.2005 158.513 64.2011 158.507 64.2015L158.467 63.6551ZM158.549 63.6465L158.491 63.1016C158.523 63.0983 158.555 63.0977 158.586 63.0999L158.549 63.6465ZM158.674 63.6551L158.712 63.1085C158.745 63.1108 158.777 63.116 158.809 63.1242L158.674 63.6551ZM159.531 65.2174L160.076 65.1662L160.077 65.1672L159.531 65.2174ZM159.078 66.8893L159.465 67.2771C159.459 67.2829 159.453 67.2886 159.447 67.2942L159.078 66.8893ZM159.032 66.9309L159.397 67.3392L159.396 67.3401L159.032 66.9309ZM139.916 51.5284L139.927 52.0761L139.927 52.0761L139.916 51.5284ZM140.06 51.5253L140.049 50.9776C140.2 50.9744 140.345 51.0335 140.451 51.1409L140.06 51.5253ZM139.716 51.514L139.824 50.9766L139.834 50.9788L139.716 51.514ZM136.583 51.8278L136.901 52.2737L136.9 52.2747L136.583 51.8278ZM136.125 52.6103L136.666 52.6974L136.666 52.6983L136.125 52.6103ZM137.766 54.8581L138.052 54.3904L138.052 54.3906L137.766 54.8581ZM141.391 55.8724L141.329 56.4168L141.329 56.4168L141.391 55.8724ZM141.478 55.8822L141.674 56.3939C141.592 56.4252 141.504 56.4364 141.417 56.4266L141.478 55.8822ZM141.564 55.8495L141.368 55.3378L141.368 55.3378L141.564 55.8495ZM142.196 55.6777L142.117 55.1355L142.12 55.1351L142.196 55.6777ZM143.915 55.4378L144.305 55.0534C144.45 55.2009 144.5 55.4178 144.433 55.6139C144.367 55.81 144.195 55.9518 143.99 55.9805L143.915 55.4378ZM187.235 69.4225L186.707 69.2766L186.707 69.2766L187.235 69.4225ZM189.215 62.2529L188.687 62.107L188.687 62.1069L189.215 62.2529ZM187.201 69.5447L187.729 69.6905C187.695 69.8141 187.619 69.9218 187.513 69.9948L187.201 69.5447ZM187.097 69.6167L187.409 70.0669L187.409 70.0669L187.097 69.6167ZM161.631 72.971L161.587 73.5171L161.587 73.5171L161.631 72.971ZM161.264 72.9417L161.22 73.4878C161.074 73.4761 160.938 73.4059 160.844 73.293C160.749 73.1801 160.704 73.034 160.719 72.8876L161.264 72.9417ZM161.311 72.4712L160.765 72.4172L160.766 72.4159L161.311 72.4712ZM161.333 72.1834L161.88 72.2006L161.88 72.2006L161.333 72.1834ZM161.345 71.7854L160.798 71.7681C160.803 71.6109 160.875 71.4634 160.996 71.3632C161.117 71.263 161.276 71.2196 161.431 71.2443L161.345 71.7854ZM161.739 71.8479L161.654 72.389L161.654 72.389L161.739 71.8479ZM178.555 52.0928L178.165 52.4773L178.555 52.0928ZM168.507 41.8931L168.117 42.2776C168.061 42.2205 168.018 42.1518 167.991 42.0762L168.507 41.8931ZM168.36 41.5645L167.901 41.8631L167.898 41.8582L168.36 41.5645ZM165.17 36.542L165.629 36.2417L165.633 36.2483L165.17 36.542ZM164.657 36.0788L164.411 36.5684L164.408 36.5671L164.657 36.0788ZM159.682 32.9305L159.325 33.3465C159.313 33.3365 159.302 33.326 159.291 33.3151L159.682 32.9305ZM158.443 31.6733L158.052 32.0579C158.038 32.0438 158.025 32.0289 158.013 32.0134L158.443 31.6733ZM157.67 30.09L158.216 30.0461L158.216 30.0461L157.67 30.09ZM157.658 29.9469L157.112 29.9907C157.101 29.8486 157.145 29.7076 157.236 29.5977L157.658 29.9469ZM157.749 29.8371L158.171 30.1863L158.171 30.1863L157.749 29.8371ZM163.555 30.0561L163.759 29.5479L163.761 29.5486L163.555 30.0561ZM181.364 43.8054L180.877 44.0561L180.877 44.056L181.364 43.8054ZM187.083 50.9708L187.407 50.5294L187.407 50.5294L187.083 50.9708ZM189.187 52.1978L189.403 51.6942L189.403 51.6942L189.187 52.1978ZM190.267 52.5517L190.191 53.0943C190.179 53.0927 190.168 53.0907 190.157 53.0884L190.267 52.5517ZM191.428 52.7137L191.504 52.1711L191.504 52.1711L191.428 52.7137ZM191.836 52.7708L191.912 52.2282C192.068 52.2501 192.208 52.3382 192.294 52.4701C192.381 52.602 192.406 52.7647 192.364 52.9168L191.836 52.7708ZM150.879 73.9016L150.928 74.4473C150.859 74.4534 150.79 74.4466 150.724 74.4271L150.879 73.9016ZM150.754 73.8648L150.599 74.3902L150.599 74.3902L150.754 73.8648ZM157.014 73.3554L157.263 73.8432C157.201 73.8752 157.132 73.8948 157.062 73.9011L157.014 73.3554ZM157.08 73.3216L157.345 73.8011C157.34 73.8039 157.335 73.8067 157.329 73.8094L157.08 73.3216ZM157.105 73.3076L157.382 73.78L157.382 73.7801L157.105 73.3076ZM157.112 73.3031L157.414 73.7608C157.407 73.7649 157.401 73.769 157.394 73.7728L157.112 73.3031ZM157.158 73.2723L157.483 73.7132C157.478 73.7167 157.473 73.7201 157.469 73.7234L157.158 73.2723ZM157.754 71.6084L157.207 71.6261L157.207 71.6254L157.754 71.6084ZM157.143 70.079L156.972 70.5994L156.972 70.5994L157.143 70.079ZM157.012 70.0357L156.967 69.4896C157.04 69.4836 157.114 69.4924 157.183 69.5153L157.012 70.0357ZM150.687 70.5549L150.15 70.6614C150.119 70.5083 150.156 70.3494 150.25 70.2248C150.344 70.1002 150.487 70.0217 150.642 70.0089L150.687 70.5549ZM150.692 70.5816L151.23 70.4751C151.276 70.7106 151.164 70.9491 150.953 71.0634L150.692 70.5816ZM150.665 70.5965L150.939 71.0711L150.939 71.0711L150.665 70.5965ZM150.657 70.6015L150.357 70.1429C150.363 70.1387 150.37 70.1346 150.377 70.1306L150.657 70.6015ZM150.649 70.6065L150.952 71.0631L150.952 71.0632L150.649 70.6065ZM150.611 70.6326L150.286 70.1912C150.291 70.1876 150.296 70.1841 150.301 70.1807L150.611 70.6326ZM150.011 72.298L150.559 72.2797L150.559 72.2816L150.011 72.298ZM187.425 73.8566C187.036 73.7753 186.682 73.5797 186.416 73.2879L187.225 72.5493C187.329 72.6631 187.474 72.7475 187.649 72.784L187.425 73.8566ZM215.367 82.0601L187.382 73.846L187.691 72.7946L215.675 81.0087L215.367 82.0601ZM217.483 79.2596L215.994 81.8105L215.048 81.2582L216.537 78.7073L217.483 79.2596ZM189.802 70.2889L217.167 78.4585L216.853 79.5084L189.488 71.3389L189.802 70.2889ZM194.737 54.3734L190.173 70.9592L189.117 70.6685L193.681 54.0827L194.737 54.3734ZM195.499 51.6097L194.737 54.3737L193.681 54.0824L194.443 51.3185L195.499 51.6097ZM195.722 50.8058L195.499 51.6102L194.443 51.318L194.666 50.5136L195.722 50.8058ZM195.795 50.5397L195.722 50.8058L194.666 50.5136L194.739 50.2475L195.795 50.5397ZM224.305 54.8445L195.194 50.9366L195.34 49.8506L224.451 53.7585L224.305 54.8445ZM225.664 52.2343L224.897 54.4786L223.86 54.1244L224.627 51.88L225.664 52.2343ZM194.408 47.2703L225.22 51.5144L225.07 52.5999L194.258 48.3558L194.408 47.2703ZM192.454 48.6714C192.692 47.831 193.474 47.2404 194.349 47.2654L194.318 48.3607C193.958 48.3504 193.614 48.599 193.509 48.97L192.454 48.6714ZM192.267 49.3316L192.454 48.6714L193.509 48.9699L193.322 49.6301L192.267 49.3316ZM192.182 49.6338L192.267 49.3316L193.322 49.6301L193.236 49.9323L192.182 49.6338ZM190.925 48.9937L192.781 49.24L192.637 50.3262L190.781 50.0799L190.925 48.9937ZM190.279 48.7013C190.581 48.8572 190.833 48.9599 191.008 49.0111L190.699 50.0624C190.436 49.9853 190.117 49.8506 189.776 49.6751L190.279 48.7013ZM188.726 47.6619C189.26 48.0994 189.782 48.4452 190.279 48.7013L189.776 49.6751C189.202 49.3789 188.617 48.9886 188.032 48.5098L188.726 47.6619ZM184.415 41.9763C185.69 44.4834 187.15 46.3719 188.726 47.6619L188.032 48.5098C186.31 47.1001 184.763 45.0779 183.438 42.4732L184.415 41.9763ZM164.977 26.7889C169.229 28.4942 173.367 30.8898 176.797 33.5502C180.219 36.2046 182.974 39.1519 184.414 41.9757L183.438 42.4737C182.1 39.8505 179.483 37.0204 176.125 34.416C172.775 31.8177 168.726 29.4731 164.569 27.8059L164.977 26.7889ZM163.537 26.3028C164.073 26.4561 164.58 26.6284 164.979 26.7895L164.568 27.8053C164.212 27.6615 163.743 27.5012 163.236 27.3563L163.537 26.3028ZM160.892 25.7872C161.746 25.8689 162.637 26.0454 163.537 26.3028L163.236 27.3563C162.39 27.1147 161.566 26.9524 160.788 26.8779L160.892 25.7872ZM155.305 27.6823C156.484 26.1043 158.458 25.5543 160.892 25.7872L160.788 26.8779C158.546 26.6635 157.039 27.1924 156.183 28.338L155.305 27.6823ZM155.053 28.0197L155.305 27.6823L156.183 28.338L155.931 28.6754L155.053 28.0197ZM147.547 19.5017L155.882 27.9631L155.102 28.7321L146.766 20.2707L147.547 19.5017ZM141.277 19.5089C143.025 17.7871 145.838 17.7673 147.547 19.5017L146.766 20.2707C145.497 18.9822 143.377 18.9777 142.046 20.2895L141.277 19.5089ZM127.723 32.8608L141.277 19.5089L142.046 20.2895L128.492 33.6414L127.723 32.8608ZM127.626 39.1263C125.917 37.3916 125.976 34.5823 127.723 32.8608L128.492 33.6414C127.162 34.9518 127.136 37.0674 128.407 38.3573L127.626 39.1263ZM137.337 48.9842L127.626 39.1263L128.407 38.3573L138.118 48.2152L137.337 48.9842ZM136.978 48.2198L137.597 48.0677L137.858 49.1317L137.239 49.2839L136.978 48.2198ZM135.188 49.0086C135.714 48.6431 136.316 48.3825 136.978 48.2198L137.239 49.2839C136.692 49.4185 136.216 49.6283 135.813 49.9083L135.188 49.0086ZM133.372 52.0293C133.546 50.7712 134.168 49.725 135.186 49.0102L135.816 49.9067C135.057 50.4396 134.591 51.21 134.457 52.1794L133.372 52.0293ZM136.544 57.4912C134.522 56.2329 133.086 54.0949 133.372 52.0293L134.457 52.1794C134.254 53.6495 135.3 55.4263 137.123 56.561L136.544 57.4912ZM139.431 58.6597C138.298 58.3724 137.34 57.9904 136.542 57.4903L137.124 56.5619C137.801 56.9861 138.646 57.3302 139.7 57.5976L139.431 58.6597ZM139.777 58.7474L139.431 58.6597L139.7 57.5976L140.046 57.6853L139.777 58.7474ZM139.291 58.4244L139.382 58.0772L140.442 58.3556L140.35 58.7028L139.291 58.4244ZM139.134 60.5135C139.063 59.8005 139.115 59.0924 139.291 58.4244L140.35 58.7028C140.21 59.2383 140.166 59.8148 140.225 60.4045L139.134 60.5135ZM142.512 64.8871C140.657 64.4623 139.355 62.6438 139.135 60.5154L140.225 60.4026C140.411 62.2068 141.484 63.5276 142.757 63.819L142.512 64.8871ZM142.855 64.9657L142.512 64.8871L142.757 63.819L143.1 63.8977L142.855 64.9657ZM142.365 64.6573L142.443 64.3119L143.512 64.5515L143.435 64.897L142.365 64.6573ZM142.25 66.5943C142.184 65.9451 142.223 65.2912 142.365 64.6573L143.435 64.897C143.318 65.4162 143.286 65.9519 143.34 66.4838L142.25 66.5943ZM146.768 71.0456C144.408 71.2881 142.518 69.1987 142.25 66.5953L143.34 66.4829C143.57 68.72 145.109 70.1145 146.656 69.9556L146.768 71.0456ZM147.723 70.9893L146.745 71.0475L146.68 69.9537L147.658 69.8955L147.723 70.9893ZM148.206 70.9609L147.723 70.9893L147.658 69.8955L148.142 69.8671L148.206 70.9609ZM147.524 70.7502L147.643 70.2798L148.705 70.5483L148.586 71.0187L147.524 70.7502ZM147.344 72.5379C147.314 71.9385 147.375 71.3383 147.524 70.7502L148.586 71.0187C148.464 71.5037 148.414 71.995 148.439 72.4833L147.344 72.5379ZM148.999 76.2647C148.002 75.3706 147.415 74 147.344 72.5371L148.439 72.484C148.498 73.7029 148.985 74.7806 149.731 75.449L148.999 76.2647ZM151.687 77.2182C150.708 77.2851 149.756 76.9383 149.001 76.2662L149.729 75.4475C150.281 75.9382 150.948 76.1704 151.612 76.125L151.687 77.2182ZM157.898 76.8005L151.686 77.2183L151.613 76.125L157.824 75.7072L157.898 76.8005ZM159.927 75.9888C159.329 76.4655 158.637 76.749 157.899 76.8004L157.823 75.7073C158.322 75.6725 158.805 75.4814 159.244 75.1319L159.927 75.9888ZM160.002 76.007L159.743 76.0849L159.427 75.0359L159.685 74.9579L160.002 76.007ZM186.64 73.3329C180.609 76.2514 171.246 77.0587 159.794 76.0281L159.893 74.9368C171.293 75.9627 180.407 75.1316 186.162 72.3465L186.64 73.3329ZM186.881 73.2162L186.64 73.3329L186.162 72.3466L186.404 72.2299L186.881 73.2162ZM186.416 73.2879L186.238 73.0923L187.047 72.3537L187.225 72.5493L186.416 73.2879ZM161.858 65.688C161.772 64.9875 161.554 64.3352 161.221 63.7615L162.169 63.2119C162.579 63.9185 162.842 64.7131 162.946 65.5537L161.858 65.688ZM161.111 68.9039C161.726 68.095 162.014 66.929 161.858 65.6892L162.946 65.5525C163.131 67.0271 162.8 68.4929 161.984 69.567L161.111 68.9039ZM160.844 69.256L161.111 68.9039L161.984 69.567L161.716 69.9191L160.844 69.256ZM162.754 69.2716C162.517 69.5042 162.195 69.709 161.961 69.8448C161.838 69.9158 161.729 69.9743 161.649 70.0152C161.61 70.0358 161.577 70.052 161.554 70.0634C161.543 70.069 161.533 70.0735 161.527 70.0767C161.524 70.0783 161.521 70.0795 161.519 70.0805C161.518 70.0809 161.517 70.0813 161.517 70.0816C161.516 70.0818 161.516 70.0819 161.516 70.082C161.516 70.0821 161.516 70.0821 161.515 70.0822C161.515 70.0822 161.515 70.0822 161.515 70.0822C161.515 70.0822 161.515 70.0823 161.28 69.5875C161.045 69.0928 161.044 69.0928 161.044 69.0929C161.044 69.0929 161.044 69.0929 161.044 69.0929C161.044 69.0929 161.044 69.0929 161.044 69.0929C161.044 69.093 161.044 69.093 161.044 69.093C161.044 69.0929 161.045 69.0928 161.045 69.0926C161.046 69.0922 161.047 69.0915 161.049 69.0905C161.053 69.0885 161.06 69.0853 161.069 69.0809C161.087 69.0721 161.113 69.0587 161.147 69.0414C161.214 69.0067 161.308 68.9569 161.411 68.8968C161.629 68.7704 161.852 68.6221 161.985 68.491L162.754 69.2716ZM176.436 55.7922L162.754 69.2716L161.985 68.491L175.667 55.0116L176.436 55.7922ZM176.418 53.275C177.106 53.9734 177.139 55.1004 176.436 55.7922L175.667 55.0116C175.91 54.7726 175.93 54.3403 175.638 54.044L176.418 53.275ZM173.831 50.6487L176.418 53.275L175.638 54.044L173.05 51.4177L173.831 50.6487ZM157.819 34.3965L173.831 50.6487L173.05 51.4177L157.038 35.1656L157.819 34.3965ZM156.757 33.3178C157.109 33.7184 157.446 34.0614 157.794 34.3729L157.063 35.1892C156.679 34.845 156.31 34.47 155.933 34.0401L156.757 33.3178ZM146.343 22.7458L156.736 33.2944L155.955 34.0635L145.563 23.5148L146.343 22.7458ZM142.779 22.7192C143.771 21.7424 145.366 21.7543 146.343 22.7458L145.563 23.5148C145.01 22.9544 144.109 22.9477 143.548 23.4997L142.779 22.7192ZM130.408 34.9065L142.779 22.7192L143.548 23.4997L131.177 35.6871L130.408 34.9065ZM130.381 38.4705C129.404 37.479 129.416 35.8833 130.408 34.9065L131.177 35.6871C130.616 36.2392 130.61 37.1411 131.162 37.7015L130.381 38.4705ZM146.96 55.2993L130.381 38.4705L131.162 37.7015L147.74 54.5303L146.96 55.2993ZM147.089 55.4661C146.982 55.3302 146.959 55.302 146.928 55.2637L147.772 54.5659C147.814 54.6161 147.845 54.6559 147.949 54.7875L147.089 55.4661ZM147.09 55.4682L147.089 55.4662L147.949 54.7874L147.951 54.7894L147.09 55.4682ZM147.09 55.4677L147.089 55.4669L147.952 54.7906L147.952 54.7914L147.09 55.4677ZM147.127 55.5151L147.091 55.4689L147.951 54.7903L147.988 54.8365L147.127 55.5151ZM147.819 55.6958L147.624 55.7196L147.491 54.632L147.686 54.6082L147.819 55.6958ZM148.72 55.5853L147.819 55.6958L147.686 54.6082L148.587 54.4977L148.72 55.5853ZM152.082 59.0333C151.848 56.7798 150.29 55.3928 148.72 55.5853L148.587 54.4977C150.979 54.2044 152.899 56.2956 153.172 58.92L152.082 59.0333ZM151.936 60.8101C152.093 60.2432 152.144 59.6379 152.082 59.0325L153.172 58.9209C153.247 59.6592 153.186 60.4018 152.992 61.1031L151.936 60.8101ZM151.804 61.2855L151.936 60.8101L152.992 61.1031L152.86 61.5784L151.804 61.2855ZM152.856 61.9489L152.365 61.9788L152.298 60.8851L152.79 60.8552L152.856 61.9489ZM158.289 61.6173L152.856 61.9489L152.79 60.8552L158.223 60.5235L158.289 61.6173ZM158.97 61.6445C158.629 61.6085 158.419 61.6044 158.312 61.6154L158.2 60.5254C158.427 60.5021 158.731 60.5175 159.085 60.5548L158.97 61.6445ZM161.082 63.5255C160.547 62.6307 159.8 61.9957 158.825 61.6089L159.23 60.5904C160.427 61.0658 161.364 61.8607 162.022 62.9635L161.082 63.5255ZM161.224 63.7656L161.081 63.5234L162.024 62.9656L162.167 63.2078L161.224 63.7656ZM143.039 62.0042L142.905 61.9677L143.192 60.9102L143.327 60.9467L143.039 62.0042ZM149.404 61.2289L143.253 62.0189L143.113 60.9321L149.264 60.1421L149.404 61.2289ZM149.681 61.1165L149.615 61.1558L149.053 60.2152L149.118 60.176L149.681 61.1165ZM149.716 61.0941L149.696 61.107L149.103 60.1855L149.123 60.1726L149.716 61.0941ZM149.733 61.0828L149.728 61.0864L149.111 60.1803L149.117 60.1767L149.733 61.0828ZM149.786 61.0436C149.775 61.0517 149.769 61.0569 149.764 61.0607C149.757 61.0655 149.753 61.0685 149.749 61.0717L149.101 60.1878C149.105 60.1851 149.105 60.1851 149.106 60.1842C149.109 60.1821 149.113 60.1787 149.125 60.1697L149.786 61.0436ZM149.86 60.9808C149.841 60.9989 149.823 61.0138 149.807 61.0271L149.104 60.1861C149.119 60.1737 149.12 60.1729 149.119 60.1735L149.86 60.9808ZM149.898 60.9442C149.887 60.9555 149.875 60.9677 149.86 60.9807L149.119 60.1736C149.119 60.1736 149.119 60.1735 149.12 60.1732C149.12 60.1729 149.12 60.1725 149.121 60.1717C149.123 60.1701 149.125 60.1677 149.13 60.1637L149.898 60.9442ZM150.49 58.8538C150.572 59.6228 150.385 60.4652 149.898 60.9442L149.13 60.1637C149.291 60.005 149.462 59.5515 149.401 58.9697L150.49 58.8538ZM149.201 56.8191C149.615 56.9185 149.913 57.2789 150.095 57.5963C150.296 57.945 150.442 58.3867 150.49 58.8557L149.4 58.9678C149.367 58.646 149.266 58.3529 149.145 58.142C149.006 57.8998 148.908 57.8756 148.946 57.8846L149.201 56.8191ZM149.074 56.7886L149.201 56.8191L148.946 57.8846L148.819 57.8541L149.074 56.7886ZM142.637 57.6064L148.874 56.7783L149.019 57.8645L142.781 58.6926L142.637 57.6064ZM142.237 57.8452L142.324 57.7592L143.093 58.5398L143.006 58.6258L142.237 57.8452ZM141.641 59.9368C141.564 59.1635 141.751 58.3236 142.237 57.8452L143.006 58.6258C142.845 58.7841 142.673 59.2362 142.732 59.8278L141.641 59.9368ZM142.905 61.9677C142.502 61.8584 142.212 61.5014 142.032 61.1849C141.834 60.8381 141.689 60.4009 141.641 59.9383L142.731 59.8262C142.764 60.1406 142.863 60.4311 142.984 60.6431C143.122 60.8854 143.222 60.9183 143.192 60.9102L142.905 61.9677ZM158.554 66.6309L158.622 66.5631L159.391 67.3437L159.323 67.4115L158.554 66.6309ZM146.238 67.3942L158.898 66.4747L158.978 67.5676L146.318 68.4871L146.238 67.3942ZM146.139 67.4044L146.221 67.3958L146.336 68.4855L146.254 68.4941L146.139 67.4044ZM146.109 67.394L146.234 67.4027L146.159 68.4958L146.034 68.4872L146.109 67.394ZM145.76 66.3262C145.788 66.6452 145.885 66.9371 146.004 67.1482C146.14 67.3895 146.239 67.4181 146.207 67.4097L145.936 68.4715C145.525 68.3667 145.23 68.0065 145.05 67.6861C144.852 67.3354 144.71 66.8926 144.668 66.4232L145.76 66.3262ZM145.957 65.2239C145.811 65.4688 145.718 65.8752 145.76 66.3244L144.668 66.4249C144.611 65.7982 144.726 65.1484 145.015 64.6629L145.957 65.2239ZM146.07 64.8514L146.02 65.067L144.952 64.8197L145.002 64.6041L146.07 64.8514ZM146.071 64.5471L146.082 64.6828L144.99 64.7727L144.979 64.637L146.071 64.5471ZM158.507 64.2015L145.564 65.1385L145.485 64.0456L158.428 63.1086L158.507 64.2015ZM158.606 64.1913L158.525 64.1999L158.41 63.1102L158.491 63.1016L158.606 64.1913ZM158.636 64.2017L158.511 64.193L158.586 63.0999L158.712 63.1085L158.636 64.2017ZM158.986 65.2687C158.956 64.9494 158.857 64.6573 158.738 64.4462C158.602 64.2041 158.504 64.1771 158.539 64.1859L158.809 63.1242C159.22 63.2288 159.513 63.5893 159.693 63.9078C159.89 64.2572 160.032 64.6984 160.076 65.1662L158.986 65.2687ZM158.691 66.5016C158.864 66.3285 159.04 65.8618 158.985 65.2677L160.077 65.1672C160.149 65.9484 159.952 66.7913 159.465 67.2771L158.691 66.5016ZM158.667 66.5225C158.676 66.5139 158.684 66.5072 158.709 66.4844L159.447 67.2942C159.423 67.3163 159.412 67.3266 159.397 67.3392L158.667 66.5225ZM158.643 66.5442L158.668 66.5217L159.396 67.3401L159.371 67.3625L158.643 66.5442ZM139.904 50.9806L140.049 50.9776L140.072 52.0731L139.927 52.0761L139.904 50.9806ZM139.834 50.9788C139.831 50.9782 139.843 50.9819 139.904 50.9806L139.927 52.0761C139.827 52.0782 139.717 52.0751 139.599 52.0492L139.834 50.9788ZM136.264 51.3819C136.678 51.0864 137.255 50.9293 137.85 50.8691C138.458 50.8076 139.145 50.8412 139.824 50.9767L139.609 52.0512C139.03 51.9356 138.453 51.9094 137.96 51.9593C137.455 52.0104 137.094 52.1358 136.901 52.2737L136.264 51.3819ZM135.584 52.5232C135.662 52.0364 135.872 51.6605 136.266 51.3809L136.9 52.2747C136.777 52.3617 136.704 52.46 136.666 52.6974L135.584 52.5232ZM137.481 55.3257C136.925 54.9867 136.438 54.5215 136.097 54.0512C135.927 53.8156 135.784 53.5667 135.69 53.3196C135.599 53.0794 135.539 52.7999 135.584 52.5223L136.666 52.6983C136.663 52.7148 136.661 52.7885 136.715 52.9311C136.766 53.0669 136.856 53.2307 136.985 53.4084C137.243 53.765 137.624 54.1295 138.052 54.3904L137.481 55.3257ZM141.329 56.4168C139.689 56.2323 138.39 55.8812 137.48 55.3256L138.052 54.3906C138.761 54.8239 139.874 55.1505 141.452 55.3279L141.329 56.4168ZM141.417 56.4266L141.329 56.4168L141.452 55.3279L141.539 55.3378L141.417 56.4266ZM141.759 56.3611L141.674 56.3939L141.282 55.3705L141.368 55.3378L141.759 56.3611ZM142.274 56.2199C142.124 56.2417 141.952 56.2875 141.759 56.3611L141.368 55.3378C141.62 55.2413 141.872 55.1711 142.117 55.1355L142.274 56.2199ZM143.99 55.9805L142.271 56.2203L142.12 55.1351L143.839 54.8952L143.99 55.9805ZM140.451 51.1409L144.305 55.0534L143.524 55.8223L139.67 51.9098L140.451 51.1409ZM186.707 69.2766L188.687 62.107L189.743 62.3987L187.763 69.5684L186.707 69.2766ZM186.673 69.3988L186.707 69.2766L187.763 69.5683L187.729 69.6905L186.673 69.3988ZM186.785 69.1666L186.889 69.0945L187.513 69.9948L187.409 70.0669L186.785 69.1666ZM161.675 72.4248C167.568 72.8951 172.721 72.8687 176.973 72.3253C181.233 71.7809 184.541 70.7229 186.785 69.1666L187.409 70.0669C184.96 71.7659 181.453 72.8573 177.112 73.4122C172.762 73.9682 167.528 73.9912 161.587 73.5171L161.675 72.4248ZM161.308 72.3955L161.675 72.4248L161.587 73.5171L161.22 73.4878L161.308 72.3955ZM161.856 72.5253L161.809 72.9957L160.719 72.8876L160.765 72.4172L161.856 72.5253ZM161.88 72.2006C161.877 72.298 161.87 72.3864 161.856 72.5266L160.766 72.4159C160.779 72.2836 160.783 72.2251 160.785 72.1661L161.88 72.2006ZM161.893 71.8026L161.88 72.2006L160.785 72.1662L160.798 71.7681L161.893 71.8026ZM161.654 72.389L161.259 72.3265L161.431 71.2443L161.825 71.3067L161.654 72.389ZM165.467 71.1706C164.46 72.1621 163.044 72.6094 161.654 72.389L161.825 71.3067C162.875 71.4732 163.941 71.1351 164.698 70.39L165.467 71.1706ZM178.879 57.9578L165.467 71.1706L164.698 70.39L178.11 57.1772L178.879 57.9578ZM178.946 51.7084C180.654 53.4424 180.619 56.2439 178.879 57.9578L178.11 57.1772C179.424 55.8826 179.443 53.7748 178.165 52.4773L178.946 51.7084ZM168.898 41.5087L178.946 51.7084L178.165 52.4773L168.117 42.2776L168.898 41.5087ZM168.82 41.2659C168.901 41.3901 168.957 41.5216 169.024 41.7101L167.991 42.0762C167.934 41.915 167.911 41.8791 167.901 41.8631L168.82 41.2659ZM165.633 36.2483L168.823 41.2707L167.898 41.8582L164.708 36.8358L165.633 36.2483ZM164.903 35.5891C165.198 35.7376 165.448 35.9666 165.629 36.2418L164.712 36.8423C164.632 36.7201 164.525 36.6258 164.411 36.5684L164.903 35.5891ZM160.038 32.5144C161.153 33.4702 162.773 34.5058 164.905 35.5904L164.408 36.5671C162.234 35.4611 160.531 34.3799 159.325 33.3465L160.038 32.5144ZM158.833 31.2887L160.072 32.5459L159.291 33.3151L158.052 32.0579L158.833 31.2887ZM158.216 30.0461C158.237 30.3138 158.414 30.7545 158.872 31.3333L158.013 32.0134C157.499 31.3642 157.17 30.7168 157.124 30.1338L158.216 30.0461ZM158.204 29.903L158.216 30.0461L157.124 30.1338L157.112 29.9907L158.204 29.903ZM158.171 30.1863L158.08 30.296L157.236 29.5977L157.327 29.488L158.171 30.1863ZM163.35 30.5644C162.131 30.0735 160.929 29.8084 159.963 29.7701C159.479 29.751 159.072 29.7894 158.759 29.8731C158.441 29.9579 158.261 30.0773 158.171 30.1863L157.327 29.488C157.613 29.1416 158.031 28.9332 158.476 28.8143C158.926 28.6943 159.449 28.6532 160.006 28.6753C161.121 28.7193 162.446 29.0192 163.759 29.5479L163.35 30.5644ZM180.877 44.056C179.686 41.7407 177.257 39.156 174.12 36.7423C170.993 34.336 167.205 32.1326 163.348 30.5636L163.761 29.5486C167.711 31.1555 171.584 33.4086 174.788 35.8739C177.982 38.3318 180.554 41.0338 181.851 43.5548L180.877 44.056ZM186.758 51.4123C184.53 49.7743 182.552 47.311 180.877 44.0561L181.851 43.5547C183.471 46.7032 185.351 49.0175 187.407 50.5294L186.758 51.4123ZM188.971 52.7013C188.243 52.3891 187.5 51.9574 186.758 51.4123L187.407 50.5294C188.091 51.0321 188.762 51.4194 189.403 51.6942L188.971 52.7013ZM190.157 53.0884C189.782 53.0118 189.399 52.885 188.971 52.7013L189.403 51.6942C189.782 51.8567 190.092 51.9568 190.376 52.0149L190.157 53.0884ZM191.352 53.2563L190.191 53.0943L190.342 52.0091L191.504 52.1711L191.352 53.2563ZM191.76 53.3134L191.352 53.2563L191.504 52.1711L191.912 52.2282L191.76 53.3134ZM188.687 62.1069L191.308 52.6249L192.364 52.9168L189.743 62.3988L188.687 62.1069ZM150.724 74.4271L150.599 74.3902L150.909 73.3393L151.034 73.3761L150.724 74.4271ZM157.062 73.9011L150.928 74.4473L150.831 73.3559L156.965 72.8096L157.062 73.9011ZM157.329 73.8094L157.263 73.8432L156.764 72.8675L156.831 72.8337L157.329 73.8094ZM157.382 73.7801C157.37 73.7875 157.357 73.7942 157.345 73.8011L156.815 72.842C156.823 72.8375 156.827 72.8354 156.829 72.8341C156.831 72.8332 156.83 72.8339 156.828 72.835L157.382 73.7801ZM157.394 73.7728C157.392 73.7741 157.387 73.777 157.382 73.78L156.827 72.8352C156.827 72.8355 156.827 72.8357 156.827 72.8354C156.828 72.835 156.828 72.8346 156.83 72.8335L157.394 73.7728ZM157.469 73.7234C157.452 73.7346 157.442 73.7415 157.435 73.7464C157.426 73.7529 157.42 73.7567 157.414 73.7608L156.811 72.8455C156.816 72.8421 156.816 72.8421 156.818 72.8408C156.822 72.838 156.829 72.8333 156.847 72.8211L157.469 73.7234ZM157.628 73.5879C157.582 73.6331 157.531 73.6779 157.483 73.7132L156.833 72.8313C156.829 72.8336 156.831 72.8323 156.838 72.8267C156.844 72.8216 156.851 72.8149 156.859 72.8073L157.628 73.5879ZM158.302 71.5908C158.326 72.3389 158.099 73.1241 157.628 73.5879L156.859 72.8073C157.042 72.6266 157.225 72.1823 157.207 71.6261L158.302 71.5908ZM157.315 69.5587C157.708 69.6881 157.938 70.0512 158.067 70.363C158.207 70.7031 158.287 71.127 158.302 71.5915L157.207 71.6254C157.195 71.258 157.132 70.9703 157.054 70.7802C156.964 70.5619 156.902 70.5762 156.972 70.5994L157.315 69.5587ZM157.183 69.5153L157.315 69.5587L156.972 70.5994L156.84 70.556L157.183 69.5153ZM150.642 70.0089L156.967 69.4896L157.057 70.5817L150.732 71.1009L150.642 70.0089ZM150.155 70.6881L150.15 70.6614L151.224 70.4484L151.23 70.4751L150.155 70.6881ZM150.391 70.1219C150.405 70.1142 150.418 70.1069 150.432 70.0998L150.953 71.0634C150.944 71.0682 150.94 71.0705 150.937 71.072C150.935 71.0731 150.937 71.0724 150.939 71.0711L150.391 70.1219ZM150.377 70.1306C150.379 70.1289 150.385 70.1255 150.391 70.1219L150.939 71.0711C150.94 71.0703 150.941 71.0698 150.937 71.0724L150.377 70.1306ZM150.346 70.1499C150.35 70.1473 150.354 70.1449 150.357 70.1429L150.956 71.06C150.953 71.062 150.952 71.0627 150.952 71.0631L150.346 70.1499ZM150.301 70.1807C150.324 70.1649 150.335 70.1572 150.346 70.1498L150.952 71.0632C150.951 71.0634 150.95 71.0641 150.946 71.0672C150.941 71.0706 150.934 71.0755 150.921 71.0844L150.301 70.1807ZM150.14 70.3174C150.186 70.272 150.238 70.2268 150.286 70.1912L150.935 71.0739C150.938 71.0723 150.938 71.0718 150.937 71.0729C150.936 71.0738 150.934 71.0755 150.931 71.0781C150.925 71.0833 150.917 71.0901 150.909 71.098L150.14 70.3174ZM149.464 72.3163C149.439 71.5707 149.669 70.7812 150.14 70.3174L150.909 71.098C150.724 71.28 150.541 71.7297 150.559 72.2797L149.464 72.3163ZM150.599 74.3902C150.193 74.2702 149.922 73.8945 149.765 73.5741C149.591 73.2201 149.478 72.778 149.464 72.3144L150.559 72.2816C150.568 72.5948 150.646 72.883 150.749 73.0917C150.867 73.334 150.957 73.3532 150.909 73.3393L150.599 74.3902Z" fill="#132C45"/>
<path fill-rule="evenodd" clip-rule="evenodd" d="M146.608 31.3393L145.351 32.578C145.101 32.8238 144.7 32.8208 144.454 32.5713L144.226 32.3398C143.98 32.0903 143.983 31.6886 144.233 31.4428L146.177 29.5268C146.405 29.3029 146.758 29.2854 147.005 29.4725C147.03 29.491 147.053 29.5115 147.075 29.534L148.981 31.4682C149.227 31.7178 149.224 32.1195 148.974 32.3653L148.738 32.5975C148.489 32.8434 148.087 32.8403 147.841 32.5908L146.608 31.3393ZM137.063 39.8826C137.057 39.8777 137.052 39.8728 137.047 39.8678L136.819 39.6363C136.574 39.3868 136.577 38.9851 136.826 38.7393L138.771 36.8233C139.021 36.5774 139.422 36.5804 139.668 36.83L139.896 37.0614C140.142 37.311 140.139 37.7126 139.889 37.9585L138.632 39.1969L139.865 40.448C140.111 40.6976 140.108 41.0992 139.858 41.3451L139.622 41.5773C139.373 41.8231 138.971 41.8201 138.725 41.5705L137.063 39.8826ZM154.344 36.9127C154.098 36.6631 153.697 36.6601 153.447 36.906L153.211 37.1381C152.962 37.384 152.959 37.7856 153.205 38.0352L154.437 39.2865L153.18 40.5251C152.93 40.771 152.927 41.1726 153.173 41.4222L153.401 41.6536C153.647 41.9032 154.049 41.9062 154.298 41.6603L156.243 39.7443C156.482 39.5088 156.495 39.1304 156.28 38.8796C156.27 38.8684 156.26 38.8575 156.249 38.8469L154.344 36.9127ZM144.096 46.1182C143.846 46.364 143.843 46.7657 144.089 47.0152L145.756 48.7075L145.767 48.7183L145.994 48.9497C146.24 49.1993 146.642 49.2023 146.892 48.9564L148.836 47.0405C149.086 46.7946 149.089 46.393 148.843 46.1434L148.615 45.912C148.369 45.6624 147.968 45.6594 147.718 45.9052L146.461 47.1437L145.229 45.8927C144.983 45.6431 144.581 45.6401 144.331 45.886L144.096 46.1182Z" fill="#132C45"/>
<path fill-rule="evenodd" clip-rule="evenodd" d="M110.93 33.0475C111.404 33.0225 111.804 33.3902 111.824 33.8654L111.864 34.8268C113.191 33.2382 114.637 32.1337 116.163 31.4761C117.857 30.7443 119.558 30.5921 121.164 30.8633C122.001 31.0047 122.69 31.2355 123.199 31.4772C123.248 31.5002 123.281 31.5169 123.307 31.5306C123.727 31.7534 123.883 32.2734 123.663 32.6923C123.57 32.8687 123.421 33.0055 123.241 33.083C123.006 33.1847 122.735 33.1765 122.505 33.0539L122.54 33.0704C122.169 32.8809 121.556 32.6645 120.773 32.5441C119.496 32.3479 118.168 32.4788 116.83 33.0564C115.513 33.6254 114.253 34.5993 113.067 36.0543L114.204 36.0034C114.679 35.9822 115.076 36.3536 115.092 36.8292C115.104 37.188 114.894 37.5134 114.57 37.653C114.476 37.6936 114.376 37.717 114.272 37.722L111.131 37.8622C110.664 37.8829 110.272 37.5234 110.244 37.044L110.115 33.9471C110.096 33.4752 110.459 33.0723 110.93 33.0475ZM127.236 47.5898C126.762 47.6148 126.362 47.2472 126.341 46.7719L126.301 45.8106C124.975 47.3991 123.529 48.5036 122.002 49.1612C120.309 49.893 118.608 50.0452 117.002 49.774C116.165 49.6326 115.476 49.4018 114.966 49.1601C114.918 49.1371 114.885 49.1204 114.859 49.1067C114.439 48.8839 114.282 48.364 114.503 47.945C114.596 47.7686 114.745 47.6318 114.925 47.5543C115.16 47.4527 115.43 47.4608 115.661 47.5834L115.626 47.5669C115.996 47.7564 116.61 47.9729 117.393 48.0932C118.67 48.2894 119.997 48.1585 121.336 47.5809C122.653 47.0119 123.912 46.038 125.099 44.583L123.962 44.6339C123.487 44.6551 123.089 44.2837 123.074 43.8081C123.062 43.4494 123.272 43.1239 123.595 42.9843C123.689 42.9437 123.79 42.9203 123.894 42.9153L127.035 42.7751C127.502 42.7544 127.894 43.1139 127.922 43.5933L128.05 46.6902C128.07 47.1621 127.707 47.565 127.236 47.5898Z" fill="#50E3C2"/>
</g>
<defs>
<clipPath id="clip0">
<rect width="240" height="110" fill="white"/>
</clipPath>
</defs>
</svg>
