<svg width="240" height="74" viewBox="0 0 240 74" fill="none" xmlns="http://www.w3.org/2000/svg">
<rect width="240" height="74" fill="white"/>
<path d="M195.71 61.3871H43.2903C39.9371 61.3871 37.1935 58.6436 37.1935 55.2903V18.7097C37.1935 15.3565 39.9371 12.6129 43.2903 12.6129H195.71C199.063 12.6129 201.806 15.3565 201.806 18.7097V55.2903C201.806 58.6436 199.063 61.3871 195.71 61.3871Z" fill="black"/>
<path d="M195.71 13.5884C198.539 13.5884 200.831 15.8808 200.831 18.7097V55.2903C200.831 58.1192 198.539 60.4116 195.71 60.4116H43.2903C40.4614 60.4116 38.169 58.1192 38.169 55.2903V18.7097C38.169 15.8808 40.4614 13.5884 43.2903 13.5884H195.71ZM195.71 12.6129H43.2903C39.9371 12.6129 37.1935 15.3565 37.1935 18.7097V55.2903C37.1935 58.6436 39.9371 61.3871 43.2903 61.3871H195.71C199.063 61.3871 201.806 58.6436 201.806 55.2903V18.7097C201.806 15.3565 199.063 12.6129 195.71 12.6129Z" fill="#A6A6A6"/>
<path d="M120.28 39.1339C117.415 39.1339 115.074 41.3165 115.074 44.3161C115.074 47.3035 117.415 49.4984 120.28 49.4984C123.146 49.4984 125.487 47.3035 125.487 44.3161C125.487 41.3165 123.146 39.1339 120.28 39.1339ZM120.28 47.4621C118.707 47.4621 117.354 46.1695 117.354 44.3161C117.354 42.4505 118.707 41.1702 120.28 41.1702C121.853 41.1702 123.207 42.4505 123.207 44.3161C123.207 46.1695 121.841 47.4621 120.28 47.4621ZM108.916 39.1339C106.051 39.1339 103.709 41.3165 103.709 44.3161C103.709 47.3035 106.051 49.4984 108.916 49.4984C111.781 49.4984 114.123 47.3035 114.123 44.3161C114.123 41.3165 111.781 39.1339 108.916 39.1339ZM108.916 47.4621C107.343 47.4621 105.99 46.1695 105.99 44.3161C105.99 42.4505 107.343 41.1702 108.916 41.1702C110.489 41.1702 111.842 42.4505 111.842 44.3161C111.842 46.1695 110.489 47.4621 108.916 47.4621ZM95.4055 40.7312V42.9261H100.673C100.515 44.1576 100.1 45.0721 99.4782 45.694C98.71 46.4622 97.515 47.3035 95.4177 47.3035C92.1743 47.3035 89.638 44.6941 89.638 41.4506C89.638 38.2072 92.1743 35.5977 95.4177 35.5977C97.1614 35.5977 98.4417 36.2806 99.3806 37.1707L100.929 35.6221C99.6123 34.3662 97.8686 33.4029 95.4055 33.4029C90.9671 33.4029 87.2359 37.0122 87.2359 41.4628C87.2359 45.9013 90.9671 49.5228 95.4055 49.5228C97.8077 49.5228 99.6123 48.7424 101.027 47.267C102.478 45.8159 102.929 43.7674 102.929 42.1213C102.929 41.6092 102.892 41.1336 102.807 40.7434H95.4055V40.7312ZM150.655 42.4383C150.228 41.2799 148.911 39.1339 146.216 39.1339C143.546 39.1339 141.326 41.2312 141.326 44.3161C141.326 47.2182 143.521 49.4984 146.472 49.4984C148.85 49.4984 150.228 48.0473 150.789 47.206L149.021 46.0232C148.435 46.889 147.631 47.4621 146.472 47.4621C145.314 47.4621 144.485 46.9255 143.96 45.8891L150.898 43.0236L150.655 42.4383ZM143.582 44.1698C143.521 42.1701 145.131 41.1458 146.289 41.1458C147.192 41.1458 147.96 41.597 148.216 42.2432L143.582 44.1698ZM137.949 49.1935H140.229V33.9516H137.949V49.1935ZM134.218 40.2922H134.132C133.62 39.6826 132.645 39.1339 131.401 39.1339C128.804 39.1339 126.426 41.4141 126.426 44.3405C126.426 47.2426 128.804 49.5106 131.401 49.5106C132.632 49.5106 133.62 48.9619 134.132 48.3278H134.205V49.0716C134.205 51.0592 133.145 52.12 131.437 52.12C130.047 52.12 129.182 51.1201 128.828 50.2788L126.841 51.1079C127.414 52.4858 128.926 54.1685 131.437 54.1685C134.108 54.1685 136.364 52.5955 136.364 48.7668V39.4509H134.205V40.2922H134.218ZM131.596 47.4621C130.023 47.4621 128.706 46.1452 128.706 44.3405C128.706 42.5115 130.023 41.1824 131.596 41.1824C133.145 41.1824 134.364 42.5237 134.364 44.3405C134.376 46.1452 133.157 47.4621 131.596 47.4621ZM161.336 33.9516H155.886V49.1935H158.166V43.4138H161.348C163.872 43.4138 166.348 41.5848 166.348 38.6827C166.348 35.7806 163.848 33.9516 161.336 33.9516ZM161.385 41.2921H158.154V36.0611H161.385C163.092 36.0611 164.055 37.4755 164.055 38.6705C164.055 39.8655 163.092 41.2921 161.385 41.2921ZM175.456 39.1095C173.81 39.1095 172.103 39.8411 171.396 41.4384L173.42 42.2798C173.847 41.4384 174.651 41.158 175.493 41.158C176.663 41.158 177.871 41.8652 177.883 43.1212V43.2797C177.468 43.048 176.59 42.6944 175.505 42.6944C173.322 42.6944 171.115 43.8893 171.115 46.1208C171.115 48.1571 172.896 49.474 174.895 49.474C176.419 49.474 177.273 48.7911 177.797 47.9864H177.871V49.1692H180.065V43.3284C180.078 40.6215 178.053 39.1095 175.456 39.1095ZM175.176 47.4621C174.432 47.4621 173.395 47.0841 173.395 46.1695C173.395 44.999 174.688 44.5478 175.81 44.5478C176.81 44.5478 177.285 44.7673 177.883 45.0599C177.712 46.4622 176.493 47.4621 175.176 47.4621ZM188.077 39.4387L185.467 46.0476H185.394L182.687 39.4387H180.236L184.297 48.6814L181.98 53.8149H184.357L190.613 39.4387H188.077ZM167.591 49.1935H169.872V33.9516H167.591V49.1935Z" fill="white"/>
<path d="M49.9236 21.8068C49.57 22.1848 49.3627 22.7701 49.3627 23.5139V50.486C49.3627 51.242 49.57 51.8273 49.9236 52.1931L50.009 52.2785L65.1168 37.1829V37V36.8171L50.009 21.7214L49.9236 21.8068Z" fill="url(#paint0_linear)"/>
<path d="M70.1527 42.2188L65.1168 37.1829V37V36.8171L70.1527 31.7811L70.2624 31.8421L76.2251 35.2319C77.9322 36.1952 77.9322 37.7804 76.2251 38.7558L70.2624 42.1456L70.1527 42.2188Z" fill="url(#paint1_linear)"/>
<path d="M70.2625 42.1457L65.1168 37L49.9236 52.1932C50.4845 52.7906 51.4112 52.8638 52.4599 52.2663L70.2625 42.1457Z" fill="url(#paint2_linear)"/>
<path d="M70.2624 31.8543L52.4477 21.7337C51.399 21.1362 50.4723 21.2094 49.9114 21.8068L65.1168 37L70.2624 31.8543Z" fill="url(#paint3_linear)"/>
<path opacity="0.2" d="M70.1527 42.0359L52.4477 52.0956C51.46 52.6565 50.5699 52.6199 50.009 52.1078L49.9236 52.1931L50.009 52.2785C50.5821 52.7906 51.46 52.8272 52.4477 52.2663L70.2625 42.1457L70.1527 42.0359Z" fill="black"/>
<path opacity="0.12" d="M49.9236 52.0224C49.57 51.6444 49.3627 51.0591 49.3627 50.3153V50.4982C49.3627 51.2542 49.57 51.8395 49.9236 52.2053L50.009 52.12L49.9236 52.0224Z" fill="black"/>
<path opacity="0.12" d="M76.2251 38.5852L70.1405 42.0359L70.2502 42.1457L76.2129 38.7559C77.0664 38.2681 77.4932 37.6341 77.4932 37C77.4322 37.5731 77.0055 38.1462 76.2251 38.5852Z" fill="black"/>
<path opacity="0.25" d="M52.4477 21.9043L76.2251 35.4148C76.9933 35.8537 77.4323 36.4146 77.5054 36.9999C77.5054 36.3659 77.0787 35.7196 76.2251 35.2441L52.4477 21.7336C50.7406 20.7703 49.3505 21.5751 49.3505 23.5261V23.709C49.3505 21.7458 50.7528 20.941 52.4477 21.9043Z" fill="white"/>
<path d="M89.638 28.623C89.1015 28.623 88.6503 28.4767 88.2723 28.1841C87.8943 27.8914 87.6261 27.4768 87.4797 26.9281L88.3333 26.5745C88.5528 27.3427 88.9917 27.7329 89.6746 27.7329C90.1135 27.7329 90.4428 27.5866 90.6866 27.3061C90.9183 27.0257 91.0403 26.6355 91.0403 26.1599V21.1484H91.9792V26.1355C91.9792 26.9281 91.7597 27.55 91.3207 27.9768C90.8817 28.4157 90.3208 28.623 89.638 28.623Z" fill="white" stroke="white" stroke-width="0.243871" stroke-miterlimit="10"/>
<path d="M97.8077 22.0507H94.4788V24.3675H97.4784V25.2454H94.4788V27.5622H97.8077V28.4645H93.5399V21.1484H97.8077V22.0507Z" fill="white" stroke="white" stroke-width="0.243871" stroke-miterlimit="10"/>
<path d="M101.771 28.4645H100.832V22.0507H98.7831V21.1484H103.807V22.0507H101.758V28.4645H101.771Z" fill="white" stroke="white" stroke-width="0.243871" stroke-miterlimit="10"/>
<path d="M104.587 28.4645V27.489L108.477 22.0507H104.746V21.1484H109.574V22.1239L105.685 27.5622H109.623V28.4645H104.587Z" fill="white" stroke="white" stroke-width="0.243871" stroke-miterlimit="10"/>
<path d="M113.452 28.4645H112.513V22.0507H110.477V21.1484H115.5V22.0507H113.452V28.4645V28.4645Z" fill="white" stroke="white" stroke-width="0.243871" stroke-miterlimit="10"/>
<path d="M119.134 28.4645V21.1484H121.78C122.353 21.1484 122.853 21.3435 123.268 21.7093C123.682 22.0873 123.902 22.5628 123.902 23.1359C123.902 23.4895 123.816 23.7944 123.634 24.0504C123.451 24.3187 123.219 24.5138 122.914 24.6479V24.6845C123.28 24.8064 123.573 25.0137 123.804 25.3186C124.036 25.6234 124.158 25.9648 124.158 26.3672C124.158 26.9647 123.938 27.4646 123.499 27.8548C123.048 28.2694 122.524 28.4645 121.926 28.4645H119.134ZM120.085 24.2821H121.792C122.146 24.2821 122.426 24.1602 122.646 23.9285C122.865 23.6968 122.963 23.4408 122.963 23.1603C122.963 22.8799 122.865 22.6238 122.646 22.3921C122.439 22.1604 122.17 22.0385 121.829 22.0385H120.085V24.2821ZM120.085 27.5622H121.975C122.341 27.5622 122.634 27.4402 122.853 27.1842C123.073 26.9281 123.195 26.6599 123.195 26.355C123.195 26.0502 123.085 25.7819 122.841 25.5381C122.609 25.2942 122.304 25.1601 121.926 25.1601H120.073V27.5622H120.085Z" fill="white" stroke="white" stroke-width="0.243871" stroke-miterlimit="10"/>
<path d="M129.682 22.0507H126.353V24.3675H129.352V25.2454H126.353V27.5622H129.682V28.4645H125.414V21.1484H129.682V22.0507Z" fill="white" stroke="white" stroke-width="0.243871" stroke-miterlimit="10"/>
<path d="M131.157 28.4645V21.1484H132.096V28.4645H131.157Z" fill="white" stroke="white" stroke-width="0.243871" stroke-miterlimit="10"/>
<defs>
<linearGradient id="paint0_linear" x1="63.7751" y1="23.2331" x2="43.3114" y2="43.6968" gradientUnits="userSpaceOnUse">
<stop stop-color="#00A0FF"/>
<stop offset="0.00657445" stop-color="#00A1FF"/>
<stop offset="0.2601" stop-color="#00BEFF"/>
<stop offset="0.5122" stop-color="#00D2FF"/>
<stop offset="0.7604" stop-color="#00DFFF"/>
<stop offset="1" stop-color="#00E3FF"/>
</linearGradient>
<linearGradient id="paint1_linear" x1="78.4497" y1="37.0017" x2="48.9451" y2="37.0017" gradientUnits="userSpaceOnUse">
<stop stop-color="#FFE000"/>
<stop offset="0.4087" stop-color="#FFBD00"/>
<stop offset="0.7754" stop-color="#FFA500"/>
<stop offset="1" stop-color="#FF9C00"/>
</linearGradient>
<linearGradient id="paint2_linear" x1="67.4665" y1="39.7998" x2="39.716" y2="67.5502" gradientUnits="userSpaceOnUse">
<stop stop-color="#FF3A44"/>
<stop offset="1" stop-color="#C31162"/>
</linearGradient>
<linearGradient id="paint3_linear" x1="46.0915" y1="12.8277" x2="58.4834" y2="25.2194" gradientUnits="userSpaceOnUse">
<stop stop-color="#32A071"/>
<stop offset="0.0685" stop-color="#2DA771"/>
<stop offset="0.4762" stop-color="#15CF74"/>
<stop offset="0.8009" stop-color="#06E775"/>
<stop offset="1" stop-color="#00F076"/>
</linearGradient>
</defs>
</svg>
