<svg width="240" height="110" viewBox="0 0 240 110" fill="none" xmlns="http://www.w3.org/2000/svg">
<g clip-path="url(#clip0)">
<rect width="240" height="110" fill="white"/>
<path d="M50.7345 57.6644L55.1937 74.3326L61.1109 76.6212L80.3711 77.4066L88.1546 78.3792L89.6994 75.0065L89.2616 73.0688L92.9659 72.7331L93.7919 68.4266L95.1858 66.9982L96.6803 64.2736L96.1295 62.6904L99.7585 61.1193L101.605 58.273L99.2787 56.0033L87.3836 46.8353L81.7826 37.3026L76.5983 37.0074L69.4689 40.9723L62.4241 46.8788L58.2595 52.4589L55.704 55.0776L50.7345 57.6644Z" fill="white"/>
<path d="M92.7998 30.1188C93.2412 29.6665 93.9657 29.6576 94.418 30.099L107.57 42.9342C108.023 43.3756 108.032 44.1001 107.59 44.5524L91.5733 60.9653C91.5733 60.9653 88.7874 61.016 88.0808 61.7401C87.3741 62.4642 87.5077 65.1315 87.5077 65.1315C87.5077 65.1315 87.2278 66.4813 86.6449 66.6715C86.0621 66.8617 83.4925 66.4419 83.4925 66.4419L79.6124 66.8384L78.9894 69.3199L79.494 73.3433L77.2222 73.9595L65.4647 62.937L64.3752 59.2462L92.7998 30.1188Z" fill="#50E3C2"/>
<path fill-rule="evenodd" clip-rule="evenodd" d="M56.5 76.1829C56.3398 76.3601 56.1234 76.483 55.8785 76.5353L23.8311 87.9187L22.5251 85.7048L54.0335 74.3628L49.9934 59.9472L49.3189 57.5449L49.1219 56.8458L49.0567 56.6145L13.6176 59.1355L12.9411 57.1855L49.8589 54.3649C50.3961 54.347 50.8877 54.7098 51.0394 55.2362L51.2048 55.81L51.2805 56.0726L52.8944 55.8507C53.0844 55.7939 53.3329 55.6895 53.6117 55.5439C54.0763 55.3014 54.5566 54.9788 55.0419 54.5778C56.4716 53.3963 57.7718 51.6884 58.8929 49.4587C61.2892 44.7069 68.1959 39.3586 75.5002 36.3891C75.8275 36.2548 76.2517 36.1081 76.7051 35.9762C77.4637 35.7555 78.2094 35.6045 78.9191 35.5332C80.953 35.3289 82.47 35.7913 83.3608 36.9723L83.5815 37.2649L90.801 29.8669C92.0906 28.5454 94.2374 28.5419 95.5836 29.8556L107.434 41.4199C108.779 42.7328 108.826 44.8756 107.536 46.1979L99.1249 54.8169L99.6641 54.9468C100.191 55.0737 100.661 55.2762 101.067 55.5551C101.842 56.0944 102.319 56.8827 102.458 57.8513C102.678 59.3888 101.606 61.0974 99.9379 62.1466C99.2983 62.5518 98.5151 62.8714 97.5642 63.1173L97.2635 63.1951L97.3443 63.4969C97.4844 64.0199 97.5287 64.5787 97.4747 65.1458C97.3058 66.8579 96.2788 68.2288 94.9194 68.5469L94.621 68.6168L94.6898 68.9171C94.8047 69.4183 94.8384 69.9358 94.7887 70.45C94.5815 72.5574 93.0966 74.0804 91.3957 73.9137L90.544 73.8671L90.1232 73.8444L90.2286 74.2533C90.3488 74.7197 90.3992 75.1944 90.3778 75.6678C90.3266 76.835 89.864 77.9026 89.1092 78.5861C88.5427 79.0947 87.8392 79.35 87.124 79.3045L81.7166 78.9665C81.1784 78.9315 80.6661 78.7274 80.2133 78.37L79.9883 78.3033C70.0485 79.2451 62.0052 78.5701 56.8649 76.1125L56.6546 76.0119L56.5 76.1829ZM78.3273 67.8714C78.0069 68.43 77.8007 69.0606 77.7211 69.7315C77.5781 70.9134 77.8529 72.0574 78.4796 72.8738L78.7139 73.1791C78.7139 73.1791 78.0858 72.8839 77.7631 72.569L65.7998 60.8943C65.3867 60.4912 65.3891 59.8127 65.8135 59.3779L68.0543 57.0816L81.9228 42.8719C82.2401 42.5851 82.5457 42.2712 82.8607 41.9083L91.8618 32.6853C92.5239 32.0069 93.6106 31.9937 94.2891 32.6557L105.106 43.2113C105.784 43.8734 105.797 44.9602 105.135 45.6386L90.7765 60.3525C90.7449 60.3911 90.7218 60.4207 90.6311 60.5367L90.6301 60.5381L90.6295 60.5388L90.5969 60.5805L90.4273 60.5605L89.6424 60.4681C87.9173 60.2649 86.4115 61.7855 86.2008 63.9091C86.1438 64.4941 86.1952 65.0804 86.3509 65.6315L86.4677 66.0447L86.0402 66.0207L81.3106 65.7544C81.1649 65.7401 80.9411 65.7497 80.6392 65.783C79.6956 66.1627 78.9662 66.7883 78.4509 67.66L78.3273 67.8714ZM94.547 66.0127L94.4301 66.0451L89.0739 65.3829L89.0165 65.349L89.0031 65.3405L88.9944 65.3347L88.9675 65.3148C88.9441 65.2953 88.9369 65.289 88.9165 65.2691C88.6335 64.993 88.4746 64.4298 88.5344 63.8417C88.6019 63.1531 88.9592 62.5609 89.2868 62.4806L89.3971 62.4536L94.8291 63.1486L94.9054 63.2231C95.188 63.4989 95.3473 64.0603 95.2907 64.6545C95.2244 65.331 94.8707 65.9232 94.547 66.0127ZM80.6815 70.8772L80.7416 70.936L91.7631 71.6842L91.8341 71.6913L91.9431 71.6833C92.272 71.5978 92.625 71.0034 92.6828 70.317C92.7237 69.8486 92.631 69.3894 92.44 69.0724L92.3957 68.885L92.4049 68.7668L81.1374 68.0046L81.0666 67.9974L80.9576 68.0054C80.6314 68.0903 80.2793 68.6834 80.2182 69.3686C80.1659 69.9674 80.3308 70.5365 80.6193 70.8218C80.6528 70.852 80.654 70.853 80.6815 70.8772ZM97.1066 57.3731L97.2323 57.3751C97.3027 57.3763 97.3557 57.373 97.4059 57.3618C98.5001 57.138 99.6043 57.2473 100.134 57.622C100.36 57.7804 100.484 57.9862 100.536 58.3011C100.622 58.8128 99.9697 59.7379 99.1169 60.2641C98.4147 60.6977 97.3663 60.9976 95.9667 61.1617L95.8907 61.1706L95.8162 61.1424C95.6224 61.0693 95.4375 61.0197 95.2652 60.9955L93.7684 60.7939L97.1066 57.3731ZM54.3722 66.9111L56.1254 73.1425L56.1552 73.2487L56.2459 73.311C60.3431 76.1249 68.1276 76.996 78.4223 76.1255L78.7417 76.0985L78.6992 75.6893C78.6866 75.5708 78.6813 75.5069 78.6788 75.4389L78.6663 75.0925L78.3234 75.1485C77.262 75.3219 76.1807 74.9853 75.41 74.2332L63.6833 62.7895C62.3482 61.4866 62.3143 59.3505 63.6076 58.0252L72.3103 49.1074C72.3636 48.9549 72.3975 48.8819 72.4369 48.8207L75.1925 44.4367C75.305 44.2632 75.4595 44.1219 75.6376 44.0314C77.507 43.0693 78.9483 42.1414 79.9544 41.2711L81.0276 40.1719C81.448 39.6356 81.6656 39.1611 81.6936 38.7908L81.703 38.6662L81.6236 38.5711C80.9644 37.7815 78.7722 37.8877 76.5718 38.7855C69.7904 41.5815 63.2748 46.6053 61.1296 50.8244C59.7087 53.6175 58.0397 55.7044 56.1817 57.0838C55.5635 57.5427 54.9505 57.902 54.3558 58.1602C54.0051 58.3125 53.7038 58.4127 53.4175 58.4727L52.4074 58.6185L52.0525 58.6698L54.3722 66.9111ZM87.892 76.8586L87.7834 76.8911L82.4424 76.4409L82.3847 76.4118C82.3717 76.4047 82.3675 76.4024 82.3633 76.4C82.3613 76.3988 82.3594 76.3976 82.3564 76.3959L82.3502 76.3918C82.3446 76.3882 82.3391 76.3844 82.3169 76.3692C82.2973 76.3549 82.2699 76.3317 82.2421 76.3046C81.9561 76.0255 81.7753 75.4913 81.7909 74.9237C81.8099 74.1996 82.0359 73.684 82.3162 73.5901L82.4305 73.5519L87.937 73.9778L87.9325 74.001C87.9459 74.0082 87.9509 74.0109 87.9552 74.0133C87.9577 74.0147 87.96 74.0161 87.9636 74.0182C87.9663 74.0199 87.9683 74.0212 87.9702 74.0225C87.976 74.0263 87.9816 74.0301 88.0036 74.045C88.0231 74.0592 88.0506 74.0825 88.0789 74.1101C88.3655 74.3898 88.5484 74.9282 88.5322 75.492C88.5151 76.1681 88.2043 76.7648 87.892 76.8586Z" fill="#132C45"/>
<path d="M55.8785 76.5353L55.7788 76.0691C55.7585 76.0734 55.7385 76.0791 55.7189 76.086L55.8785 76.5353ZM56.5 76.1829L56.1463 75.8631L56.1463 75.8631L56.5 76.1829ZM23.8311 87.9187L23.4204 88.161C23.5365 88.3576 23.7756 88.4445 23.9907 88.368L23.8311 87.9187ZM22.5251 85.7048L22.3636 85.2562C22.23 85.3043 22.1248 85.4095 22.0766 85.543C22.0284 85.6766 22.0423 85.8248 22.1144 85.9471L22.5251 85.7048ZM54.0335 74.3628L54.195 74.8114C54.4302 74.7267 54.5601 74.4748 54.4926 74.2341L54.0335 74.3628ZM49.9934 59.9472L50.4526 59.8185L50.4525 59.8183L49.9934 59.9472ZM49.3189 57.5449L49.7779 57.416L49.7778 57.4156L49.3189 57.5449ZM49.1219 56.8458L49.5808 56.7164L49.5808 56.7164L49.1219 56.8458ZM49.0567 56.6145L49.5156 56.4852C49.4543 56.2675 49.2484 56.1228 49.0228 56.1389L49.0567 56.6145ZM13.6176 59.1355L13.1672 59.2918C13.2378 59.4955 13.4364 59.6264 13.6515 59.6111L13.6176 59.1355ZM12.9411 57.1855L12.9048 56.7101C12.7573 56.7213 12.6234 56.8004 12.5423 56.9241C12.4613 57.0477 12.4422 57.2021 12.4906 57.3418L12.9411 57.1855ZM49.8589 54.3649L49.843 53.8883C49.8362 53.8886 49.8294 53.8889 49.8226 53.8894L49.8589 54.3649ZM51.0394 55.2362L51.4976 55.1042L51.4976 55.1041L51.0394 55.2362ZM51.2048 55.81L50.7466 55.942L50.7466 55.942L51.2048 55.81ZM51.2805 56.0726L50.8223 56.2047C50.8879 56.4323 51.1107 56.5773 51.3455 56.545L51.2805 56.0726ZM52.8944 55.8507L52.9594 56.323C52.9836 56.3197 53.0076 56.3145 53.031 56.3075L52.8944 55.8507ZM53.6117 55.5439L53.391 55.1213L53.391 55.1213L53.6117 55.5439ZM55.0419 54.5778L55.3456 54.9454L55.3456 54.9454L55.0419 54.5778ZM58.8929 49.4587L58.4672 49.244L58.4669 49.2445L58.8929 49.4587ZM75.5002 36.3891L75.6797 36.8308L75.6811 36.8302L75.5002 36.3891ZM76.7051 35.9762L76.8383 36.434L76.8383 36.434L76.7051 35.9762ZM78.9191 35.5332L78.9667 36.0077L78.9667 36.0077L78.9191 35.5332ZM83.3608 36.9723L83.7415 36.6851L83.7415 36.6851L83.3608 36.9723ZM83.5815 37.2649L83.2009 37.552C83.2846 37.663 83.4125 37.7319 83.5513 37.7407C83.69 37.7496 83.8257 37.6974 83.9228 37.5979L83.5815 37.2649ZM90.801 29.8669L91.1423 30.1999L90.801 29.8669ZM107.536 46.1979L107.877 46.5309L107.536 46.1979ZM99.1249 54.8169L98.7836 54.4839C98.6639 54.6066 98.6192 54.7842 98.6667 54.949C98.7142 55.1137 98.8465 55.2403 99.0132 55.2805L99.1249 54.8169ZM99.6641 54.9468L99.7757 54.4832L99.7757 54.4832L99.6641 54.9468ZM101.067 55.5551L101.339 55.1637L101.337 55.1623L101.067 55.5551ZM102.458 57.8513L101.986 57.9188L101.986 57.9189L102.458 57.8513ZM99.9379 62.1466L99.684 61.743L99.6827 61.7438L99.9379 62.1466ZM97.5642 63.1173L97.4448 62.6557L97.4448 62.6557L97.5642 63.1173ZM97.2635 63.1951L97.1442 62.7335C97.021 62.7653 96.9157 62.845 96.8517 62.9548C96.7876 63.0647 96.7701 63.1956 96.8029 63.3184L97.2635 63.1951ZM97.3443 63.4969L96.8838 63.6202L96.8838 63.6202L97.3443 63.4969ZM97.4747 65.1458L97.9492 65.1927L97.9494 65.191L97.4747 65.1458ZM94.9194 68.5469L94.8108 68.0827L94.8108 68.0827L94.9194 68.5469ZM94.621 68.6168L94.5124 68.1525C94.2568 68.2123 94.0976 68.4674 94.1562 68.7232L94.621 68.6168ZM94.6898 68.9171L94.2251 69.0236L94.2251 69.0236L94.6898 68.9171ZM94.7887 70.45L95.2632 70.4967L95.2633 70.4959L94.7887 70.45ZM91.3957 73.9137L91.4421 73.4392C91.4353 73.4385 91.4285 73.438 91.4217 73.4376L91.3957 73.9137ZM90.544 73.8671L90.57 73.391L90.5697 73.391L90.544 73.8671ZM90.1232 73.8444L90.1489 73.3683C89.9972 73.3601 89.8506 73.4247 89.7543 73.5423C89.6581 73.6598 89.6236 73.8163 89.6615 73.9634L90.1232 73.8444ZM90.2286 74.2533L90.6903 74.1343L90.6903 74.1343L90.2286 74.2533ZM90.3778 75.6678L89.9015 75.6463L89.9014 75.6469L90.3778 75.6678ZM89.1092 78.5861L89.4277 78.9408L89.4292 78.9395L89.1092 78.5861ZM87.124 79.3045L87.1543 78.8287L87.1538 78.8287L87.124 79.3045ZM81.7166 78.9665L81.6857 79.4423L81.6869 79.4424L81.7166 78.9665ZM80.2133 78.37L80.5087 77.9958C80.4612 77.9582 80.4069 77.9301 80.3489 77.9129L80.2133 78.37ZM79.9883 78.3033L80.1238 77.8462C80.0653 77.8288 80.004 77.8229 79.9433 77.8286L79.9883 78.3033ZM56.8649 76.1125L56.6592 76.5426L56.6592 76.5426L56.8649 76.1125ZM56.6546 76.0119L56.8602 75.5817C56.6699 75.4907 56.4423 75.5356 56.3009 75.6922L56.6546 76.0119ZM77.7211 69.7315L78.1944 69.7888L78.1945 69.7877L77.7211 69.7315ZM78.3273 67.8714L77.9157 67.6306L77.9137 67.6341L78.3273 67.8714ZM78.4796 72.8738L78.8578 72.5835L78.8578 72.5835L78.4796 72.8738ZM78.7139 73.1791L78.5111 73.6106C78.7102 73.7042 78.9474 73.6494 79.0853 73.4781C79.2232 73.3067 79.2261 73.0633 79.0921 72.8888L78.7139 73.1791ZM77.7631 72.569L78.0961 72.2277L77.7631 72.569ZM65.7998 60.8943L65.4668 61.2356L65.7998 60.8943ZM65.8135 59.3779L66.1547 59.7109L65.8135 59.3779ZM68.0543 57.0816L67.7131 56.7486L67.7131 56.7486L68.0543 57.0816ZM81.9228 42.8719L81.6031 42.5182C81.5957 42.5249 81.5885 42.5318 81.5816 42.5389L81.9228 42.8719ZM82.8607 41.9083L82.5195 41.5753C82.513 41.5819 82.5068 41.5887 82.5007 41.5957L82.8607 41.9083ZM91.8618 32.6853L91.5206 32.3523L91.5206 32.3523L91.8618 32.6853ZM105.135 45.6386L104.794 45.3056L105.135 45.6386ZM90.7765 60.3525L90.4352 60.0195C90.4255 60.0295 90.4162 60.0398 90.4074 60.0506L90.7765 60.3525ZM90.6311 60.5367L91.0062 60.8312L91.0069 60.8302L90.6311 60.5367ZM90.6301 60.5381L91.0045 60.8333L91.0051 60.8325L90.6301 60.5381ZM90.6295 60.5388L90.2551 60.2436L90.2537 60.2453L90.6295 60.5388ZM90.5969 60.5805L90.5412 61.0541C90.7066 61.0735 90.8701 61.0053 90.9727 60.8741L90.5969 60.5805ZM90.4273 60.5605L90.3716 61.0341L90.3716 61.0341L90.4273 60.5605ZM89.6424 60.4681L89.5866 60.9416L89.5866 60.9416L89.6424 60.4681ZM86.2008 63.9091L85.7264 63.8621L85.7263 63.8628L86.2008 63.9091ZM86.3509 65.6315L86.8098 65.5019L86.8098 65.5019L86.3509 65.6315ZM86.4677 66.0447L86.441 66.5208C86.5948 66.5294 86.7433 66.4632 86.8397 66.3429C86.9361 66.2227 86.9685 66.0633 86.9265 65.915L86.4677 66.0447ZM86.0402 66.0207L86.0133 66.4967L86.0134 66.4967L86.0402 66.0207ZM81.3106 65.7544L81.2642 66.2289C81.2707 66.2296 81.2772 66.2301 81.2838 66.2304L81.3106 65.7544ZM80.6392 65.783L80.5869 65.3091C80.5437 65.3138 80.5015 65.3245 80.4612 65.3407L80.6392 65.783ZM78.4509 67.66L78.0404 67.4174L78.0394 67.4193L78.4509 67.66ZM94.4301 66.0451L94.3716 66.5183C94.4337 66.526 94.4968 66.5214 94.5572 66.5047L94.4301 66.0451ZM94.547 66.0127L94.42 65.5532L94.4199 65.5532L94.547 66.0127ZM89.0739 65.3829L88.8312 65.7933C88.8876 65.8267 88.9503 65.848 89.0154 65.8561L89.0739 65.3829ZM89.0165 65.349L88.7616 65.7519C88.7656 65.7544 88.7697 65.7569 88.7738 65.7594L89.0165 65.349ZM89.0031 65.3405L88.7397 65.7381L88.7482 65.7434L89.0031 65.3405ZM88.9944 65.3347L88.7101 65.7175C88.717 65.7226 88.724 65.7275 88.7311 65.7322L88.9944 65.3347ZM88.9675 65.3148L88.6636 65.6821C88.67 65.6874 88.6765 65.6925 88.6832 65.6975L88.9675 65.3148ZM88.5344 63.8417L89.0087 63.8899L89.0089 63.8883L88.5344 63.8417ZM89.2868 62.4806L89.1733 62.0175L89.1733 62.0175L89.2868 62.4806ZM89.3971 62.4536L89.4577 61.9806C89.3995 61.9732 89.3406 61.9765 89.2837 61.9905L89.3971 62.4536ZM94.8291 63.1486L95.1621 62.8074C95.088 62.735 94.9923 62.6888 94.8896 62.6756L94.8291 63.1486ZM95.2907 64.6545L95.7653 64.701L95.7654 64.6997L95.2907 64.6545ZM80.7416 70.936L80.4086 71.2772C80.4897 71.3563 80.5963 71.404 80.7094 71.4117L80.7416 70.936ZM80.6815 70.8772L81.0145 70.536C81.0086 70.5303 81.0026 70.5247 80.9965 70.5194L80.6815 70.8772ZM91.7631 71.6842L91.8109 71.2098C91.8057 71.2092 91.8005 71.2088 91.7953 71.2084L91.7631 71.6842ZM91.8341 71.6913L91.7863 72.1657C91.8138 72.1685 91.8415 72.1689 91.869 72.1668L91.8341 71.6913ZM91.9431 71.6833L91.978 72.1588C92.0067 72.1567 92.0352 72.152 92.0631 72.1448L91.9431 71.6833ZM92.6828 70.317L92.2078 70.2755L92.2076 70.277L92.6828 70.317ZM92.44 69.0724L91.976 69.1822C91.9874 69.2302 92.0062 69.2762 92.0316 69.3185L92.44 69.0724ZM92.3957 68.885L91.9203 68.8481C91.9165 68.8973 91.9203 68.9468 91.9317 68.9948L92.3957 68.885ZM92.4049 68.7668L92.8802 68.8037C92.8901 68.6768 92.8488 68.5513 92.7655 68.455C92.6823 68.3587 92.564 68.2997 92.437 68.2911L92.4049 68.7668ZM81.1374 68.0046L81.0896 68.479C81.0948 68.4795 81.1 68.4799 81.1052 68.4803L81.1374 68.0046ZM81.0666 67.9974L81.1144 67.523C81.0869 67.5203 81.0592 67.5199 81.0316 67.5219L81.0666 67.9974ZM80.9576 68.0054L80.9226 67.5299C80.8939 67.532 80.8655 67.5367 80.8376 67.544L80.9576 68.0054ZM80.2182 69.3686L79.7433 69.3263L79.7432 69.3272L80.2182 69.3686ZM80.6193 70.8218L80.2841 71.1608C80.2892 71.1659 80.2945 71.1709 80.2998 71.1757L80.6193 70.8218ZM97.2323 57.3751L97.2245 57.8519L97.2245 57.8519L97.2323 57.3751ZM97.1066 57.3731L97.1144 56.8963C96.9832 56.8942 96.857 56.9462 96.7654 57.0401L97.1066 57.3731ZM97.4059 57.3618L97.3104 56.8945L97.3018 56.8965L97.4059 57.3618ZM100.134 57.622L99.859 58.0113L99.8602 58.0122L100.134 57.622ZM100.536 58.3011L100.066 58.3791L100.066 58.3799L100.536 58.3011ZM99.1169 60.2641L98.8665 59.8583L98.8663 59.8584L99.1169 60.2641ZM95.9667 61.1617L95.9112 60.6881L95.9112 60.6881L95.9667 61.1617ZM95.8907 61.1706L95.7224 61.6167C95.7937 61.6436 95.8705 61.653 95.9463 61.6441L95.8907 61.1706ZM95.8162 61.1424L95.6478 61.5885L95.6478 61.5885L95.8162 61.1424ZM95.2652 60.9955L95.3314 60.5234L95.3289 60.523L95.2652 60.9955ZM93.7684 60.7939L93.4271 60.4609C93.3012 60.5899 93.2589 60.7788 93.3176 60.9492C93.3763 61.1196 93.5261 61.2424 93.7047 61.2664L93.7684 60.7939ZM56.1254 73.1425L56.5843 73.0134L56.5843 73.0134L56.1254 73.1425ZM54.3722 66.9111L54.8312 66.7819L54.8312 66.7819L54.3722 66.9111ZM56.1552 73.2487L55.6962 73.3779C55.7265 73.4852 55.7934 73.5786 55.8853 73.6418L56.1552 73.2487ZM56.2459 73.311L55.976 73.704L55.976 73.704L56.2459 73.311ZM78.4223 76.1255L78.4625 76.6006L78.4625 76.6006L78.4223 76.1255ZM78.7417 76.0985L78.7819 76.5736C78.9094 76.5628 79.0273 76.5012 79.109 76.4026C79.1906 76.3039 79.2292 76.1766 79.2159 76.0492L78.7417 76.0985ZM78.6992 75.6893L79.1734 75.64L79.1733 75.6389L78.6992 75.6893ZM78.6788 75.4389L79.1553 75.4216L79.1553 75.4216L78.6788 75.4389ZM78.6663 75.0925L79.1427 75.0753C79.1378 74.9385 79.0743 74.8104 78.9684 74.7237C78.8625 74.637 78.7245 74.5999 78.5894 74.622L78.6663 75.0925ZM78.3234 75.1485L78.2465 74.678L78.2465 74.678L78.3234 75.1485ZM75.41 74.2332L75.743 73.892L75.41 74.2332ZM63.6833 62.7895L63.3503 63.1307L63.6833 62.7895ZM63.6076 58.0252L63.2664 57.6922L63.6076 58.0252ZM72.3103 49.1074L72.6516 49.4404C72.7003 49.3904 72.7375 49.3304 72.7605 49.2646L72.3103 49.1074ZM72.4369 48.8207L72.8379 49.0787L72.8406 49.0745L72.4369 48.8207ZM75.1925 44.4367L74.7924 44.1772L74.7888 44.183L75.1925 44.4367ZM75.6376 44.0314L75.8535 44.4565L75.8557 44.4554L75.6376 44.0314ZM79.9544 41.2711L80.2664 41.6317C80.2765 41.6229 80.2863 41.6137 80.2956 41.6042L79.9544 41.2711ZM81.0276 40.1719L81.3688 40.505C81.3808 40.4926 81.3922 40.4797 81.4028 40.4661L81.0276 40.1719ZM81.6936 38.7908L82.1691 38.8267L82.1691 38.8267L81.6936 38.7908ZM81.703 38.6662L82.1785 38.7021C82.1878 38.5784 82.1486 38.4559 82.069 38.3606L81.703 38.6662ZM81.6236 38.5711L81.2576 38.8766L81.2576 38.8766L81.6236 38.5711ZM76.5718 38.7855L76.3917 38.344L76.3901 38.3447L76.5718 38.7855ZM61.1296 50.8244L61.5545 51.0406L61.5546 51.0405L61.1296 50.8244ZM56.1817 57.0838L55.8974 56.701L55.8974 56.701L56.1817 57.0838ZM54.3558 58.1602L54.5457 58.5976L54.5457 58.5976L54.3558 58.1602ZM53.4175 58.4727L53.4856 58.9446C53.4956 58.9431 53.5055 58.9414 53.5153 58.9393L53.4175 58.4727ZM52.4074 58.6185L52.3393 58.1465L52.3391 58.1466L52.4074 58.6185ZM52.0525 58.6698L51.9842 58.1979C51.8483 58.2176 51.7275 58.2949 51.6527 58.41C51.5779 58.5251 51.5563 58.6669 51.5935 58.799L52.0525 58.6698ZM87.7834 76.8911L87.7434 77.3663C87.8031 77.3713 87.8632 77.365 87.9205 77.3478L87.7834 76.8911ZM87.892 76.8586L88.0291 77.3152L88.0291 77.3152L87.892 76.8586ZM82.4424 76.4409L82.2273 76.8665C82.282 76.8941 82.3414 76.9109 82.4024 76.9161L82.4424 76.4409ZM82.3847 76.4118L82.1561 76.8302C82.1606 76.8327 82.1651 76.835 82.1697 76.8373L82.3847 76.4118ZM82.3633 76.4L82.6021 75.9873L82.6018 75.9871L82.3633 76.4ZM82.3564 76.3959L82.0956 76.795C82.1012 76.7987 82.1069 76.8023 82.1127 76.8057L82.3564 76.3959ZM82.3502 76.3918L82.0879 76.79L82.0894 76.791L82.3502 76.3918ZM82.3169 76.3692L82.0357 76.7543C82.0399 76.7573 82.044 76.7603 82.0483 76.7632L82.3169 76.3692ZM81.7909 74.9237L82.2675 74.9368L82.2675 74.9362L81.7909 74.9237ZM82.3162 73.5901L82.4675 74.0423L82.4675 74.0423L82.3162 73.5901ZM82.4305 73.5519L82.4672 73.0765C82.4036 73.0716 82.3396 73.0795 82.2791 73.0997L82.4305 73.5519ZM87.937 73.9778L88.4051 74.0683C88.4309 73.9349 88.3986 73.7968 88.3162 73.6888C88.2338 73.5807 88.1093 73.5129 87.9738 73.5024L87.937 73.9778ZM87.9325 74.001L87.4644 73.9105C87.4247 74.1157 87.5233 74.3228 87.7075 74.4214L87.9325 74.001ZM87.9552 74.0133L88.1899 73.5983L88.1897 73.5982L87.9552 74.0133ZM87.9636 74.0182L88.2229 73.618C88.217 73.6143 88.2112 73.6106 88.2052 73.6071L87.9636 74.0182ZM87.9702 74.0225L88.2317 73.6238L88.2315 73.6237L87.9702 74.0225ZM88.0036 74.045L88.2843 73.6596C88.2801 73.6565 88.2758 73.6535 88.2714 73.6505L88.0036 74.045ZM88.5322 75.492L88.0555 75.4783L88.0555 75.48L88.5322 75.492ZM55.9782 77.0016C56.3163 76.9293 56.6231 76.7577 56.8537 76.5026L56.1463 75.8631C56.0564 75.9625 55.9305 76.0367 55.7788 76.0691L55.9782 77.0016ZM23.9907 88.368L56.0381 76.9847L55.7189 76.086L23.6715 87.4694L23.9907 88.368ZM22.1144 85.9471L23.4204 88.161L24.2418 87.6765L22.9358 85.4626L22.1144 85.9471ZM53.872 73.9141L22.3636 85.2562L22.6866 86.1534L54.195 74.8114L53.872 73.9141ZM49.5343 60.0759L53.5744 74.4914L54.4926 74.2341L50.4526 59.8185L49.5343 60.0759ZM48.8598 57.6738L49.5344 60.0761L50.4525 59.8183L49.7779 57.416L48.8598 57.6738ZM48.6629 56.9751L48.8599 57.6742L49.7778 57.4156L49.5808 56.7164L48.6629 56.9751ZM48.5978 56.7438L48.6629 56.9751L49.5808 56.7164L49.5156 56.4852L48.5978 56.7438ZM13.6515 59.6111L49.0905 57.0901L49.0228 56.1389L13.5838 58.6599L13.6515 59.6111ZM12.4906 57.3418L13.1672 59.2918L14.0681 58.9793L13.3916 57.0292L12.4906 57.3418ZM49.8226 53.8894L12.9048 56.7101L12.9774 57.6609L49.8952 54.8403L49.8226 53.8894ZM51.4976 55.1041C51.287 54.3737 50.6045 53.863 49.843 53.8883L49.8747 54.8414C50.1878 54.831 50.4883 55.0459 50.5813 55.3683L51.4976 55.1041ZM51.663 55.678L51.4976 55.1042L50.5813 55.3683L50.7466 55.942L51.663 55.678ZM51.7387 55.9406L51.663 55.678L50.7466 55.942L50.8223 56.2047L51.7387 55.9406ZM52.8295 55.3783L51.2155 55.6003L51.3455 56.545L52.9594 56.323L52.8295 55.3783ZM53.391 55.1213C53.1288 55.2582 52.9094 55.3486 52.7579 55.3939L53.031 56.3075C53.2593 56.2393 53.5369 56.1208 53.8323 55.9666L53.391 55.1213ZM54.7381 54.2103C54.2747 54.5932 53.822 54.8963 53.391 55.1213L53.8323 55.9666C54.3306 55.7065 54.8385 55.3644 55.3456 54.9454L54.7381 54.2103ZM58.4669 49.2445C57.3672 51.4316 56.1045 53.0811 54.7381 54.2103L55.3456 54.9454C56.8388 53.7114 58.1763 51.9452 59.3189 49.6729L58.4669 49.2445ZM75.3206 35.9474C71.6272 37.4489 68.0359 39.5508 65.062 41.8802C62.0948 44.2043 59.7094 46.7806 58.4672 49.244L59.3186 49.6734C60.4726 47.385 62.7387 44.9113 65.65 42.6309C68.5546 40.3558 72.0689 38.2988 75.6797 36.8308L75.3206 35.9474ZM76.5719 35.5184C76.1057 35.654 75.6651 35.8061 75.3192 35.9479L75.6811 36.8302C75.9898 36.7036 76.3977 36.5622 76.8383 36.434L76.5719 35.5184ZM78.8714 35.0588C78.1288 35.1334 77.3543 35.2907 76.5719 35.5184L76.8383 36.434C77.573 36.2202 78.2899 36.0756 78.9667 36.0077L78.8714 35.0588ZM83.7415 36.6851C82.7092 35.3167 80.9893 34.8461 78.8714 35.0588L78.9667 36.0077C80.9167 35.8118 82.2308 36.2659 82.9801 37.2594L83.7415 36.6851ZM83.9622 36.9778L83.7415 36.6851L82.9801 37.2594L83.2009 37.552L83.9622 36.9778ZM90.4598 29.5338L83.2403 36.9319L83.9228 37.5979L91.1423 30.1999L90.4598 29.5338ZM95.9166 29.5144C94.3884 28.0231 91.9396 28.0174 90.4598 29.5338L91.1423 30.1999C92.2417 29.0733 94.0863 29.0607 95.2506 30.1969L95.9166 29.5144ZM107.767 41.0786L95.9166 29.5144L95.2506 30.1969L107.101 41.7611L107.767 41.0786ZM107.877 46.5309C109.357 45.0142 109.295 42.5696 107.767 41.0786L107.101 41.7611C108.264 42.896 108.295 44.7371 107.195 45.8649L107.877 46.5309ZM99.4661 55.1499L107.877 46.5309L107.195 45.8649L98.7836 54.4839L99.4661 55.1499ZM99.7757 54.4832L99.2365 54.3534L99.0132 55.2805L99.5525 55.4103L99.7757 54.4832ZM101.337 55.1623C100.878 54.8464 100.352 54.6221 99.7757 54.4832L99.5525 55.4103C100.03 55.5253 100.445 55.7059 100.796 55.9479L101.337 55.1623ZM102.93 57.7837C102.773 56.6896 102.227 55.7816 101.339 55.1637L100.794 55.9466C101.456 56.4072 101.865 57.0757 101.986 57.9188L102.93 57.7837ZM100.192 62.5502C101.946 61.4467 103.187 59.5802 102.93 57.7837L101.986 57.9189C102.169 59.1974 101.266 60.748 99.684 61.743L100.192 62.5502ZM97.6836 63.579C98.6686 63.3242 99.501 62.9878 100.193 62.5493L99.6827 61.7438C99.0957 62.1157 98.3615 62.4187 97.4448 62.6557L97.6836 63.579ZM97.3829 63.6567L97.6836 63.579L97.4448 62.6557L97.1442 62.7335L97.3829 63.6567ZM97.8049 63.3736L97.7241 63.0718L96.8029 63.3184L96.8838 63.6202L97.8049 63.3736ZM97.9494 65.191C98.0085 64.5702 97.9604 63.9542 97.8049 63.3736L96.8838 63.6202C97.0084 64.0857 97.0489 64.5872 97.0001 65.1007L97.9494 65.191ZM95.0281 69.0112C96.6407 68.6338 97.7664 67.0459 97.9492 65.1927L97.0002 65.099C96.8452 66.6699 95.9169 67.8238 94.8108 68.0827L95.0281 69.0112ZM94.7296 69.081L95.0281 69.0112L94.8108 68.0827L94.5124 68.1525L94.7296 69.081ZM95.1546 68.8106L95.0858 68.5103L94.1562 68.7232L94.2251 69.0236L95.1546 68.8106ZM95.2633 70.4959C95.3179 69.9306 95.2808 69.3617 95.1546 68.8106L94.2251 69.0236C94.3285 69.4749 94.3588 69.941 94.3141 70.4041L95.2633 70.4959ZM91.3492 74.3883C93.404 74.5896 95.0403 72.7635 95.2632 70.4967L94.3142 70.4033C94.1226 72.3512 92.7891 73.5712 91.4421 73.4392L91.3492 74.3883ZM90.5179 74.3432L91.3696 74.3898L91.4217 73.4376L90.57 73.391L90.5179 74.3432ZM90.0975 74.3205L90.5183 74.3432L90.5697 73.391L90.1489 73.3683L90.0975 74.3205ZM90.6903 74.1343L90.5849 73.7254L89.6615 73.9634L89.7669 74.3723L90.6903 74.1343ZM90.8541 75.6893C90.8777 75.1676 90.8221 74.6455 90.6903 74.1343L89.7669 74.3723C89.8756 74.7939 89.9207 75.2213 89.9015 75.6463L90.8541 75.6893ZM89.4292 78.9395C90.2931 78.1573 90.7983 76.9621 90.8541 75.6887L89.9014 75.6469C89.855 76.7079 89.4349 77.6479 88.7891 78.2326L89.4292 78.9395ZM87.0938 79.7804C87.9458 79.8346 88.773 79.5288 89.4277 78.9408L88.7906 78.2313C88.3125 78.6607 87.7326 78.8655 87.1543 78.8287L87.0938 79.7804ZM81.6869 79.4424L87.0943 79.7804L87.1538 78.8287L81.7464 78.4906L81.6869 79.4424ZM79.918 78.7443C80.4404 79.1567 81.0436 79.4005 81.6857 79.4423L81.7476 78.4907C81.3133 78.4625 80.8918 78.2981 80.5087 77.9958L79.918 78.7443ZM79.8527 78.7604L80.0778 78.8272L80.3489 77.9129L80.1238 77.8462L79.8527 78.7604ZM56.6592 76.5426C61.9199 79.0578 70.071 79.7219 80.0333 78.778L79.9433 77.8286C70.0261 78.7683 62.0906 78.0824 57.0705 75.6823L56.6592 76.5426ZM56.4489 76.4421L56.6592 76.5426L57.0705 75.6823L56.8602 75.5817L56.4489 76.4421ZM56.8537 76.5026L57.0083 76.3317L56.3009 75.6922L56.1463 75.8631L56.8537 76.5026ZM78.1945 69.7877C78.2669 69.1778 78.4537 68.6092 78.7409 68.1086L77.9137 67.6341C77.56 68.2508 77.3345 68.9434 77.2476 69.6754L78.1945 69.7877ZM78.8578 72.5835C78.3194 71.882 78.0638 70.8685 78.1944 69.7888L77.2477 69.6743C77.0924 70.9584 77.3864 72.2327 78.1013 73.1641L78.8578 72.5835ZM79.0921 72.8888L78.8578 72.5835L78.1013 73.1641L78.3357 73.4694L79.0921 72.8888ZM77.4301 72.9102C77.6365 73.1117 77.9179 73.2886 78.1224 73.4058C78.2293 73.4671 78.325 73.5176 78.3941 73.5528C78.4288 73.5705 78.4571 73.5845 78.4772 73.5943C78.4872 73.5992 78.4952 73.6031 78.501 73.6058C78.5038 73.6072 78.5061 73.6083 78.5078 73.6091C78.5087 73.6095 78.5094 73.6098 78.5099 73.6101C78.5102 73.6102 78.5104 73.6103 78.5106 73.6104C78.5107 73.6104 78.5108 73.6105 78.5109 73.6105C78.5109 73.6105 78.511 73.6106 78.511 73.6106C78.511 73.6106 78.5111 73.6106 78.7139 73.1791C78.9167 72.7476 78.9167 72.7476 78.9168 72.7476C78.9168 72.7476 78.9168 72.7476 78.9169 72.7476C78.9169 72.7477 78.9169 72.7477 78.9169 72.7477C78.917 72.7477 78.917 72.7477 78.917 72.7477C78.9169 72.7477 78.9167 72.7476 78.9164 72.7474C78.9157 72.7471 78.9144 72.7465 78.9126 72.7456C78.9089 72.7439 78.9031 72.7411 78.8953 72.7373C78.8798 72.7297 78.8565 72.7182 78.8273 72.7033C78.7686 72.6734 78.6871 72.6304 78.5967 72.5785C78.4064 72.4694 78.2124 72.3412 78.0961 72.2277L77.4301 72.9102ZM65.4668 61.2356L77.4301 72.9102L78.0961 72.2277L66.1328 60.5531L65.4668 61.2356ZM65.4722 59.0449C64.8764 59.6555 64.8528 60.6364 65.4668 61.2356L66.1328 60.5531C65.9206 60.346 65.9019 59.9699 66.1547 59.7109L65.4722 59.0449ZM67.7131 56.7486L65.4722 59.0449L66.1547 59.7109L68.3956 57.4146L67.7131 56.7486ZM81.5816 42.5389L67.7131 56.7486L68.3955 57.4146L82.264 43.2049L81.5816 42.5389ZM82.5007 41.5957C82.1968 41.9458 81.9045 42.2457 81.6031 42.5182L82.2425 43.2256C82.5756 42.9245 82.8946 42.5966 83.2208 42.2209L82.5007 41.5957ZM91.5206 32.3523L82.5195 41.5753L83.202 42.2413L92.2031 33.0184L91.5206 32.3523ZM94.6221 32.3145C93.7552 31.4685 92.3666 31.4854 91.5206 32.3523L92.2031 33.0184C92.6812 32.5284 93.4661 32.5188 93.9561 32.997L94.6221 32.3145ZM105.439 42.8701L94.6221 32.3145L93.9561 32.997L104.773 43.5526L105.439 42.8701ZM105.477 45.9716C106.323 45.1047 106.306 43.7161 105.439 42.8701L104.773 43.5526C105.263 44.0307 105.272 44.8156 104.794 45.3056L105.477 45.9716ZM91.1177 60.6855L105.477 45.9716L104.794 45.3056L90.4352 60.0195L91.1177 60.6855ZM91.0069 60.8302C91.099 60.7123 91.1182 60.6878 91.1455 60.6544L90.4074 60.0506C90.3716 60.0943 90.3445 60.1291 90.2554 60.2432L91.0069 60.8302ZM91.0051 60.8325L91.0062 60.8312L90.2561 60.2423L90.2551 60.2436L91.0051 60.8325ZM91.0039 60.8341L91.0045 60.8333L90.2557 60.2428L90.2551 60.2436L91.0039 60.8341ZM90.9727 60.8741L91.0052 60.8324L90.2537 60.2453L90.2212 60.287L90.9727 60.8741ZM90.3716 61.0341L90.5412 61.0541L90.6527 60.107L90.4831 60.087L90.3716 61.0341ZM89.5866 60.9416L90.3716 61.0341L90.4831 60.087L89.6982 59.9946L89.5866 60.9416ZM86.6753 63.9562C86.87 61.994 88.2197 60.7806 89.5866 60.9416L89.6982 59.9946C87.615 59.7491 85.953 61.577 85.7264 63.8621L86.6753 63.9562ZM86.8098 65.5019C86.6706 65.0091 86.624 64.4826 86.6754 63.9554L85.7263 63.8628C85.6636 64.5056 85.7199 65.1517 85.8921 65.7612L86.8098 65.5019ZM86.9265 65.915L86.8098 65.5019L85.8921 65.7612L86.0089 66.1744L86.9265 65.915ZM86.0134 66.4967L86.441 66.5208L86.4945 65.5686L86.0669 65.5446L86.0134 66.4967ZM81.2838 66.2304L86.0133 66.4967L86.067 65.5446L81.3374 65.2783L81.2838 66.2304ZM80.6915 66.2569C80.9878 66.2242 81.1705 66.2198 81.2642 66.2289L81.357 65.2798C81.1594 65.2605 80.8945 65.2751 80.5869 65.3091L80.6915 66.2569ZM78.8614 67.9027C79.323 67.1217 79.9704 66.566 80.8171 66.2254L80.4612 65.3407C79.4207 65.7593 78.6093 66.4549 78.0404 67.4174L78.8614 67.9027ZM78.7388 68.1121L78.8624 67.9008L78.0394 67.4193L77.9157 67.6306L78.7388 68.1121ZM94.5572 66.5047L94.6741 66.4723L94.4199 65.5532L94.303 65.5855L94.5572 66.5047ZM89.0154 65.8561L94.3716 66.5183L94.4886 65.5719L89.1324 64.9097L89.0154 65.8561ZM88.7738 65.7594L88.8312 65.7933L89.3166 64.9725L89.2592 64.9385L88.7738 65.7594ZM88.7482 65.7434L88.7616 65.7519L89.2715 64.9461L89.2581 64.9376L88.7482 65.7434ZM88.7311 65.7322L88.7398 65.738L89.2664 64.943L89.2577 64.9372L88.7311 65.7322ZM88.6832 65.6975L88.7101 65.7175L89.2788 64.952L89.2519 64.932L88.6832 65.6975ZM88.5835 65.6104C88.6148 65.6409 88.632 65.656 88.6636 65.6821L89.2715 64.9474C89.266 64.9428 89.2628 64.9402 89.2606 64.9383C89.2587 64.9367 89.2582 64.9362 89.2583 64.9364C89.259 64.9369 89.258 64.9362 89.2495 64.9279L88.5835 65.6104ZM88.06 63.7936C87.992 64.4631 88.1583 65.1955 88.5835 65.6104L89.2495 64.9279C89.1087 64.7905 88.9573 64.3965 89.0087 63.8899L88.06 63.7936ZM89.1733 62.0175C88.8134 62.1057 88.5558 62.4206 88.3985 62.6975C88.2256 63.0019 88.0999 63.3868 88.0598 63.7952L89.0089 63.8883C89.0364 63.6081 89.1231 63.3526 89.2277 63.1686C89.3477 62.9572 89.4326 62.9358 89.4003 62.9437L89.1733 62.0175ZM89.2837 61.9905L89.1733 62.0175L89.4003 62.9437L89.5106 62.9167L89.2837 61.9905ZM94.8896 62.6756L89.4577 61.9806L89.3366 62.9265L94.7686 63.6215L94.8896 62.6756ZM95.2384 62.8819L95.1621 62.8074L94.4961 63.4898L94.5724 63.5643L95.2384 62.8819ZM95.7654 64.6997C95.8295 64.0264 95.6631 63.2963 95.2384 62.8819L94.5724 63.5643C94.7129 63.7014 94.8651 64.0942 94.8161 64.6093L95.7654 64.6997ZM94.6741 66.4723C95.0239 66.3756 95.2756 66.0637 95.4309 65.7875C95.6012 65.4849 95.7258 65.1038 95.7653 64.701L94.8162 64.6079C94.7894 64.8817 94.7039 65.1349 94.5998 65.3199C94.4809 65.5314 94.3939 65.5604 94.42 65.5532L94.6741 66.4723ZM81.0747 70.5947L81.0145 70.536L80.3485 71.2185L80.4086 71.2772L81.0747 70.5947ZM91.7953 71.2084L80.7739 70.4603L80.7094 71.4117L91.7308 72.1599L91.7953 71.2084ZM91.8819 71.2169L91.8109 71.2098L91.7152 72.1586L91.7863 72.1657L91.8819 71.2169ZM91.9081 71.2078L91.7991 71.2158L91.869 72.1668L91.978 72.1588L91.9081 71.2078ZM92.2076 70.277C92.1843 70.5547 92.1008 70.8092 91.9981 70.9934C91.8807 71.204 91.7947 71.2292 91.8231 71.2218L92.0631 72.1448C92.4204 72.0518 92.6753 71.7371 92.8311 71.4576C93.0016 71.1516 93.1235 70.7656 93.1579 70.3569L92.2076 70.277ZM92.0316 69.3185C92.1597 69.531 92.2419 69.8843 92.2078 70.2755L93.1577 70.3585C93.2054 69.8128 93.1023 69.2478 92.8485 68.8264L92.0316 69.3185ZM91.9317 68.9948L91.976 69.1822L92.904 68.9626L92.8597 68.7752L91.9317 68.9948ZM91.9295 68.73L91.9203 68.8481L92.8711 68.9219L92.8802 68.8037L91.9295 68.73ZM81.1052 68.4803L92.3727 69.2426L92.437 68.2911L81.1696 67.5289L81.1052 68.4803ZM81.0187 68.4718L81.0896 68.479L81.1853 67.5302L81.1144 67.523L81.0187 68.4718ZM80.9925 68.481L81.1015 68.473L81.0316 67.5219L80.9226 67.5299L80.9925 68.481ZM80.6931 69.411C80.7179 69.133 80.8021 68.8784 80.9049 68.6942C81.0227 68.483 81.1079 68.459 81.0776 68.4669L80.8376 67.544C80.4811 67.6367 80.2272 67.9517 80.0721 68.2296C79.902 68.5344 79.7796 68.919 79.7433 69.3263L80.6931 69.411ZM80.9546 70.4828C80.803 70.3329 80.648 69.9274 80.6932 69.4101L79.7432 69.3272C79.6838 70.0073 79.8586 70.7401 80.2841 71.1608L80.9546 70.4828ZM80.9965 70.5194C80.9707 70.4966 80.971 70.4969 80.9388 70.4679L80.2998 71.1757C80.3346 71.2071 80.3372 71.2095 80.3664 71.2351L80.9965 70.5194ZM97.24 56.8984L97.1144 56.8963L97.0989 57.8498L97.2245 57.8519L97.24 56.8984ZM97.3018 56.8965C97.304 56.896 97.2935 56.8993 97.24 56.8984L97.2245 57.8519C97.3119 57.8533 97.4073 57.8501 97.5101 57.8271L97.3018 56.8965ZM100.409 57.2327C100.048 56.9772 99.5453 56.8428 99.0274 56.7929C98.498 56.7418 97.9007 56.7739 97.3104 56.8946L97.5015 57.8289C98.0052 57.7259 98.5072 57.7007 98.9359 57.7421C99.3761 57.7845 99.6904 57.8921 99.859 58.0113L100.409 57.2327ZM101.006 58.2231C100.936 57.7998 100.752 57.4735 100.408 57.2318L99.8602 58.0122C99.9673 58.0874 100.031 58.1727 100.066 58.3791L101.006 58.2231ZM99.3672 60.6698C99.8491 60.3726 100.271 59.9657 100.566 59.555C100.714 59.3492 100.837 59.1321 100.917 58.9167C100.995 58.7072 101.047 58.4638 101.006 58.2223L100.066 58.3799C100.068 58.3943 100.07 58.4584 100.024 58.5827C99.9795 58.7011 99.9023 58.8441 99.791 58.9993C99.5677 59.3106 99.2375 59.6294 98.8665 59.8583L99.3672 60.6698ZM96.0223 61.6352C97.4493 61.4679 98.5784 61.157 99.3674 60.6697L98.8663 59.8584C98.251 60.2384 97.2833 60.5272 95.9112 60.6881L96.0223 61.6352ZM95.9463 61.6441L96.0223 61.6352L95.9112 60.6881L95.8352 60.697L95.9463 61.6441ZM95.6478 61.5885L95.7224 61.6167L96.0591 60.7245L95.9845 60.6963L95.6478 61.5885ZM95.1991 61.4677C95.3299 61.4861 95.4802 61.5253 95.6478 61.5885L95.9845 60.6963C95.7647 60.6134 95.5452 60.5533 95.3314 60.5234L95.1991 61.4677ZM93.7047 61.2664L95.2016 61.4681L95.3289 60.523L93.832 60.3213L93.7047 61.2664ZM96.7654 57.0401L93.4271 60.4609L94.1096 61.1269L97.4479 57.7061L96.7654 57.0401ZM56.5843 73.0134L54.8312 66.7819L53.9132 67.0402L55.6664 73.2716L56.5843 73.0134ZM56.6142 73.1196L56.5843 73.0134L55.6664 73.2716L55.6962 73.3779L56.6142 73.1196ZM56.5158 72.918L56.4252 72.8557L55.8853 73.6418L55.976 73.704L56.5158 72.918ZM78.3821 75.6504C73.2554 76.0839 68.7705 76.0821 65.0682 75.6266C61.3587 75.1703 58.4746 74.2632 56.5158 72.918L55.976 73.704C58.1143 75.1726 61.1711 76.108 64.9518 76.5731C68.7398 77.0391 73.2945 77.0376 78.4625 76.6006L78.3821 75.6504ZM78.7015 75.6234L78.3821 75.6504L78.4625 76.6006L78.7819 76.5736L78.7015 75.6234ZM78.2249 75.7386L78.2674 76.1478L79.2159 76.0492L79.1734 75.64L78.2249 75.7386ZM78.2023 75.4561C78.2054 75.5409 78.2121 75.6178 78.225 75.7397L79.1733 75.6389C79.1611 75.5238 79.1571 75.4729 79.1553 75.4216L78.2023 75.4561ZM78.1898 75.1098L78.2023 75.4561L79.1553 75.4216L79.1427 75.0753L78.1898 75.1098ZM78.4002 75.6191L78.7431 75.5631L78.5894 74.622L78.2465 74.678L78.4002 75.6191ZM75.077 74.5745C75.957 75.4332 77.1909 75.8166 78.4002 75.6191L78.2465 74.678C77.3332 74.8271 76.4043 74.5373 75.743 73.892L75.077 74.5745ZM63.3503 63.1307L75.077 74.5745L75.743 73.892L64.0163 62.4482L63.3503 63.1307ZM63.2664 57.6922C61.7869 59.2083 61.8291 61.6463 63.3503 63.1307L64.0163 62.4482C62.8674 61.327 62.8418 59.4927 63.9489 58.3583L63.2664 57.6922ZM71.9691 48.7744L63.2664 57.6922L63.9489 58.3583L72.6516 49.4404L71.9691 48.7744ZM72.0359 48.5627C71.9661 48.6712 71.9175 48.7859 71.8602 48.9502L72.7605 49.2646C72.8096 49.124 72.8289 49.0927 72.8379 49.0787L72.0359 48.5627ZM74.7888 44.183L72.0332 48.567L72.8406 49.0745L75.5962 44.6904L74.7888 44.183ZM75.4216 43.6063C75.1649 43.7367 74.9483 43.937 74.7925 44.1773L75.5926 44.6961C75.6617 44.5895 75.7541 44.507 75.8535 44.4565L75.4216 43.6063ZM79.6425 40.9105C78.6757 41.7468 77.2706 42.6548 75.4194 43.6075L75.8557 44.4554C77.7435 43.4839 79.221 42.536 80.2664 41.6317L79.6425 40.9105ZM80.6864 39.8388L79.6133 40.938L80.2956 41.6042L81.3688 40.505L80.6864 39.8388ZM81.2181 38.7549C81.2005 38.9879 81.0487 39.3721 80.6523 39.8777L81.4028 40.4661C81.8474 39.899 82.1307 39.3343 82.1691 38.8267L81.2181 38.7549ZM81.2276 38.6303L81.2181 38.7549L82.1691 38.8267L82.1785 38.7021L81.2276 38.6303ZM81.2576 38.8766L81.337 38.9718L82.069 38.3606L81.9896 38.2655L81.2576 38.8766ZM76.7519 39.227C77.8114 38.7947 78.8556 38.5591 79.6968 38.5219C80.1177 38.5032 80.4718 38.535 80.7449 38.6065C81.0219 38.679 81.1787 38.7822 81.2576 38.8766L81.9896 38.2655C81.7389 37.9652 81.3745 37.7855 80.9863 37.6839C80.5942 37.5813 80.1392 37.5477 79.6546 37.5692C78.6848 37.6121 77.5327 37.8785 76.3917 38.344L76.7519 39.227ZM61.5546 51.0405C62.5816 49.0206 64.6849 46.7612 67.4047 44.6478C70.1162 42.5408 73.4033 40.6077 76.7536 39.2263L76.3901 38.3447C72.959 39.7594 69.5975 41.7361 66.8196 43.8948C64.0499 46.047 61.8228 48.409 60.7045 50.6083L61.5546 51.0405ZM56.4659 57.4666C58.3983 56.032 60.11 53.8801 61.5545 51.0406L60.7046 50.6082C59.3073 53.3549 57.6811 55.3768 55.8974 56.701L56.4659 57.4666ZM54.5457 58.5976C55.1783 58.3229 55.8227 57.9441 56.4659 57.4666L55.8974 56.701C55.3044 57.1413 54.7227 57.4811 54.1659 57.7229L54.5457 58.5976ZM53.5153 58.9393C53.8409 58.8711 54.1736 58.7592 54.5457 58.5976L54.1659 57.7229C53.8366 57.8659 53.5667 57.9542 53.3197 58.006L53.5153 58.9393ZM52.4755 59.0904L53.4856 58.9446L53.3494 58.0007L52.3393 58.1465L52.4755 59.0904ZM52.1208 59.1417L52.4757 59.0903L52.3391 58.1466L51.9842 58.1979L52.1208 59.1417ZM54.8312 66.7819L52.5114 58.5406L51.5935 58.799L53.9133 67.0403L54.8312 66.7819ZM87.9205 77.3478L88.0291 77.3152L87.7549 76.4019L87.6463 76.4345L87.9205 77.3478ZM82.4024 76.9161L87.7434 77.3663L87.8235 76.416L82.4825 75.9658L82.4024 76.9161ZM82.1697 76.8373L82.2273 76.8665L82.6575 76.0154L82.5998 75.9863L82.1697 76.8373ZM82.1245 76.8127C82.1351 76.8188 82.1458 76.8246 82.1561 76.8302L82.6134 75.9934C82.6065 75.9896 82.6032 75.9878 82.601 75.9866C82.5994 75.9857 82.6004 75.9863 82.6021 75.9873L82.1245 76.8127ZM82.1127 76.8057C82.1153 76.8073 82.1198 76.8099 82.1249 76.8129L82.6018 75.9871C82.6029 75.9877 82.6034 75.988 82.6002 75.9861L82.1127 76.8057ZM82.0894 76.791L82.0956 76.795L82.6173 75.9968L82.6111 75.9927L82.0894 76.791ZM82.0483 76.7632C82.0684 76.7769 82.0782 76.7836 82.0879 76.79L82.6126 75.9937C82.6123 75.9935 82.6115 75.993 82.6075 75.9903C82.6032 75.9874 82.5969 75.983 82.5855 75.9753L82.0483 76.7632ZM81.9091 76.6458C81.9492 76.685 81.9938 76.7237 82.0357 76.7543L82.598 75.9841C82.6008 75.9861 82.5991 75.985 82.5934 75.9802C82.5882 75.9757 82.5818 75.9699 82.5751 75.9633L81.9091 76.6458ZM81.3143 74.9106C81.2964 75.5617 81.4974 76.2441 81.9091 76.6458L82.5751 75.9633C82.4147 75.8068 82.2542 75.4209 82.2675 74.9368L81.3143 74.9106ZM82.1648 73.138C81.8234 73.2523 81.6243 73.5692 81.5138 73.8411C81.3933 74.1377 81.3248 74.5069 81.3143 74.9112L82.2675 74.9362C82.2759 74.6164 82.33 74.3657 82.3973 74.2C82.4747 74.0096 82.5287 74.0218 82.4675 74.0423L82.1648 73.138ZM82.2791 73.0997L82.1648 73.138L82.4675 74.0423L82.5818 74.004L82.2791 73.0997ZM87.9738 73.5024L82.4672 73.0765L82.3937 74.0273L87.9002 74.4532L87.9738 73.5024ZM88.4006 74.0916L88.4051 74.0683L87.4689 73.8872L87.4644 73.9105L88.4006 74.0916ZM88.1897 73.5982C88.1794 73.5923 88.1682 73.5864 88.1575 73.5806L87.7075 74.4214C87.7146 74.4252 87.7183 74.4272 87.7208 74.4285C87.723 74.4297 87.7223 74.4294 87.7206 74.4284L88.1897 73.5982ZM88.2052 73.6071C88.2025 73.6055 88.1966 73.602 88.1899 73.5983L87.7204 74.4283C87.7188 74.4274 87.7175 74.4266 87.722 74.4293L88.2052 73.6071ZM88.2315 73.6237C88.2284 73.6216 88.2254 73.6197 88.2229 73.618L87.7044 74.4184C87.7072 74.4202 87.7082 74.4208 87.709 74.4214L88.2315 73.6237ZM88.2714 73.6505C88.2514 73.6369 88.2415 73.6302 88.2317 73.6238L87.7087 74.4212C87.7091 74.4214 87.7099 74.422 87.7139 74.4247C87.7182 74.4276 87.7246 74.4319 87.7358 74.4395L88.2714 73.6505ZM88.4119 73.7689C88.3715 73.7295 88.3265 73.6904 88.2843 73.6596L87.7229 74.4305C87.721 74.429 87.7206 74.4287 87.7217 74.4296C87.7227 74.4304 87.7245 74.4319 87.7271 74.4341C87.7323 74.4386 87.7389 74.4445 87.7459 74.4514L88.4119 73.7689ZM89.0088 75.5057C89.0274 74.8567 88.8235 74.1705 88.4119 73.7689L87.7459 74.4514C87.9074 74.609 88.0693 74.9996 88.0556 75.4783L89.0088 75.5057ZM88.0291 77.3152C88.3825 77.2091 88.6165 76.881 88.7519 76.6015C88.9015 76.2928 88.9986 75.9075 89.0088 75.504L88.0555 75.48C88.0486 75.7525 87.9819 76.0037 87.8937 76.1858C87.7914 76.3971 87.7138 76.4142 87.7549 76.4019L88.0291 77.3152Z" fill="#132C45"/>
<path fill-rule="evenodd" clip-rule="evenodd" d="M97.3058 49.6106L94.2997 46.6825L97.2239 43.6574L100.23 46.5855L97.3058 49.6106ZM96.0588 46.6543L97.2818 47.8456L98.4715 46.6148L97.2485 45.4234L96.0588 46.6543ZM88.3782 40.9047L91.3842 43.8329L94.3083 40.8076L91.3022 37.8794L88.3782 40.9047ZM91.3607 42.0672L90.1376 40.8759L91.3273 39.645L92.5504 40.8364L91.3607 42.0672ZM86.6301 50.7526L91.5398 55.5423L92.4084 54.6459L88.3914 50.7271L92.3001 46.6935L87.3905 41.9038L86.5219 42.8001L90.5389 46.719L86.6301 50.7526ZM92.7102 52.5493L93.6024 53.4195L96.3193 50.6164L93.3109 47.6823L90.594 50.4854L91.4862 51.3556L93.3345 49.4486L94.5585 50.6423L92.7102 52.5493ZM82.6138 46.8345L85.6198 49.7628L88.5437 46.7373L85.5377 43.8091L82.6138 46.8345ZM85.5949 47.9969L84.3719 46.8055L85.5616 45.5747L86.7846 46.766L85.5949 47.9969ZM96.2143 42.6685L95.3238 41.8004L92.3935 44.8203L93.2841 45.6884L96.2143 42.6685Z" fill="#132C45"/>
<path d="M191.236 50.8144L186.203 69.9909L179.416 72.6526L157.29 73.6595L148.352 74.8193L146.558 70.9524L147.051 68.7235L142.793 68.3578L141.82 63.414L140.211 61.7803L138.479 58.6578L139.103 56.8356L134.925 55.0501L132.788 51.7897L135.448 49.169L149.067 38.5702L155.451 27.5865L161.406 27.2192L169.619 31.7363L177.746 38.4849L182.561 44.8739L185.512 47.869L191.236 50.8144Z" fill="white"/>
<path d="M142.753 19.3909C142.243 18.8736 141.41 18.8674 140.893 19.377L125.85 34.1963C125.333 34.7059 125.327 35.5384 125.836 36.0558L144.329 54.8279C144.329 54.8279 147.53 54.871 148.346 55.6992C149.162 56.5274 149.023 59.5928 149.023 59.5928C149.023 59.5928 149.352 61.1423 150.023 61.3577C150.694 61.5731 153.644 61.0768 153.644 61.0768L158.104 61.5114L158.834 64.3593L158.276 68.985L160.889 69.6808L174.339 56.9517L175.571 52.705L142.753 19.3909Z" fill="#50E3C2"/>
<path fill-rule="evenodd" clip-rule="evenodd" d="M184.712 72.1238C184.897 72.3266 185.146 72.4666 185.428 72.5255L213.412 80.7396L214.901 78.1886L187.536 70.0191L192.1 53.4333L192.862 50.6693L193.085 49.8649L193.158 49.5988L222.27 53.5067L223.036 51.2624L192.224 47.0183C191.607 47.0006 191.044 47.4202 190.873 48.0259L190.686 48.6861L190.6 48.9883L188.744 48.742C188.526 48.6778 188.24 48.5591 187.919 48.3934C187.383 48.1172 186.83 47.7492 186.27 47.2911C184.621 45.9412 183.118 43.9859 181.817 41.4299C179.038 35.9829 171.073 29.8751 162.664 26.5026C162.287 26.3502 161.799 26.1839 161.278 26.0347C160.405 25.7852 159.547 25.6158 158.731 25.5378C156.393 25.3141 154.652 25.8535 153.635 27.2153L153.383 27.5528L145.048 19.0914C143.559 17.58 141.092 17.5876 139.552 19.1044L125.999 32.4563C124.46 33.9723 124.418 36.4347 125.907 37.947L135.619 47.8049L135 47.957C134.395 48.1057 133.856 48.3409 133.392 48.6637C132.504 49.2875 131.96 50.1958 131.806 51.3096C131.561 53.0774 132.802 55.0348 134.724 56.2313C135.461 56.6934 136.363 57.0565 137.457 57.3339L137.803 57.4216L137.712 57.7688C137.554 58.3705 137.506 59.0128 137.571 59.6642C137.774 61.6305 138.962 63.2002 140.525 63.5583L140.869 63.6369L140.791 63.9824C140.662 64.5589 140.626 65.1537 140.686 65.7443C140.935 68.1646 142.65 69.9065 144.603 69.7058L145.582 69.6476L146.065 69.6192L145.946 70.0896C145.811 70.6262 145.755 71.172 145.782 71.7158C145.848 73.0566 146.385 74.2808 147.256 75.062C147.91 75.6434 148.719 75.933 149.541 75.8768L155.752 75.4591C156.37 75.4159 156.958 75.1786 157.476 74.7656L157.735 74.6877C169.161 75.7159 178.399 74.8967 184.292 72.0449L184.533 71.9282L184.712 72.1238ZM159.586 62.6919C159.958 63.3321 160.198 64.0555 160.293 64.826C160.464 66.1833 160.154 67.4992 159.439 68.4407L159.171 68.7927C159.171 68.7927 159.891 68.4502 160.26 68.0865L173.943 54.6071C174.416 54.1417 174.409 53.3621 173.919 52.8647L171.332 50.2384L155.32 33.9862C154.953 33.6584 154.601 33.2994 154.237 32.8842L143.844 22.3355C143.08 21.5595 141.831 21.5502 141.055 22.3147L128.684 34.502C127.908 35.2664 127.898 36.5152 128.663 37.2912L145.241 54.12C145.278 54.1643 145.305 54.1982 145.41 54.332L145.412 54.334L145.412 54.3348L145.449 54.381L145.643 54.3572L146.545 54.2467C148.526 54.0038 150.264 55.7429 150.518 58.1819C150.587 58.8537 150.531 59.5277 150.355 60.1618L150.223 60.6371L150.714 60.6072L156.147 60.2756C156.314 60.2585 156.572 60.2682 156.919 60.3048C158.005 60.7359 158.847 61.4509 159.443 62.4497L159.586 62.6919ZM140.94 60.6441L141.074 60.6807L147.225 59.8907L147.291 59.8514L147.311 59.8386L147.316 59.8349C147.324 59.829 147.324 59.829 147.347 59.8118C147.362 59.799 147.371 59.7911 147.381 59.7823C147.388 59.7758 147.395 59.7689 147.405 59.7591C147.729 59.4403 147.908 58.7924 147.836 58.117C147.755 57.3261 147.341 56.6475 146.965 56.557L146.838 56.5266L140.6 57.3547L140.513 57.4407C140.189 57.7591 140.009 58.405 140.078 59.0875C140.158 59.8644 140.567 60.543 140.94 60.6441ZM156.898 66.1586L156.829 66.2264L144.169 67.1458L144.088 67.1544L143.962 67.1458C143.584 67.0493 143.175 66.3683 143.105 65.5799C143.056 65.0419 143.16 64.5138 143.377 64.1486L143.427 63.9329L143.416 63.7972L156.359 62.8603L156.44 62.8517L156.565 62.8603C156.94 62.956 157.348 63.6356 157.422 64.4226C157.485 65.1103 157.299 65.7651 156.969 66.0945C156.944 66.1169 156.935 66.1254 156.923 66.1361L156.898 66.1586ZM137.951 50.7305L137.807 50.7336C137.726 50.7353 137.665 50.7318 137.608 50.7192C136.349 50.468 135.081 50.5996 134.474 51.033C134.216 51.2163 134.074 51.4534 134.016 51.8155C133.92 52.4039 134.674 53.4633 135.657 54.0633C136.466 54.5577 137.673 54.8966 139.282 55.0776L139.369 55.0874L139.455 55.0547C139.677 54.9696 139.889 54.9116 140.087 54.8829L141.806 54.643L137.951 50.7305ZM187.107 61.4581L185.126 68.6277L185.092 68.7499L184.988 68.8219C180.296 72.0774 171.356 73.1205 159.522 72.1762L159.155 72.1469L159.202 71.6764C159.216 71.5402 159.221 71.4668 159.224 71.3886L159.236 70.9906L159.631 71.0531C160.851 71.2465 162.092 70.8538 162.973 69.9855L176.385 56.7727C177.912 55.2685 177.94 52.8138 176.447 51.298L166.399 41.0983C166.337 40.9235 166.297 40.8398 166.252 40.7697L163.061 35.7472C162.931 35.5485 162.753 35.3869 162.548 35.284C160.395 34.1886 158.733 33.1303 157.573 32.1357L156.334 30.8785C155.848 30.2645 155.595 29.7205 155.561 29.2952L155.549 29.1521L155.64 29.0423C156.393 28.1315 158.913 28.2417 161.446 29.2613C169.253 32.4372 176.767 38.1743 179.255 43.0106C180.903 46.2123 182.832 48.6011 184.974 50.176C185.687 50.7 186.393 51.1095 187.078 51.403C187.482 51.5761 187.828 51.6895 188.158 51.7569L189.319 51.9189L189.727 51.976L187.107 61.4581ZM148.646 73.07L148.77 73.1068L154.905 72.5606L154.971 72.5268C154.987 72.5182 154.991 72.5157 154.996 72.5128C154.998 72.5115 155 72.5102 155.004 72.5083C155.015 72.5008 155.015 72.5008 155.049 72.4775C155.071 72.4609 155.103 72.4342 155.134 72.4028C155.462 72.0805 155.666 71.4658 155.645 70.8136C155.62 69.9817 155.357 69.3905 155.035 69.2842L154.903 69.2409L148.578 69.7601L148.583 69.7868C148.567 69.7958 148.562 69.7987 148.556 69.8017C148.554 69.8031 148.551 69.8046 148.548 69.8067C148.545 69.8087 148.542 69.8102 148.54 69.8117C148.534 69.816 148.527 69.8205 148.502 69.8378C148.48 69.8541 148.448 69.8811 148.416 69.9129C148.088 70.2358 147.881 70.8554 147.903 71.5032C147.926 72.28 148.286 72.9639 148.646 73.07Z" fill="#132C45"/>
<path d="M185.428 72.5255L185.54 71.9892C185.554 71.9921 185.568 71.9957 185.582 71.9998L185.428 72.5255ZM184.712 72.1238L184.307 72.4931L184.307 72.4931L184.712 72.1238ZM213.412 80.7396L213.886 81.0157C213.759 81.2332 213.5 81.3362 213.258 81.2653L213.412 80.7396ZM214.901 78.1886L215.058 77.6637C215.219 77.7117 215.349 77.8311 215.411 77.9874C215.472 78.1436 215.459 78.3196 215.374 78.4648L214.901 78.1886ZM187.536 70.0191L187.379 70.5441C187.094 70.4588 186.929 70.161 187.008 69.8737L187.536 70.0191ZM192.1 53.4333L191.572 53.2879L191.572 53.2876L192.1 53.4333ZM192.862 50.6693L192.334 50.5237L192.334 50.5232L192.862 50.6693ZM193.085 49.8649L193.613 50.011L193.613 50.011L193.085 49.8649ZM193.158 49.5988L192.63 49.4527C192.703 49.1888 192.96 49.0194 193.231 49.0558L193.158 49.5988ZM222.27 53.5067L222.788 53.6838C222.703 53.9313 222.456 54.0845 222.197 54.0497L222.27 53.5067ZM223.036 51.2624L223.111 50.7196C223.273 50.742 223.417 50.8356 223.503 50.9749C223.589 51.1142 223.608 51.2846 223.555 51.4395L223.036 51.2624ZM192.224 47.0183L192.24 46.4706C192.26 46.4712 192.28 46.4728 192.299 46.4755L192.224 47.0183ZM190.873 48.0259L190.345 47.8766L190.345 47.8766L190.873 48.0259ZM190.686 48.6861L190.159 48.5368L190.159 48.5368L190.686 48.6861ZM190.6 48.9883L191.127 49.1375C191.053 49.3994 190.798 49.5672 190.528 49.5314L190.6 48.9883ZM188.744 48.742L188.672 49.2851C188.645 49.2814 188.617 49.2756 188.59 49.2676L188.744 48.742ZM187.919 48.3934L187.667 48.8803L187.667 48.8803L187.919 48.3934ZM186.27 47.2911L186.617 46.8671L186.617 46.8671L186.27 47.2911ZM181.817 41.4299L182.305 41.1809L182.306 41.1815L181.817 41.4299ZM162.664 26.5026L162.46 27.0111L162.459 27.0105L162.664 26.5026ZM161.278 26.0347L161.428 25.508L161.428 25.508L161.278 26.0347ZM158.731 25.5378L158.783 24.9924L158.783 24.9924L158.731 25.5378ZM153.635 27.2153L153.196 26.8875L153.196 26.8875L153.635 27.2153ZM153.383 27.5528L153.822 27.8806C153.727 28.0086 153.58 28.0885 153.421 28.0994C153.261 28.1103 153.105 28.0511 152.993 27.9373L153.383 27.5528ZM139.552 19.1044L139.937 19.4947L139.552 19.1044ZM125.999 32.4563L125.614 32.066L125.999 32.4563ZM135.619 47.8049L136.009 47.4204C136.147 47.5608 136.2 47.7646 136.146 47.9541C136.092 48.1437 135.941 48.2899 135.75 48.3369L135.619 47.8049ZM135 47.957L134.869 47.425L134.869 47.425L135 47.957ZM133.392 48.6637L133.077 48.2154L133.079 48.2138L133.392 48.6637ZM131.806 51.3096L132.348 51.3846L132.348 51.3846L131.806 51.3096ZM134.724 56.2313L135.014 55.7662L135.015 55.7671L134.724 56.2313ZM137.457 57.3339L137.592 56.8028L137.592 56.8028L137.457 57.3339ZM137.803 57.4216L137.938 56.8905C138.079 56.9264 138.201 57.0174 138.275 57.1433C138.349 57.2692 138.37 57.4195 138.333 57.5608L137.803 57.4216ZM137.712 57.7688L138.242 57.908L138.242 57.908L137.712 57.7688ZM137.571 59.6642L137.026 59.7206L137.026 59.7187L137.571 59.6642ZM140.525 63.5583L140.403 64.0923L140.403 64.0923L140.525 63.5583ZM140.869 63.6369L140.991 63.1029C141.285 63.1702 141.469 63.4624 141.403 63.7567L140.869 63.6369ZM140.791 63.9824L141.326 64.1022L141.326 64.1022L140.791 63.9824ZM140.686 65.7443L140.141 65.8005L140.141 65.7995L140.686 65.7443ZM144.603 69.7058L144.547 69.1608C144.555 69.16 144.563 69.1593 144.571 69.1589L144.603 69.7058ZM145.582 69.6476L145.549 69.1007L145.55 69.1007L145.582 69.6476ZM146.065 69.6192L146.033 69.0723C146.207 69.0621 146.376 69.1355 146.487 69.2701C146.599 69.4046 146.639 69.5842 146.596 69.7535L146.065 69.6192ZM145.946 70.0896L145.415 69.9554L145.415 69.9554L145.946 70.0896ZM145.782 71.7158L146.33 71.6885L146.33 71.6892L145.782 71.7158ZM147.256 75.062L146.892 75.4714L146.89 75.4699L147.256 75.062ZM149.541 75.8768L149.503 75.3302L149.504 75.3302L149.541 75.8768ZM155.752 75.4591L155.79 76.0056L155.789 76.0057L155.752 75.4591ZM157.476 74.7656L157.135 74.3371C157.189 74.2937 157.252 74.2612 157.318 74.2411L157.476 74.7656ZM157.735 74.6877L157.576 74.1631C157.643 74.1429 157.714 74.1357 157.784 74.142L157.735 74.6877ZM184.292 72.0449L184.531 72.5381L184.531 72.5381L184.292 72.0449ZM184.533 71.9282L184.295 71.4351C184.513 71.3295 184.775 71.3798 184.938 71.5589L184.533 71.9282ZM160.293 64.826L159.75 64.8944L159.749 64.8932L160.293 64.826ZM159.586 62.6919L160.058 62.413L160.06 62.4171L159.586 62.6919ZM159.439 68.4407L159.002 68.1091L159.002 68.1091L159.439 68.4407ZM159.171 68.7927L159.406 69.2875C159.178 69.3961 158.905 69.3344 158.746 69.1383C158.586 68.9422 158.582 68.6624 158.735 68.4612L159.171 68.7927ZM171.332 50.2384L171.722 49.8539L171.722 49.8539L171.332 50.2384ZM155.32 33.9862L155.685 33.5781C155.694 33.5857 155.702 33.5936 155.71 33.6017L155.32 33.9862ZM154.237 32.8842L154.627 32.4996C154.634 32.5072 154.642 32.515 154.649 32.523L154.237 32.8842ZM143.844 22.3355L143.454 22.72L143.454 22.72L143.844 22.3355ZM141.055 22.3147L141.439 22.7049L141.055 22.3147ZM128.684 34.502L128.299 34.1117L128.684 34.502ZM145.241 54.12L145.632 53.7355C145.643 53.7469 145.653 53.7588 145.664 53.7711L145.241 54.12ZM145.41 54.332L144.98 54.6714L144.98 54.6713L145.41 54.332ZM145.412 54.334L145.842 53.9946L145.843 53.9958L145.412 54.334ZM145.412 54.3348L144.982 54.6741L144.981 54.6729L145.412 54.3348ZM145.449 54.381L145.515 54.9248C145.325 54.9481 145.137 54.8706 145.019 54.7203L145.449 54.381ZM145.643 54.3572L145.71 54.901L145.71 54.901L145.643 54.3572ZM146.545 54.2467L146.612 54.7905L146.612 54.7905L146.545 54.2467ZM150.518 58.1819L151.063 58.1252L151.063 58.1261L150.518 58.1819ZM150.355 60.1618L149.827 60.0153L149.827 60.0153L150.355 60.1618ZM150.223 60.6371L150.256 61.184C150.08 61.1948 149.909 61.1195 149.797 60.9819C149.686 60.8442 149.648 60.6613 149.695 60.4907L150.223 60.6371ZM150.714 60.6072L150.747 61.1541L150.747 61.1541L150.714 60.6072ZM156.147 60.2756L156.203 60.8206C156.195 60.8214 156.188 60.822 156.18 60.8225L156.147 60.2756ZM156.919 60.3048L156.976 59.76C157.026 59.7652 157.074 59.7772 157.121 59.7956L156.919 60.3048ZM159.443 62.4497L159.914 62.1687L159.915 62.1708L159.443 62.4497ZM141.074 60.6807L141.144 61.2241C141.073 61.2332 141 61.2283 140.931 61.2094L141.074 60.6807ZM140.94 60.6441L140.796 61.1729L140.796 61.1729L140.94 60.6441ZM147.225 59.8907L147.506 60.361C147.441 60.3996 147.369 60.4245 147.295 60.4341L147.225 59.8907ZM147.291 59.8514L147.587 60.3122C147.582 60.3154 147.577 60.3186 147.572 60.3217L147.291 59.8514ZM147.311 59.8386L147.619 60.2918L147.607 60.2993L147.311 59.8386ZM147.316 59.8349L147.64 60.2769C147.635 60.2807 147.629 60.2844 147.624 60.288L147.316 59.8349ZM147.347 59.8118L147.698 60.2323C147.691 60.238 147.684 60.2434 147.677 60.2488L147.347 59.8118ZM147.381 59.7823L147.752 60.1859L147.751 60.186L147.381 59.7823ZM147.836 58.117L147.292 58.1749L147.292 58.173L147.836 58.117ZM146.965 56.557L147.092 56.0243L147.092 56.0243L146.965 56.557ZM146.838 56.5266L146.766 55.9835C146.832 55.9746 146.9 55.9781 146.966 55.9938L146.838 56.5266ZM140.6 57.3547L140.215 56.9644C140.3 56.8809 140.41 56.8272 140.528 56.8116L140.6 57.3547ZM140.513 57.4407L140.897 57.831L140.513 57.4407ZM140.078 59.0875L139.533 59.1435L139.532 59.142L140.078 59.0875ZM156.829 66.2264L157.214 66.6167C157.121 66.708 156.999 66.7634 156.869 66.7728L156.829 66.2264ZM156.898 66.1586L156.514 65.7683C156.52 65.7618 156.527 65.7555 156.534 65.7494L156.898 66.1586ZM144.169 67.1458L144.112 66.601C144.118 66.6004 144.124 66.5998 144.13 66.5994L144.169 67.1458ZM144.088 67.1544L144.145 67.6993C144.114 67.7026 144.082 67.7032 144.05 67.701L144.088 67.1544ZM143.962 67.1458L143.925 67.6924C143.892 67.6901 143.859 67.6849 143.827 67.6767L143.962 67.1458ZM143.105 65.5799L143.651 65.5296L143.651 65.5314L143.105 65.5799ZM143.377 64.1486L143.911 64.2722C143.898 64.3274 143.877 64.3803 143.848 64.4291L143.377 64.1486ZM143.427 63.9329L143.973 63.888C143.978 63.9445 143.974 64.0013 143.961 64.0566L143.427 63.9329ZM143.416 63.7972L142.87 63.8422C142.858 63.6964 142.905 63.5519 143 63.4409C143.095 63.3298 143.231 63.2614 143.376 63.2508L143.416 63.7972ZM156.359 62.8603L156.416 63.4051C156.41 63.4057 156.404 63.4063 156.398 63.4067L156.359 62.8603ZM156.44 62.8517L156.382 62.3068C156.414 62.3035 156.446 62.3029 156.477 62.3051L156.44 62.8517ZM156.565 62.8603L156.603 62.3137C156.636 62.316 156.668 62.3212 156.701 62.3294L156.565 62.8603ZM157.422 64.4226L157.968 64.3714L157.968 64.3724L157.422 64.4226ZM156.969 66.0945L157.356 66.4823C157.35 66.4881 157.344 66.4938 157.338 66.4994L156.969 66.0945ZM156.923 66.1361L157.289 66.5444L157.288 66.5453L156.923 66.1361ZM137.807 50.7336L137.819 51.2813L137.819 51.2813L137.807 50.7336ZM137.951 50.7305L137.94 50.1828C138.091 50.1796 138.236 50.2387 138.342 50.3461L137.951 50.7305ZM137.608 50.7192L137.715 50.1818L137.725 50.184L137.608 50.7192ZM134.474 51.033L134.792 51.4789L134.791 51.4799L134.474 51.033ZM134.016 51.8155L134.557 51.9026L134.557 51.9035L134.016 51.8155ZM135.657 54.0633L135.943 53.5956L135.943 53.5958L135.657 54.0633ZM139.282 55.0776L139.221 55.622L139.221 55.622L139.282 55.0776ZM139.369 55.0874L139.565 55.5991C139.483 55.6304 139.395 55.6416 139.308 55.6318L139.369 55.0874ZM139.455 55.0547L139.259 54.543L139.259 54.543L139.455 55.0547ZM140.087 54.8829L140.008 54.3407L140.011 54.3403L140.087 54.8829ZM141.806 54.643L142.196 54.2586C142.341 54.4061 142.391 54.623 142.325 54.8191C142.258 55.0152 142.087 55.157 141.882 55.1857L141.806 54.643ZM185.126 68.6277L184.598 68.4818L184.598 68.4818L185.126 68.6277ZM187.107 61.4581L186.578 61.3122L186.578 61.3121L187.107 61.4581ZM185.092 68.7499L185.62 68.8957C185.586 69.0193 185.51 69.127 185.404 69.2L185.092 68.7499ZM184.988 68.8219L185.301 69.2721L185.301 69.2721L184.988 68.8219ZM159.522 72.1762L159.479 72.7223L159.479 72.7223L159.522 72.1762ZM159.155 72.1469L159.112 72.693C158.965 72.6813 158.829 72.6111 158.735 72.4982C158.64 72.3853 158.595 72.2392 158.61 72.0928L159.155 72.1469ZM159.202 71.6764L158.657 71.6224L158.657 71.6211L159.202 71.6764ZM159.224 71.3886L159.771 71.4058L159.771 71.4058L159.224 71.3886ZM159.236 70.9906L158.689 70.9733C158.694 70.8161 158.766 70.6686 158.887 70.5684C159.008 70.4682 159.167 70.4248 159.322 70.4495L159.236 70.9906ZM159.631 71.0531L159.545 71.5942L159.545 71.5942L159.631 71.0531ZM166.399 41.0983L166.008 41.4828C165.952 41.4257 165.909 41.357 165.882 41.2814L166.399 41.0983ZM166.252 40.7697L165.792 41.0683L165.789 41.0634L166.252 40.7697ZM163.061 35.7472L163.52 35.4469L163.524 35.4535L163.061 35.7472ZM162.548 35.284L162.302 35.7736L162.3 35.7723L162.548 35.284ZM157.573 32.1357L157.216 32.5517C157.205 32.5417 157.193 32.5312 157.182 32.5203L157.573 32.1357ZM156.334 30.8785L155.943 31.2631C155.93 31.249 155.916 31.2341 155.904 31.2186L156.334 30.8785ZM155.561 29.2952L156.107 29.2513L156.107 29.2513L155.561 29.2952ZM155.549 29.1521L155.003 29.1959C154.992 29.0538 155.036 28.9128 155.127 28.8029L155.549 29.1521ZM155.64 29.0423L156.062 29.3915L156.062 29.3915L155.64 29.0423ZM161.446 29.2613L161.651 28.7531L161.652 28.7539L161.446 29.2613ZM179.255 43.0106L178.768 43.2613L178.768 43.2612L179.255 43.0106ZM184.974 50.176L185.299 49.7346L185.299 49.7346L184.974 50.176ZM187.078 51.403L187.294 50.8994L187.294 50.8994L187.078 51.403ZM188.158 51.7569L188.082 52.2995C188.071 52.2979 188.059 52.2959 188.048 52.2936L188.158 51.7569ZM189.319 51.9189L189.395 51.3763L189.395 51.3763L189.319 51.9189ZM189.727 51.976L189.803 51.4334C189.959 51.4553 190.099 51.5434 190.185 51.6753C190.272 51.8072 190.297 51.9699 190.255 52.122L189.727 51.976ZM148.77 73.1068L148.819 73.6525C148.75 73.6586 148.681 73.6518 148.615 73.6323L148.77 73.1068ZM148.646 73.07L148.49 73.5954L148.49 73.5954L148.646 73.07ZM154.905 72.5606L155.154 73.0484C155.092 73.0804 155.024 73.1 154.954 73.1063L154.905 72.5606ZM154.971 72.5268L155.236 73.0063C155.231 73.0091 155.226 73.0119 155.22 73.0146L154.971 72.5268ZM154.996 72.5128L155.274 72.9852L155.273 72.9853L154.996 72.5128ZM155.004 72.5083L155.305 72.966C155.298 72.9701 155.292 72.9742 155.286 72.978L155.004 72.5083ZM155.049 72.4775L155.374 72.9184C155.369 72.9219 155.364 72.9253 155.36 72.9286L155.049 72.4775ZM155.645 70.8136L155.098 70.8313L155.098 70.8306L155.645 70.8136ZM155.035 69.2842L154.863 69.8046L154.863 69.8046L155.035 69.2842ZM154.903 69.2409L154.858 68.6948C154.931 68.6888 155.005 68.6976 155.074 68.7205L154.903 69.2409ZM148.578 69.7601L148.041 69.8666C148.01 69.7135 148.047 69.5546 148.141 69.43C148.235 69.3054 148.378 69.2269 148.533 69.2141L148.578 69.7601ZM148.583 69.7868L149.121 69.6803C149.168 69.9158 149.055 70.1543 148.844 70.2686L148.583 69.7868ZM148.556 69.8017L148.83 70.2763L148.83 70.2763L148.556 69.8017ZM148.548 69.8067L148.248 69.3481C148.254 69.3439 148.261 69.3398 148.268 69.3358L148.548 69.8067ZM148.54 69.8117L148.843 70.2683L148.843 70.2684L148.54 69.8117ZM148.502 69.8378L148.177 69.3964C148.182 69.3928 148.187 69.3893 148.192 69.3859L148.502 69.8378ZM147.903 71.5032L148.45 71.4849L148.45 71.4868L147.903 71.5032ZM185.316 73.0618C184.927 72.9805 184.573 72.7849 184.307 72.4931L185.117 71.7545C185.22 71.8683 185.365 71.9527 185.54 71.9892L185.316 73.0618ZM213.258 81.2653L185.274 73.0512L185.582 71.9998L213.567 80.2139L213.258 81.2653ZM215.374 78.4648L213.886 81.0157L212.939 80.4634L214.428 77.9125L215.374 78.4648ZM187.693 69.4941L215.058 77.6637L214.744 78.7136L187.379 70.5441L187.693 69.4941ZM192.628 53.5786L188.064 70.1644L187.008 69.8737L191.572 53.2879L192.628 53.5786ZM193.39 50.8149L192.628 53.5789L191.572 53.2876L192.334 50.5237L193.39 50.8149ZM193.613 50.011L193.39 50.8154L192.334 50.5232L192.557 49.7188L193.613 50.011ZM193.686 49.7449L193.613 50.011L192.557 49.7188L192.63 49.4527L193.686 49.7449ZM222.197 54.0497L193.085 50.1418L193.231 49.0558L222.342 52.9637L222.197 54.0497ZM223.555 51.4395L222.788 53.6838L221.751 53.3296L222.518 51.0852L223.555 51.4395ZM192.299 46.4755L223.111 50.7196L222.962 51.8051L192.15 47.561L192.299 46.4755ZM190.345 47.8766C190.583 47.0362 191.365 46.4456 192.24 46.4706L192.209 47.5659C191.849 47.5556 191.505 47.8042 191.4 48.1752L190.345 47.8766ZM190.159 48.5368L190.345 47.8766L191.4 48.1751L191.213 48.8353L190.159 48.5368ZM190.073 48.839L190.159 48.5368L191.213 48.8353L191.127 49.1375L190.073 48.839ZM188.817 48.1989L190.672 48.4452L190.528 49.5314L188.672 49.2851L188.817 48.1989ZM188.17 47.9065C188.472 48.0624 188.725 48.1651 188.899 48.2163L188.59 49.2676C188.327 49.1905 188.008 49.0558 187.667 48.8803L188.17 47.9065ZM186.617 46.8671C187.152 47.3046 187.674 47.6504 188.17 47.9065L187.667 48.8803C187.093 48.5841 186.508 48.1938 185.923 47.715L186.617 46.8671ZM182.306 41.1815C183.581 43.6886 185.041 45.5771 186.617 46.8671L185.923 47.715C184.201 46.3053 182.654 44.2831 181.329 41.6784L182.306 41.1815ZM162.868 25.9941C167.12 27.6994 171.258 30.095 174.688 32.7554C178.11 35.4098 180.865 38.3571 182.305 41.1809L181.329 41.6789C179.991 39.0557 177.374 36.2256 174.016 33.6212C170.666 31.0229 166.617 28.6783 162.46 27.0111L162.868 25.9941ZM161.428 25.508C161.964 25.6613 162.472 25.8336 162.87 25.9947L162.459 27.0105C162.103 26.8667 161.634 26.7064 161.127 26.5615L161.428 25.508ZM158.783 24.9924C159.637 25.0741 160.528 25.2506 161.428 25.508L161.127 26.5615C160.282 26.3199 159.457 26.1576 158.679 26.0831L158.783 24.9924ZM153.196 26.8875C154.375 25.3095 156.349 24.7595 158.783 24.9924L158.679 26.0831C156.437 25.8687 154.93 26.3976 154.074 27.5432L153.196 26.8875ZM152.944 27.2249L153.196 26.8875L154.074 27.5432L153.822 27.8806L152.944 27.2249ZM145.438 18.7069L153.774 27.1683L152.993 27.9373L144.657 19.4759L145.438 18.7069ZM139.168 18.7141C140.916 16.9923 143.729 16.9725 145.438 18.7069L144.657 19.4759C143.388 18.1874 141.268 18.1829 139.937 19.4947L139.168 18.7141ZM125.614 32.066L139.168 18.7141L139.937 19.4947L126.383 32.8466L125.614 32.066ZM125.517 38.3315C123.808 36.5968 123.867 33.7875 125.614 32.066L126.383 32.8466C125.053 34.157 125.027 36.2726 126.298 37.5625L125.517 38.3315ZM135.228 48.1894L125.517 38.3315L126.298 37.5625L136.009 47.4204L135.228 48.1894ZM134.869 47.425L135.488 47.2729L135.75 48.3369L135.131 48.4891L134.869 47.425ZM133.079 48.2138C133.605 47.8483 134.207 47.5877 134.869 47.425L135.131 48.4891C134.583 48.6237 134.107 48.8335 133.704 49.1135L133.079 48.2138ZM131.263 51.2345C131.437 49.9764 132.059 48.9302 133.077 48.2154L133.707 49.1119C132.948 49.6448 132.482 50.4152 132.348 51.3846L131.263 51.2345ZM134.435 56.6964C132.413 55.4381 130.977 53.3001 131.263 51.2345L132.348 51.3846C132.145 52.8547 133.191 54.6315 135.014 55.7662L134.435 56.6964ZM137.322 57.8649C136.189 57.5776 135.231 57.1956 134.433 56.6955L135.015 55.7671C135.692 56.1913 136.537 56.5354 137.592 56.8028L137.322 57.8649ZM137.668 57.9526L137.322 57.8649L137.592 56.8028L137.938 56.8905L137.668 57.9526ZM137.182 57.6296L137.273 57.2824L138.333 57.5608L138.242 57.908L137.182 57.6296ZM137.026 59.7187C136.954 59.0057 137.006 58.2976 137.182 57.6296L138.242 57.908C138.101 58.4435 138.057 59.02 138.116 59.6097L137.026 59.7187ZM140.403 64.0923C138.548 63.6675 137.246 61.849 137.026 59.7206L138.116 59.6078C138.302 61.412 139.375 62.7328 140.648 63.0242L140.403 64.0923ZM140.746 64.1709L140.403 64.0923L140.648 63.0242L140.991 63.1029L140.746 64.1709ZM140.257 63.8625L140.334 63.5171L141.403 63.7567L141.326 64.1022L140.257 63.8625ZM140.141 65.7995C140.075 65.1503 140.114 64.4964 140.257 63.8625L141.326 64.1022C141.209 64.6214 141.177 65.1571 141.231 65.689L140.141 65.7995ZM144.659 70.2508C142.299 70.4933 140.409 68.4039 140.141 65.8005L141.231 65.6881C141.462 67.9252 143 69.3197 144.547 69.1608L144.659 70.2508ZM145.614 70.1945L144.636 70.2527L144.571 69.1589L145.549 69.1007L145.614 70.1945ZM146.097 70.1661L145.614 70.1945L145.55 69.1007L146.033 69.0723L146.097 70.1661ZM145.415 69.9554L145.534 69.485L146.596 69.7535L146.477 70.2239L145.415 69.9554ZM145.235 71.7431C145.205 71.1437 145.266 70.5435 145.415 69.9554L146.477 70.2239C146.355 70.7089 146.305 71.2002 146.33 71.6885L145.235 71.7431ZM146.89 75.4699C145.893 74.5758 145.306 73.2052 145.235 71.7423L146.33 71.6892C146.389 72.9081 146.877 73.9858 147.622 74.6542L146.89 75.4699ZM149.578 76.4234C148.599 76.4903 147.647 76.1435 146.892 75.4714L147.62 74.6527C148.172 75.1434 148.839 75.3756 149.503 75.3302L149.578 76.4234ZM155.789 76.0057L149.578 76.4235L149.504 75.3302L155.716 74.9124L155.789 76.0057ZM157.818 75.194C157.22 75.6707 156.528 75.9542 155.79 76.0056L155.714 74.9125C156.213 74.8777 156.696 74.6866 157.135 74.3371L157.818 75.194ZM157.893 75.2122L157.635 75.2901L157.318 74.2411L157.576 74.1631L157.893 75.2122ZM184.531 72.5381C178.5 75.4566 169.138 76.2639 157.686 75.2333L157.784 74.142C169.184 75.1679 178.298 74.3368 184.054 71.5517L184.531 72.5381ZM184.772 72.4214L184.531 72.5381L184.054 71.5518L184.295 71.4351L184.772 72.4214ZM184.307 72.4931L184.129 72.2975L184.938 71.5589L185.117 71.7545L184.307 72.4931ZM159.749 64.8932C159.663 64.1927 159.445 63.5404 159.113 62.9667L160.06 62.4171C160.47 63.1237 160.733 63.9183 160.837 64.7589L159.749 64.8932ZM159.002 68.1091C159.617 67.3002 159.905 66.1342 159.75 64.8944L160.837 64.7577C161.022 66.2323 160.691 67.6981 159.875 68.7722L159.002 68.1091ZM158.735 68.4612L159.002 68.1091L159.875 68.7722L159.607 69.1243L158.735 68.4612ZM160.645 68.4768C160.409 68.7094 160.086 68.9142 159.852 69.05C159.729 69.121 159.62 69.1795 159.54 69.2204C159.501 69.241 159.468 69.2572 159.445 69.2686C159.434 69.2742 159.425 69.2787 159.418 69.2819C159.415 69.2835 159.412 69.2847 159.41 69.2857C159.409 69.2861 159.408 69.2865 159.408 69.2868C159.407 69.287 159.407 69.2871 159.407 69.2872C159.407 69.2873 159.407 69.2873 159.407 69.2874C159.407 69.2874 159.407 69.2874 159.407 69.2874C159.406 69.2874 159.406 69.2875 159.171 68.7927C158.936 68.298 158.936 68.298 158.936 68.2981C158.936 68.2981 158.936 68.2981 158.935 68.2981C158.935 68.2981 158.935 68.2981 158.935 68.2981C158.935 68.2982 158.935 68.2982 158.935 68.2982C158.935 68.2981 158.936 68.298 158.936 68.2978C158.937 68.2974 158.938 68.2967 158.94 68.2957C158.945 68.2937 158.951 68.2905 158.96 68.2861C158.978 68.2773 159.005 68.2639 159.038 68.2466C159.105 68.2119 159.199 68.1621 159.302 68.102C159.52 67.9756 159.743 67.8273 159.876 67.6962L160.645 68.4768ZM174.328 54.9974L160.645 68.4768L159.876 67.6962L173.559 54.2168L174.328 54.9974ZM174.309 52.4802C174.997 53.1786 175.03 54.3056 174.328 54.9974L173.559 54.2168C173.801 53.9778 173.821 53.5455 173.529 53.2492L174.309 52.4802ZM171.722 49.8539L174.309 52.4802L173.529 53.2492L170.942 50.6229L171.722 49.8539ZM155.71 33.6017L171.722 49.8539L170.942 50.6229L154.929 34.3708L155.71 33.6017ZM154.649 32.523C155 32.9236 155.337 33.2666 155.685 33.5781L154.954 34.3944C154.57 34.0502 154.201 33.6752 153.825 33.2453L154.649 32.523ZM144.234 21.951L154.627 32.4996L153.846 33.2687L143.454 22.72L144.234 21.951ZM140.67 21.9244C141.662 20.9476 143.257 20.9595 144.234 21.951L143.454 22.72C142.902 22.1596 142 22.1529 141.439 22.7049L140.67 21.9244ZM128.299 34.1117L140.67 21.9244L141.439 22.7049L129.068 34.8923L128.299 34.1117ZM128.272 37.6757C127.296 36.6842 127.308 35.0885 128.299 34.1117L129.068 34.8923C128.508 35.4444 128.501 36.3463 129.053 36.9067L128.272 37.6757ZM144.851 54.5045L128.272 37.6757L129.053 36.9067L145.632 53.7355L144.851 54.5045ZM144.98 54.6713C144.873 54.5354 144.85 54.5072 144.819 54.4689L145.664 53.7711C145.705 53.8213 145.736 53.8611 145.84 53.9927L144.98 54.6713ZM144.982 54.6734L144.98 54.6714L145.84 53.9926L145.842 53.9946L144.982 54.6734ZM144.981 54.6729L144.981 54.6721L145.843 53.9958L145.843 53.9966L144.981 54.6729ZM145.019 54.7203L144.982 54.6741L145.842 53.9955L145.879 54.0417L145.019 54.7203ZM145.71 54.901L145.515 54.9248L145.382 53.8372L145.577 53.8134L145.71 54.901ZM146.612 54.7905L145.71 54.901L145.577 53.8134L146.478 53.7029L146.612 54.7905ZM149.973 58.2385C149.739 55.985 148.181 54.598 146.612 54.7905L146.478 53.7029C148.871 53.4096 150.79 55.5008 151.063 58.1252L149.973 58.2385ZM149.827 60.0153C149.984 59.4484 150.035 58.8431 149.973 58.2377L151.063 58.1261C151.139 58.8644 151.077 59.607 150.883 60.3083L149.827 60.0153ZM149.695 60.4907L149.827 60.0153L150.883 60.3083L150.751 60.7836L149.695 60.4907ZM150.747 61.1541L150.256 61.184L150.19 60.0903L150.681 60.0604L150.747 61.1541ZM156.18 60.8225L150.747 61.1541L150.681 60.0604L156.114 59.7287L156.18 60.8225ZM156.861 60.8497C156.521 60.8137 156.311 60.8096 156.203 60.8206L156.091 59.7306C156.318 59.7073 156.623 59.7227 156.976 59.76L156.861 60.8497ZM158.973 62.7307C158.438 61.8359 157.691 61.2009 156.717 60.8141L157.121 59.7956C158.319 60.271 159.255 61.0659 159.914 62.1687L158.973 62.7307ZM159.115 62.9708L158.972 62.7286L159.915 62.1708L160.058 62.413L159.115 62.9708ZM140.931 61.2094L140.796 61.1729L141.083 60.1154L141.218 60.1519L140.931 61.2094ZM147.295 60.4341L141.144 61.2241L141.004 60.1373L147.155 59.3473L147.295 60.4341ZM147.572 60.3217L147.506 60.361L146.944 59.4204L147.01 59.3812L147.572 60.3217ZM147.607 60.2993L147.587 60.3122L146.994 59.3907L147.014 59.3778L147.607 60.2993ZM147.624 60.288L147.619 60.2916L147.003 59.3855L147.008 59.3819L147.624 60.288ZM147.677 60.2488C147.666 60.2569 147.66 60.2621 147.655 60.2659C147.648 60.2707 147.644 60.2737 147.64 60.2769L146.992 59.393C146.996 59.3903 146.996 59.3903 146.997 59.3894C147 59.3873 147.004 59.3839 147.016 59.3749L147.677 60.2488ZM147.751 60.186C147.732 60.2041 147.714 60.219 147.698 60.2323L146.996 59.3913C147.01 59.3789 147.011 59.3781 147.011 59.3787L147.751 60.186ZM147.79 60.1494C147.778 60.1607 147.766 60.1729 147.752 60.1859L147.01 59.3788C147.01 59.3788 147.011 59.3787 147.011 59.3784C147.011 59.3781 147.012 59.3777 147.012 59.3769C147.014 59.3753 147.017 59.3729 147.021 59.3689L147.79 60.1494ZM148.381 58.059C148.463 58.828 148.276 59.6704 147.79 60.1494L147.021 59.3689C147.182 59.2102 147.354 58.7567 147.292 58.1749L148.381 58.059ZM147.092 56.0243C147.506 56.1237 147.804 56.4841 147.986 56.8015C148.187 57.1502 148.333 57.5919 148.381 58.0609L147.292 58.173C147.258 57.8512 147.157 57.5581 147.036 57.3472C146.897 57.105 146.799 57.0808 146.837 57.0898L147.092 56.0243ZM146.966 55.9938L147.092 56.0243L146.837 57.0898L146.71 57.0593L146.966 55.9938ZM140.528 56.8116L146.766 55.9835L146.91 57.0697L140.672 57.8978L140.528 56.8116ZM140.128 57.0504L140.215 56.9644L140.984 57.745L140.897 57.831L140.128 57.0504ZM139.532 59.142C139.455 58.3687 139.642 57.5288 140.128 57.0504L140.897 57.831C140.736 57.9893 140.564 58.4414 140.623 59.033L139.532 59.142ZM140.796 61.1729C140.394 61.0636 140.103 60.7066 139.923 60.3901C139.725 60.0433 139.58 59.6061 139.533 59.1435L140.623 59.0314C140.655 59.3458 140.755 59.6363 140.875 59.8483C141.013 60.0906 141.113 60.1235 141.083 60.1154L140.796 61.1729ZM156.445 65.8361L156.514 65.7683L157.282 66.5489L157.214 66.6167L156.445 65.8361ZM144.13 66.5994L156.789 65.6799L156.869 66.7728L144.209 67.6923L144.13 66.5994ZM144.03 66.6096L144.112 66.601L144.227 67.6907L144.145 67.6993L144.03 66.6096ZM144 66.5993L144.125 66.6079L144.05 67.701L143.925 67.6924L144 66.5993ZM143.651 65.5314C143.679 65.8504 143.777 66.1423 143.895 66.3534C144.031 66.5947 144.13 66.6233 144.098 66.615L143.827 67.6767C143.416 67.5719 143.121 67.2117 142.941 66.8913C142.743 66.5406 142.601 66.0978 142.559 65.6284L143.651 65.5314ZM143.848 64.4291C143.702 64.674 143.609 65.0804 143.651 65.5296L142.56 65.6301C142.502 65.0034 142.617 64.3536 142.907 63.8681L143.848 64.4291ZM143.961 64.0566L143.911 64.2722L142.844 64.0249L142.893 63.8093L143.961 64.0566ZM143.962 63.7523L143.973 63.888L142.881 63.9779L142.87 63.8422L143.962 63.7523ZM156.398 63.4067L143.456 64.3437L143.376 63.2508L156.319 62.3138L156.398 63.4067ZM156.497 63.3965L156.416 63.4051L156.301 62.3154L156.382 62.3068L156.497 63.3965ZM156.528 63.4069L156.402 63.3982L156.477 62.3051L156.603 62.3137L156.528 63.4069ZM156.877 64.4739C156.847 64.1546 156.749 63.8625 156.629 63.6514C156.493 63.4093 156.395 63.3823 156.43 63.3911L156.701 62.3294C157.111 62.434 157.404 62.7945 157.584 63.113C157.781 63.4624 157.924 63.9036 157.968 64.3714L156.877 64.4739ZM156.582 65.7068C156.755 65.5337 156.931 65.067 156.877 64.4729L157.968 64.3724C158.04 65.1536 157.843 65.9965 157.356 66.4823L156.582 65.7068ZM156.558 65.7277C156.568 65.7191 156.575 65.7124 156.6 65.6896L157.338 66.4994C157.314 66.5215 157.303 66.5318 157.289 66.5444L156.558 65.7277ZM156.534 65.7494L156.559 65.7269L157.288 66.5453L157.262 66.5677L156.534 65.7494ZM137.796 50.1858L137.94 50.1828L137.963 51.2783L137.819 51.2813L137.796 50.1858ZM137.725 50.184C137.722 50.1834 137.734 50.1871 137.796 50.1858L137.819 51.2813C137.718 51.2834 137.609 51.2803 137.49 51.2544L137.725 50.184ZM134.156 50.5871C134.569 50.2916 135.146 50.1345 135.741 50.0743C136.349 50.0128 137.036 50.0464 137.715 50.1819L137.5 51.2564C136.921 51.1408 136.344 51.1146 135.852 51.1645C135.346 51.2156 134.986 51.341 134.792 51.4789L134.156 50.5871ZM133.475 51.7284C133.553 51.2416 133.763 50.8657 134.157 50.5861L134.791 51.4799C134.668 51.5669 134.595 51.6652 134.557 51.9026L133.475 51.7284ZM135.372 54.5309C134.817 54.1919 134.329 53.7267 133.988 53.2564C133.818 53.0208 133.675 52.7719 133.582 52.5248C133.49 52.2846 133.43 52.0051 133.475 51.7275L134.557 51.9035C134.554 51.92 134.552 51.9937 134.606 52.1363C134.658 52.2721 134.747 52.4359 134.876 52.6136C135.134 52.9702 135.515 53.3347 135.943 53.5956L135.372 54.5309ZM139.221 55.622C137.58 55.4375 136.281 55.0864 135.372 54.5308L135.943 53.5958C136.652 54.0291 137.766 54.3557 139.343 54.5331L139.221 55.622ZM139.308 55.6318L139.221 55.622L139.343 54.5331L139.43 54.543L139.308 55.6318ZM139.651 55.5663L139.565 55.5991L139.173 54.5757L139.259 54.543L139.651 55.5663ZM140.166 55.4251C140.015 55.4469 139.843 55.4927 139.651 55.5663L139.259 54.543C139.511 54.4465 139.763 54.3763 140.008 54.3407L140.166 55.4251ZM141.882 55.1857L140.163 55.4255L140.011 54.3403L141.73 54.1004L141.882 55.1857ZM138.342 50.3461L142.196 54.2586L141.416 55.0275L137.561 51.115L138.342 50.3461ZM184.598 68.4818L186.578 61.3122L187.635 61.6039L185.654 68.7736L184.598 68.4818ZM184.564 68.604L184.598 68.4818L185.654 68.7735L185.62 68.8957L184.564 68.604ZM184.676 68.3718L184.78 68.2997L185.404 69.2L185.301 69.2721L184.676 68.3718ZM159.566 71.63C165.459 72.1003 170.612 72.0739 174.864 71.5305C179.124 70.9861 182.433 69.9281 184.676 68.3718L185.301 69.2721C182.852 70.9711 179.344 72.0625 175.003 72.6174C170.653 73.1734 165.419 73.1964 159.479 72.7223L159.566 71.63ZM159.199 71.6007L159.566 71.63L159.479 72.7223L159.112 72.693L159.199 71.6007ZM159.747 71.7305L159.7 72.2009L158.61 72.0928L158.657 71.6224L159.747 71.7305ZM159.771 71.4058C159.768 71.5032 159.761 71.5916 159.747 71.7318L158.657 71.6211C158.67 71.4888 158.674 71.4303 158.676 71.3713L159.771 71.4058ZM159.784 71.0078L159.771 71.4058L158.676 71.3714L158.689 70.9733L159.784 71.0078ZM159.545 71.5942L159.151 71.5317L159.322 70.4495L159.716 70.5119L159.545 71.5942ZM163.358 70.3758C162.351 71.3673 160.936 71.8146 159.545 71.5942L159.716 70.5119C160.767 70.6784 161.832 70.3404 162.589 69.5952L163.358 70.3758ZM176.77 57.163L163.358 70.3758L162.589 69.5952L176.001 56.3824L176.77 57.163ZM176.837 50.9136C178.545 52.6476 178.51 55.4491 176.77 57.163L176.001 56.3824C177.315 55.0878 177.334 52.98 176.056 51.6825L176.837 50.9136ZM166.789 40.7139L176.837 50.9136L176.056 51.6825L166.008 41.4828L166.789 40.7139ZM166.711 40.4711C166.792 40.5953 166.848 40.7268 166.915 40.9153L165.882 41.2814C165.825 41.1202 165.803 41.0843 165.792 41.0683L166.711 40.4711ZM163.524 35.4535L166.714 40.4759L165.789 41.0634L162.599 36.041L163.524 35.4535ZM162.794 34.7943C163.089 34.9428 163.339 35.1718 163.52 35.447L162.603 36.0475C162.523 35.9253 162.417 35.831 162.302 35.7736L162.794 34.7943ZM157.929 31.7196C159.045 32.6754 160.664 33.711 162.796 34.7956L162.3 35.7723C160.125 34.6663 158.422 33.5851 157.216 32.5517L157.929 31.7196ZM156.724 30.4939L157.963 31.7511L157.182 32.5203L155.943 31.2631L156.724 30.4939ZM156.107 29.2513C156.129 29.519 156.305 29.9597 156.763 30.5385L155.904 31.2186C155.39 30.5694 155.062 29.922 155.015 29.339L156.107 29.2513ZM156.096 29.1082L156.107 29.2513L155.015 29.339L155.003 29.1959L156.096 29.1082ZM156.062 29.3915L155.972 29.5012L155.127 28.8029L155.218 28.6932L156.062 29.3915ZM161.241 29.7696C160.022 29.2787 158.821 29.0136 157.854 28.9753C157.37 28.9562 156.963 28.9946 156.65 29.0783C156.332 29.1631 156.152 29.2825 156.062 29.3915L155.218 28.6932C155.504 28.3468 155.922 28.1384 156.368 28.0195C156.818 27.8995 157.34 27.8584 157.897 27.8805C159.012 27.9245 160.337 28.2244 161.651 28.7531L161.241 29.7696ZM178.768 43.2612C177.577 40.9459 175.148 38.3612 172.011 35.9475C168.884 33.5412 165.097 31.3378 161.24 29.7688L161.652 28.7539C165.603 30.3607 169.476 32.6138 172.679 35.0791C175.873 37.537 178.445 40.239 179.742 42.76L178.768 43.2612ZM184.65 50.6175C182.421 48.9795 180.443 46.5162 178.768 43.2613L179.742 42.7599C181.362 45.9084 183.242 48.2227 185.299 49.7346L184.65 50.6175ZM186.862 51.9065C186.134 51.5943 185.391 51.1626 184.65 50.6175L185.299 49.7346C185.982 50.2373 186.653 50.6246 187.294 50.8994L186.862 51.9065ZM188.048 52.2936C187.673 52.217 187.291 52.0902 186.862 51.9065L187.294 50.8994C187.673 51.0619 187.983 51.162 188.268 51.2201L188.048 52.2936ZM189.243 52.4615L188.082 52.2995L188.233 51.2143L189.395 51.3763L189.243 52.4615ZM189.651 52.5186L189.243 52.4615L189.395 51.3763L189.803 51.4334L189.651 52.5186ZM186.578 61.3121L189.199 51.8301L190.255 52.122L187.635 61.604L186.578 61.3121ZM148.615 73.6323L148.49 73.5954L148.801 72.5445L148.925 72.5813L148.615 73.6323ZM154.954 73.1063L148.819 73.6525L148.722 72.5611L154.856 72.0148L154.954 73.1063ZM155.22 73.0146L155.154 73.0484L154.656 72.0727L154.722 72.0389L155.22 73.0146ZM155.273 72.9853C155.261 72.9927 155.248 72.9994 155.236 73.0063L154.706 72.0472C154.714 72.0427 154.718 72.0406 154.72 72.0393C154.722 72.0384 154.721 72.0391 154.719 72.0402L155.273 72.9853ZM155.286 72.978C155.284 72.9793 155.279 72.9822 155.274 72.9852L154.719 72.0404C154.718 72.0407 154.718 72.0409 154.718 72.0406C154.719 72.0402 154.72 72.0398 154.721 72.0387L155.286 72.978ZM155.36 72.9286C155.327 72.9514 155.322 72.9547 155.305 72.966L154.702 72.0507C154.708 72.0473 154.707 72.0473 154.709 72.046C154.713 72.0432 154.72 72.0385 154.738 72.0263L155.36 72.9286ZM155.519 72.7931C155.473 72.8383 155.422 72.8831 155.374 72.9184L154.724 72.0365C154.721 72.0388 154.723 72.0375 154.729 72.0319C154.735 72.0268 154.742 72.0201 154.75 72.0125L155.519 72.7931ZM156.193 70.796C156.217 71.5441 155.99 72.3293 155.519 72.7931L154.75 72.0125C154.933 71.8318 155.116 71.3875 155.098 70.8313L156.193 70.796ZM155.206 68.7639C155.599 68.8933 155.829 69.2564 155.958 69.5682C156.098 69.9083 156.179 70.3322 156.193 70.7967L155.098 70.8306C155.086 70.4632 155.023 70.1755 154.945 69.9854C154.855 69.7671 154.793 69.7814 154.863 69.8046L155.206 68.7639ZM155.074 68.7205L155.206 68.7639L154.863 69.8046L154.732 69.7612L155.074 68.7205ZM148.533 69.2141L154.858 68.6948L154.948 69.7869L148.623 70.3061L148.533 69.2141ZM148.046 69.8933L148.041 69.8666L149.116 69.6536L149.121 69.6803L148.046 69.8933ZM148.283 69.3271C148.296 69.3194 148.309 69.3121 148.323 69.305L148.844 70.2686C148.835 70.2734 148.831 70.2757 148.829 70.2772C148.826 70.2783 148.828 70.2776 148.83 70.2763L148.283 69.3271ZM148.268 69.3358C148.271 69.3341 148.276 69.3307 148.283 69.3271L148.83 70.2763C148.831 70.2755 148.832 70.275 148.828 70.2776L148.268 69.3358ZM148.237 69.3551C148.241 69.3525 148.245 69.3501 148.248 69.3481L148.848 70.2652C148.845 70.2672 148.844 70.2679 148.843 70.2683L148.237 69.3551ZM148.192 69.3859C148.215 69.3701 148.226 69.3624 148.238 69.355L148.843 70.2684C148.842 70.2686 148.841 70.2693 148.837 70.2724C148.832 70.2758 148.825 70.2807 148.812 70.2896L148.192 69.3859ZM148.031 69.5226C148.077 69.4772 148.129 69.432 148.177 69.3964L148.827 70.2791C148.829 70.2775 148.829 70.277 148.828 70.2781C148.827 70.279 148.825 70.2807 148.822 70.2833C148.816 70.2885 148.808 70.2953 148.8 70.3032L148.031 69.5226ZM147.355 71.5215C147.33 70.7759 147.561 69.9864 148.031 69.5226L148.8 70.3032C148.616 70.4852 148.432 70.9349 148.45 71.4849L147.355 71.5215ZM148.49 73.5954C148.084 73.4754 147.813 73.0997 147.656 72.7793C147.483 72.4253 147.369 71.9832 147.355 71.5196L148.45 71.4868C148.46 71.8 148.538 72.0882 148.64 72.2969C148.759 72.5392 148.848 72.5584 148.801 72.5445L148.49 73.5954Z" fill="#132C45"/>
<path fill-rule="evenodd" clip-rule="evenodd" d="M144.499 30.5445L143.242 31.7832C142.993 32.029 142.591 32.026 142.345 31.7765L142.117 31.545C141.871 31.2955 141.874 30.8938 142.124 30.648L144.069 28.732C144.296 28.5081 144.649 28.4906 144.896 28.6777C144.921 28.6962 144.944 28.7167 144.966 28.7392L146.872 30.6734C147.118 30.923 147.115 31.3247 146.865 31.5705L146.629 31.8027C146.38 32.0486 145.978 32.0455 145.732 31.796L144.499 30.5445ZM134.954 39.0878C134.949 39.0829 134.944 39.078 134.939 39.073L134.711 38.8415C134.465 38.592 134.468 38.1903 134.717 37.9445L136.662 36.0285C136.912 35.7826 137.313 35.7856 137.559 36.0352L137.787 36.2666C138.033 36.5162 138.03 36.9178 137.781 37.1637L136.523 38.4021L137.756 39.6532C138.002 39.9028 137.999 40.3044 137.749 40.5503L137.514 40.7825C137.264 41.0283 136.862 41.0253 136.617 40.7757L134.954 39.0878ZM152.235 36.1179C151.989 35.8683 151.588 35.8653 151.338 36.1112L151.102 36.3433C150.853 36.5892 150.85 36.9908 151.096 37.2404L152.328 38.4917L151.071 39.7303C150.821 39.9762 150.818 40.3778 151.064 40.6274L151.292 40.8588C151.538 41.1084 151.94 41.1114 152.189 40.8655L154.134 38.9495C154.373 38.714 154.386 38.3356 154.171 38.0848C154.161 38.0736 154.151 38.0627 154.141 38.0521L152.235 36.1179ZM141.987 45.3234C141.737 45.5692 141.734 45.9709 141.98 46.2204L143.647 47.9127L143.658 47.9235L143.886 48.1549C144.131 48.4045 144.533 48.4075 144.783 48.1616L146.728 46.2457C146.977 45.9998 146.98 45.5982 146.734 45.3486L146.506 45.1172C146.26 44.8676 145.859 44.8646 145.609 45.1104L144.352 46.3489L143.12 45.0979C142.874 44.8483 142.472 44.8453 142.223 45.0912L141.987 45.3234Z" fill="#132C45"/>
<path fill-rule="evenodd" clip-rule="evenodd" d="M108.821 32.2528C109.295 32.2278 109.695 32.5955 109.715 33.0707L109.755 34.0321C111.082 32.4435 112.528 31.3391 114.054 30.6814C115.748 29.9496 117.449 29.7974 119.055 30.0686C119.892 30.2101 120.581 30.4408 121.09 30.6825C121.139 30.7056 121.172 30.7222 121.198 30.7359C121.618 30.9588 121.774 31.4787 121.554 31.8976C121.461 32.0741 121.312 32.2108 121.132 32.2883C120.897 32.39 120.626 32.3818 120.396 32.2592L120.431 32.2758C120.06 32.0862 119.447 31.8698 118.664 31.7494C117.387 31.5532 116.06 31.6841 114.721 32.2617C113.404 32.8307 112.144 33.8046 110.958 35.2597L112.095 35.2087C112.57 35.1875 112.967 35.5589 112.983 36.0345C112.995 36.3933 112.785 36.7188 112.462 36.8583C112.368 36.899 112.267 36.9224 112.163 36.9273L109.022 37.0675C108.555 37.0882 108.163 36.7287 108.135 36.2493L108.007 33.1524C107.987 32.6805 108.35 32.2777 108.821 32.2528ZM125.127 46.7951C124.653 46.8201 124.253 46.4525 124.232 45.9772L124.193 45.0159C122.866 46.6044 121.42 47.7089 119.894 48.3666C118.2 49.0983 116.499 49.2506 114.893 48.9793C114.056 48.8379 113.367 48.6072 112.858 48.3654C112.809 48.3424 112.776 48.3257 112.75 48.312C112.33 48.0892 112.174 47.5693 112.394 47.1504C112.487 46.9739 112.636 46.8371 112.816 46.7596C113.051 46.658 113.321 46.6661 113.552 46.7887L113.517 46.7722C113.887 46.9617 114.501 47.1782 115.284 47.2986C116.561 47.4948 117.888 47.3638 119.227 46.7863C120.544 46.2173 121.803 45.2433 122.99 43.7883L121.853 43.8393C121.378 43.8605 120.981 43.4891 120.965 43.0134C120.953 42.6547 121.163 42.3292 121.486 42.1896C121.58 42.149 121.681 42.1256 121.785 42.1206L124.926 41.9804C125.393 41.9597 125.785 42.3192 125.813 42.7986L125.941 45.8955C125.961 46.3674 125.598 46.7703 125.127 46.7951Z" fill="#50E3C2"/>
</g>
<defs>
<clipPath id="clip0">
<rect width="240" height="110" fill="white"/>
</clipPath>
</defs>
</svg>
