<svg width="240" height="110" viewBox="0 0 240 110" fill="none" xmlns="http://www.w3.org/2000/svg">
<rect width="240" height="110" fill="white"/>
<rect x="103.834" y="31.8358" width="32.2332" height="30.978" rx="4.28668" fill="#50E3C2" stroke="#132C45" stroke-width="4.5438"/>
<path fill-rule="evenodd" clip-rule="evenodd" d="M119.951 40.8867C117.606 40.8867 115.703 42.7894 115.703 45.1345C115.706 46.6529 116.517 48.0547 117.831 48.81V53.6142C117.823 54.1813 118.043 54.7272 118.441 55.1326C118.841 55.5354 119.384 55.7633 119.951 55.7633C120.518 55.7633 121.064 55.5354 121.462 55.1326C121.859 54.7272 122.079 54.1813 122.071 53.6142V48.8073C123.385 48.0494 124.196 46.6503 124.199 45.1345C124.199 42.7894 122.299 40.8867 119.951 40.8867H119.951Z" fill="#132C45"/>
<path d="M128.954 25.0033C128.954 20.0309 124.923 16 119.951 16C114.979 16 110.948 20.0309 110.948 25.0033V33.0616" stroke="#132C45" stroke-width="4.5438"/>
<path d="M74.6691 95.2101L77.6044 91.85L80.5011 95.2101L82.4708 93.7811L80.2307 89.9961L84.2088 88.2581L83.475 85.9408L79.2265 86.9063L78.8017 82.542H76.3685L75.9437 86.9063L71.7338 85.9408L71 88.2581L74.9395 89.9961L72.6994 93.7811L74.6691 95.2101Z" fill="#132C45"/>
<path d="M91.6041 95.2101L94.5394 91.85L97.4361 95.2101L99.4058 93.7811L97.1657 89.9961L101.144 88.2581L100.41 85.9408L96.1615 86.9063L95.7367 82.542H93.3035L92.8786 86.9063L88.6688 85.9408L87.935 88.2581L91.8744 89.9961L89.6344 93.7811L91.6041 95.2101Z" fill="#132C45"/>
<path d="M108.539 95.2101L111.474 91.85L114.371 95.2101L116.341 93.7811L114.101 89.9961L118.079 88.2581L117.345 85.9408L113.096 86.9063L112.672 82.542H110.238L109.814 86.9063L105.604 85.9408L104.87 88.2581L108.809 89.9961L106.569 93.7811L108.539 95.2101Z" fill="#132C45"/>
<path d="M125.474 95.2101L128.409 91.85L131.306 95.2101L133.276 93.7811L131.036 89.9961L135.014 88.2581L134.28 85.9408L130.031 86.9063L129.607 82.542H127.173L126.749 86.9063L122.539 85.9408L121.805 88.2581L125.744 89.9961L123.504 93.7811L125.474 95.2101Z" fill="#132C45"/>
<path d="M142.409 95.2101L145.344 91.85L148.241 95.2101L150.211 93.7811L147.971 89.9961L151.949 88.2581L151.215 85.9408L146.966 86.9063L146.542 82.542H144.108L143.684 86.9063L139.474 85.9408L138.74 88.2581L142.679 89.9961L140.439 93.7811L142.409 95.2101Z" fill="#132C45"/>
<path d="M159.344 95.2101L162.279 91.85L165.176 95.2101L167.146 93.7811L164.906 89.9961L168.884 88.2581L168.15 85.9408L163.901 86.9063L163.477 82.542H161.043L160.619 86.9063L156.409 85.9408L155.675 88.2581L159.614 89.9961L157.374 93.7811L159.344 95.2101Z" fill="#132C45"/>
</svg>
