<svg width="240" height="110" viewBox="0 0 240 110" fill="none" xmlns="http://www.w3.org/2000/svg">
<rect width="240" height="110" fill="white"/>
<path d="M110.629 48.0607L105.565 43.6072C109.063 38.5199 115.946 37.2968 119.258 37.1643V32.7923L115.681 30.4076L116.475 27.228L122.835 26.4331L128.399 27.228V30.4076L125.219 31.9974L124.425 36.7668L135.553 40.7413L138.335 38.7541L142.31 37.9592L143.502 41.5362L140.391 44.6471C140.973 45.0109 142.154 47.2123 144.297 53.8572C148.272 66.1782 140.72 77.3068 128.399 82.8711C118.542 87.3225 108.659 80.2214 104.949 76.1144L109.869 72.2305C110.267 72.628 112.501 73.8887 117.27 76.1144C123.232 78.8966 134.758 75.3195 138.335 64.9858C141.912 54.6521 133.168 45.9082 125.219 43.921C118.86 42.3312 112.881 45.9409 110.629 48.0607Z" fill="#50E3C2"/>
<path d="M143.804 43.396L142.081 45.1361C145.694 49.9497 147.446 55.9083 147.015 61.9124C146.587 67.9168 144.002 73.5632 139.738 77.8128C135.476 82.0626 129.823 84.6304 123.816 85.0418C123.245 85.0781 122.681 85.0974 122.119 85.0974C115.05 85.1119 108.305 82.1182 103.576 76.8641C103.027 76.2252 103.087 75.2668 103.712 74.7029C104.336 74.139 105.297 74.1778 105.875 74.7876C111.057 80.5258 118.883 83.1009 126.461 81.5662C134.038 80.0294 140.241 74.6086 142.783 67.3065C145.322 60.0025 143.819 51.9024 138.828 45.9968C138.306 45.3797 138.344 44.4672 138.915 43.8961L141.616 41.1952C142.008 40.762 141.991 40.0965 141.58 39.6851C141.166 39.2712 140.501 39.2543 140.067 39.6463L137.26 42.4537H137.263C136.716 42.9982 135.852 43.0587 135.237 42.594C132.127 40.2635 128.453 38.8041 124.59 38.3685C123.806 38.2838 123.211 37.6231 123.211 36.8341V31.8389C123.204 31.4251 123.363 31.0233 123.654 30.728C123.947 30.4328 124.344 30.2658 124.76 30.2658H126.178C126.783 30.2658 127.274 29.7745 127.274 29.1695C127.274 28.5644 126.783 28.0732 126.178 28.0732H118.049C117.444 28.0732 116.953 28.5645 116.953 29.1695C116.953 29.7745 117.444 30.2658 118.049 30.2658H119.467C119.878 30.2658 120.273 30.4279 120.563 30.7184C120.854 31.0088 121.016 31.4033 121.016 31.8147V36.8341C121.016 37.6206 120.423 38.2813 119.641 38.3685C114.634 38.942 109.977 41.2243 106.456 44.8329C105.856 45.4452 104.874 45.4549 104.261 44.8547C103.649 44.2521 103.639 43.2695 104.24 42.6572C107.93 38.8866 112.718 36.3767 117.918 35.4889V33.364C115.733 33.1656 114.073 31.3166 114.106 29.1215C114.14 26.9288 115.859 25.1307 118.049 25H126.178C128.368 25.1307 130.087 26.9289 130.121 29.1215C130.154 31.3166 128.492 33.1655 126.309 33.364V35.4647C129.77 36.0504 133.071 37.3621 135.992 39.3127L137.851 37.454C139.487 35.8132 142.144 35.8132 143.782 37.4492C145.421 39.0876 145.423 41.7425 143.785 43.3834L143.804 43.396ZM93 52.1813C93 52.5903 93.1622 52.9848 93.4526 53.2752C93.7454 53.5656 94.1375 53.7302 94.5489 53.7302H105.304C106.16 53.7302 106.853 53.0356 106.853 52.1813C106.853 51.3246 106.16 50.6324 105.304 50.6324H94.5557C93.7014 50.6324 93.0092 51.3222 93.0068 52.174L93 52.1813ZM110.609 59.6885C110.609 59.2795 110.444 58.885 110.154 58.5946C109.864 58.3042 109.469 58.1396 109.06 58.1396H98.3096C97.4529 58.1396 96.7607 58.8342 96.7607 59.6885C96.7607 60.5452 97.4529 61.2374 98.3096 61.2374H109.06C109.469 61.2374 109.864 61.0752 110.154 60.7848C110.444 60.4944 110.609 60.0999 110.609 59.6885V59.6885ZM94.5563 68.7545H105.304C106.161 68.7545 106.853 68.0599 106.853 67.2056C106.853 66.3489 106.161 65.6567 105.304 65.6567H94.5563C93.6996 65.6567 93.0074 66.3489 93.0074 67.2056C93.0074 68.0599 93.6996 68.7545 94.5563 68.7545ZM130.706 53.711L126.735 57.6825C127.942 59.9719 127.291 62.8011 125.208 64.3353C123.124 65.8721 120.232 65.6543 118.402 63.8222C116.57 61.9926 116.353 59.1005 117.889 57.017C119.424 54.9332 122.253 54.2822 124.542 55.4899L128.514 51.5184C129.119 50.9134 130.101 50.9134 130.706 51.5184C131.311 52.1235 131.311 53.106 130.706 53.7111L130.706 53.711ZM124.239 60.1172C124.239 59.2581 123.721 58.4836 122.928 58.1545C122.131 57.8253 121.219 58.0068 120.612 58.6143C120.002 59.2217 119.82 60.1365 120.149 60.9304C120.478 61.7242 121.253 62.2421 122.112 62.2421C123.286 62.2397 124.234 61.2885 124.239 60.1172L124.239 60.1172ZM122.112 78.549C128.274 78.5587 134.034 75.49 137.46 70.3715C140.89 65.2529 141.536 58.7622 139.181 53.0673C136.829 47.3727 131.785 43.2318 125.744 42.0292C119.701 40.824 113.457 42.719 109.101 47.0752C108.496 47.6827 108.496 48.6628 109.101 49.2703C109.708 49.8754 110.688 49.8754 111.296 49.2703C114.171 46.388 118.075 44.7664 122.148 44.764C126.219 44.7616 130.125 46.3783 133.005 49.2558C135.885 52.1358 137.504 56.0394 137.504 60.1123C137.504 64.183 135.885 68.0866 133.005 70.967C130.125 73.8445 126.219 75.4612 122.148 75.4588C118.075 75.4563 114.171 73.8348 111.296 70.9549C110.689 70.3474 109.708 70.3474 109.101 70.9549C108.496 71.5599 108.496 72.5425 109.101 73.1476C112.55 76.6035 117.23 78.5469 122.112 78.5494L122.112 78.549Z" fill="#132C45"/>
</svg>
