<svg width="240" height="110" viewBox="0 0 240 110" fill="none" xmlns="http://www.w3.org/2000/svg">
<rect width="240" height="110" fill="white"/>
<rect x="103.883" y="40.5649" width="32.2332" height="32.978" rx="4.28668" fill="#50E3C2" stroke="#132C45" stroke-width="4.5438"/>
<path fill-rule="evenodd" clip-rule="evenodd" d="M120 49.6156C117.655 49.6156 115.752 51.5183 115.752 53.8634C115.755 55.3818 116.566 56.7836 117.88 57.5389V62.3431C117.872 62.9102 118.092 63.4561 118.49 63.8616C118.89 64.2643 119.433 64.4922 120 64.4922C120.567 64.4922 121.113 64.2643 121.51 63.8616C121.908 63.4561 122.128 62.9103 122.12 62.3431V57.5362C123.434 56.7784 124.245 55.3792 124.248 53.8634C124.248 51.5183 122.348 49.6156 120 49.6156H120Z" fill="#132C45"/>
<path d="M110.997 41.7907V33.7323C110.997 28.7599 115.028 24.729 120 24.729C124.972 24.729 129.003 28.7599 129.003 33.7323V40.0455" stroke="#132C45" stroke-width="4.5438"/>
<path d="M54.3831 63.6616L56.9334 60.7421L59.4503 63.6616L61.1617 62.42L59.2154 59.1314L62.6718 57.6213L62.0342 55.6078L58.3429 56.4468L57.9737 52.6548H55.8596L55.4905 56.4468L51.8327 55.6078L51.1951 57.6213L54.618 59.1314L52.6716 62.42L54.3831 63.6616Z" fill="#132C45"/>
<path d="M69.0973 63.6616L71.6476 60.7421L74.1644 63.6616L75.8759 62.42L73.9295 59.1314L77.386 57.6213L76.7484 55.6078L73.057 56.4468L72.6879 52.6548H70.5738L70.2047 56.4468L66.5469 55.6078L65.9093 57.6213L69.3322 59.1314L67.3858 62.42L69.0973 63.6616Z" fill="#132C45"/>
<path d="M83.8115 63.6616L86.3618 60.7421L88.8786 63.6616L90.5901 62.42L88.6437 59.1314L92.1002 57.6213L91.4626 55.6078L87.7712 56.4468L87.4021 52.6548H85.288L84.9189 56.4468L81.2611 55.6078L80.6235 57.6213L84.0464 59.1314L82.1 62.42L83.8115 63.6616Z" fill="#132C45"/>
<path d="M151.088 63.6616L153.638 60.7421L156.155 63.6616L157.866 62.42L155.92 59.1314L159.377 57.6213L158.739 55.6078L155.048 56.4468L154.678 52.6548H152.564L152.195 56.4468L148.537 55.6078L147.9 57.6213L151.323 59.1314L149.376 62.42L151.088 63.6616Z" fill="#132C45"/>
<path d="M165.802 63.6616L168.352 60.7421L170.869 63.6616L172.581 62.42L170.634 59.1314L174.091 57.6213L173.453 55.6078L169.762 56.4468L169.393 52.6548H167.279L166.909 56.4468L163.252 55.6078L162.614 57.6213L166.037 59.1314L164.091 62.42L165.802 63.6616Z" fill="#132C45"/>
<path d="M180.516 63.6616L183.067 60.7421L185.583 63.6616L187.295 62.42L185.348 59.1314L188.805 57.6213L188.167 55.6078L184.476 56.4468L184.107 52.6548H181.993L181.624 56.4468L177.966 55.6078L177.328 57.6213L180.751 59.1314L178.805 62.42L180.516 63.6616Z" fill="#132C45"/>
</svg>
