<svg width="240" height="110" viewBox="0 0 240 110" fill="none" xmlns="http://www.w3.org/2000/svg">
<rect width="240" height="110" fill="white"/>
<rect x="74" y="10" width="92" height="90" rx="6.06509" fill="#50E3C2" stroke="#132C45" stroke-width="4"/>
<path d="M87.6 19.7998H84.8V22.5998H87.6V19.7998Z" fill="#132C45"/>
<path d="M90.4 19.7998H87.6V22.5998H90.4V19.7998Z" fill="#132C45"/>
<path d="M93.2 19.7998H90.4V22.5998H93.2V19.7998Z" fill="#132C45"/>
<path d="M96 19.7998H93.2V22.5998H96V19.7998Z" fill="#132C45"/>
<path d="M98.8 19.7998H96V22.5998H98.8V19.7998Z" fill="#132C45"/>
<path d="M101.6 19.7998H98.8V22.5998H101.6V19.7998Z" fill="#132C45"/>
<path d="M104.4 19.7998H101.6V22.5998H104.4V19.7998Z" fill="#132C45"/>
<path d="M110 19.7998H107.2V22.5998H110V19.7998Z" fill="#132C45"/>
<path d="M115.6 19.7998H112.8V22.5998H115.6V19.7998Z" fill="#132C45"/>
<path d="M126.8 19.7998H124V22.5998H126.8V19.7998Z" fill="#132C45"/>
<path d="M138 19.7998H135.2V22.5998H138V19.7998Z" fill="#132C45"/>
<path d="M140.8 19.7998H138V22.5998H140.8V19.7998Z" fill="#132C45"/>
<path d="M143.6 19.7998H140.8V22.5998H143.6V19.7998Z" fill="#132C45"/>
<path d="M146.4 19.7998H143.6V22.5998H146.4V19.7998Z" fill="#132C45"/>
<path d="M149.2 19.7998H146.4V22.5998H149.2V19.7998Z" fill="#132C45"/>
<path d="M152 19.7998H149.2V22.5998H152V19.7998Z" fill="#132C45"/>
<path d="M154.8 19.7998H152V22.5998H154.8V19.7998Z" fill="#132C45"/>
<path d="M87.6 22.6001H84.8V25.4001H87.6V22.6001Z" fill="#132C45"/>
<path d="M104.4 22.6001H101.6V25.4001H104.4V22.6001Z" fill="#132C45"/>
<path d="M112.8 22.6001H110V25.4001H112.8V22.6001Z" fill="#132C45"/>
<path d="M121.2 22.6001H118.4V25.4001H121.2V22.6001Z" fill="#132C45"/>
<path d="M124 22.6001H121.2V25.4001H124V22.6001Z" fill="#132C45"/>
<path d="M126.8 22.6001H124V25.4001H126.8V22.6001Z" fill="#132C45"/>
<path d="M132.4 22.6001H129.6V25.4001H132.4V22.6001Z" fill="#132C45"/>
<path d="M138 22.6001H135.2V25.4001H138V22.6001Z" fill="#132C45"/>
<path d="M154.8 22.6001H152V25.4001H154.8V22.6001Z" fill="#132C45"/>
<path d="M87.6 25.3999H84.8V28.1999H87.6V25.3999Z" fill="#132C45"/>
<path d="M93.2 25.3999H90.4V28.1999H93.2V25.3999Z" fill="#132C45"/>
<path d="M96 25.3999H93.2V28.1999H96V25.3999Z" fill="#132C45"/>
<path d="M98.8 25.3999H96V28.1999H98.8V25.3999Z" fill="#132C45"/>
<path d="M104.4 25.3999H101.6V28.1999H104.4V25.3999Z" fill="#132C45"/>
<path d="M112.8 25.3999H110V28.1999H112.8V25.3999Z" fill="#132C45"/>
<path d="M121.2 25.3999H118.4V28.1999H121.2V25.3999Z" fill="#132C45"/>
<path d="M124 25.3999H121.2V28.1999H124V25.3999Z" fill="#132C45"/>
<path d="M132.4 25.3999H129.6V28.1999H132.4V25.3999Z" fill="#132C45"/>
<path d="M138 25.3999H135.2V28.1999H138V25.3999Z" fill="#132C45"/>
<path d="M143.6 25.3999H140.8V28.1999H143.6V25.3999Z" fill="#132C45"/>
<path d="M146.4 25.3999H143.6V28.1999H146.4V25.3999Z" fill="#132C45"/>
<path d="M149.2 25.3999H146.4V28.1999H149.2V25.3999Z" fill="#132C45"/>
<path d="M154.8 25.3999H152V28.1999H154.8V25.3999Z" fill="#132C45"/>
<path d="M87.6 28.2H84.8V31H87.6V28.2Z" fill="#132C45"/>
<path d="M93.2 28.2H90.4V31H93.2V28.2Z" fill="#132C45"/>
<path d="M96 28.2H93.2V31H96V28.2Z" fill="#132C45"/>
<path d="M98.8 28.2H96V31H98.8V28.2Z" fill="#132C45"/>
<path d="M104.4 28.2H101.6V31H104.4V28.2Z" fill="#132C45"/>
<path d="M115.6 28.2H112.8V31H115.6V28.2Z" fill="#132C45"/>
<path d="M124 28.2H121.2V31H124V28.2Z" fill="#132C45"/>
<path d="M126.8 28.2H124V31H126.8V28.2Z" fill="#132C45"/>
<path d="M132.4 28.2H129.6V31H132.4V28.2Z" fill="#132C45"/>
<path d="M138 28.2H135.2V31H138V28.2Z" fill="#132C45"/>
<path d="M143.6 28.2H140.8V31H143.6V28.2Z" fill="#132C45"/>
<path d="M146.4 28.2H143.6V31H146.4V28.2Z" fill="#132C45"/>
<path d="M149.2 28.2H146.4V31H149.2V28.2Z" fill="#132C45"/>
<path d="M154.8 28.2H152V31H154.8V28.2Z" fill="#132C45"/>
<path d="M87.6 31H84.8V33.8H87.6V31Z" fill="#132C45"/>
<path d="M93.2 31H90.4V33.8H93.2V31Z" fill="#132C45"/>
<path d="M96 31H93.2V33.8H96V31Z" fill="#132C45"/>
<path d="M98.8 31H96V33.8H98.8V31Z" fill="#132C45"/>
<path d="M104.4 31H101.6V33.8H104.4V31Z" fill="#132C45"/>
<path d="M124 31H121.2V33.8H124V31Z" fill="#132C45"/>
<path d="M126.8 31H124V33.8H126.8V31Z" fill="#132C45"/>
<path d="M132.4 31H129.6V33.8H132.4V31Z" fill="#132C45"/>
<path d="M138 31H135.2V33.8H138V31Z" fill="#132C45"/>
<path d="M143.6 31H140.8V33.8H143.6V31Z" fill="#132C45"/>
<path d="M146.4 31H143.6V33.8H146.4V31Z" fill="#132C45"/>
<path d="M149.2 31H146.4V33.8H149.2V31Z" fill="#132C45"/>
<path d="M154.8 31H152V33.8H154.8V31Z" fill="#132C45"/>
<path d="M87.6 33.8H84.8V36.6H87.6V33.8Z" fill="#132C45"/>
<path d="M104.4 33.8H101.6V36.6H104.4V33.8Z" fill="#132C45"/>
<path d="M112.8 33.8H110V36.6H112.8V33.8Z" fill="#132C45"/>
<path d="M118.4 33.8H115.6V36.6H118.4V33.8Z" fill="#132C45"/>
<path d="M124 33.8H121.2V36.6H124V33.8Z" fill="#132C45"/>
<path d="M126.8 33.8H124V36.6H126.8V33.8Z" fill="#132C45"/>
<path d="M132.4 33.8H129.6V36.6H132.4V33.8Z" fill="#132C45"/>
<path d="M138 33.8H135.2V36.6H138V33.8Z" fill="#132C45"/>
<path d="M154.8 33.8H152V36.6H154.8V33.8Z" fill="#132C45"/>
<path d="M87.6 36.6001H84.8V39.4001H87.6V36.6001Z" fill="#132C45"/>
<path d="M90.4 36.6001H87.6V39.4001H90.4V36.6001Z" fill="#132C45"/>
<path d="M93.2 36.6001H90.4V39.4001H93.2V36.6001Z" fill="#132C45"/>
<path d="M96 36.6001H93.2V39.4001H96V36.6001Z" fill="#132C45"/>
<path d="M98.8 36.6001H96V39.4001H98.8V36.6001Z" fill="#132C45"/>
<path d="M101.6 36.6001H98.8V39.4001H101.6V36.6001Z" fill="#132C45"/>
<path d="M104.4 36.6001H101.6V39.4001H104.4V36.6001Z" fill="#132C45"/>
<path d="M110 36.6001H107.2V39.4001H110V36.6001Z" fill="#132C45"/>
<path d="M115.6 36.6001H112.8V39.4001H115.6V36.6001Z" fill="#132C45"/>
<path d="M121.2 36.6001H118.4V39.4001H121.2V36.6001Z" fill="#132C45"/>
<path d="M126.8 36.6001H124V39.4001H126.8V36.6001Z" fill="#132C45"/>
<path d="M132.4 36.6001H129.6V39.4001H132.4V36.6001Z" fill="#132C45"/>
<path d="M138 36.6001H135.2V39.4001H138V36.6001Z" fill="#132C45"/>
<path d="M140.8 36.6001H138V39.4001H140.8V36.6001Z" fill="#132C45"/>
<path d="M143.6 36.6001H140.8V39.4001H143.6V36.6001Z" fill="#132C45"/>
<path d="M146.4 36.6001H143.6V39.4001H146.4V36.6001Z" fill="#132C45"/>
<path d="M149.2 36.6001H146.4V39.4001H149.2V36.6001Z" fill="#132C45"/>
<path d="M152 36.6001H149.2V39.4001H152V36.6001Z" fill="#132C45"/>
<path d="M154.8 36.6001H152V39.4001H154.8V36.6001Z" fill="#132C45"/>
<path d="M110 39.3999H107.2V42.1999H110V39.3999Z" fill="#132C45"/>
<path d="M112.8 39.3999H110V42.1999H112.8V39.3999Z" fill="#132C45"/>
<path d="M121.2 39.3999H118.4V42.1999H121.2V39.3999Z" fill="#132C45"/>
<path d="M124 39.3999H121.2V42.1999H124V39.3999Z" fill="#132C45"/>
<path d="M129.6 39.3999H126.8V42.1999H129.6V39.3999Z" fill="#132C45"/>
<path d="M132.4 39.3999H129.6V42.1999H132.4V39.3999Z" fill="#132C45"/>
<path d="M87.6 42.2002H84.8V45.0002H87.6V42.2002Z" fill="#132C45"/>
<path d="M90.4 42.2002H87.6V45.0002H90.4V42.2002Z" fill="#132C45"/>
<path d="M96 42.2002H93.2V45.0002H96V42.2002Z" fill="#132C45"/>
<path d="M98.8 42.2002H96V45.0002H98.8V42.2002Z" fill="#132C45"/>
<path d="M104.4 42.2002H101.6V45.0002H104.4V42.2002Z" fill="#132C45"/>
<path d="M112.8 42.2002H110V45.0002H112.8V42.2002Z" fill="#132C45"/>
<path d="M121.2 42.2002H118.4V45.0002H121.2V42.2002Z" fill="#132C45"/>
<path d="M126.8 42.2002H124V45.0002H126.8V42.2002Z" fill="#132C45"/>
<path d="M132.4 42.2002H129.6V45.0002H132.4V42.2002Z" fill="#132C45"/>
<path d="M138 42.2002H135.2V45.0002H138V42.2002Z" fill="#132C45"/>
<path d="M154.8 42.2002H152V45.0002H154.8V42.2002Z" fill="#132C45"/>
<path d="M90.4 45H87.6V47.8H90.4V45Z" fill="#132C45"/>
<path d="M93.2 45H90.4V47.8H93.2V45Z" fill="#132C45"/>
<path d="M96 45H93.2V47.8H96V45Z" fill="#132C45"/>
<path d="M107.2 45H104.4V47.8H107.2V45Z" fill="#132C45"/>
<path d="M115.6 45H112.8V47.8H115.6V45Z" fill="#132C45"/>
<path d="M118.4 45H115.6V47.8H118.4V45Z" fill="#132C45"/>
<path d="M129.6 45H126.8V47.8H129.6V45Z" fill="#132C45"/>
<path d="M132.4 45H129.6V47.8H132.4V45Z" fill="#132C45"/>
<path d="M140.8 45H138V47.8H140.8V45Z" fill="#132C45"/>
<path d="M143.6 45H140.8V47.8H143.6V45Z" fill="#132C45"/>
<path d="M146.4 45H143.6V47.8H146.4V45Z" fill="#132C45"/>
<path d="M149.2 45H146.4V47.8H149.2V45Z" fill="#132C45"/>
<path d="M152 45H149.2V47.8H152V45Z" fill="#132C45"/>
<path d="M90.4 47.7998H87.6V50.5998H90.4V47.7998Z" fill="#132C45"/>
<path d="M96 47.7998H93.2V50.5998H96V47.7998Z" fill="#132C45"/>
<path d="M98.8 47.7998H96V50.5998H98.8V47.7998Z" fill="#132C45"/>
<path d="M104.4 47.7998H101.6V50.5998H104.4V47.7998Z" fill="#132C45"/>
<path d="M110 47.7998H107.2V50.5998H110V47.7998Z" fill="#132C45"/>
<path d="M112.8 47.7998H110V50.5998H112.8V47.7998Z" fill="#132C45"/>
<path d="M118.4 47.7998H115.6V50.5998H118.4V47.7998Z" fill="#132C45"/>
<path d="M121.2 47.7998H118.4V50.5998H121.2V47.7998Z" fill="#132C45"/>
<path d="M124 47.7998H121.2V50.5998H124V47.7998Z" fill="#132C45"/>
<path d="M126.8 47.7998H124V50.5998H126.8V47.7998Z" fill="#132C45"/>
<path d="M129.6 47.7998H126.8V50.5998H129.6V47.7998Z" fill="#132C45"/>
<path d="M138 47.7998H135.2V50.5998H138V47.7998Z" fill="#132C45"/>
<path d="M146.4 47.7998H143.6V50.5998H146.4V47.7998Z" fill="#132C45"/>
<path d="M154.8 47.7998H152V50.5998H154.8V47.7998Z" fill="#132C45"/>
<path d="M87.6 50.6001H84.8V53.4001H87.6V50.6001Z" fill="#132C45"/>
<path d="M90.4 50.6001H87.6V53.4001H90.4V50.6001Z" fill="#132C45"/>
<path d="M93.2 50.6001H90.4V53.4001H93.2V50.6001Z" fill="#132C45"/>
<path d="M107.2 50.6001H104.4V53.4001H107.2V50.6001Z" fill="#132C45"/>
<path d="M110 50.6001H107.2V53.4001H110V50.6001Z" fill="#132C45"/>
<path d="M138 50.6001H135.2V53.4001H138V50.6001Z" fill="#132C45"/>
<path d="M146.4 50.6001H143.6V53.4001H146.4V50.6001Z" fill="#132C45"/>
<path d="M149.2 50.6001H146.4V53.4001H149.2V50.6001Z" fill="#132C45"/>
<path d="M152 50.6001H149.2V53.4001H152V50.6001Z" fill="#132C45"/>
<path d="M154.8 50.6001H152V53.4001H154.8V50.6001Z" fill="#132C45"/>
<path d="M87.6 53.3999H84.8V56.1999H87.6V53.3999Z" fill="#132C45"/>
<path d="M90.4 53.3999H87.6V56.1999H90.4V53.3999Z" fill="#132C45"/>
<path d="M93.2 53.3999H90.4V56.1999H93.2V53.3999Z" fill="#132C45"/>
<path d="M96 53.3999H93.2V56.1999H96V53.3999Z" fill="#132C45"/>
<path d="M98.8 53.3999H96V56.1999H98.8V53.3999Z" fill="#132C45"/>
<path d="M101.6 53.3999H98.8V56.1999H101.6V53.3999Z" fill="#132C45"/>
<path d="M104.4 53.3999H101.6V56.1999H104.4V53.3999Z" fill="#132C45"/>
<path d="M110 53.3999H107.2V56.1999H110V53.3999Z" fill="#132C45"/>
<path d="M112.8 53.3999H110V56.1999H112.8V53.3999Z" fill="#132C45"/>
<path d="M115.6 53.3999H112.8V56.1999H115.6V53.3999Z" fill="#132C45"/>
<path d="M121.2 53.3999H118.4V56.1999H121.2V53.3999Z" fill="#132C45"/>
<path d="M129.6 53.3999H126.8V56.1999H129.6V53.3999Z" fill="#132C45"/>
<path d="M138 53.3999H135.2V56.1999H138V53.3999Z" fill="#132C45"/>
<path d="M154.8 53.3999H152V56.1999H154.8V53.3999Z" fill="#132C45"/>
<path d="M87.6 56.2H84.8V59H87.6V56.2Z" fill="#132C45"/>
<path d="M90.4 56.2H87.6V59H90.4V56.2Z" fill="#132C45"/>
<path d="M93.2 56.2H90.4V59H93.2V56.2Z" fill="#132C45"/>
<path d="M96 56.2H93.2V59H96V56.2Z" fill="#132C45"/>
<path d="M107.2 56.2H104.4V59H107.2V56.2Z" fill="#132C45"/>
<path d="M110 56.2H107.2V59H110V56.2Z" fill="#132C45"/>
<path d="M112.8 56.2H110V59H112.8V56.2Z" fill="#132C45"/>
<path d="M115.6 56.2H112.8V59H115.6V56.2Z" fill="#132C45"/>
<path d="M118.4 56.2H115.6V59H118.4V56.2Z" fill="#132C45"/>
<path d="M121.2 56.2H118.4V59H121.2V56.2Z" fill="#132C45"/>
<path d="M124 56.2H121.2V59H124V56.2Z" fill="#132C45"/>
<path d="M126.8 56.2H124V59H126.8V56.2Z" fill="#132C45"/>
<path d="M129.6 56.2H126.8V59H129.6V56.2Z" fill="#132C45"/>
<path d="M132.4 56.2H129.6V59H132.4V56.2Z" fill="#132C45"/>
<path d="M135.2 56.2H132.4V59H135.2V56.2Z" fill="#132C45"/>
<path d="M143.6 56.2H140.8V59H143.6V56.2Z" fill="#132C45"/>
<path d="M152 56.2H149.2V59H152V56.2Z" fill="#132C45"/>
<path d="M87.6 59H84.8V61.8H87.6V59Z" fill="#132C45"/>
<path d="M90.4 59H87.6V61.8H90.4V59Z" fill="#132C45"/>
<path d="M96 59H93.2V61.8H96V59Z" fill="#132C45"/>
<path d="M104.4 59H101.6V61.8H104.4V59Z" fill="#132C45"/>
<path d="M107.2 59H104.4V61.8H107.2V59Z" fill="#132C45"/>
<path d="M121.2 59H118.4V61.8H121.2V59Z" fill="#132C45"/>
<path d="M124 59H121.2V61.8H124V59Z" fill="#132C45"/>
<path d="M126.8 59H124V61.8H126.8V59Z" fill="#132C45"/>
<path d="M129.6 59H126.8V61.8H129.6V59Z" fill="#132C45"/>
<path d="M135.2 59H132.4V61.8H135.2V59Z" fill="#132C45"/>
<path d="M138 59H135.2V61.8H138V59Z" fill="#132C45"/>
<path d="M143.6 59H140.8V61.8H143.6V59Z" fill="#132C45"/>
<path d="M146.4 59H143.6V61.8H146.4V59Z" fill="#132C45"/>
<path d="M149.2 59H146.4V61.8H149.2V59Z" fill="#132C45"/>
<path d="M152 59H149.2V61.8H152V59Z" fill="#132C45"/>
<path d="M154.8 59H152V61.8H154.8V59Z" fill="#132C45"/>
<path d="M87.6 61.8H84.8V64.6001H87.6V61.8Z" fill="#132C45"/>
<path d="M96 61.8H93.2V64.6001H96V61.8Z" fill="#132C45"/>
<path d="M98.8 61.8H96V64.6001H98.8V61.8Z" fill="#132C45"/>
<path d="M107.2 61.8H104.4V64.6001H107.2V61.8Z" fill="#132C45"/>
<path d="M110 61.8H107.2V64.6001H110V61.8Z" fill="#132C45"/>
<path d="M115.6 61.8H112.8V64.6001H115.6V61.8Z" fill="#132C45"/>
<path d="M132.4 61.8H129.6V64.6001H132.4V61.8Z" fill="#132C45"/>
<path d="M140.8 61.8H138V64.6001H140.8V61.8Z" fill="#132C45"/>
<path d="M146.4 61.8H143.6V64.6001H146.4V61.8Z" fill="#132C45"/>
<path d="M149.2 61.8H146.4V64.6001H149.2V61.8Z" fill="#132C45"/>
<path d="M154.8 61.8H152V64.6001H154.8V61.8Z" fill="#132C45"/>
<path d="M87.6 64.6001H84.8V67.4001H87.6V64.6001Z" fill="#132C45"/>
<path d="M93.2 64.6001H90.4V67.4001H93.2V64.6001Z" fill="#132C45"/>
<path d="M96 64.6001H93.2V67.4001H96V64.6001Z" fill="#132C45"/>
<path d="M101.6 64.6001H98.8V67.4001H101.6V64.6001Z" fill="#132C45"/>
<path d="M104.4 64.6001H101.6V67.4001H104.4V64.6001Z" fill="#132C45"/>
<path d="M110 64.6001H107.2V67.4001H110V64.6001Z" fill="#132C45"/>
<path d="M112.8 64.6001H110V67.4001H112.8V64.6001Z" fill="#132C45"/>
<path d="M118.4 64.6001H115.6V67.4001H118.4V64.6001Z" fill="#132C45"/>
<path d="M124 64.6001H121.2V67.4001H124V64.6001Z" fill="#132C45"/>
<path d="M132.4 64.6001H129.6V67.4001H132.4V64.6001Z" fill="#132C45"/>
<path d="M135.2 64.6001H132.4V67.4001H135.2V64.6001Z" fill="#132C45"/>
<path d="M138 64.6001H135.2V67.4001H138V64.6001Z" fill="#132C45"/>
<path d="M140.8 64.6001H138V67.4001H140.8V64.6001Z" fill="#132C45"/>
<path d="M143.6 64.6001H140.8V67.4001H143.6V64.6001Z" fill="#132C45"/>
<path d="M149.2 64.6001H146.4V67.4001H149.2V64.6001Z" fill="#132C45"/>
<path d="M152 64.6001H149.2V67.4001H152V64.6001Z" fill="#132C45"/>
<path d="M110 67.3999H107.2V70.1999H110V67.3999Z" fill="#132C45"/>
<path d="M112.8 67.3999H110V70.1999H112.8V67.3999Z" fill="#132C45"/>
<path d="M115.6 67.3999H112.8V70.1999H115.6V67.3999Z" fill="#132C45"/>
<path d="M126.8 67.3999H124V70.1999H126.8V67.3999Z" fill="#132C45"/>
<path d="M132.4 67.3999H129.6V70.1999H132.4V67.3999Z" fill="#132C45"/>
<path d="M143.6 67.3999H140.8V70.1999H143.6V67.3999Z" fill="#132C45"/>
<path d="M149.2 67.3999H146.4V70.1999H149.2V67.3999Z" fill="#132C45"/>
<path d="M152 67.3999H149.2V70.1999H152V67.3999Z" fill="#132C45"/>
<path d="M87.6 70.2002H84.8V73.0002H87.6V70.2002Z" fill="#132C45"/>
<path d="M90.4 70.2002H87.6V73.0002H90.4V70.2002Z" fill="#132C45"/>
<path d="M93.2 70.2002H90.4V73.0002H93.2V70.2002Z" fill="#132C45"/>
<path d="M96 70.2002H93.2V73.0002H96V70.2002Z" fill="#132C45"/>
<path d="M98.8 70.2002H96V73.0002H98.8V70.2002Z" fill="#132C45"/>
<path d="M101.6 70.2002H98.8V73.0002H101.6V70.2002Z" fill="#132C45"/>
<path d="M104.4 70.2002H101.6V73.0002H104.4V70.2002Z" fill="#132C45"/>
<path d="M112.8 70.2002H110V73.0002H112.8V70.2002Z" fill="#132C45"/>
<path d="M115.6 70.2002H112.8V73.0002H115.6V70.2002Z" fill="#132C45"/>
<path d="M118.4 70.2002H115.6V73.0002H118.4V70.2002Z" fill="#132C45"/>
<path d="M132.4 70.2002H129.6V73.0002H132.4V70.2002Z" fill="#132C45"/>
<path d="M138 70.2002H135.2V73.0002H138V70.2002Z" fill="#132C45"/>
<path d="M143.6 70.2002H140.8V73.0002H143.6V70.2002Z" fill="#132C45"/>
<path d="M154.8 70.2002H152V73.0002H154.8V70.2002Z" fill="#132C45"/>
<path d="M87.6 73H84.8V75.8H87.6V73Z" fill="#132C45"/>
<path d="M104.4 73H101.6V75.8H104.4V73Z" fill="#132C45"/>
<path d="M112.8 73H110V75.8H112.8V73Z" fill="#132C45"/>
<path d="M115.6 73H112.8V75.8H115.6V73Z" fill="#132C45"/>
<path d="M121.2 73H118.4V75.8H121.2V73Z" fill="#132C45"/>
<path d="M124 73H121.2V75.8H124V73Z" fill="#132C45"/>
<path d="M126.8 73H124V75.8H126.8V73Z" fill="#132C45"/>
<path d="M129.6 73H126.8V75.8H129.6V73Z" fill="#132C45"/>
<path d="M132.4 73H129.6V75.8H132.4V73Z" fill="#132C45"/>
<path d="M143.6 73H140.8V75.8H143.6V73Z" fill="#132C45"/>
<path d="M87.6 75.7998H84.8V78.5998H87.6V75.7998Z" fill="#132C45"/>
<path d="M93.2 75.7998H90.4V78.5998H93.2V75.7998Z" fill="#132C45"/>
<path d="M96 75.7998H93.2V78.5998H96V75.7998Z" fill="#132C45"/>
<path d="M98.8 75.7998H96V78.5998H98.8V75.7998Z" fill="#132C45"/>
<path d="M104.4 75.7998H101.6V78.5998H104.4V75.7998Z" fill="#132C45"/>
<path d="M110 75.7998H107.2V78.5998H110V75.7998Z" fill="#132C45"/>
<path d="M112.8 75.7998H110V78.5998H112.8V75.7998Z" fill="#132C45"/>
<path d="M115.6 75.7998H112.8V78.5998H115.6V75.7998Z" fill="#132C45"/>
<path d="M118.4 75.7998H115.6V78.5998H118.4V75.7998Z" fill="#132C45"/>
<path d="M121.2 75.7998H118.4V78.5998H121.2V75.7998Z" fill="#132C45"/>
<path d="M126.8 75.7998H124V78.5998H126.8V75.7998Z" fill="#132C45"/>
<path d="M129.6 75.7998H126.8V78.5998H129.6V75.7998Z" fill="#132C45"/>
<path d="M132.4 75.7998H129.6V78.5998H132.4V75.7998Z" fill="#132C45"/>
<path d="M135.2 75.7998H132.4V78.5998H135.2V75.7998Z" fill="#132C45"/>
<path d="M138 75.7998H135.2V78.5998H138V75.7998Z" fill="#132C45"/>
<path d="M140.8 75.7998H138V78.5998H140.8V75.7998Z" fill="#132C45"/>
<path d="M143.6 75.7998H140.8V78.5998H143.6V75.7998Z" fill="#132C45"/>
<path d="M152 75.7998H149.2V78.5998H152V75.7998Z" fill="#132C45"/>
<path d="M87.6 78.5999H84.8V81.3999H87.6V78.5999Z" fill="#132C45"/>
<path d="M93.2 78.5999H90.4V81.3999H93.2V78.5999Z" fill="#132C45"/>
<path d="M96 78.5999H93.2V81.3999H96V78.5999Z" fill="#132C45"/>
<path d="M98.8 78.5999H96V81.3999H98.8V78.5999Z" fill="#132C45"/>
<path d="M104.4 78.5999H101.6V81.3999H104.4V78.5999Z" fill="#132C45"/>
<path d="M110 78.5999H107.2V81.3999H110V78.5999Z" fill="#132C45"/>
<path d="M118.4 78.5999H115.6V81.3999H118.4V78.5999Z" fill="#132C45"/>
<path d="M124 78.5999H121.2V81.3999H124V78.5999Z" fill="#132C45"/>
<path d="M126.8 78.5999H124V81.3999H126.8V78.5999Z" fill="#132C45"/>
<path d="M129.6 78.5999H126.8V81.3999H129.6V78.5999Z" fill="#132C45"/>
<path d="M135.2 78.5999H132.4V81.3999H135.2V78.5999Z" fill="#132C45"/>
<path d="M138 78.5999H135.2V81.3999H138V78.5999Z" fill="#132C45"/>
<path d="M152 78.5999H149.2V81.3999H152V78.5999Z" fill="#132C45"/>
<path d="M154.8 78.5999H152V81.3999H154.8V78.5999Z" fill="#132C45"/>
<path d="M87.6 81.4001H84.8V84.2001H87.6V81.4001Z" fill="#132C45"/>
<path d="M93.2 81.4001H90.4V84.2001H93.2V81.4001Z" fill="#132C45"/>
<path d="M96 81.4001H93.2V84.2001H96V81.4001Z" fill="#132C45"/>
<path d="M98.8 81.4001H96V84.2001H98.8V81.4001Z" fill="#132C45"/>
<path d="M104.4 81.4001H101.6V84.2001H104.4V81.4001Z" fill="#132C45"/>
<path d="M115.6 81.4001H112.8V84.2001H115.6V81.4001Z" fill="#132C45"/>
<path d="M118.4 81.4001H115.6V84.2001H118.4V81.4001Z" fill="#132C45"/>
<path d="M126.8 81.4001H124V84.2001H126.8V81.4001Z" fill="#132C45"/>
<path d="M129.6 81.4001H126.8V84.2001H129.6V81.4001Z" fill="#132C45"/>
<path d="M135.2 81.4001H132.4V84.2001H135.2V81.4001Z" fill="#132C45"/>
<path d="M143.6 81.4001H140.8V84.2001H143.6V81.4001Z" fill="#132C45"/>
<path d="M146.4 81.4001H143.6V84.2001H146.4V81.4001Z" fill="#132C45"/>
<path d="M149.2 81.4001H146.4V84.2001H149.2V81.4001Z" fill="#132C45"/>
<path d="M152 81.4001H149.2V84.2001H152V81.4001Z" fill="#132C45"/>
<path d="M154.8 81.4001H152V84.2001H154.8V81.4001Z" fill="#132C45"/>
<path d="M87.6 84.2002H84.8V87.0002H87.6V84.2002Z" fill="#132C45"/>
<path d="M104.4 84.2002H101.6V87.0002H104.4V84.2002Z" fill="#132C45"/>
<path d="M110 84.2002H107.2V87.0002H110V84.2002Z" fill="#132C45"/>
<path d="M121.2 84.2002H118.4V87.0002H121.2V84.2002Z" fill="#132C45"/>
<path d="M126.8 84.2002H124V87.0002H126.8V84.2002Z" fill="#132C45"/>
<path d="M129.6 84.2002H126.8V87.0002H129.6V84.2002Z" fill="#132C45"/>
<path d="M135.2 84.2002H132.4V87.0002H135.2V84.2002Z" fill="#132C45"/>
<path d="M140.8 84.2002H138V87.0002H140.8V84.2002Z" fill="#132C45"/>
<path d="M143.6 84.2002H140.8V87.0002H143.6V84.2002Z" fill="#132C45"/>
<path d="M149.2 84.2002H146.4V87.0002H149.2V84.2002Z" fill="#132C45"/>
<path d="M152 84.2002H149.2V87.0002H152V84.2002Z" fill="#132C45"/>
<path d="M154.8 84.2002H152V87.0002H154.8V84.2002Z" fill="#132C45"/>
<path d="M87.6 87H84.8V89.8H87.6V87Z" fill="#132C45"/>
<path d="M90.4 87H87.6V89.8H90.4V87Z" fill="#132C45"/>
<path d="M93.2 87H90.4V89.8H93.2V87Z" fill="#132C45"/>
<path d="M96 87H93.2V89.8H96V87Z" fill="#132C45"/>
<path d="M98.8 87H96V89.8H98.8V87Z" fill="#132C45"/>
<path d="M101.6 87H98.8V89.8H101.6V87Z" fill="#132C45"/>
<path d="M104.4 87H101.6V89.8H104.4V87Z" fill="#132C45"/>
<path d="M110 87H107.2V89.8H110V87Z" fill="#132C45"/>
<path d="M115.6 87H112.8V89.8H115.6V87Z" fill="#132C45"/>
<path d="M118.4 87H115.6V89.8H118.4V87Z" fill="#132C45"/>
<path d="M132.4 87H129.6V89.8H132.4V87Z" fill="#132C45"/>
<path d="M138 87H135.2V89.8H138V87Z" fill="#132C45"/>
<path d="M146.4 87H143.6V89.8H146.4V87Z" fill="#132C45"/>
<path d="M154.8 87H152V89.8H154.8V87Z" fill="#132C45"/>
<path d="M9.37865 54.4699L11.8103 48.4945L13.1575 49.0427L10.7259 55.0182L9.37865 54.4699ZM12.0253 55.5469L13.8751 51.0012L14.9749 51.4487L14.8316 52.0634L14.8682 52.0783C15.1383 51.9746 15.4168 51.9028 15.7037 51.8628C15.9931 51.8168 16.2935 51.8572 16.6052 51.984C17.1 52.1854 17.3916 52.4927 17.4798 52.9061C17.5741 53.3219 17.5043 53.817 17.2706 54.3913L16.1219 57.214L14.7747 56.6658L15.8525 54.0172C15.9868 53.6872 16.033 53.4425 15.991 53.283C15.9552 53.126 15.8396 53.0077 15.6441 52.9282C15.473 52.8586 15.3102 52.8386 15.1557 52.8683C15.0036 52.8919 14.8257 52.9441 14.6219 53.025L13.3725 56.0952L12.0253 55.5469ZM18.5633 58.3357C18.2639 58.2139 17.9789 58.0303 17.7085 57.7849C17.4441 57.542 17.2344 57.2786 17.0793 56.9947L18.0273 56.3977C18.1704 56.6411 18.3205 56.8411 18.4775 56.9976C18.6346 57.1541 18.8109 57.2721 19.0064 57.3517C19.2081 57.4337 19.3684 57.4598 19.4874 57.4299C19.6064 57.4 19.6907 57.3239 19.7405 57.2017C19.7703 57.1284 19.7689 57.053 19.7363 56.9757C19.7123 56.8947 19.6644 56.8111 19.5926 56.7249C19.527 56.6412 19.4466 56.5587 19.3516 56.4773C19.259 56.3898 19.1646 56.2979 19.0684 56.2018C18.9503 56.0896 18.8358 55.9683 18.7252 55.8378C18.6145 55.7073 18.5222 55.5665 18.4484 55.4154C18.3771 55.2582 18.3333 55.0944 18.3172 54.924C18.3036 54.7475 18.3353 54.5646 18.4123 54.3752C18.4969 54.1675 18.6149 53.9912 18.7664 53.8463C18.9241 53.7039 19.1041 53.6027 19.3066 53.5427C19.5091 53.4826 19.7309 53.4625 19.9721 53.4823C20.2158 53.496 20.469 53.5564 20.7317 53.6633C21.08 53.805 21.3606 53.9904 21.5736 54.2195C21.7891 54.4425 21.9648 54.6671 22.1006 54.8933L21.1675 55.4537C21.0523 55.2643 20.9289 55.1037 20.7974 54.9719C20.6659 54.84 20.5207 54.7418 20.3619 54.6771C20.0197 54.5379 19.8002 54.5874 19.7032 54.8257C19.6734 54.899 19.6717 54.9731 19.6982 55.048C19.7272 55.1168 19.7727 55.1887 19.8347 55.2638C19.9028 55.3414 19.9801 55.4227 20.0666 55.5077C20.1617 55.5891 20.2585 55.6749 20.3572 55.7649C20.4815 55.8795 20.5989 56.0021 20.7096 56.1326C20.8289 56.2595 20.9255 56.3985 20.9993 56.5496C21.0792 56.7032 21.1248 56.8713 21.1359 57.0539C21.1496 57.2303 21.1141 57.4224 21.0296 57.6302C20.9451 57.8379 20.827 58.0142 20.6755 58.1591C20.524 58.3039 20.3414 58.4112 20.1279 58.481C19.9168 58.5447 19.679 58.569 19.4145 58.5539C19.1525 58.5328 18.8687 58.46 18.5633 58.3357ZM22.86 60.0842C22.5789 59.9698 22.355 59.8289 22.1881 59.6613C22.0274 59.4962 21.914 59.3111 21.8479 59.1062C21.7878 58.9037 21.7708 58.6831 21.7967 58.4444C21.8312 58.2021 21.9019 57.9496 22.0088 57.6868L22.7585 55.8447L22.1353 55.5911L22.5418 54.5921L23.2607 54.8206L23.9088 53.6743L25.0269 54.1293L24.5346 55.339L25.6252 55.7828L25.1963 56.8368L24.1057 56.393L23.3635 58.2167C23.2591 58.4734 23.2352 58.6808 23.2918 58.8392C23.357 58.9939 23.4783 59.1073 23.6554 59.1795C23.7288 59.2093 23.8058 59.23 23.8866 59.2415C23.9735 59.2555 24.0524 59.2627 24.1235 59.2631L23.9352 60.3295C23.7981 60.3164 23.6396 60.2947 23.4597 60.2642C23.2798 60.2337 23.0799 60.1737 22.86 60.0842ZM25.5845 61.1929C25.3767 61.1084 25.2022 60.9947 25.061 60.8517C24.9234 60.7174 24.8214 60.5655 24.755 60.3961C24.6912 60.2205 24.6592 60.0366 24.6591 59.8443C24.6651 59.6544 24.7079 59.4618 24.7875 59.2663C24.9814 58.7897 25.3347 58.499 25.8474 58.3943C26.36 58.2896 27.0841 58.3741 28.0195 58.648C28.0894 58.4414 28.0929 58.2577 28.0302 58.0968C27.976 57.9324 27.8237 57.7991 27.5732 57.6972C27.3777 57.6176 27.1673 57.5747 26.9419 57.5685C26.7227 57.5647 26.477 57.5823 26.2048 57.6211L26.0808 56.5344C26.4462 56.4766 26.8101 56.4573 27.1726 56.4766C27.5412 56.4984 27.9057 56.5827 28.2662 56.7294C28.8527 56.968 29.2304 57.3176 29.3991 57.7779C29.5764 58.2347 29.5221 58.8144 29.2362 59.517L28.177 62.1198L27.0773 61.6722L27.1758 61.1675L27.1392 61.1526C26.874 61.2441 26.6122 61.3014 26.3536 61.3243C26.0974 61.3412 25.8411 61.2974 25.5845 61.1929ZM26.4679 60.3346C26.6206 60.3968 26.7657 60.4166 26.903 60.3942C27.0403 60.3717 27.1949 60.3243 27.3669 60.2518L27.6913 59.4545C27.1874 59.3277 26.8177 59.2912 26.5822 59.345C26.3467 59.3987 26.1929 59.5141 26.1208 59.6913C26.0611 59.8379 26.0622 59.9666 26.124 60.0772C26.1944 60.1842 26.309 60.27 26.4679 60.3346ZM30.5091 63.197C30.2769 63.1025 30.0963 62.9863 29.9673 62.8483C29.8383 62.7104 29.751 62.5573 29.7055 62.3892C29.6685 62.2175 29.6659 62.0313 29.6978 61.8306C29.7321 61.6238 29.7965 61.4043 29.891 61.1721L31.931 56.159L33.2782 56.7073L31.2158 61.7754C31.1586 61.9159 31.1433 62.0236 31.1698 62.0985C31.2024 62.1759 31.2462 62.2257 31.3012 62.2481C31.3317 62.2605 31.3562 62.2705 31.3745 62.2779C31.3989 62.2879 31.432 62.2942 31.4736 62.2969L31.232 63.363C31.1463 63.3637 31.0416 63.3496 30.9181 63.3207C30.7982 63.3004 30.6618 63.2591 30.5091 63.197ZM33.1314 64.2641C32.8993 64.1697 32.7187 64.0534 32.5896 63.9155C32.4606 63.7775 32.3733 63.6245 32.3278 63.4564C32.2909 63.2847 32.2883 63.0985 32.3201 62.8978C32.3544 62.691 32.4188 62.4715 32.5133 62.2393L34.5534 57.2262L35.9006 57.7744L33.8381 62.8425C33.781 62.9831 33.7656 63.0908 33.7921 63.1656C33.8247 63.243 33.8685 63.2929 33.9235 63.3152C33.9541 63.3277 33.9785 63.3376 33.9968 63.3451C34.0213 63.355 34.0543 63.3614 34.0959 63.364L33.8544 64.4301C33.7686 64.4309 33.664 64.4168 33.5404 64.3878C33.4205 64.3675 33.2842 64.3263 33.1314 64.2641ZM35.6621 65.294C35.4544 65.2094 35.2799 65.0957 35.1387 64.9528C35.0011 64.8184 34.8991 64.6665 34.8327 64.4971C34.7688 64.3216 34.7369 64.1376 34.7368 63.9453C34.7428 63.7555 34.7856 63.5628 34.8652 63.3673C35.0591 62.8907 35.4124 62.6001 35.9251 62.4953C36.4377 62.3906 37.1617 62.4752 38.0972 62.749C38.167 62.5424 38.1706 62.3587 38.1078 62.1979C38.0537 62.0334 37.9014 61.9002 37.6509 61.7982C37.4554 61.7187 37.2449 61.6758 37.0196 61.6695C36.8003 61.6658 36.5546 61.6833 36.2825 61.7221L36.1585 60.6354C36.5239 60.5776 36.8878 60.5583 37.2503 60.5777C37.6188 60.5995 37.9834 60.6837 38.3438 60.8304C38.9304 61.0691 39.308 61.4186 39.4768 61.879C39.6541 62.3357 39.5998 62.9154 39.3139 63.618L38.2547 66.2208L37.1549 65.7733L37.2535 65.2686L37.2168 65.2537C36.9517 65.3452 36.6898 65.4024 36.4312 65.4254C36.1751 65.4422 35.9187 65.3984 35.6621 65.294ZM36.5455 64.4357C36.6983 64.4978 36.8433 64.5177 36.9806 64.4952C37.118 64.4728 37.2726 64.4253 37.4445 64.3528L37.769 63.5555C37.2651 63.4288 36.8954 63.3923 36.6599 63.446C36.4243 63.4997 36.2705 63.6152 36.1984 63.7923C36.1388 63.939 36.1398 64.0676 36.2016 64.1782C36.272 64.2852 36.3867 64.371 36.5455 64.4357ZM40.9389 67.4413C40.6578 67.327 40.4339 67.186 40.2671 67.0184C40.1064 66.8533 39.993 66.6683 39.9268 66.4633C39.8668 66.2608 39.8497 66.0402 39.8756 65.8015C39.9102 65.5592 39.9809 65.3067 40.0878 65.0439L40.8374 63.2018L40.2142 62.9482L40.6207 61.9492L41.3396 62.1777L41.9877 61.0314L43.1058 61.4864L42.6135 62.6961L43.7041 63.1399L43.2752 64.1939L42.1846 63.7501L41.4425 65.5738C41.338 65.8305 41.3141 66.0379 41.3708 66.1963C41.436 66.351 41.5572 66.4645 41.7344 66.5366C41.8077 66.5664 41.8847 66.5871 41.9655 66.5986C42.0524 66.6126 42.1314 66.6198 42.2024 66.6202L42.0141 67.6866C41.877 67.6735 41.7185 67.6518 41.5386 67.6213C41.3588 67.5908 41.1588 67.5308 40.9389 67.4413ZM42.7416 68.0467L44.5914 63.501L45.9386 64.0492L44.0888 68.595L42.7416 68.0467ZM45.5327 63.1042C45.3066 63.0122 45.1464 62.8722 45.052 62.6843C44.96 62.4902 44.9563 62.2893 45.0409 62.0815C45.1254 61.8738 45.2671 61.7356 45.4659 61.667C45.6648 61.5983 45.8773 61.61 46.1033 61.702C46.3355 61.7965 46.4957 61.9365 46.584 62.122C46.6785 62.31 46.6834 62.5078 46.5989 62.7155C46.5143 62.9233 46.3714 63.0645 46.1701 63.1393C45.9773 63.2104 45.7649 63.1987 45.5327 63.1042ZM47.1817 69.9818C46.8946 69.8649 46.6377 69.6999 46.4111 69.4866C46.1871 69.2672 46.0122 69.0145 45.8865 68.7283C45.7669 68.4446 45.7057 68.1313 45.7029 67.7883C45.7025 67.4392 45.7794 67.0752 45.9335 66.6964C46.0877 66.3176 46.2855 66.0064 46.5271 65.7629C46.7711 65.5132 47.035 65.3286 47.3186 65.209C47.6084 65.092 47.9089 65.0362 48.22 65.0417C48.5336 65.0411 48.8339 65.0993 49.1211 65.2161C49.4083 65.333 49.6608 65.4999 49.8788 65.7168C50.1054 65.93 50.2784 66.1785 50.398 66.4622C50.5237 66.7483 50.5867 67.066 50.5871 67.4151C50.5899 67.7581 50.5143 68.119 50.3601 68.4978C50.206 68.8766 50.0069 69.1908 49.7629 69.4405C49.5213 69.684 49.2556 69.8643 48.9659 69.9814C48.6822 70.101 48.3836 70.1611 48.07 70.1617C47.765 70.1586 47.4689 70.0987 47.1817 69.9818ZM47.6256 68.8912C47.9005 69.0031 48.1555 68.9715 48.3905 68.7965C48.6255 68.6216 48.8238 68.3355 48.9854 67.9384C49.147 67.5412 49.2048 67.198 49.1588 66.9086C49.1127 66.6192 48.9522 66.4186 48.6773 66.3067C48.3962 66.1924 48.1382 66.2227 47.9032 66.3977C47.6743 66.5751 47.479 66.8624 47.3174 67.2596C47.1558 67.6567 47.095 67.9987 47.1349 68.2856C47.181 68.575 47.3445 68.7768 47.6256 68.8912ZM50.358 71.1462L52.2078 66.6004L53.3076 67.048L53.1643 67.6627L53.201 67.6776C53.4711 67.5739 53.7495 67.502 54.0364 67.4621C54.3258 67.416 54.6263 67.4564 54.9379 67.5832C55.4328 67.7846 55.7243 68.092 55.8125 68.5053C55.9068 68.9211 55.837 69.4162 55.6033 69.9905L54.4546 72.8133L53.1074 72.265L54.1852 69.6164C54.3195 69.2865 54.3657 69.0418 54.3238 68.8823C54.288 68.7253 54.1723 68.607 53.9768 68.5274C53.8057 68.4578 53.6429 68.4378 53.4884 68.4675C53.3363 68.4911 53.1584 68.5434 52.9546 68.6242L51.7052 71.6944L50.358 71.1462ZM8.63519 67.1229L10.0561 63.6312L9.45128 63.385L9.8578 62.386L10.4813 62.5864L10.582 62.3389C10.679 62.1006 10.7985 61.8858 10.9405 61.6943C11.0886 61.5053 11.2622 61.3587 11.4613 61.2546C11.6603 61.1504 11.8854 61.096 12.1366 61.0914C12.3877 61.0868 12.666 61.1466 12.9715 61.271C13.1609 61.348 13.3245 61.436 13.4624 61.5348C13.6063 61.6361 13.7227 61.7262 13.8117 61.8051L13.1615 62.6942C13.0152 62.5635 12.8719 62.4696 12.7313 62.4124C12.5664 62.3453 12.4169 62.345 12.283 62.4116C12.1516 62.472 12.0386 62.6183 11.9442 62.8505L11.8323 63.1255L12.6479 63.4574L12.219 64.5113L11.4034 64.1794L9.98242 67.6712L8.63519 67.1229ZM11.5296 68.3008L13.3795 63.7551L14.7267 64.3033L12.8768 68.849L11.5296 68.3008ZM14.3208 63.3583C14.0947 63.2663 13.9344 63.1263 13.84 62.9383C13.7481 62.7442 13.7444 62.5433 13.8289 62.3356C13.9135 62.1279 14.0551 61.9897 14.254 61.9211C14.4528 61.8524 14.6653 61.8641 14.8914 61.9561C15.1235 62.0506 15.2838 62.1906 15.3721 62.3761C15.4665 62.564 15.4715 62.7619 15.3869 62.9696C15.3024 63.1774 15.1595 63.3186 14.9581 63.3933C14.7654 63.4645 14.5529 63.4528 14.3208 63.3583ZM15.2549 69.945C15.0228 69.8505 14.8422 69.7343 14.7132 69.5963C14.5841 69.4584 14.4969 69.3053 14.4513 69.1372C14.4144 68.9655 14.4118 68.7793 14.4436 68.5786C14.4779 68.3718 14.5423 68.1523 14.6368 67.9201L16.6769 62.907L18.0241 63.4553L15.9616 68.5234C15.9045 68.6639 15.8891 68.7716 15.9156 68.8465C15.9482 68.9239 15.992 68.9737 16.047 68.9961C16.0776 69.0085 16.102 69.0185 16.1203 69.0259C16.1448 69.0359 16.1778 69.0422 16.2194 69.0449L15.9779 70.111C15.8921 70.1117 15.7875 70.0976 15.6639 70.0687C15.544 70.0484 15.4077 70.0071 15.2549 69.945ZM18.6746 71.3366C18.3508 71.2048 18.0695 71.0298 17.8307 70.8116C17.5944 70.5872 17.4134 70.332 17.2877 70.0458C17.1645 69.7535 17.1046 69.4371 17.1078 69.0966C17.1111 68.7561 17.1898 68.3965 17.3439 68.0176C17.4931 67.6511 17.6885 67.346 17.93 67.1024C18.1741 66.8528 18.4349 66.6669 18.7124 66.5449C18.9986 66.4192 19.2923 66.3536 19.5937 66.348C19.8951 66.3425 20.1832 66.3956 20.4582 66.5075C20.782 66.6393 21.0407 66.8087 21.2342 67.0156C21.4338 67.225 21.5733 67.4598 21.6526 67.72C21.738 67.9826 21.7657 68.2645 21.7358 68.5657C21.7083 68.8607 21.6311 69.1641 21.5043 69.4757C21.4546 69.5979 21.4012 69.7115 21.3443 69.8165C21.2873 69.9215 21.2415 69.999 21.2069 70.049L18.485 68.9413C18.4118 69.2961 18.4468 69.5952 18.5899 69.8386C18.7415 70.0784 18.9701 70.2604 19.2756 70.3847C19.5994 70.5165 19.9673 70.5487 20.3793 70.4814L20.4965 71.4798C20.1997 71.5441 19.889 71.5637 19.5646 71.5385C19.2462 71.5158 18.9496 71.4485 18.6746 71.3366ZM18.8376 68.0486L20.4781 68.7162C20.5825 68.4596 20.609 68.2282 20.5575 68.0221C20.5061 67.816 20.3429 67.657 20.068 67.5452C19.8541 67.4581 19.6361 67.4513 19.414 67.5247C19.1979 67.6006 19.0058 67.7752 18.8376 68.0486ZM23.8693 75.2345C23.7405 74.4486 23.7072 73.673 23.7693 72.9078C23.8376 72.145 24.0358 71.3604 24.364 70.5539C24.6922 69.7474 25.0981 69.0474 25.5819 68.4537C26.0717 67.8625 26.6371 67.3306 27.2781 66.8579L27.9796 67.5493C27.3999 68.0113 26.9006 68.5381 26.4818 69.1297C26.0631 69.7213 25.7206 70.344 25.4546 70.9977C25.1886 71.6515 24.9989 72.3363 24.8856 73.0522C24.7723 73.7682 24.7618 74.4939 24.8542 75.2294L23.8693 75.2345ZM27.1477 74.7846C26.9155 74.6902 26.7523 74.5312 26.6581 74.3077C26.5725 74.0805 26.5781 73.8478 26.6751 73.6096C26.7746 73.3652 26.933 73.1946 27.1504 73.0979C27.3764 72.9976 27.6055 72.9947 27.8376 73.0892C28.0698 73.1836 28.2287 73.3445 28.3143 73.5716C28.4085 73.7951 28.4059 74.029 28.3064 74.2734C28.2095 74.5117 28.048 74.681 27.822 74.7813C27.6046 74.878 27.3798 74.8791 27.1477 74.7846ZM30.2619 76.052C30.0542 75.9674 29.8797 75.8537 29.7384 75.7108C29.6008 75.5764 29.4988 75.4245 29.4325 75.2551C29.3686 75.0795 29.3366 74.8956 29.3365 74.7033C29.3426 74.5135 29.3854 74.3208 29.4649 74.1253C29.6589 73.6487 30.0122 73.3581 30.5248 73.2533C31.0375 73.1486 31.7615 73.2331 32.697 73.507C32.7668 73.3004 32.7703 73.1167 32.7076 72.9558C32.6535 72.7914 32.5011 72.6582 32.2506 72.5562C32.0551 72.4767 31.8447 72.4338 31.6193 72.4275C31.4001 72.4238 31.1544 72.4413 30.8822 72.4801L30.7583 71.3934C31.1236 71.3356 31.4875 71.3163 31.85 71.3356C32.2186 71.3574 32.5831 71.4417 32.9436 71.5884C33.5301 71.8271 33.9078 72.1766 34.0765 72.637C34.2539 73.0937 34.1996 73.6734 33.9136 74.376L32.8545 76.9788L31.7547 76.5313L31.8532 76.0266L31.8166 76.0116C31.5514 76.1031 31.2896 76.1604 31.031 76.1833C30.7749 76.2002 30.5185 76.1564 30.2619 76.052ZM31.1453 75.1937C31.298 75.2558 31.4431 75.2757 31.5804 75.2532C31.7177 75.2308 31.8724 75.1833 32.0443 75.1108L32.3688 74.3135C31.8648 74.1868 31.4951 74.1503 31.2596 74.204C31.0241 74.2577 30.8703 74.3731 30.7982 74.5503C30.7385 74.697 30.7396 74.8256 30.8014 74.9362C30.8718 75.0432 30.9864 75.129 31.1453 75.1937ZM33.3078 79.1289L35.8439 72.8968L36.9437 73.3444L36.8526 73.8307L36.8892 73.8456C37.131 73.7589 37.3831 73.7083 37.6453 73.694C37.9161 73.676 38.1707 73.7155 38.409 73.8125C38.6839 73.9244 38.909 74.08 39.0842 74.2795C39.2594 74.479 39.3823 74.7106 39.453 74.9744C39.5237 75.2382 39.5403 75.5298 39.5029 75.8493C39.4741 76.1652 39.3888 76.4973 39.2471 76.8455C39.0879 77.2365 38.8912 77.5624 38.6569 77.8232C38.4312 78.0803 38.1832 78.2785 37.9129 78.4177C37.6512 78.5534 37.3819 78.6289 37.1049 78.6444C36.8341 78.6624 36.5765 78.6217 36.3321 78.5222C36.1366 78.4426 35.9634 78.3258 35.8124 78.1718C35.6639 78.0117 35.5413 77.8229 35.4446 77.6055L35.1958 78.3482L34.655 79.6771L33.3078 79.1289ZM36.4681 77.2956C36.7002 77.3901 36.9411 77.367 37.1906 77.2264C37.4426 77.0797 37.6643 76.7711 37.8557 76.3007C38.1889 75.482 38.0928 74.9657 37.5673 74.7519C37.3046 74.645 36.989 74.6768 36.6205 74.8473L35.8634 76.7077C35.9408 76.8674 36.032 76.9935 36.1367 77.086C36.2415 77.1785 36.352 77.2484 36.4681 77.2956ZM39.2477 79.5805L41.8621 73.156L43.1726 73.6893L41.6734 77.3735L41.71 77.3884L43.8836 76.1685L45.35 76.7653L42.9945 77.9859L43.6193 81.3595L42.1621 80.7665L41.8554 78.58L41.0132 78.9957L40.5582 80.1138L39.2477 79.5805ZM44.2884 83.5439L43.5869 82.8525C44.1727 82.393 44.675 81.8674 45.0938 81.2759C45.5126 80.6843 45.855 80.0616 46.1211 79.4078C46.3871 78.7541 46.5768 78.0692 46.6901 77.3533C46.8034 76.6374 46.8108 75.9105 46.7123 75.1725L47.6972 75.1673C47.826 75.9533 47.8563 76.7276 47.788 77.4903C47.7259 78.2556 47.5307 79.0414 47.2025 79.8479C46.8743 80.6544 46.4653 81.3533 45.9755 81.9444C45.4918 82.5381 44.9294 83.0712 44.2884 83.5439Z" fill="#50E3C2"/>
<path d="M59.8327 43.5348C59.4823 42.8468 59.7544 42.0082 60.4449 41.6653C61.1302 41.3249 61.9644 41.605 62.3134 42.2875L64.6017 46.7673C64.9447 47.4671 64.6765 48.2883 64.0001 48.6314L59.4486 50.938C59.298 51.0136 59.1368 51.0609 58.9714 51.0786C58.403 51.1391 57.8471 50.8463 57.5773 50.33C57.2202 49.6451 57.4858 48.8032 58.1739 48.4545L59.8219 47.6197C56.9845 46.5091 54.4275 46.1369 52.1124 46.3827C49.7594 46.6339 47.779 47.5072 46.1298 48.8032C45.1195 49.5975 44.4247 50.3928 44.0522 50.9561L44.0886 50.9048C43.8604 51.2621 43.4848 51.4891 43.071 51.5332C42.7553 51.5668 42.435 51.4927 42.1634 51.3171C41.5175 50.9008 41.3235 50.0414 41.7397 49.3914C41.7657 49.3512 41.7992 49.3012 41.8495 49.23C42.3772 48.4818 43.1671 47.6062 44.2375 46.7388C46.2907 45.075 48.8164 43.9338 51.7942 43.6174C54.4757 43.3301 57.4013 43.7377 60.5429 44.9255L59.8327 43.5348Z" fill="#50E3C2"/>
<circle cx="165" cy="14" r="9" fill="#132C45"/>
<path d="M167.862 12.4368L165.685 14.6137V9.5H164.672V14.6137L162.495 12.4368L161.786 13.1455L165.178 16.538L168.571 13.1455L167.862 12.4368Z" fill="white"/>
<path d="M162.393 17.6013H167.963V18.6138H162.393V17.6013Z" fill="white"/>
</svg>
