<svg width="24" height="24" viewBox="0 0 24 24" fill="none" xmlns="http://www.w3.org/2000/svg">
    <path fill-rule="evenodd" clip-rule="evenodd" d="M3 12C3 7.032 7.032 3 12 3C16.968 3 21 7.032 21 12C21 16.968 16.968 21 12 21C7.032 21 3 16.968 3 12ZM12.9 15.6V17.4H11.1V15.6H12.9ZM12 19.2C8.031 19.2 4.8 15.969 4.8 12C4.8 8.031 8.031 4.8 12 4.8C15.969 4.8 19.2 8.031 19.2 12C19.2 15.969 15.969 19.2 12 19.2ZM8.4 10.2C8.4 8.211 10.011 6.6 12 6.6C13.989 6.6 15.6 8.211 15.6 10.2C15.6 11.3546 14.889 11.976 14.1967 12.581C13.5399 13.1549 12.9 13.7142 12.9 14.7H11.1C11.1 13.0609 11.9479 12.4109 12.6934 11.8395C13.2782 11.3912 13.8 10.9913 13.8 10.2C13.8 9.21 12.99 8.4 12 8.4C11.01 8.4 10.2 9.21 10.2 10.2H8.4Z" fill="#132C45"/>
</svg>