<svg width="24" height="24" viewBox="0 0 24 24" fill="none" xmlns="http://www.w3.org/2000/svg">
    <rect x="6.26288" y="8.35324" width="11.4743" height="11.7394" rx="1.52596" fill="#50E3C2" stroke="#132C45" stroke-width="1.61749"/>
    <path fill-rule="evenodd" clip-rule="evenodd" d="M12 11.5751C11.1652 11.5751 10.4879 12.2524 10.4879 13.0872C10.4889 13.6277 10.7775 14.1267 11.2454 14.3956V16.1058C11.2426 16.3076 11.3208 16.5019 11.4623 16.6463C11.6048 16.7897 11.7982 16.8708 12 16.8708C12.2019 16.8708 12.3962 16.7897 12.5377 16.6463C12.6792 16.502 12.7575 16.3076 12.7547 16.1058V14.3946C13.2226 14.1248 13.5112 13.6268 13.5122 13.0872C13.5122 12.2524 12.8358 11.5751 12 11.5751H12Z" fill="#132C45"/>
    <path d="M8.79504 8.7896V5.92102C8.79504 4.15097 10.23 2.71606 12 2.71606C13.7701 2.71606 15.205 4.15097 15.205 5.92102V8.16838" stroke="#132C45" stroke-width="1.61749"/>
</svg>
