<svg width="143" height="36" viewBox="0 0 143 36" fill="none" xmlns="http://www.w3.org/2000/svg">
    <path fill-rule="evenodd" clip-rule="evenodd" d="M6.56748 14.13V25.9562L7.98028 24.9568V20.7052C11.6814 18.9888 17.039 18.9986 20.8321 20.6299V24.9835L20.8498 24.9159L22.2449 25.9026V14.4167C29.3855 13.1537 27.8105 3.39051 20.5436 4.65143C18.6514 -1.20602 9.88901 -1.62808 7.32999 3.93578C-0.661501 1.46267 -3.76986 13.3534 6.56748 14.13ZM22.2449 31.9134C21.8196 32.026 21.2903 32.1225 20.8321 32.0999V32.7772H7.98028V32.1026C7.51222 32.1126 6.98201 32.0077 6.56748 31.893V34.5872C6.56748 35.3674 7.20001 36 7.98028 36H20.8321C21.6123 36 22.2449 35.3674 22.2449 34.5872V31.9134Z" fill="white"/>
    <path d="M21.6763 27.3993C22.27 27.8357 23.0502 28.3659 23.7986 28.4598C24.5788 28.522 25.6073 28.0222 26.2009 26.7752V26.963C26.2009 27.7748 25.8572 28.5549 25.3269 29.179C23.8925 30.8332 21.4582 31.3012 19.4298 30.7393C18.3694 30.4589 17.5271 29.9286 16.6531 29.2728C16.4032 29.0863 14.6248 27.2763 14.6248 27.0263C14.6248 27.2763 12.7525 29.0851 12.5025 29.2728C11.6602 29.9274 10.6924 30.4589 9.63191 30.7393C7.60358 31.3012 5.16926 30.8332 3.76504 29.179C3.2348 28.5549 2.89105 27.7748 2.89105 26.963V26.7752C3.45299 28.0234 4.48176 28.5536 5.29359 28.4598C6.04202 28.3672 6.88431 27.8053 7.44624 27.3993C7.60845 27.282 7.81306 27.1238 8.04975 26.9408L8.05381 26.9377C9.95832 25.4647 13.9301 22.3932 14.6234 26.0268C15.2847 22.4214 19.1243 25.4177 21.0279 26.9032C21.2829 27.1022 21.5031 27.2741 21.6763 27.3993Z" fill="#50E3C2"/>
    <path d="M45.418 15.484C44.8741 15.676 44.0581 15.772 42.97 15.772C43.4927 16.0067 43.8767 16.3 44.1221 16.652C44.3781 16.9933 44.5061 17.4253 44.5061 17.948C44.5061 18.5027 44.3674 18.9933 44.0901 19.42C43.8234 19.8467 43.4287 20.1827 42.9061 20.428C42.3941 20.6733 41.7914 20.796 41.0981 20.796C40.714 20.796 40.378 20.7533 40.09 20.668C39.8554 20.828 39.738 21.036 39.738 21.292C39.738 21.6867 40.0794 21.884 40.762 21.884H42.0581C42.6767 21.884 43.2154 21.9853 43.6741 22.188C44.1434 22.3907 44.5061 22.6787 44.7621 23.052C45.0181 23.4147 45.1461 23.8253 45.1461 24.284C45.1461 25.1373 44.7834 25.7987 44.0581 26.268C43.3327 26.748 42.2874 26.988 40.922 26.988C39.9407 26.988 39.1674 26.8867 38.602 26.684C38.0474 26.4813 37.6527 26.188 37.418 25.804C37.1834 25.42 37.066 24.9293 37.066 24.332H38.906C38.906 24.6307 38.9594 24.8653 39.066 25.036C39.1834 25.2067 39.386 25.3347 39.674 25.42C39.9727 25.5053 40.3994 25.548 40.9541 25.548C41.7327 25.548 42.2821 25.452 42.6021 25.26C42.9221 25.068 43.0821 24.7907 43.0821 24.428C43.0821 24.108 42.9594 23.8573 42.7141 23.676C42.4687 23.5053 42.1114 23.42 41.6421 23.42H40.3621C39.5621 23.42 38.9594 23.2653 38.554 22.956C38.1487 22.6467 37.946 22.2573 37.946 21.788C37.946 21.4893 38.0314 21.2013 38.202 20.924C38.3834 20.6467 38.6287 20.412 38.938 20.22C38.426 19.9533 38.0474 19.628 37.802 19.244C37.5674 18.8493 37.45 18.38 37.45 17.836C37.45 17.228 37.5994 16.6947 37.898 16.236C38.1967 15.7773 38.6074 15.4253 39.13 15.18C39.6634 14.924 40.2714 14.796 40.9541 14.796C41.85 14.8173 42.57 14.7533 43.114 14.604C43.6687 14.444 44.2661 14.1933 44.906 13.852L45.418 15.484ZM40.9861 16.188C40.5274 16.188 40.1647 16.3373 39.898 16.636C39.642 16.924 39.5141 17.3133 39.5141 17.804C39.5141 18.316 39.6474 18.7213 39.914 19.02C40.1807 19.3187 40.5487 19.468 41.0181 19.468C41.5087 19.468 41.8821 19.324 42.1381 19.036C42.394 18.7373 42.522 18.3213 42.522 17.788C42.522 16.7213 42.01 16.188 40.9861 16.188ZM52.5641 21.26C52.5641 21.5907 52.6121 21.836 52.7081 21.996C52.8147 22.1453 52.9801 22.2627 53.2041 22.348L52.7721 23.708C52.2921 23.6653 51.8974 23.548 51.588 23.356C51.2894 23.164 51.0601 22.8707 50.9001 22.476C50.6121 22.9027 50.2494 23.2227 49.812 23.436C49.3854 23.6387 48.9054 23.74 48.3721 23.74C47.5294 23.74 46.8627 23.5 46.372 23.02C45.8814 22.54 45.636 21.9107 45.636 21.132C45.636 20.2147 45.9667 19.516 46.628 19.036C47.3 18.5453 48.2547 18.3 49.4921 18.3H50.548V17.82C50.548 17.276 50.42 16.8973 50.1641 16.684C49.9187 16.46 49.5187 16.348 48.9641 16.348C48.3454 16.348 47.5987 16.4973 46.724 16.796L46.244 15.404C47.3 14.9987 48.324 14.796 49.3161 14.796C51.4814 14.796 52.5641 15.7667 52.5641 17.708V21.26ZM48.916 22.252C49.6094 22.252 50.1534 21.9053 50.548 21.212V19.5H49.7C48.3774 19.5 47.716 19.9907 47.716 20.972C47.716 21.3773 47.8174 21.692 48.0201 21.916C48.2227 22.14 48.5214 22.252 48.916 22.252ZM57.5582 14.796C58.6995 14.796 59.7022 15.132 60.5662 15.804L59.7662 17.004C59.0408 16.5453 58.3315 16.316 57.6382 16.316C57.2328 16.316 56.9182 16.396 56.6942 16.556C56.4702 16.7053 56.3582 16.908 56.3582 17.164C56.3582 17.356 56.4062 17.516 56.5022 17.644C56.5982 17.772 56.7688 17.8947 57.0142 18.012C57.2702 18.1187 57.6435 18.2413 58.1342 18.38C59.0515 18.6253 59.7288 18.9507 60.1662 19.356C60.6142 19.7613 60.8382 20.3267 60.8382 21.052C60.8382 21.8947 60.4968 22.556 59.8142 23.036C59.1315 23.5053 58.2835 23.74 57.2702 23.74C56.5768 23.74 55.9422 23.6333 55.3662 23.42C54.8008 23.2067 54.3102 22.9133 53.8942 22.54L54.9182 21.388C55.6542 21.9427 56.4222 22.22 57.2222 22.22C57.6808 22.22 58.0435 22.1293 58.3102 21.948C58.5875 21.7667 58.7262 21.516 58.7262 21.196C58.7262 20.9507 58.6728 20.7587 58.5662 20.62C58.4702 20.4707 58.2888 20.3427 58.0222 20.236C57.7662 20.1187 57.3608 19.98 56.8062 19.82C55.9422 19.5853 55.3075 19.26 54.9022 18.844C54.4968 18.4173 54.2942 17.8893 54.2942 17.26C54.2942 16.7907 54.4275 16.3693 54.6942 15.996C54.9715 15.6227 55.3555 15.3293 55.8462 15.116C56.3475 14.9027 56.9182 14.796 57.5582 14.796ZM67.3436 23.1C67.0449 23.3133 66.7089 23.4733 66.3355 23.58C65.9729 23.6867 65.5996 23.74 65.2155 23.74C64.3836 23.7293 63.7489 23.4947 63.3115 23.036C62.8849 22.5667 62.6715 21.8787 62.6715 20.972V16.508H61.3435V15.036H62.6715V13.164L64.7195 12.924V15.036H66.6876L66.4795 16.508H64.7195V20.924C64.7195 21.34 64.7889 21.6387 64.9276 21.82C65.0769 22.0013 65.3062 22.092 65.6156 22.092C65.9249 22.092 66.2609 21.9907 66.6235 21.788L67.3436 23.1ZM72.6716 14.812C72.9809 14.812 73.2636 14.8493 73.5196 14.924L73.1676 16.908C72.9116 16.844 72.6609 16.812 72.4156 16.812C71.9142 16.812 71.5195 16.9933 71.2315 17.356C70.9436 17.708 70.7142 18.252 70.5436 18.988V23.5H68.4955V15.036H70.2715L70.4635 16.7C70.6662 16.092 70.9596 15.628 71.3436 15.308C71.7276 14.9773 72.1702 14.812 72.6716 14.812ZM77.7641 14.796C79.0121 14.796 79.9827 15.196 80.6761 15.996C81.3801 16.7853 81.732 17.8733 81.732 19.26C81.732 20.1453 81.5721 20.9293 81.2521 21.612C80.9321 22.284 80.4734 22.8067 79.876 23.18C79.2787 23.5533 78.5694 23.74 77.7481 23.74C76.5001 23.74 75.524 23.3453 74.82 22.556C74.116 21.756 73.764 20.6573 73.764 19.26C73.764 18.3747 73.924 17.596 74.244 16.924C74.564 16.252 75.0227 15.7293 75.62 15.356C76.228 14.9827 76.9427 14.796 77.7641 14.796ZM77.7641 16.348C76.5374 16.348 75.924 17.3187 75.924 19.26C75.924 20.2627 76.0734 21.004 76.3721 21.484C76.6814 21.9533 77.1401 22.188 77.7481 22.188C78.3561 22.188 78.8094 21.948 79.108 21.468C79.4174 20.988 79.5721 20.252 79.5721 19.26C79.5721 18.268 79.4174 17.5373 79.108 17.068C78.8094 16.588 78.3614 16.348 77.7641 16.348ZM91.0598 14.796C91.6145 14.796 92.1105 14.876 92.5478 15.036C92.9958 15.196 93.4171 15.4467 93.8118 15.788L92.8998 17.02C92.6118 16.8067 92.3345 16.652 92.0678 16.556C91.8011 16.46 91.5078 16.412 91.1878 16.412C89.9185 16.412 89.2838 17.3773 89.2838 19.308C89.2838 20.2893 89.4491 20.9987 89.7798 21.436C90.1105 21.8627 90.5798 22.076 91.1878 22.076C91.4865 22.076 91.7585 22.028 92.0038 21.932C92.2598 21.836 92.5585 21.6813 92.8998 21.468L93.8118 22.764C93.0118 23.4147 92.0998 23.74 91.0758 23.74C90.2651 23.74 89.5611 23.564 88.9638 23.212C88.3665 22.8493 87.9078 22.3373 87.5878 21.676C87.2678 21.0147 87.1078 20.236 87.1078 19.34C87.1078 18.444 87.2678 17.6547 87.5878 16.972C87.9078 16.2787 88.3665 15.7453 88.9638 15.372C89.5611 14.988 90.2598 14.796 91.0598 14.796ZM99.8044 14.796C100.551 14.796 101.138 15.0253 101.564 15.484C101.991 15.9427 102.204 16.572 102.204 17.372V23.5H100.156V17.692C100.156 17.1907 100.066 16.8387 99.8844 16.636C99.7138 16.4333 99.4578 16.332 99.1164 16.332C98.7751 16.332 98.4604 16.444 98.1724 16.668C97.8844 16.8813 97.6071 17.1907 97.3404 17.596V23.5H95.2924V11.66L97.3404 11.452V16.044C98.0231 15.212 98.8444 14.796 99.8044 14.796ZM111.533 19.068C111.533 19.1747 111.517 19.452 111.485 19.9H106.173C106.237 20.7213 106.451 21.308 106.813 21.66C107.176 22.012 107.656 22.188 108.253 22.188C108.627 22.188 108.979 22.1293 109.309 22.012C109.64 21.884 109.992 21.692 110.365 21.436L111.213 22.604C110.275 23.3613 109.229 23.74 108.077 23.74C106.787 23.74 105.789 23.3453 105.085 22.556C104.392 21.7667 104.045 20.6893 104.045 19.324C104.045 18.46 104.195 17.6867 104.493 17.004C104.792 16.3107 105.224 15.772 105.789 15.388C106.355 14.9933 107.027 14.796 107.805 14.796C108.989 14.796 109.907 15.1747 110.557 15.932C111.208 16.6787 111.533 17.724 111.533 19.068ZM109.501 18.476C109.501 16.9933 108.952 16.252 107.853 16.252C107.352 16.252 106.957 16.4387 106.669 16.812C106.392 17.1747 106.227 17.7613 106.173 18.572H109.501V18.476ZM116.779 14.796C117.333 14.796 117.829 14.876 118.267 15.036C118.715 15.196 119.136 15.4467 119.531 15.788L118.619 17.02C118.331 16.8067 118.053 16.652 117.787 16.556C117.52 16.46 117.227 16.412 116.907 16.412C115.637 16.412 115.003 17.3773 115.003 19.308C115.003 20.2893 115.168 20.9987 115.499 21.436C115.829 21.8627 116.299 22.076 116.907 22.076C117.205 22.076 117.477 22.028 117.723 21.932C117.979 21.836 118.277 21.6813 118.619 21.468L119.531 22.764C118.731 23.4147 117.819 23.74 116.795 23.74C115.984 23.74 115.28 23.564 114.683 23.212C114.085 22.8493 113.627 22.3373 113.307 21.676C112.987 21.0147 112.827 20.236 112.827 19.34C112.827 18.444 112.987 17.6547 113.307 16.972C113.627 16.2787 114.085 15.7453 114.683 15.372C115.28 14.988 115.979 14.796 116.779 14.796ZM123.059 11.42V23.5H121.011V11.644L123.059 11.42ZM128.131 15.036L125.315 18.764L128.403 23.5H126.051L123.139 18.876L125.971 15.036H128.131ZM131.606 15.036V23.5H129.558V15.036H131.606ZM130.566 10.748C130.95 10.748 131.259 10.8707 131.494 11.116C131.739 11.3507 131.862 11.644 131.862 11.996C131.862 12.348 131.739 12.6413 131.494 12.876C131.259 13.1107 130.95 13.228 130.566 13.228C130.193 13.228 129.883 13.1107 129.638 12.876C129.403 12.6413 129.286 12.348 129.286 11.996C129.286 11.644 129.403 11.3507 129.638 11.116C129.883 10.8707 130.193 10.748 130.566 10.748ZM138.586 14.796C139.343 14.796 139.93 15.0253 140.346 15.484C140.772 15.932 140.986 16.5613 140.986 17.372V23.5H138.938V17.692C138.938 17.1907 138.847 16.8387 138.666 16.636C138.495 16.4333 138.239 16.332 137.898 16.332C137.546 16.332 137.226 16.444 136.938 16.668C136.66 16.8813 136.388 17.196 136.122 17.612V23.5H134.074V15.036H135.85L136.01 16.14C136.703 15.244 137.562 14.796 138.586 14.796Z" fill="white"/>
</svg>
