<svg width="144" height="36" viewBox="0 0 144 36" fill="none" xmlns="http://www.w3.org/2000/svg">
    <path fill-rule="evenodd" clip-rule="evenodd" d="M6.56748 14.13V25.9562L7.98028 24.9568V20.7052C11.6814 18.9888 17.039 18.9986 20.8321 20.6299V24.9835L20.8498 24.9159L22.2449 25.9026V14.4167C29.3855 13.1537 27.8105 3.39051 20.5436 4.65143C18.6514 -1.20602 9.88901 -1.62808 7.32999 3.93578C-0.661501 1.46267 -3.76986 13.3534 6.56748 14.13ZM22.2449 31.9134C21.8196 32.026 21.2903 32.1225 20.8321 32.0999V32.7772H7.98028V32.1026C7.51222 32.1126 6.98201 32.0077 6.56748 31.893V34.5872C6.56748 35.3674 7.20001 36 7.98028 36H20.8321C21.6123 36 22.2449 35.3674 22.2449 34.5872V31.9134Z" fill="white"/>
    <path d="M21.6763 27.3993C22.27 27.8357 23.0502 28.3659 23.7986 28.4598C24.5788 28.522 25.6073 28.0222 26.2009 26.7752V26.963C26.2009 27.7748 25.8572 28.5549 25.3269 29.179C23.8925 30.8332 21.4582 31.3012 19.4298 30.7393C18.3694 30.4589 17.5271 29.9286 16.6531 29.2728C16.4032 29.0863 14.6248 27.2763 14.6248 27.0263C14.6248 27.2763 12.7525 29.0851 12.5025 29.2728C11.6602 29.9274 10.6924 30.4589 9.63191 30.7393C7.60358 31.3012 5.16926 30.8332 3.76504 29.179C3.2348 28.5549 2.89105 27.7748 2.89105 26.963V26.7752C3.45299 28.0234 4.48176 28.5536 5.29359 28.4598C6.04202 28.3672 6.88431 27.8053 7.44624 27.3993C7.60845 27.282 7.81306 27.1238 8.04975 26.9408L8.05381 26.9377C9.95832 25.4647 13.9301 22.3932 14.6234 26.0268C15.2847 22.4214 19.1243 25.4177 21.0279 26.9032C21.2829 27.1022 21.5031 27.2741 21.6763 27.3993Z" fill="#50E3C2"/>
    <path d="M37 14.0589H38.9036L39.0893 16.7053H39.1589C39.747 15.7767 40.4589 15.0571 41.2946 14.5464C42.1458 14.0357 43.0821 13.7803 44.1035 13.7803C44.5523 13.7803 44.947 13.819 45.2874 13.8964C45.6279 13.9583 45.9761 14.0744 46.3321 14.2446L45.8214 16.2178C45.4345 16.094 45.1017 16.0011 44.8232 15.9392C44.5446 15.8773 44.1886 15.8464 43.7553 15.8464C42.9351 15.8464 42.1458 16.0785 41.3875 16.5428C40.6291 17.0071 39.9327 17.8118 39.2982 18.9571V25.4106H37V14.0589Z" fill="white"/>
    <path d="M49.2248 19.7463C49.2248 18.8178 49.3873 17.9898 49.7123 17.2624C50.0373 16.5196 50.4706 15.8928 51.0123 15.3821C51.5539 14.8559 52.173 14.4613 52.8694 14.1982C53.5658 13.9196 54.2854 13.7803 55.0283 13.7803C55.864 13.7803 56.5991 13.9119 57.2336 14.175C57.8836 14.438 58.433 14.8095 58.8818 15.2892C59.3306 15.7535 59.6711 16.3184 59.9033 16.9839C60.1354 17.6339 60.2515 18.3535 60.2515 19.1428C60.2515 19.3749 60.236 19.5993 60.205 19.816C60.1896 20.0172 60.1664 20.1874 60.1354 20.3267H51.5926C51.67 21.441 52.0801 22.3154 52.823 22.9499C53.5813 23.5689 54.5331 23.8785 55.6783 23.8785C56.2973 23.8785 56.8699 23.7933 57.3961 23.6231C57.9378 23.4529 58.464 23.213 58.9747 22.9035L59.7872 24.3659C59.1991 24.7374 58.5336 25.0546 57.7908 25.3177C57.0634 25.5653 56.2586 25.6892 55.3765 25.6892C54.5253 25.6892 53.7206 25.5576 52.9622 25.2945C52.2194 25.0159 51.5694 24.6213 51.0123 24.1106C50.4551 23.5999 50.014 22.9808 49.6891 22.2535C49.3795 21.5106 49.2248 20.6749 49.2248 19.7463ZM58.1158 18.7481C58.1158 17.7267 57.8527 16.9452 57.3265 16.4035C56.8003 15.8618 56.0497 15.591 55.0747 15.591C54.2235 15.591 53.4652 15.8618 52.7997 16.4035C52.1343 16.9452 51.7242 17.7267 51.5694 18.7481H58.1158Z" fill="white"/>
    <path d="M66.5102 15.4285C66.5102 14.794 66.7114 14.2755 67.1138 13.8732C67.5162 13.4708 68.0114 13.2696 68.5995 13.2696C69.1876 13.2696 69.6828 13.4708 70.0852 13.8732C70.4876 14.2755 70.6888 14.794 70.6888 15.4285C70.6888 16.0785 70.4876 16.6047 70.0852 17.0071C69.6828 17.394 69.1876 17.5874 68.5995 17.5874C68.0114 17.5874 67.5162 17.394 67.1138 17.0071C66.7114 16.6047 66.5102 16.0785 66.5102 15.4285ZM66.5102 23.5302C66.5102 22.8957 66.7114 22.3773 67.1138 21.9749C67.5162 21.5725 68.0114 21.3713 68.5995 21.3713C69.1876 21.3713 69.6828 21.5725 70.0852 21.9749C70.4876 22.3773 70.6888 22.8957 70.6888 23.5302C70.6888 24.1802 70.4876 24.7064 70.0852 25.1088C69.6828 25.4957 69.1876 25.6892 68.5995 25.6892C68.0114 25.6892 67.5162 25.4957 67.1138 25.1088C66.7114 24.7064 66.5102 24.1802 66.5102 23.5302Z" fill="white"/>
    <path d="M76.2743 13.8964H79.71L81.5207 19.3285C81.7064 19.9166 81.8844 20.5047 82.0546 21.0928C82.2248 21.6808 82.3951 22.2767 82.5653 22.8802H82.6582C82.8284 22.2767 82.9909 21.6808 83.1457 21.0928C83.3159 20.5047 83.4939 19.9166 83.6796 19.3285L85.4903 13.8964H88.7635L84.5385 25.4106H80.6153L76.2743 13.8964Z" fill="white"/>
    <path d="M91.308 13.8964H99.34V25.4106H95.9276V16.566H91.308V13.8964ZM97.4829 12.2018C96.8174 12.2018 96.268 12.016 95.8347 11.6446C95.4169 11.2732 95.2079 10.7702 95.2079 10.1357C95.2079 9.50118 95.4169 8.99047 95.8347 8.60357C96.268 8.20119 96.8174 8 97.4829 8C98.1484 8 98.69 8.20119 99.1079 8.60357C99.5412 8.99047 99.7579 9.50118 99.7579 10.1357C99.7579 10.7702 99.5412 11.2732 99.1079 11.6446C98.69 12.016 98.1484 12.2018 97.4829 12.2018Z" fill="white"/>
    <path d="M106.156 21.7892C106.821 22.207 107.487 22.5398 108.152 22.7874C108.833 23.035 109.561 23.1588 110.334 23.1588C111.124 23.1588 111.689 23.0737 112.029 22.9035C112.37 22.7332 112.54 22.4933 112.54 22.1838C112.54 21.8279 112.253 21.5416 111.681 21.3249C111.124 21.0928 110.381 20.8451 109.452 20.582C108.942 20.4428 108.439 20.2803 107.943 20.0946C107.464 19.8934 107.03 19.6612 106.643 19.3981C106.257 19.1196 105.939 18.8023 105.692 18.4464C105.459 18.0904 105.343 17.6803 105.343 17.216C105.343 16.6898 105.467 16.2023 105.715 15.7535C105.962 15.3047 106.311 14.9255 106.759 14.616C107.224 14.3065 107.781 14.0666 108.431 13.8964C109.096 13.7107 109.839 13.6178 110.659 13.6178C111.681 13.6178 112.609 13.7881 113.445 14.1285C114.296 14.4535 115.024 14.8095 115.627 15.1964L114.095 17.2392C113.569 16.9297 113.027 16.6743 112.47 16.4732C111.913 16.2565 111.333 16.1482 110.729 16.1482C110.002 16.1482 109.483 16.2255 109.174 16.3803C108.88 16.5351 108.733 16.7595 108.733 17.0535C108.733 17.2237 108.81 17.3785 108.965 17.5178C109.12 17.6571 109.329 17.7809 109.592 17.8892C109.855 17.9975 110.164 18.1059 110.52 18.2142C110.892 18.3071 111.278 18.4077 111.681 18.516C112.253 18.6708 112.795 18.8487 113.306 19.0499C113.817 19.2356 114.265 19.46 114.652 19.7231C115.039 19.9862 115.349 20.3035 115.581 20.6749C115.813 21.0463 115.929 21.4797 115.929 21.9749C115.929 22.5011 115.805 22.9886 115.558 23.4374C115.31 23.8862 114.946 24.2808 114.467 24.6213C114.002 24.9463 113.414 25.2094 112.702 25.4106C112.006 25.5963 111.193 25.6892 110.265 25.6892C109.228 25.6892 108.214 25.5189 107.224 25.1784C106.233 24.838 105.367 24.4201 104.624 23.9249L106.156 21.7892Z" fill="white"/>
    <path d="M119.147 13.8964H127.179V25.4106H123.766V16.566H119.147V13.8964ZM125.322 12.2018C124.656 12.2018 124.107 12.016 123.674 11.6446C123.256 11.2732 123.047 10.7702 123.047 10.1357C123.047 9.50118 123.256 8.99047 123.674 8.60357C124.107 8.20119 124.656 8 125.322 8C125.987 8 126.529 8.20119 126.947 8.60357C127.38 8.99047 127.597 9.50118 127.597 10.1357C127.597 10.7702 127.38 11.2732 126.947 11.6446C126.529 12.016 125.987 12.2018 125.322 12.2018Z" fill="white"/>
    <path d="M135.271 16.566H132.37V14.0357L135.434 13.8964L135.875 10.8321H138.684V13.8964H143.559V16.566H138.684V20.6053C138.684 21.4874 138.877 22.1142 139.264 22.4856C139.651 22.8416 140.263 23.0195 141.098 23.0195C141.547 23.0195 141.957 22.9808 142.329 22.9035C142.7 22.8261 143.056 22.7255 143.396 22.6017L144 25.0624C143.489 25.2171 142.917 25.3564 142.282 25.4802C141.663 25.6195 140.982 25.6892 140.239 25.6892C139.326 25.6892 138.552 25.5653 137.918 25.3177C137.283 25.0701 136.765 24.7296 136.363 24.2963C135.976 23.8475 135.697 23.3136 135.527 22.6945C135.357 22.0755 135.271 21.3868 135.271 20.6285V16.566Z" fill="white"/>
</svg>
