<svg width="150" height="36" viewBox="0 0 150 36" fill="none" xmlns="http://www.w3.org/2000/svg">
    <path fill-rule="evenodd" clip-rule="evenodd" d="M6.56748 14.13V25.9562L7.98028 24.9568V20.7052C11.6814 18.9888 17.039 18.9986 20.8321 20.6299V24.9835L20.8498 24.9159L22.2449 25.9026V14.4167C29.3855 13.1537 27.8105 3.39051 20.5436 4.65143C18.6514 -1.20602 9.88901 -1.62808 7.32999 3.93578C-0.661501 1.46267 -3.76986 13.3534 6.56748 14.13ZM22.2449 31.9134C21.8196 32.026 21.2903 32.1225 20.8321 32.0999V32.7772H7.98028V32.1026C7.51222 32.1126 6.98201 32.0077 6.56748 31.893V34.5872C6.56748 35.3674 7.20001 36 7.98028 36H20.8321C21.6123 36 22.2449 35.3674 22.2449 34.5872V31.9134Z" fill="white"/>
    <path d="M21.6763 27.3993C22.27 27.8357 23.0502 28.3659 23.7986 28.4598C24.5788 28.522 25.6073 28.0222 26.2009 26.7752V26.963C26.2009 27.7748 25.8572 28.5549 25.3269 29.179C23.8925 30.8332 21.4582 31.3012 19.4298 30.7393C18.3694 30.4589 17.5271 29.9286 16.6531 29.2728C16.4032 29.0863 14.6248 27.2763 14.6248 27.0263C14.6248 27.2763 12.7525 29.0851 12.5025 29.2728C11.6602 29.9274 10.6924 30.4589 9.63191 30.7393C7.60358 31.3012 5.16926 30.8332 3.76504 29.179C3.2348 28.5549 2.89105 27.7748 2.89105 26.963V26.7752C3.45299 28.0234 4.48176 28.5536 5.29359 28.4598C6.04202 28.3672 6.88431 27.8053 7.44624 27.3993C7.60845 27.282 7.81306 27.1238 8.04975 26.9408L8.05381 26.9377C9.95832 25.4647 13.9301 22.3932 14.6234 26.0268C15.2847 22.4214 19.1243 25.4177 21.0279 26.9032C21.2829 27.1022 21.5031 27.2741 21.6763 27.3993Z" fill="#50E3C2"/>
    <path d="M43 15.0589H44.9036L45.0893 17.7053H45.1589C45.747 16.7767 46.4589 16.0571 47.2946 15.5464C48.1458 15.0357 49.0821 14.7803 50.1035 14.7803C50.5523 14.7803 50.947 14.819 51.2874 14.8964C51.6279 14.9583 51.9761 15.0744 52.3321 15.2446L51.8214 17.2178C51.4345 17.094 51.1017 17.0011 50.8232 16.9392C50.5446 16.8773 50.1886 16.8464 49.7553 16.8464C48.9351 16.8464 48.1458 17.0785 47.3875 17.5428C46.6291 18.0071 45.9327 18.8118 45.2982 19.9571V26.4106H43V15.0589Z" fill="white"/>
    <path d="M55.2248 20.7463C55.2248 19.8178 55.3873 18.9898 55.7123 18.2624C56.0373 17.5196 56.4706 16.8928 57.0123 16.3821C57.5539 15.8559 58.173 15.4613 58.8694 15.1982C59.5658 14.9196 60.2854 14.7803 61.0283 14.7803C61.864 14.7803 62.5991 14.9119 63.2336 15.175C63.8836 15.438 64.433 15.8095 64.8818 16.2892C65.3306 16.7535 65.6711 17.3184 65.9033 17.9839C66.1354 18.6339 66.2515 19.3535 66.2515 20.1428C66.2515 20.3749 66.236 20.5993 66.205 20.816C66.1896 21.0172 66.1664 21.1874 66.1354 21.3267H57.5926C57.67 22.441 58.0801 23.3154 58.823 23.9499C59.5813 24.5689 60.5331 24.8785 61.6783 24.8785C62.2973 24.8785 62.8699 24.7933 63.3961 24.6231C63.9378 24.4529 64.464 24.213 64.9747 23.9035L65.7872 25.3659C65.1991 25.7374 64.5336 26.0546 63.7908 26.3177C63.0634 26.5653 62.2586 26.6892 61.3765 26.6892C60.5253 26.6892 59.7206 26.5576 58.9622 26.2945C58.2194 26.0159 57.5694 25.6213 57.0123 25.1106C56.4551 24.5999 56.014 23.9808 55.6891 23.2535C55.3795 22.5106 55.2248 21.6749 55.2248 20.7463ZM64.1158 19.7481C64.1158 18.7267 63.8527 17.9452 63.3265 17.4035C62.8003 16.8618 62.0497 16.591 61.0747 16.591C60.2235 16.591 59.4652 16.8618 58.7997 17.4035C58.1343 17.9452 57.7242 18.7267 57.5694 19.7481H64.1158Z" fill="white"/>
    <path d="M72.5102 16.4285C72.5102 15.794 72.7114 15.2755 73.1138 14.8732C73.5162 14.4708 74.0114 14.2696 74.5995 14.2696C75.1876 14.2696 75.6828 14.4708 76.0852 14.8732C76.4876 15.2755 76.6888 15.794 76.6888 16.4285C76.6888 17.0785 76.4876 17.6047 76.0852 18.0071C75.6828 18.394 75.1876 18.5874 74.5995 18.5874C74.0114 18.5874 73.5162 18.394 73.1138 18.0071C72.7114 17.6047 72.5102 17.0785 72.5102 16.4285ZM72.5102 24.5302C72.5102 23.8957 72.7114 23.3773 73.1138 22.9749C73.5162 22.5725 74.0114 22.3713 74.5995 22.3713C75.1876 22.3713 75.6828 22.5725 76.0852 22.9749C76.4876 23.3773 76.6888 23.8957 76.6888 24.5302C76.6888 25.1802 76.4876 25.7064 76.0852 26.1088C75.6828 26.4957 75.1876 26.6892 74.5995 26.6892C74.0114 26.6892 73.5162 26.4957 73.1138 26.1088C72.7114 25.7064 72.5102 25.1802 72.5102 24.5302Z" fill="white"/>
    <path d="M82.2743 14.8964H85.71L87.5207 20.3285C87.7064 20.9166 87.8844 21.5047 88.0546 22.0928C88.2248 22.6808 88.3951 23.2767 88.5653 23.8802H88.6582C88.8284 23.2767 88.9909 22.6808 89.1457 22.0928C89.3159 21.5047 89.4939 20.9166 89.6796 20.3285L91.4903 14.8964H94.7635L90.5385 26.4106H86.6153L82.2743 14.8964Z" fill="white"/>
    <path d="M97.308 14.8964H105.34V26.4106H101.928V17.566H97.308V14.8964ZM103.483 13.2018C102.817 13.2018 102.268 13.016 101.835 12.6446C101.417 12.2732 101.208 11.7702 101.208 11.1357C101.208 10.5012 101.417 9.99047 101.835 9.60357C102.268 9.20119 102.817 9 103.483 9C104.148 9 104.69 9.20119 105.108 9.60357C105.541 9.99047 105.758 10.5012 105.758 11.1357C105.758 11.7702 105.541 12.2732 105.108 12.6446C104.69 13.016 104.148 13.2018 103.483 13.2018Z" fill="white"/>
    <path d="M112.156 22.7892C112.821 23.207 113.487 23.5398 114.152 23.7874C114.833 24.035 115.561 24.1588 116.334 24.1588C117.124 24.1588 117.689 24.0737 118.029 23.9035C118.37 23.7332 118.54 23.4933 118.54 23.1838C118.54 22.8279 118.253 22.5416 117.681 22.3249C117.124 22.0928 116.381 21.8451 115.452 21.582C114.942 21.4428 114.439 21.2803 113.943 21.0946C113.464 20.8934 113.03 20.6612 112.643 20.3981C112.257 20.1196 111.939 19.8023 111.692 19.4464C111.459 19.0904 111.343 18.6803 111.343 18.216C111.343 17.6898 111.467 17.2023 111.715 16.7535C111.962 16.3047 112.311 15.9255 112.759 15.616C113.224 15.3065 113.781 15.0666 114.431 14.8964C115.096 14.7107 115.839 14.6178 116.659 14.6178C117.681 14.6178 118.609 14.7881 119.445 15.1285C120.296 15.4535 121.024 15.8095 121.627 16.1964L120.095 18.2392C119.569 17.9297 119.027 17.6743 118.47 17.4732C117.913 17.2565 117.333 17.1482 116.729 17.1482C116.002 17.1482 115.483 17.2255 115.174 17.3803C114.88 17.5351 114.733 17.7595 114.733 18.0535C114.733 18.2237 114.81 18.3785 114.965 18.5178C115.12 18.6571 115.329 18.7809 115.592 18.8892C115.855 18.9975 116.164 19.1059 116.52 19.2142C116.892 19.3071 117.278 19.4077 117.681 19.516C118.253 19.6708 118.795 19.8487 119.306 20.0499C119.817 20.2356 120.265 20.46 120.652 20.7231C121.039 20.9862 121.349 21.3035 121.581 21.6749C121.813 22.0463 121.929 22.4797 121.929 22.9749C121.929 23.5011 121.805 23.9886 121.558 24.4374C121.31 24.8862 120.946 25.2808 120.467 25.6213C120.002 25.9463 119.414 26.2094 118.702 26.4106C118.006 26.5963 117.193 26.6892 116.265 26.6892C115.228 26.6892 114.214 26.5189 113.224 26.1784C112.233 25.838 111.367 25.4201 110.624 24.9249L112.156 22.7892Z" fill="white"/>
    <path d="M125.147 14.8964H133.179V26.4106H129.766V17.566H125.147V14.8964ZM131.322 13.2018C130.656 13.2018 130.107 13.016 129.674 12.6446C129.256 12.2732 129.047 11.7702 129.047 11.1357C129.047 10.5012 129.256 9.99047 129.674 9.60357C130.107 9.20119 130.656 9 131.322 9C131.987 9 132.529 9.20119 132.947 9.60357C133.38 9.99047 133.597 10.5012 133.597 11.1357C133.597 11.7702 133.38 12.2732 132.947 12.6446C132.529 13.016 131.987 13.2018 131.322 13.2018Z" fill="white"/>
    <path d="M141.271 17.566H138.37V15.0357L141.434 14.8964L141.875 11.8321H144.684V14.8964H149.559V17.566H144.684V21.6053C144.684 22.4874 144.877 23.1142 145.264 23.4856C145.651 23.8416 146.263 24.0195 147.098 24.0195C147.547 24.0195 147.957 23.9808 148.329 23.9035C148.7 23.8261 149.056 23.7255 149.396 23.6017L150 26.0624C149.489 26.2171 148.917 26.3564 148.282 26.4802C147.663 26.6195 146.982 26.6892 146.239 26.6892C145.326 26.6892 144.552 26.5653 143.918 26.3177C143.283 26.0701 142.765 25.7296 142.363 25.2963C141.976 24.8475 141.697 24.3136 141.527 23.6945C141.357 23.0755 141.271 22.3868 141.271 21.6285V17.566Z" fill="white"/>
</svg>
