<svg width="27" height="36" viewBox="0 0 27 36" fill="none" xmlns="http://www.w3.org/2000/svg">
    <path fill-rule="evenodd" clip-rule="evenodd" d="M6.56748 14.13V25.9562L7.98028 24.9568V20.7052C11.6814 18.9888 17.039 18.9986 20.8321 20.6299V24.9835L20.8498 24.9159L22.2449 25.9026V14.4167C29.3855 13.1537 27.8105 3.39051 20.5436 4.65143C18.6514 -1.20602 9.88901 -1.62808 7.32999 3.93578C-0.661501 1.46267 -3.76986 13.3534 6.56748 14.13ZM22.2449 31.9134C21.8196 32.026 21.2903 32.1225 20.8321 32.0999V32.7772H7.98028V32.1026C7.51222 32.1126 6.98201 32.0077 6.56748 31.893V34.5872C6.56748 35.3674 7.20001 36 7.98028 36H20.8321C21.6123 36 22.2449 35.3674 22.2449 34.5872V31.9134Z" fill="white"/>
    <path d="M21.6764 27.3993C22.2701 27.8357 23.0502 28.3659 23.7986 28.4598C24.5788 28.522 25.6074 28.0222 26.2009 26.7752V26.963C26.2009 27.7748 25.8572 28.5549 25.327 29.179C23.8925 30.8332 21.4582 31.3012 19.4299 30.7393C18.3694 30.4589 17.5271 29.9286 16.6531 29.2728C16.4032 29.0863 14.6248 27.2763 14.6248 27.0263C14.6248 27.2763 12.7525 29.0851 12.5025 29.2728C11.6602 29.9274 10.6925 30.4589 9.63194 30.7393C7.60361 31.3012 5.1693 30.8332 3.76507 29.179C3.23483 28.5549 2.89108 27.7748 2.89108 26.963V26.7752C3.45302 28.0234 4.48179 28.5536 5.29362 28.4598C6.04205 28.3672 6.88434 27.8053 7.44628 27.3993C7.60848 27.282 7.81309 27.1238 8.04978 26.9408L8.05384 26.9377C9.95835 25.4647 13.9301 22.3932 14.6235 26.0268C15.2847 22.4214 19.1244 25.4177 21.028 26.9032C21.2829 27.1022 21.5032 27.2741 21.6764 27.3993Z" fill="#50E3C2"/>
</svg>
