<svg width="24" height="24" viewBox="0 0 24 24" fill="none" xmlns="http://www.w3.org/2000/svg">
    <path d="M4 10C4 8.89543 4.89543 8 6 8H19C20.1046 8 21 8.89543 21 10V15C21 16.1046 20.1046 17 19 17H18.0308C17.425 17 16.8969 16.5877 16.75 16V16C16.6031 15.4123 16.075 15 15.4692 15H9.53078C8.92498 15 8.39693 15.4123 8.25 16V16C8.10307 16.5877 7.57502 17 6.96922 17H6C4.89543 17 4 16.1046 4 15V10Z" fill="#50E3C2"/>
    <path d="M19.4062 17.3751H16.75V16.1251H19.4062C20.0101 16.1251 20.5 15.6352 20.5 15.0313V9.7189C20.5 9.42906 20.3851 9.15094 20.1796 8.94546C19.9742 8.74 19.696 8.62514 19.4062 8.62514H5.3438C4.7399 8.62514 4.25004 9.11498 4.25004 9.7189V15.0313C4.25004 15.6352 4.73988 16.1251 5.3438 16.1251H8V17.3751H5.3438C4.04926 17.3751 3 16.3258 3 15.0313V9.71886C3 8.42432 4.04922 7.37506 5.3438 7.37506H19.4062C20.0281 7.37506 20.6242 7.62194 21.0632 8.06178C21.5031 8.50084 21.75 9.09694 21.75 9.71882V15.0312C21.75 15.6531 21.5031 16.2492 21.0632 16.6883C20.6242 17.1281 20.0281 17.375 19.4062 17.375V17.3751Z" fill="#132C45"/>
    <path d="M15.425 19.25H9.325C8.24766 19.25 7.375 18.3774 7.375 17.3V15.2688C7.375 14.7063 7.83124 14.2501 8.39376 14.2501H16.3626C16.9227 14.2532 17.3751 14.7087 17.3751 15.2688V17.3C17.3751 17.8172 17.1696 18.3133 16.804 18.6789C16.4383 19.0445 15.9422 19.25 15.4251 19.25H15.425ZM8.625 15.5V17.3C8.625 17.6867 8.93828 18 9.325 18H15.425C15.6109 18 15.7891 17.9266 15.9203 17.7953C16.0516 17.6641 16.125 17.486 16.125 17.3V15.5H8.625Z" fill="#132C45"/>
    <path d="M17.375 8.62504H7.375V4.95624C7.375 3.87578 8.25078 3 9.33124 3H15.425C16.5032 3.00312 17.375 3.87812 17.375 4.95624L17.375 8.62504ZM8.625 7.37504H16.125V4.95624C16.125 4.56874 15.8125 4.25312 15.425 4.25H9.3312C9.1437 4.25 8.96402 4.32422 8.83198 4.45704C8.69917 4.58907 8.62494 4.76876 8.62494 4.95626L8.625 7.37504Z" fill="#132C45"/>
    <path d="M6.73737 9.75623H7.98736C8.33268 9.75623 8.61236 10.1015 8.61236 10.3812C8.61236 10.7265 8.33268 11.0062 7.98736 11.0062H6.73737C6.39205 11.0062 6.11237 10.6609 6.11237 10.3812C6.11237 10.0359 6.39205 9.75623 6.73737 9.75623Z" fill="#132C45"/>
</svg>