<svg width="400" height="100" viewBox="0 0 400 100" fill="none" xmlns="http://www.w3.org/2000/svg">
    <path d="M113 56.6C111.6 56.6 110.2 57 109 57.7L89.9 38.5L87 41.3L106.2 60.5C105.5 61.7 105.1 63 105.1 64.5C105.1 68.8 108.6 72.4 113 72.4C117.3 72.4 120.9 68.9 120.9 64.5C120.9 60.1 117.3 56.6 113 56.6ZM113 68.3C110.9 68.3 109.1 66.6 109.1 64.4C109.1 62.2 110.8 60.5 113 60.5C115.2 60.5 116.9 62.2 116.9 64.4C116.9 66.6 115.1 68.3 113 68.3Z" fill="#132C45"/>
    <path d="M80.8 62.7L60.4 42.3C58.6 40.5 57.5999 38 57.5999 35.5C57.5999 32.9 58.6 30.5 60.5 28.6C62.4 26.7 64.8 25.7 67.4 25.7C70 25.7 72.4 26.7 74.3 28.5L78.0999 32.3L80.9 29.5L77 25.7V25.6C74.4 23.1 71 21.7 67.4 21.7C63.7 21.7 60.3 23.1 57.7 25.7C55.1 28.3 53.7 31.7 53.7 35.4C53.7 36.5 53.7999 37.6 54.0999 38.7C50.1999 37.8 46 38.5 42.7 41L38.4 36.7L27.2 47.9L38.2999 59L49.4 47.9L45.4 43.9C49.2 41.5 54.2999 41.9 57.5999 45.2L78 65.5L80.8 62.7ZM38.2999 53.3L32.7999 47.8L38.2999 42.3L43.7999 47.8L38.2999 53.3Z" fill="#132C45"/>
    <path d="M114.3 35.4C114.3 31.7 112.9 28.3 110.3 25.7C107.7 23.1 104.3 21.7 100.6 21.7C96.9999 21.7 93.5999 23.1 90.9999 25.6L90.8999 25.7L70.3999 46.1L73.1999 48.9L93.5999 28.5C95.3999 26.7 97.8999 25.7 100.5 25.7C103.1 25.7 105.5 26.7 107.4 28.6C109.3 30.5 110.3 32.9 110.3 35.5C110.3 38.1 109.3 40.5 107.4 42.4L103.6 46.2L106.4 49L110.2 45.2C112.9 42.5 114.3 39.1 114.3 35.4Z" fill="#132C45"/>
    <path d="M74.2 75.5C72.4 77.3 69.9 78.3 67.3 78.3C64.7 78.3 62.3 77.3 60.4 75.4C58.6 73.6 57.5 71.1 57.5 68.5C57.5 65.9 58.5 63.5 60.3 61.6L64.1 57.8L61.3 55L57.5 58.8C54.9 61.4 53.5 64.8 53.5 68.5C53.5 72.2 54.9 75.6 57.5 78.2C60.1 80.8 63.5 82.2 67.2 82.2C70.9 82.2 74.3 80.8 76.9 78.2L97.3 57.8L94.5 55L74.2 75.5Z" fill="#132C45"/>
    <path d="M154.5 45.8H154.4L154.1 40.2H150.8L150.7 63.8H154.7V50C157.5 45.1 160.9 43.3 164.4 43.3C166.2 43.3 167.1 43.5 168.8 44.1L169.7 40.7C168.2 40 166.8 39.7 165 39.7C160.7 39.7 157 42 154.5 45.8Z" fill="#132C45"/>
    <path d="M210.8 56.3C208.6 56.3 206.9 57.9 206.9 60.4C206.9 62.8 208.6 64.5 210.8 64.5C213 64.5 214.7 62.9 214.7 60.4C214.7 58 213 56.3 210.8 56.3Z" fill="#132C45"/>
    <path d="M210.8 39C208.6 39 206.9 40.6 206.9 43.1C206.9 45.5 208.6 47.2 210.8 47.2C213 47.2 214.7 45.6 214.7 43.1C214.8 40.6 213 39 210.8 39Z" fill="#132C45"/>
    <path d="M186.3 39.7C180 39.7 174.3 44.3 174.2 52C174.2 59.9 179.8 64.4 186.9 64.4C190.7 64.4 193.7 63.2 196 61.6L194.6 59C192.5 60.4 190.2 61.2 187.4 61.2C182.8 61.2 179.3 58.8 178.4 54.1C178.3 53.9 178.3 53.6 178.3 53.4C178.3 53.3 178.3 53.2 178.3 53.1H196.9C197 52.5 197.1 51.6 197.1 50.7C197.1 44.2 193.1 39.7 186.3 39.7ZM178.4 50.1C179.1 45.4 182.5 42.9 186.4 42.9C190.4 42.9 193.1 45.3 193.4 50.1H178.4Z" fill="#132C45"/>
    <path d="M242.1 59.1C238.6 59.1 237 57.7 237 54V45.6H247.2V40H237V32.6H231.1L230.2 40L223.8 40.3V45.6H229.9V54.1C229.9 60.4 232.6 64.7 240.3 64.7C243.5 64.7 246 64 248.2 63.4L247 58.3C245.4 58.7 243.9 59.1 242.1 59.1Z" fill="#132C45"/>
    <path d="M274.5 39.5C270.9 39.5 268.3 41.2 266.5 43.1L266.8 42.1V30.2H259.7L259.6 64.2H266.7V48.1C268.4 46.5 269.7 45.6 271.6 45.6C274.2 45.6 275.1 47.1 275.1 50.3V64.2H282.2V49.4C282.3 43.2 279.8 39.5 274.5 39.5Z" fill="#132C45"/>
    <path d="M298.7 27.6C295.9 27.6 293.9 29.4 293.9 32.1C293.9 34.7 295.9 36.4 298.6 36.4C301.4 36.4 303.4 34.7 303.4 32.1C303.4 29.4 301.5 27.6 298.7 27.6Z" fill="#132C45"/>
    <path d="M291.8 45.7H295.4V64.2H302.5L302.6 40.1H291.8V45.7Z" fill="#132C45"/>
    <path d="M329.1 39.6C325.5 39.6 322.9 41.3 320.8 43.4H320.6L320.1 40.2H314.3L314.2 64.3H321.3V48.2C323 46.6 324.3 45.7 326.2 45.7C328.8 45.7 329.7 47.2 329.7 50.4V64.3H336.8V49.5C337 43.4 334.5 39.6 329.1 39.6Z" fill="#132C45"/>
    <path d="M366 56.9C364.2 58.1 362.2 59.2 359.6 59.2C355.6 59.2 352.9 56.5 352.9 52.3C352.9 48.1 355.8 45.5 359.9 45.5C361.7 45.5 363.4 46.1 365.2 47.4L368.5 43C366.5 41.1 363.3 39.7 359.5 39.7C352.1 39.7 345.6 44.3 345.5 52.3C345.4 60.3 351.3 64.9 358.9 64.9C362.2 64.9 365.9 63.8 368.8 61.4L366 56.9Z" fill="#132C45"/>
</svg>
