<svg width="222" height="65" viewBox="0 0 222 65" fill="none" xmlns="http://www.w3.org/2000/svg">
    <g clip-path="url(#clip0)">
        <path d="M55.45 36.79C54.54 36.79 53.63 37.05 52.85 37.505L40.435 25.025L38.55 26.845L51.03 39.325C50.575 40.105 50.315 40.95 50.315 41.925C50.315 44.72 52.59 47.06 55.45 47.06C58.245 47.06 60.585 44.785 60.585 41.925C60.585 39.065 58.245 36.79 55.45 36.79ZM55.45 44.395C54.085 44.395 52.915 43.29 52.915 41.86C52.915 40.43 54.02 39.325 55.45 39.325C56.88 39.325 57.985 40.43 57.985 41.86C57.985 43.29 56.815 44.395 55.45 44.395Z" fill="#132C45"/>
        <path d="M34.52 40.755L21.26 27.495C20.09 26.325 19.44 24.7 19.44 23.075C19.44 21.385 20.09 19.825 21.325 18.59C22.56 17.355 24.12 16.705 25.81 16.705C27.5 16.705 29.06 17.355 30.295 18.525L32.765 20.995L34.585 19.175L32.05 16.705V16.64C30.36 15.015 28.15 14.105 25.81 14.105C23.405 14.105 21.195 15.015 19.505 16.705C17.815 18.395 16.905 20.605 16.905 23.01C16.905 23.725 16.97 24.44 17.165 25.155C14.63 24.57 11.9 25.025 9.75499 26.65L6.95999 23.855L-0.320007 31.135L6.89499 38.35L14.11 31.135L11.51 28.535C13.98 26.975 17.295 27.235 19.44 29.38L32.7 42.575L34.52 40.755ZM6.89499 34.645L3.31999 31.07L6.89499 27.495L10.47 31.07L6.89499 34.645Z" fill="#132C45"/>
        <path d="M56.295 23.01C56.295 20.605 55.385 18.395 53.695 16.705C52.005 15.015 49.795 14.105 47.39 14.105C45.05 14.105 42.84 15.015 41.15 16.64L41.085 16.705L27.76 29.965L29.58 31.785L42.84 18.525C44.01 17.355 45.635 16.705 47.325 16.705C49.015 16.705 50.575 17.355 51.81 18.59C53.045 19.825 53.695 21.385 53.695 23.075C53.695 24.765 53.045 26.325 51.81 27.56L49.34 30.03L51.16 31.85L53.63 29.38C55.385 27.625 56.295 25.415 56.295 23.01Z" fill="#132C45"/>
        <path d="M30.23 49.075C29.06 50.245 27.435 50.895 25.745 50.895C24.055 50.895 22.495 50.245 21.26 49.01C20.09 47.84 19.375 46.215 19.375 44.525C19.375 42.835 20.025 41.275 21.195 40.04L23.665 37.57L21.845 35.75L19.375 38.22C17.685 39.91 16.775 42.12 16.775 44.525C16.775 46.93 17.685 49.14 19.375 50.83C21.065 52.52 23.275 53.43 25.68 53.43C28.085 53.43 30.295 52.52 31.985 50.83L45.245 37.57L43.425 35.75L30.23 49.075Z" fill="#132C45"/>
        <path d="M82.425 29.77H82.36L82.165 26.13H80.02L79.955 41.47H82.555V32.5C84.375 29.315 86.585 28.145 88.86 28.145C90.03 28.145 90.615 28.275 91.72 28.665L92.305 26.455C91.33 26 90.42 25.805 89.25 25.805C86.455 25.805 84.05 27.3 82.425 29.77Z" fill="#132C45"/>
        <path d="M119.02 36.595C117.59 36.595 116.485 37.635 116.485 39.26C116.485 40.82 117.59 41.925 119.02 41.925C120.45 41.925 121.555 40.885 121.555 39.26C121.555 37.7 120.45 36.595 119.02 36.595Z" fill="#132C45"/>
        <path d="M119.02 25.35C117.59 25.35 116.485 26.39 116.485 28.015C116.485 29.575 117.59 30.68 119.02 30.68C120.45 30.68 121.555 29.64 121.555 28.015C121.62 26.39 120.45 25.35 119.02 25.35Z" fill="#132C45"/>
        <path d="M103.095 25.805C99 25.805 95.295 28.795 95.23 33.8C95.23 38.935 98.87 41.86 103.485 41.86C105.955 41.86 107.905 41.08 109.4 40.04L108.49 38.35C107.125 39.26 105.63 39.78 103.81 39.78C100.82 39.78 98.545 38.22 97.96 35.165C97.895 35.035 97.895 34.84 97.895 34.71C97.895 34.645 97.895 34.58 97.895 34.515H109.985C110.05 34.125 110.115 33.54 110.115 32.955C110.115 28.73 107.515 25.805 103.095 25.805ZM97.96 32.565C98.415 29.51 100.625 27.885 103.16 27.885C105.76 27.885 107.515 29.445 107.71 32.565H97.96Z" fill="#132C45"/>
        <path d="M139.365 38.415C137.09 38.415 136.05 37.505 136.05 35.1V29.64H142.68V26H136.05V21.19H132.215L131.63 26L127.47 26.195V29.64H131.435V35.165C131.435 39.26 133.19 42.055 138.195 42.055C140.275 42.055 141.9 41.6 143.33 41.21L142.55 37.895C141.51 38.155 140.535 38.415 139.365 38.415Z" fill="#132C45"/>
        <path d="M160.425 25.675C158.085 25.675 156.395 26.78 155.225 28.015L155.42 27.365V19.63H150.805L150.74 41.73H155.355V31.265C156.46 30.225 157.305 29.64 158.54 29.64C160.23 29.64 160.815 30.615 160.815 32.695V41.73H165.43V32.11C165.495 28.08 163.87 25.675 160.425 25.675Z" fill="#132C45"/>
        <path d="M176.155 17.9401C174.335 17.9401 173.035 19.1101 173.035 20.8651C173.035 22.5551 174.335 23.6601 176.09 23.6601C177.91 23.6601 179.21 22.5551 179.21 20.8651C179.21 19.1101 177.975 17.9401 176.155 17.9401Z" fill="#132C45"/>
        <path d="M171.67 29.705H174.01V41.73H178.625L178.69 26.065H171.67V29.705Z" fill="#132C45"/>
        <path d="M195.915 25.74C193.575 25.74 191.885 26.845 190.52 28.21H190.39L190.065 26.13H186.295L186.23 41.795H190.845V31.33C191.95 30.29 192.795 29.705 194.03 29.705C195.72 29.705 196.305 30.68 196.305 32.76V41.795H200.92V32.175C201.05 28.21 199.425 25.74 195.915 25.74Z" fill="#132C45"/>
        <path d="M219.9 36.985C218.73 37.765 217.43 38.48 215.74 38.48C213.14 38.48 211.385 36.725 211.385 33.995C211.385 31.265 213.27 29.575 215.935 29.575C217.105 29.575 218.21 29.965 219.38 30.81L221.525 27.95C220.225 26.715 218.145 25.805 215.675 25.805C210.865 25.805 206.64 28.795 206.575 33.995C206.51 39.195 210.345 42.185 215.285 42.185C217.43 42.185 219.835 41.47 221.72 39.91L219.9 36.985Z" fill="#132C45"/>
    </g>
    <defs>
        <clipPath id="clip0">
            <rect width="222" height="65" fill="white"/>
        </clipPath>
    </defs>
</svg>