<svg width="239" height="76" viewBox="0 0 239 76" fill="none" xmlns="http://www.w3.org/2000/svg">
    <path d="M136.132 55.9387L120.224 65.3923L113.968 62.7168L98.5969 48.8931L91.8942 43.8095L93.2347 40.0637L95.0221 38.9043L92.4304 35.872L95.0221 31.9479V29.8074L95.9158 26.5968L97.5244 25.7941L95.9158 21.8699L96.6308 18.3025H100.116L116.113 20.1754L127.553 17.0539L131.753 20.7105L134.255 29.0939L135.238 38.9043L134.255 46.3067V50.2308L136.132 55.9387Z" fill="white"/>
    <path d="M124.477 3.28737C124.477 2.60957 123.928 2.06011 123.25 2.06011L103.541 2.06011C102.863 2.06011 102.314 2.60958 102.314 3.28737V27.8824C102.314 27.8824 104.414 30.008 104.414 31.0931C104.414 32.1782 102.314 34.1254 102.314 34.1254C102.314 34.1254 101.518 35.3711 101.822 35.9537C102.127 36.5362 104.414 38.1387 104.414 38.1387L107.095 41.3494L105.715 43.7207L102.314 46.4309L103.596 48.6055L120.877 48.9519L124.477 46.9351L124.477 3.28737Z" fill="#50E3C2"/>
    <path fill-rule="evenodd" clip-rule="evenodd" d="M117.836 65.8335C117.826 66.0896 117.9 66.346 118.049 66.5696L122.866 74.7078L125.527 73.9867L121.092 66.284L134.991 58.2455L137.308 56.9068L137.983 56.5178L138.206 56.3891L146.317 65.0768L148.297 64.0868L139.276 54.0615C138.877 53.6454 138.228 53.5557 137.717 53.846L137.16 54.1626L136.905 54.3075L135.833 52.9282C135.73 52.7424 135.617 52.4761 135.512 52.1555C135.337 51.6213 135.21 51.014 135.138 50.3427C134.926 48.3649 135.207 46.0802 136.017 43.529C137.737 38.0868 136.441 28.8084 133.059 21.058C132.908 20.7098 132.693 20.2794 132.444 19.8385C132.027 19.1009 131.567 18.4265 131.076 17.8402C129.668 16.1599 128.157 15.3785 126.589 15.6177L126.2 15.677V4.59097C126.2 2.61072 124.555 1.00005 122.538 1.00005L104.78 1.00005C102.764 1.00005 101.123 2.6095 101.123 4.59097L101.123 17.5066L100.612 17.2024C100.112 16.9051 99.5998 16.7085 99.0797 16.6189C98.0807 16.4521 97.1239 16.6996 96.2919 17.3393C94.9713 18.3545 94.5144 20.4689 95.0088 22.5236C95.1961 23.3136 95.5579 24.1457 96.1035 25.0466L96.2761 25.3315L95.988 25.5027C95.4887 25.7992 95.0362 26.1949 94.6528 26.6706C93.5001 28.1113 93.2615 29.9328 94.0666 31.1951L94.2433 31.4723L93.9655 31.6513C93.502 31.9499 93.0885 32.3219 92.7415 32.7538C91.322 34.5265 91.321 36.8078 92.7514 37.9539L93.44 38.556L93.7799 38.8538L93.3928 39.0887C92.9511 39.3566 92.5569 39.6833 92.2188 40.0626C91.3837 40.9968 90.9392 42.1628 91.0066 43.2528C91.0604 44.0675 91.4092 44.7904 91.9922 45.2912L96.3958 49.0821C96.8351 49.4583 97.3812 49.6854 97.9965 49.7503L98.2192 49.8676C105.143 58.0357 111.822 63.5423 117.609 65.5062L117.845 65.5866L117.836 65.8335ZM107.308 43.1049C107.135 43.7737 106.821 44.4121 106.38 44.9867C105.604 46.001 104.536 46.6732 103.444 46.8305L103.035 46.8893C103.035 46.8893 103.739 47.1331 104.222 47.1331L122.149 47.1331C122.768 47.1331 123.275 46.6105 123.275 45.9589V42.5179L123.273 21.2233C123.245 20.7655 123.245 20.2957 123.275 19.7812L123.275 5.95993C123.275 4.94326 122.451 4.1191 121.434 4.1191L105.225 4.1191C104.208 4.1191 103.384 4.9433 103.384 5.96V28.0089C103.38 28.0626 103.375 28.1029 103.357 28.2632L103.351 28.3184L103.496 28.4301L104.168 28.9471C105.644 30.0832 105.661 32.3783 104.232 34.1661C103.838 34.6579 103.359 35.0693 102.827 35.3757L102.428 35.6054L102.774 35.9072L106.604 39.2454C106.726 39.3436 106.891 39.5185 107.098 39.7703C107.537 40.7685 107.629 41.7951 107.371 42.8501L107.308 43.1049ZM96.2503 29.5292L96.3159 29.6417L100.923 33.1453L100.992 33.1623L101.015 33.1669L101.02 33.1679L101.033 33.1697L101.056 33.1727C101.088 33.1754 101.098 33.1759 101.129 33.1759C101.553 33.1759 102.097 32.8626 102.492 32.3665C102.955 31.7874 103.125 31.0652 102.934 30.7582L102.869 30.6548L98.1792 27.1196H98.0648C97.6413 27.1196 97.0985 27.4312 96.6969 27.9296C96.2411 28.4985 96.0689 29.218 96.2503 29.5292ZM103.25 43.6486H103.159L94.1395 35.9675L94.0796 35.9198L94.0019 35.832C93.8135 35.52 93.9878 34.7994 94.4576 34.2292C94.7771 33.8391 95.1921 33.5561 95.5761 33.4558L95.7506 33.3451L95.832 33.2476L105.051 41.1022L105.111 41.1498L105.189 41.2376C105.376 41.547 105.202 42.2659 104.735 42.8377C104.327 43.3365 103.774 43.6497 103.339 43.6526C103.29 43.6507 103.289 43.6507 103.25 43.6486ZM100.758 20.9803L100.66 20.8877C100.605 20.8359 100.566 20.7937 100.536 20.7474C99.8641 19.7561 98.9347 19.0129 98.2473 18.9036C97.9554 18.8561 97.7061 18.9212 97.4302 19.1238C96.9811 19.4523 96.7887 20.6508 97.0492 21.6935C97.2633 22.5523 97.8434 23.5677 98.7947 24.742L98.8464 24.8058L98.9247 24.84C99.1282 24.929 99.3072 25.0294 99.4576 25.14L100.758 26.1064V20.9803ZM126.414 60.3104L120.401 63.7802L120.299 63.8394L120.182 63.8193C114.93 62.9102 108.302 57.7479 101.053 49.3687L100.828 49.1088L101.167 48.8265C101.265 48.745 101.317 48.6999 101.37 48.6496L101.639 48.3931L101.86 48.6929C102.545 49.6209 103.627 50.1726 104.782 50.1726L122.355 50.1726C124.355 50.1726 125.981 48.5584 125.981 46.5725L125.981 33.2089C126.055 33.052 126.083 32.9706 126.099 32.8941L127.268 27.4651C127.311 27.2477 127.299 27.0234 127.23 26.8206C126.515 24.6819 126.104 22.8901 125.984 21.4685L125.983 19.821C126.062 19.0944 126.251 18.5672 126.507 18.262L126.593 18.1593L126.725 18.1458C127.822 18.0335 129.425 19.7571 130.442 22.0943C133.553 29.3199 134.791 38.0563 133.277 42.9016C132.276 46.1097 131.994 48.9616 132.386 51.4121C132.517 52.2274 132.719 52.9623 132.982 53.606C133.137 53.9856 133.293 54.2881 133.468 54.5486L134.134 55.4171L134.368 55.7224L126.414 60.3104ZM93.235 42.8389L93.2939 42.9452L97.7306 46.6003L97.7967 46.6211C97.8121 46.6254 97.817 46.6268 97.822 46.6281C97.8244 46.6287 97.8268 46.6292 97.8304 46.6301C97.8366 46.6313 97.8397 46.632 97.846 46.6331C97.8523 46.6342 97.8617 46.6359 97.8807 46.6392C97.9065 46.643 97.9448 46.6457 97.9866 46.6457C98.4151 46.6457 98.954 46.3711 99.3672 45.9237C99.895 45.3537 100.108 44.7886 99.9629 44.5067L99.9038 44.3917L95.3582 40.594L95.3443 40.6152C95.3309 40.6114 95.3247 40.6096 95.32 40.6083C95.316 40.6072 95.313 40.6065 95.3075 40.6051C95.3042 40.6044 95.3017 40.604 95.2992 40.6035C95.292 40.6021 95.2848 40.6008 95.2567 40.5957C95.2312 40.5921 95.1926 40.5893 95.1502 40.5893C94.7208 40.5893 94.1771 40.8656 93.7672 41.3105C93.2739 41.8422 93.0655 42.5329 93.235 42.8389Z" fill="#132C45"/>
    <path d="M118.049 66.5696L118.475 66.2864C118.48 66.2939 118.484 66.3015 118.489 66.3092L118.049 66.5696ZM117.836 65.8335L117.325 65.814L117.325 65.814L117.836 65.8335ZM122.866 74.7078L123 75.2013C122.778 75.2615 122.543 75.1661 122.426 74.9683L122.866 74.7078ZM125.527 73.9867L125.97 73.7316C126.049 73.869 126.06 74.0354 126 74.182C125.939 74.3286 125.814 74.4388 125.661 74.4803L125.527 73.9867ZM121.092 66.284L120.649 66.5391C120.509 66.2947 120.592 65.9825 120.836 65.8413L121.092 66.284ZM134.991 58.2455L134.735 57.8028L134.735 57.8027L134.991 58.2455ZM137.308 56.9068L137.052 56.4641L137.053 56.4638L137.308 56.9068ZM137.983 56.5178L137.728 56.0748L137.728 56.0748L137.983 56.5178ZM138.206 56.3891L137.951 55.9461C138.157 55.8273 138.418 55.8663 138.58 56.0401L138.206 56.3891ZM146.317 65.0768L146.546 65.5341C146.343 65.6355 146.098 65.5913 145.943 65.4257L146.317 65.0768ZM148.297 64.0868L148.677 63.7447C148.784 63.8634 148.829 64.0251 148.799 64.1819C148.77 64.3388 148.668 64.4727 148.526 64.5441L148.297 64.0868ZM139.276 54.0615L139.645 53.7076C139.649 53.7115 139.652 53.7154 139.656 53.7195L139.276 54.0615ZM137.717 53.846L137.464 53.4015L137.464 53.4015L137.717 53.846ZM137.16 54.1626L136.907 53.718L136.907 53.718L137.16 54.1626ZM136.905 54.3075L137.158 54.752C136.937 54.8776 136.658 54.822 136.502 54.6214L136.905 54.3075ZM135.833 52.9282L135.429 53.2421C135.413 53.2214 135.399 53.1995 135.386 53.1766L135.833 52.9282ZM135.512 52.1555L135.998 51.9964L135.998 51.9964L135.512 52.1555ZM135.138 50.3427L134.63 50.3973L134.63 50.3973L135.138 50.3427ZM136.017 43.529L136.504 43.6831L136.504 43.6836L136.017 43.529ZM133.059 21.058L132.59 21.2625L132.59 21.2611L133.059 21.058ZM132.444 19.8385L131.998 20.0902L131.998 20.0902L132.444 19.8385ZM131.076 17.8402L130.684 18.1686L130.684 18.1686L131.076 17.8402ZM126.589 15.6177L126.666 16.1232L126.666 16.1232L126.589 15.6177ZM126.2 15.677L126.277 16.1825C126.13 16.205 125.98 16.162 125.867 16.0649C125.754 15.9678 125.689 15.8261 125.689 15.677H126.2ZM122.538 1.00005V1.51141V1.00005ZM104.78 1.00005V0.488694V1.00005ZM101.123 17.5066H101.634C101.634 17.6905 101.536 17.8603 101.376 17.9512C101.216 18.0421 101.019 18.0401 100.861 17.9461L101.123 17.5066ZM100.612 17.2024L100.873 16.763L100.873 16.763L100.612 17.2024ZM99.0797 16.6189L99.1639 16.1145L99.1664 16.115L99.0797 16.6189ZM96.2919 17.3393L96.6036 17.7446L96.6036 17.7447L96.2919 17.3393ZM95.0088 22.5236L95.5059 22.4039L95.5063 22.4056L95.0088 22.5236ZM96.1035 25.0466L96.5409 24.7817L96.5409 24.7817L96.1035 25.0466ZM96.2761 25.3315L96.7135 25.0666C96.7841 25.1833 96.8052 25.3233 96.7721 25.4556C96.739 25.5879 96.6545 25.7015 96.5372 25.7712L96.2761 25.3315ZM95.988 25.5027L96.2491 25.9423L96.2491 25.9423L95.988 25.5027ZM94.6528 26.6706L94.2535 26.3512L94.2546 26.3498L94.6528 26.6706ZM94.0666 31.1951L93.6354 31.4701L93.6354 31.4701L94.0666 31.1951ZM94.2433 31.4723L94.6745 31.1973C94.8258 31.4346 94.7569 31.7497 94.5203 31.9021L94.2433 31.4723ZM93.9655 31.6513L93.6886 31.2214L93.6886 31.2214L93.9655 31.6513ZM92.7415 32.7538L92.3423 32.4342L92.3428 32.4335L92.7415 32.7538ZM92.7514 37.9539L93.0711 37.5548C93.0768 37.5594 93.0825 37.5641 93.088 37.5689L92.7514 37.9539ZM93.44 38.556L93.7766 38.1711L93.7769 38.1713L93.44 38.556ZM93.7799 38.8538L94.1168 38.4691C94.2394 38.5764 94.3035 38.7358 94.2894 38.8982C94.2752 39.0605 94.1845 39.2064 94.0452 39.2909L93.7799 38.8538ZM93.3928 39.0887L93.1275 38.6515L93.1275 38.6515L93.3928 39.0887ZM92.2188 40.0626L92.6005 40.4029L92.6 40.4034L92.2188 40.0626ZM91.0066 43.2528L90.4964 43.2865L90.4962 43.2844L91.0066 43.2528ZM91.9922 45.2912L92.3253 44.9033L92.3258 44.9036L91.9922 45.2912ZM96.3958 49.0821L96.0632 49.4704L96.0622 49.4696L96.3958 49.0821ZM97.9965 49.7503L98.0501 49.2417C98.1147 49.2485 98.1774 49.2676 98.2348 49.2978L97.9965 49.7503ZM98.2192 49.8676L98.4575 49.4152C98.5154 49.4457 98.5669 49.487 98.6093 49.5369L98.2192 49.8676ZM117.609 65.5062L117.444 65.9905L117.444 65.9904L117.609 65.5062ZM117.845 65.5866L118.01 65.1023C118.224 65.175 118.365 65.3799 118.356 65.6061L117.845 65.5866ZM106.38 44.9867L105.974 44.6761L105.974 44.6752L106.38 44.9867ZM107.308 43.1049L107.804 43.2284L107.803 43.2326L107.308 43.1049ZM103.444 46.8305L103.371 46.3243L103.371 46.3243L103.444 46.8305ZM103.035 46.8893L102.868 47.3724C102.645 47.2951 102.504 47.0754 102.526 46.8405C102.549 46.6057 102.729 46.4167 102.963 46.3831L103.035 46.8893ZM104.222 47.1331V46.6218V47.1331ZM122.149 47.1331V47.6445V47.1331ZM123.275 42.5179L123.786 42.5179V42.5179H123.275ZM123.273 21.2233L123.784 21.1913C123.784 21.202 123.785 21.2126 123.785 21.2233L123.273 21.2233ZM123.275 19.7812L123.787 19.7811C123.787 19.7911 123.786 19.801 123.786 19.8109L123.275 19.7812ZM123.275 5.95993L122.763 5.95995L122.763 5.95995L123.275 5.95993ZM121.434 4.1191V4.63046V4.1191ZM105.225 4.1191V3.60774V4.1191ZM103.384 28.0089H103.896C103.896 28.0238 103.895 28.0388 103.894 28.0536L103.384 28.0089ZM103.357 28.2632L102.849 28.2071L102.849 28.2071L103.357 28.2632ZM103.351 28.3184L103.039 28.7236C102.898 28.6147 102.823 28.4398 102.843 28.2623L103.351 28.3184ZM103.496 28.4301L103.808 28.0249L103.808 28.0249L103.496 28.4301ZM104.168 28.9471L103.856 29.3523L103.856 29.3523L104.168 28.9471ZM104.232 34.1661L104.632 34.4854L104.631 34.486L104.232 34.1661ZM102.827 35.3757L103.082 35.8189L103.082 35.8189L102.827 35.3757ZM102.428 35.6054L102.092 35.9908C101.967 35.8822 101.903 35.7201 101.919 35.5556C101.935 35.3912 102.03 35.2446 102.173 35.1622L102.428 35.6054ZM102.774 35.9072L102.438 36.2927L102.438 36.2926L102.774 35.9072ZM106.604 39.2454L106.284 39.6444C106.278 39.64 106.273 39.6355 106.268 39.6309L106.604 39.2454ZM107.098 39.7703L107.493 39.4457C107.522 39.4816 107.547 39.5215 107.565 39.5641L107.098 39.7703ZM107.371 42.8501L107.868 42.9713L107.867 42.9735L107.371 42.8501ZM96.3159 29.6417L96.0063 30.0487C95.9529 30.008 95.9079 29.9572 95.8741 29.8992L96.3159 29.6417ZM96.2503 29.5292L95.8085 29.7867L95.8085 29.7867L96.2503 29.5292ZM100.923 33.1453L100.802 33.6421C100.734 33.6255 100.669 33.5949 100.613 33.5524L100.923 33.1453ZM100.992 33.1623L100.888 33.6629C100.883 33.6617 100.877 33.6604 100.871 33.6591L100.992 33.1623ZM101.015 33.1669L100.923 33.6702L100.911 33.6675L101.015 33.1669ZM101.02 33.1679L100.949 33.6742C100.942 33.6733 100.935 33.6722 100.929 33.671L101.02 33.1679ZM101.033 33.1697L100.967 33.6768L100.962 33.6761L101.033 33.1697ZM101.056 33.1727L101.014 33.6823C101.005 33.6816 100.997 33.6808 100.989 33.6797L101.056 33.1727ZM102.492 32.3665L102.091 32.0482L102.092 32.0468L102.492 32.3665ZM102.934 30.7582L103.367 30.4877L103.368 30.4877L102.934 30.7582ZM102.869 30.6548L103.177 30.2464C103.227 30.2843 103.27 30.331 103.303 30.3843L102.869 30.6548ZM98.1792 27.1196V26.6082C98.2902 26.6082 98.3983 26.6444 98.487 26.7112L98.1792 27.1196ZM96.6969 27.9296L96.2978 27.6099L96.2987 27.6087L96.6969 27.9296ZM103.159 43.6486V44.16C103.038 44.16 102.92 44.1167 102.828 44.038L103.159 43.6486ZM103.25 43.6486V43.1373C103.258 43.1373 103.267 43.1375 103.276 43.138L103.25 43.6486ZM94.1395 35.9675L94.4581 35.5676C94.4625 35.571 94.4668 35.5746 94.471 35.5782L94.1395 35.9675ZM94.0796 35.9198L93.7609 36.3197C93.7378 36.3013 93.7162 36.2808 93.6966 36.2586L94.0796 35.9198ZM94.0019 35.832L93.6189 36.1708C93.5985 36.1477 93.5801 36.1228 93.5642 36.0963L94.0019 35.832ZM94.4576 34.2292L94.8533 34.5532L94.8523 34.5544L94.4576 34.2292ZM95.5761 33.4558L95.85 33.8876C95.8053 33.916 95.7565 33.9372 95.7053 33.9506L95.5761 33.4558ZM95.7506 33.3451L96.1431 33.6729C96.1092 33.7135 96.0692 33.7486 96.0245 33.7769L95.7506 33.3451ZM95.832 33.2476L95.4395 32.9198C95.527 32.8151 95.6528 32.7496 95.7888 32.7381C95.9248 32.7265 96.0598 32.7698 96.1637 32.8583L95.832 33.2476ZM105.051 41.1022L104.733 41.5022C104.728 41.4987 104.724 41.4951 104.72 41.4914L105.051 41.1022ZM105.111 41.1498L105.43 40.7498C105.453 40.7683 105.474 40.7887 105.494 40.811L105.111 41.1498ZM105.189 41.2376L105.572 40.8987C105.592 40.9219 105.611 40.9468 105.626 40.9732L105.189 41.2376ZM104.735 42.8377L105.131 43.1609L105.131 43.1617L104.735 42.8377ZM103.339 43.6526L103.342 44.164C103.334 44.164 103.327 44.1639 103.319 44.1636L103.339 43.6526ZM100.66 20.8877L101.011 20.516L101.011 20.516L100.66 20.8877ZM100.758 20.9803L101.109 20.6085C101.211 20.7051 101.269 20.8396 101.269 20.9803H100.758ZM100.536 20.7474L100.96 20.4604L100.965 20.4683L100.536 20.7474ZM98.2473 18.9036L98.1669 19.4086L98.1653 19.4083L98.2473 18.9036ZM97.4302 19.1238L97.7328 19.536L97.7321 19.5365L97.4302 19.1238ZM97.0492 21.6935L97.5453 21.5696L97.5453 21.5698L97.0492 21.6935ZM98.7947 24.742L99.1921 24.4201L99.1921 24.4201L98.7947 24.742ZM98.8464 24.8058L98.6415 25.2743C98.5665 25.2415 98.5005 25.1912 98.4491 25.1277L98.8464 24.8058ZM98.9247 24.84L99.1296 24.3715L99.1296 24.3715L98.9247 24.84ZM99.4576 25.14L99.7605 24.728L99.7627 24.7296L99.4576 25.14ZM100.758 26.1064H101.269C101.269 26.2997 101.16 26.4765 100.987 26.5633C100.815 26.6501 100.608 26.6321 100.452 26.5168L100.758 26.1064ZM120.401 63.7802L120.146 63.3373L120.146 63.3373L120.401 63.7802ZM126.414 60.3104L126.159 59.8675L126.159 59.8675L126.414 60.3104ZM120.299 63.8394L120.554 64.2823C120.451 64.3421 120.329 64.3636 120.211 64.3432L120.299 63.8394ZM120.182 63.8193L120.095 64.3231L120.095 64.3231L120.182 63.8193ZM101.053 49.3687L100.666 49.7033L100.666 49.7033L101.053 49.3687ZM100.828 49.1088L100.441 49.4433C100.351 49.3395 100.307 49.2039 100.318 49.067C100.329 48.9301 100.395 48.8035 100.501 48.7157L100.828 49.1088ZM101.167 48.8265L100.84 48.4335L100.841 48.4327L101.167 48.8265ZM101.37 48.6496L101.017 48.2794L101.017 48.2794L101.37 48.6496ZM101.639 48.3931L101.286 48.023C101.393 47.9217 101.537 47.871 101.684 47.8837C101.83 47.8964 101.963 47.9714 102.051 48.0895L101.639 48.3931ZM101.86 48.6929L101.449 48.9965L101.449 48.9965L101.86 48.6929ZM104.782 50.1726V49.6612V50.1726ZM122.355 50.1726V50.6839V50.1726ZM125.981 46.5725H126.493H125.981ZM125.981 33.2089H125.47C125.47 33.1341 125.487 33.0602 125.518 32.9924L125.981 33.2089ZM126.099 32.8941L125.598 32.7918L125.599 32.7865L126.099 32.8941ZM127.268 27.4651L127.769 27.5656L127.768 27.5727L127.268 27.4651ZM127.23 26.8206L126.746 26.9852L126.745 26.9826L127.23 26.8206ZM125.984 21.4685L125.474 21.5116C125.473 21.4973 125.472 21.4829 125.472 21.4686L125.984 21.4685ZM125.983 19.821L125.472 19.8211C125.472 19.8026 125.473 19.7841 125.475 19.7657L125.983 19.821ZM126.507 18.262L126.115 17.9335L126.115 17.9335L126.507 18.262ZM126.593 18.1593L126.201 17.8308C126.286 17.7288 126.408 17.6642 126.541 17.6506L126.593 18.1593ZM126.725 18.1458L126.673 17.6371L126.673 17.6371L126.725 18.1458ZM130.442 22.0943L130.911 21.8904L130.912 21.8921L130.442 22.0943ZM133.277 42.9016L132.789 42.7492L132.789 42.7491L133.277 42.9016ZM132.386 51.4121L132.891 51.3312L132.891 51.3312L132.386 51.4121ZM132.982 53.606L132.508 53.7994L132.508 53.7994L132.982 53.606ZM133.468 54.5486L133.062 54.8598C133.055 54.8513 133.049 54.8425 133.043 54.8335L133.468 54.5486ZM134.134 55.4171L134.54 55.1059L134.54 55.1061L134.134 55.4171ZM134.368 55.7224L134.774 55.4114C134.863 55.5282 134.898 55.678 134.869 55.8224C134.841 55.9668 134.751 56.0918 134.623 56.1654L134.368 55.7224ZM93.2939 42.9452L92.9688 43.3399C92.9192 43.299 92.8777 43.2492 92.8466 43.193L93.2939 42.9452ZM93.235 42.8389L93.6823 42.5911L93.6823 42.5911L93.235 42.8389ZM97.7306 46.6003L97.5769 47.088C97.5143 47.0683 97.4561 47.0367 97.4055 46.9949L97.7306 46.6003ZM97.7967 46.6211L97.6588 47.1135C97.6535 47.112 97.6483 47.1105 97.643 47.1088L97.7967 46.6211ZM97.822 46.6281L97.6963 47.1237L97.696 47.1236L97.822 46.6281ZM97.8304 46.6301L97.7308 47.1317C97.724 47.1303 97.7173 47.1288 97.7106 47.1272L97.8304 46.6301ZM97.846 46.6331L97.9374 46.13L97.9375 46.13L97.846 46.6331ZM97.8807 46.6392L97.808 47.1454C97.8026 47.1446 97.7972 47.1438 97.7918 47.1428L97.8807 46.6392ZM99.3672 45.9237L98.9916 45.5767L98.992 45.5763L99.3672 45.9237ZM99.9629 44.5067L99.508 44.7404L99.508 44.7403L99.9629 44.5067ZM99.9038 44.3917L100.232 43.9993C100.284 44.0432 100.327 44.0972 100.359 44.158L99.9038 44.3917ZM95.3582 40.594L94.9311 40.3128C95.0113 40.1911 95.1395 40.1094 95.2837 40.0881C95.4279 40.0669 95.5743 40.1082 95.6861 40.2016L95.3582 40.594ZM95.3443 40.6152L95.7714 40.8965C95.6481 41.0836 95.4174 41.1688 95.2021 41.1064L95.3443 40.6152ZM95.32 40.6083L95.1854 41.1016L95.1851 41.1015L95.32 40.6083ZM95.3075 40.6051L95.4083 40.1038C95.4155 40.1052 95.4227 40.1069 95.4299 40.1086L95.3075 40.6051ZM95.2992 40.6035L95.2015 41.1054L95.2013 41.1054L95.2992 40.6035ZM95.2567 40.5957L95.3299 40.0897C95.3355 40.0905 95.3411 40.0914 95.3467 40.0924L95.2567 40.5957ZM93.7672 41.3105L94.1433 41.6569L94.1421 41.6583L93.7672 41.3105ZM117.623 66.8529C117.418 66.5441 117.311 66.1825 117.325 65.814L118.347 65.853C118.341 65.9967 118.383 66.1479 118.475 66.2864L117.623 66.8529ZM122.426 74.9683L117.609 66.8301L118.489 66.3092L123.306 74.4473L122.426 74.9683ZM125.661 74.4803L123 75.2013L122.733 74.2142L125.393 73.4932L125.661 74.4803ZM121.536 66.0289L125.97 73.7316L125.084 74.2419L120.649 66.5391L121.536 66.0289ZM135.247 58.6881L121.348 66.7267L120.836 65.8413L134.735 57.8028L135.247 58.6881ZM137.564 57.3496L135.247 58.6882L134.735 57.8027L137.052 56.4641L137.564 57.3496ZM138.239 56.9608L137.564 57.3499L137.053 56.4638L137.728 56.0748L138.239 56.9608ZM138.462 56.8321L138.239 56.9608L137.728 56.0748L137.951 55.9461L138.462 56.8321ZM145.943 65.4257L137.833 56.738L138.58 56.0401L146.691 64.7278L145.943 65.4257ZM148.526 64.5441L146.546 65.5341L146.088 64.6194L148.068 63.6294L148.526 64.5441ZM139.656 53.7195L148.677 63.7447L147.917 64.4288L138.896 54.4035L139.656 53.7195ZM137.464 53.4015C138.173 52.9986 139.079 53.1178 139.645 53.7076L138.907 54.4154C138.674 54.1729 138.282 54.1128 137.97 54.2906L137.464 53.4015ZM136.907 53.718L137.464 53.4015L137.97 54.2906L137.413 54.6071L136.907 53.718ZM136.653 53.8629L136.907 53.718L137.413 54.6071L137.158 54.752L136.653 53.8629ZM136.237 52.6143L137.309 53.9936L136.502 54.6214L135.429 53.2421L136.237 52.6143ZM135.998 51.9964C136.097 52.2979 136.198 52.5316 136.28 52.6798L135.386 53.1766C135.262 52.9532 135.137 52.6543 135.026 52.3147L135.998 51.9964ZM135.646 50.2881C135.715 50.9291 135.836 51.5009 135.998 51.9964L135.026 52.3147C134.839 51.7418 134.705 51.0988 134.63 50.3973L135.646 50.2881ZM136.504 43.6836C135.71 46.1861 135.443 48.398 135.646 50.2881L134.63 50.3973C134.408 48.3317 134.704 45.9742 135.529 43.3743L136.504 43.6836ZM133.528 20.8535C135.238 24.7725 136.42 29.0757 136.958 33.0912C137.495 37.0976 137.396 40.8618 136.504 43.6831L135.529 43.3749C136.357 40.754 136.471 37.1579 135.944 33.227C135.419 29.3051 134.262 25.0939 132.59 21.2625L133.528 20.8535ZM132.889 19.5869C133.145 20.0402 133.369 20.4869 133.528 20.8549L132.59 21.2611C132.448 20.9326 132.241 20.5186 131.998 20.0902L132.889 19.5869ZM131.468 17.5117C131.982 18.1252 132.459 18.8261 132.889 19.5869L131.998 20.0902C131.595 19.3758 131.153 18.7278 130.684 18.1686L131.468 17.5117ZM126.512 15.1122C128.329 14.835 130.002 15.7621 131.468 17.5117L130.684 18.1686C129.334 16.5577 127.985 15.922 126.666 16.1232L126.512 15.1122ZM126.123 15.1715L126.512 15.1122L126.666 16.1232L126.277 16.1825L126.123 15.1715ZM126.712 4.59097V15.677H125.689V4.59097L126.712 4.59097ZM122.538 0.488694C124.828 0.488694 126.712 2.31863 126.712 4.59097L125.689 4.59097C125.689 2.90282 124.283 1.51141 122.538 1.51141V0.488694ZM104.78 0.488694L122.538 0.488694V1.51141L104.78 1.51141V0.488694ZM100.612 4.59097C100.612 2.31811 102.491 0.488694 104.78 0.488694V1.51141C103.037 1.51141 101.634 2.90089 101.634 4.59097H100.612ZM100.612 17.5066L100.612 4.59097L101.634 4.59097L101.634 17.5066H100.612ZM100.873 16.763L101.384 17.0672L100.861 17.9461L100.35 17.6418L100.873 16.763ZM99.1664 16.115C99.7555 16.2164 100.327 16.4376 100.873 16.763L100.35 17.6418C99.8978 17.3726 99.4441 17.2005 98.9929 17.1229L99.1664 16.115ZM95.9803 16.9339C96.92 16.2113 98.0191 15.9234 99.1639 16.1145L98.9955 17.1233C98.1422 16.9808 97.3278 17.1879 96.6036 17.7446L95.9803 16.9339ZM94.5116 22.6432C93.9916 20.4823 94.4372 18.1201 95.9803 16.9339L96.6036 17.7447C95.5054 18.5889 95.0371 20.4555 95.5059 22.4039L94.5116 22.6432ZM95.6661 25.3115C95.1009 24.3782 94.7139 23.4965 94.5112 22.6416L95.5063 22.4056C95.6783 23.1307 96.0149 23.9132 96.5409 24.7817L95.6661 25.3115ZM95.8387 25.5964L95.6661 25.3115L96.5409 24.7817L96.7135 25.0666L95.8387 25.5964ZM95.7268 25.063L96.0149 24.8919L96.5372 25.7712L96.2491 25.9423L95.7268 25.063ZM94.2546 26.3498C94.6743 25.829 95.1726 25.3922 95.7268 25.063L96.2491 25.9423C95.8048 26.2062 95.398 26.5608 95.0509 26.9915L94.2546 26.3498ZM93.6354 31.4701C92.6803 29.9726 93.0058 27.9106 94.2535 26.3512L95.0521 26.9901C93.9944 28.312 93.8426 29.893 94.4977 30.9202L93.6354 31.4701ZM93.8122 31.7473L93.6354 31.4701L94.4977 30.9202L94.6745 31.1973L93.8122 31.7473ZM93.6886 31.2214L93.9664 31.0424L94.5203 31.9021L94.2425 32.0811L93.6886 31.2214ZM92.3428 32.4335C92.7243 31.9587 93.1789 31.5498 93.6886 31.2214L94.2425 32.0811C93.8251 32.3501 93.4527 32.6851 93.1401 33.0741L92.3428 32.4335ZM92.4316 38.3529C90.7036 36.9683 90.8154 34.3411 92.3423 32.4342L93.1406 33.0734C91.8286 34.712 91.9384 36.6472 93.0711 37.5548L92.4316 38.3529ZM93.1034 38.941L92.4148 38.3388L93.088 37.5689L93.7766 38.1711L93.1034 38.941ZM93.4431 39.2385L93.1031 38.9407L93.7769 38.1713L94.1168 38.4691L93.4431 39.2385ZM93.1275 38.6515L93.5147 38.4166L94.0452 39.2909L93.658 39.5258L93.1275 38.6515ZM91.837 39.7224C92.2097 39.3043 92.6435 38.9452 93.1275 38.6515L93.658 39.5258C93.2588 39.768 92.9041 40.0623 92.6005 40.4029L91.837 39.7224ZM90.4962 43.2844C90.4191 42.0369 90.9265 40.741 91.8375 39.7219L92.6 40.4034C91.841 41.2526 91.4593 42.2887 91.517 43.2212L90.4962 43.2844ZM91.659 45.6791C90.9644 45.0825 90.5585 44.2282 90.4964 43.2865L91.5169 43.2191C91.5623 43.9068 91.854 44.4984 92.3253 44.9033L91.659 45.6791ZM96.0622 49.4696L91.6585 45.6787L92.3258 44.9036L96.7294 48.6945L96.0622 49.4696ZM97.9428 50.2588C97.2329 50.1839 96.5873 49.9194 96.0632 49.4704L96.7285 48.6937C97.0829 48.9973 97.5295 49.1868 98.0501 49.2417L97.9428 50.2588ZM97.9808 50.32L97.7581 50.2027L98.2348 49.2978L98.4575 49.4152L97.9808 50.32ZM117.444 65.9904C111.522 63.9805 104.769 58.3848 97.8291 50.1983L98.6093 49.5369C105.517 57.6865 112.122 63.104 117.773 65.022L117.444 65.9904ZM117.681 66.0708L117.444 65.9905L117.773 65.022L118.01 65.1023L117.681 66.0708ZM117.325 65.814L117.334 65.567L118.356 65.6061L118.347 65.853L117.325 65.814ZM105.974 44.6752C106.376 44.1529 106.658 43.5765 106.813 42.9772L107.803 43.2326C107.613 43.9709 107.267 44.6714 106.785 45.2983L105.974 44.6752ZM103.371 46.3243C104.31 46.1892 105.265 45.6026 105.974 44.6761L106.786 45.2974C105.943 46.3993 104.763 47.1572 103.517 47.3366L103.371 46.3243ZM102.963 46.3831L103.371 46.3243L103.517 47.3366L103.108 47.3954L102.963 46.3831ZM104.222 47.6445C103.913 47.6445 103.564 47.5695 103.32 47.5063C103.192 47.4733 103.08 47.4404 103.001 47.4156C102.961 47.4032 102.929 47.3928 102.906 47.3853C102.895 47.3815 102.886 47.3785 102.879 47.3763C102.876 47.3752 102.873 47.3743 102.871 47.3737C102.871 47.3733 102.87 47.3731 102.869 47.3729C102.869 47.3727 102.869 47.3727 102.868 47.3726C102.868 47.3725 102.868 47.3725 102.868 47.3725C102.868 47.3725 102.868 47.3724 102.868 47.3724C102.868 47.3724 102.868 47.3724 103.035 46.8893C103.203 46.4061 103.203 46.4061 103.203 46.4061C103.203 46.4061 103.203 46.4061 103.203 46.4061C103.203 46.4061 103.203 46.4061 103.203 46.406C103.203 46.406 103.203 46.406 103.203 46.406C103.203 46.4061 103.203 46.4061 103.203 46.4063C103.204 46.4065 103.206 46.407 103.208 46.4077C103.212 46.4091 103.218 46.4113 103.227 46.4142C103.245 46.42 103.271 46.4286 103.305 46.4391C103.372 46.4601 103.467 46.4881 103.575 46.5161C103.803 46.5748 104.048 46.6218 104.222 46.6218V47.6445ZM122.149 47.6445L104.222 47.6445V46.6218L122.149 46.6218V47.6445ZM123.786 45.9589C123.786 46.8739 123.069 47.6445 122.149 47.6445V46.6218C122.467 46.6218 122.763 46.3471 122.763 45.9589H123.786ZM123.786 42.5179V45.9589H122.763V42.5179H123.786ZM123.785 21.2233L123.786 42.5179L122.763 42.518L122.762 21.2233L123.785 21.2233ZM123.786 19.8109C123.757 20.3073 123.757 20.7564 123.784 21.1913L122.763 21.2553C122.733 20.7747 122.734 20.2841 122.765 19.7514L123.786 19.8109ZM123.786 5.95991L123.787 19.7811L122.764 19.7812L122.763 5.95995L123.786 5.95991ZM121.434 3.60774C122.733 3.60774 123.786 4.66083 123.786 5.95991L122.763 5.95995C122.763 5.22568 122.168 4.63046 121.434 4.63046V3.60774ZM105.225 3.60774L121.434 3.60774V4.63046L105.225 4.63046V3.60774ZM102.873 5.96C102.873 4.66088 103.926 3.60774 105.225 3.60774V4.63046C104.491 4.63046 103.896 5.22571 103.896 5.96H102.873ZM102.873 28.0089V5.96H103.896V28.0089L102.873 28.0089ZM102.849 28.2071C102.867 28.0441 102.871 28.0107 102.875 27.9642L103.894 28.0536C103.888 28.1144 103.883 28.1616 103.866 28.3194L102.849 28.2071ZM102.843 28.2623L102.849 28.2071L103.866 28.3194L103.86 28.3746L102.843 28.2623ZM103.185 28.8353L103.039 28.7236L103.663 27.9132L103.808 28.0249L103.185 28.8353ZM103.856 29.3523L103.185 28.8353L103.808 28.0249L104.48 28.5419L103.856 29.3523ZM103.833 33.8468C105.153 32.195 105.026 30.2526 103.856 29.3523L104.48 28.5418C106.263 29.9138 106.169 32.5617 104.632 34.4854L103.833 33.8468ZM102.572 34.9325C103.048 34.6586 103.478 34.2893 103.833 33.8462L104.631 34.486C104.198 35.0264 103.671 35.4801 103.082 35.8189L102.572 34.9325ZM102.173 35.1622L102.572 34.9325L103.082 35.8189L102.683 36.0486L102.173 35.1622ZM102.438 36.2926L102.092 35.9908L102.764 35.2199L103.11 35.5217L102.438 36.2926ZM106.268 39.6309L102.438 36.2927L103.11 35.5217L106.94 38.8599L106.268 39.6309ZM106.702 40.0949C106.499 39.8478 106.363 39.7076 106.284 39.6444L106.923 38.8464C107.09 38.9796 107.282 39.1892 107.493 39.4457L106.702 40.0949ZM106.874 42.7289C107.105 41.7837 107.024 40.8722 106.63 39.9765L107.565 39.5641C108.051 40.6647 108.152 41.8064 107.868 42.9713L106.874 42.7289ZM106.812 42.9814L106.875 42.7266L107.867 42.9735L107.804 43.2284L106.812 42.9814ZM95.8741 29.8992L95.8085 29.7867L96.6921 29.2717L96.7576 29.3841L95.8741 29.8992ZM100.613 33.5524L96.0063 30.0487L96.6254 29.2346L101.233 32.7383L100.613 33.5524ZM100.871 33.6591L100.802 33.6421L101.044 32.6485L101.114 32.6655L100.871 33.6591ZM100.911 33.6675L100.888 33.6629L101.097 32.6616L101.119 32.6663L100.911 33.6675ZM100.929 33.671L100.923 33.67L101.106 32.6638L101.112 32.6648L100.929 33.671ZM100.962 33.6761L100.949 33.6742L101.092 32.6615L101.105 32.6634L100.962 33.6761ZM100.989 33.6797L100.967 33.6767L101.1 32.6627L101.122 32.6657L100.989 33.6797ZM101.129 33.6872C101.082 33.6872 101.058 33.6859 101.014 33.6823L101.098 32.663C101.105 32.6637 101.11 32.664 101.113 32.6642C101.115 32.6644 101.116 32.6644 101.116 32.6644C101.115 32.6644 101.116 32.6645 101.129 32.6645V33.6872ZM102.892 32.6849C102.442 33.2497 101.766 33.6872 101.129 33.6872V32.6645C101.34 32.6645 101.751 32.4756 102.091 32.0482L102.892 32.6849ZM103.368 30.4877C103.578 30.825 103.54 31.2596 103.453 31.5901C103.358 31.9531 103.166 32.3427 102.891 32.6862L102.092 32.0468C102.281 31.8112 102.406 31.5501 102.464 31.3305C102.53 31.0783 102.481 30.9983 102.5 31.0286L103.368 30.4877ZM103.303 30.3843L103.367 30.4877L102.5 31.0286L102.435 30.9252L103.303 30.3843ZM98.487 26.7112L103.177 30.2464L102.561 31.0631L97.8714 27.5279L98.487 26.7112ZM98.0648 26.6082H98.1792V27.6309H98.0648V26.6082ZM96.2987 27.6087C96.7538 27.044 97.4284 26.6082 98.0648 26.6082V27.6309C97.8542 27.6309 97.4432 27.8184 97.095 28.2505L96.2987 27.6087ZM95.8085 29.7867C95.6125 29.4505 95.653 29.0226 95.7406 28.6942C95.8366 28.3344 96.0264 27.9486 96.2978 27.6099L97.096 28.2493C96.9115 28.4795 96.7874 28.7379 96.7287 28.9579C96.6617 29.2093 96.7067 29.2967 96.6921 29.2717L95.8085 29.7867ZM103.159 43.1373H103.25V44.16H103.159V43.1373ZM94.471 35.5782L103.491 43.2593L102.828 44.038L93.8079 36.3568L94.471 35.5782ZM94.3983 35.5199L94.4581 35.5676L93.8208 36.3674L93.7609 36.3197L94.3983 35.5199ZM94.3849 35.4932L94.4626 35.581L93.6966 36.2586L93.6189 36.1708L94.3849 35.4932ZM94.8523 34.5544C94.6621 34.7851 94.5357 35.043 94.4765 35.2612C94.4088 35.5108 94.4559 35.5946 94.4397 35.5677L93.5642 36.0963C93.3595 35.7574 93.3996 35.3249 93.4894 34.9936C93.5877 34.631 93.7833 34.2435 94.063 33.904L94.8523 34.5544ZM95.7053 33.9506C95.4478 34.0178 95.12 34.2274 94.8533 34.5532L94.062 33.9053C94.4341 33.4508 94.9364 33.0943 95.4469 32.961L95.7053 33.9506ZM96.0245 33.7769L95.85 33.8876L95.3022 33.024L95.4766 32.9133L96.0245 33.7769ZM96.2245 33.5754L96.1431 33.6729L95.3581 33.0174L95.4395 32.9198L96.2245 33.5754ZM104.72 41.4914L95.5004 33.6368L96.1637 32.8583L105.383 40.713L104.72 41.4914ZM104.792 41.5497L104.733 41.5022L105.37 40.7022L105.43 40.7498L104.792 41.5497ZM104.806 41.5764L104.728 41.4886L105.494 40.811L105.572 40.8987L104.806 41.5764ZM104.339 42.5145C104.528 42.2826 104.654 42.0241 104.713 41.8057C104.781 41.5553 104.734 41.4731 104.751 41.5019L105.626 40.9732C105.831 41.3114 105.79 41.7434 105.7 42.0728C105.603 42.4342 105.409 42.8211 105.131 43.1609L104.339 42.5145ZM103.335 43.1413C103.564 43.1398 103.987 42.9447 104.34 42.5138L105.131 43.1617C104.667 43.7283 103.984 44.1597 103.342 44.164L103.335 43.1413ZM103.276 43.138C103.313 43.1398 103.312 43.1398 103.359 43.1416L103.319 44.1636C103.269 44.1616 103.265 44.1615 103.223 44.1593L103.276 43.138ZM101.011 20.516L101.109 20.6085L100.406 21.352L100.308 21.2595L101.011 20.516ZM100.965 20.4683C100.963 20.4662 100.969 20.4766 101.011 20.516L100.308 21.2595C100.24 21.1951 100.17 21.1212 100.108 21.0265L100.965 20.4683ZM98.3276 18.3986C98.7963 18.4731 99.2829 18.7466 99.7179 19.0962C100.162 19.4535 100.597 19.9255 100.96 20.4604L100.113 21.0344C99.8036 20.578 99.4372 20.1827 99.0771 19.8933C98.7075 19.5962 98.3856 19.4434 98.1669 19.4086L98.3276 18.3986ZM97.1276 18.7116C97.4985 18.4393 97.884 18.3265 98.3293 18.3988L98.1653 19.4083C98.0268 19.3858 97.9137 19.4032 97.7328 19.536L97.1276 18.7116ZM96.553 21.8174C96.4059 21.2284 96.3865 20.5997 96.468 20.0639C96.5089 19.7954 96.5772 19.5366 96.6767 19.3109C96.7735 19.0915 96.9163 18.8661 97.1283 18.7111L97.7321 19.5365C97.7195 19.5458 97.6699 19.5934 97.6124 19.7237C97.5577 19.8477 97.5099 20.0153 97.4791 20.2178C97.4173 20.624 97.4319 21.116 97.5453 21.5696L96.553 21.8174ZM98.3974 25.0639C97.4274 23.8666 96.7936 22.7822 96.553 21.8172L97.5453 21.5698C97.733 22.3224 98.2594 23.2689 99.1921 24.4201L98.3974 25.0639ZM98.4491 25.1277L98.3974 25.0639L99.1921 24.4201L99.2437 24.4839L98.4491 25.1277ZM98.7198 25.3085L98.6415 25.2743L99.0513 24.3373L99.1296 24.3715L98.7198 25.3085ZM99.1547 25.552C99.0406 25.4681 98.8958 25.3855 98.7198 25.3085L99.1296 24.3715C99.3605 24.4725 99.5739 24.5908 99.7605 24.728L99.1547 25.552ZM100.452 26.5168L99.1525 25.5503L99.7627 24.7296L101.063 25.696L100.452 26.5168ZM101.269 20.9803V26.1064H100.246V20.9803H101.269ZM120.146 63.3373L126.159 59.8675L126.67 60.7533L120.657 64.2231L120.146 63.3373ZM120.043 63.3965L120.146 63.3373L120.657 64.2231L120.554 64.2823L120.043 63.3965ZM120.27 63.3154L120.386 63.3355L120.211 64.3432L120.095 64.3231L120.27 63.3154ZM101.439 49.0341C105.05 53.2069 108.494 56.5649 111.676 58.9884C114.865 61.4167 117.759 62.8808 120.27 63.3154L120.095 64.3231C117.354 63.8486 114.307 62.277 111.057 59.8021C107.8 57.3224 104.305 53.9097 100.666 49.7033L101.439 49.0341ZM101.214 48.7742L101.439 49.0341L100.666 49.7033L100.441 49.4433L101.214 48.7742ZM101.494 49.2196L101.155 49.5018L100.501 48.7157L100.84 48.4335L101.494 49.2196ZM101.723 49.0197C101.657 49.0824 101.594 49.1364 101.493 49.2204L100.841 48.4327C100.936 48.3535 100.977 48.3174 101.017 48.2794L101.723 49.0197ZM101.992 48.7633L101.723 49.0197L101.017 48.2794L101.286 48.023L101.992 48.7633ZM101.449 48.9965L101.228 48.6967L102.051 48.0895L102.272 48.3893L101.449 48.9965ZM104.782 50.6839C103.464 50.6839 102.229 50.054 101.449 48.9965L102.272 48.3893C102.861 49.1879 103.791 49.6612 104.782 49.6612V50.6839ZM122.355 50.6839L104.782 50.6839V49.6612L122.355 49.6612V50.6839ZM126.493 46.5725C126.493 48.8443 124.634 50.6839 122.355 50.6839V49.6612C124.077 49.6612 125.47 48.2724 125.47 46.5725H126.493ZM126.493 33.2089L126.493 46.5725H125.47L125.47 33.2089H126.493ZM126.6 32.9964C126.572 33.1319 126.524 33.2563 126.445 33.4255L125.518 32.9924C125.586 32.8477 125.594 32.8092 125.598 32.7918L126.6 32.9964ZM127.768 27.5727L126.599 33.0017L125.599 32.7865L126.768 27.3575L127.768 27.5727ZM127.714 26.6561C127.813 26.9485 127.829 27.2645 127.769 27.5656L126.766 27.3646C126.793 27.2309 126.784 27.0983 126.746 26.9852L127.714 26.6561ZM126.493 21.4253C126.609 22.7914 127.007 24.5408 127.715 26.6587L126.745 26.9826C126.023 24.823 125.599 22.9887 125.474 21.5116L126.493 21.4253ZM126.495 19.8208L126.495 21.4683L125.472 21.4686L125.472 19.8211L126.495 19.8208ZM126.899 18.5906C126.738 18.7827 126.566 19.1913 126.492 19.8762L125.475 19.7657C125.559 18.9975 125.764 18.3518 126.115 17.9335L126.899 18.5906ZM126.985 18.4879L126.899 18.5906L126.115 17.9335L126.201 17.8308L126.985 18.4879ZM126.777 18.6545L126.645 18.668L126.541 17.6506L126.673 17.6371L126.777 18.6545ZM129.973 22.2983C129.484 21.1729 128.859 20.2099 128.241 19.5513C127.932 19.2217 127.636 18.9809 127.373 18.8312C127.106 18.6793 126.908 18.6411 126.777 18.6545L126.673 17.6371C127.09 17.5944 127.505 17.7295 127.879 17.9422C128.256 18.1571 128.631 18.4722 128.987 18.8517C129.699 19.6111 130.384 20.6785 130.911 21.8904L129.973 22.2983ZM132.789 42.7491C133.514 40.4295 133.592 37.1198 133.087 33.4604C132.584 29.8122 131.509 25.8663 129.972 22.2966L130.912 21.8921C132.486 25.548 133.585 29.5831 134.1 33.3207C134.614 37.0472 134.554 40.5284 133.765 43.0541L132.789 42.7491ZM131.882 51.4931C131.473 48.9445 131.771 46.0107 132.789 42.7492L133.765 43.054C132.78 46.2088 132.514 48.9788 132.891 51.3312L131.882 51.4931ZM132.508 53.7994C132.228 53.1148 132.018 52.3414 131.882 51.4931L132.891 51.3312C133.017 52.1134 133.209 52.8099 133.455 53.4126L132.508 53.7994ZM133.043 54.8335C132.844 54.5373 132.673 54.2022 132.508 53.7994L133.455 53.4126C133.601 53.7689 133.742 54.0389 133.892 54.2637L133.043 54.8335ZM133.728 55.7283L133.062 54.8598L133.874 54.2374L134.54 55.1059L133.728 55.7283ZM133.962 56.0334L133.728 55.7282L134.54 55.1061L134.774 55.4114L133.962 56.0334ZM126.159 59.8675L134.112 55.2795L134.623 56.1654L126.67 60.7534L126.159 59.8675ZM92.8466 43.193L92.7877 43.0867L93.6823 42.5911L93.7412 42.6974L92.8466 43.193ZM97.4055 46.9949L92.9688 43.3399L93.6191 42.5505L98.0558 46.2056L97.4055 46.9949ZM97.643 47.1088L97.5769 47.088L97.8843 46.1126L97.9504 46.1334L97.643 47.1088ZM97.696 47.1236C97.6835 47.1205 97.6712 47.117 97.6588 47.1135L97.9346 46.1287C97.9427 46.131 97.9466 46.132 97.9491 46.1327C97.951 46.1333 97.95 46.133 97.948 46.1325L97.696 47.1236ZM97.7106 47.1272C97.7076 47.1265 97.7022 47.1252 97.6963 47.1237L97.9477 46.1324C97.9466 46.1321 97.9461 46.132 97.9501 46.133L97.7106 47.1272ZM97.7546 47.1362C97.7441 47.1343 97.7376 47.133 97.7308 47.1317L97.9299 46.1285C97.9334 46.1292 97.9343 46.1294 97.935 46.1295C97.9353 46.1296 97.9358 46.1297 97.9374 46.13L97.7546 47.1362ZM97.7918 47.1428C97.7738 47.1396 97.7625 47.1376 97.7545 47.1362L97.9375 46.13C97.9421 46.1308 97.9497 46.1322 97.9696 46.1357L97.7918 47.1428ZM97.9866 47.157C97.9264 47.157 97.8631 47.1533 97.808 47.1454L97.9534 46.1331C97.9498 46.1326 97.9519 46.133 97.9599 46.1335C97.9672 46.134 97.9765 46.1343 97.9866 46.1343V47.157ZM99.7428 46.2707C99.2688 46.7838 98.6034 47.157 97.9866 47.157V46.1343C98.2269 46.1343 98.6391 45.9583 98.9916 45.5767L99.7428 46.2707ZM100.418 44.273C100.594 44.6164 100.51 45.0089 100.391 45.3003C100.261 45.6182 100.037 45.9528 99.7424 46.2711L98.992 45.5763C99.2251 45.3246 99.3713 45.0917 99.4438 44.9141C99.527 44.7099 99.4764 44.6789 99.508 44.7404L100.418 44.273ZM100.359 44.158L100.418 44.273L99.508 44.7403L99.449 44.6254L100.359 44.158ZM95.6861 40.2016L100.232 43.9993L99.576 44.7841L95.0304 40.9865L95.6861 40.2016ZM94.9172 40.334L94.9311 40.3128L95.7853 40.8753L95.7714 40.8965L94.9172 40.334ZM95.4547 40.115C95.4642 40.1176 95.4752 40.1208 95.4865 40.1241L95.2021 41.1064C95.1952 41.1044 95.191 41.1032 95.1879 41.1023C95.1848 41.1014 95.1845 41.1014 95.1854 41.1016L95.4547 40.115ZM95.4299 40.1086C95.4348 40.1098 95.4437 40.112 95.4549 40.1151L95.1851 41.1015L95.1851 41.1016L95.4299 40.1086ZM95.397 40.1015C95.401 40.1023 95.4048 40.1031 95.4083 40.1038L95.2068 41.1065C95.2036 41.1058 95.2024 41.1056 95.2015 41.1054L95.397 40.1015ZM95.3467 40.0924C95.3724 40.097 95.3849 40.0992 95.3972 40.1016L95.2013 41.1054C95.2009 41.1053 95.1998 41.1051 95.1947 41.1041C95.1892 41.1031 95.1811 41.1017 95.1667 41.0991L95.3467 40.0924ZM95.1502 40.078C95.2107 40.078 95.2745 40.0816 95.3299 40.0897L95.1835 41.1018C95.1861 41.1022 95.1867 41.1022 95.1851 41.1021C95.1837 41.1019 95.1812 41.1017 95.1776 41.1015C95.1702 41.101 95.1607 41.1007 95.1502 41.1007V40.078ZM93.3911 40.964C93.8629 40.4519 94.5334 40.078 95.1502 40.078V41.1007C94.9081 41.1007 94.4913 41.2792 94.1433 41.6569L93.3911 40.964ZM92.7877 43.0867C92.5959 42.7406 92.662 42.3134 92.7675 41.9975C92.8839 41.6485 93.0979 41.28 93.3924 40.9627L94.1421 41.6583C93.9432 41.8726 93.8063 42.1154 93.7376 42.3212C93.6579 42.5601 93.7046 42.6313 93.6823 42.5911L92.7877 43.0867Z" fill="#132C45"/>
    <path d="M118.242 19.4341L114.214 23.462V14H112.34V23.462L108.312 19.4341L107 20.7454L113.277 27.0226L119.555 20.7454L118.242 19.4341Z" fill="#132C45"/>
    <path d="M108.124 28.99H118.429V30.8635H108.124V28.99Z" fill="#132C45"/>
</svg>