<svg width="239" height="112" viewBox="0 0 239 112" fill="none" xmlns="http://www.w3.org/2000/svg">
    <path d="M57.2484 58.7589L61.2525 73.7259L66.5657 75.7808L83.8601 76.4861L90.8491 77.3594L92.2362 74.331L91.8432 72.5911L95.1693 72.2896L95.911 68.4226L97.1626 67.14L98.5046 64.6936L98.01 63.2719L101.269 61.8612L102.926 59.3055L100.838 57.2673L90.1568 49.0351L85.1275 40.4755L80.4724 40.2103L74.0706 43.7706L67.7449 49.0742L64.0054 54.0847L61.7107 56.4361L57.2484 58.7589Z" fill="white"/>
    <path d="M95.0202 34.0248C95.4165 33.6187 96.0671 33.6107 96.4732 34.0071L108.283 45.5322C108.689 45.9285 108.697 46.5791 108.301 46.9852L93.9188 61.723C93.9188 61.723 91.4173 61.7684 90.7828 62.4186C90.1483 63.0688 90.2682 65.4638 90.2682 65.4638C90.2682 65.4638 90.0169 66.6759 89.4935 66.8467C88.9702 67.0175 86.6628 66.6405 86.6628 66.6405L83.1788 66.9966L82.6194 69.2248L83.0725 72.8375L81.0326 73.3909L70.4751 63.4933L69.4968 60.1792L95.0202 34.0248Z" fill="#50E3C2"/>
    <path fill-rule="evenodd" clip-rule="evenodd" d="M62.4254 75.3872C62.2816 75.5463 62.0873 75.6567 61.8673 75.7037L33.091 85.9252L31.9183 83.9372L60.2107 73.7528L56.583 60.8087L55.9773 58.6516L55.8004 58.0238L55.7418 57.8161L23.92 60.0798L23.3125 58.3288L56.4621 55.7961C56.9446 55.78 57.3859 56.1058 57.5222 56.5785L57.6707 57.0937L57.7387 57.3296L59.1879 57.1303C59.3584 57.0793 59.5815 56.9855 59.8319 56.8548C60.2491 56.637 60.6804 56.3474 61.1161 55.9873C62.4 54.9263 63.5674 53.3928 64.5741 51.3907C66.7258 47.1239 72.9275 42.3215 79.4863 39.6551C79.7802 39.5345 80.1611 39.4028 80.5682 39.2843C81.2494 39.0861 81.919 38.9506 82.5562 38.8866C84.3826 38.7031 85.7447 39.1183 86.5446 40.1787L86.7428 40.4415L93.2254 33.7985C94.3834 32.6119 96.311 32.6088 97.5199 33.7885L108.16 44.1723C109.369 45.3513 109.411 47.2754 108.252 48.4627L100.7 56.202L101.184 56.3186C101.657 56.4326 102.079 56.6144 102.443 56.8649C103.139 57.3491 103.568 58.0569 103.692 58.9267C103.89 60.3073 102.927 61.8414 101.43 62.7835C100.855 63.1474 100.152 63.4344 99.2983 63.6552L99.0283 63.725L99.1009 63.9961C99.2266 64.4657 99.2664 64.9674 99.218 65.4767C99.0663 67.014 98.1441 68.245 96.9235 68.5306L96.6555 68.5933L96.7173 68.863C96.8204 69.313 96.8507 69.7777 96.8061 70.2395C96.62 72.1317 95.2866 73.4993 93.7594 73.3496L92.9946 73.3078L92.6168 73.2874L92.7114 73.6546C92.8194 74.0734 92.8646 74.4996 92.8454 74.9247C92.7995 75.9728 92.384 76.9314 91.7062 77.5451C91.1976 78.0018 90.5659 78.2311 89.9237 78.1902L85.0682 77.8867C84.585 77.8553 84.125 77.672 83.7184 77.3511L83.5163 77.2912C74.5911 78.1368 67.3688 77.5307 62.753 75.324L62.5642 75.2337L62.4254 75.3872ZM82.0248 67.9241C81.7371 68.4258 81.552 68.992 81.4805 69.5944C81.3521 70.6557 81.5989 71.6829 82.1616 72.416L82.372 72.6901C82.372 72.6901 81.808 72.4251 81.5183 72.1423L70.776 61.6592C70.4051 61.2972 70.4073 60.688 70.7883 60.2975L72.8004 58.2356L85.2534 45.4763C85.5383 45.2188 85.8127 44.9369 86.0956 44.6111L94.1779 36.3295C94.7725 35.7203 95.7483 35.7084 96.3575 36.3029L106.07 45.7811C106.679 46.3756 106.691 47.3514 106.097 47.9606L93.2034 61.1727C93.1749 61.2075 93.154 61.2342 93.0715 61.3398L93.0421 61.3774L92.8899 61.3595L92.1851 61.2765C90.6361 61.094 89.2839 62.4594 89.0948 64.3663C89.0435 64.8916 89.0897 65.418 89.2296 65.9129L89.3344 66.2839L88.9505 66.2623L84.7037 66.0232C84.5729 66.0104 84.3719 66.019 84.1008 66.0489C83.2535 66.3898 82.5985 66.9516 82.1358 67.7344L82.0248 67.9241ZM96.5891 66.2551L96.484 66.2842L91.6746 65.6895L91.6231 65.6591L91.6074 65.6491L91.6032 65.6463L91.5791 65.6284C91.558 65.6109 91.5516 65.6053 91.5333 65.5874C91.2792 65.3394 91.1365 64.8338 91.1901 64.3057C91.2508 63.6874 91.5716 63.1556 91.8658 63.0835L91.9648 63.0592L96.8423 63.6833L96.9109 63.7502C97.1646 63.9978 97.3077 64.502 97.2569 65.0355C97.1973 65.6429 96.8797 66.1747 96.5891 66.2551ZM84.1387 70.6232L84.1928 70.6759L94.0893 71.3477L94.153 71.3542L94.2509 71.347C94.5463 71.2702 94.8632 70.7365 94.9151 70.1201C94.9518 69.6995 94.8686 69.2872 94.6971 69.0026L94.6573 68.8343L94.6655 68.7282L84.5482 68.0437L84.4845 68.0373L84.3867 68.0445C84.0938 68.1207 83.7777 68.6532 83.7227 69.2686C83.6758 69.8062 83.8239 70.3172 84.083 70.5734L84.111 70.5986L84.1387 70.6231L84.1387 70.6232ZM98.8874 58.4973L99.0002 58.4991C99.0635 58.5001 99.111 58.4972 99.1562 58.4871C100.139 58.2862 101.13 58.3844 101.606 58.7208C101.809 58.8631 101.92 59.0478 101.967 59.3306C102.044 59.79 101.458 60.6207 100.692 61.0932C100.062 61.4826 99.1206 61.7518 97.8639 61.8992L97.7956 61.9072L97.7287 61.8819C97.5547 61.8163 97.3887 61.7717 97.234 61.75L95.8899 61.5689L98.8874 58.4973ZM60.5148 67.0617L62.089 72.6571L62.1159 72.7525L62.1973 72.8084C65.8763 75.3351 72.8662 76.1173 82.1102 75.3357L82.397 75.3114L82.3588 74.944C82.3475 74.8376 82.3427 74.7802 82.3405 74.7191L82.3292 74.4081L82.0214 74.4584C81.0684 74.6141 80.0973 74.3118 79.4054 73.6365L68.8756 63.3608C67.6768 62.1909 67.6463 60.2729 68.8076 59.0829L76.622 51.0752C76.6698 50.9383 76.7003 50.8728 76.7357 50.8178L79.2101 46.8813C79.3111 46.7255 79.4498 46.5986 79.6097 46.5174C81.2883 45.6535 82.5825 44.8203 83.4859 44.0388L84.4496 43.0518C84.8271 42.5702 85.0225 42.1441 85.0476 41.8116L85.056 41.6998L84.9847 41.6143C84.3928 40.9053 82.4244 41.0008 80.4486 41.8069C74.3594 44.3175 68.5088 48.8285 66.5825 52.617C65.3066 55.125 63.808 56.9989 62.1396 58.2375C61.5846 58.6496 61.0341 58.9722 60.5001 59.2041C60.1852 59.3408 59.9146 59.4307 59.6576 59.4846L58.7505 59.6155L58.4319 59.6617L60.5148 67.0617ZM90.6133 75.9939L90.5158 76.0231L85.72 75.6189L85.6682 75.5927C85.6565 75.5863 85.6527 75.5842 85.649 75.5821C85.6472 75.5811 85.6454 75.58 85.6428 75.5784C85.6381 75.5754 85.6359 75.5739 85.6311 75.5707C85.6266 75.5677 85.62 75.5632 85.6073 75.5545C85.5896 75.5416 85.5651 75.5208 85.5401 75.4964C85.2833 75.2458 85.121 74.7662 85.135 74.2565C85.152 73.6063 85.355 73.1433 85.6066 73.0591L85.7092 73.0247L90.6537 73.4071L90.6497 73.428C90.6689 73.4383 90.6689 73.4383 90.6776 73.4434C90.687 73.4495 90.687 73.4495 90.7136 73.4675C90.731 73.4802 90.7558 73.5012 90.7812 73.526C91.0385 73.7771 91.2027 74.2605 91.1882 74.7668C91.1729 75.3739 90.8938 75.9097 90.6133 75.9939Z" fill="#132C45"/>
    <path d="M61.8673 75.7037L61.7778 75.285C61.7596 75.2889 61.7416 75.294 61.724 75.3002L61.8673 75.7037ZM62.4254 75.3872L62.743 75.6743L62.743 75.6743L62.4254 75.3872ZM33.091 85.9252L32.7222 86.1427C32.8264 86.3193 33.0411 86.3972 33.2343 86.3286L33.091 85.9252ZM31.9183 83.9372L31.7733 83.5344C31.6533 83.5776 31.5588 83.672 31.5155 83.792C31.4723 83.9119 31.4847 84.0449 31.5495 84.1548L31.9183 83.9372ZM60.2107 73.7528L60.3557 74.1557C60.5669 74.0797 60.6835 73.8534 60.6229 73.6373L60.2107 73.7528ZM56.583 60.8087L56.9952 60.6931L56.9952 60.6929L56.583 60.8087ZM55.9773 58.6516L56.3895 58.5358L56.3893 58.5354L55.9773 58.6516ZM55.8004 58.0238L56.2124 57.9077L56.2124 57.9076L55.8004 58.0238ZM55.7418 57.8161L56.1539 57.7C56.0988 57.5045 55.914 57.3746 55.7114 57.389L55.7418 57.8161ZM23.92 60.0798L23.5155 60.2202C23.5789 60.4031 23.7572 60.5206 23.9504 60.5069L23.92 60.0798ZM23.3125 58.3288L23.2799 57.9019C23.1475 57.912 23.0272 57.983 22.9544 58.0941C22.8816 58.2051 22.8645 58.3437 22.908 58.4692L23.3125 58.3288ZM56.4621 55.7961L56.4479 55.3682C56.4418 55.3684 56.4356 55.3687 56.4295 55.3692L56.4621 55.7961ZM57.5222 56.5785L57.9336 56.4599L57.9336 56.4599L57.5222 56.5785ZM57.6707 57.0937L57.2593 57.2123L57.2593 57.2123L57.6707 57.0937ZM57.7387 57.3296L57.3273 57.4481C57.3862 57.6525 57.5862 57.7827 57.797 57.7537L57.7387 57.3296ZM59.1879 57.1303L59.2462 57.5544C59.268 57.5514 59.2895 57.5468 59.3105 57.5405L59.1879 57.1303ZM59.8319 56.8548L60.03 57.2343L60.03 57.2343L59.8319 56.8548ZM61.1161 55.9873L61.3888 56.3173L61.3888 56.3173L61.1161 55.9873ZM64.5741 51.3907L64.1918 51.1979L64.1916 51.1984L64.5741 51.3907ZM79.4863 39.6551L79.6475 40.0517L79.6487 40.0512L79.4863 39.6551ZM80.5682 39.2843L80.4486 38.8732L80.4486 38.8732L80.5682 39.2843ZM82.5562 38.8866L82.599 39.3126L82.599 39.3126L82.5562 38.8866ZM86.5446 40.1787L86.8864 39.9209L86.8864 39.9209L86.5446 40.1787ZM86.7428 40.4415L86.401 40.6993C86.4761 40.7989 86.5911 40.8608 86.7156 40.8687C86.8402 40.8767 86.962 40.8298 87.0492 40.7405L86.7428 40.4415ZM97.5199 33.7885L97.8189 33.4821L97.5199 33.7885ZM108.16 44.1723L107.861 44.4788L108.16 44.1723ZM100.7 56.202L100.393 55.903C100.286 56.0132 100.246 56.1726 100.288 56.3206C100.331 56.4685 100.45 56.5822 100.599 56.6182L100.7 56.202ZM101.184 56.3186L101.284 55.9024L101.284 55.9024L101.184 56.3186ZM102.443 56.8649L102.688 56.5134L102.686 56.5122L102.443 56.8649ZM103.692 58.9267L103.269 58.9873L103.269 58.9873L103.692 58.9267ZM101.43 62.7835L101.202 62.4211L101.201 62.4219L101.43 62.7835ZM99.2983 63.6552L99.1911 63.2407L99.1911 63.2407L99.2983 63.6552ZM99.0283 63.725L98.9211 63.3105C98.8106 63.3391 98.716 63.4107 98.6585 63.5093C98.601 63.6079 98.5852 63.7255 98.6147 63.8358L99.0283 63.725ZM99.1009 63.9961L98.6873 64.1068L98.6873 64.1068L99.1009 63.9961ZM99.218 65.4767L99.644 65.5187L99.6442 65.5172L99.218 65.4767ZM96.9235 68.5306L97.021 68.9475L97.021 68.9475L96.9235 68.5306ZM96.6555 68.5933L96.5579 68.1764C96.3285 68.2301 96.1855 68.4592 96.2382 68.6889L96.6555 68.5933ZM96.7173 68.863L97.1346 68.7674L97.1346 68.7674L96.7173 68.863ZM96.8061 70.2395L97.2321 70.2814L97.2322 70.2806L96.8061 70.2395ZM93.7594 73.3496L93.8011 72.9235C93.795 72.9229 93.7889 72.9225 93.7827 72.9221L93.7594 73.3496ZM92.9946 73.3078L93.018 72.8803L93.0177 72.8803L92.9946 73.3078ZM92.6168 73.2874L92.6399 72.8599C92.5036 72.8525 92.372 72.9105 92.2856 73.0161C92.1991 73.1217 92.1681 73.2621 92.2022 73.3943L92.6168 73.2874ZM92.7114 73.6546L93.126 73.5477L93.126 73.5477L92.7114 73.6546ZM92.8454 74.9247L92.4177 74.9054L92.4177 74.906L92.8454 74.9247ZM91.7062 77.5451L91.9923 77.8636L91.9936 77.8625L91.7062 77.5451ZM89.9237 78.1902L89.9509 77.7629L89.9504 77.7629L89.9237 78.1902ZM85.0682 77.8867L85.0404 78.3139L85.0415 78.314L85.0682 77.8867ZM83.7184 77.3511L83.9836 77.015C83.9409 76.9813 83.8922 76.9561 83.8401 76.9406L83.7184 77.3511ZM83.5163 77.2912L83.638 76.8807C83.5855 76.8651 83.5305 76.8598 83.4759 76.865L83.5163 77.2912ZM62.753 75.324L62.5684 75.7102L62.5684 75.7102L62.753 75.324ZM62.5642 75.2337L62.7489 74.8474C62.578 74.7657 62.3737 74.806 62.2466 74.9466L62.5642 75.2337ZM81.4805 69.5944L81.9055 69.6459L81.9057 69.6449L81.4805 69.5944ZM82.0248 67.9241L81.6553 67.7079L81.6534 67.7111L82.0248 67.9241ZM82.1616 72.416L81.822 72.6767L81.822 72.6767L82.1616 72.416ZM82.372 72.6901L82.1899 73.0776C82.3686 73.1616 82.5817 73.1124 82.7055 72.9586C82.8294 72.8047 82.8319 72.5861 82.7116 72.4294L82.372 72.6901ZM72.8004 58.2356L72.494 57.9366L72.494 57.9366L72.8004 58.2356ZM85.2534 45.4763L84.9663 45.1587C84.9596 45.1647 84.9532 45.1709 84.947 45.1773L85.2534 45.4763ZM86.0956 44.6111L85.7892 44.312C85.7834 44.318 85.7778 44.3241 85.7723 44.3304L86.0956 44.6111ZM94.1779 36.3295L93.8715 36.0304L93.8715 36.0304L94.1779 36.3295ZM96.3575 36.3029L96.0585 36.6093L96.3575 36.3029ZM106.07 45.7811L106.369 45.4747L106.07 45.7811ZM93.2034 61.1727L92.8969 60.8737C92.8882 60.8826 92.8799 60.8919 92.872 60.9016L93.2034 61.1727ZM93.0715 61.3398L93.4089 61.6034L93.4089 61.6034L93.0715 61.3398ZM93.0421 61.3774L92.9921 61.8026C93.1406 61.8201 93.2875 61.7589 93.3795 61.641L93.0421 61.3774ZM92.8899 61.3595L92.8398 61.7847L92.8398 61.7847L92.8899 61.3595ZM92.1851 61.2765L92.135 61.7017L92.135 61.7017L92.1851 61.2765ZM89.0948 64.3663L88.6687 64.3241L88.6687 64.3247L89.0948 64.3663ZM89.2296 65.9129L88.8175 66.0293L88.8175 66.0293L89.2296 65.9129ZM89.3344 66.2839L89.3104 66.7114C89.4485 66.7191 89.5819 66.6597 89.6684 66.5517C89.755 66.4437 89.784 66.3006 89.7464 66.1675L89.3344 66.2839ZM88.9505 66.2623L88.9264 66.6898L88.9265 66.6898L88.9505 66.2623ZM84.7037 66.0232L84.662 66.4493C84.6678 66.4499 84.6737 66.4504 84.6796 66.4507L84.7037 66.0232ZM84.1008 66.0489L84.0538 65.6234C84.0151 65.6276 83.9771 65.6372 83.9409 65.6517L84.1008 66.0489ZM82.1358 67.7344L81.7673 67.5165L81.7663 67.5182L82.1358 67.7344ZM96.484 66.2842L96.4315 66.7091C96.4873 66.716 96.544 66.7118 96.5982 66.6968L96.484 66.2842ZM96.5891 66.2551L96.7032 66.6678L96.7032 66.6678L96.5891 66.2551ZM91.6746 65.6895L91.4566 66.0581C91.5073 66.088 91.5636 66.1072 91.622 66.1144L91.6746 65.6895ZM91.6231 65.6591L91.3931 66.0202C91.397 66.0227 91.4011 66.0252 91.4051 66.0276L91.6231 65.6591ZM91.6074 65.6491L91.3683 66.0045L91.3774 66.0102L91.6074 65.6491ZM91.6032 65.6463L91.3479 65.99C91.3532 65.994 91.3587 65.9978 91.3642 66.0015L91.6032 65.6463ZM91.5791 65.6284L91.3061 65.9582C91.3119 65.963 91.3178 65.9676 91.3237 65.972L91.5791 65.6284ZM91.1901 64.3057L91.6161 64.349L91.6162 64.3475L91.1901 64.3057ZM91.8658 63.0835L91.7639 62.6676L91.7638 62.6676L91.8658 63.0835ZM91.9648 63.0592L92.0192 62.6345C91.967 62.6279 91.914 62.6308 91.8629 62.6434L91.9648 63.0592ZM96.8423 63.6833L97.1414 63.3769C97.0748 63.3119 96.9889 63.2704 96.8967 63.2586L96.8423 63.6833ZM97.2569 65.0355L97.683 65.0773L97.6831 65.0761L97.2569 65.0355ZM84.1928 70.6759L83.8938 70.9823C83.9666 71.0534 84.0623 71.0962 84.1638 71.1031L84.1928 70.6759ZM84.1387 70.6232L83.8397 70.9296L84.1387 70.6232ZM94.0893 71.3477L94.1322 70.9215L94.1183 70.9206L94.0893 71.3477ZM94.153 71.3542L94.1101 71.7801C94.1348 71.7826 94.1597 71.783 94.1844 71.7811L94.153 71.3542ZM94.2509 71.347L94.2823 71.774C94.3081 71.7721 94.3336 71.7678 94.3587 71.7613L94.2509 71.347ZM94.9151 70.1201L94.4886 70.0828L94.4885 70.0842L94.9151 70.1201ZM94.6971 69.0026L94.2805 69.1012C94.2907 69.1443 94.3075 69.1856 94.3304 69.2235L94.6971 69.0026ZM94.6573 68.8343L94.2305 68.8012C94.227 68.8453 94.2305 68.8897 94.2407 68.9328L94.6573 68.8343ZM94.6655 68.7282L95.0924 68.7613C95.1012 68.6474 95.0642 68.5346 94.9894 68.4482C94.9147 68.3617 94.8085 68.3087 94.6944 68.301L94.6655 68.7282ZM84.5482 68.0437L84.5052 68.4699L84.5193 68.4709L84.5482 68.0437ZM84.4845 68.0373L84.5275 67.6113C84.5028 67.6088 84.4779 67.6085 84.4532 67.6103L84.4845 68.0373ZM84.3867 68.0445L84.3553 67.6175C84.3295 67.6194 84.304 67.6236 84.2789 67.6301L84.3867 68.0445ZM83.7227 69.2686L83.2963 69.2305L83.2962 69.2313L83.7227 69.2686ZM84.083 70.5734L83.7819 70.8778C83.7867 70.8825 83.7915 70.8871 83.7965 70.8916L84.083 70.5734ZM84.111 70.5986L83.8245 70.9168L83.8274 70.9194L84.111 70.5986ZM84.1387 70.6231L84.4377 70.3167C84.4327 70.3118 84.4275 70.307 84.4223 70.3024L84.1387 70.6231ZM99.0002 58.4991L99.0072 58.071L99.0072 58.071L99.0002 58.4991ZM98.8874 58.4973L98.8944 58.0692C98.7766 58.0673 98.6633 58.114 98.581 58.1983L98.8874 58.4973ZM99.1562 58.4871L99.0704 58.0676L99.0626 58.0693L99.1562 58.4871ZM101.606 58.7208L101.359 59.0704L101.36 59.0712L101.606 58.7208ZM101.967 59.3306L101.544 59.4006L101.545 59.4014L101.967 59.3306ZM100.692 61.0932L100.468 60.7288L100.468 60.7289L100.692 61.0932ZM97.8639 61.8992L97.9137 62.3244L97.9137 62.3244L97.8639 61.8992ZM97.7956 61.9072L97.6445 62.3077C97.7085 62.3319 97.7775 62.3404 97.8455 62.3324L97.7956 61.9072ZM97.7287 61.8819L97.5775 62.2825L97.5775 62.2825L97.7287 61.8819ZM97.234 61.75L97.2934 61.326L97.2912 61.3257L97.234 61.75ZM95.8899 61.5689L95.5835 61.2699C95.4704 61.3857 95.4324 61.5554 95.4851 61.7084C95.5378 61.8614 95.6723 61.9716 95.8327 61.9932L95.8899 61.5689ZM62.089 72.6571L62.5012 72.5412L62.5012 72.5412L62.089 72.6571ZM60.5148 67.0617L60.927 66.9458L60.927 66.9457L60.5148 67.0617ZM62.1159 72.7525L61.7037 72.8685C61.7309 72.9649 61.7909 73.0487 61.8735 73.1054L62.1159 72.7525ZM62.1973 72.8084L61.9549 73.1613L61.9549 73.1613L62.1973 72.8084ZM82.1102 75.3357L82.1463 75.7623L82.1463 75.7623L82.1102 75.3357ZM82.397 75.3114L82.433 75.738C82.5476 75.7284 82.6535 75.673 82.7268 75.5844C82.8001 75.4959 82.8347 75.3815 82.8228 75.2672L82.397 75.3114ZM82.3588 74.944L82.7846 74.8997L82.7845 74.8987L82.3588 74.944ZM82.3405 74.7191L81.9126 74.7346L81.9126 74.7346L82.3405 74.7191ZM82.3292 74.4081L82.7571 74.3926C82.7526 74.2698 82.6956 74.1548 82.6006 74.0769C82.5055 73.9991 82.3815 73.9658 82.2602 73.9856L82.3292 74.4081ZM82.0214 74.4584L82.0904 74.881L82.0904 74.881L82.0214 74.4584ZM76.622 51.0752L76.9285 51.3742C76.9722 51.3294 77.0056 51.2755 77.0263 51.2163L76.622 51.0752ZM76.7357 50.8178L77.0957 51.0495L77.0982 51.0457L76.7357 50.8178ZM79.2101 46.8813L78.8508 46.6483L78.8476 46.6534L79.2101 46.8813ZM79.6097 46.5174L79.8036 46.8991L79.8056 46.898L79.6097 46.5174ZM83.4859 44.0388L83.7661 44.3626C83.7751 44.3547 83.7839 44.3465 83.7923 44.3379L83.4859 44.0388ZM84.4496 43.0518L84.7559 43.3509C84.7667 43.3398 84.7769 43.3281 84.7865 43.3159L84.4496 43.0518ZM85.0476 41.8116L85.4745 41.8439L85.4745 41.8439L85.0476 41.8116ZM85.056 41.6998L85.483 41.732C85.4914 41.6209 85.4561 41.5109 85.3847 41.4254L85.056 41.6998ZM84.9847 41.6143L85.3134 41.34L85.3134 41.34L84.9847 41.6143ZM80.4486 41.8069L80.2868 41.4105L80.2854 41.4111L80.4486 41.8069ZM66.5825 52.617L66.9641 52.8111L66.9641 52.811L66.5825 52.617ZM62.1396 58.2375L61.8844 57.8937L61.8844 57.8937L62.1396 58.2375ZM60.5001 59.2041L60.3296 58.8114L60.3296 58.8114L60.5001 59.2041ZM59.6576 59.4846L59.7187 59.9084C59.7277 59.9071 59.7366 59.9055 59.7454 59.9036L59.6576 59.4846ZM58.7505 59.6155L58.6894 59.1918L58.6892 59.1918L58.7505 59.6155ZM58.4319 59.6617L58.3705 59.2379C58.2485 59.2556 58.1401 59.325 58.0729 59.4283C58.0057 59.5317 57.9863 59.659 58.0197 59.7777L58.4319 59.6617ZM90.5158 76.0231L90.4799 76.4497C90.5335 76.4543 90.5874 76.4486 90.639 76.4332L90.5158 76.0231ZM90.6133 75.9939L90.7364 76.4039L90.7364 76.4039L90.6133 75.9939ZM85.72 75.6189L85.5269 76.001C85.5759 76.0258 85.6293 76.0409 85.684 76.0455L85.72 75.6189ZM85.6682 75.5927L85.4628 75.9686L85.4751 75.9748L85.6682 75.5927ZM85.649 75.5821L85.4343 75.9526L85.4347 75.9528L85.649 75.5821ZM85.6428 75.5784L85.409 75.9371C85.4139 75.9403 85.4189 75.9434 85.424 75.9464L85.6428 75.5784ZM85.6311 75.5707L85.3914 75.9255L85.3916 75.9256L85.6311 75.5707ZM85.6073 75.5545L85.3547 75.9005L85.366 75.9082L85.6073 75.5545ZM85.135 74.2565L85.5629 74.2682L85.5629 74.2677L85.135 74.2565ZM85.6066 73.0591L85.7425 73.465L85.7425 73.465L85.6066 73.0591ZM85.7092 73.0247L85.7423 72.5978C85.6851 72.5934 85.6277 72.6005 85.5733 72.6187L85.7092 73.0247ZM90.6537 73.4071L91.0741 73.4884C91.0973 73.3686 91.0682 73.2446 90.9942 73.1476C90.9203 73.0505 90.8084 72.9897 90.6868 72.9803L90.6537 73.4071ZM90.6497 73.428L90.2294 73.3467C90.1937 73.5309 90.2822 73.7169 90.4477 73.8055L90.6497 73.428ZM90.6776 73.4434L90.9104 73.0841C90.9052 73.0807 90.9 73.0775 90.8946 73.0743L90.6776 73.4434ZM90.7136 73.4675L90.9657 73.1215C90.9618 73.1187 90.9579 73.1159 90.954 73.1133L90.7136 73.4675ZM91.1882 74.7668L90.7602 74.7545L90.7601 74.756L91.1882 74.7668ZM61.9568 76.1224C62.2605 76.0574 62.536 75.9033 62.743 75.6743L62.1078 75.1001C62.0271 75.1893 61.914 75.2559 61.7778 75.285L61.9568 76.1224ZM33.2343 86.3286L62.0106 76.1071L61.724 75.3002L32.9477 85.5217L33.2343 86.3286ZM31.5495 84.1548L32.7222 86.1427L33.4597 85.7077L32.287 83.7197L31.5495 84.1548ZM60.0657 73.35L31.7733 83.5344L32.0633 84.3401L60.3557 74.1557L60.0657 73.35ZM56.1707 60.9242L59.7984 73.8684L60.6229 73.6373L56.9952 60.6931L56.1707 60.9242ZM55.5651 58.7673L56.1708 60.9244L56.9952 60.6929L56.3895 58.5358L55.5651 58.7673ZM55.3883 58.1399L55.5652 58.7677L56.3893 58.5354L56.2124 57.9077L55.3883 58.1399ZM55.3297 57.9322L55.3883 58.1399L56.2124 57.9076L56.1539 57.7L55.3297 57.9322ZM23.9504 60.5069L55.7722 58.2432L55.7114 57.389L23.8896 59.6528L23.9504 60.5069ZM22.908 58.4692L23.5155 60.2202L24.3245 59.9395L23.717 58.1885L22.908 58.4692ZM56.4295 55.3692L23.2799 57.9019L23.3451 58.7557L56.4948 56.223L56.4295 55.3692ZM57.9336 56.4599C57.7445 55.804 57.1316 55.3454 56.4479 55.3682L56.4764 56.224C56.7575 56.2146 57.0274 56.4076 57.1108 56.6971L57.9336 56.4599ZM58.0821 56.9752L57.9336 56.4599L57.1108 56.6971L57.2593 57.2123L58.0821 56.9752ZM58.1501 57.211L58.0821 56.9752L57.2593 57.2123L57.3273 57.4481L58.1501 57.211ZM59.1296 56.7061L57.6803 56.9054L57.797 57.7537L59.2462 57.5544L59.1296 56.7061ZM59.6338 56.4753C59.3983 56.5982 59.2013 56.6794 59.0653 56.7201L59.3105 57.5405C59.5155 57.4792 59.7648 57.3728 60.03 57.2343L59.6338 56.4753ZM60.8434 55.6573C60.4273 56.0011 60.0207 56.2733 59.6338 56.4753L60.03 57.2343C60.4775 57.0008 60.9335 56.6936 61.3888 56.3173L60.8434 55.6573ZM64.1916 51.1984C63.2041 53.1622 62.0703 54.6434 60.8434 55.6573L61.3888 56.3173C62.7296 55.2093 63.9307 53.6234 64.9566 51.583L64.1916 51.1984ZM79.325 39.2584C76.0086 40.6067 72.7839 42.494 70.1135 44.5857C67.4492 46.6726 65.3073 48.9859 64.1918 51.1979L64.9564 51.5835C65.9926 49.5286 68.0274 47.3074 70.6415 45.2598C73.2496 43.2169 76.4052 41.3698 79.6475 40.0517L79.325 39.2584ZM80.4486 38.8732C80.03 38.995 79.6344 39.1316 79.3238 39.2589L79.6487 40.0512C79.926 39.9375 80.2922 39.8105 80.6878 39.6954L80.4486 38.8732ZM82.5134 38.4606C81.8466 38.5275 81.1512 38.6688 80.4486 38.8732L80.6878 39.6954C81.3475 39.5034 81.9913 39.3736 82.599 39.3126L82.5134 38.4606ZM86.8864 39.9209C85.9595 38.6921 84.4151 38.2696 82.5134 38.4606L82.599 39.3126C84.35 39.1367 85.5299 39.5445 86.2028 40.4365L86.8864 39.9209ZM87.0846 40.1837L86.8864 39.9209L86.2028 40.4365L86.401 40.6993L87.0846 40.1837ZM92.919 33.4995L86.4364 40.1424L87.0492 40.7405L93.5318 34.0976L92.919 33.4995ZM97.8189 33.4821C96.4467 32.143 94.2478 32.1379 92.919 33.4995L93.5318 34.0976C94.519 33.086 96.1754 33.0746 97.2208 34.0949L97.8189 33.4821ZM108.46 43.8659L97.8189 33.4821L97.2208 34.0949L107.861 44.4788L108.46 43.8659ZM108.559 48.7617C109.888 47.3998 109.831 45.2047 108.46 43.8659L107.861 44.4788C108.906 45.4979 108.934 47.151 107.946 48.1637L108.559 48.7617ZM101.006 56.501L108.559 48.7617L107.946 48.1637L100.393 55.903L101.006 56.501ZM101.284 55.9024L100.8 55.7858L100.599 56.6182L101.084 56.7349L101.284 55.9024ZM102.686 56.5122C102.274 56.2285 101.802 56.0271 101.284 55.9024L101.084 56.7348C101.512 56.8381 101.885 57.0003 102.2 57.2176L102.686 56.5122ZM104.116 58.866C103.976 57.8835 103.485 57.0683 102.688 56.5134L102.199 57.2163C102.793 57.6299 103.16 58.2303 103.269 58.9873L104.116 58.866ZM101.658 63.1459C103.233 62.1551 104.347 60.4791 104.116 58.866L103.269 58.9873C103.433 60.1354 102.622 61.5277 101.202 62.4211L101.658 63.1459ZM99.4055 64.0697C100.29 63.841 101.037 63.5389 101.659 63.1452L101.201 62.4219C100.673 62.7558 100.014 63.0279 99.1911 63.2407L99.4055 64.0697ZM99.1355 64.1395L99.4055 64.0697L99.1911 63.2407L98.9211 63.3105L99.1355 64.1395ZM99.5144 63.8853L99.4419 63.6143L98.6147 63.8358L98.6873 64.1068L99.5144 63.8853ZM99.6442 65.5172C99.6972 64.9598 99.654 64.4067 99.5144 63.8853L98.6873 64.1068C98.7992 64.5247 98.8356 64.9751 98.7917 65.4361L99.6442 65.5172ZM97.021 68.9475C98.469 68.6087 99.4798 67.1828 99.644 65.5187L98.7919 65.4346C98.6527 66.8452 97.8191 67.8813 96.8259 68.1137L97.021 68.9475ZM96.753 69.0102L97.021 68.9475L96.8259 68.1137L96.5579 68.1764L96.753 69.0102ZM97.1346 68.7674L97.0728 68.4977L96.2382 68.6889L96.3 68.9586L97.1346 68.7674ZM97.2322 70.2806C97.2813 69.7731 97.248 69.2622 97.1346 68.7674L96.3 68.9586C96.3928 69.3639 96.4201 69.7824 96.3799 70.1983L97.2322 70.2806ZM93.7176 73.7757C95.5627 73.9565 97.032 72.3168 97.2321 70.2814L96.38 70.1976C96.208 71.9466 95.0106 73.0421 93.8011 72.9235L93.7176 73.7757ZM92.9712 73.7353L93.736 73.7771L93.7827 72.9221L93.018 72.8803L92.9712 73.7353ZM92.5937 73.7149L92.9715 73.7353L93.0177 72.8803L92.6399 72.8599L92.5937 73.7149ZM93.126 73.5477L93.0314 73.1805L92.2022 73.3943L92.2968 73.7614L93.126 73.5477ZM93.2731 74.944C93.2943 74.4755 93.2443 74.0067 93.126 73.5477L92.2968 73.7614C92.3944 74.14 92.4349 74.5237 92.4177 74.9054L93.2731 74.944ZM91.9936 77.8625C92.7693 77.1601 93.223 76.0868 93.2731 74.9434L92.4177 74.906C92.3759 75.8587 91.9988 76.7027 91.4189 77.2277L91.9936 77.8625ZM89.8966 78.6175C90.6616 78.6662 91.4044 78.3916 91.9923 77.8636L91.4202 77.2265C90.9909 77.6121 90.4701 77.796 89.9509 77.7629L89.8966 78.6175ZM85.0415 78.314L89.897 78.6175L89.9504 77.7629L85.0949 77.4594L85.0415 78.314ZM83.4532 77.6872C83.9223 78.0574 84.4639 78.2764 85.0404 78.3139L85.096 77.4595C84.7061 77.4341 84.3276 77.2865 83.9836 77.015L83.4532 77.6872ZM83.3946 77.7017L83.5967 77.7616L83.8401 76.9406L83.638 76.8807L83.3946 77.7017ZM62.5684 75.7102C67.2922 77.9687 74.6113 78.565 83.5567 77.7174L83.4759 76.865C74.5709 77.7087 67.4454 77.0928 62.9377 74.9377L62.5684 75.7102ZM62.3795 75.6199L62.5684 75.7102L62.9377 74.9377L62.7489 74.8474L62.3795 75.6199ZM62.743 75.6743L62.8818 75.5208L62.2466 74.9466L62.1078 75.1001L62.743 75.6743ZM81.9057 69.6449C81.9707 69.0973 82.1384 68.5867 82.3962 68.1371L81.6534 67.7111C81.3358 68.2648 81.1334 68.8867 81.0553 69.544L81.9057 69.6449ZM82.5012 72.1553C82.0178 71.5254 81.7883 70.6153 81.9055 69.6459L81.0555 69.543C80.916 70.6961 81.18 71.8403 81.822 72.6767L82.5012 72.1553ZM82.7116 72.4294L82.5012 72.1553L81.822 72.6767L82.0324 72.9508L82.7116 72.4294ZM81.2192 72.4487C81.4046 72.6296 81.6573 72.7884 81.8408 72.8937C81.9368 72.9487 82.0228 72.994 82.0849 73.0257C82.116 73.0416 82.1414 73.0542 82.1595 73.063C82.1685 73.0674 82.1757 73.0708 82.1808 73.0733C82.1834 73.0745 82.1854 73.0755 82.1869 73.0762C82.1877 73.0766 82.1883 73.0769 82.1888 73.0771C82.1891 73.0772 82.1893 73.0773 82.1895 73.0774C82.1895 73.0774 82.1896 73.0775 82.1897 73.0775C82.1897 73.0775 82.1898 73.0775 82.1898 73.0776C82.1898 73.0776 82.1899 73.0776 82.372 72.6901C82.5541 72.3026 82.5541 72.3027 82.5542 72.3027C82.5542 72.3027 82.5542 72.3027 82.5542 72.3027C82.5543 72.3027 82.5543 72.3027 82.5543 72.3027C82.5544 72.3028 82.5544 72.3028 82.5543 72.3028C82.5543 72.3027 82.5541 72.3026 82.5538 72.3025C82.5532 72.3022 82.552 72.3016 82.5504 72.3009C82.5471 72.2993 82.5419 72.2968 82.5349 72.2934C82.521 72.2866 82.5001 72.2762 82.4738 72.2629C82.4211 72.236 82.348 72.1974 82.2668 72.1508C82.0959 72.0529 81.9217 71.9378 81.8173 71.8359L81.2192 72.4487ZM70.477 61.9656L81.2192 72.4487L81.8173 71.8359L71.075 61.3528L70.477 61.9656ZM70.4819 59.9985C69.9468 60.5468 69.9257 61.4276 70.477 61.9656L71.075 61.3528C70.8845 61.1669 70.8677 60.8292 71.0947 60.5966L70.4819 59.9985ZM72.494 57.9366L70.4819 59.9985L71.0947 60.5966L73.1068 58.5347L72.494 57.9366ZM84.947 45.1773L72.494 57.9366L73.1068 58.5347L85.5598 45.7753L84.947 45.1773ZM85.7723 44.3304C85.4994 44.6447 85.2369 44.914 84.9663 45.1587L85.5405 45.7939C85.8396 45.5235 86.126 45.2291 86.4189 44.8918L85.7723 44.3304ZM93.8715 36.0304L85.7892 44.312L86.402 44.9101L94.4844 36.6285L93.8715 36.0304ZM96.6565 35.9965C95.8781 35.2368 94.6312 35.252 93.8715 36.0304L94.4844 36.6285C94.9137 36.1885 95.6185 36.1799 96.0585 36.6093L96.6565 35.9965ZM106.369 45.4747L96.6565 35.9965L96.0585 36.6093L105.771 46.0875L106.369 45.4747ZM106.403 48.2597C107.163 47.4812 107.147 46.2343 106.369 45.4747L105.771 46.0875C106.211 46.5169 106.22 47.2216 105.79 47.6616L106.403 48.2597ZM93.5098 61.4717L106.403 48.2597L105.79 47.6616L92.8969 60.8737L93.5098 61.4717ZM93.4089 61.6034C93.4928 61.496 93.5101 61.4739 93.5347 61.4438L92.872 60.9016C92.8397 60.9411 92.8153 60.9723 92.7341 61.0763L93.4089 61.6034ZM93.3795 61.641L93.4089 61.6034L92.7341 61.0763L92.7047 61.1139L93.3795 61.641ZM92.8398 61.7847L92.9921 61.8026L93.0922 60.9522L92.9399 60.9343L92.8398 61.7847ZM92.135 61.7017L92.8398 61.7847L92.94 60.9343L92.2351 60.8513L92.135 61.7017ZM89.5208 64.4086C89.6956 62.6467 90.9076 61.5571 92.135 61.7017L92.2352 60.8513C90.3646 60.6309 88.8723 62.2722 88.6687 64.3241L89.5208 64.4086ZM89.6416 65.7965C89.5165 65.354 89.4747 64.8812 89.5209 64.4079L88.6687 64.3247C88.6123 64.9019 88.6629 65.482 88.8175 66.0293L89.6416 65.7965ZM89.7464 66.1675L89.6416 65.7965L88.8175 66.0293L88.9224 66.4003L89.7464 66.1675ZM88.9265 66.6898L89.3104 66.7114L89.3584 65.8564L88.9745 65.8349L88.9265 66.6898ZM84.6796 66.4507L88.9264 66.6898L88.9745 65.8349L84.7277 65.5958L84.6796 66.4507ZM84.1477 66.4745C84.4138 66.4451 84.5778 66.4411 84.662 66.4493L84.7453 65.5971C84.5679 65.5798 84.33 65.5929 84.0538 65.6234L84.1477 66.4745ZM82.5044 67.9522C82.9189 67.251 83.5003 66.752 84.2606 66.4461L83.9409 65.6517C83.0067 66.0276 82.2781 66.6523 81.7673 67.5165L82.5044 67.9522ZM82.3944 68.1403L82.5054 67.9506L81.7663 67.5182L81.6553 67.7079L82.3944 68.1403ZM96.5982 66.6968L96.7032 66.6678L96.475 65.8425L96.3699 65.8715L96.5982 66.6968ZM91.622 66.1144L96.4315 66.7091L96.5366 65.8593L91.7271 65.2646L91.622 66.1144ZM91.4051 66.0276L91.4566 66.0581L91.8925 65.321L91.841 65.2906L91.4051 66.0276ZM91.3774 66.0102L91.3931 66.0202L91.853 65.298L91.8374 65.288L91.3774 66.0102ZM91.3642 66.0015L91.3684 66.0043L91.8464 65.2939L91.8422 65.2911L91.3642 66.0015ZM91.3237 65.972L91.3479 65.99L91.8585 65.3026L91.8344 65.2847L91.3237 65.972ZM91.2342 65.8938C91.2623 65.9212 91.2778 65.9347 91.3061 65.9582L91.852 65.2985C91.8471 65.2944 91.8442 65.292 91.8422 65.2904C91.8405 65.2889 91.84 65.2885 91.8402 65.2886C91.8407 65.2891 91.8399 65.2884 91.8323 65.281L91.2342 65.8938ZM90.7642 64.2624C90.7031 64.8637 90.8525 65.5213 91.2342 65.8938L91.8323 65.281C91.7059 65.1576 91.5699 64.8038 91.6161 64.349L90.7642 64.2624ZM91.7638 62.6676C91.4406 62.7469 91.2094 63.0296 91.0681 63.2783C90.9129 63.5515 90.8 63.8972 90.764 64.2639L91.6162 64.3475C91.6409 64.0959 91.7188 63.8665 91.8126 63.7012C91.9205 63.5114 91.9967 63.4922 91.9677 63.4993L91.7638 62.6676ZM91.8629 62.6434L91.7639 62.6676L91.9677 63.4993L92.0667 63.475L91.8629 62.6434ZM96.8967 63.2586L92.0192 62.6345L91.9105 63.4839L96.788 64.108L96.8967 63.2586ZM97.2099 63.4438L97.1414 63.3769L96.5433 63.9897L96.6119 64.0566L97.2099 63.4438ZM97.6831 65.0761C97.7406 64.4715 97.5912 63.8159 97.2099 63.4438L96.6119 64.0566C96.738 64.1797 96.8747 64.5324 96.8307 64.9949L97.6831 65.0761ZM96.7032 66.6678C97.0173 66.5809 97.2432 66.3009 97.3828 66.0529C97.5356 65.7811 97.6475 65.4389 97.683 65.0773L96.8308 64.9937C96.8067 65.2395 96.7299 65.4669 96.6365 65.633C96.5297 65.8229 96.4515 65.8489 96.475 65.8425L96.7032 66.6678ZM84.4918 70.3695L84.4378 70.3168L83.8397 70.9296L83.8938 70.9823L84.4918 70.3695ZM94.1183 70.9206L84.2218 70.2488L84.1638 71.1031L94.0603 71.7749L94.1183 70.9206ZM94.196 70.9282L94.1322 70.9218L94.0463 71.7737L94.1101 71.7801L94.196 70.9282ZM94.2195 70.92L94.1217 70.9272L94.1844 71.7811L94.2823 71.774L94.2195 70.92ZM94.4885 70.0842C94.4675 70.3336 94.3925 70.5621 94.3003 70.7275C94.1949 70.9166 94.1177 70.9392 94.1431 70.9326L94.3587 71.7613C94.6795 71.6779 94.9084 71.3953 95.0483 71.1443C95.2014 70.8695 95.3108 70.523 95.3417 70.156L94.4885 70.0842ZM94.3304 69.2235C94.4454 69.4144 94.5193 69.7316 94.4886 70.0828L95.3416 70.1573C95.3844 69.6674 95.2918 69.16 95.0639 68.7816L94.3304 69.2235ZM94.2407 68.9328L94.2805 69.1012L95.1138 68.904L95.074 68.7357L94.2407 68.9328ZM94.2387 68.6951L94.2305 68.8012L95.0842 68.8674L95.0924 68.7613L94.2387 68.6951ZM84.5193 68.4709L94.6367 69.1553L94.6944 68.301L84.5771 67.6166L84.5193 68.4709ZM84.4416 68.4633L84.5052 68.4697L84.5911 67.6177L84.5275 67.6113L84.4416 68.4633ZM84.4181 68.4715L84.5159 68.4643L84.4532 67.6103L84.3553 67.6175L84.4181 68.4715ZM84.1492 69.3066C84.1715 69.057 84.2471 68.8284 84.3394 68.6629C84.4452 68.4733 84.5217 68.4518 84.4944 68.4589L84.2789 67.6301C83.9588 67.7134 83.7308 67.9962 83.5916 68.2457C83.4389 68.5195 83.3289 68.8648 83.2963 69.2305L84.1492 69.3066ZM84.384 70.269C84.2479 70.1344 84.1087 69.7703 84.1493 69.3058L83.2962 69.2313C83.2429 69.8421 83.3998 70.5 83.7819 70.8778L84.384 70.269ZM84.3975 70.2805L84.3695 70.2552L83.7965 70.8916L83.8245 70.9168L84.3975 70.2805ZM84.4223 70.3024L84.3946 70.2779L83.8274 70.9194L83.8551 70.9439L84.4223 70.3024ZM84.4378 70.3168L84.4377 70.3167L83.8397 70.9295L83.8397 70.9296L84.4378 70.3168ZM99.0072 58.071L98.8944 58.0692L98.8804 58.9254L98.9933 58.9272L99.0072 58.071ZM99.0626 58.0693C99.0647 58.0689 99.0552 58.0718 99.0072 58.071L98.9932 58.9272C99.0718 58.9285 99.1574 58.9256 99.2497 58.9049L99.0626 58.0693ZM101.853 58.3712C101.529 58.1418 101.077 58.0211 100.612 57.9763C100.137 57.9304 99.6005 57.9593 99.0704 58.0677L99.2419 58.9066C99.6943 58.8141 100.145 58.7915 100.53 58.8286C100.925 58.8667 101.207 58.9634 101.359 59.0704L101.853 58.3712ZM102.389 59.2605C102.326 58.8804 102.161 58.5874 101.852 58.3704L101.36 59.0712C101.456 59.1387 101.514 59.2153 101.544 59.4006L102.389 59.2605ZM100.917 61.4576C101.35 61.1906 101.729 60.8253 101.994 60.4565C102.126 60.2717 102.237 60.0767 102.309 59.8833C102.379 59.6952 102.425 59.4766 102.389 59.2598L101.545 59.4014C101.547 59.4143 101.549 59.4718 101.507 59.5835C101.467 59.6898 101.398 59.8181 101.298 59.9575C101.097 60.2371 100.801 60.5233 100.468 60.7288L100.917 61.4576ZM97.9137 62.3244C99.1951 62.1742 100.209 61.895 100.917 61.4575L100.468 60.7289C99.915 61.0702 99.0461 61.3295 97.814 61.4739L97.9137 62.3244ZM97.8455 62.3324L97.9137 62.3244L97.814 61.4739L97.7458 61.4819L97.8455 62.3324ZM97.5775 62.2825L97.6445 62.3077L97.9468 61.5066L97.8799 61.4814L97.5775 62.2825ZM97.1746 62.174C97.292 62.1905 97.427 62.2257 97.5775 62.2825L97.8799 61.4814C97.6824 61.4068 97.4854 61.3529 97.2934 61.326L97.1746 62.174ZM95.8327 61.9932L97.1768 62.1743L97.2912 61.3257L95.9471 61.1446L95.8327 61.9932ZM98.581 58.1983L95.5835 61.2699L96.1963 61.8679L99.1938 58.7963L98.581 58.1983ZM62.5012 72.5412L60.927 66.9458L60.1027 67.1777L61.6769 72.7731L62.5012 72.5412ZM62.528 72.6366L62.5012 72.5412L61.6769 72.7731L61.7037 72.8685L62.528 72.6366ZM62.4397 72.4555L62.3583 72.3996L61.8735 73.1054L61.9549 73.1613L62.4397 72.4555ZM82.0741 74.9091C77.4707 75.2983 73.4435 75.2967 70.1191 74.8877C66.7882 74.478 64.1985 73.6635 62.4397 72.4555L61.9549 73.1613C63.875 74.4801 66.6198 75.32 70.0146 75.7376C73.4159 76.156 77.5058 76.1547 82.1463 75.7623L82.0741 74.9091ZM82.3609 74.8848L82.0741 74.9091L82.1463 75.7623L82.433 75.738L82.3609 74.8848ZM81.9329 74.9882L81.9711 75.3557L82.8228 75.2672L82.7846 74.8997L81.9329 74.9882ZM81.9126 74.7346C81.9154 74.8107 81.9214 74.8797 81.933 74.9893L82.7845 74.8987C82.7735 74.7954 82.77 74.7497 82.7684 74.7036L81.9126 74.7346ZM81.9014 74.4236L81.9126 74.7346L82.7684 74.7036L82.7571 74.3926L81.9014 74.4236ZM82.0904 74.881L82.3982 74.8307L82.2602 73.9856L81.9524 74.0359L82.0904 74.881ZM79.1063 73.9429C79.8965 74.714 81.0044 75.0583 82.0904 74.881L81.9524 74.0359C81.1323 74.1698 80.2982 73.9096 79.7044 73.3301L79.1063 73.9429ZM68.5765 63.6672L79.1063 73.9429L79.7044 73.3301L69.1746 63.0544L68.5765 63.6672ZM68.5012 58.7838C67.1727 60.1452 67.2107 62.3343 68.5765 63.6672L69.1746 63.0544C68.1429 62.0476 68.12 60.4005 69.114 59.3819L68.5012 58.7838ZM76.3156 50.7762L68.5012 58.7838L69.114 59.3819L76.9285 51.3742L76.3156 50.7762ZM76.3756 50.5861C76.313 50.6835 76.2694 50.7865 76.2178 50.9341L77.0263 51.2163C77.0703 51.0901 77.0877 51.062 77.0957 51.0495L76.3756 50.5861ZM78.8476 46.6534L76.3732 50.59L77.0982 51.0457L79.5725 47.1091L78.8476 46.6534ZM79.4158 46.1356C79.1852 46.2527 78.9907 46.4326 78.8508 46.6483L79.5693 47.1142C79.6314 47.0185 79.7144 46.9444 79.8036 46.8991L79.4158 46.1356ZM83.2058 43.715C82.3377 44.4659 81.076 45.2812 79.4138 46.1367L79.8056 46.898C81.5006 46.0257 82.8274 45.1746 83.7661 44.3626L83.2058 43.715ZM84.1432 42.7527L83.1796 43.7397L83.7923 44.3379L84.7559 43.3509L84.1432 42.7527ZM84.6207 41.7794C84.6049 41.9887 84.4685 42.3336 84.1126 42.7876L84.7865 43.3159C85.1857 42.8067 85.4401 42.2996 85.4745 41.8439L84.6207 41.7794ZM84.6291 41.6675L84.6207 41.7794L85.4745 41.8439L85.483 41.732L84.6291 41.6675ZM84.6561 41.8887L84.7274 41.9741L85.3847 41.4254L85.3134 41.34L84.6561 41.8887ZM80.6103 42.2033C81.5616 41.8152 82.4993 41.6036 83.2546 41.5701C83.6325 41.5534 83.9505 41.5819 84.1957 41.6461C84.4445 41.7112 84.5853 41.8039 84.6561 41.8887L85.3134 41.34C85.0883 41.0703 84.761 40.909 84.4125 40.8178C84.0604 40.7256 83.6518 40.6954 83.2167 40.7147C82.3459 40.7533 81.3114 40.9925 80.2868 41.4105L80.6103 42.2033ZM66.9641 52.811C67.8863 50.9973 69.7749 48.9685 72.2171 47.0708C74.6519 45.1788 77.6035 43.443 80.6118 42.2027L80.2854 41.4111C77.2045 42.6813 74.1862 44.4563 71.6917 46.3947C69.2048 48.3272 67.2049 50.4481 66.2008 52.4229L66.9641 52.811ZM62.3948 58.5813C64.13 57.2931 65.667 55.3608 66.9641 52.8111L66.2009 52.4228C64.9462 54.8892 63.486 56.7047 61.8844 57.8937L62.3948 58.5813ZM60.6707 59.5968C61.2386 59.3501 61.8173 59.01 62.3948 58.5813L61.8844 57.8937C61.3518 58.2891 60.8295 58.5943 60.3296 58.8114L60.6707 59.5968ZM59.7454 59.9036C60.0377 59.8424 60.3365 59.7419 60.6707 59.5968L60.3296 58.8114C60.0339 58.9398 59.7915 59.0191 59.5697 59.0656L59.7454 59.9036ZM58.8117 60.0393L59.7187 59.9084L59.5964 59.0609L58.6894 59.1918L58.8117 60.0393ZM58.4932 60.0854L58.8119 60.0393L58.6892 59.1918L58.3705 59.2379L58.4932 60.0854ZM60.927 66.9457L58.844 59.5457L58.0197 59.7777L60.1027 67.1777L60.927 66.9457ZM90.639 76.4332L90.7364 76.4039L90.4902 75.5838L90.3927 75.6131L90.639 76.4332ZM85.684 76.0455L90.4799 76.4497L90.5518 75.5965L85.7559 75.1923L85.684 76.0455ZM85.4751 75.9748L85.5269 76.001L85.9131 75.2368L85.8613 75.2106L85.4751 75.9748ZM85.4347 75.9528C85.444 75.9582 85.4535 75.9633 85.4629 75.9684L85.8735 75.217C85.8673 75.2136 85.8643 75.212 85.8624 75.2109C85.8609 75.2101 85.8617 75.2106 85.8632 75.2114L85.4347 75.9528ZM85.424 75.9464C85.4261 75.9477 85.4301 75.9501 85.4343 75.9526L85.8636 75.2116C85.8643 75.212 85.8647 75.2123 85.8616 75.2104L85.424 75.9464ZM85.3916 75.9256C85.3993 75.9308 85.4038 75.9337 85.409 75.9371L85.8765 75.2197C85.8739 75.2181 85.8733 75.2176 85.8727 75.2173C85.8725 75.2171 85.872 75.2168 85.8706 75.2158L85.3916 75.9256ZM85.366 75.9082C85.3784 75.9166 85.386 75.9218 85.3914 75.9255L85.8707 75.2159C85.8673 75.2136 85.8616 75.2098 85.8485 75.2008L85.366 75.9082ZM85.2411 75.8028C85.2771 75.838 85.3172 75.8728 85.3548 75.9003L85.8597 75.2087C85.8621 75.2105 85.8606 75.2095 85.8556 75.2051C85.8509 75.2011 85.8452 75.1959 85.8391 75.19L85.2411 75.8028ZM84.707 74.2447C84.6909 74.8294 84.8714 75.4421 85.2411 75.8028L85.8391 75.19C85.6951 75.0495 85.551 74.703 85.5629 74.2682L84.707 74.2447ZM85.4707 72.6531C85.1642 72.7557 84.9853 73.0403 84.8862 73.2844C84.7779 73.5507 84.7165 73.8822 84.707 74.2453L85.5629 74.2677C85.5705 73.9806 85.619 73.7555 85.6795 73.6067C85.7489 73.4357 85.7974 73.4467 85.7425 73.465L85.4707 72.6531ZM85.5733 72.6187L85.4707 72.6531L85.7425 73.465L85.8452 73.4307L85.5733 72.6187ZM90.6868 72.9803L85.7423 72.5978L85.6762 73.4516L90.6207 73.834L90.6868 72.9803ZM91.0701 73.5093L91.0741 73.4884L90.2334 73.3258L90.2294 73.3467L91.0701 73.5093ZM90.8946 73.0743C90.8904 73.0719 90.8836 73.0678 90.8744 73.0628C90.8679 73.0592 90.8599 73.0549 90.8517 73.0505L90.4477 73.8055C90.4526 73.8081 90.4558 73.8098 90.4581 73.8111C90.4605 73.8124 90.461 73.8126 90.4607 73.8125C90.46 73.8121 90.459 73.8115 90.4581 73.811C90.4579 73.8109 90.458 73.811 90.4606 73.8125L90.8946 73.0743ZM90.954 73.1133C90.9413 73.1047 90.9334 73.0992 90.9276 73.0954C90.9201 73.0904 90.9154 73.0873 90.9104 73.0841L90.4449 73.8027C90.4491 73.8055 90.4491 73.8055 90.4506 73.8065C90.4539 73.8087 90.4592 73.8123 90.4731 73.8218L90.954 73.1133ZM91.0802 73.2195C91.0439 73.1842 91.0035 73.1491 90.9657 73.1215L90.4615 73.8136C90.4597 73.8123 90.4594 73.812 90.4604 73.8128C90.4613 73.8135 90.463 73.8149 90.4653 73.8168C90.4699 73.8209 90.4758 73.8262 90.4821 73.8324L91.0802 73.2195ZM91.6161 74.7791C91.6329 74.1963 91.4497 73.5802 91.0802 73.2195L90.4821 73.8324C90.6272 73.9739 90.7726 74.3247 90.7602 74.7545L91.6161 74.7791ZM90.7364 76.4039C91.0538 76.3086 91.2639 76.014 91.3855 75.763C91.5198 75.4858 91.607 75.1399 91.6162 74.7776L90.7601 74.756C90.754 75.0007 90.6941 75.2263 90.6149 75.3898C90.523 75.5795 90.4534 75.5949 90.4902 75.5838L90.7364 76.4039Z" fill="#132C45"/>
    <path fill-rule="evenodd" clip-rule="evenodd" d="M99.0663 51.5271L96.3671 48.8978L98.9928 46.1815L101.692 48.8107L99.0663 51.5271ZM97.9465 48.8724L99.0448 49.9422L100.113 48.8369L99.0148 47.7672L97.9465 48.8724ZM91.0498 43.7099L93.749 46.3393L96.3747 43.6228L93.6754 40.9934L91.0498 43.7099ZM93.728 44.7536L92.6297 43.6838L93.698 42.5786L94.7962 43.6483L93.728 44.7536ZM89.4802 52.5525L93.8888 56.8534L94.6687 56.0485L91.0617 52.5296L94.5715 48.9078L90.163 44.6069L89.383 45.4118L92.99 48.9306L89.4802 52.5525ZM94.9397 54.166L95.7408 54.9473L98.1804 52.4303L95.4791 49.7957L93.0395 52.3127L93.8407 53.094L95.5003 51.3817L96.5994 52.4536L94.9397 54.166ZM85.8739 49.0343L88.5731 51.6636L91.1986 48.947L88.4994 46.3177L85.8739 49.0343ZM88.5508 50.078L87.4525 49.0082L88.5208 47.903L89.619 48.9728L88.5508 50.078ZM98.0862 45.2937L97.2866 44.5141L94.6554 47.2258L95.4551 48.0053L98.0862 45.2937Z" fill="#132C45"/>
    <path d="M183.409 52.608L178.89 69.8273L172.796 72.2173L152.928 73.1214L144.902 74.1628L143.292 70.6906L143.734 68.6892L139.91 68.3609L139.037 63.9216L137.592 62.4547L136.037 59.6509L136.598 58.0147L132.846 56.4114L130.927 53.4838L133.316 51.1306L145.544 41.6136L151.276 31.751L156.624 31.4211L163.999 35.4772L171.296 41.537L175.62 47.2739L178.269 49.9633L183.409 52.608Z" fill="white"/>
    <path d="M139.874 24.392C139.417 23.9275 138.669 23.9219 138.205 24.3795L124.697 37.6863C124.233 38.1439 124.227 38.8914 124.685 39.3559L141.29 56.212C141.29 56.212 144.165 56.2507 144.897 56.9944C145.63 57.738 145.505 60.4906 145.505 60.4906C145.505 60.4906 145.8 61.882 146.403 62.0754C147.005 62.2688 149.654 61.8231 149.654 61.8231L153.659 62.2134L154.314 64.7706L153.813 68.9241L156.16 69.5489L168.237 58.1191L169.343 54.3058L139.874 24.392Z" fill="#50E3C2"/>
    <path fill-rule="evenodd" clip-rule="evenodd" d="M177.551 71.7425C177.717 71.9246 177.941 72.0503 178.194 72.1032L203.322 79.4789L204.659 77.1883L180.087 69.8526L184.185 54.9597L184.869 52.4778L185.069 51.7555L185.135 51.5166L211.275 55.0256L211.964 53.0103L184.297 49.1994C183.742 49.1836 183.237 49.5603 183.083 50.1042L182.915 50.697L182.838 50.9683L181.172 50.7472C180.976 50.6896 180.719 50.583 180.43 50.4342C179.95 50.1862 179.453 49.8557 178.95 49.4444C177.469 48.2323 176.12 46.4765 174.952 44.1815C172.456 39.2904 165.304 33.806 157.754 30.7778C157.415 30.6409 156.977 30.4915 156.509 30.3576C155.725 30.1336 154.955 29.9815 154.222 29.9114C152.123 29.7105 150.56 30.1949 149.646 31.4177L149.42 31.7207L141.935 24.123C140.598 22.7658 138.383 22.7727 137.001 24.1347L124.831 36.1238C123.449 37.485 123.411 39.6961 124.749 41.0541L133.469 49.9058L132.913 50.0424C132.37 50.1759 131.886 50.3871 131.469 50.6769C130.672 51.2371 130.183 52.0527 130.045 53.0527C129.825 54.6401 130.939 56.3977 132.666 57.4721C133.327 57.8871 134.137 58.2131 135.119 58.4621L135.43 58.5409L135.348 58.8527C135.206 59.393 135.163 59.9698 135.221 60.5546C135.404 62.3202 136.47 63.7297 137.874 64.0512L138.183 64.1218L138.113 64.4321C137.997 64.9497 137.965 65.4838 138.019 66.0141C138.243 68.1874 139.782 69.7515 141.536 69.5713L142.415 69.5191L142.849 69.4936L142.742 69.916C142.62 70.3978 142.571 70.8878 142.595 71.3761C142.653 72.5801 143.136 73.6793 143.918 74.3808C144.505 74.9029 145.232 75.1629 145.97 75.1125L151.547 74.7374C152.102 74.6986 152.63 74.4855 153.095 74.1146L153.327 74.0447C163.587 74.9679 171.883 74.2324 177.174 71.6717L177.391 71.5669L177.551 71.7425ZM154.99 63.2732C155.323 63.848 155.539 64.4977 155.625 65.1895C155.778 66.4082 155.5 67.5898 154.857 68.4352L154.617 68.7514C154.617 68.7514 155.264 68.4438 155.595 68.1173L167.881 56.0136C168.306 55.5957 168.3 54.8957 167.86 54.4491L165.537 52.0908L151.159 37.4975C150.83 37.2031 150.513 36.8807 150.186 36.5079L140.854 27.0359C140.168 26.3392 139.047 26.3308 138.35 27.0172L127.241 37.9606C126.545 38.647 126.536 39.7683 127.223 40.4651L142.109 55.5763C142.142 55.6162 142.166 55.6468 142.262 55.7684L142.263 55.769L142.295 55.8106L142.47 55.7892L143.28 55.69C145.058 55.4719 146.62 57.0335 146.847 59.2235C146.909 59.8268 146.859 60.432 146.701 61.0013L146.582 61.4282L147.023 61.4013L151.902 61.1036C152.052 61.0882 152.283 61.0969 152.595 61.1298C153.57 61.5169 154.326 62.1589 154.861 63.0558L154.99 63.2732ZM138.246 61.4346L138.367 61.4674L143.89 60.758L143.949 60.7228L143.965 60.7125L143.972 60.708L143.977 60.7045L144 60.6872C144.024 60.6671 144.031 60.6605 144.052 60.6399C144.343 60.3536 144.504 59.7718 144.439 59.1653C144.366 58.4552 143.995 57.8459 143.656 57.7646L143.542 57.7373L137.941 58.4808L137.863 58.5581C137.573 58.844 137.411 59.424 137.472 60.0368C137.544 60.7344 137.912 61.3438 138.246 61.4346ZM152.576 66.386L152.514 66.4469L141.146 67.2725L141.073 67.2803L140.961 67.2725C140.621 67.1859 140.254 66.5744 140.191 65.8664C140.146 65.3834 140.24 64.9092 140.435 64.5812L140.48 64.3876L140.47 64.2657L152.092 63.4244L152.165 63.4167L152.277 63.4244C152.614 63.5103 152.98 64.1206 153.047 64.8273C153.104 65.4448 152.936 66.0327 152.64 66.3285L152.607 66.3582L152.576 66.386ZM135.563 52.5328L135.434 52.5355C135.361 52.537 135.306 52.5339 135.254 52.5226C134.124 52.297 132.986 52.4152 132.441 52.8044C132.209 52.9689 132.082 53.1819 132.029 53.507C131.944 54.0353 132.621 54.9866 133.503 55.5254C134.23 55.9694 135.313 56.2736 136.758 56.4361L136.836 56.4449L136.913 56.4155C137.113 56.3392 137.303 56.2871 137.481 56.2613L139.024 56.0459L135.563 52.5328ZM179.701 62.1655L177.923 68.6033L177.892 68.713L177.799 68.7777C173.586 71.7009 165.558 72.6375 154.932 71.7896L154.603 71.7633L154.645 71.3409C154.657 71.2185 154.662 71.1526 154.664 71.0824L154.676 70.725L155.03 70.7811C156.126 70.9548 157.24 70.6022 158.031 69.8226L170.074 57.9583C171.446 56.6076 171.47 54.4035 170.129 53.0425L161.107 43.8838C161.051 43.7268 161.016 43.6516 160.975 43.5887L158.11 39.0789C157.993 38.9005 157.833 38.7553 157.649 38.6629C155.716 37.6794 154.224 36.729 153.182 35.8359L152.069 34.7071C151.633 34.1558 151.406 33.6673 151.375 33.2854L151.365 33.1569L151.447 33.0583C152.123 32.2404 154.385 32.3394 156.66 33.255C163.67 36.1067 170.417 41.2582 172.651 45.6009C174.131 48.4758 175.863 50.6208 177.786 52.035C178.426 52.5054 179.061 52.8731 179.676 53.1367C180.038 53.2921 180.349 53.3939 180.645 53.4545L181.688 53.6L182.054 53.6512L179.701 62.1655ZM145.166 72.5921L145.278 72.6252L150.786 72.1347L150.846 72.1044C150.86 72.0964 150.864 72.0942 150.869 72.0915C150.871 72.0905 150.872 72.0894 150.875 72.0878C150.877 72.0861 150.879 72.0849 150.881 72.0836C150.887 72.0798 150.893 72.0759 150.916 72.0601C150.936 72.0453 150.964 72.0212 150.992 71.993C151.286 71.7037 151.47 71.1517 151.451 70.5661C151.428 69.8191 151.192 69.2882 150.903 69.1928L150.785 69.1539L145.105 69.6201L145.11 69.6441C145.088 69.656 145.088 69.656 145.078 69.6619C145.067 69.6689 145.067 69.6689 145.037 69.6898C145.017 69.7046 144.989 69.7287 144.96 69.7573C144.665 70.0473 144.479 70.6036 144.499 71.1853C144.52 71.8828 144.843 72.4969 145.166 72.5921Z" fill="#132C45"/>
    <path d="M178.194 72.1032L178.294 71.6216C178.307 71.6243 178.32 71.6275 178.332 71.6311L178.194 72.1032ZM177.551 71.7425L177.188 72.0741L177.188 72.0741L177.551 71.7425ZM203.322 79.4789L203.747 79.7268C203.633 79.9222 203.4 80.0146 203.183 79.9509L203.322 79.4789ZM204.659 77.1883L204.799 76.7169C204.944 76.7601 205.061 76.8672 205.116 77.0076C205.172 77.1479 205.16 77.3059 205.084 77.4363L204.659 77.1883ZM180.087 69.8526L179.946 70.324C179.69 70.2475 179.542 69.9801 179.613 69.7221L180.087 69.8526ZM184.185 54.9597L183.711 54.8291L183.711 54.8289L184.185 54.9597ZM184.869 52.4778L184.395 52.3471L184.395 52.3466L184.869 52.4778ZM185.069 51.7555L185.543 51.8867L185.543 51.8867L185.069 51.7555ZM185.135 51.5166L184.661 51.3854C184.727 51.1485 184.957 50.9963 185.201 51.029L185.135 51.5166ZM211.275 55.0256L211.741 55.1847C211.665 55.4068 211.442 55.5444 211.21 55.5132L211.275 55.0256ZM211.964 53.0103L212.031 52.523C212.176 52.5431 212.305 52.6271 212.383 52.7522C212.46 52.8773 212.477 53.0303 212.429 53.1694L211.964 53.0103ZM184.297 49.1994L184.311 48.7077C184.328 48.7082 184.346 48.7096 184.364 48.7121L184.297 49.1994ZM183.083 50.1042L182.61 49.9702L182.61 49.9701L183.083 50.1042ZM182.915 50.697L182.442 50.563L182.442 50.563L182.915 50.697ZM182.838 50.9683L183.312 51.1023C183.245 51.3375 183.016 51.4882 182.774 51.456L182.838 50.9683ZM181.172 50.7472L181.107 51.2349C181.082 51.2316 181.057 51.2263 181.033 51.2192L181.172 50.7472ZM180.43 50.4342L180.205 50.8714L180.205 50.8714L180.43 50.4342ZM178.95 49.4444L178.639 49.8251L178.639 49.8251L178.95 49.4444ZM174.952 44.1815L175.39 43.9579L175.39 43.9584L174.952 44.1815ZM157.754 30.7778L157.571 31.2344L157.569 31.2338L157.754 30.7778ZM156.509 30.3576L156.644 29.8846L156.644 29.8846L156.509 30.3576ZM154.222 29.9114L154.175 30.4011L154.175 30.4011L154.222 29.9114ZM149.646 31.4177L150.04 31.7121L150.04 31.7121L149.646 31.4177ZM149.42 31.7207L149.814 32.0151C149.728 32.13 149.597 32.2018 149.454 32.2116C149.31 32.2213 149.17 32.1682 149.07 32.066L149.42 31.7207ZM141.935 24.123L142.286 23.7777L141.935 24.123ZM133.469 49.9058L133.819 49.5605C133.943 49.6866 133.99 49.8696 133.942 50.0398C133.894 50.21 133.758 50.3413 133.586 50.3835L133.469 49.9058ZM132.913 50.0424L132.795 49.5647L132.795 49.5647L132.913 50.0424ZM131.469 50.6769L131.186 50.2744L131.188 50.2729L131.469 50.6769ZM130.045 53.0527L130.532 53.1201L130.532 53.1201L130.045 53.0527ZM132.666 57.4721L132.925 57.0545L132.927 57.0553L132.666 57.4721ZM135.119 58.4621L135.24 57.9853L135.24 57.9853L135.119 58.4621ZM135.43 58.5409L135.551 58.064C135.678 58.0963 135.787 58.178 135.854 58.291C135.92 58.404 135.939 58.539 135.906 58.6659L135.43 58.5409ZM135.348 58.8527L135.824 58.9777L135.824 58.9777L135.348 58.8527ZM135.221 60.5546L134.732 60.6052L134.732 60.6035L135.221 60.5546ZM137.874 64.0512L137.765 64.5308L137.765 64.5308L137.874 64.0512ZM138.183 64.1218L138.293 63.6423C138.557 63.7028 138.722 63.9652 138.663 64.2294L138.183 64.1218ZM138.113 64.4321L138.593 64.5397L138.593 64.5397L138.113 64.4321ZM138.019 66.0141L137.529 66.0646L137.529 66.0637L138.019 66.0141ZM141.536 69.5713L141.486 69.0819C141.493 69.0812 141.5 69.0806 141.507 69.0802L141.536 69.5713ZM142.415 69.5191L142.386 69.028L142.386 69.0279L142.415 69.5191ZM142.849 69.4936L142.82 69.0025C142.976 68.9933 143.128 69.0592 143.228 69.18C143.328 69.3009 143.364 69.4621 143.326 69.6141L142.849 69.4936ZM142.742 69.916L142.265 69.7954L142.265 69.7954L142.742 69.916ZM142.595 71.3761L143.086 71.3516L143.086 71.3523L142.595 71.3761ZM143.918 74.3808L143.591 74.7484L143.59 74.7471L143.918 74.3808ZM145.97 75.1125L145.936 74.6217L145.937 74.6216L145.97 75.1125ZM151.547 74.7374L151.581 75.2281L151.58 75.2282L151.547 74.7374ZM153.095 74.1146L152.789 73.7299C152.838 73.691 152.893 73.6617 152.953 73.6436L153.095 74.1146ZM153.327 74.0447L153.185 73.5737C153.245 73.5555 153.309 73.5491 153.371 73.5547L153.327 74.0447ZM177.174 71.6717L177.388 72.1145L177.388 72.1145L177.174 71.6717ZM177.391 71.5669L177.176 71.1241C177.372 71.0292 177.607 71.0745 177.754 71.2353L177.391 71.5669ZM155.625 65.1895L155.136 65.2509L155.136 65.2498L155.625 65.1895ZM154.99 63.2732L155.414 63.0228L155.416 63.0265L154.99 63.2732ZM154.857 68.4352L155.249 68.7329L155.249 68.7329L154.857 68.4352ZM154.617 68.7514L154.828 69.1956C154.623 69.2931 154.378 69.2378 154.235 69.0616C154.092 68.8855 154.088 68.6344 154.225 68.4537L154.617 68.7514ZM165.537 52.0908L165.887 51.7456L165.887 51.7456L165.537 52.0908ZM151.159 37.4975L151.487 37.131C151.494 37.1378 151.502 37.1449 151.509 37.1522L151.159 37.4975ZM150.186 36.5079L150.537 36.1626C150.543 36.1694 150.55 36.1764 150.556 36.1836L150.186 36.5079ZM140.854 27.0359L140.504 27.3812L140.504 27.3812L140.854 27.0359ZM138.35 27.0172L138.695 27.3677L138.35 27.0172ZM127.241 37.9606L126.896 37.6101L127.241 37.9606ZM127.223 40.4651L127.573 40.1199L127.223 40.4651ZM142.109 55.5763L142.459 55.231C142.47 55.2412 142.479 55.2519 142.488 55.263L142.109 55.5763ZM142.262 55.7684L141.876 56.0739L141.876 56.0731L142.262 55.7684ZM142.263 55.769L142.648 55.4635L142.649 55.4644L142.263 55.769ZM142.295 55.8106L142.355 56.2989C142.185 56.3198 142.015 56.2502 141.909 56.1153L142.295 55.8106ZM142.47 55.7892L142.41 55.3009L142.41 55.3009L142.47 55.7892ZM143.28 55.69L143.339 56.1783L143.339 56.1783L143.28 55.69ZM146.847 59.2235L147.337 59.1727L147.337 59.1735L146.847 59.2235ZM146.701 61.0013L146.227 60.8698L146.227 60.8698L146.701 61.0013ZM146.582 61.4282L146.612 61.9192C146.453 61.9289 146.3 61.8613 146.2 61.7377C146.1 61.6141 146.066 61.4498 146.108 61.2967L146.582 61.4282ZM147.023 61.4013L147.053 61.8924L147.053 61.8924L147.023 61.4013ZM151.902 61.1036L151.952 61.5929C151.945 61.5936 151.938 61.5942 151.932 61.5946L151.902 61.1036ZM152.595 61.1298L152.646 60.6406C152.691 60.6453 152.734 60.656 152.776 60.6726L152.595 61.1298ZM154.861 63.0558L155.284 62.8035L155.285 62.8054L154.861 63.0558ZM138.367 61.4674L138.43 61.9553C138.366 61.9635 138.301 61.9591 138.238 61.9421L138.367 61.4674ZM138.246 61.4346L138.117 61.9093L138.117 61.9093L138.246 61.4346ZM143.89 60.758L144.143 61.1803C144.085 61.215 144.02 61.2374 143.953 61.246L143.89 60.758ZM143.949 60.7228L144.215 61.1369C144.21 61.1397 144.206 61.1424 144.202 61.145L143.949 60.7228ZM143.965 60.7125L144.241 61.1204L144.231 61.1267L143.965 60.7125ZM143.972 60.708L144.263 61.1044C144.258 61.1083 144.253 61.1121 144.247 61.1157L143.972 60.708ZM143.977 60.7045L144.273 61.0975L144.268 61.101L143.977 60.7045ZM144 60.6872L144.315 61.0648C144.309 61.0701 144.302 61.0752 144.296 61.0801L144 60.6872ZM144.439 59.1653L143.95 59.2174L143.95 59.2157L144.439 59.1653ZM143.656 57.7646L143.542 58.243L143.542 58.243L143.656 57.7646ZM143.542 57.7373L143.478 57.2496C143.538 57.2417 143.599 57.2448 143.657 57.2589L143.542 57.7373ZM137.941 58.4808L137.596 58.1304C137.672 58.0554 137.771 58.0072 137.877 57.9932L137.941 58.4808ZM137.472 60.0368L136.983 60.0871L136.983 60.0857L137.472 60.0368ZM152.514 66.4469L152.859 66.7974C152.776 66.8794 152.666 66.9291 152.55 66.9376L152.514 66.4469ZM152.576 66.386L152.231 66.0356C152.237 66.0299 152.242 66.0244 152.248 66.019L152.576 66.386ZM141.146 67.2725L141.095 66.7833C141.1 66.7827 141.106 66.7823 141.111 66.7819L141.146 67.2725ZM141.073 67.2803L141.125 67.7695C141.097 67.7725 141.068 67.773 141.039 67.7711L141.073 67.2803ZM140.961 67.2725L140.927 67.7633C140.897 67.7613 140.868 67.7566 140.839 67.7492L140.961 67.2725ZM140.191 65.8664L140.681 65.8213L140.681 65.8229L140.191 65.8664ZM140.435 64.5812L140.915 64.6922C140.903 64.7418 140.884 64.7893 140.858 64.8331L140.435 64.5812ZM140.48 64.3876L140.97 64.3472C140.975 64.3979 140.971 64.449 140.959 64.4986L140.48 64.3876ZM140.47 64.2657L139.98 64.3061C139.969 64.1752 140.011 64.0455 140.096 63.9457C140.182 63.846 140.304 63.7845 140.435 63.7751L140.47 64.2657ZM152.092 63.4244L152.143 63.9136C152.138 63.9142 152.132 63.9147 152.127 63.915L152.092 63.4244ZM152.165 63.4167L152.113 62.9274C152.141 62.9244 152.17 62.9239 152.198 62.9259L152.165 63.4167ZM152.277 63.4244L152.311 62.9336C152.34 62.9356 152.37 62.9404 152.399 62.9477L152.277 63.4244ZM153.047 64.8273L153.536 64.7812L153.537 64.7822L153.047 64.8273ZM152.64 66.3285L152.987 66.6767C152.982 66.6821 152.976 66.6874 152.971 66.6925L152.64 66.3285ZM152.607 66.3582L152.938 66.7222L152.935 66.7252L152.607 66.3582ZM135.434 52.5355L135.444 53.0274L135.444 53.0274L135.434 52.5355ZM135.563 52.5328L135.553 52.0409C135.688 52.0381 135.819 52.0911 135.914 52.1875L135.563 52.5328ZM135.254 52.5226L135.351 52.0401L135.36 52.042L135.254 52.5226ZM132.441 52.8044L132.727 53.2047L132.725 53.2056L132.441 52.8044ZM132.029 53.507L132.515 53.5852L132.515 53.586L132.029 53.507ZM133.503 55.5254L133.76 55.1055L133.76 55.1056L133.503 55.5254ZM136.758 56.4361L136.703 56.925L136.703 56.925L136.758 56.4361ZM136.836 56.4449L137.012 56.9044C136.939 56.9325 136.86 56.9426 136.781 56.9338L136.836 56.4449ZM136.913 56.4155L137.089 56.875L137.089 56.875L136.913 56.4155ZM137.481 56.2613L137.41 55.7744L137.413 55.7741L137.481 56.2613ZM139.024 56.0459L139.375 55.7007C139.505 55.8332 139.55 56.0279 139.49 56.204C139.43 56.3801 139.276 56.5075 139.092 56.5332L139.024 56.0459ZM177.923 68.6033L177.449 68.4723L177.449 68.4723L177.923 68.6033ZM179.701 62.1655L179.227 62.0345L179.227 62.0344L179.701 62.1655ZM177.892 68.713L178.367 68.844C178.336 68.9549 178.267 69.0516 178.173 69.1172L177.892 68.713ZM177.799 68.7777L177.519 68.3735L177.519 68.3735L177.799 68.7777ZM154.932 71.7896L154.893 72.28L154.893 72.28L154.932 71.7896ZM154.603 71.7633L154.564 72.2537C154.432 72.2432 154.31 72.1801 154.225 72.0788C154.141 71.9774 154.1 71.8462 154.113 71.7148L154.603 71.7633ZM154.645 71.3409L154.155 71.2923L154.155 71.2912L154.645 71.3409ZM154.664 71.0824L154.173 71.0669L154.173 71.0669L154.664 71.0824ZM154.676 70.725L154.184 70.7095C154.188 70.5684 154.253 70.4359 154.362 70.3459C154.471 70.2559 154.613 70.217 154.753 70.2391L154.676 70.725ZM155.03 70.7811L154.953 71.267L154.953 71.267L155.03 70.7811ZM158.031 69.8226L158.376 70.173L158.031 69.8226ZM170.074 57.9583L169.729 57.6079L170.074 57.9583ZM170.129 53.0425L170.48 52.6972L170.129 53.0425ZM161.107 43.8838L160.756 44.2291C160.706 44.1778 160.667 44.116 160.643 44.0482L161.107 43.8838ZM160.975 43.5887L160.562 43.8568L160.56 43.8524L160.975 43.5887ZM158.11 39.0789L158.522 38.8092L158.526 38.8151L158.11 39.0789ZM157.649 38.6629L157.429 39.1026L157.426 39.1014L157.649 38.6629ZM153.182 35.8359L152.862 36.2095C152.851 36.2005 152.841 36.1911 152.831 36.1813L153.182 35.8359ZM152.069 34.7071L151.719 35.0524C151.706 35.0397 151.695 35.0264 151.684 35.0124L152.069 34.7071ZM151.375 33.2854L151.866 33.246L151.866 33.246L151.375 33.2854ZM151.365 33.1569L150.875 33.1963C150.864 33.0686 150.904 32.9421 150.986 32.8434L151.365 33.1569ZM151.447 33.0583L151.067 32.7449L151.067 32.7449L151.447 33.0583ZM156.66 33.255L156.843 32.7986L156.845 32.7993L156.66 33.255ZM172.651 45.6009L172.214 45.826L172.214 45.8259L172.651 45.6009ZM177.786 52.035L177.495 52.4313L177.495 52.4313L177.786 52.035ZM179.676 53.1367L179.482 53.5888L179.482 53.5888L179.676 53.1367ZM180.645 53.4545L180.577 53.9417C180.567 53.9403 180.557 53.9385 180.547 53.9364L180.645 53.4545ZM181.688 53.6L181.756 53.1127L181.756 53.1128L181.688 53.6ZM182.054 53.6512L182.123 53.164C182.263 53.1837 182.388 53.2628 182.466 53.3812C182.543 53.4996 182.566 53.6458 182.529 53.7823L182.054 53.6512ZM145.278 72.6252L145.322 73.1152C145.26 73.1207 145.198 73.1146 145.139 73.0971L145.278 72.6252ZM145.166 72.5921L145.027 73.064L145.027 73.064L145.166 72.5921ZM150.786 72.1347L151.01 72.5728C150.954 72.6015 150.893 72.6191 150.83 72.6247L150.786 72.1347ZM150.846 72.1044L151.084 72.535C151.079 72.5375 151.074 72.54 151.07 72.5424L150.846 72.1044ZM150.869 72.0915L151.119 72.5151L151.119 72.5153L150.869 72.0915ZM150.875 72.0878L151.145 72.4987C151.14 72.5024 151.134 72.506 151.128 72.5094L150.875 72.0878ZM150.881 72.0836L150.609 71.6742L150.609 71.674L150.881 72.0836ZM150.916 72.0601L151.207 72.4561C151.203 72.4592 151.199 72.4623 151.195 72.4653L150.916 72.0601ZM151.451 70.5661L150.96 70.5819L150.959 70.5813L151.451 70.5661ZM150.903 69.1928L150.749 69.66L150.749 69.66L150.903 69.1928ZM150.785 69.1539L150.744 68.6636C150.81 68.6582 150.876 68.666 150.939 68.6866L150.785 69.1539ZM145.105 69.6201L144.623 69.7157C144.596 69.5782 144.628 69.4356 144.713 69.3237C144.797 69.2118 144.925 69.1413 145.065 69.1298L145.105 69.6201ZM145.11 69.6441L145.593 69.5485C145.635 69.76 145.534 69.9741 145.344 70.0767L145.11 69.6441ZM145.078 69.6619L144.808 69.2505C144.815 69.2465 144.821 69.2427 144.827 69.239L145.078 69.6619ZM145.037 69.6898L144.745 69.2936C144.75 69.2903 144.754 69.2872 144.759 69.2841L145.037 69.6898ZM144.499 71.1853L144.99 71.1688L144.99 71.1706L144.499 71.1853ZM178.093 72.5847C177.744 72.5118 177.427 72.3362 177.188 72.0741L177.914 71.4109C178.008 71.513 178.138 71.5889 178.294 71.6216L178.093 72.5847ZM203.183 79.9509L178.055 72.5752L178.332 71.6311L203.461 79.0068L203.183 79.9509ZM205.084 77.4363L203.747 79.7268L202.897 79.2309L204.234 76.9404L205.084 77.4363ZM180.228 69.3812L204.799 76.7169L204.518 77.6597L179.946 70.324L180.228 69.3812ZM184.659 55.0902L180.561 69.9831L179.613 69.7221L183.711 54.8291L184.659 55.0902ZM185.344 52.6086L184.659 55.0904L183.711 54.8289L184.395 52.3471L185.344 52.6086ZM185.543 51.8867L185.343 52.609L184.395 52.3466L184.595 51.6243L185.543 51.8867ZM185.609 51.6478L185.543 51.8867L184.595 51.6243L184.661 51.3854L185.609 51.6478ZM211.21 55.5132L185.07 52.0042L185.201 51.029L211.341 54.538L211.21 55.5132ZM212.429 53.1694L211.741 55.1847L210.81 54.8665L211.498 52.8513L212.429 53.1694ZM184.364 48.7121L212.031 52.523L211.897 53.4977L184.23 49.6868L184.364 48.7121ZM182.61 49.9701C182.823 49.2155 183.525 48.6852 184.311 48.7077L184.283 49.6912C183.96 49.6819 183.651 49.9052 183.556 50.2382L182.61 49.9701ZM182.442 50.563L182.61 49.9702L183.556 50.2382L183.388 50.831L182.442 50.563ZM182.365 50.8343L182.442 50.563L183.388 50.831L183.312 51.1023L182.365 50.8343ZM181.237 50.2595L182.903 50.4807L182.774 51.456L181.107 51.2349L181.237 50.2595ZM180.656 49.997C180.927 50.137 181.154 50.2292 181.311 50.2752L181.033 51.2192C180.797 51.1499 180.51 51.029 180.205 50.8714L180.656 49.997ZM179.262 49.0637C179.742 49.4565 180.21 49.767 180.656 49.997L180.205 50.8714C179.689 50.6054 179.164 50.2549 178.639 49.8251L179.262 49.0637ZM175.39 43.9584C176.536 46.2096 177.847 47.9053 179.262 49.0637L178.639 49.8251C177.092 48.5592 175.703 46.7435 174.513 44.4045L175.39 43.9584ZM157.937 30.3212C161.755 31.8524 165.47 34.0035 168.55 36.3924C171.623 38.7758 174.096 41.4223 175.39 43.9579L174.514 44.4051C173.312 42.0496 170.962 39.5084 167.947 37.1698C164.939 34.8366 161.303 32.7314 157.571 31.2344L157.937 30.3212ZM156.644 29.8846C157.125 30.0223 157.581 30.1771 157.938 30.3217L157.569 31.2338C157.25 31.1047 156.828 30.9608 156.373 30.8306L156.644 29.8846ZM154.269 29.4217C155.035 29.495 155.835 29.6535 156.644 29.8846L156.373 30.8306C155.614 30.6137 154.874 30.4679 154.175 30.4011L154.269 29.4217ZM149.252 31.1234C150.31 29.7064 152.083 29.2125 154.269 29.4217L154.175 30.4011C152.162 30.2085 150.809 30.6835 150.04 31.7121L149.252 31.1234ZM149.026 31.4264L149.252 31.1234L150.04 31.7121L149.814 32.0151L149.026 31.4264ZM142.286 23.7777L149.77 31.3755L149.07 32.066L141.585 24.4682L142.286 23.7777ZM136.655 23.7842C138.225 22.2381 140.752 22.2204 142.286 23.7777L141.585 24.4682C140.445 23.3113 138.542 23.3072 137.346 24.4852L136.655 23.7842ZM124.485 35.7733L136.655 23.7842L137.346 24.4852L125.176 36.4743L124.485 35.7733ZM124.398 41.3993C122.864 39.8416 122.916 37.3191 124.485 35.7733L125.176 36.4743C123.982 37.6509 123.958 39.5505 125.099 40.7088L124.398 41.3993ZM133.118 50.251L124.398 41.3993L125.099 40.7088L133.819 49.5605L133.118 50.251ZM132.795 49.5647L133.351 49.428L133.586 50.3835L133.03 50.5201L132.795 49.5647ZM131.188 50.2729C131.66 49.9447 132.201 49.7108 132.795 49.5647L133.03 50.5201C132.538 50.641 132.111 50.8294 131.75 51.0808L131.188 50.2729ZM129.557 52.9853C129.714 51.8557 130.273 50.9162 131.186 50.2744L131.752 51.0794C131.071 51.5579 130.652 52.2496 130.532 53.1201L129.557 52.9853ZM132.406 57.8898C130.59 56.7598 129.301 54.8401 129.557 52.9853L130.532 53.1201C130.349 54.4402 131.289 56.0356 132.925 57.0545L132.406 57.8898ZM134.998 58.939C133.981 58.681 133.12 58.338 132.404 57.8889L132.927 57.0553C133.534 57.4362 134.293 57.7452 135.24 57.9853L134.998 58.939ZM135.309 59.0178L134.998 58.939L135.24 57.9853L135.551 58.064L135.309 59.0178ZM134.872 58.7277L134.954 58.4159L135.906 58.6659L135.824 58.9777L134.872 58.7277ZM134.732 60.6035C134.668 59.9633 134.715 59.3275 134.872 58.7277L135.824 58.9777C135.697 59.4585 135.658 59.9762 135.711 60.5057L134.732 60.6035ZM137.765 64.5308C136.099 64.1493 134.93 62.5164 134.732 60.6052L135.711 60.504C135.878 62.124 136.842 63.31 137.984 63.5717L137.765 64.5308ZM138.073 64.6014L137.765 64.5308L137.984 63.5717L138.293 63.6423L138.073 64.6014ZM137.633 64.3245L137.703 64.0142L138.663 64.2294L138.593 64.5397L137.633 64.3245ZM137.529 66.0637C137.47 65.4808 137.506 64.8936 137.633 64.3245L138.593 64.5397C138.489 65.0058 138.46 65.4868 138.508 65.9645L137.529 66.0637ZM141.587 70.0607C139.467 70.2784 137.77 68.4023 137.529 66.0646L138.508 65.9637C138.715 67.9724 140.097 69.2246 141.486 69.0819L141.587 70.0607ZM142.444 70.0101L141.565 70.0624L141.507 69.0802L142.386 69.028L142.444 70.0101ZM142.878 69.9847L142.444 70.0102L142.386 69.0279L142.82 69.0025L142.878 69.9847ZM142.265 69.7954L142.372 69.373L143.326 69.6141L143.219 70.0365L142.265 69.7954ZM142.104 71.4006C142.077 70.8624 142.132 70.3235 142.265 69.7954L143.219 70.0365C143.109 70.472 143.064 70.9132 143.086 71.3516L142.104 71.4006ZM143.59 74.7471C142.695 73.9442 142.167 72.7135 142.104 71.4L143.086 71.3523C143.139 72.4467 143.577 73.4144 144.247 74.0146L143.59 74.7471ZM146.003 75.6033C145.124 75.6633 144.27 75.3519 143.591 74.7484L144.245 74.0133C144.74 74.4539 145.34 74.6624 145.936 74.6217L146.003 75.6033ZM151.58 75.2282L146.003 75.6033L145.937 74.6216L151.514 74.2465L151.58 75.2282ZM153.402 74.4994C152.865 74.9273 152.244 75.1819 151.581 75.2281L151.513 74.2466C151.961 74.2153 152.395 74.0437 152.789 73.7299L153.402 74.4994ZM153.469 74.5157L153.237 74.5856L152.953 73.6436L153.185 73.5737L153.469 74.5157ZM177.388 72.1145C171.973 74.7351 163.566 75.46 153.283 74.5346L153.371 73.5547C163.608 74.4759 171.792 73.7296 176.96 71.2288L177.388 72.1145ZM177.605 72.0097L177.388 72.1145L176.96 71.2288L177.176 71.1241L177.605 72.0097ZM177.188 72.0741L177.027 71.8985L177.754 71.2353L177.914 71.4109L177.188 72.0741ZM155.136 65.2498C155.059 64.6209 154.863 64.0351 154.565 63.52L155.416 63.0265C155.784 63.661 156.02 64.3744 156.113 65.1292L155.136 65.2498ZM154.466 68.1375C155.018 67.4112 155.276 66.3642 155.136 65.2509L156.113 65.1281C156.279 66.4523 155.982 67.7685 155.249 68.7329L154.466 68.1375ZM154.225 68.4537L154.466 68.1375L155.249 68.7329L155.009 69.0491L154.225 68.4537ZM155.94 68.4677C155.728 68.6766 155.439 68.8604 155.228 68.9824C155.118 69.0461 155.02 69.0987 154.949 69.1354C154.913 69.1538 154.884 69.1684 154.863 69.1786C154.853 69.1837 154.845 69.1877 154.839 69.1906C154.836 69.192 154.833 69.1932 154.832 69.194C154.831 69.1944 154.83 69.1948 154.83 69.195C154.829 69.1952 154.829 69.1953 154.829 69.1954C154.829 69.1954 154.829 69.1955 154.829 69.1955C154.829 69.1955 154.828 69.1955 154.828 69.1956C154.828 69.1956 154.828 69.1956 154.617 68.7514C154.406 68.3071 154.406 68.3072 154.406 68.3072C154.406 68.3072 154.406 68.3072 154.406 68.3072C154.405 68.3072 154.405 68.3072 154.405 68.3073C154.405 68.3073 154.405 68.3073 154.405 68.3073C154.405 68.3072 154.406 68.3071 154.406 68.307C154.407 68.3066 154.408 68.306 154.41 68.3051C154.414 68.3033 154.42 68.3003 154.428 68.2964C154.444 68.2885 154.468 68.2765 154.498 68.261C154.558 68.2298 154.642 68.1851 154.735 68.1311C154.931 68.0176 155.13 67.8844 155.25 67.7668L155.94 68.4677ZM168.227 56.3641L155.94 68.4677L155.25 67.7668L167.536 55.6632L168.227 56.3641ZM168.21 54.1038C168.828 54.7309 168.857 55.7429 168.227 56.3641L167.536 55.6632C167.754 55.4485 167.771 55.0604 167.509 54.7943L168.21 54.1038ZM165.887 51.7456L168.21 54.1038L167.509 54.7943L165.186 52.4361L165.887 51.7456ZM151.509 37.1522L165.887 51.7456L165.186 52.4361L150.808 37.8428L151.509 37.1522ZM150.556 36.1836C150.871 36.5433 151.174 36.8513 151.487 37.131L150.83 37.864C150.485 37.5549 150.155 37.2182 149.816 36.8322L150.556 36.1836ZM141.205 26.6907L150.537 36.1626L149.836 36.8531L140.504 27.3812L141.205 26.6907ZM138.005 26.6667C138.895 25.7897 140.328 25.8004 141.205 26.6907L140.504 27.3812C140.008 26.878 139.198 26.8719 138.695 27.3677L138.005 26.6667ZM126.896 37.6101L138.005 26.6667L138.695 27.3677L127.587 38.3111L126.896 37.6101ZM126.872 40.8104C125.995 39.92 126.006 38.4872 126.896 37.6101L127.587 38.3111C127.083 38.8068 127.077 39.6166 127.573 40.1199L126.872 40.8104ZM141.759 55.9215L126.872 40.8104L127.573 40.1199L142.459 55.231L141.759 55.9215ZM141.876 56.0731C141.778 55.9495 141.758 55.9241 141.73 55.8895L142.488 55.263C142.526 55.3082 142.554 55.3441 142.648 55.4638L141.876 56.0731ZM141.877 56.0745L141.876 56.0739L142.648 55.4629L142.648 55.4635L141.877 56.0745ZM141.909 56.1153L141.876 56.0737L142.649 55.4644L142.682 55.506L141.909 56.1153ZM142.53 56.2775L142.355 56.2989L142.235 55.3223L142.41 55.3009L142.53 56.2775ZM143.339 56.1783L142.53 56.2775L142.41 55.3009L143.22 55.2017L143.339 56.1783ZM146.358 59.2744C146.148 57.2509 144.749 56.0055 143.339 56.1783L143.22 55.2017C145.368 54.9383 147.092 56.8161 147.337 59.1727L146.358 59.2744ZM146.227 60.8698C146.368 60.3608 146.413 59.8173 146.358 59.2736L147.337 59.1735C147.404 59.8364 147.35 60.5032 147.175 61.1329L146.227 60.8698ZM146.108 61.2967L146.227 60.8698L147.175 61.1329L147.056 61.5597L146.108 61.2967ZM147.053 61.8924L146.612 61.9192L146.552 60.9372L146.993 60.9103L147.053 61.8924ZM151.932 61.5946L147.053 61.8924L146.993 60.9103L151.872 60.6125L151.932 61.5946ZM152.543 61.619C152.237 61.5868 152.049 61.583 151.952 61.5929L151.852 60.6142C152.055 60.5933 152.329 60.6071 152.646 60.6406L152.543 61.619ZM154.439 63.3081C153.959 62.5046 153.288 61.9344 152.413 61.5871L152.776 60.6726C153.852 61.0994 154.692 61.8132 155.284 62.8035L154.439 63.3081ZM154.567 63.5236L154.438 63.3062L155.285 62.8054L155.414 63.0228L154.567 63.5236ZM138.238 61.9421L138.117 61.9093L138.375 60.9598L138.496 60.9926L138.238 61.9421ZM143.953 61.246L138.43 61.9553L138.305 60.9794L143.828 60.2701L143.953 61.246ZM144.202 61.145L144.143 61.1803L143.638 60.3358L143.697 60.3005L144.202 61.145ZM144.231 61.1267L144.215 61.1369L143.684 60.3086L143.7 60.2984L144.231 61.1267ZM144.247 61.1157L144.24 61.1203L143.69 60.3048L143.697 60.3002L144.247 61.1157ZM144.268 61.101L144.263 61.1044L143.681 60.3115L143.685 60.3081L144.268 61.101ZM144.296 61.0801L144.273 61.0974L143.681 60.3117L143.704 60.2943L144.296 61.0801ZM144.397 60.9904C144.365 61.022 144.348 61.0376 144.315 61.0648L143.684 60.3097C143.69 60.3049 143.693 60.3022 143.695 60.3003C143.697 60.2986 143.698 60.2981 143.698 60.2982C143.697 60.2988 143.698 60.298 143.707 60.2895L144.397 60.9904ZM144.929 59.1133C145.002 59.8038 144.834 60.5602 144.397 60.9904L143.707 60.2895C143.851 60.147 144.006 59.7398 143.95 59.2174L144.929 59.1133ZM143.771 57.2863C144.143 57.3755 144.41 57.6992 144.574 57.9841C144.754 58.2973 144.885 58.6938 144.929 59.115L143.95 59.2157C143.92 58.9267 143.83 58.6635 143.721 58.4742C143.596 58.2567 143.508 58.235 143.542 58.243L143.771 57.2863ZM143.657 57.2589L143.771 57.2863L143.542 58.243L143.428 58.2156L143.657 57.2589ZM137.877 57.9932L143.478 57.2496L143.607 58.225L138.006 58.9685L137.877 57.9932ZM137.518 58.2076L137.596 58.1304L138.287 58.8313L138.208 58.9085L137.518 58.2076ZM136.983 60.0857C136.914 59.3914 137.082 58.6373 137.518 58.2076L138.208 58.9085C138.064 59.0507 137.909 59.4567 137.962 59.9879L136.983 60.0857ZM138.117 61.9093C137.756 61.8112 137.495 61.4907 137.333 61.2065C137.156 60.8951 137.026 60.5024 136.983 60.0871L137.962 59.9864C137.991 60.2688 138.08 60.5296 138.189 60.72C138.312 60.9376 138.402 60.9671 138.375 60.9598L138.117 61.9093ZM152.169 66.0965L152.231 66.0356L152.921 66.7365L152.859 66.7974L152.169 66.0965ZM141.111 66.7819L152.479 65.9563L152.55 66.9376L141.182 67.7632L141.111 66.7819ZM141.022 66.791L141.095 66.7833L141.198 67.7618L141.125 67.7695L141.022 66.791ZM140.994 66.7817L141.107 66.7895L141.039 67.7711L140.927 67.7633L140.994 66.7817ZM140.681 65.8229C140.706 66.1093 140.794 66.3714 140.901 66.561C141.023 66.7777 141.112 66.8033 141.082 66.7958L140.839 67.7492C140.47 67.6551 140.206 67.3317 140.043 67.044C139.866 66.7291 139.738 66.3315 139.701 65.91L140.681 65.8229ZM140.858 64.8331C140.727 65.053 140.644 65.4179 140.681 65.8213L139.701 65.9115C139.649 65.3488 139.753 64.7653 140.013 64.3293L140.858 64.8331ZM140.959 64.4986L140.915 64.6922L139.956 64.4702L140.001 64.2766L140.959 64.4986ZM140.96 64.2254L140.97 64.3472L139.99 64.4279L139.98 64.3061L140.96 64.2254ZM152.127 63.915L140.506 64.7564L140.435 63.7751L152.056 62.9337L152.127 63.915ZM152.216 63.9059L152.143 63.9136L152.04 62.9351L152.113 62.9274L152.216 63.9059ZM152.243 63.9152L152.131 63.9074L152.198 62.9259L152.311 62.9336L152.243 63.9152ZM152.557 64.8733C152.53 64.5866 152.442 64.3243 152.335 64.1348C152.212 63.9174 152.124 63.8931 152.156 63.9011L152.399 62.9477C152.767 63.0416 153.03 63.3654 153.192 63.6513C153.369 63.965 153.497 64.3612 153.536 64.7812L152.557 64.8733ZM152.292 65.9804C152.448 65.825 152.606 65.4059 152.557 64.8724L153.537 64.7822C153.601 65.4837 153.424 66.2405 152.987 66.6767L152.292 65.9804ZM152.276 65.9942L152.309 65.9645L152.971 66.6925L152.938 66.7222L152.276 65.9942ZM152.248 66.019L152.28 65.9911L152.935 66.7252L152.904 66.7531L152.248 66.019ZM135.423 52.0437L135.553 52.0409L135.574 53.0246L135.444 53.0274L135.423 52.0437ZM135.36 52.042C135.357 52.0415 135.368 52.0448 135.423 52.0437L135.444 53.0274C135.354 53.0292 135.255 53.0264 135.149 53.0031L135.36 52.042ZM132.155 52.404C132.526 52.1387 133.045 51.9976 133.579 51.9435C134.125 51.8883 134.741 51.9184 135.351 52.0401L135.158 53.005C134.638 52.9012 134.12 52.8777 133.678 52.9224C133.224 52.9683 132.9 53.0809 132.727 53.2047L132.155 52.404ZM131.544 53.4288C131.614 52.9917 131.802 52.6541 132.156 52.4031L132.725 53.2056C132.615 53.2837 132.55 53.372 132.515 53.5852L131.544 53.4288ZM133.247 55.9452C132.748 55.6409 132.311 55.2231 132.005 54.8009C131.852 54.5892 131.724 54.3658 131.639 54.1439C131.558 53.9282 131.503 53.6773 131.544 53.428L132.515 53.586C132.513 53.6008 132.511 53.667 132.559 53.795C132.606 53.917 132.686 54.0641 132.802 54.2237C133.034 54.5438 133.376 54.8711 133.76 55.1055L133.247 55.9452ZM136.703 56.925C135.23 56.7593 134.063 56.444 133.247 55.9451L133.76 55.1056C134.397 55.4947 135.396 55.788 136.813 55.9473L136.703 56.925ZM136.781 56.9338L136.703 56.925L136.813 55.9472L136.891 55.9561L136.781 56.9338ZM137.089 56.875L137.012 56.9044L136.66 55.9855L136.737 55.9561L137.089 56.875ZM137.551 56.7482C137.417 56.7677 137.262 56.8089 137.089 56.875L136.737 55.9561C136.964 55.8694 137.19 55.8064 137.41 55.7744L137.551 56.7482ZM139.092 56.5332L137.549 56.7485L137.413 55.7741L138.956 55.5587L139.092 56.5332ZM135.914 52.1875L139.375 55.7007L138.674 56.3912L135.213 52.878L135.914 52.1875ZM177.449 68.4723L179.227 62.0345L180.175 62.2964L178.397 68.7343L177.449 68.4723ZM177.418 68.582L177.449 68.4723L178.397 68.7343L178.367 68.844L177.418 68.582ZM177.519 68.3735L177.612 68.3088L178.173 69.1172L178.08 69.1819L177.519 68.3735ZM154.971 71.2992C160.263 71.7215 164.89 71.6978 168.708 71.2098C172.533 70.721 175.504 69.771 177.519 68.3735L178.08 69.1819C175.881 70.7076 172.731 71.6875 168.833 72.1858C164.927 72.685 160.227 72.7057 154.893 72.28L154.971 71.2992ZM154.642 71.2729L154.972 71.2992L154.893 72.28L154.564 72.2537L154.642 71.2729ZM155.134 71.3894L155.092 71.8118L154.113 71.7148L154.155 71.2923L155.134 71.3894ZM155.156 71.0979C155.153 71.1853 155.147 71.2647 155.134 71.3906L154.155 71.2912C154.167 71.1724 154.171 71.1199 154.173 71.0669L155.156 71.0979ZM155.167 70.7405L155.156 71.0979L154.173 71.0669L154.184 70.7095L155.167 70.7405ZM154.953 71.267L154.599 71.2109L154.753 70.2391L155.107 70.2952L154.953 71.267ZM158.376 70.173C157.473 71.0633 156.201 71.4649 154.953 71.267L155.107 70.2952C156.05 70.4447 157.007 70.1412 157.686 69.4721L158.376 70.173ZM170.42 58.3088L158.376 70.173L157.686 69.4721L169.729 57.6079L170.42 58.3088ZM170.48 52.6972C172.014 54.2542 171.982 56.7698 170.42 58.3088L169.729 57.6079C170.909 56.4454 170.927 54.5528 169.779 53.3877L170.48 52.6972ZM161.457 43.5386L170.48 52.6972L169.779 53.3877L160.756 44.2291L161.457 43.5386ZM161.387 43.3205C161.46 43.4321 161.511 43.5502 161.571 43.7195L160.643 44.0482C160.592 43.9034 160.572 43.8712 160.562 43.8568L161.387 43.3205ZM158.526 38.8151L161.39 43.3249L160.56 43.8524L157.695 39.3426L158.526 38.8151ZM157.87 38.2232C158.135 38.3565 158.36 38.5621 158.522 38.8093L157.699 39.3485C157.627 39.2388 157.531 39.1541 157.429 39.1026L157.87 38.2232ZM153.502 35.4624C154.504 36.3206 155.958 37.2505 157.872 38.2244L157.426 39.1014C155.474 38.1083 153.945 37.1375 152.862 36.2095L153.502 35.4624ZM152.42 34.3618L153.532 35.4906L152.831 36.1813L151.719 35.0524L152.42 34.3618ZM151.866 33.246C151.885 33.4864 152.044 33.882 152.455 34.4018L151.684 35.0124C151.222 34.4295 150.927 33.8482 150.885 33.3247L151.866 33.246ZM151.855 33.1175L151.866 33.246L150.885 33.3247L150.875 33.1963L151.855 33.1175ZM151.826 33.3718L151.744 33.4704L150.986 32.8434L151.067 32.7449L151.826 33.3718ZM156.476 33.7114C155.381 33.2705 154.302 33.0325 153.434 32.9982C153 32.981 152.635 33.0155 152.353 33.0906C152.068 33.1667 151.907 33.274 151.826 33.3718L151.067 32.7449C151.325 32.4338 151.7 32.2466 152.1 32.1399C152.504 32.0322 152.973 31.9953 153.473 32.0151C154.474 32.0546 155.664 32.3239 156.843 32.7986L156.476 33.7114ZM172.214 45.8259C171.144 43.7469 168.963 41.426 166.146 39.2587C163.339 37.098 159.938 35.1195 156.474 33.7107L156.845 32.7993C160.392 34.2422 163.87 36.2653 166.747 38.479C169.615 40.686 171.924 43.1122 173.088 45.3758L172.214 45.8259ZM177.495 52.4313C175.494 50.9606 173.718 48.7487 172.214 45.826L173.088 45.3758C174.543 48.2029 176.231 50.281 178.078 51.6386L177.495 52.4313ZM179.482 53.5888C178.828 53.3085 178.161 52.9209 177.495 52.4313L178.078 51.6386C178.692 52.09 179.294 52.4378 179.869 52.6845L179.482 53.5888ZM180.547 53.9364C180.21 53.8676 179.866 53.7538 179.482 53.5888L179.869 52.6845C180.21 52.8305 180.489 52.9203 180.744 52.9725L180.547 53.9364ZM181.62 54.0872L180.577 53.9417L180.713 52.9672L181.756 53.1127L181.62 54.0872ZM181.986 54.1384L181.62 54.0872L181.756 53.1128L182.123 53.164L181.986 54.1384ZM179.227 62.0344L181.58 53.5202L182.529 53.7823L180.175 62.2965L179.227 62.0344ZM145.139 73.0971L145.027 73.064L145.305 72.1203L145.417 72.1534L145.139 73.0971ZM150.83 72.6247L145.322 73.1152L145.234 72.1352L150.743 71.6447L150.83 72.6247ZM151.07 72.5424L151.01 72.5728L150.562 71.6967L150.622 71.6664L151.07 72.5424ZM151.119 72.5153C151.107 72.5224 151.095 72.5286 151.084 72.535L150.608 71.6738C150.616 71.6695 150.619 71.6677 150.621 71.6666C150.622 71.666 150.621 71.6667 150.619 71.6677L151.119 72.5153ZM151.128 72.5094C151.126 72.5107 151.123 72.5129 151.119 72.5151L150.619 71.6679C150.618 71.668 150.618 71.668 150.621 71.6662L151.128 72.5094ZM151.154 72.493C151.151 72.4951 151.148 72.4972 151.145 72.4987L150.604 71.677C150.607 71.6751 150.608 71.6746 150.609 71.6742L151.154 72.493ZM151.195 72.4653C151.174 72.4796 151.164 72.4865 151.154 72.4932L150.609 71.674C150.609 71.6739 150.61 71.6734 150.614 71.6706C150.618 71.6675 150.625 71.663 150.636 71.655L151.195 72.4653ZM151.338 72.3435C151.296 72.3841 151.251 72.4243 151.207 72.4561L150.624 71.6642C150.621 71.6662 150.623 71.6651 150.628 71.66C150.634 71.6554 150.64 71.6494 150.647 71.6426L151.338 72.3435ZM151.943 70.5503C151.965 71.222 151.76 71.927 151.338 72.3435L150.647 71.6426C150.812 71.4803 150.976 71.0814 150.96 70.5819L151.943 70.5503ZM151.057 68.7255C151.409 68.8418 151.617 69.1678 151.732 69.4478C151.858 69.7532 151.93 70.1338 151.943 70.5509L150.959 70.5813C150.949 70.2515 150.892 69.9931 150.822 69.8225C150.741 69.6264 150.686 69.6392 150.749 69.66L151.057 68.7255ZM150.939 68.6866L151.057 68.7256L150.749 69.66L150.631 69.6211L150.939 68.6866ZM145.065 69.1298L150.744 68.6636L150.825 69.6442L145.146 70.1104L145.065 69.1298ZM144.628 69.7397L144.623 69.7157L145.588 69.5245L145.593 69.5485L144.628 69.7397ZM144.827 69.239C144.832 69.2361 144.839 69.2315 144.85 69.2256C144.857 69.2214 144.867 69.2165 144.876 69.2115L145.344 70.0767C145.339 70.0798 145.335 70.0817 145.332 70.0832C145.33 70.0847 145.329 70.085 145.329 70.0849C145.33 70.0844 145.331 70.0837 145.332 70.0832C145.332 70.0831 145.332 70.0831 145.329 70.0849L144.827 69.239ZM144.759 69.2841C144.773 69.2741 144.782 69.2679 144.789 69.2634C144.797 69.2577 144.803 69.2542 144.808 69.2505L145.348 70.0734C145.343 70.0767 145.343 70.0767 145.341 70.0779C145.337 70.0805 145.331 70.0847 145.315 70.0956L144.759 69.2841ZM144.614 69.4069C144.656 69.3661 144.702 69.3255 144.745 69.2936L145.328 70.0861C145.33 70.0846 145.331 70.0842 145.33 70.0852C145.329 70.086 145.327 70.0876 145.324 70.0899C145.319 70.0945 145.312 70.1007 145.305 70.1078L144.614 69.4069ZM144.007 71.2018C143.985 70.5322 144.192 69.8233 144.614 69.4069L145.305 70.1078C145.139 70.2712 144.974 70.675 144.99 71.1688L144.007 71.2018ZM145.027 73.064C144.661 72.9562 144.418 72.6188 144.277 72.3311C144.122 72.0133 144.019 71.6163 144.007 71.2L144.99 71.1706C144.999 71.4518 145.069 71.7106 145.161 71.898C145.267 72.1155 145.347 72.1328 145.305 72.1203L145.027 73.064Z" fill="#132C45"/>
    <path fill-rule="evenodd" clip-rule="evenodd" d="M141.779 32.7165C141.809 32.7367 141.836 32.7598 141.862 32.7861L143.573 34.5229C143.794 34.747 143.791 35.1076 143.567 35.3284L143.356 35.5368C143.131 35.7576 142.771 35.7549 142.55 35.5308L141.443 34.4071L140.314 35.5194C140.09 35.7401 139.729 35.7374 139.508 35.5133L139.304 35.3055C139.083 35.0814 139.086 34.7208 139.31 34.5L141.056 32.7796C141.254 32.5845 141.559 32.5639 141.779 32.7165ZM132.871 42.0785C132.867 42.0742 132.862 42.0697 132.858 42.0652L132.653 41.8574C132.432 41.6333 132.435 41.2726 132.659 41.0519L134.406 39.3315C134.63 39.1107 134.99 39.1134 135.211 39.3375L135.416 39.5453C135.637 39.7694 135.634 40.13 135.41 40.3508L134.281 41.4628L135.388 42.5862C135.609 42.8103 135.606 43.171 135.382 43.3917L135.17 43.6002C134.946 43.821 134.585 43.8183 134.365 43.5942L132.871 42.0785ZM148.389 39.4117C148.168 39.1876 147.808 39.1849 147.584 39.4057L147.372 39.6142C147.148 39.8349 147.145 40.1956 147.366 40.4197L148.473 41.5432L147.344 42.6554C147.12 42.8762 147.117 43.2368 147.338 43.4609L147.542 43.6687C147.763 43.8928 148.124 43.8955 148.348 43.6747L150.094 41.9543C150.318 41.7335 150.321 41.3729 150.1 41.1488L149.896 40.941L149.894 40.9396L148.389 39.4117ZM139.187 47.6776C138.963 47.8984 138.96 48.259 139.181 48.4832L140.679 50.0035L140.687 50.0123L140.892 50.2201C141.112 50.4442 141.473 50.4469 141.697 50.2261L143.444 48.5057C143.668 48.285 143.67 47.9243 143.45 47.7002L143.245 47.4924C143.024 47.2683 142.664 47.2656 142.439 47.4864L141.311 48.5985L140.204 47.4752C139.983 47.2511 139.623 47.2484 139.398 47.4692L139.187 47.6776Z" fill="#132C45"/>
    <path fill-rule="evenodd" clip-rule="evenodd" d="M109.406 35.9411C109.832 35.9187 110.191 36.2488 110.209 36.6755L110.245 37.5388C111.436 36.1123 112.735 35.1206 114.105 34.5301C115.626 33.873 117.154 33.7363 118.595 33.9798C119.347 34.1068 119.966 34.314 120.423 34.5311C120.467 34.5518 120.497 34.5667 120.52 34.579C120.897 34.7791 121.037 35.246 120.839 35.6221C120.756 35.7806 120.622 35.9034 120.461 35.973C120.249 36.0642 120.007 36.057 119.8 35.9468L119.831 35.9617C119.498 35.7915 118.947 35.5971 118.245 35.4891C117.098 35.3129 115.906 35.4304 114.704 35.9491C113.521 36.46 112.39 37.3345 111.325 38.641L112.346 38.5953C112.772 38.5762 113.129 38.9097 113.143 39.3368C113.154 39.6589 112.966 39.9512 112.675 40.0765C112.591 40.113 112.5 40.134 112.407 40.1385L109.587 40.2644C109.167 40.283 108.815 39.9602 108.79 39.5297L108.675 36.7489C108.657 36.3251 108.983 35.9634 109.406 35.9411ZM124.048 48.9991C123.622 49.0215 123.263 48.6914 123.245 48.2647L123.209 47.4014C122.018 48.8278 120.719 49.8196 119.349 50.4101C117.828 51.0672 116.3 51.2039 114.859 50.9603C114.107 50.8334 113.488 50.6262 113.031 50.4091C112.987 50.3884 112.957 50.3735 112.934 50.3612C112.557 50.1611 112.416 49.6942 112.615 49.3181C112.698 49.1596 112.832 49.0368 112.993 48.9672C113.205 48.8759 113.447 48.8832 113.654 48.9933L113.623 48.9785C113.955 49.1487 114.506 49.343 115.209 49.4511C116.356 49.6273 117.548 49.5097 118.75 48.9911C119.933 48.4802 121.063 47.6057 122.129 46.2992L121.108 46.3449C120.681 46.3639 120.325 46.0305 120.31 45.6034C120.3 45.2812 120.488 44.989 120.779 44.8636C120.863 44.8272 120.954 44.8062 121.047 44.8017L123.867 44.6758C124.286 44.6572 124.639 44.98 124.664 45.4105L124.779 48.1913C124.796 48.6151 124.471 48.9768 124.048 48.9991Z" fill="#50E3C2"/>
</svg>