<svg width="24" height="24" viewBox="0 0 24 24" fill="none" xmlns="http://www.w3.org/2000/svg">
    <path d="M21.1976 19.1519L12.2235 3.46851L3.13586 19.1519H21.1976Z" fill="#50E3C2"/>
    <path d="M21.5677 20.191H2.87941C2.57056 20.191 2.28392 20.0375 2.12506 19.7865C1.96621 19.5356 1.95822 19.2243 2.10376 18.9666L11.4479 2.43976C11.6015 2.16869 11.8988 2 12.2236 2C12.5484 2 12.8466 2.16868 12.9992 2.43976L22.3434 18.9666C22.4889 19.2243 22.481 19.5356 22.3221 19.7865C22.1632 20.0375 21.8766 20.191 21.5677 20.191H21.5677ZM4.34729 18.5269H20.0998L12.2236 4.59657L4.34729 18.5269Z" fill="#132C45"/>
    <path d="M12.2235 14.0261C11.7372 14.0261 11.3441 13.6535 11.3441 13.1945V9.97529C11.3441 9.51624 11.7381 9.14362 12.2235 9.14362C12.7099 9.14362 13.103 9.51624 13.103 9.97529V13.1945C13.103 13.6535 12.7099 14.0261 12.2235 14.0261Z" fill="#132C45"/>
    <path d="M12.2226 16.8492C11.9919 16.8492 11.7656 16.7602 11.6005 16.6041C11.4381 16.4497 11.3431 16.2357 11.3431 16.0175C11.3431 15.7968 11.4372 15.5828 11.6005 15.4292C11.7656 15.2731 11.9919 15.1859 12.2226 15.1859C12.456 15.1859 12.6823 15.2731 12.8447 15.4292C13.0098 15.5836 13.1021 15.7976 13.1021 16.0175C13.1021 16.2357 13.0098 16.4497 12.8447 16.6041C12.6823 16.7602 12.456 16.8492 12.2226 16.8492Z" fill="#132C45"/>
</svg>
