<?xml version="1.0" standalone="no"?>
<!DOCTYPE svg PUBLIC "-//W3C//DTD SVG 20010904//EN"
 "http://www.w3.org/TR/2001/REC-SVG-20010904/DTD/svg10.dtd">
<svg version="1.0" xmlns="http://www.w3.org/2000/svg"
 width="700.000000pt" height="700.000000pt" viewBox="0 0 700.000000 700.000000"
 preserveAspectRatio="xMidYMid meet">
<metadata>
Created by potrace 1.11, written by Peter Selinger 2001-2013
</metadata>
<g transform="translate(0.000000,700.000000) scale(0.100000,-0.100000)"
fill="#000000" stroke="none">
<path d="M3335 5792 c-60 -5 -182 -36 -248 -63 -181 -73 -332 -206 -424 -374
-23 -43 -26 -44 -108 -24 -28 7 -108 13 -180 13 -114 0 -140 -4 -211 -27 -181
-60 -323 -196 -390 -375 -79 -208 -38 -450 102 -610 129 -147 354 -253 596
-279 l73 -8 0 -732 c0 -485 3 -729 10 -725 34 19 165 115 165 120 0 4 2 124 3
267 l2 259 87 33 c81 30 242 75 313 88 130 22 226 29 395 29 169 0 323 -9 340
-19 3 -2 26 -6 50 -10 104 -15 364 -91 395 -115 6 -5 10 -107 10 -270 l-1
-261 86 -60 85 -59 3 709 2 709 33 8 c17 4 37 9 42 11 6 1 24 6 40 9 17 4 70
27 118 52 372 187 455 677 163 967 -124 123 -263 176 -456 175 -58 0 -115 -1
-128 -3 -19 -2 -27 8 -50 63 -131 306 -434 499 -795 504 -51 1 -105 0 -122 -2z"/>
<path d="M3235 2765 c-118 -37 -264 -125 -494 -299 -247 -187 -337 -222 -461
-181 -62 20 -146 99 -177 165 -11 24 -12 24 -12 -13 -1 -21 8 -65 20 -99 86
-255 383 -413 704 -374 62 7 155 30 190 46 11 5 43 19 70 31 122 53 281 182
432 351 l42 46 17 -26 c43 -65 206 -227 286 -284 72 -52 180 -108 254 -132
396 -130 840 86 870 424 l5 55 -20 -36 c-27 -48 -96 -116 -145 -142 -30 -16
-59 -21 -111 -22 -110 0 -199 50 -447 250 -46 37 -182 127 -253 168 -155 88
-292 109 -364 56 -38 -28 -76 -89 -86 -139 l-8 -34 -21 56 c-40 106 -97 148
-201 147 -27 -1 -68 -7 -90 -14z"/>
<path d="M2548 1828 c-2 -7 -3 -92 -3 -188 2 -219 11 -244 110 -290 38 -17 82
-18 855 -19 475 0 830 4 851 10 50 13 88 45 110 93 16 35 19 68 19 225 0 158
-2 182 -15 177 -15 -5 -101 -18 -138 -20 -19 -1 -22 -7 -22 -41 l0 -40 -795 0
-795 0 -5 40 c-3 22 -9 41 -15 41 -5 1 -35 4 -66 7 -30 4 -62 9 -71 12 -8 3
-17 0 -20 -7z"/>
</g>
</svg>
