<svg version="1" xmlns="http://www.w3.org/2000/svg" width="933.333" height="933.333" viewBox="0 0 700.000000 700.000000"><path d="M321.5 1.1c-69.6 5.7-136.4 32.3-191 75.9-15.4 12.3-38.6 35.2-50.8 50.1-126.2 154.5-99.4 382.5 59 502.1 51.4 38.7 107 60.7 174.8 69 13 1.6 60 1.6 73 0 57.5-7 106.2-23.9 151.1-52.5C653.9 571.7 716 436.6 696.4 300c-9.1-63.5-35.2-122.7-76.1-172.9-18.8-23-49.2-50.6-73.5-66.9C508 34.3 465.6 16.3 423 7.6c-34-6.9-69.2-9.1-101.5-6.5zm42.3 121.4c28.7 6.1 50.8 23.5 61.3 48.5l2.7 6.4 12.9-.2c21.5-.5 34.8 4.3 47.9 17.3 12.5 12.4 18 27.1 17.1 45.5-.8 17-6 28.6-18 40.3-7.8 7.6-20.3 14.4-31.9 17.3l-6.8 1.6-.2 70.9-.3 70.9-8.7-6-8.8-6.1-.2-26.7-.3-26.7-6.5-2.3c-34.2-12.3-76.8-15.4-113.5-8.1-11.1 2.2-26.6 6.7-33.8 9.9l-4.7 2.1v52.7l-8.5 6.1-8.5 6.1-.2-73.3-.3-73.2-7.3-.8c-24.2-2.6-47.2-13.4-59.3-27.8-10.5-12.4-14.2-22.6-14.3-38.9 0-10 .3-12.5 2.8-19.5 3.6-10.5 8.1-17.7 15.8-25.2 8.1-7.8 14.3-11.7 24.3-15 7.1-2.4 9.6-2.7 21.5-2.7 9.7 0 15.2.5 19.5 1.7 5.5 1.6 6.1 1.6 7 .1 6.5-10.6 11.2-17.1 15.9-21.7 20.7-20.7 53-29.7 83.4-23.2zM339.9 423c6 1.7 11.6 8.6 13.5 16.5l.8 3 1.8-4.7c4.6-12.1 10.6-16.5 21.1-15.4 12.6 1.3 27.3 9.4 55.4 30.6 20.7 15.6 27.5 19.3 36.5 19.8 5.8.3 7.2 0 13-3 5-2.6 7.6-4.8 11.3-9.6 5-6.7 5.4-6.5 3.6 2-3.6 17-18.5 31.5-39.7 38.6-6.8 2.3-9.4 2.6-21.7 2.6-19.9 0-30.6-3.3-47.9-14.8-7.6-5.1-27.1-23.8-31-29.9l-1.6-2.4-15.3 15.1c-11.8 11.8-16.9 16.1-23 19.5-15.2 8.5-26.2 12-41.2 12.8-31.4 1.8-60.2-16.5-65.4-41.5-1.7-8.1-1.4-9.1 1.5-4.7 5.8 8.8 12.2 13.6 20.4 15.4 9.8 2.2 19.2-2.2 42.6-19.6 20.8-15.5 28.2-20.4 38.9-25.4 12-5.6 19.2-7 26.4-4.9zm-74.6 94.7l6.7.6v8.7h158.9l.3-4.3.3-4.2 6.7-.7c3.7-.3 7.6-.9 8.7-1.3 2.1-.6 2.1-.4 2.1 17.7 0 19.6-.9 23.8-5.8 28.1-5.1 4.6-5 4.6-91.5 4.7-88.5 0-85.7.2-91.5-5.3-4.8-4.5-5.2-6.4-5.2-26.8 0-17.8.1-19.1 1.8-18.4.9.3 4.7.9 8.5 1.2z"/></svg>